<svg width="16" height="16" viewBox="0 0 16 16" fill="none" xmlns="http://www.w3.org/2000/svg">
<path d="M4.72727 1.27273C4.72727 0.570182 5.29745 0 6 0H10C10.7025 0 11.2727 0.570182 11.2727 1.27273V2.90909H14.7273C15.4298 2.90909 16 3.47927 16 4.18182V14.7273C16 15.0648 15.8659 15.3885 15.6272 15.6272C15.3885 15.8659 15.0648 16 14.7273 16H1.27273C0.935179 16 0.611456 15.8659 0.372773 15.6272C0.134091 15.3885 0 15.0648 0 14.7273V4.18182C0 3.47927 0.570182 2.90909 1.27273 2.90909H4.72727V1.27273ZM1.09091 8.72V14.7273C1.09091 14.8276 1.17236 14.9091 1.27273 14.9091H14.7273C14.7755 14.9091 14.8217 14.8899 14.8558 14.8558C14.8899 14.8217 14.9091 14.7755 14.9091 14.7273V8.72C14.351 9.19498 13.6419 9.45542 12.9091 9.45455H3.09091C2.35809 9.45542 1.64896 9.19498 1.09091 8.72ZM14.9091 6.36364V4.18182C14.9091 4.1336 14.8899 4.08735 14.8558 4.05325C14.8217 4.01916 14.7755 4 14.7273 4H1.27273C1.22451 4 1.17826 4.01916 1.14416 4.05325C1.11006 4.08735 1.09091 4.1336 1.09091 4.18182V6.36364C1.09091 6.89407 1.30162 7.40278 1.6767 7.77785C2.05177 8.15292 2.56048 8.36364 3.09091 8.36364H12.9091C13.4395 8.36364 13.9482 8.15292 14.3233 7.77785C14.6984 7.40278 14.9091 6.89407 14.9091 6.36364ZM10.1818 1.27273C10.1818 1.22451 10.1627 1.17826 10.1286 1.14416C10.0945 1.11006 10.0482 1.09091 10 1.09091H6C5.95178 1.09091 5.90553 1.11006 5.87144 1.14416C5.83734 1.17826 5.81818 1.22451 5.81818 1.27273V2.90909H10.1818V1.27273Z" fill="white"/>
</svg>
