<svg width="20" height="18" viewBox="0 0 20 18" fill="none" xmlns="http://www.w3.org/2000/svg">
<path d="M1.61286 17.0414H12.1875C13.0771 17.0397 13.7987 16.319 13.8004 15.4285V14.4263C13.7979 13.136 13.4358 11.8725 12.7545 10.7771C12.0724 9.68248 11.0988 8.79958 9.94205 8.22824C9.79756 8.15768 9.62282 8.20472 9.53295 8.33745C8.94912 9.20353 7.97045 9.72018 6.92542 9.71345C5.88123 9.70673 4.90929 9.17833 4.33553 8.30551C4.24648 8.1711 4.07258 8.12322 3.92727 8.19127C2.75288 8.75746 1.76168 9.64288 1.0677 10.7459C0.372968 11.8489 0.00335484 13.1248 0 14.4278V15.43C0.00252022 16.3196 0.723247 17.0397 1.61286 17.0414ZM0.645118 14.4264C0.648479 13.2906 0.958452 12.1775 1.54314 11.204C2.12783 10.2312 2.96452 9.43398 3.96594 8.8971C4.67411 9.8136 5.7645 10.3529 6.92293 10.3596C8.08136 10.3664 9.17755 9.83964 9.89669 8.93155C10.8821 9.4717 11.7036 10.2672 12.2773 11.2333C12.8503 12.2002 13.1535 13.3023 13.1552 14.4264V15.4286C13.1535 15.962 12.7209 16.3947 12.1874 16.3963H10.3225V13.3983C10.3225 13.2202 10.178 13.0757 9.99994 13.0757C9.82185 13.0757 9.67736 13.2202 9.67736 13.3983V16.3963H4.21026V13.3983C4.21026 13.2202 4.06661 13.0757 3.88768 13.0757C3.70959 13.0757 3.5651 13.2202 3.5651 13.3983V16.3963H1.61282C1.07854 16.3946 0.645914 15.962 0.645076 15.4286L0.645118 14.4264Z" fill="white"/>
<path d="M6.94385 7.77612C7.94267 7.77612 8.90118 7.37961 9.60772 6.67313C10.3142 5.96664 10.7115 5.00898 10.7115 4.01012C10.7124 3.01131 10.3159 2.05279 9.61024 1.34539C8.90374 0.638896 7.94608 0.241563 6.94722 0.240724C5.94757 0.239884 4.98989 0.63638 4.28249 1.34204C3.57516 2.04767 3.17699 3.00535 3.17615 4.00419C3.17615 5.00384 3.57266 5.96236 4.27914 6.66978C4.98563 7.37711 5.94411 7.77529 6.94385 7.77612ZM6.94385 0.894401C7.77299 0.894401 8.56768 1.22455 9.1531 1.8109C9.73946 2.39726 10.0679 3.19279 10.0662 4.02186C10.0654 4.85017 9.73441 5.64485 9.14722 6.22961C8.56002 6.8143 7.76449 7.14191 6.9354 7.13939C6.10626 7.13771 5.31241 6.80589 4.72851 6.21784C4.14383 5.6298 3.81789 4.83344 3.82124 4.0043C3.82376 3.17683 4.15307 2.38468 4.73858 1.79999C5.32411 1.21617 6.11712 0.886853 6.94374 0.886014L6.94385 0.894401Z" fill="white"/>
<path d="M16.8446 6.38508C16.7001 6.31452 16.5262 6.36156 16.4364 6.49429C15.9752 7.17726 15.2023 7.58468 14.3782 7.58048C13.5542 7.57544 12.7872 7.15962 12.3336 6.47076C12.2445 6.33636 12.0698 6.28763 11.9245 6.35736C11.3373 6.63794 10.803 7.01848 10.346 7.4822C10.2208 7.60904 10.2225 7.81319 10.3494 7.93919C10.4762 8.06435 10.6812 8.06267 10.8064 7.93583C11.1483 7.58888 11.5389 7.29402 11.9656 7.06049C12.552 7.79217 13.4374 8.2206 14.3749 8.22649C15.3132 8.23153 16.2028 7.81318 16.7977 7.08821C17.5722 7.52419 18.2174 8.15845 18.6668 8.92542C19.1162 9.69239 19.3531 10.5652 19.3548 11.454V12.2647C19.354 12.662 19.0314 12.9838 18.634 12.9854H17.1874V10.6198C17.1874 10.4409 17.0429 10.2973 16.8649 10.2973C16.6859 10.2973 16.5423 10.4409 16.5423 10.6198V12.9854H14.4707C14.2926 12.9854 14.1481 13.1291 14.1481 13.308C14.1481 13.4861 14.2926 13.6306 14.4707 13.6306H18.6339C19.3883 13.6289 19.999 13.0182 19.9999 12.2647V11.454C20.0057 9.95535 19.4101 8.51811 18.3458 7.46219C17.9098 7.022 17.4024 6.65726 16.8446 6.38508Z" fill="white"/>
<path d="M14.3934 6.21976C15.2183 6.22145 16.0105 5.89467 16.5951 5.3125C17.1789 4.73035 17.5082 3.93901 17.5099 3.114C17.5108 2.28908 17.184 1.4969 16.601 0.91314C16.018 0.329312 15.2275 0.00083871 14.4016 0C13.5767 0 12.7854 0.326774 12.2016 0.910624C11.6178 1.49361 11.2902 2.28495 11.2902 3.10998C11.291 3.93323 11.6178 4.72288 12.1991 5.30589C12.7813 5.88888 13.5702 6.21725 14.3934 6.21976ZM14.3934 0.64514C15.3905 0.64262 16.2911 1.24157 16.6749 2.16228C17.0588 3.08297 16.8488 4.14396 16.1448 4.85045C15.4409 5.55609 14.3799 5.76862 13.4584 5.38725C12.5368 5.00671 11.9354 4.10701 11.9354 3.10983C11.9362 1.75146 13.035 0.650086 14.3934 0.64514Z" fill="white"/>
</svg>
