<svg width="13" height="14" viewBox="0 0 13 14" fill="none" xmlns="http://www.w3.org/2000/svg">
<path d="M2.25 5.625V4.53125C2.25 2.40313 4.02296 0.625 6.5 0.625C8.97704 0.625 10.75 2.40313 10.75 4.53125V5.625H11.1042C11.5738 5.625 12.0242 5.78962 12.3563 6.08265C12.6884 6.37567 12.875 6.7731 12.875 7.1875V12.1875C12.875 12.6019 12.6884 12.9993 12.3563 13.2924C12.0242 13.5854 11.5738 13.75 11.1042 13.75H1.89583C1.42618 13.75 0.975761 13.5854 0.643665 13.2924C0.311569 12.9993 0.125 12.6019 0.125 12.1875V7.1875C0.125 6.7731 0.311569 6.37567 0.643665 6.08265C0.975761 5.78962 1.42618 5.625 1.89583 5.625H2.25ZM1.1875 7.1875V12.1875C1.1875 12.3533 1.26213 12.5122 1.39497 12.6294C1.5278 12.7467 1.70797 12.8125 1.89583 12.8125H11.1042C11.292 12.8125 11.4722 12.7467 11.605 12.6294C11.7379 12.5122 11.8125 12.3533 11.8125 12.1875V7.1875C11.8125 7.02174 11.7379 6.86277 11.605 6.74556C11.4722 6.62835 11.292 6.5625 11.1042 6.5625H1.89583C1.70797 6.5625 1.5278 6.62835 1.39497 6.74556C1.26213 6.86277 1.1875 7.02174 1.1875 7.1875ZM3.3125 4.53125V5.625H9.6875V4.53125C9.6875 2.8625 8.32608 1.5625 6.5 1.5625C4.67392 1.5625 3.3125 2.8625 3.3125 4.53125Z" fill="black"/>
</svg>
