<svg width="13" height="13" viewBox="0 0 13 13" fill="none" xmlns="http://www.w3.org/2000/svg">
<g clip-path="url(#clip0_1_431)">
<path d="M11.9167 11.9167H2.16675V13H13.0001V11.375H11.9167V11.9167Z" fill="white"/>
<path d="M9.97433 0H2.16675V4.875H3.25008V1.08333H8.66675V4.33333H11.9167V5.95833H13.0001V3.02575L9.97433 0ZM9.75008 3.25V1.30758L11.6925 3.25H9.75008Z" fill="white"/>
<path d="M3.2496 10.8333V6.5H2.1668V8.62658L1.08347 6.5H0.0012207V10.8333H1.08347V8.62008L2.1668 10.8333H3.2496Z" fill="white"/>
<path d="M6.5 6.5V10.8333H7.58333L8.125 9.75L8.66667 10.8333H9.75V6.5H8.66667V8.66667L8.125 7.58333L7.58333 8.66667V6.5H6.5Z" fill="white"/>
<path d="M5.95841 7.58333V6.5H4.87508H4.33341H3.79175V10.8333H4.33341H4.87508H5.95841V9.75H4.87508V9.20833H5.41675V8.125H4.87508V7.58333H5.95841Z" fill="white"/>
<path d="M11.3751 6.5C10.8334 6.5 10.2917 7.04167 10.2917 7.85417C10.2917 8.66667 10.8334 9.20833 11.3751 9.20833H11.6746C12.0224 9.20833 11.9872 9.75 11.6746 9.75H10.2917V10.8333H11.7396C11.7396 10.8333 13.0001 10.8333 13.0001 9.47917C13.0001 8.125 12.2271 8.125 11.6855 8.125C11.2705 8.125 11.2765 7.58333 11.6855 7.58333H13.0001V6.5H11.9167H11.3751Z" fill="white"/>
</g>
<defs>
<clipPath id="clip0_1_431">
<rect width="13" height="13" fill="white"/>
</clipPath>
</defs>
</svg>
