<svg width="19" height="17" viewBox="0 0 19 17" fill="none" xmlns="http://www.w3.org/2000/svg">
<path d="M13.0049 8.16403C12.5375 7.69657 11.9171 7.43945 11.2537 7.43945C10.5902 7.43945 9.96994 7.69657 9.50245 8.16403C8.53694 9.12954 8.53694 10.7009 9.50245 11.6665C9.96992 12.134 10.5902 12.3911 11.2537 12.3911C11.9171 12.3911 12.5374 12.134 13.0049 11.6665C13.9704 10.6992 13.9704 9.1297 13.0049 8.16403ZM12.7514 11.4111C12.3522 11.8102 11.8218 12.0296 11.2555 12.0296C10.6891 12.0296 10.1587 11.8102 9.75957 11.4111C8.9343 10.5858 8.9343 9.24272 9.75957 8.41742C10.1587 8.01826 10.6891 7.79891 11.2555 7.79891C11.8218 7.79891 12.3522 8.01826 12.7514 8.41742C13.5767 9.24268 13.5767 10.5858 12.7514 11.4111Z" fill="white"/>
<path d="M18.0661 14.6696L17.9367 14.5383L15.8834 12.485C15.7072 12.3088 15.4734 12.2117 15.2253 12.2117C15.0042 12.2117 14.7974 12.2926 14.6302 12.4329L13.9955 11.7982C14.8873 10.5036 14.7596 8.71291 13.6089 7.56221C13.4076 7.36083 13.1828 7.19182 12.9437 7.05157V0.898977C12.9437 0.402747 12.5409 0 12.0447 0H0.898978C0.402747 0 0 0.402747 0 0.898977V12.9455C0 13.5226 0.224747 14.0638 0.631093 14.472C1.03025 14.8711 1.56963 15.0941 2.13419 15.1013C2.13779 15.1013 2.13958 15.1031 2.14318 15.1031L12.7495 15.8223H12.7621C12.7818 15.8223 12.8016 15.8169 12.8214 15.8115C12.8268 15.8097 12.8322 15.8061 12.8376 15.8043C12.843 15.8007 12.8502 15.8007 12.8555 15.7971C12.8627 15.7917 12.8699 15.7863 12.8753 15.7809C12.8789 15.7773 12.8825 15.7755 12.8861 15.7719C12.9005 15.7575 12.9113 15.7431 12.9203 15.7252C12.9221 15.7216 12.9239 15.718 12.9257 15.7126C12.9329 15.6964 12.9365 15.6802 12.9383 15.664C12.9383 15.6604 12.9401 15.6586 12.9401 15.655V15.6496C12.9401 15.6479 12.9418 15.6443 12.9418 15.6425V12.7783C13.0084 12.7388 13.0749 12.6992 13.1378 12.6543L13.7707 13.2872C13.4633 13.6522 13.4777 14.1969 13.8211 14.5404L16.0092 16.7285C16.1908 16.9101 16.4281 17 16.6673 17C16.9064 17 17.1437 16.9101 17.3253 16.7285L18.0679 15.9859C18.4293 15.6227 18.4293 15.033 18.0661 14.6698L18.0661 14.6696ZM3.21834 14.8152C3.87282 14.4322 4.31331 13.7076 4.31331 12.886V11.9097C4.31331 11.8198 4.37264 11.773 4.39781 11.7568C4.42298 11.7407 4.49131 11.7083 4.57221 11.7496L11.8792 15.4031L3.21834 14.8152ZM12.5823 15.3528L4.73589 11.4277C4.56688 11.3432 4.37091 11.3522 4.21089 11.4511C4.05087 11.55 3.95557 11.7208 3.95557 11.9096V12.8859C3.95557 13.8604 3.222 14.6749 2.28526 14.7396C1.76385 14.7774 1.25321 14.585 0.886435 14.2182C0.546608 13.8784 0.359619 13.4271 0.359619 12.9452V0.898734C0.359619 0.602059 0.602348 0.359329 0.899023 0.359329H12.0429C12.3396 0.359329 12.5823 0.602059 12.5823 0.898734V6.86445C12.2281 6.70983 11.847 6.61993 11.4532 6.59655C11.4838 6.56418 11.5035 6.52103 11.5035 6.47249C11.5035 6.3736 11.4226 6.29269 11.3238 6.29269H3.23636C3.13747 6.29269 3.05656 6.3736 3.05656 6.47249C3.05656 6.57137 3.13747 6.65228 3.23636 6.65228H10.5972C9.96072 6.77994 9.37457 7.09098 8.90349 7.56205C8.68774 7.77781 8.51154 8.01695 8.3677 8.27045H3.59596C3.49707 8.27045 3.41616 8.35136 3.41616 8.45025C3.41616 8.54914 3.49707 8.63005 3.59596 8.63005H8.1898C7.68637 9.83829 7.92371 11.2856 8.9054 12.2674C9.53291 12.8949 10.369 13.2419 11.2572 13.2419C11.7229 13.2419 12.1706 13.1448 12.5859 12.9651V15.3528L12.5823 15.3528ZM11.2554 12.8824C10.4625 12.8824 9.71815 12.5732 9.15718 12.014C8.00109 10.8579 8.00109 8.97364 9.15718 7.81764C9.71815 7.25667 10.4625 6.94922 11.2554 6.94922C12.0483 6.94922 12.7927 7.25849 13.3537 7.81764C14.5098 8.97373 14.5098 10.858 13.3537 12.014C12.7927 12.5732 12.0465 12.8824 11.2554 12.8824ZM13.4256 12.433C13.4867 12.379 13.5496 12.3269 13.6072 12.2675C13.6665 12.2082 13.7187 12.1471 13.7726 12.0859L14.3695 12.6829L14.0225 13.0299L13.4256 12.433ZM14.0782 14.2885C13.8553 14.0655 13.8553 13.7041 14.0782 13.4812L14.8208 12.7386C14.9287 12.6307 15.0725 12.5714 15.2254 12.5714C15.3782 12.5714 15.522 12.6307 15.6299 12.7386L15.754 12.8627L14.2041 14.4125L14.0782 14.2885ZM16.0057 16.2159L14.4558 14.666L16.0057 13.1162L17.5555 14.666L16.0057 16.2159ZM17.8127 15.7322L17.0701 16.4748C16.8471 16.6978 16.4857 16.6978 16.2628 16.4748L16.2592 16.4712L17.8091 14.9214L17.8127 14.9249C18.0356 15.1461 18.0356 15.5093 17.8127 15.7322Z" fill="white"/>
<path d="M11.5053 1.61827C11.5053 1.51938 11.4244 1.43848 11.3255 1.43848H1.61815C1.51926 1.43848 1.43835 1.51938 1.43835 1.61827C1.43835 1.71716 1.51926 1.79807 1.61815 1.79807H11.3255C11.4244 1.79807 11.5053 1.71896 11.5053 1.61827Z" fill="white"/>
<path d="M11.5052 3.05626C11.5052 2.95737 11.4243 2.87646 11.3254 2.87646H2.5172C2.41831 2.87646 2.3374 2.95737 2.3374 3.05626C2.3374 3.15515 2.41831 3.23606 2.5172 3.23606H11.3254C11.4243 3.23606 11.5052 3.15695 11.5052 3.05626Z" fill="white"/>
<path d="M11.5053 4.67443C11.5053 4.57554 11.4244 4.49463 11.3255 4.49463H2.87682C2.77793 4.49463 2.69702 4.57554 2.69702 4.67443C2.69702 4.77332 2.77793 4.85422 2.87682 4.85422H11.3255C11.4244 4.85422 11.5053 4.77511 11.5053 4.67443Z" fill="white"/>
</svg>
