<svg width="22" height="14" viewBox="0 0 22 14" fill="none" xmlns="http://www.w3.org/2000/svg">
<path d="M21.8489 5.55522L18.9179 0.554853C18.7676 0.29898 18.5249 0.115281 18.2328 0.0384284C17.9416 -0.0384271 17.638 0.000937885 17.3772 0.148089L15.7071 1.09754C15.4473 1.24562 15.2608 1.48463 15.1828 1.77237C15.1361 1.94389 15.1314 2.11916 15.1675 2.28786C14.116 2.5606 13.0597 2.55779 11.7998 2.28505C10.4561 1.99357 9.80514 2.27005 8.92117 3.04705L6.82756 2.31036C6.93604 1.84735 6.73239 1.34779 6.29274 1.09847L4.62261 0.14902C4.36282 0.000930577 4.05925 -0.038434 3.7671 0.0393597C3.4759 0.116215 3.23228 0.299912 3.08192 0.555785L0.150945 5.5552C-0.160229 6.08568 0.0253278 6.76616 0.563952 7.0717L2.23408 8.02114C2.40728 8.11956 2.59951 8.17017 2.7946 8.17017C2.89261 8.17017 2.99158 8.15705 3.08959 8.13174C3.34844 8.06332 3.56826 7.91148 3.71957 7.69872L4.97096 9.23866L4.93861 9.28365C4.4704 9.93881 4.73877 10.6371 5.24408 10.9876C5.42775 11.1151 5.64376 11.1976 5.8674 11.2201C5.84552 11.4234 5.87882 11.6287 5.97018 11.8227C6.16336 12.2332 6.58303 12.5238 7.04076 12.5641C7.21206 12.5791 7.37954 12.5585 7.53465 12.5041C7.62886 12.7337 7.79445 12.9324 7.99904 13.074C8.35114 13.3186 8.826 13.3983 9.23901 13.2033C9.36843 13.4414 9.57968 13.6438 9.85186 13.7675C10.0289 13.8482 10.2097 13.8875 10.3857 13.8875C10.7673 13.8875 11.1252 13.7029 11.3726 13.3561L11.4706 13.2183L12.5174 13.8191C12.7372 13.9456 12.9552 14 13.1607 14C13.6118 14 14.001 13.7347 14.2151 13.373C14.3264 13.1836 14.3921 12.9671 14.3969 12.7478C14.8603 12.76 15.2638 12.4919 15.4836 12.1208C15.5873 11.9455 15.6502 11.7459 15.6635 11.5434C15.909 11.5715 16.1536 11.5228 16.3744 11.3981C16.7731 11.1732 17.031 10.7364 17.0329 10.2847C17.0338 10.0663 16.9748 9.86196 16.8644 9.68294C17.0557 9.57047 17.2146 9.40739 17.3269 9.21899C17.5487 8.84315 17.5858 8.35669 17.3326 7.96211L18.1777 7.53753L18.2234 7.61533C18.3737 7.8712 18.6164 8.0549 18.9086 8.13175C19.0066 8.158 19.1055 8.17018 19.2036 8.17018C19.3986 8.17018 19.5909 8.11957 19.7641 8.02116L21.4342 7.07171C21.9747 6.76523 22.1601 6.08477 21.8489 5.55522ZM2.89611 7.4129C2.8 7.4382 2.69913 7.42602 2.61347 7.37728L0.943339 6.42783C0.765383 6.32661 0.704478 6.10166 0.807256 5.92734L3.73823 0.927928C3.78772 0.843575 3.86765 0.783589 3.96472 0.758283C3.99708 0.749847 4.03038 0.745161 4.06274 0.745161C4.12745 0.745161 4.19026 0.762032 4.24641 0.793898L5.91653 1.74334C6.09449 1.84457 6.15539 2.06858 6.05262 2.24384L3.12164 7.24325C3.07311 7.32667 2.99223 7.38759 2.89611 7.4129ZM5.68165 10.3783C5.61503 10.3315 5.29434 10.0812 5.55889 9.711L6.42583 8.4963C6.69037 8.12514 7.03772 8.3379 7.1053 8.38477C7.17192 8.43163 7.49261 8.68095 7.22902 9.05209L6.36112 10.2668C6.09563 10.637 5.74923 10.4252 5.68165 10.3783ZM7.52401 11.6108C7.41363 11.7655 7.27469 11.8367 7.11101 11.8227C6.92354 11.8058 6.73798 11.6774 6.65897 11.5087C6.59046 11.3625 6.61139 11.2097 6.72178 11.055L6.97872 10.6951L7.84567 9.48042V9.47949L8.19017 8.9968C8.45471 8.62563 8.80301 8.8384 8.86964 8.88526C8.93627 8.93213 9.25695 9.18238 8.99241 9.55259L8.90676 9.67256L7.69437 11.3699L7.52401 11.6108ZM8.43758 12.4647C8.37097 12.4188 8.05028 12.1685 8.31387 11.7974L9.52531 10.1009C9.78986 9.73068 10.1382 9.94345 10.2048 9.98937C10.2714 10.0362 10.5921 10.2865 10.3276 10.6567L10.0126 11.0972L9.19224 12.2454L9.11516 12.3532C8.85156 12.7243 8.50419 12.5116 8.43758 12.4647ZM10.7586 12.9268C10.5559 13.2098 10.3047 13.1517 10.1724 13.0917C9.9897 13.0083 9.83364 12.8209 9.85742 12.6081L10.5845 11.5902C10.7796 11.4956 11.0118 11.578 11.1526 11.7186C11.2544 11.8208 11.3962 12.0345 11.1935 12.3175L10.7586 12.9268ZM16.6768 8.84393C16.6359 8.91329 16.4104 9.24977 16.0126 9.02201L14.4862 8.14661C14.3063 8.04351 14.0751 8.10349 13.9694 8.28064C13.8648 8.45778 13.9257 8.68554 14.1055 8.78958L15.6319 9.66498L16.0307 9.89367C16.1972 9.98927 16.2809 10.1196 16.28 10.2808C16.279 10.4663 16.1648 10.6594 16.0012 10.7513C15.8594 10.8309 15.7023 10.8234 15.5368 10.7288L15.0429 10.4457L13.5031 9.56187C13.3233 9.45877 13.092 9.51875 12.9864 9.6959C12.8817 9.87304 12.9426 10.1008 13.1225 10.2048L14.6632 11.0887H14.6641C15.0619 11.3174 14.8763 11.6763 14.8354 11.7457C14.7945 11.8151 14.569 12.1516 14.1712 11.9238L13.7781 11.6979H13.7772L12.5201 10.9772C12.3402 10.8741 12.109 10.934 12.0033 11.1112C11.8987 11.2883 11.9596 11.5161 12.1394 11.6201L13.3965 12.3409H13.3975C13.7943 12.5696 13.6088 12.9276 13.5678 12.9979C13.5269 13.0673 13.3004 13.4037 12.9036 13.176L11.9025 12.6024C12.1603 12.1281 12.0861 11.592 11.6921 11.1984C11.518 11.024 11.3067 10.9069 11.085 10.8488C11.3476 10.2686 11.0869 9.6903 10.6415 9.38193C10.4122 9.22259 10.1305 9.13354 9.84883 9.14386C9.80791 8.7905 9.59663 8.47747 9.30733 8.27688C8.91905 8.00788 8.38234 7.93758 7.94268 8.21595C7.84561 8.04162 7.70572 7.89072 7.5411 7.77732C7.03484 7.42679 6.27733 7.4146 5.81007 8.06976L5.42751 8.60588L4.13139 7.01253L6.49335 2.9832L8.30906 3.62243C8.23578 3.69272 8.1606 3.76583 8.08257 3.84175C7.91223 4.00671 7.73617 4.17822 7.53918 4.36568C7.46971 4.43129 7.42879 4.52033 7.42498 4.61501L7.32506 6.68824C7.29937 7.22437 7.56392 7.47086 7.72379 7.57022C8.07114 7.78579 8.57075 7.73986 9.1303 7.44275C9.60611 7.18968 9.88018 6.6114 10.1228 6.10153C10.1723 5.99749 10.219 5.89814 10.2665 5.80534C10.2979 5.79035 10.3294 5.77629 10.3598 5.76129C11.0022 5.46137 11.4171 5.2889 11.8367 5.52791L16.5054 8.18694C16.9032 8.41563 16.7187 8.77456 16.6768 8.84393ZM16.7073 7.44272L12.2147 4.88111C11.4296 4.43496 10.6893 4.78082 10.0355 5.08637C9.96696 5.11824 9.89939 5.15011 9.83088 5.18104C9.7557 5.21478 9.69384 5.27289 9.65578 5.34412C9.58155 5.48284 9.50922 5.63467 9.4388 5.78182C9.24562 6.18766 9.02675 6.64787 8.77075 6.78377C8.4215 6.96935 8.18931 6.97591 8.12555 6.93654C8.09796 6.91967 8.07322 6.84563 8.07988 6.72004L8.17313 4.79396C8.33111 4.64212 8.47956 4.49871 8.61374 4.36845C9.98505 3.03752 10.3105 2.72166 11.64 3.01033C12.5497 3.20809 13.9182 3.40868 15.5045 2.96815L17.8036 6.89071L16.7073 7.44272ZM21.059 6.42765L19.3889 7.3771C19.3033 7.42583 19.2034 7.43802 19.1063 7.41271C19.0102 7.38741 18.9293 7.32648 18.8798 7.24307L15.9498 2.2427C15.9003 2.15834 15.8879 2.05993 15.9136 1.96432C15.9393 1.86965 16.0012 1.78999 16.0859 1.74125L17.756 0.7918C17.8121 0.759933 17.8759 0.743063 17.9397 0.743063C17.972 0.743063 18.0053 0.74775 18.0377 0.756185C18.1347 0.781492 18.2147 0.842415 18.2642 0.925831L21.1951 5.9262C21.2979 6.10147 21.2361 6.32644 21.059 6.42765Z" fill="white"/>
</svg>
