<svg width="13" height="12" viewBox="0 0 13 12" fill="none" xmlns="http://www.w3.org/2000/svg">
<path d="M3.84091 0.954545C3.84091 0.427636 4.30418 0 4.875 0H8.125C8.69582 0 9.15909 0.427636 9.15909 0.954545V2.18182H11.9659C12.5367 2.18182 13 2.60945 13 3.13636V11.0455C13 11.2986 12.8911 11.5414 12.6971 11.7204C12.5032 11.8994 12.2402 12 11.9659 12H1.03409C0.759833 12 0.496808 11.8994 0.302878 11.7204C0.108949 11.5414 0 11.2986 0 11.0455V3.13636C0 2.60945 0.463273 2.18182 1.03409 2.18182H3.84091V0.954545ZM0.886364 6.54V11.0455C0.886364 11.1207 0.952545 11.1818 1.03409 11.1818H11.9659C12.0051 11.1818 12.0427 11.1675 12.0704 11.1419C12.0981 11.1163 12.1136 11.0816 12.1136 11.0455V6.54C11.6602 6.89624 11.0841 7.09157 10.4886 7.09091H2.51136C1.91595 7.09157 1.33978 6.89624 0.886364 6.54ZM12.1136 4.77273V3.13636C12.1136 3.1002 12.0981 3.06551 12.0704 3.03994C12.0427 3.01437 12.0051 3 11.9659 3H1.03409C0.994911 3 0.957336 3.01437 0.929632 3.03994C0.901928 3.06551 0.886364 3.1002 0.886364 3.13636V4.77273C0.886364 5.17055 1.05757 5.55208 1.36232 5.83339C1.66706 6.11469 2.08039 6.27273 2.51136 6.27273H10.4886C10.9196 6.27273 11.3329 6.11469 11.6377 5.83339C11.9424 5.55208 12.1136 5.17055 12.1136 4.77273ZM8.27273 0.954545C8.27273 0.91838 8.25716 0.883695 8.22946 0.858122C8.20175 0.832549 8.16418 0.818182 8.125 0.818182H4.875C4.83582 0.818182 4.79824 0.832549 4.77054 0.858122C4.74284 0.883695 4.72727 0.91838 4.72727 0.954545V2.18182H8.27273V0.954545Z" fill="white"/>
</svg>
