<svg width="20" height="19" viewBox="0 0 20 19" fill="none" xmlns="http://www.w3.org/2000/svg">
<path d="M19.4187 4.73139C19.3062 4.40063 18.9588 4.22484 18.6239 4.33232L17.9282 4.5581C17.7149 4.20234 17.4675 3.86326 17.1892 3.54583L17.62 2.9518C17.8241 2.68103 17.7616 2.26362 17.4825 2.06951L16.037 1.0231C15.7679 0.811479 15.3455 0.876465 15.1506 1.15723L14.7207 1.74958C14.3433 1.58712 13.945 1.45798 13.5301 1.36467V0.629847C13.5301 0.28243 13.246 0 12.8969 0H11.1107C10.7616 0 10.4775 0.28243 10.4775 0.629847V1.36467C10.0626 1.45798 9.66433 1.58713 9.28692 1.74958L8.85703 1.15723C8.65374 0.876467 8.258 0.813975 7.97474 1.01977L6.52507 2.06953C6.24514 2.26198 6.18015 2.68687 6.3876 2.95181L6.81833 3.545C6.63087 3.73412 6.4151 4.03322 6.68836 4.24651C6.83499 4.35898 7.04412 4.33066 7.15575 4.18486C7.29572 3.95575 7.74893 3.69497 7.51816 3.37255L6.94746 2.58606L8.33962 1.57796L8.907 2.36028C9.00197 2.49108 9.1761 2.53524 9.3219 2.46442C9.79929 2.23365 10.32 2.06452 10.8707 1.96203C11.0282 1.93287 11.1431 1.79541 11.1431 1.6346V0.664823H12.8627V1.6346C12.8627 1.7954 12.9777 1.93286 13.1351 1.96203C13.6858 2.06451 14.2066 2.23363 14.6839 2.46442C14.8297 2.53524 15.0039 2.49108 15.0988 2.36028L15.6662 1.57796L17.0584 2.58606L16.4877 3.37255C16.3935 3.50252 16.4052 3.6808 16.5152 3.79745C16.8959 4.20068 17.22 4.64476 17.4775 5.11797C17.5541 5.25877 17.7207 5.32459 17.8732 5.27543L18.7938 4.97635L19.322 6.61264L18.3998 6.91172C18.2473 6.96088 18.1515 7.11251 18.1723 7.27247C18.2106 7.56657 18.2298 7.83234 18.2298 8.08561C18.2298 8.34138 18.2106 8.60799 18.1723 8.90208C18.1515 9.06121 18.2473 9.21284 18.3998 9.26283L19.3245 9.56275L18.793 11.1982L17.8724 10.8983C17.7182 10.8483 17.5533 10.915 17.4766 11.0558C17.2192 11.529 16.8951 11.973 16.5143 12.3763C16.4044 12.4929 16.3927 12.6712 16.4869 12.8012L17.0576 13.5877L15.6654 14.5958L15.098 13.8126C15.003 13.6826 14.8289 13.6385 14.6848 13.7076C14.3774 13.9084 13.7483 13.8926 13.865 14.3766C14.0141 14.7724 14.4382 14.5374 14.7173 14.4233C15.0489 14.8715 15.3863 15.573 16.0294 15.1548L17.4783 14.105C17.7582 13.9126 17.824 13.4885 17.6166 13.2227L17.1859 12.6287C17.4641 12.3104 17.7116 11.9714 17.9248 11.6164L18.6222 11.8431C18.9521 11.948 19.3028 11.7731 19.417 11.4382L19.9702 9.73356C20.0743 9.40781 19.8936 9.05122 19.5628 8.93873L18.8655 8.71295C18.908 8.27472 18.9071 7.90147 18.8655 7.46241L19.567 7.23496C19.8886 7.13415 20.081 6.75507 19.9669 6.44014L19.4153 4.73221L19.4187 4.73139Z" fill="white"/>
<path d="M12.6721 12.4746C12.2398 12.5454 12.3389 13.1936 12.7721 13.1336C18.9531 11.9838 18.31 3.18261 12.0056 2.9834C10.5776 2.9834 9.20713 3.58659 8.24394 4.63801C7.95234 4.96292 8.43806 5.407 8.7355 5.08791C9.5728 4.17395 10.7642 3.64991 12.0056 3.64991C17.4884 3.82404 18.0441 11.4764 12.6721 12.4746Z" fill="white"/>
<path d="M6.47602 14.1002L10.6583 18.2825C11.4773 18.9515 12.552 18.2383 13.2501 17.576C14.1907 16.6354 14.4948 15.5215 13.9574 14.9842L9.77518 10.8019C10.9416 7.08864 7.47491 3.47455 3.71238 4.50343C3.59741 4.53425 3.50743 4.6234 3.4766 4.73921C3.44577 4.85419 3.47826 4.97749 3.56324 5.06163L6.29583 7.79422L5.89177 10.2178L3.46823 10.6218L0.735639 7.88924C0.650658 7.80509 0.528187 7.7726 0.413218 7.80259C0.298246 7.83342 0.208266 7.9234 0.177434 8.03838C-0.850656 11.8001 2.7652 15.2676 6.47676 14.1012L6.47602 14.1002ZM0.707347 8.80226L3.11852 11.2134C3.19433 11.2892 3.30264 11.3242 3.40845 11.3067L6.23616 10.8352C6.37697 10.8119 6.48694 10.7019 6.51028 10.5611L6.98182 7.73337C6.99932 7.62673 6.96516 7.51926 6.88851 7.4426L4.4782 5.03143C7.63586 4.6182 10.1686 7.77831 9.08128 10.7792C9.03796 10.9 9.06878 11.035 9.1596 11.1266L13.4878 15.4548C13.9826 16.0013 12.0881 18.2799 11.1308 17.8109L6.8026 13.4836C6.71179 13.392 6.57515 13.3628 6.45518 13.4053C3.45599 14.4934 0.29315 11.959 0.707347 8.80226Z" fill="white"/>
</svg>
