<svg width="14" height="14" viewBox="0 0 14 14" fill="none" xmlns="http://www.w3.org/2000/svg">
<path d="M4.08274 1.11364C4.08274 0.498909 4.57515 0 5.18187 0H8.6363C9.24302 0 9.73543 0.498909 9.73543 1.11364V2.54545H12.7188C13.3255 2.54545 13.8179 3.04436 13.8179 3.65909V12.8864C13.8179 13.1817 13.7021 13.465 13.496 13.6738C13.2899 13.8827 13.0103 14 12.7188 14H1.09938C0.80787 14 0.528301 13.8827 0.322173 13.6738C0.116045 13.465 0.000244141 13.1817 0.000244141 12.8864V3.65909C0.000244141 3.04436 0.492656 2.54545 1.09938 2.54545H4.08274V1.11364ZM0.942359 7.63V12.8864C0.942359 12.9742 1.0127 13.0455 1.09938 13.0455H12.7188C12.7604 13.0455 12.8004 13.0287 12.8298 12.9989C12.8593 12.969 12.8758 12.9286 12.8758 12.8864V7.63C12.3939 8.04561 11.7815 8.2735 11.1486 8.27273H2.66957C2.0367 8.2735 1.4243 8.04561 0.942359 7.63ZM12.8758 5.56818V3.65909C12.8758 3.6169 12.8593 3.57643 12.8298 3.5466C12.8004 3.51676 12.7604 3.5 12.7188 3.5H1.09938C1.05773 3.5 1.0178 3.51676 0.988349 3.5466C0.958902 3.57643 0.942359 3.6169 0.942359 3.65909V5.56818C0.942359 6.03231 1.12433 6.47743 1.44825 6.80562C1.77216 7.13381 2.21148 7.31818 2.66957 7.31818H11.1486C11.6067 7.31818 12.046 7.13381 12.3699 6.80562C12.6938 6.47743 12.8758 6.03231 12.8758 5.56818ZM8.79331 1.11364C8.79331 1.07144 8.77677 1.03098 8.74732 1.00114C8.71788 0.971307 8.67794 0.954545 8.6363 0.954545H5.18187C5.14023 0.954545 5.10029 0.971307 5.07085 1.00114C5.0414 1.03098 5.02486 1.07144 5.02486 1.11364V2.54545H8.79331V1.11364Z" fill="black"/>
</svg>
