<svg width="17" height="17" viewBox="0 0 17 17" fill="none" xmlns="http://www.w3.org/2000/svg">
<path d="M0.00076506 16.6186V15.3801C0.00076506 15.2243 0.12761 15.0989 0.283684 15.0989H0.756525V5.19427C0.756525 5.08204 0.8236 4.98038 0.927201 4.93615L7.54038 2.09279C7.62804 2.05516 7.72833 2.06375 7.80801 2.1159C7.88771 2.16806 7.93552 2.25652 7.93552 2.35092V5.63656L13.1189 8.03104V1.92114H12.747C12.5903 1.92114 12.4641 1.79505 12.4641 1.6399V0.281242C12.4641 0.125439 12.5909 0 12.747 0H16.6161C16.7729 0 16.8991 0.126094 16.8991 0.281242V1.6399C16.8991 1.7957 16.7722 1.92114 16.6161 1.92114H16.2442V15.099H16.7171C16.8738 15.099 17 15.2251 17 15.3803V16.6188C17 16.7746 16.8732 16.9 16.7171 16.9H0.282919C0.126187 16.9 0 16.7739 0 16.6188L0.00076506 16.6186ZM7.93698 15.0982H13.1203V8.65096L7.93698 6.25649V15.0982ZM13.4032 1.35786H16.3339V0.562346H13.0313V1.35786H13.4032ZM16.4356 16.3367V15.6613H1.04142H1.04009H1.03876H0.567245V16.3367H16.4356ZM15.6798 15.0982V1.92029H13.6868V8.46538V8.47792V15.0982L15.6798 15.0982ZM7.37045 2.77918L1.32308 5.37899V15.0982H2.33386V11.1088C2.33386 10.953 2.4607 10.8276 2.61678 10.8276H6.07621C6.23294 10.8276 6.35912 10.9536 6.35912 11.1088V15.0982H7.3699L7.37045 2.77918ZM5.79318 11.3899H2.90024V15.098H5.79318V11.3899ZM2.33375 9.03966V7.85398C2.33375 7.69818 2.4606 7.57274 2.61667 7.57274H6.0761C6.23284 7.57274 6.35902 7.69883 6.35902 7.85398V9.03966C6.35902 9.19546 6.23218 9.3209 6.0761 9.3209H2.61667C2.45994 9.3209 2.33375 9.19481 2.33375 9.03966ZM5.79318 8.75842V8.13587H2.90024V8.75842H5.79318Z" fill="white"/>
</svg>
