<svg width="1440" height="841" viewBox="0 0 1440 841" fill="none" xmlns="http://www.w3.org/2000/svg">
<path d="M1386.98 840.134L956.067 304.449L1641.61 253.756L1386.98 840.134Z" stroke="#CCCCCC" stroke-width="0.47" stroke-linecap="round" stroke-linejoin="round"/>
<path opacity="0.04" d="M1822 769.056L1137.98 700.864L1582.45 176.327L1822 769.056Z" fill="black"/>
<path d="M1278.83 172.07L1406.53 130.866L1367.97 259.42L1278.83 172.07Z" stroke="#CFCFCF" stroke-width="0.47" stroke-linecap="round" stroke-linejoin="round"/>
<path d="M617.721 432.881L160 446.962L408.268 62L617.721 432.881Z" stroke="#E5E5E5" stroke-width="0.47" stroke-linecap="round" stroke-linejoin="round"/>
<path d="M469.45 718.499L305.504 290.713L750.565 398.553L469.45 718.499Z" stroke="#E5E5E5" stroke-width="0.47" stroke-linecap="round" stroke-linejoin="round"/>
<path opacity="0.04" d="M80.7247 483.766L-159 234.643L182.096 178.645L80.7247 483.766Z" fill="black"/>
<path opacity="0.04" d="M-118.444 721.584L-132.882 376.071L159.605 560.341L-118.444 721.584Z" fill="black"/>
<path d="M76.3899 592.93L86.2386 394.706L243.746 515.357L76.3899 592.93Z" stroke="#E5E5E5" stroke-width="0.47" stroke-linecap="round" stroke-linejoin="round"/>
<path d="M-42.3571 477.905L-10.0903 418.623L20.3628 478.866L-42.3571 477.905Z" stroke="#E5E5E5" stroke-width="0.47" stroke-linecap="round" stroke-linejoin="round"/>
<path d="M108.983 347.219L97.9373 309.657L135.119 321.887L108.983 347.219Z" stroke="#E5E5E5" stroke-width="0.47" stroke-linecap="round" stroke-linejoin="round"/>
</svg>
