<svg width="1440" height="841" viewBox="0 0 1440 841" fill="none" xmlns="http://www.w3.org/2000/svg">
<path d="M1385.98 840.134L955.067 304.449L1640.61 253.756L1385.98 840.134Z" stroke="#CCCCCC" stroke-width="0.47" stroke-linecap="round" stroke-linejoin="round"/>
<path opacity="0.04" d="M1821 769.056L1136.98 700.864L1581.45 176.327L1821 769.056Z" fill="black"/>
<path d="M1277.83 172.07L1405.53 130.866L1366.97 259.42L1277.83 172.07Z" stroke="#CFCFCF" stroke-width="0.47" stroke-linecap="round" stroke-linejoin="round"/>
<path d="M616.721 432.881L159 446.962L407.268 62L616.721 432.881Z" stroke="#E5E5E5" stroke-width="0.47" stroke-linecap="round" stroke-linejoin="round"/>
<path d="M468.45 718.499L304.504 290.713L749.565 398.553L468.45 718.499Z" stroke="#E5E5E5" stroke-width="0.47" stroke-linecap="round" stroke-linejoin="round"/>
<path opacity="0.04" d="M79.7247 483.766L-160 234.643L181.096 178.645L79.7247 483.766Z" fill="black"/>
<path opacity="0.04" d="M-119.444 721.584L-133.882 376.071L158.605 560.341L-119.444 721.584Z" fill="black"/>
<path d="M75.3899 592.931L85.2386 394.707L242.746 515.358L75.3899 592.931Z" stroke="#E5E5E5" stroke-width="0.47" stroke-linecap="round" stroke-linejoin="round"/>
<path d="M-43.3571 477.905L-11.0903 418.623L19.3628 478.866L-43.3571 477.905Z" stroke="#E5E5E5" stroke-width="0.47" stroke-linecap="round" stroke-linejoin="round"/>
<path d="M107.983 347.219L96.9373 309.657L134.119 321.887L107.983 347.219Z" stroke="#E5E5E5" stroke-width="0.47" stroke-linecap="round" stroke-linejoin="round"/>
</svg>
