<svg width="118" height="113" viewBox="0 0 118 113" fill="none" xmlns="http://www.w3.org/2000/svg">
<path d="M61.887 58.4258H105.597C106.578 60.0528 108.744 61.1921 111.269 61.1921C114.709 61.1921 117.508 59.087 117.508 56.4981C117.508 53.9091 114.709 51.804 111.269 51.804C108.747 51.804 106.578 52.9433 105.597 54.5703H61.887C61.7128 54.5703 61.5617 54.6205 61.3979 54.6455V49.3847H87.6166C88.2543 49.3847 88.8689 49.2055 89.3427 48.8816L99.0844 42.1981C99.553 42.283 100.035 42.3408 100.536 42.3408C103.976 42.3408 106.775 40.2357 106.775 37.6468C106.775 35.0578 103.976 32.9527 100.536 32.9527C97.0971 32.9527 94.298 35.0578 94.298 37.6468C94.298 38.4159 94.5695 39.133 95.0074 39.775L86.6229 45.5273H61.3953V41.0473C61.5592 41.0723 61.7103 41.1225 61.8844 41.1225H81.0401C82.4563 41.1225 83.6011 40.2588 83.6011 39.1947C83.6011 38.1306 82.4563 37.267 81.0401 37.267H61.8844C61.7103 37.267 61.5592 37.3171 61.3953 37.3422V32.7811H87.614C88.4438 32.7811 89.2223 32.4785 89.7012 31.9696L94.106 27.3006L104.798 24.7656C105.845 25.369 107.139 25.7391 108.557 25.7391C111.994 25.7391 114.791 23.6321 114.791 21.0432C114.791 18.4542 111.994 16.3472 108.557 16.3472C105.118 16.3472 102.319 18.4542 102.319 21.0432C102.319 21.1318 102.347 21.2147 102.355 21.3015L91.7448 23.8172C91.2121 23.9425 90.7486 24.1969 90.4259 24.5401L86.29 28.9257H61.3927V23.8615C61.5566 23.8866 61.7077 23.9367 61.8819 23.9367H81.0376C82.4538 23.9367 83.5985 23.0731 83.5985 22.009C83.5985 20.9448 82.4538 20.0812 81.0376 20.0812H61.8819C61.7077 20.0812 61.5566 20.1313 61.3927 20.1564V16.4339H87.6115C88.2491 16.4339 88.8638 16.2547 89.3375 15.9308L99.0793 9.24928C99.5479 9.3341 100.029 9.39193 100.531 9.39193C103.971 9.39193 106.77 7.28491 106.77 4.69596C106.77 2.10701 103.971 0 100.531 0C97.092 0 94.2929 2.10701 94.2929 4.69596C94.2929 5.46706 94.5644 6.18418 95.0023 6.82611L86.6178 12.5785H61.3902V8.11384C61.3902 7.64733 61.1648 7.19624 60.7576 6.84346C57.6358 4.16005 53.5128 2.68148 49.1464 2.68148C40.4418 2.68148 33.2789 8.62662 32.526 16.1814C25.2351 17.7679 19.8008 23.6013 19.8008 30.5527C14.9504 32.9277 11.5853 37.3827 11.2038 42.5528C4.73486 44.5962 0.0791016 50.0671 0.0791016 56.4981C0.0791016 62.929 4.7323 68.4018 11.2038 70.4433C11.5853 75.6116 14.9529 80.0666 19.8008 82.4435C19.8008 89.3949 25.2351 95.2263 32.526 96.8147C33.2789 104.368 40.4418 110.315 49.1464 110.315C53.5128 110.315 57.6358 108.836 60.7576 106.153C61.1648 105.8 61.3902 105.349 61.3902 104.882V100.422H86.6178L95.0023 106.174C94.5644 106.816 94.2929 107.533 94.2929 108.304C94.2929 110.893 97.092 113 100.531 113C103.971 113 106.77 110.893 106.77 108.304C106.77 105.715 103.971 103.608 100.531 103.608C100.029 103.608 99.5454 103.664 99.0793 103.751L89.3375 97.0692C88.8638 96.7453 88.2491 96.5661 87.6115 96.5661H61.3979V92.8436C61.5617 92.8687 61.7128 92.9188 61.887 92.9188H81.0427C82.4589 92.9188 83.6036 92.0552 83.6036 90.991C83.6036 89.9269 82.4589 89.0633 81.0427 89.0633H61.887C61.7128 89.0633 61.5617 89.1134 61.3979 89.1385V84.0743H86.2951L90.431 88.4599C90.7537 88.8031 91.2172 89.0556 91.7499 89.1828L102.36 91.6985C102.352 91.7853 102.324 91.8682 102.324 91.9568C102.324 94.5458 105.123 96.6528 108.562 96.6528C111.999 96.6528 114.796 94.5458 114.796 91.9568C114.796 89.3679 111.999 87.2609 108.562 87.2609C107.144 87.2609 105.85 87.6329 104.803 88.2344L94.1111 85.6994L89.7063 81.0304C89.2248 80.5215 88.4489 80.2189 87.6191 80.2189H61.3979V75.6578C61.5617 75.6829 61.7128 75.733 61.887 75.733H81.0427C82.4589 75.733 83.6036 74.8694 83.6036 73.8053C83.6036 72.7412 82.4589 71.8775 81.0427 71.8775H61.887C61.7128 71.8775 61.5617 71.9277 61.3979 71.9527V67.4727H86.6255L95.01 73.225C94.5721 73.867 94.3006 74.5841 94.3006 75.3533C94.3006 77.9403 97.0997 80.0473 100.539 80.0473C103.978 80.0473 106.777 77.9422 106.777 75.3533C106.777 72.7643 103.978 70.6592 100.539 70.6592C100.037 70.6592 99.5531 70.717 99.087 70.8019L89.3452 64.1184C88.8714 63.7965 88.2568 63.6153 87.6191 63.6153H61.3979V58.3545C61.5617 58.3757 61.7128 58.4258 61.887 58.4258ZM111.269 55.6595C111.884 55.6595 112.386 56.0354 112.386 56.4981C112.386 56.9607 111.886 57.3366 111.269 57.3366C110.652 57.3366 110.155 56.9607 110.155 56.4981C110.155 56.0354 110.655 55.6595 111.269 55.6595ZM100.536 36.8082C101.151 36.8082 101.653 37.1841 101.653 37.6468C101.653 38.1094 101.154 38.4853 100.536 38.4853C99.9193 38.4853 99.4199 38.1094 99.4199 37.6468C99.4199 37.1841 99.9218 36.8082 100.536 36.8082ZM108.56 20.2027C109.172 20.2027 109.671 20.5786 109.671 21.0432C109.671 21.5077 109.174 21.8837 108.56 21.8837C107.945 21.8837 107.443 21.5077 107.443 21.0432C107.443 20.5786 107.943 20.2027 108.56 20.2027ZM100.536 3.85354C101.151 3.85354 101.653 4.22945 101.653 4.69404C101.653 5.15862 101.154 5.53453 100.536 5.53453C99.9193 5.53453 99.4199 5.15862 99.4199 4.69404C99.4199 4.22945 99.9218 3.85354 100.536 3.85354ZM100.536 107.464C101.151 107.464 101.653 107.839 101.653 108.304C101.653 108.769 101.154 109.145 100.536 109.145C99.9193 109.145 99.4199 108.769 99.4199 108.304C99.4199 107.839 99.9218 107.464 100.536 107.464ZM108.56 91.1144C109.172 91.1144 109.671 91.4903 109.671 91.9549C109.671 92.4195 109.174 92.7954 108.56 92.7954C107.945 92.7954 107.443 92.4195 107.443 91.9549C107.443 91.4903 107.943 91.1144 108.56 91.1144ZM100.536 74.5128C101.151 74.5128 101.653 74.8887 101.653 75.3513C101.653 75.814 101.154 76.1899 100.536 76.1899C99.9193 76.1899 99.4199 75.814 99.4199 75.3513C99.4199 74.8887 99.9218 74.5128 100.536 74.5128ZM56.276 104.121C54.2452 105.634 51.7457 106.459 49.1541 106.459C43.3843 106.459 38.6031 102.44 37.7349 97.2041C41.6352 96.9535 45.282 95.5232 48.1143 93.0961C49.0465 92.2961 48.939 91.0778 47.8762 90.3761C46.816 89.6744 45.1949 89.7534 44.2627 90.5554C42.1243 92.3906 39.3688 93.4026 36.5057 93.4026C30.7052 93.4026 25.9009 89.339 25.0712 84.0628C25.9777 84.1977 26.9022 84.2864 27.8523 84.2864C32.2187 84.2864 36.3418 82.8078 39.4635 80.1244C40.3932 79.3225 40.2856 78.1061 39.2203 77.4044C38.1575 76.7046 36.539 76.7836 35.6068 77.5856C33.4761 79.4208 30.7205 80.4309 27.8523 80.4309C22.1287 80.4309 17.373 76.4733 16.4536 71.2992C16.5663 71.3012 16.6764 71.3147 16.7891 71.3147C18.2053 71.3147 19.35 70.451 19.35 69.3869C19.35 68.3228 18.2053 67.4592 16.7891 67.4592C10.4047 67.4592 5.21119 62.5435 5.21119 56.5019C5.21119 50.4604 10.4047 45.5447 16.7891 45.5447C18.2053 45.5447 19.35 44.6811 19.35 43.6169C19.35 42.5528 18.2053 41.6892 16.7891 41.6892C16.6764 41.6892 16.5663 41.7027 16.4536 41.7046C17.373 36.5306 22.1287 32.573 27.8523 32.573C30.7205 32.573 33.4761 33.5831 35.6068 35.4183C36.539 36.2183 38.1575 36.2973 39.2203 35.5995C40.2856 34.8978 40.3932 33.6814 39.4635 32.8795C36.3418 30.196 32.2187 28.7175 27.8523 28.7175C26.9022 28.7175 25.9803 28.8042 25.0712 28.9411C25.9009 23.6649 30.7052 19.6012 36.5057 19.6012C39.3688 19.6012 42.1243 20.6113 44.2627 22.4485C45.1949 23.2523 46.816 23.3275 47.8762 22.6278C48.939 21.9261 49.0465 20.7077 48.1143 19.9077C45.2845 17.4788 41.6378 16.0503 37.7349 15.7997C38.6031 10.5659 43.3843 6.54466 49.1541 6.54466C51.7483 6.54466 54.2452 7.36973 56.276 8.88301V104.121Z" fill="white"/>
</svg>
