<svg width="124" height="108" viewBox="0 0 124 108" fill="none" xmlns="http://www.w3.org/2000/svg">
<path d="M8.83569 34.163V89.2651H10.9925V34.163C10.9925 32.3403 12.4441 30.8569 14.2278 30.8569H29.9297V28.6528H14.2278C11.2535 28.6528 8.83569 31.1258 8.83569 34.163Z" fill="white"/>
<path d="M114.521 89.2651V34.163C114.521 31.1258 112.103 28.6528 109.129 28.6528H97.6973V30.8569H109.129C110.912 30.8569 112.364 32.3403 112.364 34.163V89.2651H114.521Z" fill="white"/>
<path d="M29.3023 35.2651H16.3827C14.599 35.2651 13.1475 36.7485 13.1475 38.5713V89.2651H15.3043V38.5713C15.3043 37.9629 15.7896 37.4692 16.3827 37.4692H29.3023V35.2651Z" fill="white"/>
<path d="M110.207 89.2651V38.5713C110.207 36.7485 108.756 35.2651 106.972 35.2651H98.3232V37.4692H106.972C107.565 37.4692 108.051 37.9629 108.051 38.5713V89.2651H110.207Z" fill="white"/>
<path d="M119.912 92.5713C107.616 92.5713 16.0017 92.5713 3.44231 92.5713C1.65859 92.5713 0.207031 94.0546 0.207031 95.8774C0.207031 102.562 5.53014 108 12.0697 108H111.285C117.829 108 123.148 102.609 123.148 95.8774C123.148 94.0546 121.696 92.5713 119.912 92.5713ZM73.54 94.7754V95.8774C73.54 96.4857 73.0547 96.9795 72.4615 96.9795H50.893C50.2999 96.9795 49.8146 96.4857 49.8146 95.8774V94.7754H73.54ZM111.285 105.796H12.0697C6.71857 105.796 2.36388 101.346 2.36388 95.8774C2.36388 95.2691 2.84917 94.7754 3.44231 94.7754H47.6578V95.8774C47.6578 97.7002 49.1093 99.1835 50.893 99.1835H72.4615C74.2453 99.1835 75.6968 97.7002 75.6968 95.8774V94.7754H119.912C120.505 94.7754 120.991 95.2691 120.991 95.8774C120.991 101.396 116.636 105.796 111.285 105.796Z" fill="white"/>
<path d="M17.4622 73.8364C17.4622 75.6592 18.9137 77.1425 20.6974 77.1425H35.7954C37.5791 77.1425 39.0307 75.6592 39.0307 73.8364C39.0307 72.0136 37.5791 70.5303 35.7954 70.5303H20.6974C18.9137 70.5303 17.4622 72.0136 17.4622 73.8364ZM36.8738 73.8364C36.8738 74.4447 36.3885 74.9384 35.7954 74.9384H20.6974C20.1043 74.9384 19.619 74.4447 19.619 73.8364C19.619 73.2281 20.1043 72.7344 20.6974 72.7344H35.7954C36.3885 72.7344 36.8738 73.2281 36.8738 73.8364Z" fill="white"/>
<path d="M35.7954 79.3472H20.6974C18.9137 79.3472 17.4622 80.8305 17.4622 82.6533C17.4622 84.4761 18.9137 85.9594 20.6974 85.9594H35.7954C37.5791 85.9594 39.0307 84.4761 39.0307 82.6533C39.0307 80.8305 37.5791 79.3472 35.7954 79.3472ZM35.7954 83.7553H20.6974C20.1043 83.7553 19.619 83.2616 19.619 82.6533C19.619 82.045 20.1043 81.5512 20.6974 81.5512H35.7954C36.3885 81.5512 36.8738 82.045 36.8738 82.6533C36.8738 83.2616 36.3885 83.7553 35.7954 83.7553Z" fill="white"/>
<path d="M84.3242 73.8364C84.3242 75.6592 85.7758 77.1425 87.5595 77.1425H102.657C104.441 77.1425 105.893 75.6592 105.893 73.8364C105.893 72.0136 104.441 70.5303 102.657 70.5303H87.5595C85.7758 70.5303 84.3242 72.0136 84.3242 73.8364ZM103.736 73.8364C103.736 74.4447 103.251 74.9384 102.657 74.9384H87.5595C86.9664 74.9384 86.4811 74.4447 86.4811 73.8364C86.4811 73.2281 86.9664 72.7344 87.5595 72.7344H102.657C103.251 72.7344 103.736 73.2281 103.736 73.8364Z" fill="white"/>
<path d="M102.657 79.3472H87.5595C85.7758 79.3472 84.3242 80.8305 84.3242 82.6533C84.3242 84.4761 85.7758 85.9594 87.5595 85.9594H102.657C104.441 85.9594 105.893 84.4761 105.893 82.6533C105.893 80.8305 104.441 79.3472 102.657 79.3472ZM102.657 83.7553H87.5595C86.9664 83.7553 86.4811 83.2616 86.4811 82.6533C86.4811 82.045 86.9664 81.5512 87.5595 81.5512H102.657C103.251 81.5512 103.736 82.045 103.736 82.6533C103.736 83.2616 103.251 83.7553 102.657 83.7553Z" fill="white"/>
<path d="M68.1269 0H59.4995C57.7158 0 56.2642 1.48335 56.2642 3.30612V5.36253C50.5745 6.804 45.4455 9.84123 41.3345 14.1965L39.5702 13.154C38.0216 12.2415 36.0416 12.7881 35.1508 14.364L30.835 22.0011C29.9463 23.5815 30.4769 25.607 32.0212 26.5173L33.7575 27.54C32.1355 33.3125 32.1334 39.4134 33.7575 45.1925L32.0212 46.2152C30.4769 47.1255 29.9463 49.151 30.8371 50.7313L35.1508 58.3663C36.0416 59.9444 38.0216 60.4888 39.5702 59.5763L41.3345 58.5338C45.4455 62.8913 50.5745 65.9263 56.2642 67.3678V69.4286C56.2642 71.2514 57.7158 72.7347 59.4995 72.7347H68.1269C69.9106 72.7347 71.3622 71.2514 71.3622 69.4286V67.3722C77.052 65.9307 82.1831 62.8935 86.2919 58.5382L88.0562 59.5807C89.5811 60.4778 91.5719 59.9753 92.4756 58.3707L96.7893 50.7358C97.6823 49.1576 97.1517 47.1321 95.6052 46.2196L93.8711 45.1969C95.4909 39.4288 95.4909 33.3147 93.8711 27.5444L95.6052 26.5217C97.1517 25.6092 97.6823 23.5837 96.7893 22.0056L92.4778 14.3728C91.574 12.7727 89.5897 12.2591 88.0562 13.1606L86.2919 14.2031C82.1831 9.84563 77.052 6.81061 71.3622 5.36914V3.30612C71.3622 1.48335 69.9106 0 68.1269 0ZM85.2955 16.3322C85.6384 16.7136 86.1949 16.7995 86.6305 16.5438L89.1346 15.0649C89.6437 14.7673 90.3015 14.9304 90.6099 15.4682L94.9236 23.1032C95.2213 23.6344 95.0401 24.3066 94.5268 24.6086L92.0529 26.0699C91.615 26.33 91.4101 26.8656 91.5633 27.3571C93.3858 33.2177 93.3858 39.5148 91.5633 45.3776C91.4101 45.8713 91.6129 46.4069 92.0529 46.6648L94.5268 48.1261C95.0401 48.4281 95.2213 49.1003 94.9236 49.6315L90.6078 57.2664C90.3144 57.7888 89.6588 57.9762 89.1346 57.6698L86.6305 56.1909C86.1949 55.9352 85.6384 56.0189 85.2955 56.4025C81.1953 60.9914 75.9239 64.1101 70.0551 65.4216C69.5612 65.5318 69.2053 65.9792 69.2053 66.4971V69.4286C69.2053 70.0369 68.7201 70.5306 68.1269 70.5306H59.4995C58.9064 70.5306 58.4211 70.0369 58.4211 69.4286V66.4971C58.4211 65.9792 58.0674 65.5318 57.5713 65.4216C51.7025 64.1101 46.4333 60.9914 42.3331 56.4025C41.9945 56.0256 41.4424 55.9308 40.998 56.1909L38.4918 57.6698C37.9806 57.9718 37.3141 57.791 37.0165 57.2664L32.7049 49.6337C32.4073 49.1069 32.5842 48.4303 33.0997 48.1261L35.5736 46.6648C36.0114 46.4047 36.2163 45.8713 36.0632 45.3776C34.2406 39.5016 34.2406 33.2309 36.0632 27.3549C36.2163 26.8611 36.0136 26.3278 35.5736 26.0677L33.0997 24.6064C32.5863 24.3022 32.4095 23.6278 32.7028 23.101L37.0165 15.466C37.3141 14.9393 37.9784 14.7585 38.4918 15.0627L40.998 16.5416C41.4337 16.7995 41.9902 16.7136 42.3331 16.33C46.4333 11.7411 51.7047 8.62237 57.5713 7.31094C58.0652 7.20074 58.4211 6.75331 58.4211 6.23535V3.30612C58.4211 2.6978 58.9064 2.20408 59.4995 2.20408H68.1269C68.7201 2.20408 69.2053 2.6978 69.2053 3.30612V6.23755C69.2053 6.75551 69.5591 7.20294 70.0551 7.31314C75.9239 8.62678 81.1953 11.7456 85.2955 16.3322Z" fill="white"/>
<path d="M41.1658 36.367C41.1658 49.1286 51.3245 59.5098 63.8127 59.5098C76.3009 59.5098 86.4597 49.1286 86.4597 36.367C86.4597 23.6053 76.3009 13.2241 63.8127 13.2241C51.3245 13.2241 41.1658 23.6053 41.1658 36.367ZM84.3028 36.367C84.3028 47.912 75.1103 57.3058 63.8127 57.3058C52.5151 57.3058 43.3226 47.912 43.3226 36.367C43.3226 24.822 52.5151 15.4282 63.8127 15.4282C75.1103 15.4282 84.3028 24.822 84.3028 36.367Z" fill="white"/>
<path d="M56.9523 30.9127C55.6927 29.6233 53.6372 29.6233 52.3776 30.9127L49.3278 34.0293C48.0639 35.3208 48.0639 37.4125 49.3278 38.7041L56.9523 46.4977C59.066 48.6555 62.4738 48.6489 64.5768 46.4977L78.303 32.471C79.5647 31.1816 79.5647 29.0833 78.303 27.7939L75.2532 24.6773C74.0324 23.4298 71.8993 23.4298 70.6785 24.6773L60.7634 34.8073L56.9523 30.9127ZM72.2034 26.2378C72.624 25.808 73.3077 25.808 73.7283 26.2378L76.7781 29.3544C77.1987 29.7842 77.1987 30.4829 76.7781 30.9149L63.0519 44.9417C61.8354 46.1892 59.7023 46.1914 58.4772 44.9417L50.8527 37.148C50.4321 36.7182 50.4321 36.0195 50.8527 35.5897L53.9025 32.4732C54.3231 32.0434 55.0068 32.0434 55.4274 32.4732L60.0021 37.148C60.4227 37.5778 61.1064 37.5778 61.527 37.148L72.2034 26.2378Z" fill="white"/>
</svg>
