<svg width="106" height="107" viewBox="0 0 106 107" fill="none" xmlns="http://www.w3.org/2000/svg">
<path d="M95.7406 68.8115C100.795 68.8115 105.128 64.5683 105.128 59.2184C105.128 54.0529 101.156 49.9943 96.2822 49.8098C95.7407 37.4492 90.3249 26.0119 81.2981 17.8947C75.7017 13.0982 69.0223 9.77748 61.8012 8.1172L60.3569 1.47586C60.1764 0.553446 59.4543 -1.24735e-09 58.5517 -1.22828e-09L46.8176 -9.80343e-10C45.915 -9.61271e-10 45.1929 0.553446 45.0124 1.47586L43.7486 8.1172C36.708 9.59306 30.0285 13.0983 24.4318 17.8947C21.9045 20.1085 19.5575 22.6912 17.5718 25.6429C17.0302 26.3809 17.2107 27.6723 17.9328 28.2257C18.2939 28.4102 18.655 28.5946 19.016 28.5946C19.5576 28.5946 20.0992 28.4102 20.4602 27.8567C21.724 26.0119 23.3487 24.1671 24.9734 22.5068C25.876 25.6429 26.5981 29.7017 25.876 33.9447C25.6955 34.8671 26.4176 35.974 27.3202 36.1585L27.6813 36.1585C28.5839 36.1585 29.306 35.605 29.4866 34.6826C30.5697 29.1481 29.1255 23.4293 27.8619 19.924C32.375 16.2344 37.4298 13.4671 43.0262 12.1758L39.9573 27.1186C39.7768 28.041 40.3183 29.1479 41.4015 29.3323C42.3042 29.5168 43.3874 28.9634 43.5678 27.8565L47.3589 10.1462L48.442 3.68928L57.2878 3.68928L58.5516 10.1462L62.3426 27.8565C62.5231 28.7789 63.2453 29.3323 64.1479 29.3323L64.5089 29.3323C65.4116 29.1479 66.1336 28.2254 65.9532 27.1186L62.8843 12.1758C68.4807 13.6517 73.5355 16.2344 78.0486 19.924C76.7848 23.7981 75.5212 29.1481 76.4239 34.6826C76.6044 35.605 77.3265 36.1585 78.2292 36.1585L78.5902 36.1585C79.4929 35.974 80.2149 35.0516 80.0344 33.9447C79.3123 29.8861 80.0344 25.643 80.9371 22.5068C88.1582 29.7017 92.3104 39.4791 92.8513 49.6259L12.8773 49.6259C13.0578 45.3828 13.7799 41.1398 15.2241 37.2654C15.5851 36.3429 15.0435 35.236 14.1409 34.8671C13.2383 34.4983 12.155 35.0516 11.7941 35.974C10.3499 40.586 9.44729 45.1981 9.2667 49.8105C4.39239 50.1794 0.420898 54.238 0.420898 59.4035C0.420898 64.569 4.57309 68.9966 9.80834 68.9966L14.3215 68.9966L14.8631 71.2104L10.8915 74.7156C9.6277 75.8225 9.26676 77.8517 10.1693 79.3276L14.502 87.0758C15.4046 88.5517 17.21 89.2896 18.6542 88.7361L23.709 87.0758C24.2506 87.8138 24.9727 88.3673 25.6948 89.1052L24.0702 94.0863C23.5286 95.7465 24.2507 97.5915 25.6948 98.3294L33.277 102.757C34.7212 103.679 36.7071 103.31 37.7901 102.019L41.2202 97.9604C42.1229 98.3294 43.0255 98.5139 43.9282 98.6984L45.0114 104.048C45.3724 105.709 46.8167 107 48.4415 107L57.2873 107C58.912 107 60.5368 105.709 60.7173 104.048L61.8005 98.6984C62.7032 98.5139 63.6058 98.3294 64.5085 97.9604L67.9386 102.019C69.0217 103.31 71.0075 103.679 72.4517 102.757L80.0339 98.3294C81.4781 97.407 82.2002 95.5621 81.6586 94.0863L79.8533 88.9208C80.5754 88.3673 81.117 87.6293 81.8391 86.8914L86.8939 88.5517C88.5186 89.1051 90.324 88.3672 91.2266 86.8914L95.5593 79.1432C96.4619 77.6673 96.1008 75.638 94.8372 74.5312L90.685 71.026L91.2265 68.8122L95.7406 68.8115ZM4.03249 59.4028C4.03249 56.0822 6.55988 53.4994 9.80938 53.4994L95.7406 53.4994C98.8095 53.4994 101.517 56.0822 101.517 59.4028C101.517 62.539 98.9901 65.3063 95.7406 65.3063L9.80938 65.3063C6.55988 65.1218 4.03249 62.539 4.03249 59.4028ZM77.3273 68.8115C73.5363 79.1425 63.7875 85.968 52.7756 85.968C41.7637 85.968 32.0146 78.9577 28.2238 68.8115L77.3273 68.8115ZM87.4369 73.0546L92.3112 77.4822L87.9785 85.2304L81.8406 83.0166C81.1185 82.8322 80.3964 83.0166 79.8547 83.5701C78.7716 84.8615 77.6884 85.9683 76.6052 86.8908C76.0637 87.4442 75.8831 88.1822 76.0637 88.9201L78.23 95.1925L70.6478 99.6201L66.3152 94.639C65.7736 94.0855 65.0514 93.9011 64.3293 94.0855C62.7046 94.639 61.2604 95.008 59.8162 95.377C59.094 95.5615 58.5524 96.1149 58.3719 96.8528L57.1082 103.31L48.4428 103.31L47.1791 96.8528C46.9986 96.1149 46.457 95.5614 45.7349 95.377C44.2906 95.008 42.8464 94.6391 41.2217 94.0855C40.4996 93.9011 39.7775 94.0855 39.2359 94.639L35.0837 99.6201L27.5015 95.1925L29.6678 88.9201C29.8484 88.1822 29.6678 87.4443 29.1263 86.8908C27.8625 85.7839 26.7795 84.677 25.8768 83.5701C25.3352 83.0166 24.613 82.8322 23.8909 83.0166L17.753 85.2304L13.2398 77.4822L18.1141 73.0546C18.6557 72.5012 18.8362 71.7632 18.6557 71.0253C18.4752 70.2873 18.1141 69.5494 17.9336 68.8115L24.4326 68.8115C28.4042 81.1721 39.9586 89.8418 52.7752 89.8418C65.5918 89.8418 77.1467 81.1711 81.1177 68.8115L87.6167 68.8115C87.4362 69.5494 87.2557 70.2873 86.8946 71.0253C86.7141 71.7632 86.8953 72.5011 87.4369 73.0546Z" fill="white"/>
</svg>
