<svg width="102" height="105" viewBox="0 0 102 105" fill="none" xmlns="http://www.w3.org/2000/svg">
<path d="M57.988 15.3789C57.988 11.4221 54.8523 8.20117 51.0002 8.20117C47.1482 8.20117 44.0125 11.4221 44.0125 15.3789C44.0125 18.9837 46.6185 21.97 49.9931 22.4713L49.9931 82.0687C46.6185 82.57 44.0125 85.5563 44.0125 89.1611C44.0125 93.1179 47.1482 96.3388 51.0002 96.3388C54.8523 96.3388 57.988 93.1179 57.988 89.1611C57.988 85.5563 55.3819 82.57 52.0073 82.0687L52.0073 22.4713C55.3714 21.97 57.988 18.9837 57.988 15.3789Z" fill="white"/>
<path d="M37.4284 32.8815L24.065 26.9943L24.065 12.2123C26.8892 11.7217 29.0489 9.19411 29.0489 6.15445C29.0489 2.76285 26.3597 0.0112305 23.0683 0.0112305C19.7664 0.0112305 17.0876 2.77349 17.0876 6.15445C17.0876 9.19411 19.2473 11.7217 22.0715 12.2123L22.0715 27.6769C22.0715 28.0822 22.3103 28.4554 22.6737 28.6154L36.0371 34.5027L36.0371 40.9978L17.545 40.9978L9.04134 30.8017C9.69547 29.9378 10.1004 28.8606 10.1004 27.6767C10.1004 24.8504 7.85767 22.5574 5.11655 22.5574C2.37544 22.5574 0.132703 24.8611 0.132703 27.6767C0.132703 30.503 2.37544 32.7961 5.11655 32.7961C5.99911 32.7961 6.80893 32.5401 7.52541 32.1348L16.3302 42.6935C16.5171 42.9175 16.7974 43.0561 17.0882 43.0561L36.0374 43.0561L36.0374 61.4967L17.0775 61.4967C16.7868 61.4967 16.5065 61.6247 16.3196 61.8593L7.51478 72.418C6.79836 72.002 5.98853 71.7567 5.10592 71.7567C2.35444 71.7567 0.12207 74.0605 0.12207 76.8761C0.12207 79.6917 2.3648 81.9954 5.10592 81.9954C7.84704 81.9954 10.0898 79.6917 10.0898 76.8761C10.0898 75.6922 9.68483 74.6151 9.03069 73.7511L17.5343 63.555L36.0264 63.555L36.0264 70.0502L22.663 75.9374C22.2996 76.0974 22.0608 76.4707 22.0608 76.876L22.0608 92.3405C19.2366 92.8311 17.077 95.3587 17.077 98.3984C17.077 101.79 19.7661 104.542 23.0576 104.542C26.3594 104.542 29.0382 101.779 29.0382 98.3984C29.0382 95.3587 26.8786 92.8311 24.0544 92.3405L24.0544 77.5367L37.4177 71.6495C37.7811 71.4895 38.0199 71.1162 38.0199 70.7109L38.0199 33.8298C38.0303 33.4138 37.7918 33.0415 37.4284 32.8815Z" fill="white"/>
<path d="M96.891 71.7346C96.0084 71.7346 95.1986 71.9906 94.4821 72.3958L85.6773 61.8372C85.4904 61.6132 85.2101 61.4745 84.9194 61.4745L65.9595 61.4745L65.9595 43.0449L84.9087 43.0449C85.1995 43.0449 85.4798 42.9169 85.6667 42.6823L94.4715 32.1236C95.1879 32.5395 95.9978 32.7848 96.8804 32.7848C99.6319 32.7848 101.864 30.4811 101.864 27.6655C101.864 24.8392 99.6215 22.5461 96.8804 22.5461C94.1289 22.5461 91.8965 24.8498 91.8965 27.6655C91.8965 28.8493 92.3015 29.9265 92.9556 30.7905L84.4519 40.9866L65.9599 40.9866L65.9599 34.4914L79.3232 28.6042C79.6866 28.4442 79.9254 28.0709 79.9254 27.6656L79.9254 12.2011C82.7496 11.7105 84.9093 9.18288 84.9093 6.14321C84.9093 2.75161 82.2201 -3.6865e-10 78.9287 -3.02176e-10C75.6268 -2.35493e-10 72.948 2.76226 72.948 6.14321C72.948 9.18288 75.1077 11.7105 77.9319 12.2011L77.9319 26.994L64.5685 32.8812C64.2051 33.0412 63.9663 33.4145 63.9663 33.8198L63.9663 70.7104C63.9663 71.1157 64.2051 71.489 64.5685 71.649L77.9319 77.5362L77.9319 92.3291C75.1077 92.8197 72.948 95.3473 72.948 98.387C72.948 101.779 75.6372 104.53 78.9287 104.53C82.2305 104.53 84.9093 101.768 84.9093 98.387C84.9093 95.3473 82.7496 92.8197 79.9254 92.3291L79.9254 76.8646C79.9254 76.4593 79.6866 76.086 79.3232 75.926L65.9599 70.0388L65.9599 63.5436L84.4519 63.5436L92.9556 73.7397C92.3014 74.6036 91.8965 75.6809 91.8965 76.8647C91.8965 79.691 94.1393 81.9841 96.8804 81.9841C99.6319 81.9841 101.864 79.6804 101.864 76.8647C101.864 74.0491 99.6321 71.7346 96.891 71.7346Z" fill="white"/>
</svg>
