<svg width="92" height="94" viewBox="0 0 92 94" fill="none" xmlns="http://www.w3.org/2000/svg">
<path fill-rule="evenodd" clip-rule="evenodd" d="M16.8669 58.0044H10.8524C9.03537 58.0044 7.38713 59.0868 6.6472 60.7706L5.12536 64.243C4.95286 64.2236 4.77652 64.212 4.60019 64.212C2.05874 64.212 0.000196299 66.2954 0.000196299 68.8676C0.000196299 71.4398 2.05874 73.5233 4.60019 73.5233C7.14164 73.5233 9.20018 71.4398 9.20018 68.8676C9.20018 67.5951 8.69801 66.4467 7.88146 65.6047L9.44934 62.0315C9.69851 61.4689 10.2467 61.1081 10.8523 61.1081H16.8668V67.3156C16.8668 69.8879 18.9254 71.9713 21.4668 71.9713H23.0001V78.4427C21.2138 79.0828 19.9335 80.8093 19.9335 82.8345C19.9335 85.4067 21.992 87.4902 24.5335 87.4902C27.0749 87.4902 29.1335 85.4067 29.1335 82.8345C29.1335 80.8093 27.8531 79.0829 26.0668 78.4427V71.9713H33.7335V76.627C33.7335 77.4844 34.4196 78.1789 35.2668 78.1789C36.1139 78.1789 36.8001 77.4844 36.8001 76.627V71.9713H44.4668V84.6506C42.6804 85.2908 41.4001 87.0172 41.4001 89.0425C41.4001 91.6147 43.4586 93.6982 46.0001 93.6982C48.5415 93.6982 50.6001 91.6147 50.6001 89.0425C50.6001 87.0172 49.3197 85.2908 47.5334 84.6506V71.9713H55.2001V76.627C55.2001 77.4844 55.8862 78.1789 56.7334 78.1789C57.5806 78.1789 58.2667 77.4844 58.2667 76.627V71.9713H65.9334V78.4427C64.1471 79.0828 62.8667 80.8093 62.8667 82.8345C62.8667 85.4067 64.9253 87.4902 67.4667 87.4902C70.0082 87.4902 72.0667 85.4067 72.0667 82.8345C72.0667 80.8093 70.7864 79.0829 69.0001 78.4427V71.9713H70.5334C73.0748 71.9713 75.1334 69.8879 75.1334 67.3156V61.1081H81.1479C81.7535 61.1081 82.3017 61.4689 82.5508 62.0315L84.1187 65.6047C83.3022 66.4466 82.8 67.595 82.8 68.8676C82.8 71.4398 84.8586 73.5233 87.4 73.5233C89.9415 73.5233 92 71.4398 92 68.8676C92 66.2954 89.9415 64.212 87.4 64.212C87.2237 64.212 87.0473 64.2236 86.8748 64.243L85.353 60.7706C84.6132 59.0869 82.9648 58.0044 81.1478 58.0044H75.1333V51.7968H79.9939C80.6264 53.6047 82.3323 54.9006 84.3333 54.9006C86.8747 54.9006 88.9333 52.8171 88.9333 50.2449C88.9333 47.6727 86.8747 45.5892 84.3333 45.5892C82.3323 45.5892 80.6265 46.8851 79.9939 48.693H75.1333V42.4855H81.1478C82.9648 42.4855 84.6131 41.4031 85.353 39.7192L86.8748 36.2468C87.0473 36.2662 87.2237 36.2779 87.4 36.2779C89.9415 36.2779 92 34.1944 92 31.6222C92 29.05 89.9415 26.9665 87.4 26.9665C84.8586 26.9665 82.8 29.05 82.8 31.6222C82.8 32.8947 83.3022 34.0431 84.1187 34.8851L82.5508 38.4584C82.3017 39.0209 81.7535 39.3817 81.1479 39.3817H75.1334V26.625L77.5292 27.9479C79.7601 29.1817 82.5547 28.3475 83.7737 26.0934C84.9889 23.8354 84.1647 21.0071 81.9375 19.7772L48.9363 1.55777C47.1078 0.545196 44.8922 0.545196 43.0637 1.55777L10.0625 19.7772C7.83534 21.0071 7.01112 23.8353 8.23013 26.0934C9.44531 28.3475 12.2398 29.1817 14.4708 27.9479L16.8666 26.625V39.3817H10.8521C10.2465 39.3817 9.6983 39.0209 9.44914 38.4584L7.88127 34.8851C8.69776 34.0432 9.19998 32.8948 9.19998 31.6222C9.19998 29.05 7.14144 26.9665 4.59999 26.9665C2.05854 26.9665 0 29.05 0 31.6222C0 34.1944 2.05854 36.2779 4.59999 36.2779C4.77633 36.2779 4.95266 36.2662 5.12516 36.2468L6.64701 39.7192C7.38684 41.403 9.03518 42.4855 10.8522 42.4855H16.8667V48.693H12.0061C11.3736 46.8851 9.66774 45.5892 7.66671 45.5892C5.12526 45.5892 3.06672 47.6727 3.06672 50.2449C3.06672 52.8171 5.12526 54.9006 7.66671 54.9006C9.66774 54.9006 11.3735 53.6047 12.0061 51.7968H16.8667L16.8669 58.0044ZM46.0006 7.00906L78.9979 25.2245C79.7416 25.6357 80.673 25.3564 81.0794 24.6076C81.4857 23.855 81.2136 22.9122 80.4699 22.5009L47.4687 4.28152C46.5526 3.77716 45.4486 3.77716 44.5324 4.28152L11.5312 22.5009C10.7914 22.9122 10.5153 23.855 10.9217 24.6076C11.328 25.3564 12.2596 25.6358 13.0032 25.2245L46.0006 7.00906ZM72.0668 24.9335L46.0006 10.5439L19.9345 24.9335V67.3157C19.9345 68.1731 20.6207 68.8676 21.4679 68.8676H70.5344C71.3816 68.8676 72.0677 68.1731 72.0677 67.3157L72.0668 24.9335ZM9.20073 50.2444C9.20073 49.387 8.51456 48.6925 7.6674 48.6925C6.82023 48.6925 6.13407 49.387 6.13407 50.2444C6.13407 51.1018 6.82023 51.7963 7.6674 51.7963C8.51456 51.7963 9.20073 51.1018 9.20073 50.2444ZM82.8006 50.2444C82.8006 51.1018 83.4867 51.7963 84.3339 51.7963C85.1811 51.7963 85.8672 51.1018 85.8672 50.2444C85.8672 49.387 85.1811 48.6925 84.3339 48.6925C83.4867 48.6925 82.8006 49.387 82.8006 50.2444ZM46.0006 87.4897C45.1535 87.4897 44.4673 88.1842 44.4673 89.0416C44.4673 89.899 45.1535 90.5935 46.0006 90.5935C46.8478 90.5935 47.534 89.899 47.534 89.0416C47.534 88.1842 46.8478 87.4897 46.0006 87.4897ZM67.4673 81.2822C66.6201 81.2822 65.9339 81.9767 65.9339 82.8341C65.9339 83.6915 66.6201 84.386 67.4673 84.386C68.3144 84.386 69.0006 83.6915 69.0006 82.8341C69.0006 81.9767 68.3144 81.2822 67.4673 81.2822ZM23.0012 82.8341C23.0012 81.9767 23.6874 81.2822 24.5345 81.2822C25.3817 81.2822 26.0678 81.9767 26.0678 82.8341C26.0678 83.6915 25.3817 84.386 24.5345 84.386C23.6874 84.386 23.0012 83.6915 23.0012 82.8341ZM88.9349 31.6223C88.9349 32.4797 88.2487 33.1741 87.4015 33.1741C86.5544 33.1741 85.8682 32.4797 85.8682 31.6223C85.8682 30.7648 86.5544 30.0704 87.4015 30.0704C88.2487 30.0704 88.9349 30.7648 88.9349 31.6223ZM88.9349 68.8676C88.9349 68.0102 88.2487 67.3157 87.4015 67.3157C86.5544 67.3157 85.8682 68.0102 85.8682 68.8676C85.8682 69.725 86.5544 70.4195 87.4015 70.4195C88.2487 70.4195 88.9349 69.725 88.9349 68.8676ZM3.06839 31.6223C3.06839 32.4797 3.75455 33.1741 4.60172 33.1741C5.44888 33.1741 6.13505 32.4797 6.13505 31.6223C6.13505 30.7648 5.44888 30.0704 4.60172 30.0704C3.75455 30.0704 3.06839 30.7648 3.06839 31.6223ZM3.06839 68.8676C3.06839 68.0102 3.75455 67.3157 4.60172 67.3157C5.44888 67.3157 6.13505 68.0102 6.13505 68.8676C6.13505 69.725 5.44888 70.4195 4.60172 70.4195C3.75455 70.4195 3.06839 69.725 3.06839 68.8676Z" fill="white"/>
</svg>
