<svg width="103" height="105" viewBox="0 0 103 105" fill="none" xmlns="http://www.w3.org/2000/svg">
<path d="M96.0911 25.8581L81.243 14.2196C78.0067 11.683 73.9535 11.1036 70.3498 12.4653C70.5978 11.5971 70.7332 10.6801 70.7332 9.73051C70.7332 4.36516 66.484 -1.39725e-09 61.2611 -1.28689e-09C56.0382 -1.17653e-09 51.7891 4.36495 51.7891 9.73051C51.7891 14.9533 55.8156 19.2265 60.8468 19.4504L56.227 23.2246L52.3625 21.25L52.0785 18.9447C51.9185 17.6462 50.8799 16.6389 49.6094 16.5493L43.9374 16.1477C42.6675 16.0597 41.5034 16.9095 41.1717 18.173L40.5827 20.4166L36.7485 21.7395L34.9602 20.3151C33.9537 19.5142 32.526 19.5563 31.5657 20.4152L27.2789 24.2514C26.3184 25.1111 26.0822 26.5583 26.7173 27.6923L27.845 29.707L26.0439 33.4276L23.8001 33.7194C22.5219 33.8856 21.5408 34.9601 21.4669 36.2742L21.0763 43.2424C21.0757 43.2546 21.0763 43.2667 21.0761 43.2789L16.185 45.2803C17.1641 43.8355 17.7401 42.0822 17.7401 40.1922C17.7401 35.2684 13.8409 31.2629 9.04819 31.2629C4.25551 31.2629 0.356445 35.2689 0.356445 40.1924C0.356445 44.4874 3.32392 48.0834 7.26319 48.9317L7.14946 48.9781C3.8281 50.3373 1.76454 53.4464 1.76454 57.0926L1.76454 99.5361C1.76454 101.164 2.38122 102.603 3.50087 103.591C4.47407 104.449 5.7648 104.922 7.13492 104.922C9.8089 104.922 12.5158 103.072 12.5158 99.5361L12.5158 86.8278L18.3546 83.3647L18.3546 103.34C18.3546 104.257 19.0781 105 19.9706 105L100.512 105C101.404 105 102.128 104.257 102.128 103.34L102.128 38.3904C102.128 33.3604 99.9841 28.9097 96.0913 25.8581L96.0911 25.8581ZM3.58833 40.1924C3.58833 37.0995 6.03769 34.5833 9.0484 34.5833C12.0591 34.5833 14.5085 37.0995 14.5085 40.1924C14.5085 43.2854 12.0591 45.8016 9.0484 45.8016C6.03769 45.8016 3.58833 43.2854 3.58833 40.1924ZM79.2827 16.8593L94.1308 28.4978C97.2481 30.9413 98.896 34.3623 98.896 38.3904L98.896 58.1154L93.5095 58.1154L93.5095 43.6346C93.5095 42.7178 92.7859 41.9745 91.8935 41.9745C91.0011 41.9745 90.2776 42.7178 90.2776 43.6346L90.2776 58.1154L84.8908 58.1154L84.8908 44.4441C84.8908 40.9866 83.507 38.0107 80.8887 35.8381L74.1713 30.2644C71.3165 27.8954 67.6402 27.4615 64.3372 29.1042L50.5512 35.958C49.4486 36.5062 48.7864 35.5438 48.665 35.3454C48.5022 35.0796 48.0425 34.1533 48.9614 33.4029L69.0831 16.9643C72.1099 14.4918 76.2088 14.4497 79.2831 16.8593L79.2827 16.8593ZM79.1563 58.1152C78.9009 58.1152 78.6493 58.1774 78.4218 58.2966L29.1059 84.1503L29.1059 72.1665C29.1059 70.1073 28.1103 68.3358 26.3741 67.306C24.9703 66.4737 23.3774 66.3132 21.8808 66.8501C21.8695 66.8538 21.8582 66.8577 21.8469 66.8617C21.8362 66.8656 21.8255 66.8688 21.8149 66.8727C21.7457 66.898 21.7194 66.8951 21.6594 66.8517C21.5988 66.8082 21.5867 66.7841 21.5867 66.7084L21.5867 56.6759L25.0814 54.5309L28.9562 59.1845C29.788 60.1834 31.2005 60.4314 32.3155 59.7728L34.2765 58.614L37.898 60.4644L38.182 62.7698C38.342 64.068 39.3804 65.0755 40.6512 65.1655L46.3235 65.567C46.3849 65.5714 46.4457 65.5735 46.5063 65.5735C47.7042 65.5735 48.7731 64.7437 49.0886 63.5416L49.6776 61.298L53.5119 59.9751L55.2997 61.399C56.3066 62.201 57.7345 62.1593 58.6948 61.2994L62.9817 57.4632C63.9422 56.6035 64.1783 55.1563 63.5432 54.0223L62.4155 52.0076L64.2167 48.2871L66.4606 47.9954C67.7243 47.831 68.7049 46.7642 68.7926 45.4588L69.1833 39.6319C69.2709 38.3265 68.4419 37.1317 67.2118 36.7909L65.0281 36.1858L63.9773 32.9715L65.7453 32.0925C67.8933 31.0245 70.2841 31.3065 72.1406 32.847L78.8581 38.4207C80.7166 39.9629 81.6591 41.9893 81.6591 44.4437L81.6591 58.115L79.1567 58.115L79.1563 58.1152ZM45.9286 37.1124C47.2424 39.2593 49.7784 40.0304 51.9589 38.9465L54.4584 37.704C54.8525 38.9353 55.0141 40.2408 54.9262 41.5506C54.746 44.2386 53.5577 46.6937 51.58 48.4633C49.6023 50.233 47.0709 51.1072 44.4557 50.9206C41.5349 50.714 38.911 49.2079 37.212 46.8213C38.604 45.2285 38.6605 43.0181 37.8608 41.3549C37.3726 40.3393 36.5354 39.4597 35.4876 38.9629C35.8953 36.7501 37.0024 34.7536 38.6809 33.2512C40.6587 31.4816 43.188 30.6074 45.8054 30.7939C46.1474 30.8182 46.4853 30.8614 46.819 30.9205C45.0187 32.4957 44.6452 35.0147 45.9288 37.1122L45.9286 37.1124ZM34.5544 48.7163C36.8101 51.9285 40.3221 53.9561 44.2335 54.2329C44.5375 54.2545 44.8391 54.2649 45.1393 54.2649C51.9303 54.2642 57.6767 48.8414 58.1504 41.7784C58.2771 39.8897 58.0135 38.0065 57.3867 36.2479L61.0444 34.4295L62.2396 38.0856C62.4117 38.612 62.8288 39.0152 63.3505 39.1599L65.9269 39.8737L65.5993 44.7607L62.9518 45.105C62.4155 45.1747 61.9487 45.5154 61.7079 46.0126L59.1359 51.3253C58.8952 51.8225 58.9125 52.4106 59.1822 52.8922L60.5129 55.2692L56.9174 58.4866L54.808 56.8064C54.3806 56.4659 53.8157 56.368 53.3034 56.5446L47.8284 58.4337C47.3159 58.6107 46.9235 59.039 46.7827 59.5752L46.0878 62.2224L41.3307 61.8856L40.9956 59.1656C40.9277 58.6147 40.596 58.1351 40.1121 57.8878L34.9406 55.2455C34.4565 54.9984 33.884 55.0158 33.4154 55.2931L31.1052 56.6581L27.8957 52.8038L34.5544 48.7167L34.5544 48.7163ZM55.0213 9.73051C55.0213 6.1958 57.8206 3.32014 61.2615 3.32014C64.7025 3.32014 67.5017 6.1956 67.5017 9.73051C67.5017 13.2654 64.7025 16.1411 61.2615 16.1411C57.8206 16.1411 55.0213 13.2654 55.0213 9.73051ZM24.6663 36.9534L27.3085 36.6098C27.8448 36.5401 28.3116 36.1993 28.5524 35.7021L31.1246 30.3893C31.3654 29.8921 31.348 29.304 31.0783 28.8224L29.7476 26.4454L33.3429 23.2279L35.4523 24.9081C35.8797 25.2487 36.4445 25.3466 36.9569 25.17L42.4321 23.2809C42.9446 23.1038 43.3371 22.6756 43.4779 22.1393L44.1727 19.4924L48.9299 19.8291L49.265 22.5488C49.3328 23.0995 49.6645 23.5793 50.1485 23.8266L53.4345 25.5058L49.9129 28.3827C48.6749 27.8815 47.3727 27.5767 46.027 27.4815C42.5491 27.2354 39.1863 28.3955 36.5578 30.7477C34.227 32.8335 32.7234 35.6362 32.245 38.7351C32.0851 38.783 31.9241 38.8395 31.7619 38.9059L24.3877 41.9235L24.6663 36.9528L24.6663 36.9534ZM10.0919 84.4317C9.59196 84.7282 9.28392 85.276 9.28392 85.8693L9.28392 99.5361C9.28392 101.544 7.35489 101.602 7.13492 101.602C6.5453 101.602 5.988 101.409 5.60604 101.072C5.20165 100.715 4.99642 100.198 4.99642 99.5361L4.99642 57.0926C4.99642 54.8353 6.27968 52.908 8.34546 52.0626L32.9579 41.9907C34.2333 41.4688 34.852 42.5948 34.9631 42.8255C35.1174 43.1467 35.5313 44.2492 34.3759 44.9585L19.1418 54.3093C18.6536 54.6087 18.3546 55.1501 18.3546 55.7342L18.3546 66.7085C18.3546 67.3854 18.537 68.0229 18.8725 68.5691L14.2253 71.2912C13.45 71.7452 13.1798 72.7589 13.6219 73.5555C13.9201 74.0926 14.4656 74.3934 15.0272 74.3934C15.2985 74.3934 15.5736 74.3231 15.8261 74.1751L23.018 69.9623C23.5989 69.7766 24.1983 69.8494 24.7582 70.1814C25.4777 70.6083 25.8738 71.3132 25.8738 72.1665L25.8738 85.8446L21.5863 88.0924L21.5863 80.4892C21.5863 79.8962 21.2783 79.3481 20.7783 79.0516C20.2782 78.7549 19.6625 78.7549 19.1624 79.0516L10.0919 84.4317ZM98.896 101.68L21.5865 101.68L21.5865 91.8198L79.5449 61.4353L98.896 61.4353L98.896 101.679V101.68Z" fill="white"/>
</svg>
