<svg width="94" height="94" viewBox="0 0 94 94" fill="none" xmlns="http://www.w3.org/2000/svg">
<path fill-rule="evenodd" clip-rule="evenodd" d="M52.7934 52.2359V43.3669H41.5554V52.2359H52.7934ZM66.4024 46.4435C66.4024 56.9805 57.7735 65.5509 47.1644 65.5509C36.5553 65.5509 27.9264 56.9806 27.9264 46.4435C27.9264 35.9065 36.5553 27.3441 47.1644 27.3441C57.7735 27.3441 66.4024 35.9183 66.4024 46.4435ZM47.9224 30.3734C51.0826 33.0156 55.6841 35.1804 60.5434 36.3017C61.0317 36.422 61.3949 36.8371 61.4418 37.3337C62.0707 45.0311 61.0316 50.9129 58.2816 55.3128C56.0199 58.9364 52.6214 61.5397 47.6016 63.5184C47.461 63.5688 47.3204 63.596 47.1719 63.596C47.0235 63.596 46.8829 63.5649 46.7422 63.5184C41.7227 61.5436 38.332 58.9403 36.0622 55.3128C33.3122 50.9132 32.2731 45.0311 32.902 37.3337C32.9411 36.8255 33.3005 36.4104 33.8005 36.3017C38.6599 35.1805 43.2614 33.0156 46.4215 30.3734C46.8512 30.0049 47.4849 30.0049 47.9224 30.3734ZM55.1138 26.5093L57.7349 18.7227C58.3052 18.8313 58.8951 18.8934 59.4966 18.8934C64.5278 18.8934 68.606 14.8314 68.606 9.84587C68.606 4.84884 64.5162 0.79834 59.4966 0.79834C54.4654 0.79834 50.3755 4.86036 50.3755 9.84587C50.3755 13.423 52.4771 16.519 55.5161 17.9894L52.895 25.7759C53.6528 25.9855 54.395 26.2222 55.1138 26.5093ZM29.3128 34.4045L18.3128 27.6421C18.7425 26.6683 18.9846 25.5975 18.9846 24.4646C18.9846 20.0534 15.3752 16.4685 10.9339 16.4685C6.49245 16.4685 2.88305 20.0534 2.88305 24.4646C2.88305 28.8759 6.49245 32.4608 10.9339 32.4608C13.4027 32.4608 15.6135 31.3473 17.0822 29.6092L28.1133 36.3831C28.4726 35.7081 28.8831 35.0407 29.3128 34.4045ZM29.1448 58.2216L18.8128 65.5038C16.844 63.3001 13.9612 61.8996 10.762 61.8996C4.8323 61.8996 0 66.6949 0 72.5885C0 78.4779 4.8281 83.2774 10.762 83.2774C16.6917 83.2774 21.524 78.4821 21.524 72.5885C21.524 70.703 21.024 68.9338 20.1646 67.3935L30.5236 60.0918C30.0353 59.4943 29.5745 58.8695 29.1448 58.2216ZM48.0118 67.8666L49.4415 77.8682C46.0196 78.8614 43.5196 82.0001 43.5196 85.7052C43.5196 90.2056 47.211 93.8682 51.7384 93.8682C56.2696 93.8682 59.9572 90.2018 59.9572 85.7052C59.9572 81.2048 56.2775 77.55 51.758 77.5422L50.3478 67.6606C49.5744 67.7653 48.793 67.8355 48.0118 67.8666ZM66.1918 56.5847L72.2699 59.3936C71.8988 60.4644 71.6996 61.6283 71.6996 62.8194C71.6996 68.7088 76.5277 73.5083 82.4616 73.5083C88.3913 73.5083 93.2236 68.713 93.2236 62.8194C93.2236 56.9299 88.3955 52.1305 82.4616 52.1305C78.5632 52.1305 75.1413 54.1944 73.2507 57.2866L67.1804 54.4855C66.8952 55.2032 66.5629 55.898 66.1918 56.5847ZM74.0356 62.8232C74.0356 58.2064 77.8168 54.4508 82.4653 54.4508C87.1137 54.4508 90.895 58.2063 90.895 62.8232C90.895 67.4401 87.1138 71.1957 82.4653 71.1957C77.813 71.1841 74.0356 67.4285 74.0356 62.8232ZM51.7346 79.8548C54.9729 79.8548 57.6135 82.4775 57.6135 85.6938C57.6135 88.9217 54.9729 91.5444 51.7346 91.5444C48.4846 91.5444 45.8557 88.9217 45.8557 85.6938C45.8518 82.4775 48.4924 79.8548 51.7346 79.8548ZM10.7616 64.2118C15.41 64.2118 19.1913 67.9673 19.1913 72.5842C19.1913 77.201 15.4101 80.9566 10.7616 80.9566C6.1132 80.9566 2.3319 77.2011 2.3319 72.5842C2.34362 67.9751 6.1249 64.2118 10.7616 64.2118ZM16.6444 24.4635C16.6444 27.5906 14.0858 30.1435 10.9256 30.1435C7.7615 30.1435 5.2147 27.6023 5.2147 24.4635C5.2147 21.3365 7.7733 18.7836 10.9335 18.7836C14.0937 18.7836 16.6444 21.3326 16.6444 24.4635ZM59.5034 16.5761C55.7651 16.5761 52.7222 13.5576 52.7222 9.84093C52.7222 6.12802 55.7613 3.10578 59.5034 3.10578C63.2417 3.10578 66.2846 6.12424 66.2846 9.84093C66.2846 13.5577 63.2338 16.5761 59.5034 16.5761ZM47.1714 35.6258C49.8628 35.6258 52.062 37.8023 52.062 40.4832V41.038H53.4331C54.3745 41.038 55.1323 41.7945 55.1323 42.7257V52.8554C55.1323 53.7904 54.3706 54.5431 53.4331 54.5431L40.9131 54.5469C39.9717 54.5469 39.2139 53.7904 39.2139 52.8593V42.7295C39.2139 41.7945 39.9756 41.0419 40.9131 41.0419H42.2842V40.4871C42.2842 37.8023 44.4722 35.6258 47.1714 35.6258ZM59.1714 38.3571C59.6206 45.1311 58.6831 50.2876 56.2925 54.0896C54.3628 57.1701 51.4644 59.4319 47.1714 61.1894C42.8823 59.4319 39.9722 57.1661 38.0503 54.0896C35.6597 50.2758 34.7222 45.1197 35.1714 38.3571C39.7612 37.1855 43.9605 35.2301 47.1714 32.7471C50.3823 35.2185 54.5816 37.1856 59.1714 38.3571ZM44.6124 41.0419H49.7218V40.4871C49.7218 39.0865 48.5812 37.9459 47.171 37.9459C45.7608 37.9459 44.6124 39.0865 44.6124 40.4871V41.0419ZM47.171 47.3076C46.8624 47.3076 46.6124 47.0593 46.6124 46.7528C46.6124 46.4463 46.8624 46.198 47.171 46.198C47.4796 46.198 47.7296 46.4463 47.7296 46.7528C47.7335 47.0593 47.4835 47.3076 47.171 47.3076ZM50.0616 46.7528C50.0616 47.9245 49.3507 48.9371 48.3311 49.3833V50.5666C48.3311 51.2028 47.8116 51.7305 47.1592 51.7305C46.5108 51.7305 45.9873 51.2145 45.9873 50.5666V49.3833C44.9678 48.9371 44.2568 47.9244 44.2568 46.7528C44.2568 45.1621 45.5576 43.8741 47.1552 43.8741C48.7607 43.8702 50.0616 45.1622 50.0616 46.7528Z" fill="white"/>
</svg>
