<svg width="92" height="96" viewBox="0 0 92 96" fill="none" xmlns="http://www.w3.org/2000/svg">
<path d="M79.4268 37.59V53.9736H72.41V49.7752C72.41 48.9078 71.817 48.2002 71.0804 48.2002H47.3572V39.0423C46.9214 39.0636 46.4767 39.0742 46.0275 39.0742C45.5783 39.0742 45.1336 39.0636 44.6979 39.0423V48.2055L20.9793 48.2002C20.2471 48.2002 19.6497 48.9026 19.6497 49.7752V53.9736H12.3814V39.0422C11.9457 39.0635 11.5009 39.0741 11.0518 39.0741C10.6026 39.0741 10.1623 39.0635 9.72664 39.0422V55.5429C9.72664 56.4102 10.3196 57.1179 11.0518 57.1179H19.6498V86.8635H19.4252C18.693 86.8635 18.1001 87.5659 18.1001 88.4385V91.429C18.1001 93.9513 19.834 96 21.9589 96H69.7733C71.9026 96 73.6276 93.946 73.6276 91.429V88.4385C73.6276 87.6137 73.0885 86.9326 72.4057 86.8742L72.4102 57.1176H80.7521C81.4844 57.1176 82.0818 56.4152 82.0818 55.5426L82.0773 37.6047C81.7044 37.6207 81.3271 37.6314 80.9408 37.6314C80.4286 37.6314 79.9209 37.6167 79.4268 37.59ZM22.3089 55.5647V55.5434V55.5221V51.345H69.7553V55.5168V55.5381V55.5594V86.8593L22.3089 86.8646V55.5647ZM57.1859 65.5632H55.2813C55.2274 65.361 55.1645 65.1587 55.1016 64.9672C54.9848 64.6 54.8456 64.2275 54.6883 63.8657L56.036 62.2693C56.5167 61.6999 56.5167 60.774 56.036 60.2047L53.5518 57.2567C53.3227 56.9853 53.0083 56.8257 52.6803 56.8257C52.3524 56.8257 52.038 56.98 51.8044 57.2514L50.4567 58.8478C49.994 58.5711 49.5178 58.3316 49.0282 58.1454V55.8892C49.0282 55.0804 48.4756 54.4313 47.7928 54.4313H44.2755C43.5927 54.4313 43.0402 55.0858 43.0402 55.8892V58.1454C42.5505 58.3316 42.0698 58.5711 41.6116 58.8478L40.264 57.2514C40.0349 56.98 39.7204 56.8257 39.388 56.8257C39.0601 56.8257 38.7456 56.98 38.5165 57.2514L36.0323 60.1994C35.7987 60.4708 35.6684 60.8433 35.6684 61.237C35.6684 61.6255 35.7987 61.9979 36.0323 62.2693L37.38 63.8604C37.1419 64.4085 36.9442 64.9779 36.787 65.5579H34.8869C34.2086 65.5579 33.656 66.2124 33.656 67.0212V71.1824C33.656 71.9912 34.2086 72.6457 34.8869 72.6457H36.7915C36.9487 73.2257 37.1464 73.7951 37.3845 74.3379L36.0368 75.9343C35.5561 76.5036 35.5561 77.4296 36.0368 78.0042L38.521 80.9469C39.0016 81.5162 39.7833 81.5162 40.2684 80.9469L41.6161 79.3505C42.0788 79.6325 42.5549 79.8666 43.0446 80.0529V82.3037C43.0446 83.1125 43.5971 83.767 44.2799 83.767H47.7973C48.4801 83.767 49.0326 83.1125 49.0326 82.3037V80.0529C49.5223 79.8666 50.0029 79.6272 50.4611 79.3505L51.8088 80.9469C52.0379 81.2182 52.3524 81.3779 52.6848 81.3779C53.0127 81.3779 53.3272 81.2236 53.5563 80.9469L56.0405 77.9989C56.5211 77.4295 56.5211 76.5035 56.0405 75.9343L54.6973 74.3379C54.9354 73.7898 55.133 73.2257 55.2902 72.6404H57.1949C57.8732 72.6404 58.4257 71.9859 58.4257 71.1771V67.0159C58.4167 66.2177 57.8642 65.5632 57.1859 65.5632ZM40.8123 69.1071C40.8123 65.6963 43.1482 62.9238 46.0232 62.9238C48.9026 62.9238 51.2431 65.6963 51.2431 69.1071C51.2431 72.5127 48.9026 75.2904 46.0232 75.2904C43.1527 75.2904 40.8123 72.5127 40.8123 69.1071ZM80.9448 31.4537C85.5806 31.4537 89.5428 30.2352 92 28.293V29.602C92 31.64 87.7954 34.4815 80.9448 34.4815C74.0942 34.4815 69.8851 31.64 69.8851 29.602V28.2877C72.3422 30.2405 76.3043 31.4537 80.9448 31.4537ZM80.9448 25.2704C85.5806 25.2704 89.5428 24.0519 92 22.1097V23.4293C92 25.4194 87.692 28.3088 80.9448 28.3088C74.1975 28.3088 69.8851 25.4194 69.8851 23.4293V22.1097C72.3422 24.0519 76.3043 25.2704 80.9448 25.2704ZM80.9448 19.0925C85.5806 19.0925 89.5428 17.8739 92 15.9317V17.246C92 19.2361 87.692 22.1255 80.9448 22.1255C74.1975 22.1255 69.8851 19.2361 69.8851 17.246V15.9317C72.3422 17.874 76.3043 19.0925 80.9448 19.0925ZM80.9448 12.9039C85.5806 12.9039 89.5428 11.6906 92 9.74308V11.0574C92 13.0954 87.7954 15.9422 80.9448 15.9422C74.0942 15.9422 69.8851 13.0954 69.8851 11.0574V9.74308C72.3422 11.6907 76.3043 12.9039 80.9448 12.9039ZM69.8851 4.87951C69.8851 2.84148 74.0943 0 80.9448 0C87.7908 0 92 2.84148 92 4.87951C92 6.86959 87.692 9.75901 80.9448 9.75901C74.1975 9.75901 69.8851 6.86959 69.8851 4.87951ZM0 12.4995V11.1852C2.4527 13.1328 6.41477 14.346 11.0507 14.346C15.6867 14.346 19.6488 13.1274 22.106 11.1852V12.4995C22.106 14.4896 17.798 17.3791 11.0507 17.3791C4.20472 17.3844 0 14.5376 0 12.4995ZM0 18.6775V17.3685C2.4527 19.3108 6.41477 20.5293 11.0507 20.5293C15.6867 20.5293 19.6488 19.3107 22.106 17.3685V18.6775C22.106 20.7156 17.9014 23.5624 11.0507 23.5624C4.20472 23.5624 0 20.7209 0 18.6775ZM0 24.8661V23.5518C2.4527 25.4994 6.41477 26.7126 11.0507 26.7126C15.6867 26.7126 19.6488 25.494 22.106 23.5518V24.8661C22.106 26.8562 17.798 29.7456 11.0507 29.7456C4.20472 29.7456 0 26.9042 0 24.8661ZM11.0507 35.9289C4.20472 35.9289 0 33.0875 0 31.0494V29.7298C2.4527 31.672 6.41477 32.8906 11.0507 32.8906C15.6867 32.8906 19.6488 31.672 22.106 29.7298V31.0494C22.106 33.0395 17.8025 35.9289 11.0507 35.9289ZM0 6.3168C0 4.27876 4.2046 1.43729 11.0507 1.43729C17.798 1.43729 22.106 4.32671 22.106 6.3168C22.106 8.35483 17.9014 11.2016 11.0507 11.2016C4.20472 11.2016 0 8.36014 0 6.3168ZM34.9713 31.0494V29.7298C37.424 31.672 41.3861 32.8906 46.022 32.8906C50.6625 32.8906 54.6245 31.672 57.0817 29.7298V31.0494C57.0817 33.0395 52.7737 35.9289 46.022 35.9289C39.2793 35.9289 34.9713 33.0395 34.9713 31.0494ZM34.9713 24.8661V23.5518C37.424 25.4994 41.3861 26.7126 46.022 26.7126C50.6625 26.7126 54.6245 25.494 57.0817 23.5518V24.8661C57.0817 26.8562 52.7737 29.7456 46.022 29.7456C39.2793 29.7456 34.9713 26.8562 34.9713 24.8661ZM34.9713 18.6775V17.3685C37.424 19.3108 41.3861 20.5293 46.022 20.5293C50.6625 20.5293 54.6245 19.3107 57.0817 17.3685V18.6775C57.0817 20.7156 52.8771 23.5624 46.022 23.5624C39.176 23.5624 34.9713 20.7209 34.9713 18.6775ZM34.9713 12.4995V11.1852C37.424 13.1328 41.3861 14.346 46.022 14.346C50.6625 14.346 54.6245 13.1274 57.0817 11.1852V12.4995C57.0817 14.4896 52.7737 17.3791 46.022 17.3791C39.2793 17.3844 34.9713 14.4896 34.9713 12.4995ZM34.9713 6.31625C34.9713 4.32617 39.2748 1.43674 46.022 1.43674C52.7737 1.43674 57.0817 4.32617 57.0817 6.31625C57.0817 8.35428 52.8771 11.2011 46.022 11.2011C39.176 11.2011 34.9713 8.35959 34.9713 6.31625Z" fill="white"/>
</svg>
