<svg width="105" height="107" viewBox="0 0 105 107" fill="none" xmlns="http://www.w3.org/2000/svg">
<path fill-rule="evenodd" clipRule="evenodd" d="M96.1092 39.8867C97.0266 40.5816 98.1431 40.9918 99.3471 40.9918C102.464 40.9918 105 38.2534 105 34.8874C105 31.5214 102.464 28.7831 99.3471 28.7831C96.23 28.7831 93.6943 31.5214 93.6943 34.8874C93.6943 35.6059 93.8105 36.2957 94.0235 36.9371L89.1522 39.6792C88.5927 39.9936 88.2417 40.6189 88.2417 41.3013V51.643H86.7038V41.3013C86.7038 40.6201 86.3528 39.9949 85.7934 39.6792L80.9221 36.9359C81.1339 36.2945 81.2513 35.6046 81.2513 34.8862C81.2513 31.5202 78.7155 28.7818 75.5984 28.7818C72.4813 28.7818 69.9455 31.5202 69.9455 34.8862C69.9455 38.2522 72.4813 40.9905 75.5984 40.9905C76.8024 40.9905 77.9178 40.5803 78.8363 39.8855L83.3174 42.4088V51.6417H74.9308C73.995 51.6417 73.2376 52.4608 73.2376 53.4702C73.2376 65.8168 63.9358 75.8614 52.5023 75.8614C41.0688 75.8614 31.767 65.8168 31.767 53.4702C31.767 52.4596 31.0085 51.6417 30.0738 51.6417H21.6872V42.4088L26.1683 39.8855C27.0857 40.5803 28.2022 40.9905 29.4062 40.9905C32.5233 40.9905 35.0591 38.2522 35.0591 34.8862C35.0591 31.5202 32.5233 28.7818 29.4062 28.7818C26.2891 28.7818 23.7533 31.5202 23.7533 34.8862C23.7533 35.6046 23.8696 36.2945 24.0825 36.9359L19.2112 39.6792C18.6518 39.9936 18.3008 40.6189 18.3008 41.3013V51.643H16.7595V41.3013C16.7595 40.6201 16.4084 39.9949 15.849 39.6792L10.9777 36.9371C11.1895 36.2957 11.3069 35.6059 11.3069 34.8874C11.3069 31.5214 8.7711 28.7831 5.65402 28.7831C2.53694 28.7831 0 31.5214 0 34.8874C0 38.2534 2.53579 40.9918 5.65287 40.9918C6.85688 40.9918 7.97226 40.5816 8.89081 39.8867L13.3731 42.41V51.6417H4.98641C4.05059 51.6417 3.29319 52.4608 3.29319 53.4702V60.4135C3.29319 61.1705 3.72484 61.8479 4.37864 62.1201L11.4289 65.0499C12.4096 69.1182 13.9037 73.0075 15.8766 76.637L12.8079 84.0975C12.5236 84.7886 12.6628 85.5978 13.1578 86.1335L22.2512 95.9531C22.7473 96.4876 23.4967 96.638 24.1355 96.331L31.0465 93.0159C34.4087 95.1477 38.0093 96.7598 41.7744 97.8189L44.4886 105.435C44.7407 106.141 45.368 106.607 46.069 106.607H58.9298C59.6308 106.607 60.2582 106.141 60.5102 105.435L63.2245 97.8213C66.9907 96.7623 70.5924 95.1489 73.9547 93.0172L80.8633 96.331C81.5033 96.638 82.2527 96.4876 82.7476 95.9531L91.841 86.1335C92.336 85.5978 92.4753 84.7898 92.191 84.0975L89.1211 76.6346C91.0952 73.0038 92.5881 69.1157 93.5688 65.0499L100.621 62.1189C101.275 61.8467 101.707 61.1692 101.707 60.4123V53.4714C101.707 52.4608 100.948 51.643 100.014 51.643H91.6269V42.4113L96.1092 39.8867ZM99.3471 32.44C100.596 32.44 101.614 33.5375 101.614 34.8874C101.614 36.2373 100.597 37.3349 99.3471 37.3349C98.0971 37.3349 97.0807 36.2373 97.0807 34.8874C97.0807 33.5388 98.0971 32.44 99.3471 32.44ZM75.5961 37.3349C74.346 37.3349 73.3296 36.2373 73.3296 34.8874C73.3296 33.5388 74.346 32.44 75.5961 32.44C76.845 32.44 77.8625 33.5375 77.8625 34.8874C77.8614 36.2373 76.845 37.3349 75.5961 37.3349ZM29.4039 32.44C30.654 32.44 31.6704 33.5375 31.6704 34.8874C31.6704 36.2373 30.654 37.3349 29.4039 37.3349C28.1539 37.3349 27.1375 36.2373 27.1375 34.8874C27.1375 33.5388 28.155 32.44 29.4039 32.44ZM5.65287 37.3349C4.40397 37.3349 3.38643 36.2373 3.38643 34.8874C3.38643 33.5388 4.40282 32.44 5.65287 32.44C6.90293 32.44 7.91932 33.5375 7.91932 34.8874C7.91932 36.2373 6.90293 37.3349 5.65287 37.3349ZM98.3204 59.1593L91.5314 61.9809C91.01 62.1972 90.6209 62.6782 90.492 63.2649C89.5355 67.6067 87.9481 71.7396 85.7749 75.5519C85.4826 76.0653 85.4423 76.7017 85.669 77.2536L88.6238 84.438L81.1741 92.4827L74.5233 89.2932C74.0134 89.0483 73.4229 89.0906 72.9475 89.4075C69.4183 91.7543 65.5899 93.4684 61.5669 94.5026C61.0236 94.6418 60.5793 95.0619 60.379 95.625L57.7661 102.954H47.2316L44.6187 95.6225C44.4184 95.0594 43.9729 94.6405 43.4308 94.5001C39.4101 93.4671 35.5817 91.7531 32.0525 89.4063C31.5771 89.0906 30.9878 89.0471 30.4767 89.2919L23.8236 92.4827L16.3739 84.438L19.3275 77.2561C19.5543 76.7054 19.5151 76.0677 19.2216 75.5544C17.0484 71.7446 15.4611 67.6092 14.5034 63.2649C14.3745 62.6782 13.9854 62.1984 13.464 61.9809L6.67732 59.1606V55.3011H28.4347C29.3084 68.8136 39.7681 79.5195 52.5 79.5195C65.2319 79.5195 75.6916 68.8136 76.563 55.2998H98.3204V59.1593ZM32.7052 25.3251C35.2329 25.3251 37.3773 23.524 38.099 21.0492H42.404V37.8047H41.5062C39.5678 37.8047 37.992 39.5076 37.992 41.5996V65.342C37.992 67.4352 39.569 69.1368 41.5062 69.1368H63.4927C65.431 69.1368 67.0069 67.4339 67.0069 65.342V41.5996C67.0069 39.5064 65.4299 37.8047 63.4927 37.8047H62.5948V21.0492H66.8998C67.6215 23.5252 69.7659 25.3251 72.2937 25.3251C75.4108 25.3251 77.9466 22.5868 77.9466 19.2208C77.9466 15.8547 75.4108 13.1164 72.2937 13.1164C69.7659 13.1164 67.6215 14.9163 66.8998 17.3923H60.9005C59.9646 17.3923 59.2072 18.2114 59.2072 19.2208V37.8047H54.1921V12.2625C56.485 11.4831 58.1517 9.16744 58.1517 6.43783C58.1517 3.07181 55.6159 0.333496 52.4988 0.333496C49.3818 0.333496 46.846 3.07181 46.846 6.43783C46.846 9.16744 48.5127 11.4831 50.8056 12.2625V37.8047H45.7905V19.2208C45.7905 18.2102 45.0319 17.3923 44.0972 17.3923H38.0979C37.3762 14.9175 35.2317 13.1164 32.704 13.1164C29.5869 13.1164 27.0511 15.8547 27.0511 19.2208C27.0511 22.5868 29.5881 25.3251 32.7052 25.3251ZM72.2948 16.7733C73.5437 16.7733 74.5613 17.8709 74.5613 19.2208C74.5613 20.5694 73.5449 21.6682 72.2948 21.6682C71.0448 21.6682 70.0284 20.5706 70.0284 19.2208C70.0284 17.8709 71.0448 16.7733 72.2948 16.7733ZM52.5 3.99162C53.7489 3.99162 54.7664 5.08918 54.7664 6.43907C54.7664 7.78896 53.7489 8.88528 52.5 8.88528C51.2511 8.88528 50.2336 7.78772 50.2336 6.43783C50.2336 5.08794 51.2511 3.99162 52.5 3.99162ZM63.6204 41.5996V65.342C63.6204 65.4141 63.5594 65.4799 63.4927 65.4799H41.5062C41.4394 65.4799 41.3784 65.4141 41.3784 65.342V41.5996C41.3784 41.5275 41.4394 41.4616 41.5062 41.4616H63.4927C63.5606 41.4629 63.6204 41.5275 63.6204 41.5996ZM32.7052 16.7733C33.9541 16.7733 34.9716 17.8709 34.9716 19.2208C34.9716 20.5694 33.9552 21.6682 32.7052 21.6682C31.4563 21.6682 30.4387 20.5706 30.4387 19.2208C30.4399 17.8709 31.4563 16.7733 32.7052 16.7733ZM46.8379 61.4141H58.1609C59.0967 61.4141 59.8541 60.595 59.8541 59.5857V47.3584C59.8541 46.3478 59.0956 45.5299 58.1609 45.5299H46.8379C45.9021 45.5299 45.1447 46.3491 45.1447 47.3584V59.5857C45.1447 60.595 45.9033 61.4141 46.8379 61.4141ZM48.5323 49.1868H56.4689V57.7572H48.5323V49.1868ZM54.6778 53.4714C54.6778 54.7666 53.6994 55.8231 52.5 55.8231C51.3006 55.8231 50.3222 54.7666 50.3222 53.4714C50.3222 52.1762 51.3006 51.1197 52.5 51.1197C53.6994 51.1197 54.6778 52.1762 54.6778 53.4714Z" fill="white"/>
</svg>
