<svg width="111" height="110" viewBox="0 0 111 110" fill="none" xmlns="http://www.w3.org/2000/svg">
<path d="M6.98161 16.1548C6.98161 15.3816 7.59874 14.7533 8.35811 14.7533H12.5014C13.2607 14.7533 13.8779 15.3816 13.8779 16.1548C13.8779 16.9279 13.2607 17.5563 12.5014 17.5563H8.35811C7.59874 17.5563 6.98161 16.9279 6.98161 16.1548ZM27.1955 22.0481H8.35811C7.59874 22.0481 6.98161 22.6765 6.98161 23.4496C6.98161 24.2228 7.59874 24.8511 8.35811 24.8511H27.1932C27.9525 24.8511 28.5697 24.2228 28.5697 23.4496C28.5697 22.6765 27.9548 22.0481 27.1955 22.0481ZM27.1955 29.3453H8.35811C7.59874 29.3453 6.98161 29.9737 6.98161 30.7468C6.98161 31.52 7.59874 32.1483 8.35811 32.1483H27.1932C27.9525 32.1483 28.5697 31.52 28.5697 30.7468C28.5697 29.9737 27.9548 29.3453 27.1955 29.3453ZM110.701 14.2277V37.8735C110.701 40.9382 108.25 43.4329 105.241 43.4329H94.4236V43.6244C94.4236 48.5951 90.4501 52.6408 85.5681 52.6408H80.7848C77.4193 52.6408 74.6823 55.4275 74.6823 58.8542V62.9442L79.3441 58.5809C79.9038 58.0553 80.7756 58.095 81.2895 58.6649C81.8034 59.2349 81.7667 60.1225 81.2069 60.6458L74.2373 67.1698C73.9734 67.4174 73.6408 67.5389 73.3058 67.5389C72.9709 67.5389 72.6382 67.4151 72.3744 67.1698L65.4047 60.6458C64.8449 60.1225 64.8082 59.2349 65.3221 58.6649C65.836 58.095 66.7078 58.0576 67.2676 58.5809L71.9293 62.9442V58.8565C71.9293 53.8858 75.9028 49.8401 80.7848 49.8401H85.5681C88.9336 49.8401 91.6706 47.0534 91.6706 43.6267V43.4352H80.8536C77.8437 43.4352 75.3935 40.9405 75.3935 37.8759V5.73919C75.3935 2.67455 77.8437 0.17986 80.8536 0.17986H96.4149V0.182196C96.7636 0.182196 97.1077 0.31534 97.3693 0.569948L110.279 13.2186C110.554 13.4872 110.696 13.8539 110.696 14.2277H110.701ZM97.7914 9.60736C97.7914 11.3826 99.2092 12.8262 100.953 12.8262H105.908L97.7914 4.87259V9.60736ZM107.948 15.6292H100.953C97.6928 15.6292 95.0384 12.9266 95.0384 9.60736V2.98055H80.8536C79.3601 2.98055 78.1465 4.21621 78.1465 5.73686V37.8712C78.1465 39.3918 79.3601 40.6275 80.8536 40.6275H105.241C106.734 40.6275 107.948 39.3918 107.948 37.8712V15.6292ZM102.281 24.5919C102.281 29.7775 98.1378 33.9937 93.0471 33.9937C87.9563 33.9937 83.8131 29.7751 83.8131 24.5919C83.8131 19.4086 87.9563 15.1901 93.0471 15.1901C98.1378 15.1901 102.281 19.4063 102.281 24.5919ZM86.7129 23.1904H91.6683V18.1426C89.1975 18.6892 87.2497 20.6746 86.7129 23.1904ZM99.5281 24.5919C99.5281 21.4338 97.3372 18.7873 94.4236 18.1449V24.5942C94.4236 25.3674 93.8064 25.9957 93.0471 25.9957H86.7152C87.3484 28.9646 89.9477 31.193 93.0471 31.193C96.6191 31.1906 99.5281 28.2311 99.5281 24.5919ZM16.4014 43.4329H5.58217C2.57223 43.4329 0.12207 40.9382 0.12207 37.8735V5.73919C0.12207 2.67455 2.57223 0.17986 5.58217 0.17986H21.1435V0.182196C21.4922 0.182196 21.8363 0.31534 22.0978 0.569948L35.0071 13.2186C35.2824 13.4872 35.4246 13.8539 35.4246 14.2277H35.4292V37.8735C35.4292 40.9382 32.979 43.4329 29.9691 43.4329H19.1544V43.6244C19.1544 47.0511 21.8914 49.8378 25.2569 49.8378H30.0402C34.9222 49.8378 38.8957 53.8835 38.8957 58.8542V62.9442L43.5574 58.5809C44.1172 58.0553 44.989 58.095 45.5029 58.6649C46.0168 59.2349 45.9801 60.1225 45.4203 60.6458L38.4506 67.1698C38.1868 67.4174 37.8541 67.5389 37.5192 67.5389C37.1842 67.5389 36.8516 67.4151 36.5878 67.1698L29.6181 60.6458C29.0583 60.1225 29.0216 59.2349 29.5355 58.6649C30.0494 58.095 30.9212 58.0576 31.481 58.5809L36.1427 62.9442V58.8565C36.1427 55.4298 33.4058 52.6431 30.0402 52.6431H25.2569C20.3749 52.6431 16.4014 48.5974 16.4014 43.6267V43.4329ZM22.5223 9.60736C22.5223 11.3826 23.9401 12.8262 25.6836 12.8262H30.639L22.5223 4.87259V9.60736ZM29.9714 40.6298C31.4649 40.6298 32.6785 39.3942 32.6785 37.8735V15.6292H25.6836C22.4236 15.6292 19.7693 12.9266 19.7693 9.60736V2.98055H5.58217C4.08868 2.98055 2.87506 4.21621 2.87506 5.73686V37.8712C2.87506 39.3918 4.08868 40.6275 5.58217 40.6275H29.9714V40.6298ZM48.1733 10.7169C47.4139 10.7169 46.7968 11.3452 46.7968 12.1184V26.9114C46.7968 27.6845 47.4139 28.3129 48.1733 28.3129C48.9326 28.3129 49.5498 27.6845 49.5498 26.9114V12.1184C49.5498 11.3429 48.9326 10.7169 48.1733 10.7169ZM55.4114 18.3575C54.652 18.3575 54.0349 18.9858 54.0349 19.759V26.9114C54.0349 27.6845 54.652 28.3129 55.4114 28.3129C56.1707 28.3129 56.7879 27.6845 56.7879 26.9114V19.759C56.7879 18.9835 56.1707 18.3575 55.4114 18.3575ZM62.6494 21.8239C61.8901 21.8239 61.2729 22.4522 61.2729 23.2254V26.9114C61.2729 27.6845 61.8901 28.3129 62.6494 28.3129C63.4088 28.3129 64.0259 27.6845 64.0259 26.9114V23.2254C64.0259 22.4522 63.4088 21.8239 62.6494 21.8239ZM100.331 80.7247V95.6625C100.331 96.2862 99.9273 96.8328 99.34 97.008L55.7968 109.946C55.7601 109.958 55.7234 109.963 55.6867 109.97C55.6637 109.974 55.6408 109.981 55.6178 109.984C55.549 109.995 55.4802 110 55.4114 110C55.3425 110 55.2737 109.993 55.2049 109.984C55.1819 109.979 55.159 109.974 55.1361 109.97C55.0994 109.963 55.0626 109.956 55.0259 109.946L11.4828 97.008C10.8955 96.8328 10.4917 96.2862 10.4917 95.6625V80.7247C10.4917 80.2833 10.6959 79.8675 11.0423 79.6035C11.1776 79.5008 11.329 79.426 11.4873 79.3793L54.0349 66.9269V43.2553H43.2179C40.208 43.2553 37.7578 40.7606 37.7578 37.696V5.55933C37.7578 2.49469 40.208 0 43.2179 0H58.7792V0.00233591C59.1279 0.00233591 59.472 0.135479 59.7336 0.390087L72.6428 13.0387C72.9181 13.3074 73.0603 13.6741 73.0603 14.0478H73.0649V37.6937C73.0649 40.7583 70.6148 43.253 67.6048 43.253H56.7879V66.9245L99.3354 79.377C99.4937 79.4237 99.6451 79.4984 99.7804 79.6012C100.127 79.8698 100.331 80.2856 100.331 80.7247ZM60.1557 9.42984C60.1557 11.2051 61.5735 12.6486 63.317 12.6486H68.2724L60.1557 4.69507V9.42984ZM67.6048 40.4523C69.0983 40.4523 70.3119 39.2166 70.3119 37.696V15.4517H63.317C60.057 15.4517 57.4027 12.7514 57.4027 9.42984V2.80302H43.2179C41.7244 2.80302 40.5108 4.03869 40.5108 5.55933V37.6937C40.5108 39.2143 41.7244 40.45 43.2179 40.45H67.6048V40.4523ZM54.0349 94.7165L13.2447 82.5934V94.6114L54.0349 106.734V94.7165ZM94.0083 80.7364L56.7879 69.842V80.7902L61.4496 76.4268C62.0094 75.9035 62.8811 75.9409 63.395 76.5109C63.9089 77.0808 63.8722 77.9684 63.3125 78.4917L56.3428 85.0157C56.079 85.2633 55.7463 85.3848 55.4114 85.3848C55.0764 85.3848 54.7438 85.261 54.4799 85.0157L47.5103 78.4917C46.9505 77.9684 46.9138 77.0808 47.4277 76.5109C47.9416 75.9409 48.8134 75.9035 49.3731 76.4268L54.0349 80.7902V69.842L16.8167 80.7364L55.4114 92.2055L94.0083 80.7364ZM97.578 82.5934L56.7879 94.7165V106.734L97.578 94.6137V82.5934Z" fill="white"/>
</svg>
