<svg width="92" height="94" viewBox="0 0 92 94" fill="none" xmlns="http://www.w3.org/2000/svg">
<path fill-rule="evenodd" clipRule="evenodd" d="M32.077 32.9375C32.077 29.4844 34.8217 26.6875 38.2104 26.6875V25.125C38.2104 24.2617 38.8965 23.5625 39.7437 23.5625C40.5909 23.5625 41.277 24.2617 41.277 25.125V26.6875H44.3437V23.5625C44.3437 22.6992 45.0298 22 45.877 22C46.7242 22 47.4103 22.6992 47.4103 23.5625V26.6875H50.477V25.125C50.477 24.2617 51.1632 23.5625 52.0103 23.5625C52.8575 23.5625 53.5437 24.2617 53.5437 25.125V26.6875C56.9323 26.6875 59.677 29.4844 59.677 32.9375H61.2103C62.0575 32.9375 62.7436 33.6367 62.7436 34.5C62.7436 35.3633 62.0575 36.0625 61.2103 36.0625H59.677V39.1875H62.7436C63.5908 39.1875 64.277 39.8867 64.277 40.75C64.277 41.6133 63.5908 42.3125 62.7436 42.3125H59.677V45.4375H61.2103C62.0575 45.4375 62.7436 46.1367 62.7436 47C62.7436 47.8633 62.0575 48.5625 61.2103 48.5625H59.677C59.677 52.0156 56.9323 54.8125 53.5437 54.8125V56.375C53.5437 57.2383 52.8575 57.9375 52.0103 57.9375C51.1632 57.9375 50.477 57.2383 50.477 56.375V54.8125H47.4103V57.9375C47.4103 58.8008 46.7242 59.5 45.877 59.5C45.0298 59.5 44.3437 58.8008 44.3437 57.9375V54.8125H41.277V56.375C41.277 57.2383 40.5909 57.9375 39.7437 57.9375C38.8965 57.9375 38.2104 57.2383 38.2104 56.375V54.8125C34.8217 54.8125 32.077 52.0156 32.077 48.5625H30.5437C29.6965 48.5625 29.0104 47.8633 29.0104 47C29.0104 46.1367 29.6965 45.4375 30.5437 45.4375H32.077V42.3125H29.0104C28.1632 42.3125 27.4771 41.6133 27.4771 40.75C27.4771 39.8867 28.1632 39.1875 29.0104 39.1875H32.077V36.0625H30.5437C29.6965 36.0625 29.0104 35.3633 29.0104 34.5C29.0104 33.6367 29.6965 32.9375 30.5437 32.9375H32.077ZM38.2104 29.8125H53.5437C55.238 29.8125 56.6103 31.2109 56.6103 32.9375V48.5625C56.6103 50.2891 55.238 51.6875 53.5437 51.6875H38.2104C36.516 51.6875 35.1437 50.2891 35.1437 48.5625V32.9375C35.1437 31.2109 36.516 29.8125 38.2104 29.8125Z" fill="white"/>
<path fill-rule="evenodd" clipRule="evenodd" d="M16.8669 57.5972H10.8524C9.03537 57.5972 7.38713 58.687 6.6472 60.3824L5.12536 63.8785C4.95286 63.859 4.77652 63.8472 4.60019 63.8472C2.05874 63.8472 0.000196299 65.9449 0.000196299 68.5347C0.000196299 71.1245 2.05874 73.2222 4.60019 73.2222C7.14164 73.2222 9.20018 71.1245 9.20018 68.5347C9.20018 67.2535 8.69801 66.0972 7.88146 65.2495L9.44934 61.6518C9.69851 61.0854 10.2467 60.7221 10.8523 60.7221H16.8668V66.9721C16.8668 69.5619 18.9254 71.6596 21.4668 71.6596H23.0001V78.1752C21.2138 78.8198 19.9335 80.558 19.9335 82.5971C19.9335 85.1869 21.992 87.2846 24.5335 87.2846C27.0749 87.2846 29.1335 85.1869 29.1335 82.5971C29.1335 80.558 27.8531 78.8198 26.0668 78.1752V71.6596H33.7335V76.3471C33.7335 77.2104 34.4196 77.9096 35.2668 77.9096C36.1139 77.9096 36.8001 77.2104 36.8001 76.3471V71.6596H44.4668V84.4256C42.6804 85.0702 41.4001 86.8084 41.4001 88.8475C41.4001 91.4373 43.4586 93.535 46.0001 93.535C48.5415 93.535 50.6001 91.4373 50.6001 88.8475C50.6001 86.8084 49.3197 85.0702 47.5334 84.4256V71.6596H55.2001V76.3471C55.2001 77.2104 55.8862 77.9096 56.7334 77.9096C57.5806 77.9096 58.2667 77.2104 58.2667 76.3471V71.6596H65.9334V78.1752C64.1471 78.8198 62.8667 80.558 62.8667 82.5971C62.8667 85.1869 64.9253 87.2846 67.4667 87.2846C70.0082 87.2846 72.0667 85.1869 72.0667 82.5971C72.0667 80.558 70.7864 78.8198 69.0001 78.1752V71.6596H70.5334C73.0748 71.6596 75.1334 69.5619 75.1334 66.9721V60.7221H81.1479C81.7535 60.7221 82.3017 61.0854 82.5508 61.6518L84.1187 65.2495C83.3022 66.0972 82.8 67.2534 82.8 68.5347C82.8 71.1245 84.8586 73.2222 87.4 73.2222C89.9415 73.2222 92 71.1245 92 68.5347C92 65.9449 89.9415 63.8472 87.4 63.8472C87.2237 63.8472 87.0473 63.859 86.8748 63.8785L85.353 60.3824C84.6132 58.6871 82.9648 57.5972 81.1478 57.5972H75.1333V51.3472H79.9939C80.6264 53.1675 82.3323 54.4722 84.3333 54.4722C86.8747 54.4722 88.9333 52.3745 88.9333 49.7847C88.9333 47.1949 86.8747 45.0972 84.3333 45.0972C82.3323 45.0972 80.6265 46.4019 79.9939 48.2222H75.1333V41.9722H81.1478C82.9648 41.9722 84.6131 40.8824 85.353 39.187L86.8748 35.6909C87.0473 35.7104 87.2237 35.7221 87.4 35.7221C89.9415 35.7221 92 33.6244 92 31.0346C92 28.4448 89.9415 26.3471 87.4 26.3471C84.8586 26.3471 82.8 28.4448 82.8 31.0346C82.8 32.3158 83.3022 33.4721 84.1187 34.3198L82.5508 37.9175C82.3017 38.4839 81.7535 38.8472 81.1479 38.8472H75.1334V26.0032L77.5292 27.3352C79.7601 28.5774 82.5547 27.7376 83.7737 25.468C84.9889 23.1946 84.1647 20.3469 81.9375 19.1086L48.9363 0.764625C47.1078 -0.254875 44.8922 -0.254875 43.0637 0.764625L10.0625 19.1086C7.83534 20.3469 7.01112 23.1945 8.23013 25.468C9.44531 27.7375 12.2398 28.5774 14.4708 27.3352L16.8666 26.0032V38.8472H10.8521C10.2465 38.8472 9.6983 38.4839 9.44914 37.9175L7.88127 34.3198C8.69776 33.4722 9.19998 32.3159 9.19998 31.0346C9.19998 28.4448 7.14144 26.3471 4.59999 26.3471C2.05854 26.3471 0 28.4448 0 31.0346C0 33.6244 2.05854 35.7221 4.59999 35.7221C4.77633 35.7221 4.95266 35.7104 5.12516 35.6909L6.64701 39.187C7.38684 40.8823 9.03518 41.9722 10.8522 41.9722H16.8667V48.2222H12.0061C11.3736 46.4019 9.66774 45.0972 7.66671 45.0972C5.12526 45.0972 3.06672 47.1949 3.06672 49.7847C3.06672 52.3745 5.12526 54.4722 7.66671 54.4722C9.66774 54.4722 11.3735 53.1675 12.0061 51.3472H16.8667L16.8669 57.5972ZM46.0006 6.25318L78.9979 24.5932C79.7416 25.0072 80.673 24.726 81.0794 23.9721C81.4857 23.2143 81.2136 22.2651 80.4699 21.851L47.4687 3.50699C46.5526 2.99918 45.4486 2.99918 44.5324 3.50699L11.5312 21.851C10.7914 22.2651 10.5153 23.2143 10.9217 23.9721C11.328 24.726 12.2596 25.0073 13.0032 24.5932L46.0006 6.25318ZM72.0668 24.3002L46.0006 9.81218L19.9345 24.3002V66.9722C19.9345 67.8355 20.6207 68.5347 21.4679 68.5347H70.5344C71.3816 68.5347 72.0677 67.8355 72.0677 66.9722L72.0668 24.3002ZM9.20073 49.7842C9.20073 48.9209 8.51456 48.2217 7.6674 48.2217C6.82023 48.2217 6.13407 48.9209 6.13407 49.7842C6.13407 50.6475 6.82023 51.3467 7.6674 51.3467C8.51456 51.3467 9.20073 50.6475 9.20073 49.7842ZM82.8006 49.7842C82.8006 50.6475 83.4867 51.3467 84.3339 51.3467C85.1811 51.3467 85.8672 50.6475 85.8672 49.7842C85.8672 48.9209 85.1811 48.2217 84.3339 48.2217C83.4867 48.2217 82.8006 48.9209 82.8006 49.7842ZM46.0006 87.2842C45.1535 87.2842 44.4673 87.9834 44.4673 88.8467C44.4673 89.71 45.1535 90.4092 46.0006 90.4092C46.8478 90.4092 47.534 89.71 47.534 88.8467C47.534 87.9834 46.8478 87.2842 46.0006 87.2842ZM67.4673 81.0342C66.6201 81.0342 65.9339 81.7334 65.9339 82.5967C65.9339 83.46 66.6201 84.1592 67.4673 84.1592C68.3144 84.1592 69.0006 83.46 69.0006 82.5967C69.0006 81.7334 68.3144 81.0342 67.4673 81.0342ZM23.0012 82.5967C23.0012 81.7334 23.6874 81.0342 24.5345 81.0342C25.3817 81.0342 26.0678 81.7334 26.0678 82.5967C26.0678 83.46 25.3817 84.1592 24.5345 84.1592C23.6874 84.1592 23.0012 83.46 23.0012 82.5967ZM88.9349 31.0347C88.9349 31.898 88.2487 32.5972 87.4015 32.5972C86.5544 32.5972 85.8682 31.898 85.8682 31.0347C85.8682 30.1714 86.5544 29.4722 87.4015 29.4722C88.2487 29.4722 88.9349 30.1714 88.9349 31.0347ZM88.9349 68.5347C88.9349 67.6714 88.2487 66.9722 87.4015 66.9722C86.5544 66.9722 85.8682 67.6714 85.8682 68.5347C85.8682 69.398 86.5544 70.0972 87.4015 70.0972C88.2487 70.0972 88.9349 69.398 88.9349 68.5347ZM3.06839 31.0347C3.06839 31.898 3.75455 32.5972 4.60172 32.5972C5.44888 32.5972 6.13505 31.898 6.13505 31.0347C6.13505 30.1714 5.44888 29.4722 4.60172 29.4722C3.75455 29.4722 3.06839 30.1714 3.06839 31.0347ZM3.06839 68.5347C3.06839 67.6714 3.75455 66.9722 4.60172 66.9722C5.44888 66.9722 6.13505 67.6714 6.13505 68.5347C6.13505 69.398 5.44888 70.0972 4.60172 70.0972C3.75455 70.0972 3.06839 69.398 3.06839 68.5347Z" fill="white"/>
</svg>
