<svg width="78" height="103" viewBox="0 0 78 103" fill="none" xmlns="http://www.w3.org/2000/svg">
<path d="M77.4099 62.435C77.4099 58.0443 73.8133 54.4722 69.3926 54.4722C64.9719 54.4722 61.3754 58.0443 61.3754 62.435C61.3754 66.1196 63.9207 69.1982 67.3478 70.1025C67.1725 74.9191 65.9385 78.3874 63.6475 80.3854C62.7865 81.1356 61.8751 81.5792 61.0268 81.8609C61.8609 77.3738 61.5515 73.2676 60.4414 70.7145C59.8527 69.362 56.5701 64.9587 38.5342 65.1662C20.6122 64.9577 17.2177 69.362 16.629 70.7145C15.5288 73.2422 15.2141 77.2941 16.0173 81.7304C15.2746 81.4432 14.4994 81.0279 13.7624 80.3854C11.4713 78.3874 10.2374 74.92 10.062 70.1025C13.4891 69.1982 16.0345 66.1196 16.0345 62.435C16.0345 58.0443 12.4379 54.4722 8.01725 54.4722C3.59658 54.4722 0 58.0443 0 62.435C0 66.1473 2.58228 69.2485 6.04875 70.126C6.25256 76.1912 7.96281 80.6816 11.1782 83.4431C13.2086 85.186 15.4267 85.8747 17.1635 86.1348C18.4579 89.8839 20.5871 93.6478 23.7653 96.8041C24.0184 97.0554 30.048 102.976 38.5342 102.976C47.097 102.976 53.0638 97.0476 53.3012 96.807C56.4639 93.6654 58.5897 89.9222 59.8865 86.191C61.6673 85.9741 64.0624 85.3054 66.2316 83.4431C69.4471 80.6816 71.1573 76.1912 71.3611 70.126C74.8276 69.2485 77.4099 66.1473 77.4099 62.435ZM4.01844 62.435C4.01844 60.9752 4.82389 59.711 6.00804 59.0208V63.2077H10.0265V59.0208C11.2107 59.7109 12.0161 60.9751 12.0161 62.435C12.0161 64.6254 10.2227 66.4066 8.01725 66.4066C5.81182 66.4066 4.01844 64.6254 4.01844 62.435ZM38.5107 69.1574H38.5578C41.2962 69.1326 44.0287 69.2605 46.5142 69.5012C45.9685 73.4096 42.6172 76.4391 38.5342 76.4391C34.4509 76.4391 31.0986 73.4066 30.5556 69.4951C32.7932 69.2787 35.2264 69.1525 37.6925 69.1525C37.9652 69.1525 38.2379 69.1544 38.5107 69.1574ZM20.3178 72.2969C20.7013 71.4155 23.1231 70.599 26.5483 70.018C27.2576 75.23 31.3311 79.3835 36.525 80.2504V98.8303C30.7744 98.0168 26.6562 94.0297 26.6104 93.9851C19.3996 86.8242 18.6814 76.06 20.3178 72.2969ZM50.4522 93.9929C50.4063 94.0385 46.335 98.0251 40.5434 98.8325V80.2504C45.7355 79.3838 49.8092 75.2331 50.5211 70.0241C53.9487 70.6025 56.3691 71.4154 56.7526 72.2969C58.387 76.06 57.6689 86.8252 50.4522 93.9929ZM69.3926 66.4066C67.1872 66.4066 65.3938 64.6254 65.3938 62.435C65.3938 60.9752 66.1992 59.711 67.3834 59.0208V63.2077H71.4018V59.0208C72.5861 59.7109 73.3914 60.9751 73.3914 62.435C73.3914 64.6254 71.598 66.4066 69.3926 66.4066Z" fill="white"/>
<path d="M45.123 40.0839C48.0329 40.0839 50.3992 42.4342 50.3992 45.3233H54.4176C54.4176 43.9759 54.1098 42.7042 53.585 41.5491C55.0834 40.9784 56.4274 40.0336 57.4707 38.7578L54.3509 36.2419C53.473 37.3153 52.2179 37.9579 50.8545 38.1127C49.2703 36.8677 47.2956 36.0928 45.123 36.0928V40.0839Z" fill="white"/>
<path d="M50.3992 21.7032H54.4176C54.4176 16.6139 50.2481 12.4727 45.123 12.4727V16.4638C48.0329 16.4638 50.3992 18.8141 50.3992 21.7032Z" fill="white"/>
<path d="M12.933 45.0983C12.717 45.8872 12.5985 46.7025 12.5985 47.5237C12.5985 52.613 16.768 56.7542 21.8931 56.7542C22.0662 56.7542 22.2309 56.7084 22.4027 56.6989C23.6433 60.3863 27.1019 62.9806 31.1877 62.9806C34.1542 62.9806 36.77 61.5678 38.473 59.4121C40.1761 61.5678 42.7919 62.9806 45.7584 62.9806C49.8442 62.9806 53.3028 60.3863 54.5434 56.6989C54.7152 56.7084 54.8799 56.7542 55.053 56.7542C60.1761 56.7542 64.3457 52.613 64.3457 47.5237C64.3457 46.7017 64.2274 45.8866 64.0121 45.0986C66.8422 43.5144 68.7801 40.5363 68.7801 37.0869C68.7801 34.9923 68.0753 33.0071 66.8064 31.4009C68.0249 29.8393 68.7801 27.905 68.7801 25.7809C68.7801 22.1403 66.6285 19.0147 63.5378 17.5133C63.7135 16.7981 63.8061 16.0621 63.8061 15.3237C63.8061 10.2344 59.6366 6.09317 54.5115 6.09317C54.4613 6.09317 54.4128 6.1051 54.3627 6.10596C52.971 2.67533 49.6089 0.32666 45.7584 0.32666C42.7919 0.32666 40.1761 1.73954 38.473 3.89516C36.77 1.73954 34.1542 0.32666 31.1877 0.32666C27.3387 0.32666 23.975 2.67484 22.5819 6.10583C22.5323 6.1051 22.4842 6.09317 22.4346 6.09317C17.3095 6.09317 13.14 10.2344 13.14 15.3237C13.14 16.062 13.2326 16.7978 13.4083 17.5129C10.318 19.0142 8.16602 22.1401 8.16602 25.7809C8.16602 27.905 8.92119 29.8394 10.1395 31.401C8.87066 33.0071 8.16602 34.9923 8.16602 37.0869C8.16602 40.5362 10.1037 43.5141 12.933 45.0983ZM45.7584 4.31781C47.7443 4.31781 49.4959 5.42156 50.3943 7.08145C49.7606 7.39302 49.1486 7.74953 48.5976 8.2008L51.1562 11.2799C52.1098 10.4975 53.2714 10.0843 54.5115 10.0843C57.4213 10.0843 59.7876 12.4346 59.7876 15.3237C59.7876 15.7489 59.7352 16.1634 59.6366 16.5657C59.585 16.5648 59.5372 16.5504 59.4855 16.5504V16.9725C59.3937 17.2443 59.3118 17.5192 59.1735 17.7772L59.4855 17.9421V20.5416C62.3953 20.5416 64.7616 22.8918 64.7616 25.7809C64.7616 28.67 62.3953 31.0213 59.4855 31.0213C56.5776 31.0213 54.2113 28.67 54.2113 25.7809H50.1928C50.1928 30.8712 54.3624 35.0124 59.4855 35.0124C61.0113 35.0124 62.431 34.6105 63.7026 33.9605C64.3766 34.8555 64.7616 35.9387 64.7616 37.0869C64.7616 39.976 62.3953 42.3263 59.4855 42.3263V46.3174C59.7186 46.3174 59.9374 46.2659 60.1662 46.2491C60.2703 46.6643 60.3272 47.0923 60.3272 47.5237C60.3272 50.4128 57.9609 52.7631 55.053 52.7631C53.4951 52.7631 52.0255 52.0849 51.0189 50.902L47.9501 53.4783C48.7146 54.3777 49.6529 55.0737 50.6695 55.6171C49.9109 57.6045 48.0057 58.9895 45.7584 58.9895C42.8486 58.9895 40.4823 56.6392 40.4823 53.7501V28.6476C41.9832 29.681 43.7979 30.2944 45.7584 30.2944V26.3032C42.8486 26.3032 40.4823 23.953 40.4823 21.0639V9.55716C40.4823 6.66806 42.8486 4.31781 45.7584 4.31781ZM17.4587 20.5416V17.9431L17.7726 17.7772C17.6334 17.5175 17.5507 17.241 17.4587 16.9674V16.5504C17.4075 16.5504 17.3603 16.5646 17.3094 16.5654C17.2109 16.1631 17.1585 15.7488 17.1585 15.3237C17.1585 12.4346 19.5248 10.0843 22.4346 10.0843C23.6747 10.0843 24.8363 10.4975 25.7898 11.2799L28.3485 8.2008C27.7972 7.7494 27.1852 7.39265 26.5512 7.08109C27.4505 5.42107 29.202 4.31781 31.1877 4.31781C34.0975 4.31781 36.4638 6.66806 36.4638 9.55716V21.0639C36.4638 23.953 34.0975 26.3032 31.1877 26.3032V30.2944C33.1482 30.2944 34.9629 29.681 36.4638 28.6476V53.7501C36.4638 56.6392 34.0975 58.9895 31.1877 58.9895C28.9403 58.9895 27.0351 57.6043 26.2766 55.6167C27.2928 55.0735 28.2309 54.3775 28.996 53.4783L25.9272 50.902C24.9206 52.0849 23.451 52.7631 21.8931 52.7631C18.9832 52.7631 16.6169 50.4128 16.6169 47.5237C16.6169 47.0928 16.6737 46.6647 16.7783 46.2491C17.007 46.2659 17.2257 46.3174 17.4587 46.3174V42.3263C14.5508 42.3263 12.1845 39.976 12.1845 37.0869C12.1845 35.9388 12.5695 34.8558 13.2434 33.9608C14.5146 34.6105 15.9336 35.0124 17.4587 35.0124C22.5837 35.0124 26.7533 30.8712 26.7533 25.7809H22.7348C22.7348 28.67 20.3685 31.0213 17.4587 31.0213C14.5508 31.0213 12.1845 28.67 12.1845 25.7809C12.1845 22.8918 14.5508 20.5416 17.4587 20.5416Z" fill="white"/>
<path d="M31.823 16.4638V12.4727C26.698 12.4727 22.5284 16.6139 22.5284 21.7032H26.5469C26.5469 18.8141 28.9132 16.4638 31.823 16.4638Z" fill="white"/>
<path d="M22.5954 36.2419L19.4756 38.7578C20.5189 40.0336 21.8629 40.9784 23.3615 41.5491C22.8367 42.7042 22.5287 43.9759 22.5287 45.3233H26.5471C26.5471 42.4342 28.9134 40.0839 31.8233 40.0839V36.0928C29.6507 36.0928 27.6761 36.8677 26.0918 38.1127C24.7284 37.9579 23.4733 37.3153 22.5954 36.2419Z" fill="white"/>
</svg>
