<svg width="66" height="62" viewBox="0 0 66 62" fill="none" xmlns="http://www.w3.org/2000/svg">
<path d="M43.0884 36.7633H42.3097C42.131 36.2016 41.9076 35.6591 41.6332 35.1357L42.1822 34.5868C42.8076 33.9613 42.8076 32.9529 42.1822 32.3338L40.2546 30.4063C39.6546 29.8063 38.6079 29.8063 38.008 30.4063L37.4527 30.9552C36.9358 30.6807 36.3868 30.4573 35.8252 30.2786V29.5063C35.8252 28.6256 35.1103 27.9107 34.236 27.9107H31.5107C30.6299 27.9107 29.915 28.6256 29.915 29.5063V30.2786C29.3533 30.4573 28.8109 30.6807 28.2874 30.9552L27.7385 30.4063C27.1194 29.7872 26.1109 29.7872 25.4855 30.4063L23.5643 32.3338C22.9389 32.9529 22.9389 33.9613 23.558 34.5868L24.1133 35.1357C23.8388 35.6591 23.6091 36.2016 23.4368 36.7633H22.6581C21.7774 36.7633 21.0689 37.4782 21.0689 38.3589V41.0779C21.0689 41.9586 21.7774 42.6735 22.6581 42.6735H23.4368C23.6091 43.2352 23.8389 43.7777 24.1133 44.3011L23.558 44.8499C23.258 45.1499 23.0921 45.5521 23.0921 45.9796C23.0921 46.4008 23.258 46.803 23.558 47.103L25.4855 49.0305C26.1109 49.6496 27.1194 49.6496 27.7385 49.0305L28.2874 48.4816C28.8109 48.7561 29.3533 48.9795 29.915 49.1581V49.9305C29.915 50.8112 30.6299 51.5261 31.5107 51.5261H34.236C35.1104 51.5261 35.8252 50.8112 35.8252 49.9305V49.1518C36.3868 48.9795 36.9358 48.7562 37.4527 48.4816L38.008 49.0305C38.6079 49.6305 39.6546 49.6305 40.2546 49.0305L42.1822 47.103C42.8012 46.4839 42.8012 45.4755 42.1822 44.8499L41.6332 44.3011C41.9077 43.7777 42.131 43.2352 42.3097 42.6735H43.0884C43.9628 42.6735 44.6776 41.9586 44.6776 41.0779V38.3589C44.6776 37.4782 43.9628 36.7633 43.0884 36.7633ZM32.87 43.3502C30.8722 43.3502 29.2447 41.7163 29.2447 39.7185C29.2447 37.7144 30.8723 36.0868 32.87 36.0868C34.8741 36.0868 36.5017 37.7144 36.5017 39.7185C36.5017 41.7161 34.8741 43.3502 32.87 43.3502Z" fill="#6C6C6C"/>
<path d="M62.019 33.2338C60.3021 33.2338 58.8533 34.4081 58.432 35.9975H49.0434V29.8255H55.8664C57.462 29.8255 58.7577 28.5299 58.7577 26.9278V25.1407C60.1427 24.5981 61.132 23.2515 61.132 21.6813C61.132 19.6261 59.4598 17.9603 57.411 17.9603C55.3558 17.9603 53.69 19.6261 53.69 21.6813C53.69 23.5386 55.0622 25.0831 56.843 25.3512V26.9278C56.843 27.4703 56.409 27.9107 55.8665 27.9107H49.0433V17.5773C49.0497 14.9797 47.6839 12.5096 45.4754 11.1373L36.3803 5.47601V3.50399C36.3803 1.57012 34.8102 0 32.8699 0C30.936 0 29.3594 1.57012 29.3594 3.50399V5.47614L20.2707 11.1374C18.0623 12.5096 16.6901 14.9797 16.6964 17.571V27.9107H9.87376C9.33758 27.9107 8.89715 27.4703 8.89715 26.9278V25.3513C10.6843 25.0832 12.0565 23.5387 12.0565 21.6814C12.0565 19.6263 10.3906 17.9604 8.33547 17.9604C6.28665 17.9604 4.61448 19.6263 4.61448 21.6814C4.61448 23.2515 5.59739 24.5982 6.98234 25.1408V26.9278C6.98234 28.5299 8.28444 29.8255 9.87362 29.8255H16.6966V35.991H7.31441C6.88673 34.4082 5.44432 33.2338 3.72099 33.2338C1.67217 33.2338 0 34.8996 0 36.9549C0 39.0037 1.67217 40.6759 3.72099 40.6759C5.44432 40.6759 6.89305 39.5015 7.31441 37.9058H16.6967V44.0777H9.87376C8.28457 44.0777 6.98247 45.3798 6.98247 46.9754V48.7625C5.59753 49.305 4.61461 50.6517 4.61461 52.2282C4.61461 54.2834 6.28678 55.9493 8.3356 55.9493C10.3907 55.9493 12.0566 54.2835 12.0566 52.2282C12.0566 50.371 10.6843 48.8264 8.89728 48.552V46.9755C8.89728 46.433 9.33772 45.9926 9.87389 45.9926H16.6968V57.0663C16.6968 59.7341 18.8669 61.9042 21.5284 61.9042H44.212C46.8798 61.9042 49.0436 59.7341 49.0436 57.0663V54.6792C49.0436 54.1558 48.6159 53.7218 48.0861 53.7218C47.5564 53.7218 47.1287 54.1558 47.1287 54.6792V57.0663C47.1287 58.681 45.8203 59.9894 44.212 59.9894H21.5283C19.9199 59.9894 18.6115 58.681 18.6115 57.0663V17.571C18.6051 15.6308 19.6327 13.7925 21.2858 12.765L29.3597 7.73564C29.3661 10.3589 29.3597 13.416 29.3661 13.7352C28.6322 14.5649 28.1727 15.6436 28.1727 16.8372C28.1662 19.454 30.2853 21.5411 32.8575 21.5411H32.883C35.4808 21.5411 37.5742 19.4348 37.5677 16.8372C37.5677 15.65 37.1145 14.5713 36.3743 13.7416C36.387 13.4034 36.3807 11.5717 36.3807 7.73577L44.461 12.7652C46.1141 13.7928 47.1353 15.6309 47.1289 17.5711V49.7709C47.1289 50.3007 47.5566 50.7283 48.0863 50.7283C48.616 50.7283 49.0437 50.3007 49.0437 49.7709V45.9925H55.8666C56.4091 45.9925 56.8431 46.4329 56.8431 46.9754V48.5518C55.0624 48.8263 53.6901 50.3709 53.6901 52.2281C53.6901 54.2832 55.356 55.9492 57.4111 55.9492C59.4599 55.9492 61.1321 54.2834 61.1321 52.2281C61.1321 50.6517 60.1429 49.305 58.7578 48.7624V46.9753C58.7578 45.3796 57.4621 44.0775 55.8665 44.0775H49.0433V37.9121H58.4319C58.8531 39.5013 60.302 40.6757 62.0189 40.6757C64.074 40.6757 65.7399 39.0036 65.7399 36.9547C65.74 34.8996 64.0741 33.2338 62.019 33.2338ZM55.6045 21.6814C55.6045 20.6857 56.4152 19.8752 57.4108 19.8752C58.4065 19.8752 59.2172 20.6858 59.2172 21.6814C59.2172 22.6771 58.4065 23.4876 57.4108 23.4876C56.4152 23.4876 55.6045 22.6771 55.6045 21.6814ZM6.52942 21.6814C6.52942 20.6857 7.33992 19.8752 8.3356 19.8752C9.33127 19.8752 10.1419 20.6858 10.1419 21.6814C10.1419 22.6771 9.33127 23.4876 8.3356 23.4876C7.33992 23.4876 6.52942 22.6771 6.52942 21.6814ZM5.5273 36.9547C5.5273 37.9504 4.71666 38.7609 3.72099 38.7609C2.72531 38.7609 1.91468 37.9503 1.91468 36.9547C1.91468 35.9591 2.72531 35.1484 3.72099 35.1484C4.71666 35.1484 5.5273 35.9526 5.5273 36.9483V36.9547ZM10.1419 52.2281C10.1419 53.2238 9.33127 54.0344 8.3356 54.0344C7.33992 54.0344 6.52942 53.2238 6.52942 52.2281C6.52942 51.2324 7.33992 50.4219 8.3356 50.4219C9.33127 50.4219 10.1419 51.2324 10.1419 52.2281ZM32.8764 19.6263H32.8637C31.3255 19.6263 30.0873 18.3816 30.0873 16.8435C30.0873 16.5307 30.1576 16.2371 30.2533 15.9626C30.898 16.6839 31.8297 17.1435 32.8701 17.1435C33.9168 17.1435 34.855 16.6775 35.4997 15.95C35.6019 16.2309 35.6529 16.5309 35.6529 16.8436C35.6591 18.3752 34.4209 19.6263 32.8764 19.6263ZM59.217 52.2281C59.217 53.2238 58.4064 54.0344 57.4107 54.0344C56.415 54.0344 55.6044 53.2238 55.6044 52.2281C55.6044 51.2324 56.415 50.4219 57.4107 50.4219C58.4064 50.4219 59.217 51.2324 59.217 52.2281ZM62.019 38.7611C61.0233 38.7611 60.2128 37.9504 60.2128 36.9549C60.2128 35.9592 61.0233 35.1486 62.019 35.1486C63.0147 35.1486 63.8253 35.9592 63.8253 36.9549C63.8252 37.9504 63.0147 38.7611 62.019 38.7611Z" fill="#6C6C6C"/>
</svg>
