<svg width="58" height="63" viewBox="0 0 58 63" fill="none" xmlns="http://www.w3.org/2000/svg">
<path fill-rule="evenodd" clip-rule="evenodd" d="M40.3198 25.2715L31.5453 34.1818C30.9223 34.8144 30.9223 35.8466 31.5453 36.4792L39.5229 44.5802V51.5123H39.5257C39.5257 51.7761 39.6266 52.0396 39.8274 52.2382L43.2148 55.5804C41.2314 58.7823 43.496 63 47.2557 63C49.89 63 52.0261 60.8308 52.0261 58.1558C52.0261 54.2785 47.753 51.9867 44.6046 54.1281L41.5225 51.087V44.168L49.0941 36.4792C49.7171 35.8466 49.7171 34.8144 49.0941 34.1818L40.3198 25.2715ZM6.42906 33.826C6.33337 33.9232 6.24886 34.0276 6.17556 34.1374C4.52422 33.7755 3.06606 32.8845 1.98158 31.6479C-0.777082 28.5021 -0.639731 23.7111 2.2957 20.7302C4.5481 18.443 7.95411 17.7615 10.8977 19.0251C11.4046 19.2419 11.9888 19.0004 12.2023 18.4857C12.2769 18.3058 12.2963 18.1163 12.2684 17.9366C12.2318 17.6351 12.2027 17.3116 12.1814 16.9659C11.6153 7.77427 18.7903 0 27.861 0C34.2063 0 39.8657 3.85924 42.3115 9.6807C42.538 10.2198 43.1636 10.4483 43.6785 10.1886C45.9946 9.02031 48.8509 9.51272 50.6885 11.3787C52.6642 13.385 53.0513 16.514 51.6244 18.941C51.2617 19.5579 51.6298 20.3403 52.312 20.4584L52.3117 20.4599C55.5847 21.0351 58 23.9197 58 27.3365C58 30.9109 55.3526 33.8793 51.9094 34.2747C51.8191 34.114 51.7063 33.9629 51.5715 33.826L30.408 12.335C29.6314 11.5463 28.3689 11.5465 27.5925 12.335L6.42906 33.826ZM26.4553 34.1818L17.6808 25.2715L8.90631 34.1818C8.2833 34.8144 8.2833 35.8466 8.90631 36.4792L16.6925 44.3858V51.087L13.6104 54.1281C10.4621 51.9865 6.18885 54.2785 6.18885 58.1558C6.18885 60.8308 8.32495 63 10.9593 63C14.7189 63 16.9836 58.7823 15.0002 55.5804L18.3876 52.2382C18.5885 52.0397 18.6893 51.7762 18.6893 51.5123H18.6921V44.3623L26.4551 36.4792C27.0783 35.8466 27.0783 34.8144 26.4553 34.1818ZM18.6823 34.3152L18.6806 31.638C18.6802 30.3774 16.6813 30.3774 16.6808 31.638L16.6792 34.3152H14.3106C13.7584 34.3152 13.3108 34.7699 13.3108 35.3305C13.3108 35.8911 13.7585 36.3458 14.3106 36.3458H16.6744L16.6687 38.769C16.6687 39.3275 17.1147 39.7804 17.6647 39.7804C18.2583 39.7775 18.6933 39.3327 18.6927 38.769L18.687 36.3458H21.0508C21.6029 36.3458 22.0506 35.8911 22.0506 35.3305C22.0506 34.7699 21.6029 34.3152 21.0508 34.3152H18.6823ZM30.0001 32.8795V53.4183C33.6668 54.2128 35.0561 58.8568 32.3735 61.5811C30.5104 63.473 27.4903 63.473 25.6271 61.5811C22.9443 58.8568 24.3337 54.2128 28.0005 53.4183V32.8794L19.0948 23.8358L27.8692 14.9256C28.4922 14.293 29.5086 14.293 30.1316 14.9256L38.9061 23.8358L30.0001 32.8795ZM29.0003 25.2715L27.3242 26.9736C26.9338 27.3701 26.3008 27.3701 25.9103 26.9736C25.5199 26.5772 25.5199 25.9344 25.9103 25.5379L27.5865 23.8358L25.9103 22.1338C25.5199 21.7373 25.5199 21.0945 25.9103 20.6981C26.3008 20.3016 26.9338 20.3016 27.3242 20.6981L29.004 22.3964L30.6764 20.6981C31.0668 20.3016 31.6998 20.3016 32.0902 20.6981C32.4807 21.0945 32.4807 21.7373 32.0902 22.1338L30.4226 23.8272L32.1025 25.5215C32.4957 25.9184 32.4917 26.5696 32.1044 26.9553L32.1064 26.9572C31.6957 27.3743 31.0695 27.3726 30.6764 26.9736L29.0003 25.2715ZM35.9498 35.3305C35.9498 34.7697 36.3975 34.3152 36.9496 34.3152H43.69C44.2422 34.3152 44.6898 34.7699 44.6898 35.3305C44.6898 35.8911 44.2421 36.3458 43.69 36.3458H36.9496C36.3974 36.3458 35.9498 35.8911 35.9498 35.3305Z" fill="#6C6C6C"/>
</svg>
