<svg width="55" height="54" viewBox="0 0 55 54" fill="none" xmlns="http://www.w3.org/2000/svg">
<path fill-rule="evenodd" clip-rule="evenodd" d="M6.98661 8.17261C7.47697 8.71785 8.07131 9.37993 8.22001 11.0275H8.68606V8.36144C8.68606 8.14234 8.7731 7.93221 8.92803 7.77728C9.08295 7.62235 9.29308 7.53532 9.51218 7.53532C9.73128 7.53532 9.94141 7.62235 10.0963 7.77728C10.2513 7.93221 10.3383 8.14234 10.3383 8.36144V11.0275H10.9481C11.0865 9.37521 11.6397 8.68127 12.0961 8.10888C12.4796 7.62737 12.7334 7.30872 12.7334 6.28079C12.7334 5.85784 12.65 5.43903 12.4882 5.04828C12.3263 4.65753 12.0891 4.30248 11.79 4.00341C11.491 3.70434 11.1359 3.46711 10.7452 3.30525C10.3544 3.14339 9.9356 3.06009 9.51265 3.06009C9.08971 3.06009 8.6709 3.14339 8.28015 3.30525C7.88939 3.46711 7.53435 3.70434 7.23528 4.00341C6.93621 4.30248 6.69897 4.65753 6.53712 5.04828C6.37526 5.43903 6.29196 5.85784 6.29196 6.28079C6.29196 7.39959 6.56812 7.70762 6.98637 8.17261H6.98661ZM42.6453 10.0998C42.6458 10.4909 42.8013 10.8659 43.0779 11.1424C43.3544 11.419 43.7294 11.5746 44.1205 11.5751H49.4313C49.719 11.5756 50.0006 11.4919 50.2412 11.3342C50.4818 11.1764 50.671 10.9517 50.7852 10.6876C50.8995 10.4236 50.9338 10.1318 50.8841 9.84844C50.8343 9.56506 50.7026 9.30248 50.5052 9.09315C49.1634 9.94405 47.8976 10.3725 46.7264 10.3725C46.4056 10.373 46.0856 10.3397 45.7717 10.2733C45.5573 10.2276 45.3698 10.0987 45.2505 9.91475C45.1312 9.73083 45.0898 9.50706 45.1355 9.29266C45.1812 9.07825 45.3102 8.89077 45.4941 8.77147C45.678 8.65216 45.9017 8.6108 46.1162 8.65648C47.1526 8.87836 48.3911 8.51604 49.8 7.58252C49.8719 7.17438 49.8524 6.75537 49.7429 6.35567C49.6333 5.95598 49.4365 5.58556 49.1666 5.27109C48.8967 4.95663 48.5603 4.70595 48.1818 4.53713C47.8034 4.36831 47.3921 4.28555 46.9778 4.2948C46.5635 4.30406 46.1564 4.4051 45.7858 4.59065C45.4152 4.77621 45.0904 5.04165 44.8348 5.36785C44.5792 5.69406 44.3991 6.0729 44.3075 6.47709C44.216 6.88127 44.2152 7.30074 44.3053 7.70526C44.3511 7.91133 44.3163 8.12711 44.2081 8.30836C44.0999 8.48962 43.9265 8.62261 43.7234 8.68009C43.4138 8.76757 43.1412 8.95343 42.9467 9.20956C42.7521 9.4657 42.6462 9.7782 42.645 10.0998H42.6453ZM50.2943 43.8942H43.2574C43.1997 43.895 43.1447 43.9182 43.1039 43.959C43.0631 43.9998 43.0398 44.0548 43.039 44.1125V48.95C43.0395 49.0079 43.0627 49.0632 43.1035 49.1042C43.1443 49.1453 43.1996 49.1687 43.2574 49.1696H50.2942C50.3221 49.1696 50.3454 49.1684 50.365 49.1672C50.3703 49.1271 50.3753 49.0716 50.3778 48.9949C50.4181 47.7109 50.5127 44.502 50.5127 44.1125C50.512 44.0548 50.4887 43.9997 50.4479 43.9589C50.4071 43.9181 50.3519 43.8948 50.2942 43.8942H50.2943ZM46.801 44.3509C47.2323 44.351 47.654 44.4789 48.0126 44.7186C48.3712 44.9583 48.6507 45.299 48.8157 45.6975C48.9807 46.096 49.0239 46.5345 48.9397 46.9576C48.8555 47.3806 48.6477 47.7692 48.3427 48.0742C48.0377 48.3791 47.6491 48.5868 47.226 48.6709C46.803 48.7551 46.3645 48.7119 45.966 48.5468C45.5675 48.3817 45.2269 48.1022 44.9872 47.7435C44.7476 47.3849 44.6197 46.9632 44.6197 46.5319C44.6203 45.9536 44.8503 45.3991 45.2593 44.9902C45.6683 44.5814 46.2227 44.3514 46.801 44.3509ZM47.33 46.5319C47.33 46.6365 47.2991 46.7388 47.241 46.8259C47.1829 46.913 47.1003 46.9808 47.0036 47.0209C46.9069 47.061 46.8005 47.0715 46.6978 47.0512C46.5952 47.0308 46.5009 46.9804 46.4269 46.9064C46.3528 46.8324 46.3024 46.7381 46.282 46.6355C46.2616 46.5328 46.272 46.4264 46.3121 46.3297C46.3521 46.2331 46.42 46.1504 46.507 46.0923C46.594 46.0341 46.6964 46.0031 46.801 46.0031C46.9412 46.0033 47.0756 46.059 47.1748 46.1582C47.2739 46.2573 47.3297 46.3917 47.33 46.5319ZM44.1637 42.2419H49.4375V41.7758C49.4375 41.0763 49.1597 40.4055 48.6651 39.9109C48.1705 39.4163 47.4997 39.1384 46.8002 39.1384C46.1007 39.1384 45.4299 39.4163 44.9353 39.9109C44.4407 40.4055 44.1628 41.0763 44.1628 41.7758V42.2419H44.1637ZM46.801 37.487C47.938 37.4883 49.0281 37.9406 49.8321 38.7446C50.6361 39.5486 51.0884 40.6387 51.0898 41.7758V42.4225C51.2849 42.5142 51.4628 42.6388 51.6158 42.7907C51.7903 42.9639 51.9287 43.17 52.0229 43.3971C52.1171 43.6242 52.1653 43.8678 52.1646 44.1137C52.1646 44.5397 52.0662 47.8572 52.0288 49.0468C51.9803 50.5905 50.921 50.8218 50.294 50.8218H43.2574C42.7613 50.821 42.2858 50.6235 41.9351 50.2726C41.5844 49.9218 41.3872 49.4461 41.3867 48.95V44.1125C41.3871 43.7485 41.4936 43.3924 41.6933 43.0881C41.893 42.7837 42.1772 42.5442 42.511 42.3989V41.7758C42.5123 40.6386 42.9647 39.5484 43.7689 38.7443C44.5731 37.9403 45.6634 37.4881 46.8005 37.487H46.801ZM8.22107 37.8717C9.6001 37.8717 10.9482 38.2806 12.0948 39.0467C13.2414 39.8129 14.1351 40.9018 14.6629 42.1759C15.1906 43.4499 15.3287 44.8519 15.0597 46.2044C14.7907 47.5569 14.1266 48.7993 13.1515 49.7745C12.1764 50.7496 10.934 51.4137 9.58149 51.6827C8.22896 51.9517 6.82702 51.8137 5.55296 51.2859C4.2789 50.7582 3.18994 49.8645 2.42379 48.7179C1.65764 47.5713 1.24871 46.2232 1.24871 44.8442C1.25093 42.9957 1.98622 41.2235 3.29331 39.9164C4.6004 38.6093 6.37256 37.874 8.22107 37.8717ZM6.60258 11.8536C6.60258 10.2179 6.211 9.78119 5.75757 9.27726C5.25954 8.72257 4.63983 8.03335 4.63983 6.28079C4.63983 4.9884 5.15323 3.74895 6.06708 2.8351C6.98093 1.92124 8.22039 1.40784 9.51277 1.40784C10.8052 1.40784 12.0446 1.92124 12.9585 2.8351C13.8723 3.74895 14.3857 4.9884 14.3857 6.28079C14.3857 7.88701 13.8559 8.55145 13.3886 9.13799C12.9484 9.69032 12.5682 10.1683 12.5682 11.8536C12.5682 12.0727 12.4812 12.2828 12.3263 12.4377C12.1714 12.5927 11.9612 12.6797 11.7421 12.6797H7.4287C7.2096 12.6797 6.99947 12.5927 6.84454 12.4377C6.68962 12.2828 6.60258 12.0727 6.60258 11.8536ZM8.9693 24.7777C8.7502 24.7777 8.54007 24.6906 8.38514 24.5357C8.23022 24.3808 8.14318 24.1707 8.14318 23.9516V16.3333C6.06318 15.9827 4.19739 14.8464 2.93155 13.1591C1.6657 11.4718 1.09658 9.36262 1.34185 7.26759C1.58712 5.17256 2.62802 3.25188 4.24936 1.9026C5.8707 0.553318 7.9485 -0.121381 10.0532 0.0179821C12.158 0.157345 14.1287 1.10011 15.5579 2.65139C16.9872 4.20266 17.7658 6.24382 17.7327 8.3529C17.6996 10.462 16.8573 12.4777 15.3801 13.9833C13.9028 15.489 11.9035 16.3695 9.79542 16.4427V23.1254H15.6845C16.5007 20.4921 18.1382 18.1892 20.3575 16.5536C22.5768 14.918 25.2613 14.0356 28.0182 14.0356C30.7751 14.0356 33.4596 14.918 35.6789 16.5536C37.8982 18.1892 39.5358 20.4921 40.3519 23.1254H46.241V16.4301C44.1378 16.2918 42.1681 15.3507 40.7392 13.8012C39.3103 12.2518 38.5314 10.2125 38.5635 8.10497C38.5957 5.99745 39.4364 3.98287 40.9119 2.47773C42.3875 0.972582 44.3849 0.091964 46.4914 0.0179371C48.5979 -0.0560899 50.6522 0.682135 52.2298 2.07999C53.8073 3.47784 54.7874 5.42843 54.9674 7.52849C55.1474 9.62854 54.5136 11.7175 53.197 13.3634C51.8803 15.0094 49.9816 16.0864 47.8933 16.372V23.9516C47.8933 24.1707 47.8062 24.3808 47.6513 24.5357C47.4964 24.6906 47.2862 24.7777 47.0671 24.7777H40.7452C41.0135 26.3558 40.9872 27.97 40.6674 29.5385H47.0654C47.2845 29.5385 47.4946 29.6255 47.6495 29.7805C47.8045 29.9354 47.8915 30.1455 47.8915 30.3646V36.7004C49.9811 36.9862 51.8811 38.064 53.1985 39.711C54.516 41.358 55.1501 43.4483 54.9699 45.5497C54.7897 47.6511 53.8089 49.6029 52.2303 51.0015C50.6516 52.4002 48.5959 53.1388 46.4881 53.0645C44.3803 52.9903 42.3816 52.109 40.9053 50.6027C39.4289 49.0965 38.5878 47.0806 38.5559 44.9717C38.5239 42.8628 39.3036 40.8223 40.7336 39.272C42.1636 37.7218 44.1347 36.7803 46.2392 36.6422V31.1908H40.2116C39.3307 33.723 37.6833 35.9181 35.4981 37.4716C33.313 39.025 30.6984 39.8596 28.0173 39.8596C25.3363 39.8596 22.7217 39.025 20.5365 37.4716C18.3514 35.9181 16.704 33.723 15.8231 31.1908H9.90093V36.7973C11.9642 37.2274 13.7836 38.4333 14.9835 40.1661C16.1833 41.8989 16.672 44.0263 16.3486 46.109C16.0252 48.1917 14.9145 50.0707 13.2457 51.3581C11.5769 52.6454 9.47747 53.2429 7.3809 53.027C5.28432 52.8112 3.35067 51.7985 1.97916 50.1982C0.607661 48.5978 -0.0969684 46.5319 0.0107567 44.427C0.118482 42.3221 1.03034 40.3389 2.55805 38.8869C4.08577 37.4349 6.1127 36.625 8.22036 36.6243H8.24869V30.3646C8.24869 30.1455 8.33572 29.9354 8.49065 29.7805C8.64558 29.6255 8.85571 29.5385 9.07481 29.5385H15.3673C15.0475 27.97 15.0211 26.3558 15.2895 24.7777H8.9693ZM7.44074 14.2222C7.44074 14.4413 7.52778 14.6514 7.6827 14.8063C7.83763 14.9613 8.04776 15.0483 8.26686 15.0483H10.7587C10.9778 15.0483 11.1879 14.9613 11.3428 14.8063C11.4978 14.6514 11.5848 14.4413 11.5848 14.2222C11.5848 14.0031 11.4978 13.793 11.3428 13.638C11.1879 13.4831 10.9778 13.3961 10.7587 13.3961H8.26686C8.04776 13.3961 7.83763 13.4831 7.6827 13.638C7.52778 13.793 7.44074 14.0031 7.44074 14.2222ZM49.4314 13.2273H44.1206C43.4284 13.2276 42.7557 12.9982 42.2079 12.5751C41.6602 12.1519 41.2683 11.559 41.0938 10.8891C40.9193 10.2193 40.972 9.51053 41.2436 8.87388C41.5153 8.23724 41.9905 7.70875 42.5949 7.37127C42.5891 7.27922 42.5861 7.18598 42.5861 7.09275C42.5867 6.48164 42.7129 5.87718 42.957 5.31694C43.2011 4.75671 43.5578 4.25268 44.005 3.8362C44.4522 3.41972 44.9804 3.09971 45.5565 2.89604C46.1327 2.69238 46.7446 2.60943 47.3542 2.65235C47.9638 2.69527 48.558 2.86315 49.1 3.14554C49.6419 3.42792 50.12 3.81879 50.5044 4.29382C50.8889 4.76885 51.1715 5.3179 51.3347 5.90681C51.4979 6.49572 51.5381 7.11191 51.453 7.71706C51.9417 8.13087 52.2915 8.68481 52.455 9.30394C52.6186 9.92306 52.588 10.5775 52.3674 11.1786C52.1468 11.7798 51.7469 12.2987 51.2217 12.6651C50.6966 13.0315 50.0715 13.2278 49.4312 13.2273H49.4314ZM27.5597 22.5436C25.4687 22.5409 23.4229 23.1515 21.6754 24.2997C21.5836 24.3587 21.5043 24.4354 21.4423 24.5252C21.3802 24.6151 21.3366 24.7163 21.3139 24.8232C21.2913 24.93 21.29 25.0402 21.3102 25.1475C21.3304 25.2548 21.3717 25.3571 21.4316 25.4483C21.4916 25.5396 21.569 25.618 21.6595 25.6792C21.75 25.7403 21.8517 25.7829 21.9587 25.8045C22.0657 25.8261 22.176 25.8263 22.2831 25.805C22.3902 25.7837 22.492 25.7414 22.5826 25.6805C24.2109 24.6139 26.1388 24.0988 28.0821 24.211C30.0254 24.3231 31.8812 25.0568 33.3759 26.3036C33.4588 26.3759 33.5552 26.4308 33.6596 26.4653C33.764 26.4998 33.8742 26.5131 33.9838 26.5044C34.0934 26.4957 34.2001 26.4653 34.2978 26.4148C34.3955 26.3644 34.4821 26.295 34.5526 26.2106C34.6231 26.1263 34.676 26.0287 34.7083 25.9236C34.7406 25.8186 34.7517 25.7081 34.7407 25.5987C34.7298 25.4893 34.6972 25.3832 34.6447 25.2866C34.5922 25.19 34.521 25.1049 34.4352 25.0361C32.5056 23.4265 30.0726 22.5445 27.5597 22.5436ZM27.5597 26.1007C26.4178 26.1012 25.2925 26.3734 24.2767 26.8949C24.1778 26.9432 24.0896 27.0107 24.0172 27.0935C23.9447 27.1763 23.8896 27.2728 23.855 27.3772C23.8203 27.4816 23.8069 27.5919 23.8155 27.7016C23.824 27.8113 23.8544 27.9181 23.9049 28.0159C23.9553 28.1137 24.0247 28.2004 24.1091 28.271C24.1935 28.3416 24.2911 28.3946 24.3963 28.4269C24.5014 28.4593 24.612 28.4703 24.7215 28.4593C24.8309 28.4483 24.9371 28.4156 25.0337 28.3631C25.9026 27.917 26.8742 27.7092 27.8495 27.7606C28.8248 27.812 29.7692 28.1208 30.5863 28.6557C30.7694 28.7734 30.9916 28.8141 31.2045 28.7689C31.4174 28.7237 31.6039 28.5963 31.7234 28.4144C31.8429 28.2325 31.8858 28.0107 31.8428 27.7974C31.7997 27.584 31.6742 27.3963 31.4935 27.2749C30.3254 26.507 28.9576 26.0987 27.5597 26.1007ZM28.6736 30.5098C28.6736 30.2907 28.5866 30.0806 28.4317 29.9256C28.2767 29.7707 28.0666 29.6837 27.8475 29.6837C27.6284 29.6837 27.4183 29.7707 27.2634 29.9256C27.1084 30.0806 27.0214 30.2907 27.0214 30.5098V30.5251C27.0214 30.7442 27.1084 30.9544 27.2634 31.1093C27.4183 31.2642 27.6284 31.3513 27.8475 31.3513C28.0666 31.3513 28.2767 31.2642 28.4317 31.1093C28.5866 30.9544 28.6736 30.7442 28.6736 30.5251V30.5098ZM8.22036 50.1019C8.67308 50.1019 9.68378 48.596 9.84759 45.6703H6.59302C6.75742 48.596 7.76753 50.1019 8.22036 50.1019ZM11.5013 45.6703C11.4258 47.0889 11.1569 48.465 10.7009 49.5496C11.4328 49.1627 12.0647 48.6108 12.5465 47.9375C13.0283 47.2642 13.3467 46.488 13.4766 45.6703H11.5013ZM11.5013 44.0181H13.4766C13.3467 43.2006 13.0282 42.4246 12.5464 41.7515C12.0647 41.0784 11.4328 40.5266 10.7009 40.14C11.1569 41.2234 11.4258 42.6007 11.5013 44.0181ZM9.84818 44.0181C9.6839 41.0936 8.67367 39.5877 8.22095 39.5877C7.76824 39.5877 6.75753 41.0936 6.59361 44.0181H9.84818ZM4.94065 44.0181C5.01607 42.6007 5.28491 41.2234 5.74105 40.14C5.00912 40.5266 4.37725 41.0784 3.89547 41.7515C3.41368 42.4246 3.09521 43.2006 2.96528 44.0181H4.94065ZM4.94065 45.6703H2.96469C3.09459 46.488 3.41304 47.2642 3.89482 47.9375C4.3766 48.6108 5.00848 49.1627 5.74046 49.5496C5.28432 48.465 5.01571 47.0889 4.94006 45.6703H4.94065Z" fill="#6C6C6C"/>
</svg>
