<svg width="59" height="59" viewBox="0 0 59 59" fill="none" xmlns="http://www.w3.org/2000/svg">
<path d="M58.6724 4.99667V15.2488C58.6724 15.4543 58.5043 15.7266 58.3663 15.8005L49.8771 20.5649V10.3096C49.8771 10.121 50.032 9.84158 50.1834 9.75735L58.6724 4.99667Z" fill="#6C6C6C"/>
<path d="M57.5688 4.45476L49.6888 8.87616C49.5777 8.93999 49.47 9.02422 49.3725 9.12513C49.2749 9.02422 49.1706 8.93999 49.0563 8.87616L41.1761 4.45476L49.3725 0L57.5688 4.45476Z" fill="#6C6C6C"/>
<path d="M48.8677 10.3096V20.5649L40.3786 15.8005C40.2408 15.7266 40.0724 15.4544 40.0724 15.2488V4.99298L48.5615 9.75737C48.6995 9.83498 48.8677 10.1041 48.8677 10.3096Z" fill="#6C6C6C"/>
<path d="M45.8093 46.7524C45.8093 47.035 45.7993 47.3173 45.779 47.5968C45.4931 51.7827 43.0908 55.3997 39.6351 57.3814C40.1836 56.8533 40.6882 56.2544 41.1425 55.5949C42.7711 53.2498 43.7601 50.1474 43.7601 46.7524C43.7601 42.4086 42.1384 38.5461 39.6351 36.1234C43.3193 38.2399 45.8093 42.2099 45.8093 46.7524Z" fill="#6C6C6C"/>
<path d="M38.2253 43.8518C38.2253 45.4572 36.5597 46.7593 34.514 46.7593H29.7463V40.9481H31.8896V42.5363H32.899V40.9481H33.7368V42.5363H34.7462V40.955C36.6842 41.049 38.2253 42.3109 38.2253 43.8518Z" fill="#6C6C6C"/>
<path d="M32.899 51.5369H31.8896V53.6466H29.7463V47.7687H34.514V47.8322C36.5597 47.8322 38.2253 49.138 38.2253 50.7394C38.2253 52.2804 36.6842 53.5422 34.7462 53.6365V51.5369H33.7368V53.6466H32.899V51.5369Z" fill="#6C6C6C"/>
<path d="M33.7367 38.3477V39.9387H32.8989V38.3477H31.8895V39.9387H28.7367V47.3277V47.7687V54.656H31.8895V55.726H32.8989V54.656H33.7367V55.726H34.7461V54.6459C37.2393 54.545 39.2346 52.8324 39.2346 50.7394C39.2346 49.2556 38.2353 47.9604 36.7616 47.2975C38.2353 46.6348 39.2346 45.3391 39.2346 43.8518C39.2346 41.7594 37.2393 40.0465 34.7461 39.9491V38.3477H33.7367ZM42.7506 46.7524C42.7506 49.9151 41.8424 52.8022 40.3552 54.9791C38.6693 57.4423 36.2366 58.9931 33.5382 59C33.4978 59 33.4541 58.9963 33.4104 58.9963C28.3735 58.9158 24.2955 53.4548 24.2955 46.7524C24.2955 43.6098 25.1903 40.7429 26.6608 38.5731C28.3298 36.1133 30.7354 34.5522 33.4104 34.5085C33.4541 34.5085 33.4978 34.5048 33.5382 34.5048C38.619 34.5183 42.7506 40.006 42.7506 46.7524Z" fill="#6C6C6C"/>
<path d="M27.3135 36.2242C26.7786 36.7558 26.284 37.3518 25.8398 38.0041C24.2517 40.3426 23.2861 43.4042 23.2861 46.7524C23.2861 51.0389 24.8675 54.8578 27.3135 57.2805C24.5075 55.6116 22.4248 52.8525 21.6475 49.5957C21.4288 48.6838 21.3143 47.7313 21.3143 46.7524C21.3143 46.0526 21.3715 45.3661 21.486 44.6999C22.0952 41.0999 24.2853 38.0312 27.3135 36.2242Z" fill="#6C6C6C"/>
<path d="M25.2947 10.7837V24.6364C25.2947 24.9458 25.0592 25.373 24.807 25.5144L13.2963 31.9713C13.2963 31.9612 13.2963 31.9477 13.2963 31.9342V18.0818C13.2963 17.7653 13.5286 17.3486 13.7842 17.2035L25.2947 10.7469C25.2947 10.7572 25.2947 10.7705 25.2947 10.7837Z" fill="#6C6C6C"/>
<path d="M24.0095 10.3096L13.2929 16.3223C13.108 16.4264 12.9364 16.5779 12.7915 16.7596C12.6434 16.5813 12.4753 16.4264 12.2902 16.3223L1.5705 10.3096L12.7915 4.2095L24.0095 10.3096Z" fill="#6C6C6C"/>
<path d="M12.2869 18.0818V31.9342C12.2869 31.9477 12.2835 31.9612 12.2835 31.9713L0.772977 25.5144C0.523872 25.373 0.285095 24.9458 0.285095 24.6364V10.7837C0.285095 10.7705 0.285095 10.7572 0.285095 10.7469L11.7956 17.2035C12.0515 17.3449 12.2869 17.7653 12.2869 18.0818Z" fill="#6C6C6C"/>
<path d="M27.9045 16.6213V17.7579L37.8065 12.6499V11.5171L27.9045 16.6213Z" fill="#6C6C6C"/>
<path d="M19.2955 46.8316L6.78888 38.0849V31.1555L5.77948 30.6584V38.6099L19.2955 48.064V46.8316Z" fill="#6C6C6C"/>
<path d="M48.8677 22.7672V37.3647L45.4673 39.0774L46.0134 39.9347L49.8771 37.9874V22.7672H48.8677Z" fill="#6C6C6C"/>
</svg>
