<svg width="60" height="53" viewBox="0 0 60 53" fill="none" xmlns="http://www.w3.org/2000/svg">
<path d="M53.81 18.45C53.93 17.88 53.99 17.31 53.99 16.74C53.99 12.19 50.28 8.49 45.73 8.49H45.5V8.26C45.5 3.71 41.8 0 37.25 0C34.12 0 31.4 1.75 30 4.33C28.6 1.75 25.88 0 22.75 0C18.2 0 14.5 3.71 14.5 8.26V8.49H14.27C9.72 8.49 6.01 12.19 6.01 16.74C6.01 17.31 6.07 17.88 6.19 18.45C2.59 19.36 0 22.62 0 26.44C0 30.26 2.59 33.52 6.19 34.43C6.07 35 6.01 35.57 6.01 36.14C6.01 40.69 9.72 44.39 14.27 44.39H14.5V44.62C14.5 49.17 18.2 52.88 22.75 52.88C25.88 52.88 28.6 51.13 30 48.55C31.4 51.13 34.12 52.88 37.25 52.88C41.8 52.88 45.5 49.17 45.5 44.62V44.39H45.73C50.28 44.39 53.99 40.69 53.99 36.14C53.99 35.57 53.93 35 53.81 34.43C57.41 33.52 60 30.26 60 26.44C60 22.62 57.41 19.36 53.81 18.45ZM20.89 36.75C17.82 36.75 15.31 34.25 15.31 31.17C15.31 30.62 15.76 30.17 16.31 30.17C16.87 30.17 17.31 30.62 17.31 31.17C17.31 33.14 18.92 34.75 20.89 34.75C21.45 34.75 21.89 35.2 21.89 35.75C21.89 36.3 21.45 36.75 20.89 36.75ZM52.44 32.65C52.13 32.69 51.86 32.86 51.7 33.12C51.54 33.38 51.5 33.7 51.61 33.99C51.86 34.69 51.99 35.41 51.99 36.14C51.99 39.59 49.18 42.39 45.73 42.39C45.33 42.39 44.94 42.36 44.57 42.28C44.24 42.22 43.9 42.32 43.67 42.56C43.43 42.79 43.33 43.13 43.39 43.46C43.47 43.83 43.5 44.22 43.5 44.62C43.5 48.07 40.7 50.88 37.25 50.88C33.8 50.88 31 48.07 31 44.62V34.46H34.956L36.368 35.873C36.049 36.422 35.869 37.051 35.869 37.73C35.869 39.81 37.559 41.5 39.649 41.5C41.739 41.5 43.419 39.81 43.419 37.73C43.419 35.65 41.729 33.96 39.649 33.96C38.969 33.96 38.329 34.14 37.779 34.45C37.778 34.45 37.777 34.452 37.775 34.453L36.076 32.753C35.888 32.565 35.635 32.46 35.369 32.46H30.999V27.44H41.879C42.319 29.04 43.789 30.21 45.519 30.21C47.599 30.21 49.289 28.52 49.289 26.44C49.289 24.36 47.599 22.67 45.519 22.67C43.789 22.67 42.319 23.84 41.879 25.44H30.999V20.42H35.369C35.635 20.42 35.889 20.315 36.076 20.127L37.775 18.427C37.775 18.427 37.777 18.429 37.779 18.43C38.329 18.74 38.969 18.92 39.649 18.92C41.729 18.92 43.419 17.23 43.419 15.15C43.419 13.07 41.729 11.38 39.649 11.38C37.569 11.38 35.869 13.07 35.869 15.15C35.869 15.829 36.049 16.458 36.368 17.007L34.956 18.42H31V8.26C31 4.81 33.8 2 37.25 2C40.7 2 43.5 4.81 43.5 8.26C43.5 8.66 43.47 9.05 43.39 9.42C43.33 9.75 43.43 10.09 43.67 10.32C43.9 10.56 44.24 10.66 44.57 10.6C44.94 10.52 45.33 10.49 45.73 10.49C49.18 10.49 51.99 13.29 51.99 16.74C51.99 17.47 51.86 18.19 51.61 18.89C51.5 19.18 51.54 19.5 51.7 19.76C51.86 20.02 52.13 20.19 52.44 20.23C55.61 20.57 58 23.24 58 26.44C58 29.64 55.61 32.31 52.44 32.65ZM39.65 35.96C40.62 35.96 41.42 36.75 41.42 37.73C41.42 38.71 40.62 39.5 39.65 39.5C38.67 39.5 37.87 38.71 37.87 37.73C37.87 37.24 38.07 36.8 38.39 36.48C38.72 36.16 39.16 35.96 39.65 35.96ZM43.741 26.433C43.745 25.456 44.543 24.67 45.52 24.67C46.49 24.67 47.29 25.46 47.29 26.44C47.29 27.42 46.49 28.21 45.52 28.21C44.542 28.21 43.745 27.424 43.741 26.447C43.741 26.444 43.742 26.442 43.742 26.44C43.742 26.438 43.741 26.435 43.741 26.433ZM38.39 16.4C38.07 16.08 37.87 15.64 37.87 15.15C37.87 14.17 38.67 13.38 39.65 13.38C40.62 13.38 41.42 14.17 41.42 15.15C41.42 16.13 40.62 16.92 39.65 16.92C39.16 16.92 38.72 16.72 38.39 16.4Z" fill="#6C6C6C"/>
</svg>
