<svg width="55" height="56" viewBox="0 0 55 56" fill="none" xmlns="http://www.w3.org/2000/svg">
<path d="M33.869 36.2786C35.1376 36.2786 36.1659 35.2503 36.1659 33.9818C36.1659 32.7133 35.1376 31.6849 33.869 31.6849C32.6005 31.6849 31.5722 32.7133 31.5722 33.9818C31.5722 35.2503 32.6005 36.2786 33.869 36.2786Z" fill="#6C6C6C"/>
<path d="M40.5023 31.2348C40.7847 30.8804 40.9267 30.4344 40.9013 29.982C40.8759 29.5295 40.6848 29.1023 40.3645 28.7818L39.0691 27.4863C38.7493 27.1647 38.3219 26.9726 37.869 26.9472C37.4161 26.9217 36.9698 27.0647 36.6161 27.3485C36.5663 26.8986 36.3521 26.4829 36.0147 26.1811C35.6774 25.8793 35.2404 25.7127 34.7878 25.7132V15.6071C34.7878 15.3634 34.691 15.1297 34.5187 14.9574C34.3464 14.7851 34.1127 14.6883 33.869 14.6883H19.1692C18.9256 14.6883 18.6919 14.7851 18.5196 14.9574C18.3473 15.1297 18.2505 15.3634 18.2505 15.6071V37.6568C18.2505 37.9004 18.3473 38.1341 18.5196 38.3064C18.6919 38.4787 18.9256 38.5755 19.1692 38.5755H26.9693C27.0658 38.8007 27.2028 39.0062 27.3736 39.1819L28.669 40.4773C28.9887 40.799 29.4162 40.991 29.8691 41.0165C30.3219 41.0419 30.7682 40.8989 31.122 40.6151C31.1718 41.065 31.3859 41.4807 31.7233 41.7825C32.0607 42.0843 32.4976 42.2509 32.9503 42.2505H34.7878C35.2404 42.2509 35.6774 42.0843 36.0147 41.7825C36.3521 41.4807 36.5663 41.065 36.6161 40.6151C36.9698 40.8989 37.4161 41.0419 37.869 41.0165C38.3219 40.991 38.7493 40.799 39.0691 40.4773L40.3645 39.1819C40.6848 38.8613 40.8759 38.4341 40.9013 37.9816C40.9267 37.5292 40.7847 37.0832 40.5023 36.7288C40.9522 36.679 41.3679 36.4649 41.6697 36.1275C41.9715 35.7901 42.1382 35.3532 42.1377 34.9005V33.0631C42.1382 32.6104 41.9715 32.1735 41.6697 31.8361C41.3679 31.4987 40.9522 31.2846 40.5023 31.2348ZM22.8442 18.3633C23.0259 18.3633 23.2035 18.4172 23.3546 18.5181C23.5057 18.6191 23.6234 18.7625 23.693 18.9304C23.7625 19.0983 23.7807 19.283 23.7453 19.4612C23.7098 19.6395 23.6223 19.8032 23.4938 19.9317C23.3653 20.0601 23.2016 20.1476 23.0234 20.1831C22.8452 20.2185 22.6605 20.2004 22.4926 20.1308C22.3247 20.0613 22.1812 19.9435 22.0803 19.7924C21.9793 19.6413 21.9254 19.4637 21.9254 19.282C21.9254 19.0383 22.0222 18.8047 22.1945 18.6324C22.3668 18.4601 22.6005 18.3633 22.8442 18.3633ZM20.088 22.0382H32.9503V23.8757H20.088V22.0382ZM23.7629 26.6319C23.7629 26.8136 23.709 26.9913 23.6081 27.1423C23.5071 27.2934 23.3636 27.4112 23.1958 27.4807C23.0279 27.5503 22.8432 27.5684 22.6649 27.533C22.4867 27.4975 22.323 27.41 22.1945 27.2816C22.066 27.1531 21.9785 26.9894 21.9431 26.8111C21.9076 26.6329 21.9258 26.4482 21.9954 26.2803C22.0649 26.1124 22.1827 25.969 22.3338 25.868C22.4848 25.7671 22.6625 25.7132 22.8442 25.7132C23.0878 25.7132 23.3215 25.81 23.4938 25.9823C23.6661 26.1546 23.7629 26.3882 23.7629 26.6319ZM20.088 29.3881H26.9693C26.8463 29.6899 26.8052 30.0188 26.8504 30.3415C26.8956 30.6642 27.0254 30.9693 27.2266 31.2256H20.088V29.3881ZM22.8442 34.9005C22.6625 34.9005 22.4848 34.8467 22.3338 34.7457C22.1827 34.6448 22.0649 34.5013 21.9954 34.3334C21.9258 34.1655 21.9076 33.9808 21.9431 33.8026C21.9785 33.6244 22.066 33.4607 22.1945 33.3322C22.323 33.2037 22.4867 33.1162 22.6649 33.0807C22.8432 33.0453 23.0279 33.0635 23.1958 33.133C23.3636 33.2025 23.5071 33.3203 23.6081 33.4714C23.709 33.6225 23.7629 33.8001 23.7629 33.9818C23.7629 34.2255 23.6661 34.4592 23.4938 34.6315C23.3215 34.8038 23.0878 34.9005 22.8442 34.9005ZM40.3002 34.9005H37.8885C37.7871 35.3527 37.61 35.7844 37.3648 36.1776L39.0645 37.8773L37.7599 39.1819L36.0602 37.4822C35.6682 37.7253 35.238 37.9008 34.7878 38.0013V40.413H32.9503V38.0013C32.4982 37.8999 32.0664 37.7228 31.6732 37.4776L29.9736 39.1773L28.669 37.8727L30.3686 36.173C30.1255 35.7809 29.95 35.3508 29.8496 34.9005H27.4379V33.0631H29.8496C29.951 32.611 30.128 32.1792 30.3732 31.786L28.6736 30.0864L29.9782 28.7818L31.6778 30.4814C32.0699 30.2383 32.5 30.0628 32.9503 29.9623V27.5506H34.7878V29.9623C35.2399 30.0638 35.6716 30.2408 36.0648 30.486L37.7645 28.7864L39.0691 30.091L37.3694 31.7906C37.6125 32.1827 37.788 32.6128 37.8885 33.0631H40.3002V34.9005Z" fill="#6C6C6C"/>
<path d="M54.0813 36.738H50.4063C50.1627 36.738 49.929 36.8348 49.7567 37.0071C49.5844 37.1794 49.4876 37.413 49.4876 37.6567V53.2753H47.6501V42.6179C47.6501 42.3742 47.5533 42.1405 47.381 41.9683C47.2087 41.796 46.975 41.6992 46.7314 41.6992H43.0564C42.8128 41.6992 42.5791 41.796 42.4068 41.9683C42.2345 42.1405 42.1377 42.3742 42.1377 42.6179V53.2753H40.3002V45.9254C40.3002 45.6817 40.2034 45.448 40.0311 45.2757C39.8588 45.1034 39.6251 45.0066 39.3815 45.0066H35.7065C35.4629 45.0066 35.2292 45.1034 35.0569 45.2757C34.8846 45.448 34.7878 45.6817 34.7878 45.9254V54.194C34.7878 54.4377 34.8846 54.6713 35.0569 54.8436C35.2292 55.0159 35.4629 55.1127 35.7065 55.1127H54.0813C54.3249 55.1127 54.5586 55.0159 54.7309 54.8436C54.9032 54.6713 55 54.4377 55 54.194V37.6567C55 37.413 54.9032 37.1794 54.7309 37.0071C54.5586 36.8348 54.3249 36.738 54.0813 36.738Z" fill="#6C6C6C"/>
<path d="M27.4379 5.50093C27.981 5.50077 28.512 5.34011 28.9642 5.03915C29.4164 4.73818 29.7695 4.31032 29.9793 3.80931C42.009 5.08176 51.325 15.3601 51.325 27.5506C51.325 27.7943 51.4218 28.028 51.5941 28.2003C51.7664 28.3726 52.0001 28.4694 52.2438 28.4694C52.4874 28.4694 52.7211 28.3726 52.8934 28.2003C53.0657 28.028 53.1625 27.7943 53.1625 27.5506C53.1625 14.3874 43.0771 3.29596 30.07 1.97298C29.9257 1.48308 29.6477 1.04306 29.2674 0.702196C28.8871 0.361336 28.4193 0.133106 27.9166 0.0430739C27.4139 -0.0469582 26.896 0.00476381 26.421 0.192446C25.946 0.380128 25.5327 0.696356 25.2272 1.10571C24.9218 1.51506 24.7364 2.00136 24.6918 2.51013C24.6472 3.01891 24.7451 3.53006 24.9746 3.98633C25.204 4.4426 25.556 4.82596 25.9911 5.09347C26.4262 5.36098 26.9271 5.50207 27.4379 5.50093Z" fill="#6C6C6C"/>
<path d="M27.4378 49.6003C26.8947 49.6005 26.3637 49.7612 25.9115 50.0621C25.4593 50.3631 25.1062 50.7909 24.8964 51.292C12.8667 50.0195 3.55067 39.7411 3.55067 27.5506C3.55067 27.307 3.45388 27.0733 3.28158 26.901C3.10928 26.7287 2.8756 26.6319 2.63193 26.6319C2.38827 26.6319 2.15458 26.7287 1.98229 26.901C1.80999 27.0733 1.7132 27.307 1.7132 27.5506C1.7132 40.7138 11.7986 51.8053 24.8057 53.1283C24.95 53.6182 25.228 54.0582 25.6083 54.3991C25.9886 54.7399 26.4564 54.9682 26.9591 55.0582C27.4618 55.1482 27.9797 55.0965 28.4547 54.9088C28.9297 54.7211 29.343 54.4049 29.6485 53.9956C29.9539 53.5862 30.1393 53.0999 30.1839 52.5911C30.2285 52.0824 30.1306 51.5712 29.9011 51.1149C29.6717 50.6587 29.3197 50.2753 28.8846 50.0078C28.4495 49.7403 27.9486 49.5992 27.4378 49.6003Z" fill="#6C6C6C"/>
<path d="M15.7515 6.10729C16.5784 3.94826 16.459 2.17509 15.407 1.11855C13.9462 -0.342248 11.1349 0.0619969 8.14898 1.92244C5.15389 0.0665907 2.35174 -0.337654 0.890951 1.11855C-0.165597 2.17509 -0.285033 3.94826 0.546424 6.10729C0.852508 6.89704 1.23402 7.65545 1.68566 8.37198C-0.170191 11.3579 -0.574435 14.16 0.881764 15.63C1.48813 16.2272 2.31499 16.5212 3.29345 16.5212C4.68074 16.5212 6.38041 15.924 8.1352 14.8307C9.89917 15.9286 11.5988 16.5258 12.9861 16.5258C13.9692 16.5258 14.796 16.2318 15.3978 15.6346C16.8586 14.1646 16.4544 11.3625 14.5939 8.37657C15.0522 7.6593 15.4399 6.89933 15.7515 6.10729ZM12.9861 2.05566C13.4731 2.05566 13.8589 2.1705 14.0978 2.42315C14.5939 2.91927 14.5755 4.04932 14.0335 5.45499C13.8643 5.88803 13.6679 6.30995 13.4455 6.71825C12.9097 6.04183 12.3345 5.39759 11.7229 4.7889C11.1176 4.18254 10.4747 3.61486 9.79811 3.08924C11.0476 2.40018 12.1639 2.05566 12.9861 2.05566ZM2.19096 14.33C1.52947 13.6685 1.77753 12.0056 2.85246 10.0303C3.37916 10.7102 3.95001 11.3547 4.56131 11.9596C5.16781 12.5693 5.81221 13.1401 6.49066 13.6685C4.51537 14.7434 2.85246 14.9915 2.19096 14.33ZM4.56131 4.79809C3.94967 5.40678 3.37446 6.05102 2.83867 6.72744C2.61629 6.31914 2.41991 5.89721 2.25068 5.46417C1.71322 4.04932 1.69485 2.91927 2.19096 2.42315C2.42984 2.1705 2.81571 2.05566 3.30264 2.05566C4.12491 2.05566 5.24117 2.40018 6.49066 3.08924C5.81234 3.61619 5.16795 4.18541 4.56131 4.7935V4.79809ZM8.14438 9.17587C7.96267 9.17587 7.78505 9.12199 7.63396 9.02104C7.48287 8.92009 7.36512 8.7766 7.29558 8.60872C7.22604 8.44084 7.20785 8.25612 7.2433 8.0779C7.27875 7.89968 7.36625 7.73598 7.49474 7.60749C7.62323 7.479 7.78693 7.3915 7.96515 7.35605C8.14336 7.3206 8.32809 7.3388 8.49597 7.40833C8.66385 7.47787 8.80733 7.59563 8.90829 7.74671C9.00924 7.8978 9.06312 8.07543 9.06312 8.25714C9.06312 8.5008 8.96632 8.73448 8.79403 8.90678C8.62173 9.07908 8.38805 9.17587 8.14438 9.17587ZM14.0978 14.33C13.4363 14.9915 11.7734 14.7434 9.79811 13.6685C10.4766 13.1401 11.121 12.5693 11.7275 11.9596C12.3388 11.3547 12.9096 10.7102 13.4363 10.0303C14.5112 12.0056 14.7593 13.6685 14.0978 14.33Z" fill="#6C6C6C"/>
</svg>
