<svg width="55" height="55" viewBox="0 0 55 55" fill="none" xmlns="http://www.w3.org/2000/svg">
<path d="M33.8105 14.0856C33.5955 13.8709 33.3042 13.7502 33.0005 13.7502H17.1877C16.5549 13.7502 16.0419 14.2632 16.0419 14.8961V40.1048C16.0419 40.7375 16.5549 41.2507 17.1877 41.2507H37.8131C38.4459 41.2507 38.9589 40.7375 38.9589 40.1048V19.7086C38.9589 19.4048 38.8381 19.1134 38.6233 18.8984C35.9335 16.208 34.9915 15.2658 33.8105 14.0856ZM33.2296 32.0838H21.7711C21.1383 32.0838 20.6253 31.5707 20.6253 30.938C20.6253 30.3053 21.1383 29.7921 21.7711 29.7921H33.2296C33.8625 29.7921 34.3755 30.3053 34.3755 30.938C34.3755 31.5707 33.8625 32.0838 33.2296 32.0838ZM34.3755 35.5214C34.3755 36.1541 33.8625 36.6673 33.2296 36.6673H21.7711C21.1383 36.6673 20.6253 36.1541 20.6253 35.5214C20.6253 34.8887 21.1383 34.3755 21.7711 34.3755H33.2296C33.8625 34.3755 34.3755 34.8887 34.3755 35.5214ZM33.2296 27.5004H21.7711C21.1383 27.5004 20.6253 26.9873 20.6253 26.3546C20.6253 25.7217 21.1383 25.2087 21.7711 25.2087H33.2296C33.8625 25.2087 34.3755 25.7217 34.3755 26.3546C34.3755 26.9873 33.8625 27.5004 33.2296 27.5004ZM29.7921 22.917H21.7711C21.1383 22.917 20.6253 22.4039 20.6253 21.7712C20.6253 21.1383 21.1383 20.6253 21.7711 20.6253H29.7921C30.4249 20.6253 30.9379 21.1383 30.9379 21.7712C30.9379 22.4039 30.4249 22.917 29.7921 22.917Z" fill="#6C6C6C"/>
<path d="M8.02093 46.9799H5.72923C5.09637 46.9799 4.58337 47.493 4.58337 48.1258C4.58337 48.7585 5.09637 49.2716 5.72923 49.2716H8.02093C8.65378 49.2716 9.16678 48.7585 9.16678 48.1258C9.16678 47.493 8.65378 46.9799 8.02093 46.9799Z" fill="#6C6C6C"/>
<path d="M9.16678 27.5005C9.16678 26.8676 8.65378 26.3546 8.02093 26.3546H5.72923C5.09637 26.3546 4.58337 26.8676 4.58337 27.5005C4.58337 28.1332 5.09637 28.6463 5.72923 28.6463H8.02093C8.65378 28.6463 9.16678 28.1332 9.16678 27.5005Z" fill="#6C6C6C"/>
<path d="M53.855 0H42.3964C41.7636 0 41.2506 0.513112 41.2506 1.14585V5.72926H21.1L21.4356 5.39364C21.8831 4.94618 21.8831 4.22063 21.4356 3.77306C20.9882 3.32572 20.2626 3.32572 19.815 3.77306C19.3702 4.218 17.5845 6.00277 17.5127 6.07657C17.0731 6.52838 17.083 7.24488 17.5233 7.68523L19.815 9.97693C20.2626 10.4244 20.988 10.4244 21.4356 9.97693C21.8831 9.52948 21.8831 8.80392 21.4356 8.35635L21.1 8.02096H41.2506V12.6044C41.2506 13.2371 41.7636 13.7502 42.3964 13.7502H53.855C54.4878 13.7502 55.0008 13.2371 55.0008 12.6044V1.14585C55.0008 0.513112 54.4878 0 53.855 0ZM52.7091 11.4585H43.5423V2.2917H52.7091V11.4585Z" fill="#6C6C6C"/>
<path d="M46.98 8.02095H49.2717C49.9045 8.02095 50.4175 7.50784 50.4175 6.8751C50.4175 6.24236 49.9045 5.72925 49.2717 5.72925H46.98C46.3471 5.72925 45.8341 6.24236 45.8341 6.8751C45.8341 7.50784 46.3471 8.02095 46.98 8.02095Z" fill="#6C6C6C"/>
<path d="M49.2716 41.348V21.1001L49.6072 21.4357C49.831 21.6594 50.1242 21.7713 50.4174 21.7713C50.7106 21.7713 51.004 21.6594 51.2277 21.4357C51.6751 20.9882 51.6751 20.2627 51.2277 19.8151L48.936 17.5234C48.4855 17.073 47.7585 17.0803 47.3154 17.5234L45.0237 19.8151C44.5762 20.2626 44.5762 20.9881 45.0237 21.4357C45.4711 21.883 46.1967 21.883 46.6443 21.4357L46.9799 21.1001V41.3481C43.7326 41.8954 41.2506 44.7255 41.2506 48.1259C41.2506 51.9168 44.3348 55.001 48.1257 55.001C51.9167 55.001 55.0008 51.9168 55.0008 48.1259C55.0008 44.7254 52.5188 41.8953 49.2716 41.348ZM49.2716 49.2716H46.9799C46.347 49.2716 45.834 48.7585 45.834 48.1258C45.834 47.493 46.347 46.9799 46.9799 46.9799H49.2716C49.9044 46.9799 50.4174 47.493 50.4174 48.1258C50.4174 48.7585 49.9044 49.2716 49.2716 49.2716Z" fill="#6C6C6C"/>
<path d="M37.4775 47.3155L35.1858 45.0238C34.7383 44.5765 34.0128 44.5765 33.5652 45.0238C33.1178 45.4713 33.1178 46.1969 33.5652 46.6444L33.9008 46.98H13.7502V42.3966C13.7502 41.7639 13.2372 41.2508 12.6044 41.2508H8.02096V34.3757H12.6044C13.2372 34.3757 13.7502 33.8626 13.7502 33.2298V21.7712C13.7502 21.1383 13.2372 20.6253 12.6044 20.6253H8.02096V13.6529C11.2682 13.1056 13.7502 10.2755 13.7502 6.87511C13.7502 3.08418 10.666 0 6.87511 0C3.08418 0 0 3.08418 0 6.87511C0 10.2755 2.48203 13.1056 5.72926 13.6529V20.6253H1.14585C0.512998 20.6253 0 21.1383 0 21.7712V33.2297C0 33.8624 0.512998 34.3756 1.14585 34.3756H5.72926V41.2507H1.14585C0.512998 41.2507 0 41.7638 0 42.3965V53.855C0 54.4878 0.512998 55.0009 1.14585 55.0009H12.6044C13.2372 55.0009 13.7502 54.4878 13.7502 53.855V49.2716H33.9009L33.5653 49.6073C33.1179 50.0547 33.1179 50.7803 33.5653 51.2278C33.7891 51.4515 34.0823 51.5634 34.3756 51.5634C34.6688 51.5634 34.9621 51.4515 35.1858 51.2278C35.6306 50.7828 37.4163 48.9981 37.4881 48.9243C37.9232 48.477 37.9219 47.7598 37.4775 47.3155ZM5.72926 5.72926H8.02096C8.65382 5.72926 9.16681 6.24237 9.16681 6.87511C9.16681 7.50785 8.65382 8.02096 8.02096 8.02096H5.72926C5.09641 8.02096 4.58341 7.50785 4.58341 6.87511C4.58341 6.24237 5.09641 5.72926 5.72926 5.72926ZM2.2917 22.917H11.4585V32.0839H2.2917V22.917ZM11.4585 52.7092H2.2917V43.5424H11.4585V52.7092Z" fill="#6C6C6C"/>
</svg>
