<svg width="59" height="59" viewBox="0 0 59 59" fill="none" xmlns="http://www.w3.org/2000/svg">
<path d="M11.8003 36.3843H17.7006C17.9614 36.3843 18.2115 36.2807 18.3959 36.0962C18.5804 35.9118 18.684 35.6617 18.684 35.4009C18.684 35.1401 18.5804 34.89 18.3959 34.7055C18.2115 34.5211 17.9614 34.4175 17.7006 34.4175H11.8003C10.2807 34.4192 8.80324 33.9174 7.5989 32.9905C6.39457 32.0637 5.53116 30.7641 5.14358 29.2946C4.75601 27.8252 4.86609 26.2688 5.45663 24.8685C6.04717 23.4683 7.08491 22.3031 8.4077 21.555C8.5732 21.4581 8.70747 21.3159 8.79462 21.1451C8.88176 20.9743 8.91812 20.7821 8.89939 20.5913C8.86989 20.2864 8.85022 19.9816 8.85022 19.6669C8.85027 18.2019 9.21397 16.7598 9.90871 15.4701C10.6035 14.1803 11.6075 13.0831 12.8308 12.277C14.054 11.471 15.4583 10.9811 16.9175 10.8515C18.3768 10.7219 19.8454 10.9565 21.1916 11.5344C21.3141 11.5879 21.4463 11.6155 21.58 11.6155C21.7137 11.6155 21.8459 11.5879 21.9684 11.5344C22.2119 11.4241 22.4025 11.2229 22.4995 10.9739C23.7386 7.61679 26.2368 4.87448 29.4641 3.32859C32.6914 1.7827 36.394 1.55485 39.7865 2.69336C43.179 3.83187 45.9946 6.24719 47.636 9.427C49.2774 12.6068 49.6155 16.301 48.5786 19.7259C48.5018 19.975 48.527 20.2443 48.6487 20.4748C48.7704 20.7053 48.9786 20.8781 49.2276 20.9551C50.8028 21.4402 52.1516 22.4743 53.029 23.8695C53.9063 25.2647 54.254 26.9284 54.0088 28.5582C53.7635 30.188 52.9417 31.6757 51.6925 32.7509C50.4434 33.8261 48.85 34.4175 47.2018 34.4175H41.3016C41.0408 34.4175 40.7907 34.5211 40.6062 34.7055C40.4218 34.89 40.3182 35.1401 40.3182 35.4009C40.3182 35.6617 40.4218 35.9118 40.6062 36.0962C40.7907 36.2807 41.0408 36.3843 41.3016 36.3843H47.2018C49.2405 36.3864 51.2173 35.6847 52.7983 34.3977C54.3793 33.1107 55.4676 31.3174 55.8792 29.3207C56.2908 27.3241 56.0004 25.2466 55.0573 23.4393C54.1141 21.632 52.5759 20.2057 50.7027 19.4014C50.9887 18.1997 51.1339 16.9687 51.1353 15.7334C51.137 12.1259 49.8983 8.62754 47.627 5.82484C45.3557 3.02215 42.1899 1.08555 38.6604 0.339753C35.1308 -0.406039 31.4522 0.0843231 28.2412 1.72862C25.0303 3.37292 22.4822 6.07117 21.0244 9.37096C19.4014 8.84824 17.6778 8.71639 15.9942 8.98616C14.3105 9.25593 12.7144 9.91968 11.336 10.9233C9.95754 11.927 8.83573 13.2421 8.06197 14.7616C7.28821 16.281 6.88441 17.9618 6.88347 19.6669C6.88347 19.8341 6.88347 20.0012 6.89331 20.1684C5.3123 21.2217 4.11217 22.7558 3.47034 24.5438C2.82852 26.3319 2.77907 28.279 3.32931 30.0973C3.87954 31.9156 5.00026 33.5086 6.52577 34.6408C8.05127 35.773 9.9006 36.3843 11.8003 36.3843Z" fill="#6C6C6C"/>
<path d="M30.4846 12.7833V9.83314C30.4846 9.57233 30.381 9.3222 30.1965 9.13779C30.0121 8.95337 29.762 8.84976 29.5012 8.84976C29.2404 8.84976 28.9903 8.95337 28.8058 9.13779C28.6214 9.3222 28.5178 9.57233 28.5178 9.83314V12.7833C28.5178 13.0441 28.6214 13.2942 28.8058 13.4786C28.9903 13.663 29.2404 13.7666 29.5012 13.7666C29.762 13.7666 30.0121 13.663 30.1965 13.4786C30.381 13.2942 30.4846 13.0441 30.4846 12.7833Z" fill="#6C6C6C"/>
<path d="M11.8003 25.5672C11.5395 25.5672 11.2893 25.6708 11.1049 25.8552C10.9205 26.0396 10.8169 26.2897 10.8169 26.5505C10.8169 26.8114 10.9205 27.0615 11.1049 27.2459C11.2893 27.4303 11.5395 27.5339 11.8003 27.5339H14.7504C15.0112 27.5339 15.2613 27.4303 15.4457 27.2459C15.6302 27.0615 15.7338 26.8114 15.7338 26.5505C15.7338 26.2897 15.6302 26.0396 15.4457 25.8552C15.2613 25.6708 15.0112 25.5672 14.7504 25.5672H11.8003Z" fill="#6C6C6C"/>
<path d="M44.2517 27.5339H47.2018C47.4626 27.5339 47.7127 27.4303 47.8972 27.2459C48.0816 27.0615 48.1852 26.8114 48.1852 26.5505C48.1852 26.2897 48.0816 26.0396 47.8972 25.8552C47.7127 25.6708 47.4626 25.5672 47.2018 25.5672H44.2517C43.9909 25.5672 43.7408 25.6708 43.5563 25.8552C43.3719 26.0396 43.2683 26.2897 43.2683 26.5505C43.2683 26.8114 43.3719 27.0615 43.5563 27.2459C43.7408 27.4303 43.9909 27.5339 44.2517 27.5339Z" fill="#6C6C6C"/>
<path d="M19.3791 17.412C19.5635 17.2276 19.6671 16.9775 19.6671 16.7168C19.6671 16.456 19.5635 16.2059 19.3791 16.0215L17.4124 14.0548C17.2269 13.8756 16.9785 13.7765 16.7207 13.7788C16.4628 13.781 16.2162 13.8844 16.0339 14.0667C15.8515 14.2491 15.7481 14.4957 15.7459 14.7535C15.7436 15.0114 15.8428 15.2598 16.0219 15.4453L17.9886 17.412C18.1731 17.5964 18.4231 17.6999 18.6839 17.6999C18.9446 17.6999 19.1947 17.5964 19.3791 17.412Z" fill="#6C6C6C"/>
<path d="M41.5897 14.0548L39.623 16.0215C39.529 16.1122 39.4541 16.2207 39.4026 16.3407C39.3511 16.4607 39.3239 16.5897 39.3228 16.7203C39.3217 16.8509 39.3465 16.9804 39.396 17.1012C39.4454 17.2221 39.5184 17.3319 39.6108 17.4242C39.7031 17.5165 39.8129 17.5895 39.9338 17.639C40.0546 17.6884 40.1841 17.7133 40.3147 17.7122C40.4452 17.711 40.5743 17.6839 40.6943 17.6324C40.8142 17.5808 40.9227 17.5059 41.0135 17.412L42.9802 15.4453C43.1593 15.2598 43.2585 15.0114 43.2562 14.7535C43.254 14.4957 43.1506 14.2491 42.9682 14.0667C42.7859 13.8844 42.5393 13.781 42.2814 13.7788C42.0236 13.7765 41.7752 13.8756 41.5897 14.0548Z" fill="#6C6C6C"/>
<path d="M36.3848 37.112C38.4134 35.6551 39.9274 33.5921 40.709 31.22C41.4906 28.8478 41.4994 26.2889 40.7341 23.9115C39.9688 21.5341 38.469 19.4607 36.4504 17.9899C34.4319 16.5191 31.9987 15.7267 29.5012 15.7267C27.0036 15.7267 24.5705 16.5191 22.5519 17.9899C20.5334 19.4607 19.0335 21.5341 18.2683 23.9115C17.503 26.2889 17.5118 28.8478 18.2934 31.22C19.0749 33.5921 20.589 35.6551 22.6176 37.112V40.3178C22.6183 40.4597 22.6493 40.5998 22.7087 40.7287C22.7681 40.8576 22.8544 40.9723 22.9617 41.0651C23.1393 41.2185 23.3663 41.3023 23.6009 41.3011C23.6536 41.3028 23.7062 41.2995 23.7583 41.2913L35.5588 39.3246C35.7898 39.2871 35.9999 39.1685 36.1513 38.9901C36.3027 38.8116 36.3855 38.585 36.3848 38.351V37.112ZM31.4679 26.5505C31.7287 26.5505 31.9789 26.6541 32.1633 26.8385C32.3477 27.023 32.4513 27.2731 32.4513 27.5339C32.4513 27.7947 32.3477 28.0448 32.1633 28.2292C31.9789 28.4137 31.7287 28.5173 31.4679 28.5173H28.5178V30.484H32.4513C32.7121 30.484 32.9622 30.5876 33.1467 30.772C33.3311 30.9565 33.4347 31.2066 33.4347 31.4674C33.4347 31.7282 33.3311 31.9783 33.1467 32.1627C32.9622 32.3472 32.7121 32.4508 32.4513 32.4508H26.5511C26.2903 32.4508 26.0401 32.3472 25.8557 32.1627C25.6713 31.9783 25.5677 31.7282 25.5677 31.4674C25.5677 31.2066 25.6713 30.9565 25.8557 30.772C26.0401 30.5876 26.2903 30.484 26.5511 30.484V28.5173C26.2903 28.5173 26.0401 28.4137 25.8557 28.2292C25.6713 28.0448 25.5677 27.7947 25.5677 27.5339C25.5677 27.2731 25.6713 27.023 25.8557 26.8385C26.0401 26.6541 26.2903 26.5505 26.5511 26.5505V24.5838C26.2903 24.5838 26.0401 24.4802 25.8557 24.2957C25.6713 24.1113 25.5677 23.8612 25.5677 23.6004C25.5677 23.3396 25.6713 23.0895 25.8557 22.905C26.0401 22.7206 26.2903 22.617 26.5511 22.617H32.4513C32.7121 22.617 32.9622 22.7206 33.1467 22.905C33.3311 23.0895 33.4347 23.3396 33.4347 23.6004C33.4347 23.8612 33.3311 24.1113 33.1467 24.2957C32.9622 24.4802 32.7121 24.5838 32.4513 24.5838H28.5178V26.5505H31.4679Z" fill="#6C6C6C"/>
<path d="M35.244 41.311L23.4435 43.2777C23.1953 43.3127 22.9699 43.4411 22.8132 43.6368C22.6566 43.8324 22.5805 44.0805 22.6006 44.3303C22.6207 44.5801 22.7354 44.8128 22.9213 44.9809C23.1072 45.149 23.3503 45.2398 23.6009 45.2346C23.6535 45.2363 23.7062 45.233 23.7582 45.2248L35.5587 43.2581C35.8169 43.2163 36.0479 43.0737 36.201 42.8617C36.3541 42.6496 36.4166 42.3854 36.3749 42.1272C36.3332 41.869 36.1906 41.6379 35.9785 41.4849C35.7664 41.3318 35.5022 41.2692 35.244 41.311Z" fill="#6C6C6C"/>
<path d="M55.0688 39.3344C54.1124 39.3333 53.1884 39.6812 52.4704 40.3129C51.7523 40.9446 51.2895 41.8167 51.1688 42.7655C51.0481 43.7142 51.2778 44.6744 51.8148 45.4658C52.3518 46.2572 53.1592 46.8254 54.0854 47.0638V57.0352H32.4511V52.9247C33.0242 52.7206 33.5205 52.3448 33.8724 51.8486C34.2243 51.3524 34.4148 50.7599 34.4179 50.1515V47.3784L35.5586 47.1916C35.8168 47.1499 36.0479 47.0073 36.2009 46.7952C36.354 46.5831 36.4165 46.3189 36.3748 46.0607C36.3331 45.8025 36.1905 45.5715 35.9784 45.4184C35.7663 45.2653 35.5021 45.2028 35.2439 45.2445L23.4434 47.2113C23.1953 47.2462 22.9698 47.3747 22.8131 47.5703C22.6565 47.7659 22.5804 48.014 22.6005 48.2638C22.6206 48.5136 22.7353 48.7464 22.9212 48.9144C23.1071 49.0825 23.3502 49.1733 23.6008 49.1682C23.6534 49.1698 23.7061 49.1665 23.7581 49.1583L24.5841 49.0207V50.1515C24.5873 50.7599 24.7778 51.3524 25.1297 51.8486C25.4816 52.3448 25.9778 52.7206 26.5509 52.9247V57.0352H4.91664V47.0638C5.84363 46.8244 6.6515 46.2552 7.18883 45.4628C7.72616 44.6704 7.95605 43.7093 7.83541 42.7595C7.71478 41.8098 7.2519 40.9366 6.53354 40.3037C5.81518 39.6708 4.89065 39.3217 3.93327 39.3217C2.97588 39.3217 2.05135 39.6708 1.33299 40.3037C0.614632 40.9366 0.151752 41.8098 0.0311166 42.7595C-0.0895184 43.7093 0.140374 44.6704 0.677702 45.4628C1.21503 46.2552 2.0229 46.8244 2.94989 47.0638V58.0185C2.94989 58.2794 3.0535 58.5295 3.23791 58.7139C3.42233 58.8983 3.67246 59.0019 3.93327 59.0019H27.5343C27.7951 59.0019 28.0452 58.8983 28.2296 58.7139C28.414 58.5295 28.5176 58.2794 28.5176 58.0185V53.1017H30.4844V58.0185C30.4844 58.2794 30.588 58.5295 30.7724 58.7139C30.9568 58.8983 31.207 59.0019 31.4678 59.0019H55.0688C55.3296 59.0019 55.5797 58.8983 55.7641 58.7139C55.9485 58.5295 56.0521 58.2794 56.0521 58.0185V47.0638C56.9784 46.8254 57.7857 46.2572 58.3227 45.4658C58.8597 44.6744 59.0895 43.7142 58.9687 42.7655C58.848 41.8167 58.3852 40.9446 57.6672 40.3129C56.9491 39.6812 56.0252 39.3333 55.0688 39.3344Z" fill="#6C6C6C"/>
</svg>
