<svg width="58" height="60" viewBox="0 0 58 60" fill="none" xmlns="http://www.w3.org/2000/svg">
<path d="M51.5999 42.41V47.53H50.1599V42.71L44.8799 37.43L45.8999 36.41L51.3899 41.9C51.5299 42.04 51.5999 42.22 51.5999 42.41Z" fill="#6C6C6C"/>
<path d="M12.95 37.43L7.65997 42.71V47.53H6.21997V42.41C6.21997 42.22 6.29997 42.04 6.42997 41.9L11.93 36.41L12.95 37.43Z" fill="#6C6C6C"/>
<path d="M28.1899 43.91H29.6299V47.53H28.1899V43.91Z" fill="#6C6C6C"/>
<path d="M34.54 19.47V20.69L35.59 20.7C35.75 20.7 35.91 20.64 36.02 20.52C36.14 20.4 36.2 20.25 36.2 20.08C36.2 19.74 35.92 19.47 35.59 19.47H34.54Z" fill="#6C6C6C"/>
<path d="M44.1299 30.17C45.0499 28.66 45.7299 27.01 46.1499 25.28C46.2099 25.03 46.3999 24.83 46.6499 24.76L49.8999 23.81V18.19L46.6499 17.24C46.3999 17.17 46.2099 16.97 46.1499 16.72C45.7299 14.99 45.0499 13.34 44.1299 11.83C43.9999 11.61 43.9899 11.34 44.1099 11.11L45.7299 8.15L41.7599 4.18L38.8099 5.79C38.5799 5.91 38.3099 5.91 38.0899 5.77C36.5799 4.85 34.9299 4.17 33.1999 3.75C32.9499 3.69 32.7499 3.5 32.6799 3.25L31.7199 0H26.0999L25.1499 3.26C25.0799 3.51 24.8799 3.7 24.6299 3.76C22.8899 4.18 21.2499 4.86 19.7399 5.78C19.5199 5.92 19.2499 5.92 19.0199 5.8L16.0599 4.18L12.0799 8.15L13.7099 11.11C13.8299 11.34 13.8299 11.61 13.6899 11.83C12.7699 13.34 12.0899 14.99 11.6699 16.72C11.6099 16.97 11.4199 17.17 11.1699 17.24L7.91992 18.19V23.81L11.1699 24.76C11.4299 24.83 11.6199 25.05 11.6699 25.31C11.7099 25.46 11.7299 25.52 11.7399 25.58C12.1499 27.17 12.8099 28.73 13.6899 30.17C13.8199 30.39 13.8299 30.67 13.7099 30.89L12.0799 33.85L16.0599 37.83L19.0199 36.2C19.2499 36.08 19.5199 36.08 19.7399 36.22C21.2499 37.14 22.8999 37.82 24.6299 38.24C24.8799 38.3 25.0799 38.49 25.1499 38.74L26.0999 41.99H31.7199L32.6699 38.74C32.7399 38.49 32.9399 38.3 33.1899 38.24C34.9299 37.82 36.5699 37.14 38.0799 36.22C38.2999 36.08 38.5799 36.08 38.7999 36.2L41.7599 37.83L45.7299 33.85L44.1099 30.89C43.9899 30.67 43.9999 30.39 44.1299 30.17ZM28.9099 33.12C22.2199 33.12 16.7799 27.68 16.7799 21C16.7799 14.32 22.2199 8.87 28.9099 8.87C35.5999 8.87 41.0299 14.31 41.0299 20.99C41.0299 27.67 35.5999 33.12 28.9099 33.12Z" fill="#6C6C6C"/>
<path d="M0 60H13.42V49.45H0V60ZM2.47 50.98H10.94C11.34 50.98 11.66 51.3 11.66 51.7C11.66 52.1 11.34 52.42 10.94 52.42H2.47C2.07 52.42 1.75 52.1 1.75 51.7C1.75 51.3 2.07 50.98 2.47 50.98ZM2.47 54.01H10.94C11.34 54.01 11.66 54.33 11.66 54.73C11.66 55.13 11.34 55.45 10.94 55.45H2.47C2.07 55.45 1.75 55.13 1.75 54.73C1.75 54.33 2.07 54.01 2.47 54.01ZM2.47 57.03H10.94C11.34 57.03 11.66 57.35 11.66 57.75C11.66 58.15 11.34 58.47 10.94 58.47H2.47C2.07 58.47 1.75 58.15 1.75 57.75C1.75 57.35 2.07 57.03 2.47 57.03Z" fill="#6C6C6C"/>
<path d="M44.3999 60H57.8199V49.45H44.3999V60ZM46.8799 50.98H55.3499C55.7499 50.98 56.0699 51.3 56.0699 51.7C56.0699 52.1 55.7499 52.42 55.3499 52.42H46.8799C46.4799 52.42 46.1599 52.1 46.1599 51.7C46.1599 51.3 46.4799 50.98 46.8799 50.98ZM46.8799 54.01H55.3499C55.7499 54.01 56.0699 54.33 56.0699 54.73C56.0699 55.13 55.7499 55.45 55.3499 55.45H46.8799C46.4799 55.45 46.1599 55.13 46.1599 54.73C46.1599 54.33 46.4799 54.01 46.8799 54.01ZM46.8799 57.03H55.3499C55.7499 57.03 56.0699 57.35 56.0699 57.75C56.0699 58.15 55.7499 58.47 55.3499 58.47H46.8799C46.4799 58.47 46.1599 58.15 46.1599 57.75C46.1599 57.35 46.4799 57.03 46.8799 57.03Z" fill="#6C6C6C"/>
<path d="M22.2 60H35.6199V49.45H22.2V60ZM24.67 50.98H33.1399C33.5399 50.98 33.86 51.3 33.86 51.7C33.86 52.1 33.5399 52.42 33.1399 52.42H24.67C24.27 52.42 23.95 52.1 23.95 51.7C23.95 51.3 24.28 50.98 24.67 50.98ZM24.67 54.01H33.1399C33.5399 54.01 33.86 54.33 33.86 54.73C33.86 55.13 33.5399 55.45 33.1399 55.45H24.67C24.27 55.45 23.95 55.13 23.95 54.73C23.95 54.33 24.28 54.01 24.67 54.01ZM24.67 57.03H33.1399C33.5399 57.03 33.86 57.35 33.86 57.75C33.86 58.15 33.5399 58.47 33.1399 58.47H24.67C24.27 58.47 23.95 58.15 23.95 57.75C23.95 57.35 24.28 57.03 24.67 57.03Z" fill="#6C6C6C"/>
<path d="M28.91 10.31C23.02 10.31 18.22 15.1 18.22 20.99C18.22 26.88 23.02 31.68 28.91 31.68C34.8 31.68 39.59 26.89 39.59 21C39.59 15.11 34.8 10.31 28.91 10.31ZM25.08 23.18C25.08 23.48 24.89 23.75 24.61 23.86C24.33 23.96 24.01 23.88 23.81 23.65L21.37 20.74V23.25C21.37 23.65 21.05 23.97 20.65 23.97C20.25 23.97 19.93 23.65 19.93 23.25V18.76C19.93 18.46 20.12 18.19 20.4 18.08C20.69 17.98 21 18.06 21.2 18.29L23.64 21.2V18.75C23.64 18.35 23.96 18.03 24.36 18.03C24.76 18.03 25.08 18.35 25.08 18.75V23.18ZM31.47 23.96H28.26C27.86 23.96 27.54 23.64 27.54 23.24V18.75C27.54 18.35 27.86 18.03 28.26 18.03C28.66 18.03 28.98 18.35 28.98 18.75V22.52H31.47C31.87 22.52 32.19 22.84 32.19 23.24C32.19 23.64 31.87 23.96 31.47 23.96ZM37.66 20.08C37.66 20.63 37.44 21.15 37.05 21.54C36.66 21.92 36.15 22.14 35.6 22.14C35.6 22.14 35.59 22.14 35.58 22.14L34.54 22.13V23.24C34.54 23.64 34.22 23.96 33.82 23.96C33.42 23.96 33.1 23.64 33.1 23.24V18.75C33.1 18.35 33.42 18.03 33.82 18.03H35.6C36.73 18.03 37.66 18.95 37.66 20.08Z" fill="#6C6C6C"/>
</svg>
