<svg width="56" height="57" viewBox="0 0 56 57" fill="none" xmlns="http://www.w3.org/2000/svg">
<path d="M20.63 53.02H12.5C10.294 53.02 8.5 51.226 8.5 49.02V20.68C8.5 20.128 8.947 19.68 9.5 19.68C10.053 19.68 10.5 20.128 10.5 20.68V49.02C10.5 50.123 11.397 51.02 12.5 51.02H20.63C21.183 51.02 21.63 51.468 21.63 52.02C21.63 52.572 21.183 53.02 20.63 53.02Z" fill="#6C6C6C"/>
<path d="M46.5 29.98C45.947 29.98 45.5 29.532 45.5 28.98V14.694L35.826 5.01999H15.97C15.417 5.01999 14.97 4.57199 14.97 4.01999C14.97 3.46799 15.417 3.01999 15.97 3.01999H36.241C36.507 3.01999 36.761 3.12499 36.948 3.31299L47.208 13.573C47.396 13.761 47.501 14.015 47.501 14.28V28.98C47.501 29.532 47.053 29.98 46.5 29.98Z" fill="#6C6C6C"/>
<path d="M43.5 53.02H31.63C31.077 53.02 30.63 52.572 30.63 52.02C30.63 51.468 31.077 51.02 31.63 51.02H43.5C44.053 51.02 44.5 51.468 44.5 52.02C44.5 52.572 44.053 53.02 43.5 53.02Z" fill="#6C6C6C"/>
<path d="M46.5 15.28H39.24C37.034 15.28 35.24 13.486 35.24 11.28V4.01999C35.24 3.46799 35.687 3.01999 36.24 3.01999C36.793 3.01999 37.24 3.46799 37.24 4.01999V11.28C37.24 12.383 38.137 13.28 39.24 13.28H46.5C47.053 13.28 47.5 13.728 47.5 14.28C47.5 14.832 47.053 15.28 46.5 15.28Z" fill="#6C6C6C"/>
<path d="M19.38 20.71H14.72C14.17 20.71 13.72 21.16 13.72 21.71V26.38C13.72 26.93 14.17 27.38 14.72 27.38H19.38C19.94 27.38 20.38 26.93 20.38 26.38V21.71C20.38 21.16 19.94 20.71 19.38 20.71ZM18.38 25.38H15.72V22.71H18.38V25.38Z" fill="#6C6C6C"/>
<path d="M33.456 23.677H23.241C22.688 23.677 22.241 23.229 22.241 22.677C22.241 22.125 22.688 21.677 23.241 21.677H33.456C34.009 21.677 34.456 22.125 34.456 22.677C34.456 23.229 34.009 23.677 33.456 23.677Z" fill="#6C6C6C"/>
<path d="M28.411 26.416H23.241C22.688 26.416 22.241 25.968 22.241 25.416C22.241 24.864 22.688 24.416 23.241 24.416H28.411C28.964 24.416 29.411 24.864 29.411 25.416C29.411 25.968 28.964 26.416 28.411 26.416Z" fill="#6C6C6C"/>
<path d="M19.38 29.93H14.72C14.17 29.93 13.72 30.38 13.72 30.93V35.59C13.72 36.15 14.17 36.59 14.72 36.59H19.38C19.94 36.59 20.38 36.15 20.38 35.59V30.93C20.38 30.38 19.94 29.93 19.38 29.93ZM18.38 34.59H15.72V31.93H18.38V34.59Z" fill="#6C6C6C"/>
<path d="M33.456 32.893H23.241C22.688 32.893 22.241 32.445 22.241 31.893C22.241 31.341 22.688 30.893 23.241 30.893H33.456C34.009 30.893 34.456 31.341 34.456 31.893C34.456 32.445 34.009 32.893 33.456 32.893Z" fill="#6C6C6C"/>
<path d="M28.411 35.631H23.241C22.688 35.631 22.241 35.183 22.241 34.631C22.241 34.079 22.688 33.631 23.241 33.631H28.411C28.964 33.631 29.411 34.079 29.411 34.631C29.411 35.183 28.964 35.631 28.411 35.631Z" fill="#6C6C6C"/>
<path d="M19.38 39.15H14.72C14.17 39.15 13.72 39.59 13.72 40.15V44.81C13.72 45.36 14.17 45.81 14.72 45.81H19.38C19.94 45.81 20.38 45.36 20.38 44.81V40.15C20.38 39.59 19.94 39.15 19.38 39.15ZM18.38 43.81H15.72V41.15H18.38V43.81Z" fill="#6C6C6C"/>
<path d="M25.956 42.108H23.241C22.688 42.108 22.241 41.66 22.241 41.108C22.241 40.556 22.688 40.108 23.241 40.108H25.956C26.509 40.108 26.956 40.556 26.956 41.108C26.956 41.66 26.509 42.108 25.956 42.108Z" fill="#6C6C6C"/>
<path d="M24.502 44.847H23.241C22.688 44.847 22.241 44.399 22.241 43.847C22.241 43.295 22.688 42.847 23.241 42.847H24.502C25.055 42.847 25.502 43.295 25.502 43.847C25.502 44.399 25.055 44.847 24.502 44.847Z" fill="#6C6C6C"/>
<path d="M18.42 4.07L16.18 3.02L9.92 0.09C9.65 -0.03 9.35 -0.03 9.08 0.09L0.58 4.07C0.22 4.23 0 4.59 0 4.97V9.98C0 13.58 1.79 16.88 4.79 18.81L8.5 21.22L8.96 21.52C9.12 21.63 9.31 21.68 9.5 21.68C9.69 21.68 9.88 21.63 10.04 21.52L10.5 21.22L14.21 18.81C17.21 16.88 19 13.58 19 9.98V4.97C19 4.59 18.78 4.23 18.42 4.07ZM13.69 8.58L9.38 12.89C9.19 13.08 8.93 13.18 8.67 13.18C8.42 13.18 8.16 13.08 7.97 12.89L5.31 10.23C4.92 9.84 4.92 9.21 5.31 8.82C5.71 8.43 6.34 8.43 6.73 8.82L8.67 10.77L12.27 7.17C12.66 6.78 13.29 6.78 13.69 7.17C14.08 7.56 14.08 8.19 13.69 8.58Z" fill="#6C6C6C"/>
<path d="M46.2 54.5L44.36 51.51L44.35 51.5C44.32 51.46 44.3 51.42 44.27 51.39C44.25 51.36 44.22 51.33 44.19 51.3C44.13 51.24 44.07 51.19 44 51.16C43.95 51.12 43.9 51.1 43.84 51.08C43.8 51.07 43.76 51.05 43.72 51.04C43.65 51.03 43.57 51.02 43.5 51.02H25.61C25.28 51.02 24.97 51.19 24.78 51.46L22.76 54.46C22.55 54.77 22.53 55.16 22.7 55.49C22.88 55.82 23.22 56.02 23.59 56.02H45.35C45.71 56.02 46.04 55.82 46.22 55.51C46.4 55.19 46.39 54.8 46.2 54.5ZM25.47 54.02L26.14 53.02H42.94L43.56 54.02H25.47Z" fill="#6C6C6C"/>
<path d="M54.86 50.01L44.28 40.49L45.48 39.29L45.9 39.72C46.09 39.9 46.34 40.01 46.61 40.01C46.88 40.01 47.13 39.9 47.32 39.72L49.53 37.5C49.92 37.1 49.92 36.47 49.53 36.08L41.92 28.46C41.73 28.28 41.48 28.17 41.21 28.17C40.94 28.17 40.69 28.28 40.5 28.46L38.28 30.68C37.89 31.07 37.89 31.7 38.28 32.09L38.7 32.52L32.5 38.73L32.08 38.3C31.69 37.91 31.05 37.91 30.66 38.3L28.44 40.52C28.26 40.71 28.15 40.96 28.15 41.23C28.15 41.5 28.26 41.75 28.44 41.94L36.06 49.55C36.45 49.94 37.09 49.94 37.47 49.55L39.7 47.34C39.88 47.15 39.99 46.9 39.99 46.63C39.99 46.37 39.88 46.11 39.7 45.92L39.27 45.5L40.47 44.3L49.99 54.88C50.63 55.59 51.51 55.99 52.46 56.02H52.55C53.47 56.02 54.33 55.66 54.99 55.01C55.66 54.33 56.02 53.43 56 52.48C55.97 51.53 55.57 50.65 54.86 50.01ZM38.57 46.21C38.37 46.4 38.12 46.5 37.86 46.5C37.61 46.5 37.35 46.4 37.15 46.21L31.79 40.84C31.4 40.45 31.4 39.82 31.79 39.43C32.18 39.04 32.81 39.04 33.2 39.43L38.57 44.79C38.96 45.18 38.96 45.82 38.57 46.21ZM39.41 33.22C39.02 32.83 39.02 32.2 39.41 31.81C39.8 31.42 40.43 31.42 40.82 31.81L46.19 37.17C46.58 37.57 46.58 38.2 46.19 38.59C45.99 38.78 45.73 38.88 45.48 38.88C45.22 38.88 44.97 38.78 44.77 38.59L39.41 33.22Z" fill="#6C6C6C"/>
</svg>
