<svg width="52" height="54" viewBox="0 0 52 54" fill="none" xmlns="http://www.w3.org/2000/svg">
<path d="M18.5514 12.5413C18.5514 13.8206 18.1594 15.0082 17.4945 15.9975C17.2416 15.6062 16.9251 15.2592 16.5639 14.9692C15.9552 14.4756 15.2148 14.1444 14.4075 14.0305C14.4946 13.9588 14.5817 13.8807 14.6635 13.8006C15.2722 13.1963 15.6482 12.3599 15.6482 11.436C15.6482 10.5152 15.2722 9.67781 14.6635 9.07453C14.0527 8.46809 13.2125 8.09367 12.2819 8.09367C11.3514 8.09367 10.5111 8.46703 9.90351 9.07453C9.29271 9.67887 8.9156 10.5152 8.9156 11.436C8.9156 12.3599 9.29165 13.1973 9.90351 13.8006C9.98531 13.8818 10.0692 13.9588 10.1595 14.0305C9.34901 14.1444 8.60861 14.4756 8.00099 14.9692C7.63982 15.2592 7.32645 15.6062 7.07045 15.9975C6.40547 15.0082 6.01668 13.8206 6.01668 12.5413C6.01668 10.8221 6.71777 9.26754 7.85015 8.14008C8.98571 7.01262 10.5515 6.31652 12.283 6.31652C14.0145 6.31652 15.5803 7.01262 16.7158 8.14008C17.8503 9.26754 18.5514 10.8221 18.5514 12.5413ZM14.4298 28.1686C15.3211 33.7447 16.8295 39.2428 19.465 43.9267H1.25241C0.563001 43.9267 0 43.3677 0 42.6832V1.24348C0 0.558984 0.563001 0 1.25241 0H23.2222V9.9109C23.2222 10.3918 23.6142 10.781 24.0986 10.781H34.0775V17.26H24.9781C23.8096 17.26 22.843 18.1723 22.7856 19.3314C22.6199 22.7275 19.8888 25.4602 16.4747 25.6511C15.848 25.6869 15.2796 25.977 14.8877 26.4579C14.4957 26.942 14.3332 27.5558 14.4298 28.1686ZM12.283 20.5052C14.4989 20.5052 16.5044 19.614 17.9555 18.1733C19.4065 16.7326 20.3042 14.7382 20.3042 12.5413C20.3042 10.3412 19.4065 8.34996 17.9555 6.90926C16.5044 5.46855 14.4989 4.57734 12.283 4.57734C10.0671 4.57734 8.06154 5.46855 6.61049 6.90926C5.15943 8.34996 4.26181 10.3412 4.26181 12.5413C4.26181 14.7382 5.15943 16.7326 6.61049 18.1733C8.06154 19.6151 10.066 20.5052 12.283 20.5052ZM15.4624 16.3139C15.0077 15.949 14.4266 15.7275 13.7967 15.7275H10.7703C10.1383 15.7275 9.55721 15.949 9.10469 16.3139C8.76157 16.5923 8.48751 16.9509 8.31861 17.3602C9.39681 18.2366 10.7788 18.7618 12.2809 18.7618C13.7861 18.7618 15.166 18.2355 16.2463 17.3602C16.0763 16.9509 15.8055 16.5923 15.4624 16.3139ZM24.975 0.872227V9.03656H33.2011L24.975 0.872227ZM12.283 13.038C12.7291 13.038 13.1317 12.8587 13.4239 12.5687C13.716 12.2787 13.8934 11.8779 13.8934 11.436C13.8934 10.9962 13.716 10.5954 13.4239 10.3064C13.1317 10.0174 12.7281 9.83707 12.283 9.83707C11.8368 9.83707 11.4342 10.0164 11.1442 10.3064C10.8521 10.5964 10.6715 10.9972 10.6715 11.436C10.6715 11.8789 10.8521 12.2787 11.1442 12.5687C11.4332 12.8577 11.8368 13.038 12.283 13.038ZM51.9937 27.8933C49.4496 43.8107 42.8731 51.1112 34.2156 53.9779C34.1221 54.0074 34.0318 54.0074 33.9384 53.9779C25.2841 51.1112 18.7055 43.8096 16.1634 27.8933C16.1422 27.7678 16.1719 27.6507 16.2537 27.5527C16.3355 27.4535 16.4439 27.3976 16.5703 27.3913C20.882 27.1487 24.3302 23.7052 24.5405 19.4147C24.549 19.1848 24.7423 19.0023 24.9771 19.0023H43.179C43.4106 19.0023 43.6039 19.1848 43.6156 19.4147C43.8259 23.7052 47.2741 27.1487 51.5826 27.3913C51.7122 27.3976 51.8206 27.4546 51.9013 27.5527C51.982 27.6507 52.0149 27.7678 51.9937 27.8933ZM48.0941 29.816C44.7161 28.5905 42.0689 25.8462 40.9971 22.4132C40.9398 22.2275 40.774 22.1084 40.5786 22.1084H27.5796C27.3842 22.1084 27.2185 22.2275 27.1611 22.4132C26.0893 25.8451 23.4421 28.5894 20.0609 29.816C19.8559 29.8909 19.739 30.0997 19.7837 30.3128C20.7769 35.1232 22.4213 40.0496 25.2554 43.9541C27.5318 47.0928 30.3776 49.2993 33.9182 50.6693C34.0265 50.7115 34.1317 50.7115 34.2369 50.6693C37.7785 49.3003 40.6264 47.0939 42.9028 43.9541C45.7338 40.0496 47.3803 35.1222 48.3746 30.3128C48.4192 30.0997 48.3023 29.8898 48.0941 29.816ZM40.4129 33.9409V40.674C40.4129 41.3912 39.8254 41.9745 39.1031 41.9745H29.0519C28.3328 41.9745 27.7422 41.3912 27.7422 40.674V33.9409C27.7422 33.2269 28.3328 32.6405 29.0519 32.6405H29.0912V30.2337C29.0912 29.5703 29.2272 28.9301 29.4705 28.3437C29.7265 27.7372 30.0972 27.1898 30.555 26.7353C31.458 25.8388 32.7051 25.2819 34.0786 25.2819C34.7499 25.2819 35.3947 25.4169 35.9843 25.6584C36.5951 25.9126 37.1432 26.2807 37.6042 26.7342C38.0621 27.1888 38.4328 27.7362 38.6856 28.3426C38.9321 28.929 39.068 29.5682 39.068 30.2326V32.6394H39.1042C39.8254 32.6405 40.4129 33.2269 40.4129 33.9409ZM35.3724 36.3002C35.3724 35.5883 34.7945 35.0146 34.0775 35.0146C33.3637 35.0146 32.7826 35.5883 32.7826 36.3002C32.7826 36.6736 32.9451 37.009 33.2011 37.2452V38.7313C33.2011 39.2122 33.5931 39.6046 34.0775 39.6046C34.5619 39.6046 34.9571 39.2133 34.9571 38.7313V37.2452C35.2131 37.009 35.3724 36.6736 35.3724 36.3002ZM37.3111 30.2337C37.3111 29.8002 37.2239 29.3846 37.0667 29.0113C36.9042 28.6221 36.6599 28.2667 36.3593 27.9682C36.0586 27.6697 35.7028 27.4303 35.3087 27.2689C34.9326 27.1139 34.5162 27.0264 34.0775 27.0264C33.1895 27.0264 32.3821 27.3881 31.7947 27.9682C31.4941 28.2667 31.2529 28.6232 31.0904 29.0113C30.9343 29.3846 30.8461 29.8002 30.8461 30.2337V32.6405H37.3111V30.2337Z" fill="#6C6C6C"/>
</svg>
