<svg width="63" height="60" viewBox="0 0 63 60" fill="none" xmlns="http://www.w3.org/2000/svg">
<path d="M19.11 21.3525C19.11 22.4006 19.9631 23.2538 21.0356 23.2538C22.0837 23.2538 22.9369 22.4006 22.9369 21.3525C22.9369 20.3044 22.0837 19.4269 21.0356 19.4269C19.9631 19.4513 19.11 20.3044 19.11 21.3525Z" fill="#6C6C6C"/>
<path d="M15.1125 29.8594C15.1125 30.9075 15.9657 31.785 17.0138 31.785C18.0619 31.785 18.9394 30.9319 18.9394 29.8594C18.9394 28.8113 18.0863 27.9338 17.0138 27.9338C15.9657 27.9338 15.1125 28.7869 15.1125 29.8594Z" fill="#6C6C6C"/>
<path d="M26.7637 4.43625C26.7637 3.46125 27.2269 2.55938 28.0312 1.95V0H22.815L21.2794 7.65375C21.2306 7.87312 21.0844 8.04375 20.8894 8.11687C20.8162 8.14125 20.7187 8.16562 20.6456 8.16562C20.5237 8.16562 20.4019 8.14125 20.28 8.06812L13.8206 3.705L10.14 7.41L11.5294 8.79938C12.5287 8.65313 13.4794 8.94563 14.1862 9.6525C14.7712 10.2619 15.1125 11.0419 15.1125 11.895C15.1125 12.7481 14.7712 13.5525 14.1862 14.1375C13.5769 14.7469 12.7725 15.0881 11.9194 15.0881C11.0662 15.0881 10.2619 14.7469 9.67688 14.1619C8.99438 13.455 8.6775 12.5044 8.82375 11.4806L7.43437 10.0912L3.72937 13.7963L8.06812 20.28C8.11687 20.3775 8.16562 20.475 8.16562 20.5725C8.16562 20.67 8.16562 20.7919 8.11687 20.8894C8.04375 21.0844 7.87313 21.2306 7.65375 21.2794L0 22.815V28.0312H1.95C2.58375 27.2269 3.46125 26.7637 4.43625 26.7637C6.19125 26.7637 7.62937 28.2019 7.62937 29.9569C7.62937 31.7119 6.19125 33.15 4.43625 33.15C3.46125 33.15 2.55937 32.6869 1.95 31.8825H0V37.0988L7.65375 38.6344C7.87313 38.6831 8.04375 38.8294 8.11687 39.0244C8.16562 39.1219 8.16562 39.2194 8.16562 39.3413C8.16562 39.4388 8.11687 39.5363 8.06812 39.6338L3.72937 46.1175L7.41 49.7981L8.79937 48.4088C8.65312 47.385 8.97 46.4344 9.67688 45.7519C10.92 44.5088 12.9431 44.5088 14.1862 45.7519C14.7956 46.3613 15.1125 47.1413 15.1125 47.9944C15.1125 48.8475 14.7712 49.6519 14.1862 50.2369C13.4794 50.9438 12.5287 51.2363 11.5294 51.1144L10.14 52.4062L13.8206 56.0869L20.3044 51.7481C20.475 51.6262 20.6944 51.6019 20.9137 51.6994C21.1087 51.7725 21.255 51.9431 21.3037 52.1625L22.8394 59.8163H28.0556V57.8662C27.2512 57.2325 26.7881 56.355 26.7881 55.38C26.7881 53.7469 28.0556 52.4306 29.6644 52.26V48.36C24.8625 48.2869 20.3287 46.3856 16.9162 42.9731C13.4062 39.4875 11.4806 34.8319 11.4806 29.9081C11.4806 24.9844 13.4062 20.3288 16.8919 16.8431C20.3044 13.4306 24.8137 11.5294 29.64 11.4563V7.55625C28.0312 7.41 26.7637 6.09375 26.7637 4.43625Z" fill="#6C6C6C"/>
<path d="M19.11 38.3662C19.11 39.4144 19.9631 40.2919 21.0356 40.2919C22.0837 40.2919 22.9369 39.4387 22.9369 38.3662C22.9369 37.3181 22.0837 36.465 21.0356 36.465C19.9631 36.4406 19.11 37.2937 19.11 38.3662Z" fill="#6C6C6C"/>
<path d="M12.7482 29.9081C12.7482 34.4906 14.5275 38.805 17.7938 42.0713C20.9625 45.24 25.155 47.0194 29.64 47.0925V39.0244L24.1069 38.9756C23.8144 40.4381 22.5957 41.5594 21.0357 41.5594C19.2807 41.5594 17.8425 40.1213 17.8425 38.3663C17.8425 36.6113 19.2807 35.1731 21.0357 35.1731C22.5469 35.1731 23.7657 36.27 24.0825 37.6838L29.64 37.7325V30.5175L20.1094 30.4688C19.8169 31.9313 18.5982 33.0525 17.0382 33.0525C15.2832 33.0525 13.845 31.6144 13.845 29.8594C13.845 28.1044 15.2832 26.6663 17.0382 26.6663C18.5494 26.6663 19.7682 27.7631 20.085 29.1769L29.64 29.2256V21.9863L24.1069 21.9375C23.8144 23.4 22.5957 24.5213 21.0357 24.5213C19.2807 24.5213 17.8425 23.0831 17.8425 21.3281C17.8425 19.5731 19.2807 18.135 21.0357 18.135C22.5469 18.135 23.7657 19.2319 24.0825 20.6456L29.64 20.6944V12.7238C25.155 12.7969 20.9625 14.5763 17.7938 17.745C14.5275 21.0113 12.7482 25.3256 12.7482 29.9081Z" fill="#6C6C6C"/>
<path d="M57.6225 0.219361C57.5006 0.0974864 57.3543 0.0487366 57.1837 0.0487366H30.3712C30.03 0.0487366 29.7618 0.316862 29.7618 0.658112C29.7618 0.999362 30.03 1.26749 30.3712 1.26749H56.94L61.4493 5.77686V58.5487H30.3712C30.03 58.5487 29.7618 58.8169 29.7618 59.1581C29.7618 59.4994 30.03 59.7675 30.3712 59.7675H62.0587C62.4 59.7675 62.6681 59.4994 62.6681 59.1581V5.53311C62.6681 5.36249 62.595 5.21624 62.4975 5.09436L57.6225 0.219361Z" fill="#6C6C6C"/>
<path d="M32.8087 8.57999H57.1837C57.525 8.57999 57.7931 8.31186 57.7931 7.97061C57.7931 7.62936 57.525 7.36124 57.1837 7.36124H32.8087C32.4675 7.36124 32.1993 7.62936 32.1993 7.97061C32.1993 8.31186 32.4918 8.57999 32.8087 8.57999Z" fill="#6C6C6C"/>
<path d="M32.8087 13.455H57.1837C57.525 13.455 57.7931 13.1869 57.7931 12.8456C57.7931 12.5044 57.525 12.2362 57.1837 12.2362H32.8087C32.4675 12.2362 32.1993 12.5044 32.1993 12.8456C32.1993 13.1869 32.4918 13.455 32.8087 13.455Z" fill="#6C6C6C"/>
<path d="M32.8087 18.33H57.1837C57.525 18.33 57.7931 18.0619 57.7931 17.7206C57.7931 17.3794 57.525 17.1112 57.1837 17.1112H32.8087C32.4675 17.1112 32.1993 17.3794 32.1993 17.7206C32.1993 18.0619 32.4918 18.33 32.8087 18.33Z" fill="#6C6C6C"/>
<path d="M32.8087 23.205H57.1837C57.525 23.205 57.7931 22.9369 57.7931 22.5956C57.7931 22.2544 57.525 21.9862 57.1837 21.9862H32.8087C32.4675 21.9862 32.1993 22.2544 32.1993 22.5956C32.1993 22.9369 32.4918 23.205 32.8087 23.205Z" fill="#6C6C6C"/>
<path d="M32.8087 28.08H57.1837C57.525 28.08 57.7931 27.8118 57.7931 27.4706C57.7931 27.1293 57.525 26.8612 57.1837 26.8612H32.8087C32.4675 26.8612 32.1993 27.1293 32.1993 27.4706C32.1993 27.8118 32.4918 28.08 32.8087 28.08Z" fill="#6C6C6C"/>
<path d="M32.8087 32.955H57.1837C57.525 32.955 57.7931 32.6868 57.7931 32.3456C57.7931 32.0043 57.525 31.7362 57.1837 31.7362H32.8087C32.4675 31.7362 32.1993 32.0043 32.1993 32.3456C32.1993 32.6868 32.4918 32.955 32.8087 32.955Z" fill="#6C6C6C"/>
<path d="M32.8087 37.83H57.1837C57.525 37.83 57.7931 37.5618 57.7931 37.2206C57.7931 36.8793 57.525 36.6112 57.1837 36.6112H32.8087C32.4675 36.6112 32.1993 36.8793 32.1993 37.2206C32.1993 37.5618 32.4918 37.83 32.8087 37.83Z" fill="#6C6C6C"/>
<path d="M32.8087 42.705H57.1837C57.525 42.705 57.7931 42.4368 57.7931 42.0956C57.7931 41.7543 57.525 41.4862 57.1837 41.4862H32.8087C32.4675 41.4862 32.1993 41.7543 32.1993 42.0956C32.1993 42.4368 32.4918 42.705 32.8087 42.705Z" fill="#6C6C6C"/>
<path d="M32.8087 47.58H57.1837C57.525 47.58 57.7931 47.3118 57.7931 46.9706C57.7931 46.6293 57.525 46.3612 57.1837 46.3612H32.8087C32.4675 46.3612 32.1993 46.6293 32.1993 46.9706C32.1993 47.3118 32.4918 47.58 32.8087 47.58Z" fill="#6C6C6C"/>
<path d="M32.8087 52.455H57.1837C57.525 52.455 57.7931 52.1868 57.7931 51.8456C57.7931 51.5043 57.525 51.2362 57.1837 51.2362H32.8087C32.4675 51.2362 32.1993 51.5043 32.1993 51.8456C32.1993 52.1868 32.4918 52.455 32.8087 52.455Z" fill="#6C6C6C"/>
</svg>
