<svg width="60" height="60" viewBox="0 0 60 60" fill="none" xmlns="http://www.w3.org/2000/svg">
<path d="M59.5102 24.6327L53.0883 23.0624C52.6313 21.5366 52.0172 20.053 51.2625 18.6421L54.7055 12.9702C54.8579 12.7171 54.8204 12.3936 54.6118 12.185L47.8594 5.43262C47.6508 5.22402 47.325 5.18418 47.0742 5.33887L41.4187 8.77249C40.0101 8.01313 38.5289 7.39669 37.0054 6.93265L35.4281 0.489846C35.3578 0.201564 35.1023 0 34.807 0H25.2562C24.9608 0 24.703 0.201564 24.6327 0.489846L23.0624 6.91165C21.5366 7.36868 20.0554 7.98277 18.642 8.73745L12.9702 5.29447C12.7171 5.14212 12.3936 5.17962 12.185 5.38822L5.43262 12.1406C5.22402 12.3492 5.18418 12.675 5.33887 12.9258L8.77249 18.5813C8.01313 19.9899 7.39669 21.4711 6.93499 22.9946L0.492186 24.5696C0.201564 24.6422 0 24.8977 0 25.193V34.7438C0 35.0392 0.201564 35.297 0.489846 35.3673L6.91165 36.9376C7.36868 38.4634 7.98277 39.947 8.73745 41.3579L5.29447 47.0298C5.14212 47.2829 5.17962 47.6064 5.38822 47.815L12.1406 54.5674C12.3492 54.776 12.675 54.8158 12.9258 54.6611L18.5813 51.2275C19.9899 51.9869 21.4711 52.6033 22.9946 53.0674L24.5696 59.5102C24.6399 59.7961 24.8977 60 25.193 60H34.7438C35.0392 60 35.297 59.7984 35.3673 59.5102L36.9376 53.0883C38.4634 52.6313 39.9446 52.0172 41.3579 51.2625L47.0298 54.7055C47.2829 54.8579 47.6064 54.8204 47.815 54.6118L54.5674 47.8594C54.776 47.6508 54.8158 47.325 54.6611 47.0742L51.2275 41.4187C51.9869 40.0101 52.6033 38.5289 53.0673 37.0054L59.5102 35.4304C59.7961 35.3601 60 35.1023 60 34.807V25.2562C60 24.9608 59.7984 24.703 59.5102 24.6327ZM58.718 34.3029L52.4042 35.8451C52.1815 35.899 52.0034 36.0701 51.9401 36.2904C51.4596 37.9662 50.7846 39.5904 49.9291 41.1185C49.8166 41.3201 49.8213 41.5662 49.9409 41.7631L53.3042 47.3037L47.2622 53.3457L41.7028 49.9707C41.5059 49.8512 41.2598 49.8465 41.0583 49.959C39.5255 50.8098 37.8989 51.4825 36.2231 51.9559C36.0005 52.0191 35.8294 52.1973 35.7755 52.4199L34.238 58.7127H25.6951L24.153 52.3989C24.0991 52.1763 23.928 51.9981 23.7077 51.9349C22.0318 51.4544 20.4076 50.7794 18.8795 49.9239C18.6779 49.8114 18.4319 49.8161 18.235 49.9356L12.6943 53.2989L6.65234 47.2569L10.0273 41.6975C10.1469 41.5007 10.1516 41.2546 10.0391 41.053C9.18826 39.5202 8.5156 37.8937 8.0422 36.2179C7.97892 35.9952 7.80079 35.8241 7.57813 35.7702L1.28533 34.2327V25.6899L7.59913 24.1477C7.82179 24.0938 7.99992 23.9227 8.0632 23.7024C8.54367 22.0266 9.21868 20.4024 10.0742 18.8743C10.1867 18.6727 10.182 18.4266 10.0624 18.2297L6.69446 12.6914L12.7365 6.64943L18.2935 10.0244C18.4904 10.144 18.7365 10.1486 18.938 10.0361C20.4708 9.18535 22.0974 8.51269 23.7732 8.03929C23.9958 7.97601 24.1669 7.79788 24.2208 7.57522L25.7583 1.28242H34.3011L35.8433 7.59622C35.8972 7.81888 36.0683 7.99701 36.2886 8.06029C37.9644 8.54076 39.5886 9.21577 41.1168 10.0712C41.3183 10.1837 41.5644 10.1791 41.7613 10.0595L47.3019 6.69623L53.3439 12.7382L49.9689 18.2976C49.8494 18.4945 49.8447 18.7406 49.9572 18.9421C50.808 20.4749 51.4807 22.1015 51.9541 23.7773C52.0174 23.9999 52.1955 24.171 52.4181 24.2249L58.7109 25.7624L58.718 34.3029Z" fill="#6C6C6C"/>
<path d="M30.9653 32.5126C30.9653 33.7899 29.0341 33.7899 29.0341 32.5126C29.0341 31.2352 30.9653 31.2352 30.9653 32.5126Z" fill="#6C6C6C"/>
<path d="M18.1854 28.3287C17.8315 28.3287 17.5432 28.6146 17.5432 28.9709V37.2161C17.5432 37.57 17.8291 37.8582 18.1854 37.8582C18.5393 37.8582 18.8276 37.5723 18.8276 37.2161L18.8252 28.9685C18.8252 28.6145 18.5393 28.3287 18.1854 28.3287Z" fill="#6C6C6C"/>
<path d="M14.4588 30.8085C14.1049 30.8085 13.8167 31.0944 13.8167 31.4507V37.2163C13.8167 37.5702 14.1026 37.8585 14.4588 37.8585C14.8127 37.8585 15.101 37.5725 15.101 37.2163L15.0987 31.4483C15.0987 31.0944 14.8127 30.8085 14.4588 30.8085Z" fill="#6C6C6C"/>
<path d="M21.9095 32.0481C21.5556 32.0481 21.2673 32.334 21.2673 32.6903V37.2161C21.2673 37.57 21.5533 37.8583 21.9095 37.8583C22.2634 37.8583 22.5517 37.5723 22.5517 37.2161V32.6879C22.5517 32.334 22.2634 32.0481 21.9095 32.0481Z" fill="#6C6C6C"/>
<path d="M41.8147 28.3287C41.4608 28.3287 41.1725 28.6146 41.1725 28.9709V37.2161C41.1725 37.57 41.4584 37.8582 41.8147 37.8582C42.1686 37.8582 42.4568 37.5723 42.4568 37.2161V28.9685C42.4568 28.6145 42.1686 28.3287 41.8147 28.3287Z" fill="#6C6C6C"/>
<path d="M38.0903 32.0481C37.7364 32.0481 37.4481 32.334 37.4481 32.6903V37.2161C37.4481 37.57 37.7341 37.8583 38.0903 37.8583C38.4442 37.8583 38.7325 37.5723 38.7325 37.2161L38.7301 32.6879C38.7301 32.334 38.4442 32.0481 38.0903 32.0481Z" fill="#6C6C6C"/>
<path d="M45.5411 30.8085C45.1872 30.8085 44.8989 31.0944 44.8989 31.4507V37.2163C44.8989 37.5702 45.1849 37.8585 45.5411 37.8585C45.895 37.8585 46.1833 37.5725 46.1833 37.2163V31.4483C46.1833 31.0944 45.895 30.8085 45.5411 30.8085Z" fill="#6C6C6C"/>
<path d="M46.7483 22.6312C46.2983 21.553 45.6022 20.632 44.7444 19.9171V15.9351C45.7546 15.6422 46.4835 14.6765 46.4061 13.5538C46.3288 12.457 45.4616 11.5476 44.3694 11.4257C42.9773 11.2734 41.7936 12.3609 41.7936 13.7226C41.7936 14.7726 42.4991 15.6585 43.46 15.9374V19.071C42.4757 18.5648 41.3647 18.2835 40.2045 18.2835C36.7428 18.2835 33.8553 20.7726 33.2391 24.0538C32.5712 23.325 31.6618 22.821 30.6376 22.671L30.6423 12.5856C31.7368 12.2997 32.5454 11.3059 32.5431 10.1223C32.5384 8.79104 31.472 7.66604 30.1431 7.59344C28.6783 7.51376 27.4618 8.68328 27.4618 10.1294C27.4618 11.3083 28.2704 12.2997 29.3626 12.5833V22.6663C28.3384 22.8163 27.429 23.3202 26.7611 24.0491C26.1447 20.7702 23.2572 18.2811 19.7957 18.2811C19.116 18.2811 18.4527 18.3772 17.8222 18.56V15.935C18.8324 15.6421 19.5613 14.6764 19.4839 13.5537C19.4066 12.4569 18.5394 11.5475 17.4472 11.4256C16.055 11.2733 14.8714 12.3608 14.8714 13.7225C14.8714 14.7725 15.5769 15.6584 16.5378 15.9373V19.0709C15.087 19.8186 13.9105 21.0608 13.2518 22.6334L10.7393 28.6382C9.94481 29.9367 9.48779 31.4624 9.48779 33.0914C9.48779 36.8297 11.8972 40.0172 15.2581 41.2124V44.0624C14.248 44.3553 13.5191 45.321 13.5964 46.4436C13.6738 47.5405 14.5409 48.4499 15.6331 48.5718C17.023 48.7265 18.2066 47.639 18.2066 46.2773C18.2066 45.2273 17.5011 44.3413 16.5402 44.0624V41.5593C17.0746 41.6601 17.623 41.7163 18.1855 41.7163C20.6441 41.7163 22.866 40.6991 24.4483 39.0679C25.1163 38.3812 25.8311 37.7413 26.6022 37.1717C27.4553 36.5459 28.367 35.9788 29.3608 35.8311V47.4117C28.2663 47.6976 27.4577 48.6914 27.46 49.875C27.4647 51.2063 28.5311 52.3313 29.86 52.4039C31.3249 52.4836 32.5413 51.314 32.5413 49.8679C32.5413 48.689 31.7327 47.6976 30.6405 47.414V35.8334C31.5452 35.9694 32.3749 36.4451 33.1553 36.9983C34.046 37.6311 34.8545 38.3694 35.6257 39.1451C37.203 40.7318 39.3944 41.7186 41.8153 41.7186C42.3778 41.7186 42.9286 41.6623 43.4606 41.5616V44.0647C42.4504 44.3577 41.7215 45.3233 41.7989 46.446C41.8762 47.5428 42.7434 48.4523 43.8356 48.5741C45.2254 48.7288 46.409 47.6413 46.409 46.2819C46.409 45.2319 45.7036 44.346 44.7427 44.0671L44.745 41.2124C48.1036 40.0171 50.5153 36.8296 50.5153 33.0914C50.5153 31.4625 50.0559 29.9367 49.2614 28.6359L46.7483 22.6312ZM18.1853 40.4344C14.0955 40.4344 10.7699 37.1391 10.7699 33.0916C10.7699 29.0416 14.0957 25.7488 18.1853 25.7488C22.2749 25.7488 25.6007 29.0441 25.6007 33.0916C25.5984 37.1416 22.2726 40.4344 18.1853 40.4344ZM33.2837 35.5641C31.2282 34.0828 28.4415 34.2375 26.4563 35.7516C26.7305 34.9125 26.8805 34.0195 26.8805 33.0937V30.9L27.9376 30.3282C29.2289 29.6297 30.7688 29.6297 32.0602 30.3282L33.1172 30.9V33.0937C33.1172 34.0219 33.2672 34.9149 33.5415 35.7516L33.2837 35.5641ZM41.8151 40.4344C37.7253 40.4344 34.3997 37.1391 34.3997 33.0916C34.3997 29.0416 37.7255 25.7488 41.8151 25.7488C45.9047 25.7488 49.2305 29.0418 49.2305 33.0916C49.2305 37.1414 45.9047 40.4344 41.8151 40.4344Z" fill="#6C6C6C"/>
</svg>
