<svg width="57" height="59" viewBox="0 0 57 59" fill="none" xmlns="http://www.w3.org/2000/svg">
<path fill-rule="evenodd" clip-rule="evenodd" d="M38.7735 22.7281V35.7442H42.9389V22.7281C42.9389 22.3551 43.2411 22.0523 43.6147 22.0523H45.0425L40.8562 16.3391L36.6704 22.0523H38.0982C38.4712 22.0523 38.7735 22.3545 38.7735 22.7281ZM50.0077 15.5288V35.7442H54.1731V15.5288C54.1731 15.1558 54.4753 14.8529 54.849 14.8529H56.2768L52.0904 9.13977L47.9047 14.8529H49.3325C49.7055 14.8529 50.0077 15.1552 50.0077 15.5288ZM27.5398 28.8904V35.7442H31.7052V28.8904C31.7052 28.5174 32.0075 28.2145 32.3811 28.2145H33.8089L29.6232 22.5013L25.4375 28.2145H26.8653C27.2383 28.2145 27.5412 28.5167 27.5412 28.8904H27.5398ZM33.8928 17.6522C33.3055 17.4339 32.6978 17.2582 32.073 17.1284C31.2306 16.9534 30.3633 16.8609 29.4803 16.8609C25.9796 16.8609 22.8107 18.2795 20.5162 20.574C18.2224 22.8678 16.8031 26.0374 16.8031 29.5374C16.8031 33.0374 18.2218 36.207 20.5162 38.5008C22.81 40.7946 25.9796 42.2139 29.4803 42.2139C30.5108 42.2139 31.5184 42.0887 32.4886 41.852C33.4333 41.6219 34.3321 41.2889 35.1718 40.8661H45.3493L47.3075 42.8242L42.7986 47.3332L40.649 45.1836C40.4071 44.9417 40.0275 44.9214 39.7627 45.1233C38.7813 45.7723 37.7337 46.3315 36.6337 46.7884C35.5363 47.244 34.3917 47.5973 33.213 47.8366C32.8931 47.9009 32.6715 48.1821 32.6722 48.4968H32.6696V51.5294H26.293V48.4968C26.293 48.1487 26.0301 47.8622 25.6918 47.8248C24.5328 47.5862 23.4085 47.2368 22.3288 46.7884C21.2144 46.3256 20.155 45.7585 19.1625 45.099C18.8904 44.9187 18.5351 44.962 18.3135 45.1842L16.1633 47.3325L11.6544 42.8236L13.8105 40.6675C14.0518 40.4262 14.0721 40.0466 13.8715 39.7825C13.2245 38.7991 12.6685 37.7535 12.2162 36.6574C11.7645 35.5633 11.4138 34.4193 11.1765 33.2374C11.1122 32.9175 10.831 32.6959 10.5163 32.6965V32.6939H7.45817V26.3173H10.5281C10.8736 26.3173 11.1588 26.0577 11.1988 25.7227C11.4387 24.5657 11.7881 23.4447 12.2352 22.3702C12.6967 21.261 13.2625 20.2069 13.9187 19.2183C14.099 18.9462 14.0557 18.5909 13.8335 18.3694L11.6531 16.187L16.162 11.6781L18.3496 13.8657C18.5908 14.1069 18.9704 14.1279 19.2346 13.9266C20.214 13.2822 21.255 12.7283 22.3452 12.2773C23.4347 11.8262 24.5728 11.4762 25.7475 11.2376C26.0675 11.1733 26.289 10.8921 26.2884 10.5774H26.291V7.48187H32.6676V10.5774C32.6676 10.9255 32.9305 11.212 33.2687 11.2494C33.8378 11.3667 34.3996 11.5103 34.9516 11.6794C35.3115 11.7895 35.6714 11.9121 36.03 12.0472L33.8915 17.6515L33.8928 17.6522ZM53.9089 43.5126C53.7811 43.7368 53.7903 44.0095 53.9332 44.2245C54.2164 44.6414 54.8267 44.6205 55.0811 44.1858C55.3105 43.7846 55.5295 43.3815 55.7419 42.9711C55.9163 42.6276 55.7747 42.2139 55.4259 42.05C55.0955 41.8973 54.7068 42.0304 54.5396 42.3535C54.3377 42.7449 54.1279 43.1304 53.9089 43.5126ZM50.8659 47.8183C50.6712 48.0457 50.6502 48.3735 50.8121 48.6246C51.0592 49.0035 51.5994 49.0402 51.8931 48.6961C52.1934 48.346 52.4844 47.9894 52.7683 47.6255C52.98 47.3535 52.9525 46.9654 52.7047 46.7255C52.4156 46.4455 51.9475 46.479 51.701 46.7963C51.4303 47.143 51.1523 47.4839 50.8659 47.8183ZM47.0761 51.4855C46.6434 51.8368 46.7962 52.5304 47.3377 52.6668C47.5461 52.7172 47.7585 52.6707 47.9257 52.5363C48.2849 52.2472 48.6383 51.9515 48.9838 51.6467C49.1785 51.473 49.2565 51.2075 49.185 50.9564C49.0454 50.4785 48.4606 50.3054 48.0863 50.6358C47.7565 50.9276 47.4189 51.2095 47.0761 51.4855ZM42.6747 54.383C42.206 54.6347 42.1955 55.3001 42.6576 55.5663C42.8622 55.681 43.1021 55.6856 43.3099 55.5755C43.717 55.3598 44.1189 55.1323 44.5155 54.8976C44.9632 54.6302 44.9534 53.9818 44.4991 53.7261C44.286 53.6101 44.035 53.6114 43.8252 53.736C43.4469 53.9595 43.0634 54.1778 42.6747 54.383ZM37.8091 56.4074C37.2716 56.5758 37.1621 57.2838 37.6243 57.6083C37.7993 57.7263 38.0058 57.7598 38.2084 57.6982C38.6476 57.5657 39.0881 57.4137 39.5201 57.2583C40.0269 57.0734 40.1232 56.4015 39.6912 56.0796C39.5064 55.9445 39.2756 55.9111 39.0599 55.9878C38.6482 56.136 38.228 56.2815 37.8091 56.4074ZM32.6473 57.4838C32.307 57.5238 32.052 57.809 32.0494 58.1511C32.0494 58.5589 32.3975 58.871 32.8033 58.8264C32.9711 58.8074 33.1376 58.787 33.3055 58.7661C33.5952 58.728 33.8837 58.6867 34.1721 58.6409C34.7208 58.5517 34.9325 57.8771 34.5346 57.4884C34.3779 57.3389 34.1708 57.2734 33.9571 57.3068C33.5211 57.3763 33.0858 57.4346 32.6479 57.4845L32.6473 57.4838ZM27.3766 57.5828C26.8758 57.55 26.5145 58.0463 26.7027 58.513C26.8017 58.7516 27.0219 58.9123 27.2796 58.9306L27.511 58.947L27.6887 58.9581L27.8663 58.968L28.0446 58.9771L28.2229 58.985L28.4019 58.9922L28.5809 58.9981L28.6615 59.0001C29.2194 59.0126 29.5498 58.3845 29.2266 57.9302C29.1001 57.7565 28.9093 57.6556 28.6943 57.649L28.4511 57.6411L28.2806 57.6346L28.1102 57.6267L27.9404 57.6182L27.7706 57.6083L27.6008 57.5979L27.3779 57.5821L27.3766 57.5828ZM22.1767 56.7043C21.6661 56.5739 21.2098 57.0439 21.3579 57.5507C21.4274 57.7788 21.6038 57.9505 21.8345 58.0115L21.9919 58.0535L22.159 58.0967L22.3262 58.1387L22.494 58.18L22.6625 58.22L22.831 58.2593L23.0001 58.298L23.1791 58.3373C23.6517 58.4363 24.0693 58.0266 23.9834 57.552C23.9303 57.2812 23.7297 57.0741 23.459 57.0151L23.2958 56.979L23.1345 56.9423L22.9739 56.9049L22.8133 56.8663L22.6533 56.8269L22.4934 56.7869L22.3341 56.7456L22.1767 56.7043ZM17.2391 54.8675C16.7271 54.6236 16.1633 55.0753 16.2885 55.6299C16.3377 55.8324 16.4662 55.9937 16.6537 56.0855L16.8654 56.1871L17.0188 56.2592L17.1729 56.3307L17.3269 56.4008L17.4816 56.4703L17.637 56.5391L17.7924 56.6067L17.9123 56.6578C18.1365 56.7522 18.3856 56.7214 18.581 56.5772C18.9979 56.2625 18.9199 55.6194 18.4407 55.4142L18.328 55.3657L18.1798 55.3008L18.0316 55.2352L17.8841 55.169L17.7373 55.1022L17.5905 55.034L17.4443 54.9651L17.2391 54.8675ZM12.7302 52.1384C12.5558 52.0099 12.3368 51.9732 12.1297 52.0361C11.6 52.2026 11.4826 52.8936 11.9271 53.2253L12.0975 53.3512L12.2332 53.4495L12.3696 53.5472L12.5066 53.6442L12.6443 53.7406L12.7826 53.8363L12.9209 53.9313L13.0566 54.0225C13.5312 54.3391 14.1593 53.9641 14.1055 53.3951C14.0845 53.1912 13.979 53.0155 13.8099 52.9001L13.6807 52.813L13.5483 52.7225L13.4165 52.6314L13.2854 52.5396L13.155 52.4472L13.0252 52.3541L12.8954 52.2603L12.7308 52.139L12.7302 52.1384ZM8.806 48.618C8.5936 48.3899 8.24943 48.3348 7.97803 48.4896C7.59781 48.7065 7.51914 49.2159 7.81545 49.5378L7.96558 49.6984L8.0803 49.8203L8.19568 49.9416L8.31171 50.0622L8.4284 50.1822L8.54574 50.3015L8.66374 50.4195L8.7765 50.531C9.15738 50.904 9.79458 50.7126 9.91061 50.1933C9.95847 49.9639 9.8916 49.7338 9.72443 49.5679L9.61758 49.4617L9.50482 49.349L9.39272 49.2356L9.28128 49.1215L9.17049 49.0068L9.06036 48.8914L8.95088 48.7754L8.806 48.62V48.618ZM5.60295 44.431C5.47315 44.2252 5.24305 44.1045 4.99984 44.1157C4.48391 44.1399 4.18432 44.7136 4.45966 45.1508L4.57831 45.3383L4.66878 45.4799L4.76056 45.6208L4.85299 45.7611L4.94608 45.9008L5.03983 46.0397L5.13423 46.1787L5.22076 46.3046C5.53149 46.751 6.21589 46.6665 6.40863 46.1564C6.48598 45.946 6.45845 45.7185 6.33062 45.5337L6.24802 45.4143L6.15755 45.2819L6.06774 45.1488L5.97924 45.0158L5.89139 44.882L5.80421 44.7476L5.71767 44.6126L5.60361 44.4317L5.60295 44.431ZM3.23639 39.7228C3.06726 39.2928 2.53298 39.1551 2.1757 39.4481C1.95019 39.6376 1.87218 39.9391 1.97772 40.2138L2.04328 40.3803L2.10621 40.5383L2.17045 40.6956L2.23536 40.853L2.30091 41.0097L2.36778 41.1657L2.4353 41.321L2.51134 41.4935C2.72375 41.9589 3.34783 42.0304 3.6625 41.6278C3.81459 41.4266 3.84606 41.1683 3.74314 40.9375L3.67365 40.7796L3.6094 40.6307L3.54581 40.4819L3.48288 40.3325L3.4206 40.1823L3.35963 40.0322L3.29932 39.8814L3.23705 39.7221L3.23639 39.7228ZM1.79482 34.6534C1.69911 34.1355 1.06846 33.9218 0.677097 34.2758C0.502719 34.4338 0.423397 34.6691 0.466008 34.9005L0.504686 35.1057L0.538119 35.2762L0.572208 35.4466L0.607608 35.6164L0.643664 35.7862L0.68103 35.9553L0.719053 36.1244L0.749208 36.2536C0.875731 36.7807 1.5326 36.9537 1.90299 36.5578C2.05573 36.3906 2.11604 36.1651 2.06425 35.9442L2.03607 35.8229L1.99935 35.6616L1.96395 35.5004L1.92921 35.3384L1.89578 35.1765L1.863 35.0139L1.83088 34.8514L1.79351 34.654L1.79482 34.6534ZM44.9711 2.6668C44.8806 2.30559 45.1002 1.93914 45.4621 1.84867C45.8233 1.7582 46.1898 1.97781 46.2802 2.33968L47.2282 6.12421C47.3186 6.48542 47.099 6.85188 46.7372 6.94234L42.9533 7.89028C42.5921 7.98075 42.2256 7.76114 42.1351 7.39927C42.0447 7.03806 42.2643 6.6716 42.6262 6.58113L44.9744 5.9931C42.9133 4.63216 40.6628 3.53476 38.272 2.75006C35.5081 1.84277 32.5529 1.35176 29.4803 1.35176C21.9093 1.35176 15.0371 4.33847 9.97879 9.1968C4.89757 14.0774 1.64404 20.8447 1.34642 28.3718C1.332 28.7435 1.01864 29.0333 0.646941 29.0182C0.275241 29.0038 -0.014515 28.6904 0.000562756 28.3187C0.312608 20.4304 3.7215 13.338 9.04462 8.22527C14.3481 3.13094 21.5494 0 29.4803 0C32.6938 0 35.7894 0.515267 38.6889 1.46714C41.1079 2.26101 43.3879 3.35907 45.485 4.71607L44.9717 2.66746L44.9711 2.6668Z" fill="#6C6C6C"/>
</svg>
