<svg width="57" height="58" viewBox="0 0 57 58" fill="none" xmlns="http://www.w3.org/2000/svg">
<path fill-rule="evenodd" clipRule="evenodd" d="M30.4094 9.19813C30.0564 9.19813 29.7712 8.91294 29.7712 8.55985C29.7712 8.20676 30.0564 7.92156 30.4094 7.92156H47.6868C47.7276 7.92156 47.7656 7.92428 47.8036 7.93243C48.0562 7.27513 48.6917 6.81066 49.4387 6.81066C50.4056 6.81066 51.1906 7.59561 51.1906 8.56253C51.1906 9.30673 50.7261 9.94504 50.0688 10.1976C50.0743 10.2357 50.0797 10.2737 50.0797 10.3144V39.9713C50.0797 40.3244 49.7945 40.6096 49.4414 40.6096C49.0883 40.6096 48.8031 40.3244 48.8031 39.9713L48.7977 10.3089C48.7977 10.2681 48.8004 10.2301 48.8086 10.1921C48.3468 10.0155 47.9801 9.64615 47.8036 9.18714C47.7656 9.19528 47.7275 9.198 47.6868 9.198L30.4094 9.19813ZM1.68638 15.2143H5.90177V18.039L3.87011 20.3015C3.75874 20.4238 3.70714 20.5759 3.70443 20.728L3.72615 25.2856C2.71849 25.9049 3.15577 27.472 4.34271 27.472C5.52963 27.472 5.96691 25.9048 4.95927 25.2856L4.981 20.9724L6.99361 18.7316C7.10768 18.6148 7.1783 18.4573 7.1783 18.2807V15.2115H13.9278L13.9495 19.6578C12.9392 20.277 13.3764 21.8469 14.5634 21.8469C15.753 21.8469 16.1876 20.277 15.1799 19.6578C15.1962 19.6034 15.2044 19.5437 15.2044 19.4839V15.2088H21.9702V18.278C21.9702 18.4546 22.0408 18.6121 22.1549 18.7289L24.1675 20.9697L24.1892 25.2829C23.1816 25.9021 23.6188 27.4693 24.8058 27.4693C25.9927 27.4693 26.43 25.9021 25.4223 25.2829L25.4414 20.7252C25.4414 20.5731 25.387 20.421 25.2784 20.2988L23.2467 18.0363V15.2116H28.7713C30.2353 11.6779 27.2041 7.79108 23.3228 8.50552C22.4998 8.65762 22.2663 7.40552 23.0919 7.25339L24.0833 7.15017C23.4776 0.688542 15.6769 -2.32916 10.875 2.08739C9.45714 3.39112 8.51742 5.20821 8.34901 7.24258C8.28111 8.07912 7.00725 7.97594 7.07518 7.13666C7.1295 6.48751 7.24901 5.8574 7.43099 5.25442C2.6099 4.07021 -1.43715 8.91571 0.491327 13.4161C0.779232 14.087 1.18658 14.6955 1.68638 15.2143ZM21.9703 15.2143V12.4411C21.9703 11.5992 23.2469 11.5992 23.2469 12.4411V15.2143H21.9703ZM13.9282 15.2143L13.9255 14.6303C13.9255 13.7883 15.202 13.7883 15.202 14.6303V15.2143H13.9282ZM5.90177 15.2143L5.90212 12.4411C5.90212 11.5992 7.17866 11.5992 7.17866 12.4411V15.2143H5.90177ZM12.8309 13.7557C12.2388 14.3505 11.337 13.4515 11.9264 12.8566C13.385 11.3926 15.7615 11.3926 17.2201 12.8566C17.8122 13.4487 16.9105 14.3505 16.3156 13.7557C15.3623 12.7969 13.7924 12.7942 12.8309 13.7557ZM11.0926 12.0201C10.4977 12.6149 9.59601 11.7105 10.1881 11.1156C12.6082 8.69555 16.5383 8.69555 18.9582 11.1156C19.553 11.7105 18.6485 12.6149 18.0537 12.0201C16.1334 10.0971 13.0185 10.0971 11.0926 12.0201ZM9.35154 10.2764C8.75671 10.8712 7.85229 9.96674 8.44707 9.37189C11.8313 5.99033 17.3208 5.99033 20.7049 9.37189C21.2997 9.96672 20.3953 10.8711 19.8004 10.2764C16.9132 7.38918 12.2385 7.38918 9.35154 10.2764ZM15.1938 42.2369C15.202 42.1988 15.2047 42.1608 15.2047 42.1201V24.8427C15.2047 24.4896 14.9195 24.2044 14.5664 24.2044C14.2133 24.2044 13.9281 24.4896 13.9281 24.8427L13.9254 42.1201C13.9254 42.1608 13.9281 42.1988 13.9363 42.2369C13.279 42.4895 12.8145 43.125 12.8145 43.872C12.8145 44.8389 13.5995 45.6238 14.5664 45.6238C15.3106 45.6238 15.9489 45.1594 16.2015 44.5021C16.2395 44.5102 16.2776 44.5129 16.3183 44.5129H33.5957C33.9488 44.5129 34.234 44.2278 34.234 43.8747C34.234 43.5216 33.9488 43.2364 33.5957 43.2364L16.3155 43.2309C16.2748 43.2309 16.2368 43.2337 16.1987 43.2418C16.0222 42.7801 15.6556 42.4134 15.1938 42.2369ZM32.9301 26.9752C33.6146 26.2908 34.4267 25.7421 35.3284 25.37C36.1949 25.0115 37.1509 24.8105 38.1559 24.8105C39.1608 24.8105 40.1169 25.0088 40.9833 25.37C41.8824 25.7421 42.6972 26.2935 43.3789 26.9752C43.6288 27.2251 44.0335 27.2251 44.2834 26.9752C44.5333 26.7253 44.5333 26.3207 44.2834 26.0708C43.4876 25.275 42.5316 24.6312 41.4668 24.1885C40.4428 23.7648 39.3238 23.5312 38.1559 23.5312C36.9852 23.5312 35.8662 23.7648 34.845 24.1885C33.7803 24.6285 32.8242 25.2722 32.0284 26.0708C31.7785 26.3206 31.7785 26.7253 32.0284 26.9752C32.2755 27.2224 32.6802 27.2224 32.9301 26.9752ZM34.6739 28.719C35.1302 28.2627 35.6734 27.896 36.2709 27.6488C36.8495 27.4098 37.485 27.2767 38.1559 27.2767C38.8268 27.2767 39.465 27.4098 40.0408 27.6488C40.6384 27.896 41.1816 28.2626 41.6379 28.719C41.8878 28.9688 42.2925 28.9688 42.5424 28.719C42.7923 28.4691 42.7923 28.0644 42.5424 27.8145C41.9747 27.2468 41.2903 26.7851 40.5271 26.47C39.7937 26.1658 38.9925 25.9974 38.1587 25.9974C37.3221 25.9974 36.5236 26.1658 35.7903 26.47C35.027 26.7851 34.3426 27.2468 33.7749 27.8145C33.5251 28.0644 33.5251 28.4691 33.7749 28.719C34.0194 28.9661 34.424 28.9661 34.6739 28.719ZM36.4122 30.4518C36.6376 30.2237 36.9092 30.0417 37.2107 29.9168C37.4986 29.7973 37.8191 29.7321 38.1559 29.7321C38.4954 29.7321 38.8132 29.7973 39.1011 29.9168C39.4026 30.0417 39.6715 30.2237 39.8996 30.4518C40.1468 30.7017 40.5515 30.7017 40.8014 30.4546C41.0513 30.2074 41.0513 29.8027 40.8041 29.5528C40.4592 29.2079 40.0463 28.9281 39.5873 28.7379C39.1446 28.5533 38.6611 28.4528 38.1586 28.4528C37.6561 28.4528 37.1726 28.5533 36.7299 28.7379C36.2709 28.9281 35.8581 29.2078 35.5131 29.5528C35.2659 29.8027 35.2659 30.2047 35.5158 30.4546C35.7603 30.7044 36.1623 30.7017 36.4122 30.4518ZM38.1559 31.1825C37.504 31.1825 36.9744 31.7121 36.9744 32.364C36.9744 33.0158 37.504 33.5455 38.1559 33.5455C38.8077 33.5455 39.3374 33.0158 39.3374 32.364C39.3347 31.7121 38.8077 31.1825 38.1559 31.1825ZM44.7831 57.5422V54.7337H42.9145V57.5422H44.7831ZM40.6873 49.5487L40.3396 40.5207H35.9395L35.1736 57.5422H37.4606V50.187C37.4606 49.8339 37.7458 49.5488 38.0989 49.5488L40.6873 49.5487ZM40.2907 39.2413L40.1848 36.4708H36.1243L35.9993 39.2413H40.2907ZM38.7371 57.5422V50.8252H48.9604V57.5422H46.0623V54.0954C46.0623 53.7424 45.7771 53.4572 45.424 53.4572H42.2761C41.923 53.4572 41.6378 53.7424 41.6378 54.0954V57.5422H38.7371ZM46.6408 49.5487H49.6014C49.9545 49.5487 50.2397 49.8339 50.2397 50.187V57.5421H52.9205V47.7589L46.6409 47.7562L46.6408 49.5487ZM48.9169 46.485L53.5587 46.4877C53.9091 46.4877 54.1943 46.7729 54.1943 47.1233H54.197V57.542H56.9973L57 40.6206L48.9356 44.0348V46.3245C48.9356 46.3788 48.9305 46.4334 48.9169 46.485Z" fill="#6C6C6C"/>
</svg>
