<svg width="60" height="58" viewBox="0 0 60 58" fill="none" xmlns="http://www.w3.org/2000/svg">
<path fill-rule="evenodd" clipRule="evenodd" d="M25.4106 35.8858V37.9712H34.6605V35.8858H25.4106ZM17.6839 56.3423V49.526C17.6839 48.8745 17.9504 48.2821 18.3799 47.8528C18.8093 47.4233 19.4041 47.1568 20.0531 47.1568H40.0035C40.655 47.1568 41.2473 47.4233 41.6767 47.8528C42.1061 48.2822 42.3727 48.8769 42.3727 49.526V56.3423H48.1524V40.3405C48.1524 40.0123 48.0192 39.7161 47.8045 39.5014C47.5898 39.2867 47.2936 39.1535 46.9654 39.1535H13.0912C12.763 39.1535 12.4668 39.2867 12.2521 39.5014C12.0374 39.7161 11.9041 40.0123 11.9041 40.3405V56.3423H17.6839ZM43.7076 41.8681C44.4331 41.8681 45.0279 42.4555 45.0279 43.1884C45.0279 43.9214 44.4405 44.5087 43.7076 44.5087C42.9747 44.5087 42.3873 43.9214 42.3873 43.1884C42.3873 42.4555 42.9747 41.8681 43.7076 41.8681ZM16.3635 41.8681C17.089 41.8681 17.6838 42.4555 17.6838 43.1884C17.6838 43.9214 17.0964 44.5087 16.3635 44.5087C15.6306 44.5087 15.0432 43.9214 15.0432 43.1884C15.0432 42.4555 15.6306 41.8681 16.3635 41.8681ZM30.0359 0C31.9559 0 33.5181 1.55974 33.5181 3.48219C33.5181 4.96043 32.5951 6.22399 31.2994 6.72992V10.0591H28.7723V6.72992C27.4717 6.22401 26.5537 4.96043 26.5537 3.48219C26.5537 1.56214 28.1134 0 30.0359 0ZM20.2805 15.871C19.2391 15.871 18.3852 16.7298 18.3852 17.7663V29.3608C18.3852 30.4022 19.244 31.2561 20.2805 31.2561H39.7969C40.8383 31.2561 41.6922 30.3973 41.6922 29.3608V17.7663C41.6922 16.7249 40.8334 15.871 39.7969 15.871H20.2805ZM33.0172 26.9644C33.0172 26.6362 33.2838 26.3697 33.612 26.3697C33.9402 26.3697 34.2068 26.6362 34.2068 26.9644V28.4674C34.2068 28.7956 33.9402 29.0621 33.612 29.0621H26.4672C26.139 29.0621 25.8724 28.7956 25.8724 28.4674V26.9644C25.8724 26.6362 26.139 26.3697 26.4672 26.3697C26.7954 26.3697 27.062 26.6362 27.062 26.9644V27.8751H33.0195V26.9644H33.0172ZM36.1317 19.1562C36.7191 19.1562 37.1929 19.6375 37.1929 20.2174V22.7002C37.1929 23.2875 36.7117 23.7614 36.1317 23.7614C35.5493 23.7614 35.0705 23.2801 35.0705 22.7002V20.2174C35.0705 19.6301 35.5518 19.1562 36.1317 19.1562ZM23.9402 19.1562C24.5276 19.1562 25.0015 19.6375 25.0015 20.2174V22.7002C25.0015 23.2875 24.5202 23.7614 23.9402 23.7614C23.3578 23.7614 22.879 23.2801 22.879 22.7002V20.2174C22.879 19.6301 23.3603 19.1562 23.9402 19.1562ZM35.8481 35.8858V37.9712H46.9857C47.6372 37.9712 48.2296 38.2377 48.6589 38.6672C48.9551 38.9633 49.1698 39.336 49.2784 39.7481H53.7576C55.2284 39.7481 56.5636 40.3478 57.5286 41.3152C58.496 42.2826 59.0957 43.6153 59.0957 45.0862V47.3665C59.0957 47.8601 58.8933 48.3019 58.5725 48.6227C58.2492 48.946 57.8075 49.1459 57.3163 49.1459H56.8055V56.9345C56.8055 57.2627 56.539 57.5293 56.2107 57.5293H51.0429C50.7147 57.5293 50.4482 57.2627 50.4482 56.9345V49.1459H49.3499V56.9345C49.3499 57.2627 49.0834 57.5293 48.7552 57.5293L11.3095 57.5317C10.9813 57.5317 10.7147 57.2652 10.7147 56.937V49.1484H9.61652V56.937C9.61652 57.2652 9.34998 57.5317 9.02175 57.5317H3.85397C3.52574 57.5317 3.25921 57.2652 3.25921 56.937V49.1484H2.74836C2.25478 49.1484 1.813 48.946 1.49218 48.6252C1.16889 48.3019 0.968994 47.8602 0.968994 47.369V45.0887C0.968994 43.6178 1.56869 42.2827 2.53613 41.3177C3.50351 40.3503 4.83619 39.7505 6.3071 39.7505H10.7863C10.8949 39.3335 11.1145 38.9608 11.4057 38.6696C11.8352 38.2402 12.4299 37.9737 13.079 37.9737H24.2166V35.8883H20.268C18.4739 35.8883 16.8376 35.1553 15.6555 33.9732C14.4734 32.7911 13.7404 31.1623 13.7404 29.3607V29.2793H12.351C11.5687 29.2793 10.8604 28.9634 10.3421 28.4451C9.83129 27.9343 9.508 27.2186 9.508 26.4363V20.6811C9.508 19.8988 9.82389 19.1905 10.3421 18.6722C10.853 18.1614 11.5687 17.8381 12.351 17.8381H13.7404V17.7566C13.7404 15.9625 14.4734 14.3263 15.6555 13.1441C16.8376 11.962 18.4664 11.2291 20.268 11.2291H39.7843C41.5785 11.2291 43.2147 11.9621 44.3969 13.1441C45.579 14.3263 46.3119 15.9551 46.3119 17.7566V17.8381H47.7013C48.4837 17.8381 49.192 18.154 49.7102 18.6722C50.2211 19.1831 50.5443 19.8988 50.5443 20.6811V26.4363C50.5443 27.2186 50.2285 27.9269 49.7102 28.4451C49.1994 28.956 48.4837 29.2793 47.7013 29.2793H46.3119V29.3607C46.3119 31.1548 45.5789 32.7911 44.3969 33.9732C43.2147 35.1553 41.5859 35.8883 39.7843 35.8883H35.8357L35.8481 35.8858ZM46.3167 19.0375V28.0972H47.7061C48.1602 28.0972 48.5723 27.9146 48.8759 27.611C49.1795 27.3075 49.3621 26.8978 49.3621 26.4412V20.6861C49.3621 20.232 49.1795 19.8198 48.8759 19.5163C48.5798 19.2201 48.1627 19.0301 47.7061 19.0301H46.3167V19.0375ZM13.7553 28.0972V19.0375H12.3659C11.9118 19.0375 11.4997 19.2201 11.1961 19.5236C10.8999 19.8198 10.7099 20.2369 10.7099 20.6934V26.4486C10.7099 26.9027 10.8925 27.3148 11.1961 27.6184C11.4922 27.9146 11.9093 28.1046 12.3659 28.1046H13.7553V28.0972ZM39.7916 12.4335C41.2625 12.4335 42.5976 13.0332 43.5626 14.0006C44.53 14.968 45.1297 16.3007 45.1297 17.7716V29.366C45.1297 30.8369 44.5301 32.172 43.5626 33.137C42.5952 34.1044 41.2626 34.7041 39.7916 34.7041H20.2753C18.8044 34.7041 17.4693 34.1044 16.5043 33.137C15.5369 32.1696 14.9372 30.8369 14.9372 29.366V17.7716C14.9372 16.3007 15.5369 14.9656 16.5043 14.0006C17.4717 13.0332 18.8044 12.4335 20.2753 12.4335H39.7916ZM49.3549 40.935V47.961H57.321C57.4864 47.961 57.6295 47.8919 57.7381 47.7834C57.8467 47.6748 57.9158 47.5316 57.9158 47.3663V45.0859C57.9158 43.9433 57.4494 42.9068 56.6967 42.1541C55.944 41.4014 54.9099 40.9349 53.7648 40.9349L49.3549 40.935ZM10.7177 47.9585V40.9325H6.31494C5.1723 40.9325 4.1358 41.3989 3.3831 42.1516C2.6304 42.9043 2.16395 43.9384 2.16395 45.0835V47.3638C2.16395 47.5292 2.23306 47.6723 2.34164 47.7809C2.45023 47.8895 2.59337 47.9586 2.75872 47.9586H10.7248L10.7177 47.9585ZM8.42996 49.148H4.44923V56.3447H8.42996V49.148ZM55.6234 49.148H51.6427V56.3447H55.6234V49.148Z" fill="#6C6C6C"/>
</svg>
