<svg width="56" height="57" viewBox="0 0 56 57" fill="none" xmlns="http://www.w3.org/2000/svg">
<path d="M40.9551 46.806C43.7248 46.806 45.97 44.5607 45.97 41.791C45.97 39.0214 43.7248 36.7761 40.9551 36.7761C38.1854 36.7761 35.9402 39.0214 35.9402 41.791C35.9402 44.5607 38.1854 46.806 40.9551 46.806Z" fill="#6C6C6C"/>
<path d="M53.283 43.1243V41.2935L55.6781 39.1312C55.8276 38.9962 55.9316 38.8183 55.9759 38.6219C56.0202 38.4255 56.0026 38.2202 55.9256 38.0342L54.6153 34.8711C54.538 34.6852 54.4052 34.5277 54.235 34.4202C54.0648 34.3126 53.8656 34.2603 53.6645 34.2704L50.4416 34.4346L49.1474 33.1403L49.3119 29.9175C49.3222 29.7164 49.27 29.517 49.1625 29.3468C49.0549 29.1765 48.8973 29.0438 48.7113 28.9667L45.5477 27.6564C45.3617 27.5793 45.1564 27.5617 44.9599 27.6061C44.7635 27.6504 44.5856 27.7544 44.4507 27.9038L42.2884 30.299H40.4576L38.2952 27.9038C38.1603 27.7544 37.9824 27.6504 37.786 27.6061C37.5896 27.5617 37.3842 27.5793 37.1982 27.6564L34.0352 28.9666C33.8491 29.0437 33.6915 29.1764 33.584 29.3467C33.4764 29.5169 33.4242 29.7162 33.4345 29.9173L33.599 33.1401L32.3043 34.4346L29.0817 34.2699C28.8805 34.2595 28.6811 34.3117 28.5109 34.4192C28.3406 34.5268 28.2079 34.6845 28.1309 34.8706L26.8206 38.0342C26.7435 38.2202 26.7259 38.4255 26.7702 38.6219C26.8145 38.8183 26.9186 38.9962 27.068 39.1312L29.4632 41.2935V43.1243L27.068 45.2866C26.9186 45.4216 26.8145 45.5995 26.7702 45.7959C26.7259 45.9923 26.7435 46.1976 26.8206 46.3836L28.1309 49.5472C28.2081 49.7331 28.3409 49.8906 28.5111 49.9982C28.6813 50.1057 28.8806 50.158 29.0817 50.1479L32.3043 49.9832L33.5988 51.2778L33.4342 54.5004C33.4239 54.7015 33.4761 54.9009 33.5837 55.0711C33.6912 55.2413 33.8488 55.3741 34.0348 55.4512L37.1985 56.7616C37.3845 56.8387 37.5898 56.8563 37.7862 56.812C37.9827 56.7677 38.1605 56.6637 38.2955 56.5142L40.4578 54.1191H42.2886L44.4509 56.5142C44.5859 56.6637 44.7638 56.7677 44.9602 56.812C45.1566 56.8563 45.3619 56.8387 45.548 56.7616L48.7116 55.4512C48.8976 55.3741 49.0552 55.2413 49.1627 55.0711C49.2703 54.9009 49.3225 54.7015 49.3122 54.5004L49.1476 51.2778L50.4421 49.9832L53.6648 50.1479C53.8659 50.1582 54.0652 50.1059 54.2354 49.9984C54.4057 49.8908 54.5384 49.7332 54.6155 49.5472L55.9258 46.3836C56.0029 46.1976 56.0205 45.9923 55.9762 45.7959C55.9319 45.5995 55.8278 45.4216 55.6784 45.2866L53.283 43.1243ZM41.373 49.0348C40.0229 49.0348 38.7032 48.6344 37.5807 47.8844C36.4582 47.1344 35.5833 46.0683 35.0667 44.821C34.5501 43.5738 34.4149 42.2013 34.6783 40.8772C34.9416 39.5532 35.5917 38.3369 36.5463 37.3823C37.501 36.4277 38.7172 35.7776 40.0413 35.5142C41.3654 35.2508 42.7378 35.386 43.9851 35.9026C45.2324 36.4193 46.2984 37.2941 47.0485 38.4167C47.7985 39.5392 48.1988 40.8589 48.1988 42.2089C48.1968 44.0186 47.477 45.7536 46.1973 47.0333C44.9177 48.3129 43.1827 49.0327 41.373 49.0348Z" fill="#6C6C6C"/>
<path d="M5.78151 27.5821C5.97808 27.5826 6.16724 27.48 6.30962 27.2957C6.45201 27.1114 6.53665 26.8596 6.54594 26.5925C6.56806 25.9182 6.61296 25.2458 6.67998 24.5799C6.70612 24.3152 6.65624 24.0469 6.5407 23.8308C6.42515 23.6148 6.25283 23.4676 6.05955 23.4198C5.95739 23.3945 5.85251 23.3977 5.75126 23.4291C5.65002 23.4605 5.55452 23.5196 5.47053 23.6026C5.38655 23.6857 5.31583 23.791 5.26266 23.9123C5.20948 24.0336 5.17496 24.1684 5.16117 24.3083C5.08879 25.0295 5.04025 25.7577 5.01602 26.4879C5.01104 26.6289 5.02713 26.7698 5.06334 26.9021C5.09954 27.0344 5.15509 27.1553 5.22665 27.2576C5.2982 27.3599 5.38426 27.4414 5.47963 27.4971C5.575 27.5529 5.6777 27.5818 5.78151 27.5821Z" fill="#6C6C6C"/>
<path d="M20.7827 48.6712C21.8196 48.9536 22.8761 49.1652 23.9442 49.3046C24.0775 49.3221 24.213 49.3137 24.3427 49.2797C24.4724 49.2457 24.5935 49.1869 24.6988 49.1068C24.8041 49.0267 24.8913 48.9271 24.9551 48.8138C25.019 48.7006 25.0582 48.5761 25.0704 48.448C25.0935 48.205 25.0179 47.9629 24.8592 47.7719C24.7005 47.5809 24.471 47.4558 24.2184 47.4225C23.2396 47.2951 22.2714 47.1011 21.3214 46.8421C21.0762 46.7755 20.8135 46.8018 20.5881 46.9157C20.3627 47.0296 20.1918 47.2223 20.111 47.4536C20.0683 47.5757 20.0519 47.7047 20.0629 47.833C20.0738 47.9613 20.1118 48.0861 20.1746 48.1999C20.2374 48.3137 20.3237 48.4142 20.4282 48.4952C20.5327 48.5762 20.6533 48.6361 20.7827 48.6712Z" fill="#6C6C6C"/>
<path d="M49.2782 25.0736C49.4015 25.0676 49.5224 25.035 49.6335 24.978C49.7447 24.9209 49.8438 24.8405 49.9248 24.7417C50.0059 24.6428 50.0673 24.5275 50.1052 24.4027C50.1431 24.278 50.1568 24.1463 50.1454 24.0158C50.0281 22.633 49.7889 21.2649 49.431 19.9296C49.3974 19.8034 49.34 19.6857 49.2624 19.5838C49.1847 19.4818 49.0884 19.3976 48.9792 19.3363C48.87 19.275 48.7503 19.2379 48.6272 19.2271C48.5041 19.2164 48.3803 19.2323 48.2631 19.2738C48.0413 19.3524 47.8565 19.5187 47.7472 19.7382C47.6379 19.9577 47.6125 20.2135 47.6763 20.4524C48.0047 21.6763 48.2239 22.9304 48.331 24.1979C48.3524 24.4453 48.4629 24.6743 48.6393 24.8374C48.8157 25.0005 49.0445 25.0851 49.2782 25.0736Z" fill="#6C6C6C"/>
<path d="M27.5816 6.12397C29.1516 6.12318 30.7166 6.3035 32.2455 6.66136C32.488 6.71785 32.743 6.67848 32.9573 6.55143C33.1716 6.42438 33.3288 6.21944 33.3963 5.97919C33.4319 5.85239 33.4415 5.71966 33.4245 5.58902C33.4076 5.45838 33.3643 5.33256 33.2974 5.21915C33.2306 5.10574 33.1414 5.0071 33.0354 4.92921C32.9294 4.85131 32.8088 4.79577 32.6808 4.76595C29.3264 3.98345 25.8375 3.98345 22.4831 4.76595C22.3551 4.79577 22.2345 4.85131 22.1285 4.92921C22.0225 5.0071 21.9333 5.10574 21.8665 5.21915C21.7996 5.33256 21.7563 5.45838 21.7394 5.58902C21.7224 5.71966 21.732 5.85239 21.7676 5.97919C21.8351 6.21944 21.9923 6.42438 22.2066 6.55143C22.4209 6.67848 22.6758 6.71785 22.9184 6.66136C24.4471 6.30356 26.0118 6.12324 27.5816 6.12397Z" fill="#6C6C6C"/>
<path d="M40.9551 4.17908H38.6899L37.6118 6.68654H40.4161L40.9551 4.17908Z" fill="#6C6C6C"/>
<path d="M45.4841 4.17908H43.1131L42.627 6.68654H45.9702L45.4841 4.17908Z" fill="#6C6C6C"/>
<path d="M45.9701 8.35828H41.791V10.8657H45.9701V8.35828Z" fill="#6C6C6C"/>
<path d="M50.985 8.35828H48.1193V11.4926C48.1193 11.7697 48.0186 12.0354 47.8395 12.2314C47.6604 12.4273 47.4174 12.5374 47.1641 12.5374H41.4327C41.1794 12.5374 40.9364 12.4273 40.7573 12.2314C40.5781 12.0354 40.4775 11.7697 40.4775 11.4926V8.35828H37.6118V16.7165H50.985V8.35828Z" fill="#6C6C6C"/>
<path d="M50.1493 6.68654L49.3408 4.17908H47.6418L48.0461 6.68654H50.1493Z" fill="#6C6C6C"/>
<path d="M6.01791 6.72836C6.01791 6.47343 6.12358 6.22895 6.31168 6.04869C6.49977 5.86843 6.75489 5.76716 7.0209 5.76716H10.0299V0H0V19.2239H6.01791V6.72836ZM6.01791 1.92239H8.02388V3.84478H6.01791V1.92239ZM4.01194 15.3791H2.00597V13.4567H4.01194V15.3791ZM4.01194 11.5343H2.00597V9.61194H4.01194V11.5343ZM4.01194 7.68955H2.00597V5.76716H4.01194V7.68955ZM4.01194 3.84478H2.00597V1.92239H4.01194V3.84478Z" fill="#6C6C6C"/>
<path d="M7.52222 19.224H17.5521V7.52246H7.52222V19.224ZM13.5401 9.47271H15.5461V11.423H13.5401V9.47271ZM13.5401 13.3732H15.5461V15.3235H13.5401V13.3732ZM9.52819 9.47271H11.5342V11.423H9.52819V9.47271ZM9.52819 13.3732H11.5342V15.3235H9.52819V13.3732Z" fill="#6C6C6C"/>
<path d="M13.7389 40.1194H3.81355C3.02411 40.1203 2.26726 40.4291 1.70904 40.9781C1.15082 41.5271 0.836824 42.2714 0.835938 43.0478V51.8331C0.836233 52.0919 0.940898 52.34 1.12697 52.523C1.31304 52.706 1.56533 52.8089 1.82847 52.8092H3.81355C4.0767 52.8089 4.32898 52.706 4.51505 52.523C4.70113 52.34 4.80579 52.0919 4.80609 51.8331V50.285L3.1117 48.6188C3.01954 48.5281 2.94643 48.4205 2.89655 48.3021C2.84668 48.1836 2.82101 48.0567 2.82101 47.9285V45.0001H4.80609V47.5243L6.50047 49.1905C6.59264 49.2812 6.66574 49.3888 6.71562 49.5072C6.7655 49.6257 6.79117 49.7526 6.79116 49.8808V51.8331C6.79028 52.6095 6.47628 53.3538 5.91806 53.9028C5.35984 54.4518 4.60299 54.7606 3.81355 54.7615V56.8358H13.7389V54.7615C12.9495 54.7606 12.1926 54.4518 11.6344 53.9028C11.0762 53.3538 10.7622 52.6095 10.7613 51.8331V49.8808C10.7613 49.7526 10.787 49.6257 10.8369 49.5072C10.8867 49.3888 10.9598 49.2812 11.052 49.1905L12.7464 47.5243V45.0001H14.7315V47.9285C14.7315 48.0567 14.7058 48.1836 14.6559 48.3021C14.606 48.4205 14.5329 48.5281 14.4408 48.6188L12.7464 50.285V51.8331C12.7467 52.0919 12.8513 52.34 13.0374 52.523C13.2235 52.706 13.4758 52.8089 13.7389 52.8092H15.724C15.9871 52.8089 16.2394 52.706 16.4255 52.523C16.6116 52.34 16.7162 52.0919 16.7165 51.8331V43.0478C16.7156 42.2714 16.4017 41.5271 15.8434 40.9781C15.2852 40.4291 14.5284 40.1203 13.7389 40.1194Z" fill="#6C6C6C"/>
<path d="M8.77633 38.4477C10.8536 38.4477 12.5375 36.5766 12.5375 34.2686C12.5375 31.9605 10.8536 30.0895 8.77633 30.0895C6.69908 30.0895 5.01514 31.9605 5.01514 34.2686C5.01514 36.5766 6.69908 38.4477 8.77633 38.4477Z" fill="#6C6C6C"/>
<path d="M11.1305 23.4326H11.1297C11.0313 23.3991 10.9291 23.3939 10.8292 23.4173C10.7294 23.4407 10.634 23.4923 10.5489 23.5688C10.4639 23.6452 10.3909 23.7451 10.3346 23.8622C10.2782 23.9793 10.2396 24.1111 10.2211 24.2497C10.1254 24.9912 10.0619 25.74 10.0308 26.4922C10.0256 26.6328 10.041 26.7735 10.0761 26.9056C10.1113 27.0377 10.1654 27.1584 10.2352 27.2604C10.305 27.3625 10.389 27.4436 10.482 27.4989C10.5751 27.5542 10.6753 27.5825 10.7765 27.5821H10.7773C10.9676 27.5821 11.1507 27.4808 11.2891 27.2989C11.4275 27.117 11.5107 26.8684 11.5217 26.6039C11.5494 25.9404 11.6054 25.2797 11.6897 24.6255C11.7233 24.3649 11.6842 24.0963 11.5802 23.8745C11.4763 23.6528 11.3154 23.4947 11.1305 23.4326Z" fill="#6C6C6C"/>
<path d="M20.6891 44.0529C21.7353 44.5289 22.8173 44.8853 23.9204 45.1171C24.0526 45.1443 24.188 45.1392 24.3184 45.1021C24.4488 45.065 24.5715 44.9967 24.6789 44.9014C24.7863 44.8061 24.8762 44.6857 24.9431 44.5477C25.01 44.4097 25.0525 44.257 25.068 44.0988C25.0969 43.8017 25.0289 43.5027 24.8782 43.2632C24.7274 43.0236 24.5051 42.8616 24.257 42.8103C23.2823 42.6048 22.3263 42.2899 21.4018 41.8698C21.1669 41.762 20.9061 41.7649 20.673 41.8779C20.4398 41.991 20.2519 42.2056 20.1476 42.4778C20.0922 42.6228 20.0623 42.7798 20.0598 42.939C20.0572 43.0982 20.082 43.2564 20.1327 43.4038C20.1834 43.5513 20.2589 43.6849 20.3545 43.7965C20.4502 43.9081 20.5641 43.9953 20.6891 44.0529Z" fill="#6C6C6C"/>
<path d="M44.084 25.0731C44.2354 25.0656 44.3834 25.0315 44.519 24.9729C44.6546 24.9143 44.7749 24.8323 44.8726 24.7321C44.9702 24.6318 45.0432 24.5154 45.0869 24.39C45.1307 24.2645 45.1443 24.1326 45.127 24.0025C44.9354 22.5778 44.5379 21.1795 43.9438 19.8404C43.8893 19.718 43.8064 19.6066 43.7003 19.5129C43.5941 19.4192 43.467 19.3453 43.3266 19.2956C43.1862 19.246 43.0355 19.2216 42.8838 19.224C42.7321 19.2265 42.5826 19.2557 42.4445 19.3099C42.1858 19.4113 41.9817 19.5944 41.8741 19.8216C41.7664 20.0488 41.7633 20.3029 41.8654 20.532C42.3918 21.7196 42.7442 22.9595 42.9144 24.2227C42.947 24.4666 43.0863 24.6906 43.3037 24.8487C43.5212 25.0067 43.8003 25.087 44.084 25.0731Z" fill="#6C6C6C"/>
<path d="M27.5819 11.6135C29.1398 11.611 30.6889 11.9037 32.1767 12.4818C32.412 12.5743 32.6667 12.5507 32.8886 12.4157C33.1105 12.2808 33.2828 12.0447 33.3701 11.7559C33.4167 11.6018 33.4377 11.4375 33.4317 11.2729C33.4258 11.1083 33.393 10.947 33.3355 10.7988C33.2779 10.6507 33.1969 10.5188 33.0972 10.4112C32.9975 10.3037 32.8813 10.2227 32.7557 10.1734C29.3854 8.86766 25.7785 8.86766 22.4082 10.1734C22.2826 10.2227 22.1664 10.3037 22.0667 10.4112C21.967 10.5188 21.8859 10.6507 21.8284 10.7988C21.7709 10.947 21.7381 11.1083 21.7322 11.2729C21.7262 11.4375 21.7472 11.6018 21.7938 11.7559C21.8811 12.0447 22.0534 12.2808 22.2753 12.4157C22.4971 12.5507 22.7519 12.5743 22.9872 12.4818C24.475 11.9037 26.0241 11.611 27.5819 11.6135Z" fill="#6C6C6C"/>
</svg>
