<svg width="59" height="50" viewBox="0 0 59 50" fill="none" xmlns="http://www.w3.org/2000/svg">
<path d="M31.4601 17.1599C28.0729 5.23575 11.7771 3.34536 5.77009 14.2001C0.529369 23.3544 7.46559 35.0955 17.9802 34.9998C27.0797 35.1665 34.1314 25.8859 31.4601 17.1599ZM6.81007 25.3299C3.91761 18.322 8.90718 9.92929 16.4403 9.10006C16.4421 9.09975 16.9703 20.3898 16.97 20.39L6.81007 25.3299ZM29.98 21.6099L18.9601 20.12L18.4403 9.00997C24.9094 9.0956 30.481 15.1384 29.98 21.6099Z" fill="#6C6C6C"/>
<path d="M55 0H39C36.7944 0 35 1.79443 35 4V22C35 24.2056 36.7944 26 39 26H55C57.2056 26 59 24.2056 59 22V4C59 1.79443 57.2056 0 55 0ZM40 5H54C55.3101 5.021 55.3178 6.97736 53.9999 7H40C38.6899 6.979 38.6822 5.02258 40 5ZM40 9H54C55.3101 9.021 55.3178 10.9774 53.9999 11H40C38.6899 10.979 38.6822 9.02258 40 9ZM39 14C39 13.4477 39.4478 13 40 13H54C54.5522 13 55 13.4477 55 14C55 14.5522 54.5522 15 54 15H40C39.4478 15 39 14.5522 39 14ZM43 19C41.688 18.9784 41.6838 17.0224 43.0001 17H51C52.312 17.0216 52.3162 18.9775 50.9999 19H43ZM57 22C57 23.103 56.103 24 55 24H51.4399L57 18.4399V22Z" fill="#6C6C6C"/>
<path d="M52 33C52 35.21 50.21 37 48 37H6C3.78998 37 2 35.21 2 33V9C2 6.78998 3.78998 5 6 5H33C33.0045 4.41473 32.9686 3.56238 33.09 3H6C2.69 3 0 5.69 0 9V37C0 40.31 2.69 43 6 43H22.28L19.99 47.01C19.1985 48.2728 20.2408 50.0535 21.72 49.9999C21.72 50 30.28 50 30.28 50C31 50 31.64 49.63 32.01 49C32.37 48.38 32.37 47.63 32.01 47.01L29.72 43H48C51.31 43 54 40.31 54 37V28H52V33ZM30.28 48H21.72L24.58 43H27.42L30.28 48Z" fill="#6C6C6C"/>
<path d="M49 28H34C33.4477 28 33 28.4473 33 29C33 29.5527 33.4477 30 34 30H49C50.3097 29.9794 50.3182 28.0223 49 28Z" fill="#6C6C6C"/>
<path d="M30 34H49C49.5523 34 50 33.5527 50 33C50 32.4473 49.5523 32 49 32H30C28.6916 32.0201 28.6808 33.9775 30 34Z" fill="#6C6C6C"/>
</svg>
