<svg width="63" height="58" viewBox="0 0 63 58" fill="none" xmlns="http://www.w3.org/2000/svg">
<path d="M55.8643 43.45H49.6572C48.0114 43.4516 46.4336 44.1061 45.2699 45.2698C44.1061 46.4335 43.4517 48.0114 43.45 49.6571H40.3464C40.3448 48.0114 39.6903 46.4335 38.5266 45.2698C37.3629 44.1061 35.785 43.4516 34.1393 43.45H27.9321C26.2864 43.4516 24.7086 44.1061 23.5449 45.2698C22.3811 46.4335 21.7266 48.0114 21.725 49.6571H18.6214C18.6198 48.0114 17.9653 46.4335 16.8016 45.2698C15.6379 44.1061 14.06 43.4516 12.4143 43.45H6.20714C4.56141 43.4516 2.98355 44.1061 1.81985 45.2698C0.656136 46.4335 0.00164327 48.0114 0 49.6571L0 51.7261C0.00164327 53.3719 0.656136 54.9497 1.81985 56.1134C2.98355 57.2772 4.56141 57.9316 6.20714 57.9333H12.4143C14.06 57.9316 15.6379 57.2772 16.8016 56.1134C17.9653 54.9497 18.6198 53.3719 18.6214 51.7261H21.725C21.7266 53.3719 22.3811 54.9497 23.5449 56.1134C24.7086 57.2772 26.2864 57.9316 27.9321 57.9333H34.1393C35.785 57.9316 37.3629 57.2772 38.5266 56.1134C39.6903 54.9497 40.3448 53.3719 40.3464 51.7261H43.45C43.4517 53.3719 44.1061 54.9497 45.2699 56.1134C46.4336 57.2772 48.0114 57.9316 49.6572 57.9333H55.8643C57.51 57.9316 59.0879 57.2772 60.2516 56.1134C61.4153 54.9497 62.0698 53.3719 62.0714 51.7261V49.6571C62.0698 48.0114 61.4153 46.4335 60.2516 45.2698C59.0879 44.1061 57.51 43.4516 55.8643 43.45ZM12.4143 55.8642H6.20714C5.10965 55.8642 4.05711 55.4283 3.28107 54.6522C2.50502 53.8762 2.06905 52.8236 2.06905 51.7261V49.6571C2.06905 48.5596 2.50502 47.5071 3.28107 46.731C4.05711 45.955 5.10965 45.519 6.20714 45.519H12.4143C13.5118 45.519 14.5643 45.955 15.3404 46.731C16.1164 47.5071 16.5524 48.5596 16.5524 49.6571H14.4833C14.209 49.6571 13.9458 49.7661 13.7518 49.9601C13.5578 50.1541 13.4488 50.4172 13.4488 50.6916C13.4488 50.966 13.5578 51.2291 13.7518 51.4231C13.9458 51.6172 14.209 51.7261 14.4833 51.7261H16.5524C16.5524 52.8236 16.1164 53.8762 15.3404 54.6522C14.5643 55.4283 13.5118 55.8642 12.4143 55.8642ZM34.1393 55.8642H27.9321C26.8347 55.8642 25.7821 55.4283 25.0061 54.6522C24.23 53.8762 23.7941 52.8236 23.7941 51.7261H25.8631C26.1375 51.7261 26.4006 51.6172 26.5946 51.4231C26.7886 51.2291 26.8976 50.966 26.8976 50.6916C26.8976 50.4172 26.7886 50.1541 26.5946 49.9601C26.4006 49.7661 26.1375 49.6571 25.8631 49.6571H23.7941C23.7941 48.5596 24.23 47.5071 25.0061 46.731C25.7821 45.955 26.8347 45.519 27.9321 45.519H34.1393C35.2368 45.519 36.2893 45.955 37.0654 46.731C37.8414 47.5071 38.2774 48.5596 38.2774 49.6571H37.2429C36.9685 49.6571 36.7054 49.7661 36.5113 49.9601C36.3173 50.1541 36.2083 50.4172 36.2083 50.6916C36.2083 50.966 36.3173 51.2291 36.5113 51.4231C36.7054 51.6172 36.9685 51.7261 37.2429 51.7261H38.2774C38.2774 52.8236 37.8414 53.8762 37.0654 54.6522C36.2893 55.4283 35.2368 55.8642 34.1393 55.8642ZM60.0024 51.7261C60.0024 52.8236 59.5664 53.8762 58.7904 54.6522C58.0143 55.4283 56.9618 55.8642 55.8643 55.8642H49.6572C48.5597 55.8642 47.5071 55.4283 46.7311 54.6522C45.955 53.8762 45.5191 52.8236 45.5191 51.7261H48.6226C48.897 51.7261 49.1601 51.6172 49.3542 51.4231C49.5482 51.2291 49.6572 50.966 49.6572 50.6916C49.6572 50.4172 49.5482 50.1541 49.3542 49.9601C49.1601 49.7661 48.897 49.6571 48.6226 49.6571H45.5191C45.5191 48.5596 45.955 47.5071 46.7311 46.731C47.5071 45.955 48.5597 45.519 49.6572 45.519H55.8643C56.9618 45.519 58.0143 45.955 58.7904 46.731C59.5664 47.5071 60.0024 48.5596 60.0024 49.6571V51.7261Z" fill="#6C6C6C"/>
<path d="M10.3453 41.3809C10.6196 41.3809 10.8828 41.2719 11.0768 41.0779C11.2708 40.8839 11.3798 40.6207 11.3798 40.3464V37.2428H30.0012V40.3464C30.0012 40.6207 30.1102 40.8839 30.3042 41.0779C30.4982 41.2719 30.7614 41.3809 31.0357 41.3809C31.3101 41.3809 31.5732 41.2719 31.7673 41.0779C31.9613 40.8839 32.0703 40.6207 32.0703 40.3464V37.2428H50.6917V40.3464C50.6917 40.6207 50.8007 40.8839 50.9947 41.0779C51.1887 41.2719 51.4518 41.3809 51.7262 41.3809C52.0006 41.3809 52.2637 41.2719 52.4577 41.0779C52.6517 40.8839 52.7607 40.6207 52.7607 40.3464V37.2428C52.7607 36.694 52.5428 36.1678 52.1547 35.7797C51.7667 35.3917 51.2404 35.1737 50.6917 35.1737H32.0703V32.0702C32.0703 31.7958 31.9613 31.5327 31.7673 31.3386C31.5732 31.1446 31.3101 31.0356 31.0357 31.0356C30.7614 31.0356 30.4982 31.1446 30.3042 31.3386C30.1102 31.5327 30.0012 31.7958 30.0012 32.0702V35.1737H11.3798C10.831 35.1737 10.3048 35.3917 9.91674 35.7797C9.52872 36.1678 9.31073 36.694 9.31073 37.2428V40.3464C9.31073 40.6207 9.41972 40.8839 9.61374 41.0779C9.80775 41.2719 10.0709 41.3809 10.3453 41.3809Z" fill="#6C6C6C"/>
<path d="M18.6214 28.9667H43.45C43.9987 28.9667 44.525 28.7487 44.913 28.3607C45.3011 27.9726 45.519 27.4464 45.519 26.8976V2.06905C45.519 1.5203 45.3011 0.994032 44.913 0.60601C44.525 0.217988 43.9987 0 43.45 0H37.2428V9.45038C37.2425 9.8134 37.1397 10.1689 36.9462 10.4761C36.7527 10.7833 36.4765 11.0296 36.1492 11.1868C35.822 11.3439 35.457 11.4055 35.0963 11.3644C34.7356 11.3233 34.3939 11.1813 34.1103 10.9546L31.0357 8.49655L27.9611 10.9556C27.6774 11.1819 27.3356 11.3236 26.9749 11.3645C26.6143 11.4053 26.2494 11.3435 25.9223 11.1864C25.5952 11.0292 25.319 10.7829 25.1255 10.4758C24.9321 10.1687 24.8291 9.81332 24.8286 9.45038V0H18.6214C18.0727 0 17.5464 0.217988 17.1584 0.60601C16.7704 0.994032 16.5524 1.5203 16.5524 2.06905V26.8976C16.5524 27.4464 16.7704 27.9726 17.1584 28.3607C17.5464 28.7487 18.0727 28.9667 18.6214 28.9667ZM18.6214 21.725C18.6214 21.1763 18.8394 20.65 19.2274 20.262C19.6154 19.8739 20.1417 19.656 20.6905 19.656H26.8976C27.4464 19.656 27.9726 19.8739 28.3606 20.262C28.7487 20.65 28.9667 21.1763 28.9667 21.725V24.8286C28.9667 25.3773 28.7487 25.9036 28.3606 26.2916C27.9726 26.6796 27.4464 26.8976 26.8976 26.8976H20.6905C20.1417 26.8976 19.6154 26.6796 19.2274 26.2916C18.8394 25.9036 18.6214 25.3773 18.6214 24.8286V21.725Z" fill="#6C6C6C"/>
<path d="M20.6905 21.725H26.8976V24.8285H20.6905V21.725Z" fill="#6C6C6C"/>
<path d="M32.242 6.81131L35.1738 9.15657V0H26.8976V9.15657L29.8305 6.81027C30.1719 6.53435 30.5975 6.38392 31.0364 6.38411C31.4753 6.3843 31.9009 6.5351 32.242 6.81131Z" fill="#6C6C6C"/>
</svg>
