<svg width="53" height="53" viewBox="0 0 53 53" fill="none" xmlns="http://www.w3.org/2000/svg">
<path d="M32.3126 26.0117C32.3258 26.1736 32.3325 26.3369 32.3325 26.5013C32.3325 29.7175 29.7161 32.334 26.5001 32.334C23.284 32.334 20.6677 29.7175 20.6677 26.5013C20.6677 23.2851 23.284 20.6655 26.5001 20.6655C26.6639 20.6655 26.8268 20.6723 26.9886 20.6856C26.7979 21.163 26.6959 21.6773 26.6959 22.2032C26.6959 24.4635 28.5361 26.3025 30.798 26.3025C31.3235 26.3025 31.8367 26.2013 32.3127 26.0117H32.3126ZM39.6712 26.5013C39.6712 33.7644 33.7626 39.6732 26.4999 39.6732C19.2373 39.6732 13.3257 33.7644 13.3257 26.5013C13.3257 19.2383 19.2357 13.3263 26.4999 13.3263C33.7642 13.3263 39.6712 19.2366 39.6712 26.5013ZM34.897 26.5013C34.897 25.4076 34.6908 24.3463 34.2846 23.3467C34.1081 22.9125 33.7085 22.6091 33.243 22.5557C32.7766 22.5022 32.3195 22.7071 32.0492 23.0902C31.7629 23.4957 31.2952 23.7378 30.7979 23.7378C29.9501 23.7378 29.2603 23.0494 29.2603 22.2032C29.2603 21.7068 29.5042 21.2366 29.9128 20.9452C30.2938 20.6735 30.4967 20.2156 30.4417 19.7507C30.3868 19.2859 30.083 18.8878 29.649 18.7123C28.6456 18.3066 27.586 18.1009 26.4998 18.1009C21.8698 18.1009 18.1029 21.8693 18.1029 26.5013C18.1029 31.1333 21.8698 34.8987 26.4998 34.8987C31.1299 34.8987 34.8969 31.1316 34.8969 26.5013H34.897ZM41.3936 38.1358C40.8686 38.4433 40.3387 38.7327 39.8046 39.0059L43.0577 42.2691H45.953C46.4605 41.0251 47.6828 40.1458 49.1069 40.1458C50.9847 40.1458 52.5124 41.6736 52.5124 43.5514C52.5124 45.4293 50.9847 46.9571 49.1069 46.9571C47.6885 46.9571 46.4636 46.0764 45.9542 44.8338H42.5254C42.1846 44.8338 41.8579 44.6981 41.6173 44.4568L37.3161 40.142C36.2502 40.5712 35.1687 40.9348 34.073 41.2327V41.847L37.4446 44.2771C37.779 44.5181 37.9771 44.9052 37.9771 45.3174V46.4401C39.2211 46.9477 40.1003 48.17 40.1003 49.5943C40.1003 51.4722 38.5726 53 36.6948 53C34.8365 53 33.3088 51.4891 33.2894 49.6321C33.2894 49.6276 33.2894 49.6231 33.2894 49.6186V49.5943C33.2894 48.17 34.1687 46.9477 35.4127 46.4401V45.9739L32.041 43.5438C31.7067 43.3028 31.5086 42.9157 31.5086 42.5035V41.8045C30.2816 42.0195 29.0387 42.1547 27.7822 42.2093V46.4401C29.0262 46.9477 29.9054 48.17 29.9054 49.5943C29.9054 51.4722 28.3777 53 26.4999 53C24.6415 53 23.1139 51.4891 23.0947 49.632C23.0947 49.6275 23.0947 49.6231 23.0947 49.6186V49.5943C23.0947 48.17 23.974 46.9478 25.2178 46.4401V42.2093C23.9613 42.1547 22.7185 42.0196 21.4915 41.8045V42.5035C21.4915 42.9156 21.2934 43.3028 20.9591 43.5438L17.5873 45.9738V46.44C18.8314 46.9476 19.7106 48.1699 19.7106 49.5942V49.6185V49.6352C19.6864 51.4905 18.1588 52.9999 16.3052 52.9999C14.4275 52.9999 12.8998 51.4721 12.8998 49.5942C12.8998 48.1699 13.7791 46.9477 15.0229 46.44V45.3173C15.0229 44.9052 15.221 44.518 15.5554 44.277L18.9271 41.847V41.2327C17.8314 40.9348 16.7499 40.5713 15.684 40.142L11.3829 44.4568C11.1424 44.6981 10.8156 44.8338 10.4748 44.8338H7.04605C6.53656 46.0764 5.31168 46.9571 3.89317 46.9571C2.01551 46.9571 0.487795 45.4293 0.487795 43.5514C0.487795 41.6736 2.01551 40.1458 3.89317 40.1458C5.31745 40.1458 6.53966 41.0251 7.04723 42.2691H9.94248L13.1955 39.0059C12.6614 38.7328 12.1315 38.4433 11.6065 38.1358C7.198 35.554 3.25909 31.777 0.215421 27.2129C-0.0718069 26.7821 -0.0718069 26.2207 0.215421 25.79C3.2592 21.2256 7.19821 17.448 11.6064 14.8656C12.1317 14.5578 12.6619 14.2682 13.1963 13.9947L9.94248 10.7308H7.04723C6.53966 11.9747 5.31745 12.8541 3.89317 12.8541C2.01551 12.8541 0.487795 11.3263 0.487795 9.44844C0.487795 7.57057 2.01551 6.04278 3.89317 6.04278C5.31093 6.04278 6.53539 6.92342 7.0453 8.16611H10.4748C10.8156 8.16611 11.1424 8.30182 11.3829 8.54312L15.6847 12.8584C16.7503 12.4291 17.8316 12.0655 18.9271 11.7676V11.1556L15.5548 8.72243C15.2208 8.48146 15.0228 8.09451 15.0228 7.68256V6.55977C13.7789 6.05218 12.8997 4.82991 12.8997 3.40566C12.8997 1.52779 14.4274 0 16.3051 0C18.1587 0 19.6863 1.50941 19.7105 3.36463V3.38141V3.40566C19.7105 4.83001 18.8311 6.05218 17.5872 6.55988V7.02654L20.9595 9.45966C21.2935 9.70064 21.4915 10.0876 21.4915 10.4995V11.1957C22.7185 10.9806 23.9613 10.8454 25.2178 10.7907V6.55977C23.9739 6.05218 23.0947 4.82991 23.0947 3.40566V3.38141C23.0947 3.37692 23.0947 3.37254 23.0947 3.36805C23.114 1.51091 24.6417 0 26.4999 0C28.3777 0 29.9054 1.52779 29.9054 3.40566C29.9054 4.83001 29.0261 6.05218 27.7822 6.55988V10.7907C29.0387 10.8453 30.2816 10.9805 31.5086 11.1957V10.4995C31.5086 10.0876 31.7066 9.70064 32.0406 9.45966L35.4128 7.02654V6.55988C34.1688 6.05229 33.2895 4.83001 33.2895 3.40566V3.38141C33.2895 3.37692 33.2895 3.37243 33.2895 3.36794C33.3091 1.51091 34.8367 0.000106802 36.6949 0.000106802C38.5727 0.000106802 40.1004 1.5279 40.1004 3.40577C40.1004 4.83012 39.2211 6.05229 37.9772 6.55999V7.68278C37.9772 8.09473 37.7792 8.48167 37.4452 8.72264L34.073 11.1557V11.7679C35.1685 12.0657 36.2498 12.4293 37.3154 12.8586L41.6172 8.54333C41.8577 8.30204 42.1845 8.16632 42.5253 8.16632H45.9548C46.4647 6.92364 47.6891 6.04299 49.1068 6.04299C50.9846 6.04299 52.5123 7.57079 52.5123 9.44866C52.5123 11.3265 50.9846 12.8543 49.1068 12.8543C47.6825 12.8543 46.4604 11.975 45.9529 10.731H43.0576L39.8038 13.995C40.3382 14.2683 40.8684 14.558 41.3937 14.8658C45.8018 17.4483 49.7407 21.2258 52.7846 25.7902C53.0718 26.221 53.0718 26.7824 52.7846 27.2131C49.741 31.7772 45.802 35.5543 41.3935 38.1361L41.3936 38.1358ZM42.2357 26.5013C42.2357 17.8225 35.1766 10.7617 26.4999 10.7617C17.8233 10.7617 10.7612 17.8224 10.7612 26.5013C10.7612 35.1803 17.8216 42.2379 26.4999 42.2379C35.1783 42.2379 42.2357 35.1785 42.2357 26.5013Z" fill="#6C6C6C"/>
</svg>
