<svg width="51" height="51" viewBox="0 0 51 51" fill="none" xmlns="http://www.w3.org/2000/svg">
<path d="M50.9985 8.0748C50.9985 4.49641 45.6522 1.479 36.6849 0.00853952C36.4384 -0.0254595 36.1919 0.0425385 35.9964 0.204034C35.8095 0.365529 35.699 0.603522 35.699 0.850015V14.6111C32.673 15.0446 29.2391 15.2996 25.4993 15.2996C21.7594 15.2996 18.3255 15.0446 15.2996 14.6111V0.850015C15.2996 0.603522 15.1891 0.365529 15.0021 0.204034C14.8066 0.0425385 14.5601 -0.0254595 14.3136 0.00853952C5.34634 1.479 0 4.49641 0 8.0748C0 8.1768 0.0169995 8.2703 0.0254992 8.3638C0.0169995 8.41479 0 8.44879 0 8.49979V35.699C0 38.5464 3.4849 40.7138 8.55075 42.1503C8.44025 41.5723 8.51675 40.9688 8.79724 40.4419C4.32637 39.1244 1.69995 37.3649 1.69995 35.699V11.7212C5.64384 15.1721 15.8095 16.9995 25.4993 16.9995C35.189 16.9995 45.3547 15.1721 49.2986 11.7212V35.699C49.2986 37.3649 46.6721 39.1244 42.2013 40.4419C42.4818 40.9688 42.5583 41.5723 42.4478 42.1503C47.5136 40.7138 50.9985 38.5464 50.9985 35.699V8.49979C50.9985 8.44879 50.9815 8.41479 50.973 8.3638C50.9815 8.2703 50.9985 8.1768 50.9985 8.0748Z" fill="#6C6C6C"/>
<path d="M40.6289 41.1303C40.3569 40.7733 33.8121 32.2991 25.4993 32.2991C17.1866 32.2991 10.6502 40.7733 10.3698 41.1303C10.1403 41.4363 10.1403 41.8528 10.3698 42.1588C10.6417 42.5158 17.1866 50.99 25.4993 50.99C33.8121 50.99 40.3484 42.5158 40.6289 42.1588C40.8584 41.8528 40.8584 41.4363 40.6289 41.1303ZM25.4993 47.5986C22.2184 47.5986 19.5495 44.9297 19.5495 41.6488C19.5495 38.3679 22.2184 35.699 25.4993 35.699C28.7802 35.699 31.4491 38.3679 31.4491 41.6488C31.4491 44.9297 28.7802 47.5986 25.4993 47.5986Z" fill="#6C6C6C"/>
<path d="M39.0989 33.1491C38.8779 33.1491 38.6654 33.0641 38.4954 32.9026C38.164 32.5711 38.164 32.0356 38.4954 31.7041L42.1418 28.0577L38.4954 24.4113C38.164 24.0798 38.164 23.5443 38.4954 23.2129C38.8269 22.8814 39.3624 22.8814 39.6939 23.2129L43.9438 27.4627C44.2753 27.7942 44.2753 28.3297 43.9438 28.6612L39.6939 32.9111C39.5239 33.0811 39.3114 33.1576 39.0904 33.1576L39.0989 33.1491Z" fill="#6C6C6C"/>
<path d="M11.8997 33.1491C11.6787 33.1491 11.4662 33.0641 11.2962 32.9026L7.04635 28.6528C6.71486 28.3213 6.71486 27.7858 7.04635 27.4543L11.2962 23.2044C11.6277 22.8729 12.1632 22.8729 12.4947 23.2044C12.8262 23.5359 12.8262 24.0714 12.4947 24.4029L8.84829 28.0493L12.4947 31.6957C12.8262 32.0272 12.8262 32.5627 12.4947 32.8941C12.3247 33.0641 12.1122 33.1406 11.8912 33.1406L11.8997 33.1491Z" fill="#6C6C6C"/>
</svg>
