<svg width="57" height="57" viewBox="0 0 57 57" fill="none" xmlns="http://www.w3.org/2000/svg">
<g clip-path="url(#clip0_0_13)">
<path fillRule="evenodd" clipRule="evenodd" d="M36.8997 7.29056L30.616 15.2229C30.4838 15.3902 30.4014 15.5913 30.3783 15.8032C30.3551 16.0151 30.3922 16.2293 30.4851 16.4211C30.5781 16.613 30.7232 16.7747 30.9039 16.8879C31.0845 17.0011 31.2934 17.061 31.5066 17.0609V17.0665H38.0416L33.2189 23.1546C33.0415 23.3916 32.9637 23.6884 33.002 23.9819C33.0404 24.2754 33.1918 24.5423 33.424 24.7259C33.6562 24.9094 33.9509 24.995 34.2453 24.9644C34.5397 24.9338 34.8105 24.7895 35.0001 24.5622L41.2162 16.7149C41.3707 16.5536 41.4743 16.3504 41.5143 16.1307C41.5543 15.911 41.5289 15.6843 41.4412 15.4789C41.3535 15.2735 41.2075 15.0983 41.0211 14.9752C40.8348 14.8521 40.6164 14.7864 40.3931 14.7863H33.8577L38.6812 8.69819C38.8585 8.46121 38.9363 8.16436 38.898 7.87087C38.8597 7.57738 38.7083 7.31044 38.476 7.12693C38.2438 6.94341 37.9491 6.85782 37.6547 6.88839C37.3603 6.91895 37.0895 7.06325 36.8999 7.29056H36.8997ZM44.4143 7.46156C46.3724 9.41998 47.5908 11.9967 47.862 14.7528C48.1332 17.5088 47.4403 20.2736 45.9016 22.5761C44.3628 24.8786 42.0733 26.5763 39.4231 27.38C36.773 28.1837 33.9261 28.0436 31.3677 26.9837C28.8092 25.9237 26.6974 24.0094 25.3921 21.567C24.0868 19.1245 23.6688 16.3051 24.2092 13.589C24.7496 10.8729 26.2151 8.42817 28.3559 6.67143C30.4968 4.91469 33.1805 3.95459 35.9498 3.95472C37.5222 3.95266 39.0795 4.26141 40.5321 4.86324C41.9848 5.46507 43.3041 6.3481 44.4143 7.46156ZM29.7738 45.0434C30.6998 45.0431 31.5973 45.3639 32.3133 45.9512C33.0293 46.5385 33.5195 47.3559 33.7004 48.2641C33.8813 49.1723 33.7416 50.1152 33.3052 50.9319C32.8688 51.7487 32.1627 52.3889 31.3072 52.7434C30.4517 53.0979 29.4998 53.1448 28.6136 52.8761C27.7274 52.6074 26.9618 52.0397 26.4472 51.2697C25.9327 50.4998 25.7011 49.5753 25.7918 48.6537C25.8825 47.7321 26.29 46.8705 26.9448 46.2157C27.316 45.8436 27.7569 45.5485 28.2424 45.3473C28.7279 45.1462 29.2483 45.0429 29.7738 45.0434ZM46.5762 45.0537C47.4989 45.054 48.393 45.3742 49.1061 45.9598C49.8193 46.5454 50.3073 47.3601 50.4872 48.2651C50.667 49.1701 50.5275 50.1095 50.0924 50.9232C49.6574 51.7369 48.9536 52.3747 48.1011 52.7277C47.2486 53.0808 46.3001 53.1274 45.4171 52.8595C44.5341 52.5917 43.7712 52.026 43.2585 51.2588C42.7458 50.4917 42.5149 49.5705 42.6052 48.6522C42.6955 47.7339 43.1014 46.8753 43.7537 46.2227C44.1237 45.8511 44.5636 45.5566 45.0481 45.3559C45.5325 45.1553 46.0519 45.0526 46.5762 45.0537ZM50.1552 14.7836V14.7867H55.8644V14.7915C56.0452 14.7917 56.2233 14.835 56.3839 14.9178C56.5446 15.0007 56.6831 15.1207 56.788 15.2678C56.893 15.415 56.9613 15.5851 56.9872 15.7639C57.0132 15.9428 56.9961 16.1253 56.9373 16.2962L50.9393 33.5707C50.5981 34.5824 49.9463 35.4607 49.0767 36.0804C48.2072 36.7001 47.1642 37.0295 46.0965 37.0218H26.0867C26.0428 37.0342 25.9982 37.0437 25.9531 37.0505C25.3027 37.1503 24.7139 37.4919 24.3044 38.007C23.8949 38.5221 23.6948 39.1728 23.7441 39.829C23.7934 40.4852 24.0885 41.0986 24.5704 41.5467C25.0523 41.9948 25.6855 42.2446 26.3436 42.2461H51.6527C51.9551 42.2461 52.245 42.3663 52.4589 42.5801C52.6727 42.7939 52.7928 43.0839 52.7928 43.3862C52.7928 43.6886 52.6727 43.9786 52.4589 44.1924C52.245 44.4062 51.9551 44.5264 51.6527 44.5264H26.3436C25.4166 44.5283 24.5082 44.2663 23.7246 43.771C22.941 43.2757 22.3146 42.5676 21.9186 41.7294C21.5226 40.8913 21.3735 39.9577 21.4885 39.0379C21.6035 38.118 21.978 37.25 22.5682 36.5351C21.9509 36.2446 21.3988 35.8321 20.9452 35.3226C20.4915 34.813 20.1457 34.2169 19.9286 33.5701L11.4657 9.20251C11.2785 8.63851 10.9161 8.14902 10.4313 7.80537C9.94646 7.46172 9.36458 7.28186 8.77042 7.29201H1.14021C0.989546 7.29349 0.840083 7.26511 0.700459 7.20848C0.560835 7.15185 0.433819 7.06812 0.326755 6.9621C0.21969 6.85609 0.1347 6.72991 0.0766974 6.59085C0.018695 6.45179 -0.0111694 6.30262 -0.0111694 6.15195C-0.0111694 6.00128 0.018695 5.8521 0.0766974 5.71305C0.1347 5.57399 0.21969 5.44781 0.326755 5.3418C0.433819 5.23578 0.560835 5.15205 0.700459 5.09542C0.840083 5.03879 0.989546 5.01041 1.14021 5.01189H8.77042C9.83804 5.00465 10.8808 5.33428 11.7502 5.95389C12.6197 6.57351 13.2716 7.45154 13.6132 8.46307L15.8153 14.8078C15.8875 14.793 15.9611 14.7858 16.0348 14.7863H21.7435V14.7832C21.7149 15.1609 21.699 15.5411 21.699 15.9267C21.6937 17.8016 22.0585 19.659 22.7723 21.3927C23.4861 23.1263 24.535 24.702 25.8589 26.0296C27.1828 27.3572 28.7556 28.4105 30.4872 29.1292C32.2188 29.8478 34.0753 30.2178 35.9501 30.2178C37.825 30.2178 39.6814 29.8478 41.413 29.1292C43.1447 28.4105 44.7175 27.3572 46.0413 26.0296C47.3652 24.702 48.4141 23.1263 49.1279 21.3927C49.8418 19.659 50.2065 17.8016 50.2013 15.9267C50.2013 15.5414 50.1854 15.1609 50.1552 14.7832V14.7836Z" fill="#6C6C6C"/>
</g>
<defs>
<clipPath id="clip0_0_13">
<rect width="57" height="57" fill="white"/>
</clipPath>
</defs>
</svg>
