<svg width="55" height="48" viewBox="0 0 55 48" fill="none" xmlns="http://www.w3.org/2000/svg">
<path d="M37.6778 13.1861H42.2924V22.8663H37.6778V13.1861ZM28.7896 13.1324C28.679 13.1818 28.5792 13.2525 28.496 13.3404C28.4127 13.4284 28.3475 13.5318 28.3043 13.6449C28.2168 13.8734 28.2237 14.1272 28.3235 14.3505C28.4232 14.5739 28.6075 14.7485 28.836 14.8359C29.0644 14.9233 29.3182 14.9164 29.5416 14.8167C32.9602 13.2789 36.2497 11.4687 39.3783 9.40368C42.0187 7.66205 44.5655 5.78226 47.0078 3.77215L46.9169 4.18852C46.8781 4.3869 46.9186 4.5926 47.0298 4.7614C47.141 4.93021 47.314 5.04865 47.5116 5.09129C47.7092 5.13393 47.9157 5.09736 48.0866 4.98944C48.2575 4.88152 48.3793 4.71085 48.4257 4.51412L49.0488 1.65259C49.0919 1.45249 49.0538 1.24345 48.9429 1.07143C48.8319 0.899411 48.6572 0.778508 48.4571 0.735309C48.3996 0.722493 48.3407 0.717256 48.2818 0.719732L45.4047 0.575679C45.3035 0.570903 45.2025 0.586096 45.1072 0.620389C45.0119 0.654681 44.9243 0.707403 44.8494 0.775543C44.6982 0.913158 44.6078 1.10522 44.5982 1.30948C44.5885 1.51374 44.6604 1.71347 44.798 1.86472C44.9356 2.01598 45.1277 2.10637 45.332 2.11601L46.077 2.1535C43.611 4.19201 41.037 6.09616 38.366 7.85765C35.3211 9.87105 32.1186 11.6352 28.7896 13.133V13.1324ZM45.8927 22.8663H50.5106V8.76559H45.8927V22.8663ZM29.4627 22.8663H34.0774V17.6067H29.4627V22.8663ZM39.9851 38.8956H29.6375C29.9743 40.0252 30.6698 41.0145 31.6187 41.7137C32.5676 42.413 33.7184 42.7843 34.8971 42.7714H48.053C48.5998 42.7711 49.1322 42.947 49.5713 43.273C50.0103 43.5991 50.3325 44.058 50.4902 44.5816C50.6479 45.1052 50.6327 45.6657 50.4467 46.18C50.2608 46.6943 49.914 47.1349 49.4579 47.4366C49.0018 47.7383 48.4606 47.885 47.9146 47.8549C47.3686 47.8248 46.8468 47.6195 46.4266 47.2695C46.0064 46.9195 45.7102 46.4434 45.5819 45.9118C45.4536 45.3802 45.5001 44.8214 45.7144 44.3183H38.3691C38.504 44.6329 38.5735 44.9716 38.5732 45.3139C38.5732 45.9881 38.3054 46.6347 37.8287 47.1115C37.3519 47.5882 36.7053 47.8561 36.0311 47.8561C35.3569 47.8561 34.7103 47.5882 34.2335 47.1115C33.7568 46.6347 33.4889 45.9881 33.4889 45.3139C33.4886 44.9371 33.5728 44.5651 33.7352 44.2251C32.5931 44.0424 31.5143 43.5785 30.5961 42.8751C29.3666 41.925 28.485 40.5956 28.0885 39.0932L23.6648 22.5814C23.3636 21.4052 22.6763 20.3641 21.713 19.625C20.7496 18.8859 19.566 18.4916 18.3519 18.5053H14.4228C14.2177 18.5053 14.0209 18.4238 13.8759 18.2787C13.7308 18.1337 13.6493 17.937 13.6493 17.7318C13.6493 17.5267 13.7308 17.33 13.8759 17.1849C14.0209 17.0399 14.2177 16.9584 14.4228 16.9584H18.3518C19.9059 16.9482 21.419 17.4565 22.6518 18.4029C23.8845 19.3493 24.7664 20.6798 25.158 22.1839L25.756 24.4129H55L51.1367 38.8956H39.9851ZM39.9851 37.18C40.1902 37.18 40.387 37.0985 40.532 36.9534C40.6771 36.8084 40.7585 36.6117 40.7585 36.4065V35.7553C41.1325 35.6322 41.4725 35.423 41.751 35.1447C42.1001 34.7953 42.3377 34.3503 42.434 33.8659C42.5302 33.3816 42.4808 32.8795 42.2918 32.4232C42.1029 31.9669 41.7829 31.5769 41.3724 31.3023C40.9619 31.0278 40.4792 30.8811 39.9853 30.8807C39.8595 30.882 39.7346 30.8584 39.618 30.8112C39.5014 30.764 39.3952 30.6941 39.3058 30.6056C39.2163 30.517 39.1453 30.4117 39.0969 30.2955C39.0484 30.1794 39.0234 30.0548 39.0234 29.929C39.0234 29.8032 39.0484 29.6786 39.0969 29.5624C39.1453 29.4463 39.2163 29.3409 39.3058 29.2524C39.3952 29.1639 39.5014 29.094 39.618 29.0468C39.7346 28.9996 39.8595 28.9759 39.9853 28.9773C40.1814 28.9757 40.3731 29.0358 40.5332 29.1492C40.6942 29.2633 40.8165 29.4238 40.8838 29.6094C40.9537 29.8011 41.0966 29.9574 41.2813 30.0442C41.4661 30.131 41.6776 30.1412 41.8698 30.0726C42.062 30.004 42.2193 29.8621 42.3073 29.6779C42.3953 29.4938 42.4069 29.2823 42.3396 29.0896C42.1651 28.6039 41.8447 28.184 41.4223 27.8875C41.2194 27.7427 40.9955 27.6297 40.7585 27.5524V26.9013C40.7585 26.7998 40.7385 26.6992 40.6997 26.6053C40.6608 26.5115 40.6038 26.4262 40.532 26.3544C40.4602 26.2826 40.3749 26.2256 40.2811 26.1868C40.1872 26.1479 40.0867 26.1279 39.9851 26.1279C39.8835 26.1279 39.783 26.1479 39.6891 26.1868C39.5953 26.2256 39.51 26.2826 39.4382 26.3544C39.3664 26.4262 39.3094 26.5115 39.2705 26.6053C39.2317 26.6992 39.2117 26.7998 39.2117 26.9013V27.5524C38.6464 27.7369 38.1655 28.1169 37.8552 28.6241C37.545 29.1313 37.4257 29.7325 37.5189 30.3197C37.6121 30.9069 37.9116 31.4417 38.3636 31.8279C38.8156 32.2142 39.3905 32.4266 39.9851 32.4271C40.1601 32.4264 40.3319 32.4739 40.4816 32.5643C40.6314 32.6547 40.7534 32.7847 40.8343 32.9398C40.9152 33.095 40.9518 33.2694 40.9402 33.444C40.9285 33.6186 40.869 33.7866 40.7683 33.9296C40.6675 34.0727 40.5293 34.1852 40.3689 34.255C40.2084 34.3247 40.0318 34.349 39.8585 34.3251C39.6852 34.3012 39.5217 34.23 39.3861 34.1194C39.2506 34.0088 39.148 33.8631 39.0897 33.6981C39.0198 33.5063 38.8769 33.35 38.6922 33.2632C38.5075 33.1764 38.2959 33.1662 38.1037 33.2349C37.9115 33.3035 37.7542 33.4453 37.6662 33.6295C37.5782 33.8136 37.5666 34.0251 37.6339 34.2178C37.8084 34.7035 38.1288 35.1234 38.5512 35.42C38.753 35.5647 38.9758 35.6777 39.2118 35.755V36.4062C39.2121 36.6112 39.2936 36.8078 39.4386 36.9528C39.5835 37.0979 39.7801 37.1795 39.9851 37.18ZM18.8747 30.0951C17.0096 30.0952 15.1739 29.6304 13.5335 28.7426C11.8932 27.8549 10.5001 26.5722 9.48013 25.0107C8.46016 23.4492 7.84552 21.658 7.69182 19.7993C7.53812 17.9405 7.8502 16.0727 8.59984 14.3648C9.34947 12.657 10.513 11.163 11.9852 10.0178C13.4574 8.87272 15.1919 8.11266 17.0317 7.80639C18.8715 7.50013 20.7586 7.65731 22.5224 8.26374C24.2862 8.87017 25.871 9.9067 27.1335 11.2796L33.9237 7.48199C32.8783 6.10216 31.6491 4.87186 30.2701 3.82532L28.4704 4.90224L26.9958 5.78203C25.5758 4.89992 24.0213 4.25588 22.3936 3.87538L21.9741 2.21033L21.4606 0.178429C19.7459 -0.0594764 18.0065 -0.0594764 16.2918 0.178429L15.7784 2.21033L15.3589 3.87538C13.7308 4.25474 12.176 4.89886 10.7567 5.78203L9.28218 4.90224L7.48199 3.82532C6.10235 4.87105 4.87299 6.10146 3.82844 7.48199L4.90267 9.28218L5.78246 10.7567C4.90042 12.1767 4.25625 13.7312 3.87538 15.3589L2.21033 15.7784L0.178429 16.2918C-0.0594764 18.0065 -0.0594764 19.7459 0.178429 21.4606L2.21033 21.9741L3.87538 22.3936C4.25586 24.0213 4.8999 25.5759 5.78203 26.9958L4.90224 28.4704L3.82801 30.2705C4.87346 31.6493 6.10272 32.8786 7.48156 33.924L9.28175 32.8498L10.7562 31.967C12.1754 32.8511 13.7302 33.4963 15.3584 33.8766L15.7779 35.5417L16.2914 37.5735C18.0061 37.8114 19.7455 37.8114 21.4602 37.5735L21.9736 35.5417L22.3931 33.8766C22.9142 33.755 23.4284 33.6055 23.9335 33.429L22.8502 29.3715C21.5796 29.8508 20.2327 30.096 18.8747 30.0951Z" fill="#6C6C6C"/>
<rect x="32.9783" y="25.3242" width="12.5685" height="12.5685" fill="#6C6C6C"/>
</svg>
