<svg width="38" height="53" viewBox="0 0 38 53" fill="none" xmlns="http://www.w3.org/2000/svg">
<path fill-rule="evenodd" clipRule="evenodd" d="M24.3143 38.2835H20.3806C20.1019 38.2835 19.8231 38.0666 19.7921 37.7569L19.3895 35.8056H24.9028V37.664C24.9647 38.0047 24.655 38.2835 24.3143 38.2835ZM19.1417 34.5976L18.8319 33.1418L18.5532 34.5976H12.7611V24.1595H24.9028V34.5976H19.1417ZM12.7611 22.9515V20.8453C12.7611 20.5046 13.0399 20.2258 13.3806 20.2258H24.3143C24.655 20.2258 24.9028 20.5046 24.9028 20.8453V22.9515H12.7611ZM18.3054 35.8056L17.9027 37.7879C17.8408 38.0976 17.593 38.3144 17.2833 38.3144H13.3806C13.0399 38.3144 12.7611 38.0666 12.7611 37.695V35.8056H18.3054Z" fill="#6C6C6C"/>
<path fill-rule="evenodd" clipRule="evenodd" d="M20.5665 41.1639H13.4116C13.0709 41.1639 12.8231 40.8851 12.8231 40.5444C12.8231 40.2037 13.0709 39.9559 13.4116 39.9559H20.5665C20.9072 39.9559 21.155 40.2037 21.155 40.5444C21.155 40.8851 20.9072 41.1639 20.5665 41.1639Z" fill="#6C6C6C"/>
<path fill-rule="evenodd" clipRule="evenodd" d="M32.6153 36.1153C29.8276 36.1153 27.5356 33.8232 27.5356 31.0356C27.5356 28.248 29.8276 25.9559 32.6153 25.9559C35.4029 25.9559 37.6949 28.248 37.6949 31.0356C37.6949 33.8232 35.4029 36.1153 32.6153 36.1153ZM31.9648 33.3277C31.8099 33.3277 31.6241 33.2347 31.5002 33.1108C31.2834 32.8321 31.3144 32.4604 31.5931 32.2436L33.0489 31.0666L31.5931 29.8896C31.3144 29.6728 31.2834 29.2701 31.5002 29.0223C31.717 28.7436 32.0887 28.7126 32.3675 28.9294L34.4117 30.571C34.5666 30.6949 34.6285 30.8498 34.6285 31.0356C34.6285 31.2215 34.5666 31.4383 34.4117 31.5002L32.3675 33.1418C32.2436 33.2657 32.0887 33.3277 31.9648 33.3277Z" fill="#6C6C6C"/>
<path fill-rule="evenodd" clipRule="evenodd" d="M5.07968 36.1153C2.26108 36.1153 0 33.8232 0 31.0356C0 28.248 2.26108 25.9559 5.07968 25.9559C7.8673 25.9559 10.1594 28.248 10.1594 31.0356C10.1594 33.8232 7.8673 36.1153 5.07968 36.1153ZM5.69915 33.3277C5.57525 33.3277 5.45136 33.2657 5.32747 33.2038L3.25223 31.5622C3.12834 31.4383 3.03542 31.2524 3.03542 31.0666C3.03542 30.9117 3.12834 30.6949 3.25223 30.602L5.32747 28.9604C5.57525 28.7436 5.97791 28.8055 6.19473 29.0533C6.41154 29.3011 6.3496 29.7037 6.10181 29.9206L4.64605 31.0666L6.10181 32.2436C6.3496 32.4604 6.41154 32.8321 6.19473 33.1108C6.10181 33.2347 5.91596 33.3277 5.69915 33.3277Z" fill="#6C6C6C"/>
<path fill-rule="evenodd" clipRule="evenodd" d="M31.0975 52.8719H6.62836C5.42038 52.8719 4.39825 51.8808 4.39825 50.6108V37.1063C4.61507 37.1373 4.83189 37.1373 5.07967 37.1373H5.60623V50.6728C5.60623 51.2303 6.03986 51.6639 6.59738 51.6639H31.0046C31.5621 51.6639 31.9958 51.2303 31.9958 50.6728V37.1063C32.2126 37.1373 32.3984 37.1373 32.6152 37.1373H33.2037V50.6728C33.2967 51.8808 32.3055 52.8719 31.0975 52.8719ZM4.39825 24.9647V19.1726C4.64604 19.2346 4.92481 19.2346 5.1726 19.2346H5.60623V24.9337C5.42038 24.9337 5.23454 24.9337 5.07967 24.9337C4.83189 24.9337 4.61507 24.9337 4.39825 24.9647ZM32.0887 24.9337V19.2346H32.5533C32.8011 19.2346 33.0489 19.2346 33.2967 19.2036V24.9647C33.0798 24.9337 32.8321 24.9337 32.6152 24.9337C32.4294 24.9337 32.2436 24.9337 32.0887 24.9337Z" fill="#6C6C6C"/>
<path fill-rule="evenodd" clipRule="evenodd" d="M35.9604 12.2965H1.76551C1.61064 12.2965 1.4248 12.2346 1.30091 12.1107C1.17701 11.9558 1.11506 11.801 1.17701 11.6151L1.85843 6.75225H35.8675L36.5489 11.6151C36.6109 11.801 36.5179 11.9558 36.425 12.1107C36.3321 12.2346 36.1772 12.2965 35.9604 12.2965ZM2.0133 5.54428L2.72569 0.526552C2.75667 0.216815 3.03543 0 3.31419 0H34.4117C34.6905 0 34.9693 0.216815 35.0002 0.526552L35.7126 5.54428H2.0133Z" fill="#6C6C6C"/>
<path fill-rule="evenodd" clipRule="evenodd" d="M31.5622 52.4074L6.28768 52.0048C4.52218 52.0048 4.42926 45.3764 4.42926 43.6109C4.42926 43.2702 4.70802 42.9915 5.04873 42.9915C5.38944 42.9915 5.60626 43.2702 5.60626 43.6109C5.60626 44.695 6.50449 45.5313 7.58857 45.5313H30.0445C31.1285 45.5313 31.9958 44.695 31.9958 43.6109C31.9958 43.2702 32.2436 42.9915 32.5843 42.9915C32.925 42.9915 33.2038 43.2702 33.2038 43.6109C33.2967 45.3764 33.3277 52.4074 31.5622 52.4074Z" fill="#6C6C6C"/>
<path fill-rule="evenodd" clipRule="evenodd" d="M5.82302 18.2126C3.59292 18.2126 1.79645 16.4161 1.79645 14.155V13.1948C1.98229 13.2877 2.19911 13.3497 2.41592 13.3497H7.58852V14.155C7.58852 15.2701 7.9602 16.3232 8.5487 17.1594C7.83631 17.8099 6.87612 18.2126 5.82302 18.2126Z" fill="#6C6C6C"/>
<path fill-rule="evenodd" clipRule="evenodd" d="M12.6682 18.2125C10.4381 18.2125 8.64166 16.416 8.64166 14.1549V13.3496H14.4337V14.1549C14.4337 15.27 14.8054 16.3231 15.3939 17.1594C14.6815 17.8098 13.7213 18.2125 12.6682 18.2125Z" fill="#6C6C6C"/>
<path fill-rule="evenodd" clipRule="evenodd" d="M19.5134 18.2125C17.2833 18.2125 15.4868 16.416 15.4868 14.1549V13.3496H21.2789V14.1549C21.2789 15.27 21.6506 16.3231 22.2391 17.1594C21.5267 17.8098 20.5665 18.2125 19.5134 18.2125Z" fill="#6C6C6C"/>
<path fill-rule="evenodd" clipRule="evenodd" d="M26.3585 18.2125C24.1284 18.2125 22.332 16.416 22.332 14.1549V13.3496H28.124V14.1549C28.124 15.27 28.4957 16.3231 29.0842 17.1594C28.3718 17.8098 27.4116 18.2125 26.3585 18.2125Z" fill="#6C6C6C"/>
<path fill-rule="evenodd" clipRule="evenodd" d="M33.2037 18.2125C30.9736 18.2125 29.1462 16.416 29.1462 14.1549V13.3496H29.7966H34.9692V14.1549C34.9692 15.27 35.3409 16.3231 35.9294 17.1594C35.217 17.8098 34.2568 18.2125 33.2037 18.2125Z" fill="#6C6C6C"/>
</svg>
