<svg width="56" height="61" viewBox="0 0 56 61" fill="none" xmlns="http://www.w3.org/2000/svg">
<path d="M27.0266 0.910484C26.7641 1.00507 26.3266 1.32431 26.075 1.60807C24.3906 3.41707 25.6156 6.55029 28 6.55029C30.7563 6.55029 31.7297 2.61307 29.3563 1.11148C28.7328 0.709485 27.7266 0.62672 27.0266 0.910484Z" fill="#6C6C6C"/>
<path d="M23.0563 5.89984C21.7657 6.65654 10.6532 13.6206 10.511 13.7743C10.1172 14.1881 10.5657 15.1103 11.1016 14.9685C11.561 14.8384 24.0079 6.9876 24.2266 6.68019C24.4235 6.39643 24.4235 6.34913 24.2813 6.06537C24.0188 5.56878 23.7125 5.52149 23.0563 5.89984Z" fill="#6C6C6C"/>
<path d="M32.0688 5.68718C31.6969 5.84088 31.5329 6.31382 31.7516 6.6567C31.8829 6.88135 43.7829 14.4247 44.7563 14.9095C45.325 15.1814 45.9157 14.4602 45.5766 13.9045C45.4782 13.7626 44.8547 13.2897 44.1657 12.8759C43.4875 12.4502 40.6219 10.6649 37.7891 8.91499C34.9672 7.15329 32.5719 5.68718 32.4844 5.65171C32.3969 5.61624 32.211 5.62806 32.0688 5.68718Z" fill="#6C6C6C"/>
<path d="M25.1344 7.70886C25.0359 7.79163 23.1984 11.1613 21.0437 15.1931C18.9 19.2249 17.1281 22.5355 17.1172 22.5592C17.0953 22.5828 15.75 21.767 14.1203 20.7502C12.25 19.5915 11.0687 18.9175 10.9156 18.9412C10.7953 18.9648 10.5875 19.1185 10.4672 19.2841C10.0734 19.8752 10.2812 20.0644 13.4531 22.0508C15.05 23.0439 16.3406 23.9071 16.3297 23.9543C16.3187 24.0135 14.5578 27.3359 12.425 31.344C10.1938 35.5177 8.53125 38.7574 8.53125 38.9229C8.53125 39.5141 9.29688 39.8451 9.64688 39.3958C9.73438 39.2894 11.55 35.9316 13.6719 31.947C15.7937 27.9743 17.5875 24.7111 17.6422 24.7111C17.7078 24.7111 18.3094 25.0539 18.9766 25.4796C19.6547 25.9052 20.3328 26.2481 20.4859 26.2481C20.8578 26.2481 21.1094 25.9525 21.1094 25.5387C21.1094 25.1367 21.0328 25.0776 19.4469 24.0726L18.2656 23.3395L22.2031 15.9735C24.8609 10.9958 26.1406 8.50104 26.1406 8.27639C26.1406 7.72068 25.5281 7.3778 25.1344 7.70886Z" fill="#6C6C6C"/>
<path d="M30.1 7.75623C29.9469 7.86264 29.8594 8.06364 29.8594 8.27647C29.8594 8.50111 31.1391 10.9959 33.7969 15.9736L37.7344 23.3396L37.2641 23.6234C36.5859 24.0608 36.4219 24.2382 36.4219 24.5929C36.4219 24.9712 36.7281 25.3023 37.0563 25.3023C37.1875 25.3023 37.5375 25.1604 37.8328 24.9712C38.1937 24.7702 38.4125 24.6875 38.4781 24.7702C38.5328 24.8294 40.2828 28.1045 42.3828 32.0417C44.4828 35.9789 46.2656 39.2895 46.3531 39.3959C46.7141 39.857 47.4688 39.5141 47.4688 38.8875C47.4688 38.7338 45.7297 35.3641 43.5422 31.2732C39.7031 24.1081 39.6156 23.9426 39.8344 23.7652C39.9656 23.6707 41.2781 22.8312 42.7547 21.909C45.7078 20.0763 45.9266 19.8753 45.5328 19.2841C45.4125 19.1186 45.2156 18.9649 45.0844 18.9413C44.9422 18.9176 43.7063 19.6152 41.8906 20.7503C40.25 21.7671 38.9047 22.5829 38.8828 22.5593C38.8719 22.5356 37.1 19.225 34.9562 15.1932C32.8016 11.1614 30.9641 7.7917 30.8656 7.70894C30.6359 7.51976 30.3953 7.53159 30.1 7.75623Z" fill="#6C6C6C"/>
<path d="M27.5625 8.51287C27.3547 8.73752 27.3438 8.90305 27.3438 14.5192C27.3438 20.8684 27.3328 20.7265 28 20.7265C28.6672 20.7265 28.6563 20.8684 28.6563 14.5192C28.6563 8.90305 28.6453 8.73752 28.4375 8.51287C28.3172 8.38281 28.1203 8.2764 28 8.2764C27.8797 8.2764 27.6828 8.38281 27.5625 8.51287Z" fill="#6C6C6C"/>
<path d="M5.62183 14.2355C3.49995 15.2405 3.43433 18.5274 5.51245 19.5797C7.41558 20.5374 9.61401 18.8703 9.37339 16.6475C9.25308 15.6189 8.57495 14.6257 7.69995 14.2355C7.24058 14.0227 6.07026 14.0345 5.62183 14.2355Z" fill="#6C6C6C"/>
<path d="M48.278 14.2354C47.7858 14.4719 47.1624 15.1104 46.9108 15.6306C46.2327 17.0731 46.7577 18.7993 48.1139 19.5324C49.6233 20.36 51.428 19.5324 51.8983 17.8061C52.1061 17.0731 52.1061 16.8603 51.8874 16.0917C51.6905 15.3587 51.1327 14.6493 50.4874 14.3182C49.9405 14.0226 48.8139 13.9872 48.278 14.2354Z" fill="#6C6C6C"/>
<path d="M6.20156 21.8499C6.02656 22.0509 6.01562 22.8076 6.01562 30.2919C6.01562 38.0954 6.02656 38.5211 6.2125 38.6984C6.475 38.9585 6.92344 38.9467 7.14219 38.6866C7.31719 38.4856 7.32812 37.7289 7.32812 30.2446C7.32812 22.4411 7.31719 22.0155 7.13125 21.8381C6.86875 21.578 6.42031 21.5898 6.20156 21.8499Z" fill="#6C6C6C"/>
<path d="M48.8578 21.8499C48.6828 22.0509 48.6719 22.8076 48.6719 30.2919C48.6719 38.0954 48.6828 38.521 48.8687 38.6984C49.1203 38.9467 49.4266 38.9585 49.7437 38.7102L49.9844 38.5329V30.2801C49.9844 22.4411 49.9734 22.0154 49.7875 21.8381C49.525 21.578 49.0766 21.5898 48.8578 21.8499Z" fill="#6C6C6C"/>
<path d="M26.9391 22.5828C25.1453 22.9257 23.636 24.1317 22.8594 25.8342C22.5094 26.5791 22.2031 27.8915 22.2031 28.6364V29.0739L21.7438 28.8965C21.2516 28.7073 19.95 28.6601 19.4141 28.8019C18.8453 28.9438 17.8938 29.5232 17.4563 29.9961C16.4281 31.072 15.9469 32.5855 16.1656 34.0279C16.4719 36.0261 17.861 37.5868 19.6766 37.9533C20.4641 38.107 34.486 38.107 35.4375 37.9533C37.0563 37.6814 38.5985 36.4399 39.3203 34.8201C41.136 30.8238 38.2266 26.2835 34.1031 26.6501L33.261 26.721L32.911 25.9288C32.2875 24.4982 30.8875 23.2212 29.4438 22.7483C28.7656 22.5355 27.6281 22.4527 26.9391 22.5828Z" fill="#6C6C6C"/>
<path d="M39.7031 37.3623C39.4296 37.6579 39.4187 38.0954 39.6812 38.3437C40.1296 38.7693 44.8765 41.6306 45.0843 41.5951C45.2156 41.5715 45.4124 41.406 45.5437 41.2286C45.7515 40.933 45.7515 40.8739 45.6093 40.602C45.4234 40.2473 40.5015 37.1258 40.1406 37.1258C40.0203 37.1258 39.8234 37.2323 39.7031 37.3623Z" fill="#6C6C6C"/>
<path d="M12.9063 38.8284C10.3032 40.4482 10.0735 40.6729 10.4673 41.2522C10.5876 41.4177 10.7954 41.5714 10.9267 41.5951C11.1782 41.6424 15.6735 38.9112 16.0017 38.521C16.1001 38.3909 16.1876 38.1781 16.1876 38.0599C16.1876 37.7525 15.8048 37.3623 15.5095 37.3623C15.3673 37.3623 14.197 38.0244 12.9063 38.8284Z" fill="#6C6C6C"/>
<path d="M27.5625 39.9633C27.3656 40.1762 27.3438 40.3535 27.3438 41.5004V42.801H19.425C11.9437 42.801 11.4953 42.8128 11.2656 43.0138C10.9375 43.2976 10.9375 43.8414 11.2656 44.1252C11.4953 44.3262 11.9437 44.338 19.425 44.338H27.3438V48.0388C27.3438 52.1297 27.3547 52.177 28 52.177C28.6453 52.177 28.6562 52.1297 28.6562 48.0388V44.338H36.575C44.0562 44.338 44.5047 44.3262 44.7344 44.1252C45.0625 43.8414 45.0625 43.2976 44.7344 43.0138C44.5047 42.8128 44.0562 42.801 36.575 42.801H28.6562V41.5004C28.6562 40.3535 28.6344 40.1762 28.4375 39.9633C28.3172 39.8333 28.1203 39.7269 28 39.7269C27.8797 39.7269 27.6828 39.8333 27.5625 39.9633Z" fill="#6C6C6C"/>
<path d="M5.51248 40.9566C4.83435 41.2995 4.30935 41.9498 4.10154 42.7301C3.89373 43.4632 3.89373 43.676 4.11248 44.4446C4.30935 45.1776 4.86717 45.887 5.51248 46.2181C6.05935 46.5137 7.14217 46.5491 7.69998 46.3008C8.21404 46.0762 8.83748 45.4377 9.11092 44.882C9.43904 44.2081 9.43904 42.9311 9.11092 42.269C8.42185 40.862 6.84685 40.2827 5.51248 40.9566Z" fill="#6C6C6C"/>
<path d="M48.2344 40.9211C47.1735 41.4413 46.6594 42.3044 46.6594 43.5696C46.6594 44.5391 46.9 45.1539 47.5344 45.7569C48.1032 46.289 48.5516 46.4663 49.35 46.4663C50.5532 46.4663 51.5485 45.6741 51.8875 44.4445C52.1063 43.676 52.1063 43.4631 51.8985 42.7301C51.45 41.0748 49.6891 40.2117 48.2344 40.9211Z" fill="#6C6C6C"/>
<path d="M10.5547 45.8043C10.2593 46.1235 10.2593 46.4664 10.5437 46.7856C10.6093 46.8566 13.5297 48.7129 17.0406 50.9002C23.9312 55.204 23.9093 55.1922 24.2703 54.4827C24.4234 54.1872 24.4234 54.1399 24.2265 53.8443C24.1062 53.6669 23.2203 53.0403 22.2578 52.4373C21.2953 51.8461 18.4406 50.0608 15.914 48.4882C13.3984 46.9157 11.2218 45.6033 11.0797 45.5678C10.9156 45.5205 10.7515 45.5915 10.5547 45.8043Z" fill="#6C6C6C"/>
<path d="M41.661 47.5187C33.5454 52.5555 31.9813 53.5605 31.7735 53.8561C31.5766 54.1399 31.5766 54.1872 31.7298 54.4827C32.0907 55.1922 32.0688 55.204 38.9594 50.9002C42.4704 48.7129 45.4235 46.8211 45.5329 46.6792C45.6313 46.5492 45.7188 46.36 45.7188 46.2654C45.7188 46.0526 45.2266 45.5205 45.0298 45.5205C44.9423 45.5205 43.4329 46.4191 41.661 47.5187Z" fill="#6C6C6C"/>
<path d="M27.3983 54.0216C25.9546 54.4236 25.0249 56.0316 25.3749 57.5568C25.8671 59.7796 28.4265 60.56 29.9249 58.9283C31.2155 57.545 30.8437 55.1803 29.1921 54.2699C28.7327 54.0097 27.8577 53.8915 27.3983 54.0216Z" fill="#6C6C6C"/>
</svg>
