<svg width="64" height="69" viewBox="0 0 64 69" fill="none" xmlns="http://www.w3.org/2000/svg">
<path opacity="0.941" fillRule="evenodd" clipRule="evenodd" d="M30.0626 9.77053C35.7035 9.47399 39.6826 12.0795 42.0001 17.5869C42.2247 18.1965 42.3706 18.8254 42.4376 19.4737C45.002 19.2785 47.0645 20.2667 48.6251 22.4385C50.3937 25.4358 50.352 28.4007 48.5001 31.333C47.3187 32.9021 45.798 33.823 43.9376 34.0957C41.521 34.1856 39.1042 34.1856 36.6876 34.0957C35.97 33.8017 35.6991 33.2401 35.8751 32.4112C36.0154 32.1249 36.2029 31.8779 36.4376 31.6699C38.771 31.6251 41.1042 31.5801 43.4376 31.5352C46.3224 30.8944 47.6349 28.9851 47.3751 25.8076C46.7577 23.3744 45.2785 22.1167 42.9376 22.0342C42.1795 22.071 41.4295 22.1609 40.6876 22.3037C40.3627 21.3972 40.1335 20.4538 40.0001 19.4737C38.6249 15.0369 35.7707 12.6561 31.4376 12.3311C26.1131 12.8829 23.0922 16.0274 22.3751 21.7647C21.5824 21.9838 20.7699 22.0962 19.9376 22.1016C17.3249 22.8989 16.1374 24.7631 16.3751 27.6944C16.9351 29.8704 18.2476 31.1507 20.3126 31.5352C22.4792 31.5801 24.646 31.6251 26.8126 31.6699C27.5804 32.2415 27.7054 32.9378 27.1876 33.7588C27.042 33.9049 26.8754 34.0172 26.6876 34.0957C24.396 34.1856 22.1042 34.1856 19.8126 34.0957C16.7096 33.4906 14.7721 31.5365 14.0001 28.2334C13.6374 23.1897 15.7624 20.2248 20.3751 19.3389C21.2855 15.2582 23.5146 12.3607 27.0626 10.6465C28.058 10.2663 29.058 9.97427 30.0626 9.77053ZM31.0626 23.2471C32.3004 23.1894 33.0087 23.8184 33.1876 25.1338C32.7807 26.9195 31.8224 27.3911 30.3126 26.5488C29.6316 25.8045 29.5275 24.9734 30.0001 24.0557C30.2904 23.6655 30.6445 23.396 31.0626 23.2471Z" fill="#6C6C6C"/>
<path opacity="0.953" fillRule="evenodd" clipRule="evenodd" d="M30.5625 20.6865C34.0349 20.5445 35.6808 22.3413 35.5 26.0771C35.1405 27.619 34.2863 28.6971 32.9375 29.3115C32.8125 36.0493 32.7709 42.7875 32.8125 49.5264C36.8544 49.5489 40.896 49.5264 44.9375 49.459C46.2304 46.9092 48.0638 46.3253 50.4375 47.707C52.214 49.6421 52.2556 51.6187 50.5625 53.6367C48.6368 54.9833 46.9076 54.7363 45.375 52.8955C45.2709 52.6708 45.1666 52.4463 45.0625 52.2217C36.3545 52.0644 27.6461 52.042 18.9375 52.1543C17.6316 54.5475 15.8399 55.0865 13.5625 53.7715C12.0626 52.2745 11.7918 50.5449 12.75 48.583C13.9295 47.0127 15.4086 46.5859 17.1875 47.3027C18.0109 47.7638 18.5941 48.46 18.9375 49.3916C22.7699 49.5264 26.6033 49.5712 30.4375 49.5264C30.4375 42.833 30.4375 36.1397 30.4375 29.4463C28.47 28.8056 27.4283 27.3681 27.3125 25.1338C27.4139 22.7983 28.4973 21.3159 30.5625 20.6865ZM31.0625 23.2471C30.6444 23.396 30.2903 23.6655 30 24.0557C29.5274 24.9734 29.6315 25.8045 30.3125 26.5488C31.8223 27.3911 32.7806 26.9194 33.1875 25.1338C33.0086 23.8183 32.3003 23.1894 31.0625 23.2471ZM15.4375 49.5264C16.5525 49.6707 16.9068 50.2996 16.5 51.4131C15.9806 51.9931 15.439 52.0381 14.875 51.5478C14.4118 50.6608 14.5993 49.987 15.4375 49.5264ZM48.0625 49.5264C49.1775 49.6707 49.5318 50.2996 49.125 51.4131C48.6056 51.9931 48.064 52.0381 47.5 51.5478C47.0368 50.6608 47.2243 49.987 48.0625 49.5264Z" fill="#6C6C6C"/>
<path opacity="0.942" fillRule="evenodd" clipRule="evenodd" d="M14.8125 37.3974C19.0793 37.2905 21.8709 39.4018 23.1875 43.7314C24.6332 43.809 25.9248 44.3257 27.0625 45.2812C27.5678 45.9015 27.6303 46.5529 27.25 47.2353C26.8222 47.5965 26.343 47.7087 25.8125 47.5722C24.5109 46.4251 23.0525 46.0882 21.4375 46.5615C21.2092 44.4501 20.3758 42.6758 18.9375 41.2382C15.818 39.2269 13.1722 39.7884 11 42.9228C10.4722 44.0757 10.1181 45.2886 9.93754 46.5615C6.86339 45.9003 4.92589 47.2031 4.12504 50.4697C3.81049 53.5869 5.03966 55.5859 7.81254 56.4668C13.0625 56.5566 18.3125 56.5566 23.5625 56.4668C24.5113 56.2587 25.3238 55.787 26 55.0517C26.3694 54.5472 26.7237 54.0305 27.0625 53.5019C28.3948 53.0401 28.9989 53.5568 28.875 55.0517C27.8504 57.277 26.2047 58.6022 23.9375 59.0273C18.3959 59.1172 12.8542 59.1172 7.31254 59.0273C4.29331 58.2878 2.43914 56.2887 1.75004 53.0302C1.25544 47.8494 3.35962 44.7049 8.06254 43.5966C9.21346 40.1077 11.4635 38.0413 14.8125 37.3974Z" fill="#6C6C6C"/>
<path opacity="0.942" fillRule="evenodd" clipRule="evenodd" d="M47.1876 37.3975C51.4032 37.272 54.2366 39.3384 55.6876 43.5967C59.7397 44.372 61.9064 46.9774 62.1876 51.4131C61.9689 55.4617 60.0523 57.9998 56.4376 59.0274C50.8959 59.1172 45.3542 59.1172 39.8126 59.0274C37.5439 58.6018 35.8981 57.2765 34.8751 55.0518C34.7603 53.5529 35.3646 53.0364 36.6876 53.502C37.3189 54.6769 38.1939 55.5753 39.3126 56.1973C39.6377 56.3213 39.9711 56.4112 40.3126 56.4668C45.5209 56.5567 50.7292 56.5567 55.9376 56.4668C58.7667 55.5681 59.9959 53.5241 59.6251 50.335C58.7706 47.1796 56.8539 45.9218 53.8751 46.5615C53.6694 44.6132 52.9402 42.9287 51.6876 41.5078C48.9729 39.3456 46.4104 39.5478 44.0001 42.1143C43.7191 42.4954 43.4691 42.8997 43.2501 43.3272C42.8661 44.3915 42.5536 45.4697 42.3126 46.5615C40.6976 46.0882 39.2392 46.4252 37.9376 47.5723C36.6392 47.7448 36.1184 47.1383 36.3751 45.7529C37.5168 44.4954 38.9126 43.8216 40.5626 43.7315C41.6213 40.2189 43.8296 38.1076 47.1876 37.3975Z" fill="#6C6C6C"/>
</svg>
