<svg width="54" height="55" viewBox="0 0 54 55" fill="none" xmlns="http://www.w3.org/2000/svg">
<path d="M22.2414 0.175041C22.049 0.279011 20.8708 1.46167 19.6325 2.80028C17.216 5.43851 17.1198 5.60747 17.3122 6.71215C17.3723 7.12803 17.733 7.58289 19.6926 9.70128C21.6042 11.7547 22.0851 12.2096 22.5179 12.3525C23.8884 12.7814 25.247 11.3388 24.8382 9.87023C24.7661 9.58432 24.5376 9.15544 24.3453 8.90851C24.1409 8.67458 23.9846 8.44065 23.9846 8.41465C23.9846 8.33668 25.7158 8.54462 26.5093 8.71357C27.6274 8.96049 29.4067 9.61031 30.5368 10.1951C35.466 12.7554 38.9404 17.655 40.0585 23.5943C40.3831 25.3358 40.347 28.9747 39.9984 30.7552C39.241 34.5111 37.7382 37.5132 35.2255 40.2164C32.7489 42.9067 30.0198 44.5182 26.5333 45.3759C25.3912 45.6489 25.1748 45.6619 13.2607 45.7268C1.27437 45.8048 1.15415 45.8048 0.829543 46.0777C0.192358 46.5846 0 47.0005 0 47.8192C0 48.638 0.192358 49.0539 0.829543 49.5607C1.15415 49.8337 1.22628 49.8337 13.2607 49.8337C26.5814 49.8337 26.1486 49.8596 28.8537 49.0149C31.1499 48.3001 32.8571 47.4293 34.8167 46.0258C39.4934 42.6467 42.6072 37.6042 43.8455 31.444C44.074 30.2483 44.11 29.7155 44.11 27.0253C44.11 24.348 44.074 23.8022 43.8455 22.6195C42.5111 16.0304 38.9645 10.624 33.7828 7.33597C31.2461 5.72443 27.976 4.55477 25.3672 4.34683C24.8382 4.30784 24.2731 4.24286 24.1168 4.20387C23.8283 4.13889 23.8283 4.13889 24.2611 3.65803C25.271 2.52736 25.1628 1.13676 23.9966 0.292007C23.5278 -0.0458946 22.8064 -0.0978813 22.2414 0.175041Z" fill="#6C6C6C"/>
<path d="M12.3588 7.29702C10.327 8.49268 7.26131 11.5208 5.8066 13.7691C3.9191 16.6673 2.70484 19.9034 2.0917 23.6463C1.83923 25.1149 1.88732 29.2347 2.15181 30.8592C2.65675 33.9003 3.85898 37.1104 5.42189 39.6577C6.38368 41.2302 6.73233 41.5161 7.65805 41.5161C8.80017 41.5161 9.49747 40.7623 9.49747 39.5147C9.49747 38.8129 9.44938 38.6959 8.74006 37.5653C7.40558 35.4209 6.45581 32.9646 5.98694 30.4433C5.6984 28.8058 5.6984 25.4398 5.99896 23.7113C6.49188 20.8391 7.58591 18.1359 9.19691 15.8226C10.3871 14.1071 11.7336 12.7554 13.537 11.4298C14.7152 10.5591 14.9676 10.3122 15.136 9.87028C15.3884 9.18148 15.3764 8.7656 15.0879 8.12878C14.7512 7.388 14.3305 7.10208 13.525 7.0371C13.008 7.01111 12.7555 7.06309 12.3588 7.29702Z" fill="#6C6C6C"/>
<path d="M47.224 41.8406C46.3824 42.2435 45.9376 43.3222 46.2261 44.2579C46.3103 44.5178 46.5627 44.9597 46.7912 45.2326L47.2119 45.7265L43.4249 45.7655C39.8062 45.8044 39.6138 45.8174 39.3012 46.0774C38.664 46.5842 38.4717 47.0001 38.4717 47.8189C38.4717 48.6376 38.664 49.0535 39.3012 49.5604C39.6138 49.8203 39.8302 49.8333 43.4129 49.8983L47.1999 49.9632L46.8152 50.3531C45.7813 51.4058 45.8895 52.9134 47.0556 53.7581C47.5245 54.096 48.2098 54.148 48.7869 53.8751C49.0033 53.7711 50.1815 52.5885 51.4198 51.2499C53.3073 49.1835 53.6679 48.7156 53.7401 48.2997C53.9324 47.208 53.8242 47.0261 51.4799 44.4528C48.7869 41.5157 48.3781 41.2688 47.224 41.8406Z" fill="#6C6C6C"/>
</svg>
