<svg xmlns="http://www.w3.org/2000/svg" version="1.1" viewBox="-5.0 -10.0 110.0 135.0">
 <g>
  <path fill="#6C6C6C" d="m50 10c-19.391 0-35.172 15.781-35.172 35.172 0 14.629 9.2109 27.871 22.93 32.961 0.67188 0.25 1.4219-0.089843 1.6719-0.76953 0.25-0.67188-0.089844-1.4219-0.76953-1.6719-12.699-4.7109-21.23-16.98-21.23-30.52 0.011718-17.961 14.621-32.57 32.57-32.57s32.559 14.609 32.559 32.559c0 13.539-8.5312 25.809-21.23 30.52-0.67188 0.25-1.0195 1-0.76953 1.6719 0.19922 0.53125 0.69141 0.85156 1.2188 0.85156 0.14844 0 0.30078-0.03125 0.44922-0.078125 13.711-5.0898 22.93-18.34 22.93-32.961 0.015625-19.383-15.766-35.164-35.156-35.164z"/>
  <path fill="#6C6C6C" d="m61.801 70.141c9.6211-4.5391 15.84-14.34 15.84-24.969 0-15.238-12.398-27.641-27.641-27.641-15.238 0-27.641 12.398-27.641 27.641 0 10.629 6.2188 20.441 15.84 24.969 0.64844 0.30859 1.4297 0.03125 1.7305-0.62109 0.30859-0.64844 0.03125-1.4297-0.62109-1.7305-8.707-4.1172-14.34-12.988-14.34-22.617 0-13.801 11.23-25.031 25.031-25.031s25.031 11.23 25.031 25.031c0 9.6289-5.6289 18.512-14.352 22.621-0.64844 0.30859-0.92969 1.0781-0.62109 1.7305 0.21875 0.46875 0.69141 0.75 1.1797 0.75 0.19141-0.003907 0.38281-0.042969 0.5625-0.13281z"/>
  <path fill="#6C6C6C" d="m60.68 61.93c0.25 0 0.51172-0.070313 0.73047-0.23047 5.4414-3.7305 8.6914-9.9102 8.6914-16.531 0-11.09-9.0195-20.109-20.109-20.109-11.09 0-20.109 9.0195-20.109 20.109 0 6.6211 3.25 12.801 8.6914 16.531 0.58984 0.41016 1.3984 0.26172 1.8086-0.33984 0.41016-0.58984 0.26172-1.3984-0.33984-1.8086-4.7305-3.2383-7.5586-8.6211-7.5586-14.391 0-9.6484 7.8516-17.512 17.512-17.512s17.512 7.8516 17.512 17.512c0 5.7617-2.8281 11.141-7.5586 14.391-0.58984 0.41016-0.73828 1.2188-0.33984 1.8086 0.25 0.37109 0.66016 0.57031 1.0703 0.57031z"/>
  <path fill="#6C6C6C" d="m59.379 51.59c0.64062 0.33984 1.4219 0.089844 1.7617-0.53906 0.94922-1.8008 1.4492-3.8281 1.4492-5.8789 0-6.9414-5.6484-12.602-12.59-12.602s-12.59 5.6484-12.59 12.602c0 2.0117 0.48047 4.0117 1.3984 5.7812 0.19141 0.48047 0.66016 0.80859 1.2109 0.80859 0.71875 0 1.3008-0.58984 1.3008-1.3086 0-0.21094-0.050781-0.42188-0.14844-0.60938-0.75-1.4219-1.1484-3.0391-1.1484-4.6719 0-5.5117 4.4805-9.9883 9.9883-9.9883 5.5117 0 9.9883 4.4805 9.9883 9.9883 0 1.6289-0.39844 3.2383-1.1484 4.6719-0.35156 0.625-0.11328 1.418 0.52734 1.7461z"/>
  <path fill="#6C6C6C" d="m51.141 80.891c0 1.5195-2.2812 1.5195-2.2812 0s2.2812-1.5195 2.2812 0"/>
  <path fill="#6C6C6C" d="m54.051 43.328h-8.1016c-1.7383 0-3.1992 1.3594-3.3203 3.0898l-2.7109 40.031c-0.070313 0.91016 0.25 1.8203 0.87109 2.4883 0.62891 0.67188 1.5195 1.0586 2.4492 1.0586h13.52c0.92969 0 1.8203-0.39062 2.4492-1.0586 0.62109-0.67188 0.94141-1.5781 0.87109-2.4883l-2.7109-40.031c-0.11719-1.7266-1.5781-3.0898-3.3164-3.0898zm-5.1914 7.4023c0-0.62891 0.51172-1.1406 1.1406-1.1406s1.1406 0.51172 1.1406 1.1406v3.4102c0 0.62891-0.51172 1.1406-1.1406 1.1406s-1.1406-0.51172-1.1406-1.1406zm0 9.0977c0-0.62891 0.51172-1.1406 1.1406-1.1406s1.1406 0.51172 1.1406 1.1406v3.4219c0 0.62891-0.51172 1.1406-1.1406 1.1406s-1.1406-0.51172-1.1406-1.1406zm0 9.1133c0-0.62891 0.51172-1.1406 1.1406-1.1406s1.1406 0.51172 1.1406 1.1406v3.4102c0 0.62891-0.51172 1.1406-1.1406 1.1406s-1.1406-0.51172-1.1406-1.1406zm1.1406 15.367c-1.8789 0-3.4219-1.5312-3.4219-3.4219 0-1.8789 1.5391-3.4102 3.4219-3.4102 1.8789 0 3.4219 1.5312 3.4219 3.4102 0 1.8945-1.543 3.4219-3.4219 3.4219z"/>
 </g>
</svg>