<svg width="58" height="49" viewBox="0 0 58 49" fill="none" xmlns="http://www.w3.org/2000/svg">
<path opacity="0.927" fill-rule="evenodd" clipRule="evenodd" d="M22.3724 0.0140841C27.1253 -0.17759 31.12 1.58714 34.3567 5.30827C39.1823 3.93922 43.3499 5.16414 46.8597 8.98305C48.8426 11.5311 49.7837 14.4793 49.6829 17.8275C53.8373 18.7267 56.3149 21.4258 57.1155 25.9244C57.5217 31.1327 55.5051 34.7244 51.0657 36.6997C50.5706 36.8439 50.0711 36.9685 49.5677 37.0734C44.267 37.1357 38.9662 37.1565 33.6653 37.1357C33.7155 38.1316 33.7539 39.1281 33.7806 40.1253C36.3572 40.7504 37.4903 42.4944 37.18 45.3572C36.7158 47.2707 35.5827 48.4125 33.7806 48.7829C31.4269 48.9644 29.8905 47.8432 29.1712 45.4195C26.9437 45.3572 24.7158 45.3364 22.4876 45.3572C22.0683 47.2844 20.9543 48.4263 19.1458 48.7829C16.5932 48.9286 15.0376 47.6621 14.4788 44.9835C14.3526 42.514 15.3705 40.8946 17.5325 40.1253C17.6475 39.1322 17.6859 38.1357 17.6478 37.1357C14.805 37.1565 11.9626 37.1357 9.12041 37.0734C4.08276 36.0706 1.06745 32.8526 0.0745131 27.4193C-0.425517 21.8759 1.59109 17.8275 6.12432 15.2738C6.97347 14.8638 7.85692 14.594 8.77471 14.4641C9.64529 7.39829 13.2176 2.76852 19.4915 0.574645C20.4592 0.331312 21.4195 0.144458 22.3724 0.0140841ZM22.4876 1.88262C27.1017 1.75104 30.8659 3.59882 33.7806 7.42594C34.0494 7.50903 34.3184 7.50903 34.5872 7.42594C38.9068 5.87867 42.6135 6.89602 45.7073 10.4779C47.5284 13.0424 48.3158 15.949 48.0696 19.1977C48.1849 19.3015 48.3001 19.4054 48.4153 19.5091C52.7439 20.0981 55.0871 22.7348 55.4446 27.4193C55.2201 31.6693 53.1844 34.2645 49.3372 35.2048C44.075 35.2671 38.8126 35.2879 33.5501 35.2671C33.5367 34.8486 33.4984 34.4334 33.4349 34.0214C35.0702 33.525 36.0496 32.3624 36.3733 30.5335C36.5575 28.9923 36.1542 27.6637 35.1634 26.5473C35.9124 25.177 36.6614 23.8068 37.4104 22.4365C39.4776 23.0481 41.0909 22.3838 42.2503 20.4434C43.1701 18.1898 42.7668 16.259 41.0403 14.6509C38.6662 13.2959 36.6879 13.7735 35.1058 16.0835C34.2443 18.0908 34.4939 19.9177 35.8548 21.5645C35.1058 22.9348 34.3567 24.305 33.6077 25.6753C31.6637 25.0886 30.0889 25.6699 28.8831 27.4193C28.6825 27.7692 28.548 28.1429 28.4798 28.5404C26.521 28.3605 24.562 28.1737 22.6028 27.9798C21.968 25.2687 20.3547 24.023 17.763 24.2428C15.8737 24.7072 14.779 25.9736 14.4788 28.0421C14.3468 30.5391 15.3839 32.1585 17.5901 32.9003C17.6478 33.6882 17.6669 34.4771 17.6478 35.2671C14.8819 35.2879 12.1163 35.2671 9.35088 35.2048C5.19721 34.3272 2.68126 31.649 1.80303 27.1701C1.42474 21.8948 3.51817 18.3445 8.0833 16.5195C8.6535 16.363 9.22968 16.2385 9.81182 16.1458C10.0176 16.048 10.1905 15.9027 10.3304 15.7098C10.8326 9.03325 14.0015 4.6111 19.8372 2.44318C20.7272 2.2003 21.6105 2.01344 22.4876 1.88262ZM38.3899 15.7098C39.938 15.7572 40.8215 16.6084 41.0403 18.2634C40.5824 20.5447 39.3532 21.2506 37.3528 20.3811C36.0243 19.0494 35.9858 17.6791 37.2376 16.2703C37.6196 16.0424 38.0038 15.8555 38.3899 15.7098ZM17.9935 26.049C19.6659 25.9679 20.6261 26.8191 20.8743 28.6027C20.6986 30.1213 19.9112 30.9726 18.512 31.1563C17.1118 30.9715 16.3244 30.1203 16.1497 28.6027C16.2762 27.3256 16.8909 26.4744 17.9935 26.049ZM31.9368 27.2947C33.5506 27.2746 34.4724 28.1259 34.7024 29.8484C34.3979 31.7768 33.3608 32.5657 31.5911 32.2152C30.0025 31.304 29.6375 29.996 30.4964 28.2913C30.9096 27.8196 31.3898 27.4874 31.9368 27.2947ZM22.3724 29.9106C24.3719 30.0493 26.3693 30.2153 28.3645 30.4089C28.6541 32.5075 29.768 33.7532 31.7063 34.146C31.7299 34.5219 31.7682 34.8956 31.8216 35.2671C27.6731 35.2671 23.5247 35.2671 19.3763 35.2671C19.3571 34.4771 19.3763 33.6882 19.4339 32.9003C20.8827 32.4342 21.8622 31.4376 22.3724 29.9106ZM19.3763 37.1357C23.5631 37.1357 27.75 37.1357 31.9368 37.1357C31.9693 38.1741 32.0078 39.2121 32.0521 40.2499C30.5724 40.7491 29.6121 41.808 29.1712 43.4264C26.9437 43.4887 24.7158 43.5095 22.4876 43.4887C22.1035 41.6616 21.0664 40.5405 19.3763 40.1253C19.3763 39.1288 19.3763 38.1322 19.3763 37.1357ZM18.2239 41.8693C19.7776 41.9086 20.661 42.7598 20.8743 44.4229C20.7015 45.9386 19.9141 46.7897 18.512 46.9766C17.1108 46.7906 16.3234 45.9393 16.1497 44.4229C16.2996 43.0371 16.991 42.1858 18.2239 41.8693ZM32.8587 41.8693C34.7354 42.0083 35.5997 43.0879 35.4515 45.1081C34.718 46.865 33.5464 47.3426 31.9368 46.5406C30.8666 45.6147 30.6169 44.4728 31.1878 43.115C31.6129 42.4647 32.1698 42.0495 32.8587 41.8693Z" fill="#6C6C6C"/>
</svg>
