<svg width="55" height="61" viewBox="0 0 55 61" fill="none" xmlns="http://www.w3.org/2000/svg">
<g clipPath="url(#clip0_1_537)">
<path d="M23.6758 0.189285C22.3652 0.72134 21.5273 2.36481 21.8066 3.84275C21.9678 4.70586 22.4512 5.49804 23.0957 5.93551L23.6328 6.30204V10.0264V13.7508L24.6533 14.8859L25.6738 16.0328V17.6408V19.2369L25.0615 19.3197C23.9229 19.4616 22.999 20.1119 22.5479 21.0696L22.3438 21.5189H20.6143H18.8848L18.5732 21.8618C18.3477 22.1219 18.2617 22.3229 18.2617 22.6421C18.2617 23.6826 18.6377 23.8836 20.625 23.8836H22.1289V25.8936V27.9036H19.6475H17.1553L16.2314 28.8849L15.3076 29.8781L14.8779 29.7244C13.041 29.0859 11.0645 30.6939 11.0645 32.8103C11.0645 33.4606 11.3652 34.3474 11.7734 34.8558C12.9551 36.381 15.082 36.381 16.2637 34.8558C16.8652 34.0873 17.1016 32.964 16.8652 32.0418C16.7578 31.6516 16.7793 31.6161 17.3701 30.954L17.9824 30.2683H20.0449H22.0967L22.1504 31.5925C22.2148 33.2005 22.4189 33.7917 23.2246 34.5838C23.7939 35.1514 24.5352 35.4706 25.2549 35.4706H25.6631L25.6953 37.3151L25.7275 39.1595L26.0928 39.5142C26.4043 39.8217 26.5117 39.8689 26.8984 39.8098C27.1885 39.7625 27.4248 39.6325 27.5752 39.4315C27.8115 39.1359 27.8223 39.0177 27.8223 37.2914V35.4706H28.3057H28.7891V38.0127C28.7891 39.999 28.8213 40.6375 28.9395 40.8858C29.0254 41.0631 29.4336 41.5715 29.8525 42.0326L30.6152 42.8485V44.7166C30.6152 46.2182 30.583 46.5847 30.4648 46.5847C30.1855 46.5847 29.2939 47.5779 29.0469 48.1809C28.542 49.375 28.7783 50.8412 29.6484 51.787C31.4531 53.7852 34.5898 52.4019 34.5898 49.5879C34.5898 48.3582 34.1816 47.4951 33.2793 46.8093L32.7637 46.431V44.1845V41.9381L31.8506 40.9212L30.9375 39.8926V37.6816V35.4706H32.6025C34.0312 35.4706 34.3428 35.4351 34.8691 35.2223C35.5459 34.9385 36.2764 34.2173 36.5127 33.6025L36.6523 33.2241H38.1777H39.6924L41.54 35.2696L43.3984 37.3032L43.2803 38.0127C42.7754 40.9922 46.0732 43.0376 48.0928 40.9922C48.834 40.2473 49.0381 39.7271 49.0381 38.6038C49.0381 37.4806 48.834 36.9604 48.0928 36.2155C47.3516 35.4588 46.3848 35.1987 45.3643 35.4824L44.8809 35.6243L42.7432 33.2714L40.6055 30.9186L38.7256 30.8831L36.8457 30.8358V29.7244V28.613H41.4648H46.0732L46.2344 28.9322C46.4385 29.3697 47.1152 30.0673 47.5879 30.3392C48.1465 30.6703 49.5322 30.6466 50.123 30.3037C51.1865 29.6771 51.874 28.2819 51.7344 27.0286C51.5303 25.3142 49.9619 23.9309 48.4688 24.1792C47.5234 24.3329 46.5244 25.1132 46.1699 25.9645L46.0518 26.2483H41.4434H36.8457V25.0659V23.8954L40.9814 23.8599L45.1172 23.8245L47.9316 20.7385L50.7568 17.6526L51.1328 17.8063C51.8203 18.0901 52.6367 18.0073 53.3779 17.6053C54.334 17.0732 54.8711 16.1983 54.9678 15.016C55.2041 12.2256 52.2607 10.5112 50.1982 12.2493C49.4141 12.8995 48.9307 14.4248 49.1885 15.4416L49.3066 15.9027L46.75 18.7049L44.2041 21.5189H40.4121H36.6309L36.5234 21.2351C36.373 20.7858 35.6748 19.9936 35.2129 19.7335L34.8047 19.5089V16.9195V14.3302L35.127 14.1883C35.5352 13.9991 36.2764 13.1242 36.4912 12.5567C36.7383 11.9182 36.7168 10.7122 36.4482 10.0383C35.9541 8.83226 35.0088 8.17015 33.7734 8.15833C32.8496 8.15833 32.0977 8.52485 31.5391 9.24609C30.3896 10.7122 30.7119 13.0651 32.1836 14.0583L32.6455 14.3657L32.6562 16.8131V19.2724H31.6895H30.7227V18.5039C30.7227 17.2861 30.4004 16.7895 29.5947 16.7895C29.3047 16.7895 29.1221 16.8841 28.8857 17.1324C28.5957 17.4516 28.5742 17.5462 28.5742 18.3738V19.2724H28.209H27.8438L27.8008 17.1442L27.7686 15.016L26.7803 13.9164L25.7812 12.8286V9.48256C25.7812 6.75133 25.8027 6.14833 25.9316 6.14833C26.1787 6.14833 27.0703 5.20245 27.3066 4.68222C27.6504 3.94916 27.6934 2.79045 27.4033 2.06922C27.0596 1.21793 26.7373 0.804108 26.1035 0.425755C25.4053 0.0119324 24.3633 -0.0944786 23.6758 0.189285ZM25.1797 2.6131C25.5449 2.93233 25.5557 3.45257 25.1904 3.84275C24.9004 4.17381 24.7393 4.19745 24.3418 4.00827C23.6543 3.65357 23.9014 2.36481 24.6641 2.36481C24.793 2.36481 25.0186 2.47122 25.1797 2.6131ZM34.3643 10.8304C34.4932 11.0078 34.5898 11.2324 34.5898 11.3507C34.5898 11.4689 34.4932 11.6936 34.3643 11.8709C33.9346 12.4739 32.9785 12.1074 32.9785 11.327C32.9785 10.5585 33.9238 10.2156 34.3643 10.8304ZM52.6689 14.212C52.7656 14.342 52.8516 14.5785 52.8516 14.744C52.8516 15.1224 52.4004 15.6071 52.0459 15.6071C51.7451 15.6071 51.2402 15.1342 51.2402 14.8504C51.2402 13.9873 52.1748 13.5617 52.6689 14.212ZM34.4395 22.0273L34.6973 22.3583V27.3833V32.4201L34.3857 32.763L34.0742 33.1059H29.498H24.9326L24.6318 32.8221L24.3311 32.5384L24.2988 27.5962C24.2773 24.0136 24.3096 22.5593 24.3955 22.3111C24.6533 21.6371 24.6641 21.6371 29.627 21.6726L34.1816 21.6962L34.4395 22.0273ZM49.1348 26.6148C49.8975 27.005 49.6182 28.2583 48.7695 28.2583C48.458 28.2583 48.0176 27.738 48.0176 27.3715C48.0176 27.0405 48.4473 26.4847 48.7051 26.4847C48.791 26.4847 48.9844 26.5439 49.1348 26.6148ZM14.5557 32.2191C14.9854 32.6803 14.8672 33.366 14.3193 33.5907C13.8037 33.8035 13.2129 33.3187 13.2129 32.6803C13.2129 32.3965 13.7178 31.9236 14.0186 31.9236C14.1689 31.9236 14.416 32.0536 14.5557 32.2191ZM46.6748 38.0127C46.8252 38.1664 46.9434 38.4383 46.9434 38.6038C46.9434 38.994 46.5029 39.4906 46.1592 39.4906C45.7188 39.4906 45.3965 39.1122 45.3965 38.6038C45.3965 37.788 46.1592 37.4333 46.6748 38.0127ZM32.1621 48.843C32.71 49.3159 32.4092 50.3682 31.7217 50.3682C31.002 50.3682 30.6582 49.3277 31.2168 48.843C31.3779 48.7011 31.582 48.5947 31.6895 48.5947C31.7969 48.5947 32.001 48.7011 32.1621 48.843Z" fill="#6C6C6C"/>
<path d="M27.5106 22.7604C27.2313 23.0205 27.038 23.5762 25.9852 27.0523C24.7176 31.2497 24.6854 31.427 25.1366 31.9236C25.7811 32.633 26.7479 32.2192 27.0594 31.096L27.1883 30.623H28.1874H29.1864L29.3153 31.1196C29.6268 32.231 30.5184 32.633 31.163 31.9354C31.3885 31.6872 31.4745 31.4743 31.4745 31.1669C31.4745 30.7886 29.3905 23.7063 29.0897 23.0796C28.9286 22.7486 28.4774 22.4648 28.1014 22.4648C27.9618 22.4648 27.6932 22.5949 27.5106 22.7604ZM28.2303 28.2347C27.9296 28.2938 27.9081 28.2347 28.0585 27.7736L28.1766 27.3834L28.3055 27.7854C28.4237 28.1638 28.413 28.1992 28.2303 28.2347Z" fill="#6C6C6C"/>
<path d="M32.71 22.5712C32.5918 22.6303 32.3984 22.7959 32.2803 22.9377C32.0762 23.186 32.0654 23.3634 32.0654 27.3952V31.5925L32.4307 31.9472C32.7422 32.2547 32.8496 32.302 33.2363 32.2428C33.5264 32.1955 33.7627 32.0655 33.9131 31.8645C34.1602 31.5571 34.1602 31.5334 34.1602 27.478C34.1602 23.056 34.1387 22.8905 33.5693 22.6067C33.2471 22.4412 33.0215 22.4412 32.71 22.5712Z" fill="#6C6C6C"/>
<path d="M18.9062 7.1651C15.8554 7.88634 12.4609 9.78992 10.0331 12.1546C7.13275 14.9686 4.95209 18.9295 3.98529 23.115C3.57709 24.924 3.52338 25.5033 3.43744 28.672C3.34076 32.4201 3.52338 31.6752 1.51459 36.712C-0.128966 40.8148 -0.193419 41.1104 0.268495 42.1627C0.676698 43.0731 1.1601 43.3923 2.87885 43.8652C3.6308 44.0662 4.30756 44.2791 4.38275 44.3264C4.45795 44.3737 4.82318 46.3245 5.25287 48.9848C6.06928 54.0335 6.14447 54.3054 7.03607 55.2749C8.13178 56.4927 8.83002 56.6701 11.8378 56.5164C13.041 56.4573 14.4374 56.3982 14.9638 56.3982H15.8984V58.0653V59.7324L16.2636 60.1344C16.4999 60.3945 16.7363 60.5364 16.9081 60.5364C17.2734 60.5364 17.7783 60.2526 17.8964 59.9807C17.9501 59.8624 18.0146 58.952 18.0468 57.947L18.1005 56.1262L18.5302 55.9843C20.2382 55.4286 21.8173 53.7024 22.3437 51.7988C22.4619 51.385 22.5908 50.5692 22.6337 50.0135C22.7304 48.3818 22.4404 47.767 21.538 47.767C21.1943 47.767 21.0331 47.8379 20.8183 48.0862C20.5712 48.3818 20.539 48.5473 20.4853 49.5405C20.4208 50.9002 20.1415 51.787 19.5507 52.52C19.0996 53.0876 18.1113 53.726 17.5097 53.8443C17.3056 53.8797 15.4257 53.998 13.3417 54.0926C9.93646 54.2463 9.51752 54.2463 9.16303 54.0926C8.67963 53.8679 8.41107 53.6078 8.19623 53.1703C8.12103 52.993 7.73431 50.8884 7.3476 48.5001C6.97162 46.1117 6.60639 43.9598 6.54193 43.7115C6.42377 43.2031 5.90814 42.5174 5.46771 42.2691C5.30658 42.1745 4.53314 41.9025 3.73822 41.6661C2.95404 41.4414 2.26654 41.205 2.21283 41.1458C2.15912 41.0867 2.78217 39.4078 3.6308 37.2796C4.45795 35.2104 5.22064 33.2004 5.31732 32.8103C5.45697 32.2782 5.52142 31.2969 5.58588 28.8494C5.68256 25.2314 5.81146 24.2855 6.50971 22.0982C8.53998 15.678 13.4384 10.9132 19.497 9.47069C20.7753 9.16328 20.9257 9.08051 21.1191 8.54845C21.248 8.22922 21.2587 8.05186 21.1621 7.74446C20.9365 6.97593 20.3242 6.82222 18.9062 7.1651Z" fill="#6C6C6C"/>
<path d="M38.285 38.7221C37.6942 38.9941 36.8026 40.8622 36.2762 42.8958C36.0507 43.7826 36.0507 44.0309 36.0077 51.7989C35.9755 59.7443 35.9755 59.7798 36.201 60.099C36.4589 60.4655 37.0604 60.6311 37.4364 60.4419C37.576 60.3709 37.7801 60.1699 37.8876 59.9808C38.0702 59.6852 38.0809 59.1176 38.1346 51.8462C38.2098 42.9313 38.1669 43.3451 39.2196 41.1696C39.8319 39.9045 39.8749 39.5261 39.4559 39.0295C39.0907 38.6039 38.7255 38.5093 38.285 38.7221Z" fill="#6C6C6C"/>
</g>
<defs>
<clipPath id="clip0_1_537">
<rect width="55" height="60.5363" fill="white"/>
</clipPath>
</defs>
</svg>
