<svg width="57" height="57" viewBox="0 0 57 57" fill="none" xmlns="http://www.w3.org/2000/svg">
<path d="M46.8828 28.2965C46.8828 23.6015 45.0931 19.3159 42.1587 16.0885L43.9272 14.3199L43.8638 15.2822C43.8321 15.766 44.1969 16.181 44.678 16.2127C44.6965 16.2154 44.7177 16.2154 44.7362 16.2154C45.1935 16.2154 45.5768 15.8611 45.6086 15.3985L45.8253 12.1152C45.8412 11.864 45.7487 11.6182 45.5715 11.4384C45.3918 11.2587 45.1459 11.1688 44.8948 11.1846L41.6114 11.4014C41.1303 11.4331 40.7628 11.8508 40.7972 12.3319C40.8289 12.8157 41.244 13.1779 41.7278 13.1462L42.69 13.0827L40.9215 14.8513C37.6937 11.9169 33.4081 10.1272 28.7134 10.1272C24.0188 10.1272 19.7329 11.9169 16.5054 14.8513L14.7368 13.0827L15.6991 13.1462C16.1802 13.1779 16.5979 12.8131 16.6297 12.3319C16.6614 11.8482 16.2966 11.4331 15.8154 11.4014L12.5321 11.1846C12.281 11.1688 12.0351 11.2613 11.8553 11.4384C11.6756 11.6182 11.5857 11.864 11.6015 12.1152L11.8183 15.3985C11.85 15.8612 12.2334 16.2154 12.6907 16.2154C12.7092 16.2154 12.7304 16.2154 12.7489 16.2127C13.23 16.181 13.5975 15.7633 13.5631 15.2822L13.4996 14.3199L15.2682 16.0885C12.3339 19.3163 10.5441 23.6019 10.5441 28.2965C10.5441 32.9912 12.3338 37.2771 15.2682 40.5046L13.4996 42.2731L13.5631 41.3109C13.5948 40.8271 13.23 40.412 12.7489 40.3803C12.2625 40.3459 11.8501 40.7134 11.8183 41.1945L11.6016 44.4779C11.5857 44.729 11.6782 44.9749 11.8554 45.1546C12.0193 45.3185 12.244 45.4111 12.474 45.4111C12.4925 45.4111 12.5136 45.4111 12.5321 45.4084L15.8155 45.1916C16.2966 45.1599 16.6641 44.7422 16.6297 44.2611C16.598 43.7773 16.1829 43.4125 15.6991 43.4469L14.7369 43.5103L16.5054 41.7418C19.7332 44.6761 24.0188 46.4659 28.7135 46.4659C33.4081 46.4659 37.694 44.6762 40.9215 41.7418L42.6901 43.5103L41.7278 43.4469C41.244 43.4152 40.829 43.78 40.7972 44.2611C40.7655 44.7449 41.1303 45.1599 41.6115 45.1916L44.8948 45.4084C44.9133 45.4111 44.9345 45.4111 44.953 45.4111C45.1856 45.4111 45.4077 45.3185 45.5716 45.1546C45.7513 44.9775 45.8412 44.729 45.8254 44.4779L45.6086 41.1945C45.5769 40.7134 45.1618 40.3459 44.678 40.3803C44.1969 40.412 43.8295 40.8297 43.8638 41.3109L43.9273 42.2731L42.1587 40.5046C45.0931 37.2768 46.8828 32.9912 46.8828 28.2965ZM20.5555 23.9108L18.9324 23.279L28.7136 19.4749L30.3367 20.1067L20.5555 23.9108ZM19.6805 25.4467V28.7485C19.6805 29.0763 19.8391 29.3883 20.1035 29.5839C20.3678 29.7795 20.7115 29.8377 21.0261 29.7399L22.3267 29.3354L23.8442 30.6255C24.0345 30.7867 24.2751 30.8713 24.5183 30.8713C24.6663 30.8713 24.8144 30.8396 24.9518 30.7761C25.3166 30.6069 25.5546 30.2369 25.5546 29.835V27.7281L27.8413 28.6163V36.7746L17.3935 32.7115V24.5531L19.6802 25.4414L19.6805 25.4467ZM27.0903 26.4513L36.8715 22.6472L38.4946 23.279L28.7134 27.0831L27.0903 26.4513ZM29.5885 28.619L40.0363 24.5558V32.7141L29.5885 36.7773V28.619ZM55.7283 22.9141H51.9109C51.3214 20.3552 50.3168 17.9336 48.921 15.7026L51.6201 13.0035C51.9612 12.6625 51.9612 12.1073 51.6201 11.7663L45.2438 5.38996C45.0799 5.22605 44.8578 5.13353 44.6252 5.13353C44.3926 5.13353 44.1705 5.22605 44.0066 5.38996L41.3075 8.09171C39.0736 6.6959 36.6548 5.69132 34.096 5.10179V1.28447C34.096 0.800698 33.7047 0.409424 33.2209 0.409424H24.2065C23.7227 0.409424 23.3314 0.800671 23.3314 1.28447V5.10179C20.7725 5.69131 18.3509 6.6959 16.1199 8.09171L13.4208 5.3926C13.0798 5.05157 12.5246 5.05157 12.1836 5.3926L5.80727 11.7689C5.64336 11.9328 5.55084 12.1549 5.55084 12.3875C5.55084 12.6202 5.64336 12.8422 5.80727 13.0061L8.50638 15.7053C7.11057 17.9391 6.10599 20.358 5.51647 22.9168H1.69914C1.21537 22.9168 0.824097 23.308 0.824097 23.7918V32.8062C0.824097 33.29 1.21535 33.6813 1.69914 33.6813H5.51647C6.10598 36.2403 7.11057 38.6618 8.50638 40.8928L5.80727 43.5919C5.46624 43.933 5.46624 44.4881 5.80727 44.8291L12.1836 51.2055C12.3475 51.3694 12.5696 51.4619 12.8022 51.4619C13.0348 51.4619 13.2569 51.3694 13.4208 51.2055L16.1199 48.5064C18.3538 49.9022 20.7726 50.9068 23.3315 51.4963V55.3136C23.3315 55.7974 23.7227 56.1886 24.2065 56.1886H33.2209C33.7047 56.1886 34.096 55.7974 34.096 55.3136V51.4963C36.6549 50.9068 39.0765 49.9022 41.3075 48.5064L44.0066 51.2055C44.3476 51.5465 44.9028 51.5465 45.2438 51.2055L51.6201 44.8291C51.784 44.6652 51.8766 44.4432 51.8766 44.2105C51.8766 43.9779 51.784 43.7558 51.6201 43.5919L48.921 40.8928C50.3168 38.659 51.3214 36.2401 51.9109 33.6813H55.7283C56.212 33.6813 56.6033 33.29 56.6033 32.8062V23.7918C56.6033 23.308 56.2121 22.9168 55.7283 22.9168V22.9141ZM54.8532 31.9285H51.2051C50.7874 31.9285 50.4279 32.222 50.3459 32.6318C49.7829 35.4604 48.6805 38.1146 47.0759 40.5228C46.8432 40.8691 46.8908 41.3317 47.1842 41.6278L49.767 44.2106L44.6278 49.3497L42.0477 46.7669C41.7516 46.4709 41.2916 46.4259 40.9427 46.6586C38.537 48.2632 35.8829 49.3656 33.0517 49.9286C32.6419 50.0106 32.3485 50.3701 32.3485 50.7878V54.4359H25.0815V50.7878C25.0815 50.3701 24.788 50.0106 24.3782 49.9286C21.5496 49.3656 18.8928 48.2632 16.4872 46.6586C16.1409 46.4259 15.6783 46.4735 15.3822 46.7669L12.7995 49.3497L7.66029 44.2106L10.2431 41.6304C10.5391 41.3343 10.5841 40.8743 10.3515 40.5254C8.74679 38.1197 7.64442 35.4629 7.08136 32.6344C6.99941 32.2246 6.63988 31.9312 6.22222 31.9312H2.57408V24.6669H6.22222C6.6399 24.6669 6.9994 24.3734 7.08136 23.9636C7.64444 21.135 8.74679 18.4808 10.3515 16.0726C10.5841 15.7263 10.5365 15.2637 10.2431 14.9676L7.66029 12.3849L12.7995 7.24569L15.3822 9.82847C15.6783 10.1246 16.1383 10.1695 16.4872 9.93686C18.8929 8.3322 21.5471 7.22983 24.3782 6.66677C24.788 6.58482 25.0815 6.22529 25.0815 5.80762V2.15949H32.3485V5.80762C32.3485 6.22531 32.6419 6.58481 33.0517 6.66677C35.8803 7.22985 38.5372 8.3322 40.9427 9.93686C41.289 10.1695 41.7516 10.1219 42.0477 9.82847L44.6305 7.24569L49.7697 12.3849L47.1869 14.9676C46.8908 15.2637 46.8458 15.7237 47.0785 16.0726C48.6831 18.4783 49.7855 21.1325 50.3486 23.9636C50.4305 24.3734 50.7901 24.6669 51.2077 24.6669H54.8559V31.9312L54.8532 31.9285Z" fill="white"/>
</svg>
