<svg width="63" height="55" viewBox="0 0 63 55" fill="none" xmlns="http://www.w3.org/2000/svg">
<path fillRule="evenodd" clipRule="evenodd" d="M19.4593 20.1226H16.2908C16.0433 20.1226 15.8174 20.224 15.6533 20.3868C15.4892 20.5496 15.387 20.7738 15.387 21.0193L15.3843 22.6927C15.3816 23.029 15.1476 23.3359 14.8006 23.4106C13.991 23.5895 13.2029 23.835 12.4471 24.1472C11.7021 24.4542 10.9892 24.8198 10.3168 25.2415C10.0236 25.4657 9.60398 25.4443 9.33771 25.1774L8.14344 23.9924C7.96861 23.819 7.7373 23.7336 7.50598 23.7336C7.27197 23.7336 7.04334 23.8216 6.86851 23.9924L4.62796 26.2156C4.45313 26.3891 4.36437 26.6186 4.36437 26.8481C4.36437 27.0777 4.45313 27.3072 4.62796 27.4807L5.81954 28.6657C6.05893 28.9059 6.11003 29.2848 5.91906 29.5811C5.48063 30.2616 5.09869 30.9876 4.77864 31.7535C4.4747 32.4821 4.22993 33.2428 4.0524 34.0221C4.00399 34.385 3.69198 34.6626 3.31543 34.6626H1.62897C1.38151 34.6626 1.15558 34.764 0.991505 34.9268C0.827432 35.0896 0.72522 35.3138 0.72522 35.5593V38.7033C0.72522 38.9489 0.827432 39.173 0.991505 39.3358C1.15558 39.4986 1.38152 39.6001 1.62897 39.6001L3.31543 39.6027C3.65433 39.6054 3.96365 39.8376 4.03898 40.1819C4.21919 40.9852 4.46664 41.7672 4.78133 42.5172C5.09065 43.2564 5.45915 43.9637 5.88415 44.631C6.11008 44.9219 6.08857 45.3382 5.81959 45.6024L4.62533 46.7874C4.4505 46.9609 4.36174 47.1904 4.36174 47.42C4.36174 47.6495 4.4505 47.879 4.62265 48.0525L6.86319 50.2757C7.03803 50.4491 7.26934 50.5372 7.50066 50.5372C7.73198 50.5372 7.9633 50.4491 8.13813 50.2757L9.33239 49.0933C9.57447 48.8558 9.95641 48.8051 10.2549 48.9946C10.9435 49.4323 11.6751 49.8086 12.4417 50.1262C13.1787 50.4277 13.9426 50.6706 14.7307 50.8468C15.0965 50.8948 15.3762 51.2044 15.3762 51.578V53.2514C15.3762 53.4969 15.4784 53.7211 15.6425 53.8839C15.8066 54.0467 16.0325 54.1481 16.28 54.1481H19.4485C19.696 54.1481 19.9219 54.0467 20.086 53.8839C20.25 53.7211 20.3522 53.4969 20.3522 53.2514L20.3549 51.578C20.3576 51.2417 20.5916 50.9348 20.9386 50.8601C21.7455 50.6839 22.5309 50.4357 23.2895 50.1262C24.0372 49.8192 24.7473 49.4509 25.4225 49.0292C25.713 48.805 26.1353 48.8264 26.4015 49.0933L27.5958 50.2783C27.7706 50.4518 28.0019 50.5398 28.2333 50.5398C28.4646 50.5398 28.6959 50.4517 28.8707 50.2783L31.1113 48.0551C31.2861 47.8816 31.3749 47.6521 31.3749 47.4226C31.3749 47.1931 31.2861 46.9635 31.114 46.7901L29.9224 45.6051C29.683 45.3649 29.6319 44.9859 29.8229 44.6897C30.2613 44.0064 30.6432 43.2805 30.9606 42.5198C31.2645 41.7886 31.5093 41.0306 31.6895 40.2486C31.7379 39.8857 32.05 39.6081 32.4265 39.6081H34.113C34.3604 39.6081 34.5864 39.5067 34.7504 39.3439C34.9145 39.1811 35.0167 38.9569 35.0167 38.7114V35.5674C35.0167 35.3219 34.9145 35.0977 34.7504 34.9349C34.5864 34.7721 34.3604 34.6707 34.113 34.6707L32.4265 34.668C32.0876 34.6653 31.7783 34.4331 31.703 34.0888C31.5227 33.2855 31.2753 32.5035 30.9606 31.7535C30.6513 31.0143 30.2828 30.307 29.8578 29.6398C29.6318 29.3515 29.6534 28.9325 29.9223 28.6683L31.1166 27.4833C31.2914 27.3098 31.3802 27.0803 31.3802 26.8507C31.3802 26.6212 31.2914 26.3917 31.1166 26.2182L28.8761 23.9951C28.7012 23.8216 28.4699 23.7335 28.2386 23.7335C28.018 23.7335 27.7975 23.8109 27.628 23.9657L27.6011 23.9951L26.4069 25.1774C26.1648 25.4149 25.7828 25.4656 25.4843 25.2761C24.7984 24.8411 24.0668 24.4621 23.2948 24.1446C22.5606 23.843 21.794 23.6001 21.0086 23.424C20.6428 23.3759 20.363 23.0663 20.363 22.6927V21.0193C20.363 20.7738 20.2608 20.5496 20.0968 20.3868C19.9327 20.224 19.7067 20.1226 19.4593 20.1226ZM23.8113 31.2436C25.331 32.7515 26.2697 34.8332 26.2697 37.1338C26.2697 39.4344 25.331 41.5161 23.8113 43.0213C22.2916 44.5292 20.1936 45.4607 17.875 45.4607C15.5565 45.4607 13.4584 44.5292 11.9415 43.0213C10.4218 41.5134 9.48304 39.4317 9.48304 37.1338C9.48304 34.8332 10.4218 32.7515 11.9415 31.2436C13.4611 29.7357 15.5591 28.8042 17.875 28.8042C20.1936 28.8042 22.2916 29.7357 23.8113 31.2436ZM17.875 27.3283C20.6024 27.3283 23.0743 28.4252 24.8627 30.2C26.6514 31.9748 27.7568 34.4248 27.7568 37.1334C27.7568 39.8421 26.6513 42.2924 24.8627 44.0669C23.074 45.8414 20.6048 46.9386 17.875 46.9386C15.145 46.9386 12.6757 45.8417 10.8874 44.0669C9.09902 42.2921 7.99324 39.8421 7.99324 37.1334C7.99324 34.4248 9.09875 31.9745 10.8874 30.2C12.6761 28.4252 15.1452 27.3283 17.875 27.3283ZM14.9056 38.754C15.2364 38.9942 15.309 39.4559 15.0642 39.7842C14.8222 40.1125 14.3569 40.1845 14.026 39.9416L10.9893 37.7265C10.6584 37.4863 10.5858 37.0246 10.8306 36.6963C10.879 36.6296 10.9382 36.5735 11.0027 36.5282L14.0287 34.3236C14.3595 34.0834 14.8221 34.1555 15.0669 34.4811C15.309 34.8094 15.2363 35.2684 14.9082 35.5113L12.6838 37.1313L14.9082 38.7513L14.9056 38.754ZM21.724 39.9417C21.3932 40.1819 20.9306 40.1098 20.6858 39.7842C20.4437 39.4559 20.5163 38.9969 20.8445 38.754L23.0689 37.134L20.8445 35.514C20.5136 35.2738 20.441 34.8121 20.6858 34.4838C20.9279 34.1555 21.3931 34.0835 21.724 34.3264L24.7499 36.5309C24.8145 36.5762 24.8737 36.6323 24.9221 36.699C25.1642 37.0273 25.0915 37.4863 24.7634 37.7292L21.7266 39.9444L21.724 39.9417ZM16.974 41.1026C16.8126 41.4763 16.3768 41.6497 16.0002 41.4923C15.6237 41.3348 15.4489 40.8998 15.6075 40.5261L18.7815 33.1656C18.9428 32.792 19.3786 32.6158 19.7552 32.776C20.1318 32.9361 20.3066 33.3685 20.1479 33.7421L16.974 41.1026ZM51.7173 18.228H49.4364C49.3153 18.228 49.2051 18.276 49.1271 18.3561C49.0464 18.4361 48.998 18.5456 48.998 18.663L48.9953 19.8693C48.9926 20.2056 48.7586 20.5125 48.4116 20.5873C47.8414 20.7127 47.2873 20.8862 46.752 21.1077C46.2329 21.3212 45.7352 21.5774 45.2673 21.8683C44.9768 22.0899 44.5572 22.0712 44.2882 21.8043L43.4302 20.9529C43.3468 20.8702 43.2311 20.8275 43.1182 20.8275C43.0052 20.8275 42.8922 20.8702 42.8062 20.9529L41.195 22.5515C41.1117 22.6343 41.0686 22.749 41.0686 22.8611C41.0686 22.9732 41.1117 23.0853 41.195 23.1707L42.0531 24.0247C42.2925 24.2649 42.3436 24.6439 42.1526 24.9401C41.8433 25.4205 41.5743 25.9329 41.351 26.4694C41.1385 26.9792 40.9664 27.5103 40.8427 28.0521C40.7943 28.415 40.4822 28.6926 40.1057 28.6926H38.8899C38.7689 28.6926 38.6586 28.7406 38.5806 28.8207C38.4999 28.9008 38.4515 29.0102 38.4515 29.1276V31.3908C38.4515 31.5109 38.4999 31.6204 38.5806 31.6978C38.6613 31.7778 38.7716 31.8259 38.8899 31.8259L40.1057 31.8285C40.4446 31.8312 40.7539 32.0634 40.8292 32.4077C40.9557 32.9735 41.1305 33.5233 41.3537 34.0544C41.5689 34.5695 41.8271 35.0633 42.1203 35.5276C42.3436 35.8158 42.3248 36.2321 42.0558 36.4991L41.1977 37.3505C41.1144 37.4332 41.0713 37.548 41.0713 37.6601C41.0713 37.7721 41.1144 37.8842 41.1977 37.9696L42.8089 39.5683C42.8922 39.651 43.0079 39.6937 43.1209 39.6937C43.2338 39.6937 43.3468 39.651 43.4329 39.5683L44.2936 38.7169C44.5357 38.4794 44.9176 38.4287 45.2161 38.6181C45.6976 38.9224 46.214 39.1893 46.7601 39.4162C47.2738 39.627 47.8064 39.7978 48.3524 39.9206C48.7182 39.9686 48.9979 40.2782 48.9979 40.6518V41.8582C48.9979 41.9783 49.0463 42.0877 49.127 42.1651C49.2077 42.2451 49.318 42.2932 49.4364 42.2932H51.7173C51.8383 42.2932 51.9486 42.2451 52.0266 42.1651C52.1073 42.085 52.1557 41.9756 52.1557 41.8582L52.1584 40.6518C52.1611 40.3156 52.3951 40.0086 52.742 39.9339C53.3123 39.8085 53.8663 39.635 54.4016 39.4135C54.9208 39.2 55.4184 38.9437 55.8863 38.6528C56.1768 38.4313 56.5964 38.45 56.8654 38.7169L57.7235 39.5683C57.8068 39.651 57.9225 39.6937 58.0355 39.6937C58.1484 39.6937 58.2614 39.651 58.3475 39.5683L59.9586 37.9696C60.042 37.8869 60.085 37.7721 60.085 37.66C60.085 37.5479 60.042 37.4359 59.9586 37.3504L59.1006 36.4964C58.8612 36.2562 58.8101 35.8772 59.001 35.581C59.3104 35.1006 59.5793 34.5882 59.8026 34.0517C60.0151 33.542 60.1872 33.0109 60.311 32.4664C60.3594 32.1035 60.6714 31.8259 61.048 31.8259H62.2637C62.3847 31.8259 62.495 31.7779 62.573 31.6978C62.6537 31.6177 62.7021 31.5083 62.7021 31.3909V29.1277C62.7021 29.0076 62.6537 28.8981 62.573 28.8207C62.4923 28.7407 62.382 28.6926 62.2637 28.6926L61.048 28.69C60.709 28.6873 60.3997 28.4551 60.3244 28.1108C60.198 27.545 60.0231 26.9952 59.7999 26.4641C59.5847 25.949 59.3265 25.4552 59.0333 24.9909C58.8101 24.7027 58.8289 24.2863 59.0979 24.0194L59.9559 23.168C60.0393 23.0853 60.0823 22.9705 60.0823 22.8584C60.0823 22.7463 60.0393 22.6343 59.9559 22.5489L58.3448 20.9502C58.2614 20.8675 58.1457 20.8248 58.0328 20.8248C57.9198 20.8248 57.8068 20.8675 57.7208 20.9502L56.86 21.8016C56.618 22.0391 56.236 22.0898 55.9375 21.9003C55.4533 21.5934 54.9369 21.3265 54.3963 21.105C53.8825 20.8942 53.3473 20.7234 52.7986 20.6006C52.4328 20.5525 52.153 20.2429 52.153 19.8693V18.663C52.153 18.5429 52.1046 18.4335 52.0239 18.3561C51.9432 18.276 51.833 18.228 51.7146 18.228H51.7173ZM50.5769 23.3923C52.4892 23.3923 54.2188 24.1609 55.4722 25.4046C56.7256 26.6483 57.5003 28.367 57.5003 30.262C57.5003 32.1595 56.7256 33.8756 55.4722 35.1193C54.2188 36.363 52.4866 37.1317 50.5769 37.1317C48.6645 37.1317 46.9349 36.363 45.6815 35.1193C44.4281 33.8756 43.6535 32.1569 43.6535 30.262C43.6535 28.3644 44.4281 26.6483 45.6815 25.4046C46.9349 24.1609 48.6671 23.3923 50.5769 23.3923ZM37.1497 2.76477C37.1631 2.77011 37.1739 2.77544 37.1874 2.77811C37.5451 2.92757 37.8974 3.10639 38.2444 3.31189C38.543 3.4907 38.9169 3.43732 39.1536 3.20246L39.6942 2.66601C39.7884 2.5726 39.9094 2.52723 40.0331 2.52723C40.1569 2.52723 40.2806 2.5726 40.372 2.66601L41.6712 3.95507C41.7653 4.04848 41.811 4.16858 41.811 4.29135C41.811 4.41412 41.7653 4.53689 41.6712 4.62763L41.1305 5.16408C40.875 5.41762 40.8454 5.80995 41.0391 6.09553C41.2462 6.43982 41.4264 6.79209 41.5743 7.14709C41.7303 7.52074 41.8568 7.90507 41.9563 8.30271C42.0397 8.639 42.3436 8.86318 42.6771 8.86318H43.441C43.5728 8.86318 43.6939 8.91656 43.78 9.00463C43.8687 9.0927 43.9225 9.21013 43.9225 9.34091V11.1638C43.9225 11.2946 43.8687 11.4147 43.78 11.5001C43.6912 11.5881 43.5728 11.6415 43.441 11.6415H42.6771C42.3113 11.6415 42.0047 11.9057 41.9455 12.2527C41.8487 12.629 41.725 12.9973 41.577 13.3576C41.421 13.7312 41.2354 14.0915 41.0229 14.4438C40.8427 14.74 40.8965 15.111 41.1332 15.3459L41.6739 15.8823C41.768 15.9757 41.8137 16.0958 41.8137 16.2186C41.8137 16.3414 41.768 16.4641 41.6739 16.5549L40.3747 17.8439C40.2806 17.9374 40.1596 17.9827 40.0358 17.9827C39.9121 17.9827 39.7884 17.9374 39.6969 17.8439L39.1563 17.3075C38.9008 17.054 38.5054 17.0246 38.2175 17.2168C37.8706 17.4223 37.5155 17.6011 37.1551 17.7479C36.7758 17.9027 36.3885 18.0281 35.9931 18.1268C35.6542 18.2096 35.4283 18.5112 35.4283 18.8421V19.6001C35.4283 19.7309 35.3745 19.851 35.2857 19.9364C35.1969 20.0245 35.0786 20.0778 34.9468 20.0778H33.1097C32.9779 20.0778 32.8569 20.0244 32.7708 19.9364C32.682 19.8483 32.6282 19.7309 32.6282 19.6001V18.8421C32.6282 18.4792 32.3619 18.1749 32.0123 18.1162C31.6303 18.0201 31.2591 17.8973 30.8987 17.7505C30.5222 17.5958 30.1591 17.4116 29.804 17.2008C29.5055 17.0219 29.1316 17.0753 28.8949 17.3102L28.3543 17.8466C28.2601 17.94 28.1391 17.9854 28.0154 17.9854C27.8916 17.9854 27.7679 17.94 27.6764 17.8466L26.3773 16.5576C26.2832 16.4642 26.2375 16.3441 26.2375 16.2213C26.2375 16.0985 26.2832 15.9758 26.3773 15.885L26.918 15.3486C27.1735 15.095 27.2031 14.7027 27.0094 14.4171C26.8023 14.0728 26.6221 13.7206 26.4741 13.3655C26.3181 12.9919 26.1917 12.6076 26.0922 12.2099C26.0088 11.8736 25.7049 11.6495 25.3713 11.6495H24.6074C24.4756 11.6495 24.3546 11.5961 24.2685 11.508C24.1798 11.4199 24.126 11.3025 24.126 11.1717V9.34887C24.126 9.21809 24.1798 9.09799 24.2685 9.01259C24.3573 8.92451 24.4756 8.87114 24.6074 8.87114H25.3713C25.7371 8.87114 26.0438 8.60692 26.1029 8.25996C26.1998 7.88098 26.3235 7.50998 26.4714 7.15238C26.6248 6.78674 26.8103 6.42378 27.0255 6.06884C27.2057 5.77259 27.1519 5.40162 26.9152 5.16676L26.3746 4.63032C26.2805 4.5369 26.2347 4.41681 26.2347 4.29404C26.2347 4.17127 26.2805 4.0485 26.3746 3.95776L27.6737 2.6687C27.7679 2.57529 27.8889 2.52992 28.0126 2.52992C28.1364 2.52992 28.2601 2.57529 28.3516 2.6687L28.8922 3.20515C29.1477 3.45869 29.5431 3.48805 29.8309 3.29589C30.1779 3.09038 30.5329 2.91157 30.8907 2.76478C31.2673 2.60999 31.6546 2.48455 32.0554 2.3858C32.3943 2.30307 32.6202 2.00148 32.6202 1.67052V0.912544C32.6202 0.781767 32.674 0.661669 32.7628 0.576264C32.8515 0.488189 32.9699 0.434814 33.1017 0.434814H34.9388C35.0706 0.434814 35.1916 0.488193 35.2777 0.576264C35.3665 0.66434 35.4202 0.781767 35.4202 0.912544V1.67052C35.4202 2.03349 35.6865 2.33774 36.0362 2.39646C36.4154 2.49253 36.7866 2.6153 37.1498 2.7621L37.1497 2.76477ZM34.0242 4.72906C32.4856 4.72906 31.0924 5.34824 30.0837 6.34908C29.0751 7.34988 28.451 8.7324 28.451 10.259C28.451 11.7856 29.075 13.1681 30.0837 14.169C31.0924 15.1698 32.4856 15.789 34.0242 15.789C35.5627 15.789 36.956 15.1698 37.9647 14.169C38.9733 13.1682 39.5974 11.7856 39.5974 10.259C39.5974 8.7324 38.9733 7.34994 37.9647 6.34908C36.9561 5.34828 35.5627 4.72906 34.0242 4.72906Z" fill="white"/>
</svg>
