<svg width="58" height="54" viewBox="0 0 58 54" fill="none" xmlns="http://www.w3.org/2000/svg">
<path d="M35.2182 39.9226C35.2182 41.1299 35.9994 42.1444 37.2472 42.9256C39.398 44.285 42.9589 44.9951 46.3774 44.9951C49.796 44.9951 53.3572 44.285 55.5077 42.9256C56.7555 42.1444 57.5367 41.1299 57.5367 39.9226C57.5367 36.6255 51.7844 34.8501 46.3768 34.8501C40.9692 34.8501 35.2169 36.6255 35.2169 39.9226H35.2182Z" fill="white"/>
<path d="M46.3762 47.025C42.3384 47.025 38.5238 46.1323 36.1604 44.6409C35.8155 44.4279 35.501 44.1945 35.2169 43.951V48.0395C35.2169 51.3366 40.9692 53.112 46.3768 53.112C51.7844 53.112 57.5367 51.3366 57.5367 48.0395V43.951C57.2425 44.2047 56.928 44.4279 56.583 44.651C54.2294 46.1322 50.4148 47.025 46.3769 47.025L46.3762 47.025ZM41.3037 50.5352C40.7432 50.5352 40.2892 50.0812 40.2892 49.5207C40.2892 48.9601 40.7432 48.5062 41.3037 48.5062C41.8642 48.5062 42.3182 48.9601 42.3182 49.5207C42.3182 50.0812 41.8642 50.5352 41.3037 50.5352ZM51.6773 50.5098C50.0541 50.8852 48.2204 51.083 46.3765 51.083C45.816 51.083 45.362 50.629 45.362 50.0685C45.362 49.508 45.816 49.054 46.3765 49.054C48.0707 49.054 49.7446 48.8739 51.2207 48.5315C51.7711 48.4047 52.3113 48.7471 52.4381 49.2924C52.5649 49.8377 52.2251 50.383 51.6773 50.5098Z" fill="white"/>
<path d="M11.8837 34.8501C6.4764 34.8501 0.723816 36.6255 0.723816 39.9226C0.723816 41.1299 1.50497 42.1444 2.75283 42.9256C4.90358 44.285 8.46451 44.9951 11.883 44.9951C15.3016 44.9951 18.8628 44.285 21.0133 42.9256C22.2611 42.1444 23.0423 41.1299 23.0423 39.9226C23.0423 36.6255 17.29 34.8501 11.8824 34.8501H11.8837Z" fill="white"/>
<path d="M11.8831 47.025C7.84535 47.025 4.03068 46.1323 1.66729 44.6409C1.32236 44.4279 1.00788 44.1945 0.723816 43.951V48.0395C0.723816 51.3366 6.47608 53.112 11.8837 53.112C17.2913 53.112 23.0436 51.3366 23.0436 48.0395V43.951C22.7494 44.2047 22.4349 44.4279 22.0899 44.651C19.7363 46.1322 15.9217 47.025 11.8838 47.025L11.8831 47.025ZM6.81059 50.5352C6.25007 50.5352 5.79608 50.0812 5.79608 49.5207C5.79608 48.9601 6.25007 48.5062 6.81059 48.5062C7.3711 48.5062 7.82509 48.9601 7.82509 49.5207C7.82509 50.0812 7.3711 50.5352 6.81059 50.5352ZM17.1842 50.5098C15.561 50.8852 13.7273 51.083 11.8834 51.083C11.3229 51.083 10.8689 50.629 10.8689 50.0685C10.8689 49.508 11.3229 49.054 11.8834 49.054C13.5776 49.054 15.2515 48.8739 16.7276 48.5315C17.278 48.4047 17.8182 48.7471 17.945 49.2924C18.0718 49.8377 17.732 50.383 17.1842 50.5098Z" fill="white"/>
<path d="M11.4087 11.3998L28.655 20.53C28.8021 20.6086 28.967 20.6467 29.1293 20.6467C29.2916 20.6467 29.4565 20.6086 29.6036 20.53L46.8498 11.3998C47.1821 11.2248 47.39 10.8798 47.39 10.5019C47.39 10.1266 47.1821 9.78163 46.8498 9.60411L29.6036 0.473894C29.3068 0.316645 28.9517 0.316645 28.655 0.473894L11.4088 9.60671C11.0765 9.78171 10.8685 10.1266 10.8685 10.5045C10.8685 10.8799 11.0765 11.2249 11.4088 11.4024L11.4087 11.3998Z" fill="white"/>
<path d="M47.381 16.5896C47.3835 16.2194 47.1629 15.8871 46.8535 15.6969L44.9563 14.6925L30.55 22.3216C30.1138 22.5549 29.6268 22.6767 29.1297 22.6767C28.6326 22.6767 28.1355 22.5549 27.6993 22.3216L13.3034 14.6925L11.4062 15.6969C10.7062 16.0393 10.6935 17.1426 11.4062 17.4824L28.6525 26.6126C28.9569 26.775 29.3018 26.775 29.6062 26.6126L46.8524 17.4824C47.1669 17.315 47.3825 16.9498 47.38 16.5896H47.381Z" fill="white"/>
<path d="M11.883 31.8062C12.441 31.8062 12.8976 31.3497 12.8976 30.7917V26.3279L18.3353 23.4467L16.1744 22.3003L11.4062 24.8264C11.0841 25.0166 10.8964 25.3539 10.8685 25.7192V30.7917C10.8685 31.3497 11.3251 31.8062 11.883 31.8062Z" fill="white"/>
<path d="M46.3759 31.8062C46.9339 31.8062 47.3904 31.3497 47.3904 30.7917V25.7192C47.3625 25.3539 47.1748 25.0166 46.8527 24.8264L42.0845 22.3003L39.9236 23.4467L45.3614 26.3279V30.7917C45.3614 31.3497 45.8179 31.8062 46.3759 31.8062Z" fill="white"/>
</svg>
