<svg width="57" height="58" viewBox="0 0 57 58" fill="none" xmlns="http://www.w3.org/2000/svg">
<path d="M50.2441 29.7351C50.6532 31.0985 51.8803 32.1022 53.3491 32.1022C55.1433 32.1022 56.6029 30.6156 56.6029 28.7882C56.6029 26.9607 55.1434 25.4742 53.3491 25.4742C51.8803 25.4742 50.6532 26.4778 50.2441 27.8412H43.5412C43.4576 26.5251 43.2251 25.2564 42.8347 24.0538H47.3062C47.5572 24.0538 47.7896 23.9497 47.9663 23.7793L50.7552 20.9293C51.127 21.1092 51.5268 21.2133 51.9544 21.2133C53.4883 21.2133 54.7433 19.935 54.7433 18.3728C54.7433 16.8105 53.4883 15.5322 51.9544 15.5322C50.4205 15.5322 49.1655 16.8105 49.1655 18.3728C49.1655 18.8083 49.2678 19.2154 49.4444 19.5942L46.9251 22.1602H42.0724C40.6129 19.1302 38.1958 16.6684 35.2208 15.1816V10.2391L37.7401 7.67313C38.1119 7.85304 38.5117 7.95719 38.9393 7.95719C40.4732 7.95719 41.7282 6.67893 41.7282 5.11664C41.7282 3.55435 40.4732 2.27608 38.9393 2.27608C37.4054 2.27608 36.1504 3.55435 36.1504 5.11664C36.1504 5.55219 36.2527 5.95932 36.4293 6.33806L33.6311 9.17861C33.4638 9.35852 33.3615 9.59523 33.3615 9.85089V14.4052C32.1809 14.0076 30.9352 13.7708 29.643 13.6856V6.8586C30.9816 6.44199 31.967 5.19214 31.967 3.69609C31.967 1.86868 30.5075 0.38208 28.7133 0.38208C26.919 0.38208 25.4595 1.86862 25.4595 3.69609C25.4595 5.19214 26.4449 6.44193 27.7836 6.8586V13.6856C26.4914 13.7708 25.2457 14.0076 24.065 14.4052V9.85089C24.065 9.59524 23.9628 9.35853 23.7954 9.17861L20.9973 6.33806C21.1739 5.95932 21.2762 5.55216 21.2762 5.11664C21.2762 3.55435 20.0211 2.27608 18.4872 2.27608C16.9534 2.27608 15.6983 3.55435 15.6983 5.11664C15.6983 6.67893 16.9534 7.95719 18.4872 7.95719C18.9149 7.95719 19.3146 7.85303 19.6865 7.67313L22.2058 10.2391V15.1816C19.231 16.6682 16.8139 19.13 15.3542 22.1602H10.5015L7.98216 19.5942C8.15879 19.2154 8.26105 18.8083 8.26105 18.3728C8.26105 16.8105 7.00603 15.5322 5.47214 15.5322C3.93826 15.5322 2.68324 16.8105 2.68324 18.3728C2.68324 19.935 3.93826 21.2133 5.47214 21.2133C5.89978 21.2133 6.2995 21.1092 6.67136 20.9293L9.46026 23.7793C9.6369 23.9497 9.8693 24.0538 10.1203 24.0538H14.5919C14.2014 25.2564 13.969 26.5251 13.8853 27.8412H7.18243C6.77339 26.4778 5.54628 25.4742 4.07742 25.4742C2.28324 25.4742 0.823669 26.9607 0.823669 28.7882C0.823669 30.6156 2.28318 32.1022 4.07742 32.1022C5.54628 32.1022 6.77334 31.0985 7.18243 29.7351H13.8853C13.969 31.0512 14.2014 32.32 14.5919 33.5225H10.1203C9.86932 33.5225 9.63691 33.6266 9.46026 33.7971L6.67136 36.6471C6.2995 36.4672 5.89975 36.363 5.47214 36.363C3.93826 36.363 2.68324 37.6413 2.68324 39.2036C2.68324 40.7659 3.93826 42.0441 5.47214 42.0441C7.00603 42.0441 8.26105 40.7659 8.26105 39.2036C8.26105 38.768 8.15879 38.3609 7.98216 37.9821L10.5015 35.4162H15.3542C16.8137 38.4461 19.2307 40.9079 22.2058 42.3947V47.3372L19.6865 49.9032C19.3146 49.7233 18.9148 49.6191 18.4872 49.6191C16.9534 49.6191 15.6983 50.8974 15.6983 52.4597C15.6983 54.022 16.9534 55.3002 18.4872 55.3002C20.0211 55.3002 21.2762 54.022 21.2762 52.4597C21.2762 52.0241 21.1739 51.617 20.9973 51.2383L23.7954 48.3977C23.9628 48.2178 24.065 47.9811 24.065 47.7254V43.1711C25.2457 43.5688 26.4914 43.8055 27.7836 43.8907V50.7177C26.4449 51.1343 25.4595 52.3842 25.4595 53.8802C25.4595 55.7076 26.919 57.1942 28.7133 57.1942C30.5075 57.1942 31.967 55.7077 31.967 53.8802C31.967 52.3842 30.9816 51.1344 29.643 50.7177V43.8907C30.9352 43.8055 32.1809 43.5688 33.3615 43.1711V47.7254C33.3615 47.9811 33.4638 48.2178 33.6311 48.3977L36.4293 51.2383C36.2527 51.617 36.1504 52.0242 36.1504 52.4597C36.1504 54.022 37.4054 55.3002 38.9393 55.3002C40.4732 55.3002 41.7282 54.022 41.7282 52.4597C41.7282 50.8974 40.4732 49.6191 38.9393 49.6191C38.5117 49.6191 38.1119 49.7233 37.7401 49.9032L35.2208 47.3372V42.3947C38.1956 40.9081 40.6127 38.4463 42.0724 35.4162H46.9251L49.4444 37.9821C49.2678 38.3609 49.1655 38.768 49.1655 39.2036C49.1655 40.7659 50.4205 42.0441 51.9544 42.0441C53.4883 42.0441 54.7433 40.7659 54.7433 39.2036C54.7433 37.6413 53.4883 36.363 51.9544 36.363C51.5268 36.363 51.127 36.4672 50.7552 36.6471L47.9663 33.7971C47.7897 33.6266 47.5573 33.5225 47.3062 33.5225H42.8347C43.2251 32.32 43.4576 31.0512 43.5412 29.7351H50.2441ZM51.9547 17.4263C52.466 17.4263 52.8843 17.8524 52.8843 18.3732C52.8843 18.8939 52.466 19.32 51.9547 19.32C51.7036 19.32 51.4712 19.2159 51.3039 19.0454H51.2946C51.1272 18.8655 51.025 18.6288 51.025 18.3732C51.025 17.8524 51.4433 17.4263 51.9547 17.4263ZM38.9398 4.1704C39.4511 4.1704 39.8694 4.59648 39.8694 5.11726C39.8694 5.63803 39.4511 6.06411 38.9398 6.06411C38.6888 6.06411 38.4563 5.95995 38.289 5.78952H38.2797C38.1123 5.60962 38.0101 5.37291 38.0101 5.11724C38.0101 4.59647 38.4285 4.1704 38.9398 4.1704ZM19.1476 5.78002H19.1383C18.971 5.95993 18.7386 6.06408 18.4875 6.06408C17.9762 6.06408 17.5579 5.638 17.5579 5.11723C17.5579 4.59645 17.9762 4.17037 18.4875 4.17037C18.9988 4.17037 19.4172 4.59645 19.4172 5.11723C19.4172 5.37288 19.3149 5.60956 19.1476 5.78002ZM6.1327 19.0359H6.1234C5.95607 19.2158 5.72366 19.32 5.47263 19.32C4.96133 19.32 4.54299 18.8939 4.54299 18.3731C4.54299 17.8524 4.96133 17.4263 5.47263 17.4263C5.98393 17.4263 6.40226 17.8524 6.40226 18.3731C6.40226 18.6288 6.30003 18.8655 6.1327 19.0359ZM5.47264 40.1509C4.96134 40.1509 4.54301 39.7248 4.54301 39.204C4.54301 38.6832 4.96134 38.2572 5.47264 38.2572C5.72365 38.2572 5.95605 38.3613 6.12342 38.5317H6.13271C6.30005 38.7116 6.40231 38.9484 6.40231 39.204C6.40231 39.7248 5.98395 40.1509 5.47264 40.1509ZM18.4875 53.4068C17.9762 53.4068 17.5579 52.9807 17.5579 52.4599C17.5579 51.9391 17.9762 51.5131 18.4875 51.5131C18.7385 51.5131 18.9709 51.6172 19.1383 51.7877H19.1476C19.3149 51.9676 19.4172 52.2043 19.4172 52.4599C19.4172 52.9807 18.9988 53.4068 18.4875 53.4068ZM38.2797 51.7972H38.289C38.4563 51.6172 38.6887 51.5131 38.9398 51.5131C39.4511 51.5131 39.8694 51.9392 39.8694 52.4599C39.8694 52.9807 39.4511 53.4068 38.9398 53.4068C38.4285 53.4068 38.0101 52.9807 38.0101 52.4599C38.0101 52.2043 38.1124 51.9676 38.2797 51.7972ZM22.262 24.0546L28.7138 20.3998L35.1656 24.0546L28.7138 27.7094L22.262 24.0546ZM27.784 29.3475V36.6478L21.2763 32.9645V25.6643L27.784 29.3475ZM29.6433 29.3475L36.151 25.6643V32.9645L29.6433 36.6478V29.3475ZM51.2947 38.5415H51.304C51.4713 38.3616 51.7038 38.2574 51.9548 38.2574C52.4661 38.2574 52.8844 38.6835 52.8844 39.2043C52.8844 39.725 52.4661 40.1511 51.9548 40.1511C51.4435 40.1511 51.0251 39.725 51.0251 39.2043C51.0251 38.9486 51.1274 38.7119 51.2947 38.5415Z" fill="white"/>
</svg>
