<svg width="48" height="48" viewBox="0 0 48 48" fill="none" xmlns="http://www.w3.org/2000/svg">
<path d="M18.6663 39.1025V45.8165C18.6663 46.7435 19.4261 47.495 20.3633 47.495H45.8186C46.7558 47.495 47.5156 46.7435 47.5156 45.8165V39.1025C47.5156 38.1754 46.7558 37.424 45.8186 37.424H20.3633C19.4261 37.424 18.6663 38.1754 18.6663 39.1025ZM29.6969 43.2987H22.9088C22.4403 43.2987 22.0603 42.9229 22.0603 42.4595C22.0603 41.9959 22.4403 41.6202 22.9088 41.6202H29.6969C30.1655 41.6202 30.5454 41.9959 30.5454 42.4595C30.5454 42.9229 30.1655 43.2987 29.6969 43.2987ZM37.3335 44.138C36.3962 44.138 35.6365 43.3864 35.6365 42.4595C35.6365 41.5324 36.3962 40.781 37.3335 40.781C38.2708 40.781 39.0305 41.5324 39.0305 42.4595C39.0305 43.3864 38.2708 44.138 37.3335 44.138ZM42.4245 44.138C41.4873 44.138 40.7275 43.3864 40.7275 42.4595C40.7275 41.5324 41.4873 40.781 42.4245 40.781C43.3618 40.781 44.1216 41.5324 44.1216 42.4595C44.1216 43.3864 43.3618 44.138 42.4245 44.138Z" fill="white"/>
<path d="M22.0612 22.3176C22.0612 22.09 22.0601 21.8939 22.0593 21.683C20.815 23.0894 19.0082 23.9961 16.9702 23.9961C13.2212 23.9961 10.1821 20.9902 10.1821 17.2821C10.1821 13.574 13.2212 10.5681 16.9702 10.5681C20.7192 10.5681 23.7582 13.574 23.7582 17.2821H33.9403V16.2589C33.9403 15.8738 33.6754 15.538 33.2976 15.4447L28.4332 14.2419C28.162 13.2394 27.7639 12.2906 27.2505 11.4128L29.829 7.16202C30.0294 6.83183 29.9767 6.40913 29.7014 6.13682L28.2384 4.68975C27.9631 4.41744 27.5357 4.3654 27.2019 4.56353L22.9042 7.11397C22.0168 6.60613 21.0575 6.21243 20.0439 5.94412L18.8278 1.13276C18.7335 0.759132 18.3941 0.49707 18.0047 0.49707H15.9356C15.5463 0.49707 15.2069 0.759132 15.1125 1.13276L13.8964 5.94412C12.8829 6.21243 11.9236 6.60613 11.0361 7.11397L6.73846 4.56353C6.40462 4.3654 5.97726 4.41744 5.70195 4.68975L4.23892 6.13682C3.96361 6.40913 3.91099 6.83183 4.11131 7.16202L6.68988 11.4128C6.17644 12.2906 5.77839 13.2394 5.50712 14.2419L0.6427 15.4447C0.264952 15.538 0 15.8738 0 16.2589V18.3054C0 18.6905 0.264952 19.0262 0.6427 19.1195L5.50712 20.3224C5.77839 21.3248 6.17644 22.2737 6.68988 23.1514L4.11131 27.4022C3.91099 27.7324 3.96361 28.1551 4.23892 28.4274L5.70195 29.8745C5.97726 30.1468 6.40462 30.1988 6.73846 30.0007L11.0361 27.4503C11.9236 27.9581 12.8829 28.3518 13.8964 28.6201L15.1125 33.4315C15.2069 33.8051 15.5463 34.0672 15.9356 34.0672H18.0047C18.3941 34.0672 18.7335 33.8051 18.8278 33.4315L20.0439 28.6201C20.7485 28.4336 21.415 28.1656 22.0612 27.8616V22.3176Z" fill="white"/>
<path d="M39.0317 25.674C38.0944 25.674 37.3347 24.9224 37.3347 23.9955V18.96H25.4555C24.5184 18.96 23.7585 19.7114 23.7585 20.6385V35.745H44.1227V25.674H39.0317ZM39.8802 34.0665H28.0011C27.5325 34.0665 27.1525 33.6907 27.1525 33.2272C27.1525 32.7637 27.5325 32.388 28.0011 32.388H39.8802C40.3488 32.388 40.7287 32.7637 40.7287 33.2272C40.7287 33.6907 40.3488 34.0665 39.8802 34.0665ZM39.8802 30.7095H28.0011C27.5325 30.7095 27.1525 30.3337 27.1525 29.8702C27.1525 29.4067 27.5325 29.031 28.0011 29.031H39.8802C40.3488 29.031 40.7287 29.4067 40.7287 29.8702C40.7287 30.3337 40.3488 30.7095 39.8802 30.7095Z" fill="white"/>
<path d="M39.0322 18.96V23.9955H44.1232L39.0322 18.96Z" fill="white"/>
<path d="M16.9701 22.3181C19.7818 22.3181 22.0611 20.0636 22.0611 17.2826C22.0611 14.5015 19.7818 12.2471 16.9701 12.2471C14.1584 12.2471 11.879 14.5015 11.879 17.2826C11.879 20.0636 14.1584 22.3181 16.9701 22.3181Z" fill="white"/>
</svg>
