<svg width="60" height="40" viewBox="0 0 60 40" fill="none" xmlns="http://www.w3.org/2000/svg">
<path fillRule="evenodd" clipRule="evenodd" d="M50.4542 3.43253C50.9878 3.95984 51.2076 4.71908 51.0396 5.4466C50.8717 6.17169 50.3356 6.76247 49.6241 7.00658V10.3413C49.6241 10.7344 49.3029 11.0517 48.9052 11.0517H46.5756L47.0103 10.6221L46.0024 9.63093H48.1862V7.00658C47.5563 6.79175 47.0597 6.30349 46.8374 5.68097C46.6175 5.05844 46.6941 4.37241 47.0474 3.81338C47.4031 3.25433 47.996 2.88569 48.6581 2.81C49.3202 2.73676 49.9824 2.96625 50.4542 3.43253ZM44.4633 13.1414L44.3398 13.2659C44.4658 13.5124 44.5819 13.7639 44.6881 14.0178C44.7622 14.1984 44.8339 14.3791 44.9006 14.5646H47.9516V14.5622C48.1319 14.5622 48.3048 14.4962 48.4382 14.3742L51.882 11.7865C52.8999 12.5286 54.3179 12.4212 55.2048 11.5301C56.0941 10.639 56.1856 9.23775 55.4197 8.24174C54.6539 7.24567 53.2655 6.95763 52.1587 7.56553C51.052 8.17341 50.5653 9.49167 51.0174 10.661L47.7119 13.1389L44.4633 13.1414ZM48.7594 17.7456H54.9232C55.2814 16.5445 56.4771 15.7877 57.7296 15.9659C58.9797 16.1441 59.911 17.2061 59.911 18.456C59.911 19.7059 58.9796 20.7654 57.7296 20.9461C56.4771 21.1243 55.2814 20.3651 54.9232 19.1664H48.757V17.7456H48.7594ZM44.8981 22.3498H47.9491H47.9466C48.1294 22.3498 48.3024 22.4182 48.4358 22.5378L51.8796 25.1255V25.128C52.8974 24.3834 54.313 24.4933 55.1998 25.3843C56.0892 26.2754 56.1806 27.6743 55.4148 28.6703C54.6489 29.6638 53.258 29.9519 52.1538 29.344C51.0471 28.7386 50.5629 27.4203 51.0149 26.251L47.7119 23.7706H44.4633L44.3373 23.6461C44.4633 23.3995 44.5794 23.1505 44.6856 22.8942C44.7597 22.7135 44.8314 22.5329 44.8981 22.3474L44.8981 22.3498ZM46.573 25.858L47.0078 26.2876L46.0024 27.2812H48.1862V29.908C47.1783 30.2546 46.5706 31.2702 46.7485 32.3102C46.9263 33.3527 47.838 34.1143 48.9052 34.1143C49.9724 34.1143 50.8865 33.3526 51.0644 32.3102C51.2423 31.2702 50.6321 30.2546 49.6241 29.908V26.5732C49.6241 26.1802 49.303 25.8628 48.9053 25.8628L46.573 25.858ZM0.0024703 27.7548V36.8512C0.0024703 37.9766 3.09792 38.7407 6.48492 39.2363C9.43959 39.6416 12.4189 39.8735 15.4035 39.9297H15.569C15.8111 39.9297 15.6011 39.9321 15.7346 39.9297C18.7189 39.8735 21.6982 39.6416 24.655 39.2363C28.042 38.7407 31.1375 37.9766 31.1375 36.8512L31.135 27.7548C29.9245 28.4311 28.6127 28.9169 27.2466 29.1928C23.41 29.9935 19.4917 30.3743 15.5687 30.3255C11.6456 30.3743 7.72964 29.9935 3.89076 29.1928C2.52458 28.9169 1.21295 28.4311 0.0024703 27.7548ZM0.0024703 3.76432C0.0024703 4.4381 1.61568 5.151 4.21708 5.75884H4.21461C7.94742 6.53517 11.757 6.90133 15.5687 6.85252C19.383 6.90379 23.1902 6.54004 26.9228 5.76615C29.5242 5.16071 31.1349 4.44541 31.1374 3.77164C31.1374 3.09786 29.5242 2.38496 26.9228 1.77712C23.19 1.00079 19.3829 0.634625 15.5687 0.683435C11.7568 0.632169 7.94723 0.998362 4.21461 1.77225C1.61321 2.38013 0.00499623 3.09299 0 3.76676L0.0024703 3.76432ZM0.0024703 14.7918V5.70796C1.21301 6.38418 2.52481 6.87002 3.89093 7.14832C7.73 7.94903 11.6458 8.32744 15.5688 8.27863C19.4919 8.32746 23.4097 7.94906 27.2493 7.14832C28.6129 6.87246 29.9248 6.38661 31.1377 5.7104V14.7943C31.1377 15.468 29.5245 16.1809 26.9231 16.7888C23.1903 17.5651 19.3832 17.9313 15.569 17.8825C11.7571 17.9313 7.94755 17.5627 4.21493 16.7863C1.61353 16.1785 0.0024703 15.4656 0.0024703 14.7918ZM31.1372 16.7302V25.8166C31.1372 26.4904 29.5265 27.2033 26.9226 27.8111C23.1898 28.585 19.3827 28.9536 15.5685 28.9048C11.7566 28.9536 7.94705 28.585 4.21442 27.8111C1.61303 27.2032 0.00228061 26.4879 0.00228061 25.8141V16.7303C1.21282 17.4089 2.52708 17.8923 3.89074 18.1682C7.72981 18.9689 11.6456 19.3498 15.5686 19.3009C19.4917 19.3498 23.4096 18.9689 27.2491 18.1682C28.6127 17.8923 29.9243 17.4089 31.1372 16.7302ZM34.5588 23.573C37.1404 23.2165 39.0624 21.034 39.0624 18.4585C39.0624 15.8805 37.1404 13.698 34.5588 13.344V23.573ZM35.9867 5.25586H34.5588V10.0334C38.9883 10.4045 42.3902 14.0664 42.3902 18.4579C42.3902 22.8495 38.9884 26.5119 34.5588 26.8825V31.6576H35.9867V28.8477C35.9867 28.5254 36.2066 28.2447 36.5203 28.1616C36.9354 28.0518 37.343 27.9151 37.7407 27.7515C38.1261 27.5928 38.5016 27.4122 38.8648 27.2071C39.1489 27.0289 39.5195 27.0704 39.7566 27.3048L41.7676 29.292L44.8038 26.2892L42.7928 24.302C42.5631 24.0774 42.5161 23.7258 42.6792 23.4475C43.1041 22.7176 43.4327 21.9364 43.655 21.1234C43.7316 20.8036 44.0231 20.579 44.3542 20.579H47.2001V16.3336H44.3542C44.0305 16.3336 43.744 16.1164 43.66 15.8063C43.4401 14.9958 43.114 14.217 42.694 13.4896C42.5137 13.2088 42.5557 12.8426 42.7929 12.6082L44.8038 10.621L41.7651 7.61828L39.7542 9.60548L39.7567 9.60792C39.5269 9.83496 39.1712 9.88134 38.8895 9.72266C38.1509 9.30032 37.3603 8.97563 36.5376 8.7559C36.214 8.68022 35.9867 8.39459 35.9867 8.065L35.9867 5.25586ZM16.1612 12.4917C15.8795 12.211 15.4349 12.167 15.1013 12.3867C14.7678 12.6064 14.6394 13.0288 14.7925 13.395C14.9457 13.7612 15.3385 13.9687 15.7313 13.893C16.1241 13.8149 16.4082 13.4756 16.4082 13.0776C16.4082 12.8579 16.3193 12.6479 16.1612 12.4917ZM15.5683 10.8317C14.4838 10.8317 13.5499 11.5884 13.3375 12.6406C13.1275 13.6928 13.6982 14.7475 14.7011 15.1576C15.7041 15.5677 16.8603 15.2186 17.4631 14.3275C18.0659 13.434 17.9473 12.2476 17.179 11.4883C16.7516 11.066 16.1736 10.8292 15.5683 10.8317ZM17.179 25.699C17.9473 24.9398 18.0659 23.7508 17.4631 22.8573C16.8603 21.9662 15.7042 21.6171 14.7011 22.0273C13.6981 22.4375 13.1275 23.4921 13.3375 24.5442C13.5499 25.5964 14.4838 26.3556 15.5683 26.3556C16.1735 26.3581 16.7516 26.1213 17.179 25.699ZM15.5683 24.9373C15.9709 24.9373 16.3143 24.6565 16.3934 24.2684C16.4725 23.8802 16.2625 23.492 15.8919 23.3382C15.5213 23.1869 15.094 23.3162 14.8716 23.6434C14.6493 23.9729 14.6937 24.4124 14.9753 24.6931C15.1335 24.8494 15.3459 24.9373 15.5683 24.9373ZM16.1612 34.5461C16.4453 34.8244 16.4897 35.2638 16.2674 35.591C16.0451 35.9205 15.6177 36.0475 15.2471 35.8961C14.879 35.7448 14.669 35.3566 14.7456 34.9684C14.8246 34.5827 15.168 34.302 15.5683 34.302C15.7906 34.302 16.0055 34.3898 16.1612 34.5461ZM15.5683 32.8836V32.8811C16.6553 32.8811 17.5915 33.6403 17.8015 34.6925C18.014 35.7471 17.4433 36.8018 16.4379 37.2119C15.4349 37.622 14.2762 37.2729 13.6734 36.3819C13.0706 35.4883 13.1892 34.297 13.96 33.5402C14.3849 33.1154 14.9654 32.8762 15.5683 32.8762L15.5683 32.8836Z" fill="white"/>
</svg>
