<svg width="57" height="58" viewBox="0 0 57 58" fill="none" xmlns="http://www.w3.org/2000/svg">
<path d="M28.9979 0.960934V9.70764L31.3059 7.39965C31.3609 7.34418 31.4263 7.30015 31.4985 7.27011C31.5706 7.24006 31.6479 7.22459 31.726 7.22459C31.8042 7.22459 31.8815 7.24006 31.9536 7.27011C32.0257 7.30015 32.0912 7.34418 32.1462 7.39965C32.2564 7.51053 32.3183 7.66052 32.3183 7.81686C32.3183 7.9732 32.2564 8.12319 32.1462 8.23407L28.8263 11.554C28.771 11.6089 28.7054 11.6523 28.6333 11.6817C28.5612 11.7112 28.484 11.7261 28.4061 11.7257C28.2508 11.725 28.1021 11.6634 27.9918 11.554L24.6659 8.23407C24.6108 8.1789 24.567 8.11339 24.5371 8.0413C24.5073 7.9692 24.4919 7.89193 24.4919 7.8139C24.4919 7.73587 24.5073 7.6586 24.5371 7.58651C24.567 7.51441 24.6108 7.44891 24.6659 7.39373C24.7211 7.33855 24.7866 7.29478 24.8587 7.26492C24.9308 7.23506 25.0081 7.21969 25.0861 7.21969C25.1642 7.21969 25.2414 7.23506 25.3135 7.26492C25.3856 7.29478 25.4511 7.33855 25.5063 7.39373L27.8143 9.70764V0.960934C27.8143 0.803981 27.8766 0.653456 27.9876 0.542473C28.0986 0.43149 28.2491 0.369141 28.4061 0.369141C28.563 0.369141 28.7136 0.43149 28.8245 0.542473C28.9355 0.653456 28.9979 0.803981 28.9979 0.960934ZM28.4061 57.1813C28.563 57.1813 28.7136 57.119 28.8245 57.008C28.9355 56.897 28.9979 56.7465 28.9979 56.5895V47.8428L31.3059 50.1567C31.3609 50.2122 31.4263 50.2562 31.4985 50.2863C31.5706 50.3163 31.6479 50.3318 31.726 50.3318C31.8042 50.3318 31.8815 50.3163 31.9536 50.2863C32.0257 50.2562 32.0912 50.2122 32.1462 50.1567C32.2017 50.1017 32.2457 50.0362 32.2758 49.9641C32.3058 49.892 32.3213 49.8147 32.3213 49.7365C32.3213 49.6584 32.3058 49.5811 32.2758 49.509C32.2457 49.4368 32.2017 49.3714 32.1462 49.3164L28.8263 45.9964C28.7712 45.9409 28.7058 45.8969 28.6337 45.8669C28.5616 45.8368 28.4842 45.8214 28.4061 45.8214C28.328 45.8214 28.2506 45.8368 28.1785 45.8669C28.1064 45.8969 28.0409 45.9409 27.9859 45.9964L24.6659 49.3164C24.5557 49.4272 24.4939 49.5772 24.4939 49.7336C24.4939 49.8899 24.5557 50.0399 24.6659 50.1508C24.721 50.2063 24.7864 50.2503 24.8585 50.2803C24.9306 50.3104 25.008 50.3259 25.0861 50.3259C25.1642 50.3259 25.2416 50.3104 25.3137 50.2803C25.3858 50.2503 25.4513 50.2063 25.5063 50.1508L27.8143 47.8428V56.5895C27.8143 56.7465 27.8766 56.897 27.9876 57.008C28.0986 57.119 28.2491 57.1813 28.4061 57.1813ZM48.4915 8.68975C48.3807 8.57953 48.2307 8.51767 48.0743 8.51767C47.918 8.51767 47.768 8.57953 47.6571 8.68975L38.9637 17.3832V14.1165C38.9637 13.9595 38.9013 13.809 38.7903 13.698C38.6794 13.5871 38.5288 13.5247 38.3719 13.5247C38.2149 13.5247 38.0644 13.5871 37.9534 13.698C37.8424 13.809 37.7801 13.9595 37.7801 14.1165V18.8153C37.7801 18.9723 37.8424 19.1228 37.9534 19.2338C38.0644 19.3448 38.2149 19.4071 38.3719 19.4071H43.0648C43.2218 19.4071 43.3723 19.3448 43.4833 19.2338C43.5942 19.1228 43.6566 18.9723 43.6566 18.8153C43.6566 18.6584 43.5942 18.5079 43.4833 18.3969C43.3723 18.2859 43.2218 18.2235 43.0648 18.2235H39.7981L48.4915 9.52418C48.6018 9.4133 48.6636 9.26331 48.6636 9.10697C48.6636 8.95063 48.6018 8.80063 48.4915 8.68975ZM18.4403 44.0257C18.5972 44.0257 18.7478 43.9634 18.8587 43.8524C18.9697 43.7414 19.0321 43.5909 19.0321 43.4339V38.7351C19.0321 38.5782 18.9697 38.4276 18.8587 38.3166C18.7478 38.2057 18.5972 38.1433 18.4403 38.1433H13.7533C13.5963 38.1433 13.4458 38.2057 13.3348 38.3166C13.2238 38.4276 13.1615 38.5782 13.1615 38.7351C13.1615 38.8921 13.2238 39.0426 13.3348 39.1536C13.4458 39.2645 13.5963 39.3269 13.7533 39.3269H17.0141L8.32061 48.0203C8.26544 48.0751 8.22159 48.1403 8.19158 48.212C8.16157 48.2837 8.14598 48.3607 8.14571 48.4384C8.14543 48.5162 8.16048 48.5932 8.18998 48.6652C8.21948 48.7371 8.26287 48.8025 8.31766 48.8577C8.42831 48.9692 8.5787 49.0321 8.73574 49.0326C8.8135 49.0329 8.89055 49.0179 8.96249 48.9884C9.03444 48.9589 9.09986 48.9155 9.15504 48.8607L17.8485 40.1672V43.4339C17.8485 43.5909 17.9108 43.7414 18.0218 43.8524C18.1328 43.9634 18.2833 44.0257 18.4403 44.0257ZM56.2204 28.1834H47.4737L49.7876 25.8754C49.899 25.764 49.9616 25.6129 49.9616 25.4553C49.9616 25.2977 49.899 25.1465 49.7876 25.0351C49.6761 24.9237 49.525 24.861 49.3674 24.861C49.2098 24.861 49.0587 24.9237 48.9472 25.0351L45.6273 28.355C45.5718 28.4101 45.5278 28.4755 45.4977 28.5476C45.4677 28.6197 45.4522 28.6971 45.4522 28.7752C45.4522 28.8533 45.4677 28.9307 45.4977 29.0028C45.5278 29.0749 45.5718 29.1404 45.6273 29.1954L48.9472 32.5154C49.0587 32.626 49.2095 32.6879 49.3665 32.6873C49.5236 32.6868 49.674 32.6238 49.7846 32.5124C49.8953 32.401 49.9571 32.2501 49.9566 32.0931C49.956 31.9361 49.8931 31.7857 49.7817 31.675L47.4737 29.367H56.2204C56.3773 29.367 56.5278 29.3047 56.6388 29.1937C56.7498 29.0827 56.8122 28.9322 56.8122 28.7752C56.8122 28.6183 56.7498 28.4677 56.6388 28.3568C56.5278 28.2458 56.3773 28.1834 56.2204 28.1834ZM0.591793 29.367H9.3385L7.02459 31.675C6.96912 31.73 6.92509 31.7955 6.89505 31.8676C6.865 31.9397 6.84954 32.0171 6.84954 32.0952C6.84954 32.1733 6.865 32.2507 6.89505 32.3228C6.92509 32.3949 6.96912 32.4603 7.02459 32.5154C7.07989 32.5702 7.14546 32.6136 7.21757 32.643C7.28967 32.6725 7.36688 32.6874 7.44476 32.687C7.52264 32.6874 7.59985 32.6725 7.67195 32.643C7.74406 32.6136 7.80964 32.5702 7.86493 32.5154L11.1849 29.1895C11.2951 29.0786 11.357 28.9286 11.357 28.7723C11.357 28.6159 11.2951 28.4659 11.1849 28.355L7.86493 25.0351C7.75405 24.9249 7.60406 24.863 7.44772 24.863C7.29138 24.863 7.14138 24.9249 7.0305 25.0351C6.97504 25.0901 6.93101 25.1556 6.90097 25.2277C6.87092 25.2998 6.85545 25.3771 6.85545 25.4553C6.85545 25.5334 6.87092 25.6107 6.90097 25.6829C6.93101 25.755 6.97504 25.8204 7.0305 25.8754L9.3385 28.1834H0.591793C0.43484 28.1834 0.284315 28.2458 0.173332 28.3568C0.0623496 28.4677 0 28.6183 0 28.7752C0 28.9322 0.0623496 29.0827 0.173332 29.1937C0.284315 29.3047 0.43484 29.367 0.591793 29.367ZM43.6566 38.741C43.6566 38.5841 43.5942 38.4335 43.4833 38.3226C43.3723 38.2116 43.2218 38.1492 43.0648 38.1492H38.366C38.209 38.1492 38.0585 38.2116 37.9475 38.3226C37.8365 38.4335 37.7742 38.5841 37.7742 38.741V43.428C37.7742 43.585 37.8365 43.7355 37.9475 43.8465C38.0585 43.9575 38.209 44.0198 38.366 44.0198C38.5229 44.0198 38.6734 43.9575 38.7844 43.8465C38.8954 43.7355 38.9578 43.585 38.9578 43.428V40.1672L47.6571 48.8607C47.7664 48.9722 47.9153 49.036 48.0714 49.0382C48.1889 49.0389 48.304 49.0046 48.402 48.9396C48.4999 48.8746 48.5763 48.7819 48.6214 48.6734C48.6664 48.5648 48.6782 48.4453 48.655 48.33C48.6319 48.2148 48.575 48.109 48.4915 48.0263L39.7981 39.3328H43.0648C43.2218 39.3328 43.3723 39.2705 43.4833 39.1595C43.5942 39.0485 43.6566 38.898 43.6566 38.741ZM13.1556 18.8094C13.1556 18.9664 13.2179 19.1169 13.3289 19.2279C13.4399 19.3389 13.5904 19.4012 13.7474 19.4012H18.4462C18.6032 19.4012 18.7537 19.3389 18.8647 19.2279C18.9756 19.1169 19.038 18.9664 19.038 18.8094V14.1165C19.038 13.9595 18.9756 13.809 18.8647 13.698C18.7537 13.5871 18.6032 13.5247 18.4462 13.5247C18.2892 13.5247 18.1387 13.5871 18.0277 13.698C17.9168 13.809 17.8544 13.9595 17.8544 14.1165V17.3832L9.16096 8.68975C9.10595 8.63429 9.04049 8.59026 8.96838 8.56022C8.89626 8.53017 8.81891 8.5147 8.74079 8.5147C8.66266 8.5147 8.58531 8.53017 8.5132 8.56022C8.44108 8.59026 8.37563 8.63429 8.32061 8.68975C8.21039 8.80063 8.14853 8.95063 8.14853 9.10697C8.14853 9.26331 8.21039 9.4133 8.32061 9.52418L17.0141 18.2176H13.7474C13.5904 18.2176 13.4399 18.28 13.3289 18.391C13.2179 18.5019 13.1556 18.6525 13.1556 18.8094ZM31.5012 27.7396C31.4626 27.7541 31.423 27.766 31.3828 27.7751C31.1182 27.8377 30.8427 27.8388 30.5776 27.7781C30.3125 27.7174 30.0649 27.5966 29.8539 27.425C29.6428 27.2535 29.4741 27.0357 29.3605 26.7886C29.247 26.5415 29.1918 26.2716 29.1991 25.9997C29.2001 25.8945 29.21 25.7896 29.2287 25.6861C29.2287 25.6565 29.2287 25.621 29.2287 25.5914C29.2287 25.5618 29.2287 25.5026 29.2287 25.4612C28.9595 25.3932 28.6836 25.3555 28.4061 25.3487C27.7286 25.3499 27.0667 25.5519 26.504 25.9291C25.9413 26.3063 25.5031 26.8419 25.2446 27.4681C24.9862 28.0943 24.9192 28.783 25.0521 29.4473C25.185 30.1116 25.5118 30.7216 25.9912 31.2002C26.4706 31.6788 27.0812 32.0046 27.7457 32.1363C28.4102 32.268 29.0989 32.1998 29.7246 31.9403C30.3504 31.6808 30.8852 31.2416 31.2614 30.6783C31.6377 30.1149 31.8385 29.4527 31.8385 28.7752C31.8393 28.405 31.7793 28.0371 31.6609 27.6863C31.6009 27.7076 31.5396 27.7254 31.4775 27.7396H31.5012ZM31.0218 26.6329C31.11 26.629 31.1965 26.6071 31.2759 26.5684C31.3553 26.5297 31.426 26.4751 31.4834 26.408C31.5899 26.2945 31.6473 26.1435 31.6432 25.9879C31.6447 25.8596 31.6077 25.7339 31.5368 25.627C31.466 25.5201 31.3646 25.437 31.2458 25.3885C31.1271 25.34 30.9966 25.3283 30.8711 25.355C30.7457 25.3817 30.6312 25.4455 30.5425 25.5381C30.4669 25.6207 30.4121 25.7201 30.3827 25.8281C30.3564 25.9205 30.3516 26.0177 30.3689 26.1122C30.3861 26.2067 30.4248 26.296 30.4819 26.3732C30.5391 26.4504 30.6133 26.5134 30.6987 26.5574C30.7841 26.6014 30.8784 26.6252 30.9745 26.627L31.0218 26.6329ZM43.9702 28.4083C44.0471 28.5107 44.0886 28.6353 44.0886 28.7634C44.0886 28.8914 44.0471 29.016 43.9702 29.1185C43.6862 29.4972 36.9516 38.4096 28.4298 38.4096C19.9079 38.4096 13.1437 29.4972 12.8597 29.1185C12.7828 29.016 12.7413 28.8914 12.7413 28.7634C12.7413 28.6353 12.7828 28.5107 12.8597 28.4083C13.1437 28.0296 19.8843 19.1408 28.4061 19.1408C36.9279 19.1408 43.6625 28.0296 43.9466 28.4083H43.9702ZM35.5845 28.7752C35.5857 27.3538 35.1652 25.9639 34.3762 24.7816C33.5872 23.5992 32.4653 22.6774 31.1522 22.1329C29.8392 21.5884 28.3942 21.4457 27 21.7227C25.6058 21.9997 24.3252 22.6841 23.32 23.6892C22.3149 24.6943 21.6306 25.975 21.3536 27.3692C21.0765 28.7633 21.2193 30.2084 21.7638 31.5214C22.3083 32.8344 23.2301 33.9564 24.4124 34.7454C25.5948 35.5343 26.9846 35.9548 28.4061 35.9537C30.3099 35.9537 32.1358 35.1974 33.482 33.8512C34.8282 32.5049 35.5845 30.6791 35.5845 28.7752ZM34.4009 28.7752C34.4033 29.9628 34.0532 31.1244 33.395 32.1129C32.7368 33.1014 31.8 33.8724 30.7034 34.3282C29.6068 34.784 28.3995 34.9042 27.2346 34.6735C26.0696 34.4429 24.9992 33.8717 24.1591 33.0323C23.3189 32.193 22.7467 31.1232 22.5148 29.9585C22.283 28.7937 22.402 27.5864 22.8567 26.4893C23.3115 25.3922 24.0815 24.4547 25.0694 23.7955C26.0572 23.1363 27.2185 22.7851 28.4061 22.7863C29.9945 22.7878 31.5175 23.4191 32.6413 24.5418C33.765 25.6644 34.3978 27.1868 34.4009 28.7752ZM32.6256 26.8696C32.7775 26.5913 32.8543 26.2782 32.8487 25.9611C32.843 25.644 32.755 25.3338 32.5932 25.0611C32.4315 24.7883 32.2015 24.5623 31.926 24.4052C31.6505 24.2481 31.3389 24.1654 31.0218 24.1651C30.6731 24.1696 30.3326 24.2722 30.0394 24.461C29.1212 24.1155 28.1166 24.0723 27.1721 24.3378C26.2276 24.6033 25.3926 25.1635 24.7889 25.9368C24.1851 26.7101 23.8441 27.656 23.8157 28.6367C23.7873 29.6174 24.0728 30.5815 24.6307 31.3885C25.1887 32.1955 25.9898 32.8032 26.9173 33.123C27.8448 33.4427 28.8502 33.4578 29.7869 33.1661C30.7236 32.8744 31.5427 32.2911 32.1246 31.5013C32.7066 30.7114 33.021 29.7563 33.0221 28.7752C33.0209 28.1172 32.8776 27.4672 32.6019 26.8696H32.6256Z" fill="white"/>
</svg>
