<svg width="45" height="50" viewBox="0 0 45 50" fill="none" xmlns="http://www.w3.org/2000/svg">
<path d="M11.9006 28.3982C11.9006 29.0244 11.388 29.5325 10.7563 29.5325C10.1247 29.5325 9.61204 29.0244 9.61204 28.3982C9.61204 27.7721 10.1247 27.2639 10.7563 27.2639C11.388 27.2639 11.9006 27.7721 11.9006 28.3982ZM14.1892 39.2876C14.1892 39.9138 14.7018 40.4219 15.3335 40.4219C15.9651 40.4219 16.4778 39.9138 16.4778 39.2876C16.4778 38.6615 15.9651 38.1533 15.3335 38.1533C14.7018 38.1533 14.1892 38.6615 14.1892 39.2876ZM10.7563 20.0043C10.1247 20.0043 9.61204 20.5125 9.61204 21.1386C9.61204 21.7648 10.1247 22.2729 10.7563 22.2729C11.388 22.2729 11.9006 21.7648 11.9006 21.1386C11.9006 20.5125 11.388 20.0043 10.7563 20.0043ZM14.6469 10.2492C14.6469 9.62309 14.1343 9.11492 13.5026 9.11492C12.871 9.11492 12.3583 9.62309 12.3583 10.2492C12.3583 10.8754 12.871 11.3835 13.5026 11.3835C14.1343 11.3835 14.6469 10.8754 14.6469 10.2492ZM14.1892 12.6358V15.0133H23.3435V7.07315C23.3435 3.44335 20.3684 0.494141 16.7066 0.494141C14.5645 0.494141 12.5872 1.50141 11.3331 3.21649C8.13819 3.16204 5.4926 5.72105 5.4926 8.88805C5.4926 9.04232 5.50175 9.19659 5.5109 9.35085C3.25894 10.4579 1.83087 12.7175 1.83087 15.2402C1.83087 16.2293 2.05972 17.2094 2.49913 18.0987C0.906278 19.596 0 21.6649 0 23.861C0 26.6287 1.44638 29.1696 3.79904 30.6124C3.7075 31.0934 3.66173 31.5652 3.66173 32.028C3.66173 34.7141 5.05319 37.2368 7.32346 38.6887V38.8339C7.32346 42.1279 9.79513 44.8957 13.0449 45.3403C13.7132 47.5182 15.7546 49.0427 18.0798 49.0427C20.9817 49.0427 23.3435 46.7015 23.3435 43.8249V34.5235H16.0201V36.901C17.0728 37.2005 17.8509 38.1533 17.8509 39.2876C17.8509 40.667 16.725 41.7831 15.3335 41.7831C13.942 41.7831 12.8161 40.667 12.8161 39.2876C12.8161 38.1533 13.5942 37.2005 14.6469 36.901V33.8429C14.6469 33.4709 14.9582 33.1623 15.3335 33.1623H23.3435V29.0788H13.1639C12.8618 30.1224 11.9006 30.8937 10.7563 30.8937C9.36487 30.8937 8.23889 29.7776 8.23889 28.3982C8.23889 27.0189 9.36487 25.9027 10.7563 25.9027C11.9006 25.9027 12.8618 26.6741 13.1639 27.7176H23.3435V21.8192H13.1639C12.8618 22.8628 11.9006 23.6341 10.7563 23.6341C9.36487 23.6341 8.23889 22.518 8.23889 21.1386C8.23889 19.7593 9.36487 18.6431 10.7563 18.6431C11.9006 18.6431 12.8618 19.4145 13.1639 20.458H23.3435V16.3745H13.5026C13.1273 16.3745 12.8161 16.066 12.8161 15.6939V12.6358C11.7633 12.3364 10.9852 11.3835 10.9852 10.2492C10.9852 8.8699 12.1112 7.75374 13.5026 7.75374C14.8941 7.75374 16.0201 8.8699 16.0201 10.2492C16.0201 11.3835 15.242 12.3364 14.1892 12.6358ZM32.4979 24.7684C32.4979 20.3764 29.0741 16.7647 24.735 16.4108V33.126C29.0741 32.7721 32.4979 29.1605 32.4979 24.7684ZM43.8218 20.0588C43.7485 19.7593 43.4739 19.5506 43.1535 19.5506H39.8122C39.6657 19.1604 39.5009 18.7611 39.3178 18.3709L41.6705 16.0388C41.8902 15.821 41.936 15.4852 41.7803 15.213C40.16 12.4634 37.8348 10.1676 35.0611 8.5523C34.7864 8.39803 34.4477 8.43433 34.228 8.66119L31.8754 10.9933C31.4817 10.8118 31.0789 10.6485 30.6853 10.5033V7.19112C30.6853 6.88259 30.4747 6.61035 30.1727 6.52868C28.6256 6.13848 27.0236 5.93884 25.4033 5.93884C25.211 5.93884 25.0371 6.02051 24.8998 6.15663C24.7624 6.29275 24.7075 6.48331 24.7167 6.6648C24.7167 6.80092 24.735 6.93704 24.735 7.07315V15.0496C29.8339 15.4126 33.871 19.6232 33.871 24.7684C33.871 29.9137 29.8339 34.1242 24.735 34.4872V42.9174C24.735 43.2895 25.0462 43.598 25.4216 43.598C27.0236 43.598 28.6164 43.3984 30.1727 43.0082C30.4747 42.9356 30.6853 42.6633 30.6853 42.3457V39.0335C31.0789 38.8884 31.4817 38.725 31.8754 38.5435L34.228 40.8757C34.4477 41.0935 34.7864 41.1388 35.0611 40.9846C37.8348 39.3784 40.1509 37.0734 41.7803 34.3239C41.936 34.0607 41.8902 33.7159 41.6705 33.4981L39.3178 31.166C39.5009 30.7757 39.6657 30.3765 39.8122 29.9863H43.1535C43.4647 29.9863 43.7394 29.7776 43.8218 29.4781C44.2154 27.9445 44.4168 26.3565 44.4168 24.7684C44.4168 23.1804 44.2154 21.5924 43.8218 20.0588Z" fill="white"/>
</svg>
