<svg width="42" height="42" viewBox="0 0 42 42" fill="none" xmlns="http://www.w3.org/2000/svg">
<path fill-rule="evenodd" clip-rule="evenodd" d="M0 11.2333C0 5.02866 5.02866 0 11.2333 0H30.7667C36.9713 0 42 5.02866 42 11.2333V30.7667C42 36.9713 36.9713 42 30.7667 42H11.2333C5.02866 42 0 36.9713 0 30.7667L0 11.2333ZM11.2333 2.92992C6.64776 2.92992 2.92992 6.64759 2.92992 11.2333V30.7667C2.92992 35.3522 6.64759 39.0701 11.2333 39.0701H30.7667C35.3522 39.0701 39.0701 35.3524 39.0701 30.7667V22.465H25.4743L22.6753 23.9022C21.3153 24.6027 20.2078 25.7101 19.5073 27.0702L17.6911 30.6074C17.2367 31.4917 15.9734 31.4917 15.5189 30.6074L13.7011 27.0702C13.0022 25.7101 11.8948 24.6027 10.5347 23.9022L6.99749 22.086C6.11318 21.6316 6.11318 20.3683 6.99749 19.9138L10.5347 18.0976C11.8948 17.3971 13.0022 16.2897 13.7011 14.9296L15.5189 11.3924C15.9734 10.5081 17.2366 10.5081 17.6911 11.3924L19.5073 14.9296C20.2078 16.2897 21.3153 17.3971 22.6753 18.0976L25.4743 19.5348H39.0701V11.2331C39.0701 6.64755 35.3524 2.92971 30.7667 2.92971L11.2333 2.92992ZM22.465 10.744C22.465 9.93518 23.1212 9.27893 23.93 9.27893H33.6984C34.5072 9.27893 35.1635 9.93518 35.1635 10.744C35.1635 11.5529 34.5072 12.2091 33.6984 12.2091H23.93C23.1212 12.2091 22.465 11.5529 22.465 10.744ZM23.93 29.7902C23.1212 29.7902 22.465 30.4464 22.465 31.2553C22.465 32.0641 23.1212 32.7204 23.93 32.7204H33.6984C34.5072 32.7204 35.1635 32.0641 35.1635 31.2553C35.1635 30.4464 34.5072 29.7902 33.6984 29.7902H23.93Z" fill="#2E3092"/>
</svg>
