<svg width="46" height="40" viewBox="0 0 46 40" fill="none" xmlns="http://www.w3.org/2000/svg">
<path fill-rule="evenodd" clipRule="evenodd" d="M8.09024 29.3099L7.67604 31.7353C7.65878 31.8308 7.63193 31.911 7.58399 31.9969L5.02012 36.5573H3.21755L5.10642 31.9568C5.11984 31.9224 5.13135 31.8937 5.13902 31.8594L6.06139 28.4219L8.09024 29.3099ZM17.3753 20.4796V18.0619L14.8882 19.4942C14.7271 19.5878 14.5602 19.6241 14.3761 19.5974L8.5407 18.759C8.11691 18.6979 7.7334 18.9882 7.63556 19.4045L5.95763 26.6576C5.86942 27.0358 6.07269 27.412 6.43128 27.5686L10.2454 29.2377C10.5235 29.3599 10.698 29.6025 10.7306 29.9023L11.4612 36.5575H13.1372L13.1468 29.0771C13.1468 28.8956 13.095 28.739 12.9876 28.5939L11.3481 26.3672C11.2119 26.1819 11.1506 25.968 11.2023 25.7427L11.9099 22.6127C11.9924 22.2498 12.2666 21.9882 12.6386 21.9424L15.8238 21.5509C15.9887 21.5299 16.1287 21.4783 16.2591 21.3752L17.3753 20.4796ZM11.4019 12.9322C12.9398 12.9322 14.1863 14.1735 14.1863 15.7051C14.1863 17.2367 12.9398 18.478 11.4019 18.478C9.86399 18.478 8.61753 17.2367 8.61753 15.7051C8.61753 14.1735 9.86399 12.9322 11.4019 12.9322ZM17.1588 25.1412H22.0526V36.5577H17.1588V25.1412ZM27.2224 20.7278H32.1162V36.5576H27.2224V20.7278ZM37.2861 16.3126H42.1799V36.5575H37.2861V16.3126ZM18.3075 21.0869C25.2033 20.3727 33.3205 16.2534 39.6429 8.68328L41.2039 10.0621L41.8022 4.55427L36.383 5.80324L37.9517 7.18968C32.8948 12.9683 25.1689 16.1271 18.3074 16.6829L18.3075 21.0869ZM16.9556 9.50462C16.7121 9.05774 16.5126 8.58223 16.365 8.08571C17.0438 7.78398 17.5213 7.10031 17.5213 6.30587C17.5213 5.51142 17.0439 4.82776 16.365 4.52411C16.5127 4.02569 16.7121 3.55015 16.9556 3.10521C17.6498 3.36875 18.4724 3.2217 19.0362 2.66024C19.6 2.0988 19.7496 1.27952 19.483 0.588182C19.9298 0.345649 20.4092 0.147038 20.9078 0C21.2108 0.676036 21.8973 1.15158 22.6969 1.15158C23.4947 1.15158 24.1811 0.676055 24.4841 0C24.9846 0.147048 25.4621 0.345659 25.9089 0.588182C25.6443 1.27952 25.7919 2.09875 26.3557 2.66024C26.9195 3.22168 27.7421 3.37064 28.4363 3.10521C28.6799 3.55208 28.8793 4.02759 29.0269 4.52411C28.3481 4.82585 27.8706 5.50951 27.8706 6.30587C27.8706 7.10031 28.3481 7.78397 29.0269 8.08571C28.8793 8.58414 28.6798 9.05968 28.4363 9.50462C27.7421 9.24108 26.9195 9.38812 26.3557 9.94958C25.7919 10.511 25.6443 11.3303 25.9089 12.0216C25.4602 12.2642 24.9827 12.4628 24.4841 12.6098C24.1811 11.9338 23.4947 11.4582 22.6969 11.4582C21.8992 11.4582 21.2127 11.9338 20.9097 12.6098C20.4092 12.4628 19.9317 12.2642 19.485 12.0216C19.7496 11.3303 19.6019 10.5111 19.0381 9.94958C18.4725 9.38814 17.6498 9.24109 16.9556 9.50462ZM22.6968 2.58782C23.7131 2.58782 24.6355 2.9984 25.3009 3.66298C25.9683 4.32758 26.3805 5.24424 26.3805 6.25639C26.3805 7.26854 25.9682 8.18711 25.3009 8.8498C24.6336 9.51439 23.7131 9.92496 22.6968 9.92496C20.6622 9.92496 19.0131 8.28259 19.0131 6.25639C19.0131 5.24424 19.4254 4.32567 20.0927 3.66298C20.7581 3.00029 21.6805 2.58782 22.6968 2.58782ZM24.3786 4.58155C24.81 5.01124 25.0747 5.60323 25.0747 6.25639C25.0747 6.9114 24.8081 7.50345 24.3786 7.93122C23.9471 8.36091 23.3527 8.62447 22.6968 8.62447C21.3832 8.62447 20.317 7.56456 20.317 6.25448C20.317 5.59947 20.5836 5.00742 21.0131 4.57965C21.4446 4.14996 22.039 3.8864 22.6949 3.8864C23.3546 3.88831 23.949 4.15377 24.3786 4.58155ZM2.33183 39.1494C1.97131 39.1494 1.67985 38.8591 1.67985 38.5001C1.67985 38.1411 1.97133 37.8508 2.33183 37.8508H45.198C45.5585 37.8508 45.85 38.1411 45.85 38.5001C45.85 38.8592 45.5585 39.1494 45.198 39.1494H2.33183ZM5.45754 19.9605C5.71451 19.9605 5.92353 20.1687 5.92353 20.4246C5.92353 20.6805 5.71451 20.8887 5.45754 20.8887H3.53416C3.2772 20.8887 3.06818 20.6805 3.06818 20.4246C3.06818 20.1687 3.2772 19.9605 3.53416 19.9605H5.45754ZM4.8094 22.2503C5.06636 22.2503 5.27538 22.4585 5.27538 22.7144C5.27538 22.9703 5.06636 23.1784 4.8094 23.1784H0.465981C0.209019 23.1784 0 22.9703 0 22.7144C0 22.4585 0.209019 22.2503 0.465981 22.2503H4.8094ZM3.92345 24.542C4.18042 24.542 4.38943 24.7501 4.38943 25.006C4.38943 25.2619 4.18042 25.4701 3.92345 25.4701L1.86203 25.4682C1.60507 25.4682 1.39605 25.26 1.39605 25.0041C1.39605 24.7482 1.60507 24.5401 1.86203 24.5401L3.92345 24.542Z" fill="#2E3092"/>
</svg>
