<svg width="41" height="50" viewBox="0 0 41 50" fill="none" xmlns="http://www.w3.org/2000/svg">
<path fillRule="evenodd" clipRule="evenodd" d="M20.7283 49.3512L40.4596 39.4102C40.5264 39.3737 40.5669 39.3048 40.5669 39.2299C40.5669 39.1549 40.5264 39.0841 40.4596 39.0476L33.4538 35.5213L21.3657 41.6139C20.8212 41.8954 20.1775 41.8954 19.633 41.6139L7.54482 35.5213L0.543142 39.0476C0.47837 39.0841 0.437889 39.155 0.437889 39.2299C0.437889 39.3048 0.478372 39.3737 0.543142 39.4102L20.2703 49.3512C20.414 49.4221 20.5846 49.4221 20.7283 49.3512ZM22.801 4.89446C23.4528 5.07878 24.0803 5.34007 24.6713 5.67224C24.8657 5.78566 25.1106 5.77351 25.2928 5.63983L26.3291 4.92485C26.5639 4.76281 26.8797 4.79117 27.0801 4.99169L28.6346 6.54724C28.835 6.74979 28.8633 7.06576 28.7014 7.29868L27.9869 8.33572C27.8533 8.51801 27.8411 8.76309 27.9565 8.95955C28.2885 9.54895 28.5496 10.1769 28.7338 10.8311C28.7905 11.0498 28.9727 11.2139 29.1953 11.2504L30.428 11.4732C30.677 11.542 30.8551 11.7648 30.8632 12.0241V14.1873V14.1853C30.8551 14.4567 30.6608 14.6856 30.3976 14.7402L29.1649 14.963H29.1629C28.9423 15.0015 28.7621 15.1656 28.7014 15.3823C28.5213 16.0365 28.2601 16.6644 27.9241 17.2559C27.8108 17.4503 27.8229 17.6954 27.9565 17.8777L28.671 18.9147C28.833 19.1456 28.8046 19.4616 28.6042 19.6601L27.0497 21.1893V21.1913C26.8493 21.3959 26.5315 21.4243 26.2988 21.2582L25.2624 20.5432C25.0782 20.4136 24.8353 20.4014 24.639 20.5108C24.0499 20.845 23.4224 21.1062 22.7686 21.2886C22.55 21.3473 22.3861 21.5276 22.3496 21.7504L22.127 22.9839C22.0784 23.2674 21.8315 23.472 21.546 23.4659H19.4227C19.1353 23.472 18.8904 23.2674 18.8418 22.9839L18.6191 21.7504C18.5806 21.5276 18.4167 21.3473 18.1981 21.2886C17.5564 21.1123 16.937 20.8592 16.3541 20.5331C16.1577 20.4217 15.9169 20.4338 15.7327 20.5635L14.6963 21.2784C14.4635 21.4445 14.1437 21.4162 13.9454 21.2116L12.3908 19.6824C12.1884 19.4819 12.1601 19.1679 12.322 18.935L13.0365 17.898H13.0385C13.1721 17.7157 13.1843 17.4706 13.0689 17.2761C12.7349 16.6867 12.4738 16.0568 12.2916 15.4046C12.2329 15.1859 12.0528 15.0218 11.8301 14.9833L10.6015 14.7403C10.3383 14.6856 10.144 14.4567 10.1359 14.1853V12.0241C10.1359 11.7385 10.3383 11.4955 10.6177 11.4428L11.8504 11.22C12.073 11.1815 12.2552 11.0174 12.3119 10.7987C12.4961 10.1465 12.7572 9.51857 13.0891 8.92715C13.2045 8.7327 13.1924 8.48762 13.0588 8.30534L12.3443 7.2683C12.1823 7.03335 12.2107 6.71738 12.4111 6.51687L13.9656 4.96131C14.166 4.76079 14.4818 4.73243 14.7165 4.89447L15.7529 5.60945C15.9351 5.74313 16.18 5.75529 16.3743 5.63983C16.9532 5.32184 17.5645 5.06864 18.1981 4.8884C18.4167 4.82966 18.5806 4.64939 18.6191 4.4266L18.8417 3.19309C18.8923 2.91155 19.1373 2.70901 19.4227 2.71103H21.5784H21.5764C21.8618 2.709 22.1067 2.91155 22.1573 3.19309L22.38 4.4266C22.4184 4.6494 22.5824 4.82966 22.801 4.8884L22.801 4.89446ZM20.4996 8.68815C18.7123 8.68612 17.101 9.76164 16.4169 11.4144C15.7327 13.0652 16.1092 14.9671 17.3723 16.231C18.6354 17.4949 20.5361 17.8716 22.1857 17.187C23.8374 16.5024 24.9123 14.8902 24.9102 13.1017C24.9102 10.6651 22.9346 8.68815 20.4996 8.68815ZM35.9419 21.6511C35.1829 21.6531 34.5007 22.1109 34.2113 22.8137H31.1994L29.3452 20.9625L28.3392 21.9691L30.412 24.0432C30.5516 24.1769 30.7379 24.2518 30.9302 24.2498H34.2315C34.4967 24.8858 35.0918 25.3253 35.778 25.3921C36.4642 25.459 37.1301 25.143 37.5127 24.5698C37.8973 23.9946 37.9337 23.2573 37.6079 22.6477C37.284 22.04 36.6524 21.6593 35.9622 21.6572L35.9419 21.6511ZM12.66 21.957L11.654 20.9624L9.79989 22.8238H6.78796C6.44993 21.9974 5.57344 21.5255 4.69497 21.6976C3.81852 21.8698 3.18696 22.6395 3.18696 23.5348C3.18696 24.428 3.81852 25.1976 4.69497 25.3698C5.57344 25.544 6.4499 25.0721 6.78796 24.2437H10.0893C10.2816 24.2477 10.4699 24.1728 10.6075 24.0371L12.6803 21.963L12.66 21.957ZM8.70078 13.8167H3.96428C3.62423 14.6452 2.74775 15.1171 1.87129 14.9429C0.994841 14.7707 0.363281 14.0011 0.363281 13.1078C0.363281 12.2125 0.994841 11.4429 1.87129 11.2707C2.74775 11.0985 3.6242 11.5684 3.96428 12.3969H8.70078V13.8167ZM11.654 5.26118L12.66 4.26059L10.5873 2.18652C10.4496 2.04879 10.2634 1.97384 10.0691 1.97992H6.78796C6.44993 1.14744 5.57142 0.673513 4.69093 0.845661C3.81043 1.01782 3.17483 1.78952 3.17483 2.68682C3.17483 3.58411 3.81043 4.35785 4.69093 4.52999C5.57142 4.70216 6.4499 4.22617 6.78796 3.39574H9.79787L11.652 5.25711L11.654 5.26118ZM28.3389 4.26059L29.3449 5.26118L31.199 3.3998H34.211C34.549 4.22824 35.4255 4.70216 36.3019 4.53001C37.1804 4.35785 37.812 3.58818 37.812 2.6929C37.812 1.79763 37.1804 1.02799 36.3019 0.855793C35.4255 0.683629 34.549 1.15556 34.211 1.98399H30.9096C30.7153 1.97993 30.529 2.05488 30.3914 2.19261L28.3187 4.26668L28.3389 4.26059ZM32.2982 12.3967H37.0346C37.3747 11.5682 38.2512 11.0983 39.1276 11.2705C40.0041 11.4427 40.6357 12.2123 40.6357 13.1076C40.6357 14.0009 40.0041 14.7705 39.1276 14.9427C38.2512 15.1169 37.3747 14.645 37.0346 13.8165H32.2982V12.3906V12.3967ZM20.6349 31.3957L30.3446 26.5103C30.379 26.492 30.4013 26.4576 30.4013 26.4171C30.4033 26.3786 30.379 26.3442 30.3446 26.33L23.6082 22.9373L23.5516 23.2594C23.3815 24.2175 22.5476 24.9122 21.576 24.9081H19.4223C18.4507 24.9122 17.6168 24.2175 17.4468 23.2594L17.3901 22.9373L10.6537 26.33C10.6193 26.3442 10.595 26.3786 10.597 26.4171C10.597 26.4576 10.6193 26.492 10.6537 26.5103L20.3593 31.3957C20.4423 31.4423 20.5455 31.4423 20.6285 31.3957H20.6349ZM20.728 40.3505C20.5843 40.4214 20.4143 40.4214 20.2706 40.3505L5.69049 33.0021C5.62167 32.9697 5.57916 32.9008 5.58119 32.8259C5.57714 32.7489 5.61964 32.678 5.69049 32.6456L12.6859 29.1193L19.728 32.6658C20.2159 32.9129 20.7927 32.9129 21.2826 32.6658L28.3247 29.1193L35.3201 32.6456C35.389 32.678 35.4315 32.7489 35.4274 32.8259C35.4294 32.9008 35.3869 32.9697 35.3201 33.0021L20.728 40.3505Z" fill="#2E3092"/>
</svg>
