<svg width="41" height="42" viewBox="0 0 41 42" fill="none" xmlns="http://www.w3.org/2000/svg">
<path d="M17.4971 24.4709L7.7082 18.7748C6.39723 18.0127 5.67561 16.653 5.67561 15.1192V12.2567C5.57738 11.4695 4.40429 11.4134 4.21351 12.1793C3.99438 13.6628 3.69215 15.1289 3.47303 16.6124C3.28413 17.9006 3.74316 19.121 4.77458 19.9004L18.0734 29.9658C19.3636 30.9406 21.7344 30.9406 23.0225 29.9658L36.3214 19.9004C37.3528 19.121 37.8099 17.9024 37.6229 16.6124C37.4038 15.1289 37.1016 13.6628 36.8824 12.1793C36.6898 11.4056 35.5167 11.4772 35.4203 12.2567V15.1192C35.4203 16.6511 34.6987 18.0127 33.3877 18.7748L23.5988 24.4709C21.4585 25.7146 19.6354 25.7146 17.4971 24.4709ZM30.1629 25.5231L26.2621 28.4727C25.9636 31.4629 23.5003 33.7935 20.5044 33.7935C17.4782 33.7935 14.9996 31.4261 14.7371 28.4009L10.8721 25.4725C10.6832 25.8168 10.3507 26.045 9.95779 26.0973L7.85909 26.3642C7.61918 26.3951 7.44538 26.5963 7.44538 26.8439L7.44916 30.4124C7.41705 30.4124 7.48317 30.8418 7.86097 30.8921L9.74056 31.1319C10.2279 31.1938 10.619 31.5303 10.7644 32.0119C10.9004 32.4781 11.078 32.948 11.282 33.389C11.4823 33.8261 11.4294 34.3097 11.1384 34.6907L9.99557 36.1839C9.852 36.3754 9.86333 36.6481 10.0371 36.8222L12.5042 39.3443C12.6742 39.5223 12.9406 39.5358 13.1276 39.3869L14.4613 38.3231C14.8467 38.0175 15.3491 37.9692 15.7836 38.1993C16.2521 38.4508 16.7584 38.6713 17.259 38.8434C17.7161 39.0001 18.0297 39.3927 18.0882 39.8801L18.2942 41.5784C18.3244 41.8221 18.5208 42 18.7626 42H22.2479C22.4878 42 22.6843 41.8221 22.7126 41.5784L22.9185 39.8801C22.979 39.3927 23.2906 39.0001 23.7478 38.8434C24.2484 38.6693 24.7565 38.4527 25.225 38.1993C25.6557 37.9692 26.1582 38.0156 26.5436 38.3231L27.8791 39.3869C28.0661 39.5378 28.3287 39.5242 28.5006 39.3443L30.9677 36.8222C31.1378 36.6481 31.1548 36.3754 31.0093 36.1839L29.874 34.6907C29.5849 34.3097 29.5302 33.8242 29.7304 33.389C29.9344 32.948 30.112 32.48 30.2499 32.0119C30.3934 31.5284 30.7826 31.1957 31.27 31.1319L33.1496 30.8921C33.5274 30.8418 33.5954 30.4124 33.5614 30.4124L33.5652 26.8439C33.5652 26.5982 33.3914 26.3932 33.1515 26.3642L31.0527 26.0973C30.6749 26.0489 30.3556 25.8384 30.1629 25.5231ZM24.1499 23.2601L29.7243 20.0185L28.2037 18.4615C28.0336 18.2874 27.7673 18.2719 27.5803 18.4189L26.2976 19.4402C25.9198 19.7419 25.4324 19.7941 25.0055 19.5775C24.4312 19.2893 23.9439 19.0901 23.3299 18.916C22.8482 18.7787 22.5271 18.3764 22.444 17.8774L22.2098 16.5118C22.1682 16.2662 21.9906 16.0728 21.7413 16.0728H19.2666C19.0154 16.0728 18.8378 16.2643 18.7944 16.5118L18.5639 17.8774C18.477 18.3764 18.1578 18.7787 17.6761 18.916C17.064 19.0901 16.5767 19.2874 16.0024 19.5775C15.5717 19.7941 15.0843 19.7419 14.7065 19.4402L13.4239 18.4189C13.2369 18.2719 12.9705 18.2835 12.8005 18.4615L11.3157 19.9856L16.892 23.2311C19.0153 21.4962 22.04 21.5097 24.1499 23.2601ZM39.5171 0.0348147H33.831C33.0168 0.0348147 32.3481 0.717571 32.3481 1.55313V7.40576C32.3481 8.23939 33.0168 8.92214 33.831 8.92214H39.5171C40.3313 8.92214 41 8.23939 41 7.40576V1.55313C41 0.71564 40.3313 0.0348147 39.5171 0.0348147ZM23.9115 0.0348147H17.0919C16.0755 0.0348147 15.2406 0.889734 15.2406 1.93221V8.94744C15.2406 9.98804 16.0737 10.8448 17.0919 10.8448H23.9115C24.9278 10.8448 25.7646 9.98993 25.7646 8.94744L25.7628 1.93023C25.7628 0.889635 24.9278 0.0348147 23.9115 0.0348147ZM7.169 0H1.48289C0.668714 0 0 0.682757 0 1.51638V7.37297C0 8.2066 0.668714 8.88936 1.48289 8.88936H7.169C7.98318 8.88936 8.65189 8.2066 8.65189 7.37297V1.51638C8.65189 0.684688 7.98318 0 7.169 0ZM20.8799 4.05594V9.60108C20.8799 10.1117 20.1242 10.1117 20.1242 9.60108L20.1261 4.05594L16.4538 1.96122C16.0193 1.71171 16.3858 1.04055 16.8203 1.28812L20.5039 3.38863L24.1838 1.28812C24.6183 1.04249 24.9847 1.71171 24.5503 1.96122L20.8799 4.05594ZM37.0517 3.26291V7.69987C37.0517 8.21046 36.2961 8.21046 36.2961 7.69987V3.26291L33.3681 1.5918C32.9336 1.34616 33.3001 0.671121 33.7346 0.918694L36.6739 2.59754L39.6133 0.918694C40.0477 0.673057 40.4142 1.34614 39.9797 1.5918L37.0517 3.26291ZM4.70363 3.26291V7.69987C4.70363 8.21046 3.94802 8.21046 3.94802 7.69987L3.9499 3.26291L1.02 1.58986C0.58552 1.34423 0.951997 0.66919 1.38647 0.916763L4.32581 2.59561L7.26514 0.916763C7.69962 0.671126 8.06607 1.34421 7.63162 1.58986L4.70363 3.26291Z" fill="#2E3092"/>
</svg>
