<svg width="47" height="47" viewBox="0 0 47 47" fill="none" xmlns="http://www.w3.org/2000/svg">
<path d="M41.6421 24.2834C41.9867 25.4113 43.0207 26.2416 44.2584 26.2416C45.7702 26.2416 47 25.0118 47 23.5C47 21.9882 45.7702 20.7584 44.2584 20.7584C43.0207 20.7584 41.9868 21.5887 41.6421 22.7166H35.9941C35.9236 21.6278 35.7278 20.5782 35.3988 19.5834H39.1666C39.3781 19.5834 39.5739 19.4972 39.7227 19.3562L42.0727 16.9984C42.386 17.1473 42.7229 17.2334 43.0832 17.2334C44.3756 17.2334 45.4331 16.1759 45.4331 14.8835C45.4331 13.591 44.3756 12.5335 43.0832 12.5335C41.7907 12.5335 40.7332 13.591 40.7332 14.8835C40.7332 15.2438 40.8194 15.5806 40.9682 15.8939L38.8454 18.0167H34.7565C33.5267 15.5101 31.4901 13.4735 28.9833 12.2435V8.1546L31.1061 6.0318C31.4194 6.18063 31.7562 6.26679 32.1165 6.26679C33.409 6.26679 34.4665 5.2093 34.4665 3.91684C34.4665 2.62438 33.409 1.56689 32.1165 1.56689C30.8241 1.56689 29.7666 2.62438 29.7666 3.91684C29.7666 4.27717 29.8527 4.61398 30.0016 4.92731L27.6438 7.27726C27.5028 7.4261 27.4166 7.62192 27.4166 7.83343V11.6012C26.4218 11.2722 25.3722 11.0763 24.2834 11.0059V5.35795C25.4113 5.01329 26.2416 3.97931 26.2416 2.74164C26.2416 1.22985 25.0118 0 23.5 0C21.9882 0 20.7584 1.2298 20.7584 2.74164C20.7584 3.97931 21.5887 5.01324 22.7166 5.35795V11.0059C21.6278 11.0764 20.5782 11.2722 19.5834 11.6012V7.83343C19.5834 7.62193 19.4972 7.42611 19.3562 7.27726L16.9984 4.92731C17.1473 4.61398 17.2334 4.27714 17.2334 3.91684C17.2334 2.62438 16.1759 1.56689 14.8835 1.56689C13.591 1.56689 12.5335 2.62438 12.5335 3.91684C12.5335 5.2093 13.591 6.26679 14.8835 6.26679C15.2438 6.26679 15.5806 6.18063 15.8939 6.0318L18.0167 8.1546V12.2435C15.5101 13.4733 13.4735 15.5099 12.2435 18.0167H8.1546L6.0318 15.8939C6.18063 15.5806 6.26679 15.2438 6.26679 14.8835C6.26679 13.591 5.2093 12.5335 3.91684 12.5335C2.62438 12.5335 1.56689 13.591 1.56689 14.8835C1.56689 16.1759 2.62438 17.2334 3.91684 17.2334C4.27717 17.2334 4.61398 17.1473 4.92731 16.9984L7.27726 19.3562C7.42609 19.4972 7.62192 19.5834 7.83343 19.5834H11.6012C11.2722 20.5782 11.0763 21.6278 11.0059 22.7166H5.35794C5.01328 21.5887 3.97931 20.7584 2.74164 20.7584C1.22985 20.7584 0 21.9882 0 23.5C0 25.0118 1.2298 26.2416 2.74164 26.2416C3.97931 26.2416 5.01323 25.4113 5.35794 24.2834H11.0059C11.0764 25.3722 11.2722 26.4218 11.6012 27.4166H7.83343C7.62193 27.4166 7.4261 27.5028 7.27726 27.6438L4.92731 30.0016C4.61398 29.8527 4.27714 29.7666 3.91684 29.7666C2.62438 29.7666 1.56689 30.8241 1.56689 32.1165C1.56689 33.409 2.62438 34.4665 3.91684 34.4665C5.2093 34.4665 6.26679 33.409 6.26679 32.1165C6.26679 31.7562 6.18063 31.4194 6.0318 31.1061L8.1546 28.9833H12.2435C13.4733 31.4899 15.5099 33.5265 18.0167 34.7565V38.8454L15.8939 40.9682C15.5806 40.8194 15.2438 40.7332 14.8835 40.7332C13.591 40.7332 12.5335 41.7907 12.5335 43.0832C12.5335 44.3756 13.591 45.4331 14.8835 45.4331C16.1759 45.4331 17.2334 44.3756 17.2334 43.0832C17.2334 42.7228 17.1473 42.386 16.9984 42.0727L19.3562 39.7227C19.4972 39.5739 19.5834 39.3781 19.5834 39.1666V35.3988C20.5782 35.7278 21.6278 35.9237 22.7166 35.9941V41.6421C21.5887 41.9867 20.7584 43.0207 20.7584 44.2584C20.7584 45.7702 21.9882 47 23.5 47C25.0118 47 26.2416 45.7702 26.2416 44.2584C26.2416 43.0207 25.4113 41.9868 24.2834 41.6421V35.9941C25.3722 35.9236 26.4218 35.7278 27.4166 35.3988V39.1666C27.4166 39.3781 27.5028 39.5739 27.6438 39.7227L30.0016 42.0727C29.8527 42.386 29.7666 42.7229 29.7666 43.0832C29.7666 44.3756 30.8241 45.4331 32.1165 45.4331C33.409 45.4331 34.4665 44.3756 34.4665 43.0832C34.4665 41.7907 33.409 40.7332 32.1165 40.7332C31.7562 40.7332 31.4194 40.8194 31.1061 40.9682L28.9833 38.8454V34.7565C31.4899 33.5267 33.5265 31.4901 34.7565 28.9833H38.8454L40.9682 31.1061C40.8194 31.4194 40.7332 31.7562 40.7332 32.1165C40.7332 33.409 41.7907 34.4665 43.0832 34.4665C44.3756 34.4665 45.4331 33.409 45.4331 32.1165C45.4331 30.8241 44.3756 29.7666 43.0832 29.7666C42.7228 29.7666 42.386 29.8527 42.0727 30.0016L39.7227 27.6438C39.5739 27.5028 39.3781 27.4166 39.1666 27.4166H35.3988C35.7278 26.4218 35.9237 25.3722 35.9941 24.2834H41.6421ZM43.0834 14.1005C43.5142 14.1005 43.8667 14.453 43.8667 14.8838C43.8667 15.3146 43.5142 15.6671 43.0834 15.6671C42.8719 15.6671 42.676 15.581 42.535 15.44H42.5272C42.3862 15.2911 42.3 15.0953 42.3 14.8838C42.3 14.453 42.6525 14.1005 43.0834 14.1005ZM32.1169 3.13403C32.5477 3.13403 32.9002 3.48652 32.9002 3.91735C32.9002 4.34818 32.5477 4.70067 32.1169 4.70067C31.9054 4.70067 31.7096 4.6145 31.5686 4.47351H31.5607C31.4197 4.32468 31.3336 4.12885 31.3336 3.91734C31.3336 3.48651 31.6861 3.13403 32.1169 3.13403ZM15.4399 4.46565H15.432C15.291 4.61448 15.0952 4.70065 14.8837 4.70065C14.4529 4.70065 14.1004 4.34815 14.1004 3.91733C14.1004 3.4865 14.4529 3.13401 14.8837 3.13401C15.3145 3.13401 15.667 3.4865 15.667 3.91733C15.667 4.12883 15.5809 4.32463 15.4399 4.46565ZM4.47343 15.4321H4.4656C4.3246 15.5809 4.12877 15.6671 3.91725 15.6671C3.48642 15.6671 3.13393 15.3146 3.13393 14.8838C3.13393 14.453 3.48642 14.1005 3.91725 14.1005C4.34808 14.1005 4.70057 14.453 4.70057 14.8838C4.70057 15.0953 4.61442 15.2911 4.47343 15.4321ZM3.91726 32.9002C3.48643 32.9002 3.13394 32.5477 3.13394 32.1169C3.13394 31.6861 3.48643 31.3336 3.91726 31.3336C4.12876 31.3336 4.32459 31.4198 4.46561 31.5607H4.47344C4.61444 31.7096 4.7006 31.9054 4.7006 32.1169C4.7006 32.5477 4.34809 32.9002 3.91726 32.9002ZM14.8837 43.8667C14.4529 43.8667 14.1004 43.5142 14.1004 43.0834C14.1004 42.6525 14.4529 42.3 14.8837 42.3C15.0952 42.3 15.291 42.3862 15.4321 42.5272H15.4399C15.5809 42.676 15.6671 42.8719 15.6671 43.0834C15.6671 43.5142 15.3145 43.8667 14.8837 43.8667ZM31.5607 42.5351H31.5686C31.7096 42.3862 31.9054 42.3001 32.1169 42.3001C32.5477 42.3001 32.9002 42.6525 32.9002 43.0834C32.9002 43.5142 32.5477 43.8667 32.1169 43.8667C31.6861 43.8667 31.3336 43.5142 31.3336 43.0834C31.3336 42.8719 31.4197 42.6761 31.5607 42.5351ZM18.0641 19.584L23.5005 16.5604L28.9368 19.584L23.5005 22.6075L18.0641 19.584ZM22.717 23.9627V30.0022L17.2335 26.9551V20.9156L22.717 23.9627ZM24.2836 23.9627L29.7671 20.9156V26.9551L24.2836 30.0022V23.9627ZM42.5273 31.5688H42.5351C42.6761 31.42 42.872 31.3338 43.0835 31.3338C43.5143 31.3338 43.8668 31.6863 43.8668 32.1171C43.8668 32.548 43.5143 32.9004 43.0835 32.9004C42.6526 32.9004 42.3002 32.548 42.3002 32.1171C42.3002 31.9056 42.3863 31.7098 42.5273 31.5688Z" fill="#2E3092"/>
</svg>
