<svg width="48" height="48" viewBox="0 0 48 48" fill="none" xmlns="http://www.w3.org/2000/svg">
<path fill-rule="evenodd" clip-rule="evenodd" d="M36.3328 15.7883C34.3938 15.7883 32.8164 14.2234 32.8164 12.2996C32.8164 10.3758 34.3938 8.81086 36.3328 8.81086C38.2719 8.81086 39.8493 10.3758 39.8493 12.2996C39.8493 14.2234 38.2719 15.7883 36.3328 15.7883ZM36.3328 7.76695C33.8135 7.76695 31.7641 9.80018 31.7641 12.2996C31.7641 14.7991 33.8135 16.8323 36.3328 16.8323C38.8501 16.8323 40.9016 14.7991 40.9016 12.2996C40.9016 9.80018 38.8522 7.76695 36.3328 7.76695ZM45.2434 19.2731C45.9218 18.4196 46.4735 17.475 46.878 16.4695C47.0558 16.0296 46.8842 15.5391 46.4694 15.3039C44.138 13.9741 44.134 10.6253 46.4694 9.29348C46.8821 9.05834 47.0538 8.56779 46.878 8.12788C46.4735 7.12242 45.9239 6.1798 45.2434 5.32437C44.9472 4.9534 44.4343 4.8561 44.0236 5.09327C41.6964 6.43117 38.7725 4.75474 38.7767 2.08903C38.7767 1.61469 38.4334 1.22343 37.9634 1.15451C36.8907 1.00248 35.7751 1.00045 34.7024 1.15451C34.2304 1.22344 33.8871 1.61468 33.8891 2.08903C33.8932 4.75876 30.9673 6.43117 28.6443 5.0953C28.2336 4.85812 27.7207 4.95543 27.4245 5.32639C26.7461 6.1798 26.1944 7.12242 25.7898 8.1299C25.6141 8.56979 25.7858 9.06037 26.1985 9.29551C28.5319 10.6273 28.5278 13.9782 26.1985 15.306C25.7858 15.5411 25.6141 16.0317 25.7898 16.4716C26.1944 17.477 26.7461 18.4196 27.4245 19.2751C27.7207 19.644 28.2336 19.7433 28.6443 19.5062C30.9573 18.1764 33.8933 19.8285 33.8891 22.5124C33.8891 22.9868 34.2304 23.378 34.7024 23.4449C35.7751 23.599 36.8907 23.599 37.9634 23.4449C38.4354 23.378 38.7787 22.9848 38.7767 22.5124C38.7705 19.8468 41.6924 18.1703 44.0215 19.5062C44.4343 19.7413 44.9472 19.644 45.2434 19.2731ZM46.9925 14.4018C45.3599 13.4694 45.362 11.13 46.9925 10.1996C47.865 9.70292 48.2266 8.66909 47.8547 7.74266C47.4113 6.64192 46.8106 5.61212 46.0669 4.67968C45.4457 3.89923 44.3628 3.69451 43.4944 4.19316C41.8679 5.12566 39.8267 3.95801 39.8288 2.09304C39.8288 1.09567 39.1075 0.2666 38.1125 0.124668C36.9417 -0.041556 35.7239 -0.041556 34.551 0.124668C33.554 0.266569 32.8326 1.09567 32.8347 2.09304C32.8368 3.95595 30.7976 5.12971 29.1691 4.19316C28.3007 3.69449 27.2178 3.89923 26.5966 4.68171C25.8549 5.6142 25.2542 6.64395 24.8108 7.74469C24.4389 8.67112 24.8006 9.70491 25.673 10.2016C27.3036 11.1321 27.3036 13.4734 25.673 14.4039C24.8006 14.9005 24.4389 15.9344 24.8108 16.8608C25.2542 17.9595 25.8549 18.9913 26.5966 19.9238C27.2198 20.7042 28.3007 20.9089 29.1691 20.4123C30.7996 19.4758 32.8388 20.6515 32.8347 22.5124C32.8327 23.5098 33.554 24.3389 34.551 24.4808C35.732 24.6491 36.9315 24.6491 38.1125 24.4808C39.1075 24.3389 39.8288 23.5118 39.8288 22.5124C39.8267 20.6454 41.8679 19.4778 43.4944 20.4123C44.3628 20.911 45.4457 20.7062 46.0669 19.9238C46.8106 18.9913 47.4113 17.9594 47.8547 16.8608C48.2266 15.9323 47.8649 14.8985 46.9925 14.4018ZM39.4283 33.5946C37.7957 34.5271 37.7978 36.8684 39.4283 37.7969C40.2987 38.2935 40.6604 39.3274 40.2885 40.2538C39.8451 41.3525 39.2444 42.3843 38.5027 43.3168C37.8795 44.0972 36.7986 44.304 35.9302 43.8053C34.2997 42.8688 32.2605 44.0465 32.2625 45.9054C32.2646 46.9028 31.5433 47.7299 30.5462 47.8738C29.3734 48.0421 28.1576 48.0421 26.9848 47.8738C25.9898 47.7299 25.2685 46.9028 25.2685 45.9054C25.2705 44.0425 23.2293 42.8688 21.6029 43.8053C20.7345 44.304 19.6516 44.0993 19.0304 43.3168C18.2887 42.3843 17.6859 41.3525 17.2425 40.2538C16.8707 39.3274 17.2323 38.2936 18.1048 37.7969C19.7373 36.8644 19.7353 34.5251 18.1048 33.5946C17.2323 33.098 16.8706 32.0641 17.2425 31.1377C17.6859 30.037 18.2866 29.0072 19.0304 28.0747C19.6516 27.2943 20.7345 27.0895 21.6029 27.5882C23.2273 28.5207 25.2705 27.3571 25.2685 25.4881C25.2685 24.4907 25.9898 23.6616 26.9848 23.5197C28.1576 23.3514 29.3754 23.3514 30.5462 23.5197C31.5433 23.6616 32.2646 24.4907 32.2625 25.4881C32.2584 27.349 34.2997 28.5247 35.9302 27.5882C36.7986 27.0895 37.8815 27.2943 38.5027 28.0747C39.2444 29.0072 39.8471 30.039 40.2885 31.1377C40.6604 32.0641 40.2987 33.0979 39.4283 33.5946ZM28.7665 39.1837C30.7055 39.1837 32.2829 37.6187 32.2829 35.6949C32.2829 33.7712 30.7055 32.2062 28.7665 32.2062C26.8274 32.2062 25.25 33.7711 25.25 35.6949C25.25 37.6207 26.8274 39.1837 28.7665 39.1837ZM18.828 24.1482C19.6964 24.6469 20.7794 24.4421 21.4005 23.6597C22.1422 22.7272 22.745 21.6974 23.1863 20.5967C23.5603 19.6702 23.1986 18.6365 22.3261 18.1398C20.6956 17.2093 20.6956 14.868 22.3261 13.9375C23.1986 13.4408 23.5603 12.407 23.1863 11.4806C22.745 10.3819 22.1422 9.35004 21.4005 8.4176C20.7794 7.63715 19.6964 7.43243 18.828 7.93109C17.2036 8.86358 15.1604 7.69796 15.1624 5.83096C15.1624 4.83359 14.4412 4.00452 13.4461 3.86259C12.2753 3.69637 11.0575 3.69637 9.88673 3.86259C8.88965 4.00449 8.17042 4.83359 8.17042 5.83096C8.17246 7.69595 6.13126 8.86561 4.50481 7.93109C3.6364 7.43241 2.55348 7.63715 1.93233 8.41963C1.19061 9.35213 0.587869 10.3839 0.146498 11.4826C-0.227418 12.409 0.136281 13.4428 1.0067 13.9395C2.63927 14.872 2.63723 17.2113 1.0067 18.1418C0.134205 18.6384 -0.227449 19.6723 0.146498 20.5987C0.587842 21.6974 1.19061 22.7292 1.93233 23.6617C2.55348 24.4421 3.6364 24.6489 4.50481 24.1502C6.13126 23.2157 8.1745 24.3854 8.17042 26.2504C8.17042 27.2477 8.88965 28.0768 9.88673 28.2187C11.0616 28.387 12.2733 28.387 13.4481 28.2187C14.4432 28.0768 15.1645 27.2497 15.1645 26.2504C15.1604 24.3813 17.2036 23.2137 18.828 24.1482ZM11.6666 19.5284C9.72756 19.5284 8.15012 17.9634 8.15012 16.0396C8.15012 14.1119 9.72343 12.5509 11.6666 12.5509C13.6056 12.5509 15.181 14.1159 15.181 16.0396C15.1831 17.9634 13.6057 19.5284 11.6666 19.5284Z" fill="#2E3092"/>
</svg>
