<svg width="72" height="62" viewBox="0 0 72 62" fill="none" xmlns="http://www.w3.org/2000/svg">
<path d="M42.8354 30.5332C42.8354 34.3077 39.7766 37.3672 36 37.3672C32.2262 37.3672 29.1646 34.3077 29.1646 30.5332C29.1646 26.7586 32.2262 23.6963 36 23.6963C39.7766 23.6963 42.8354 26.7586 42.8354 30.5332Z" fill="white"/>
<path d="M35.5442 44.3873C32.1921 44.1663 29.0362 42.73 26.6596 40.347C24.2831 37.961 22.8524 34.7927 22.6293 31.4273H6.50182C6.01104 31.4273 5.60948 31.0271 5.60948 30.5314C5.60948 30.0357 6.01102 29.6355 6.50182 29.6355H22.6293C22.8524 26.2701 24.2861 23.1018 26.6596 20.7158C29.0362 18.3328 32.192 16.8965 35.5442 16.6755V16.6456V6.37891C18.688 6.95524 4.61038 23.6091 0.547289 28.9183H0.544314C-0.181438 29.8708 -0.181438 31.1908 0.544314 32.1434C4.6103 37.4528 18.6881 54.1063 35.5443 54.6827V44.416V44.3861L35.5442 44.3873Z" fill="white"/>
<path d="M71.4553 28.9191C67.392 23.6095 53.3132 6.95227 36.4558 6.37891V16.646V16.6759C39.8081 16.8969 42.9672 18.3333 45.341 20.7164C47.7178 23.1024 49.1515 26.2708 49.3717 29.6364H65.5004C65.9942 29.6364 66.3928 30.0366 66.3928 30.5323C66.3928 31.0281 65.9942 31.4282 65.5004 31.4282H49.3717C49.1515 34.7938 47.7177 37.9652 45.344 40.3483C42.9672 42.7344 39.8082 44.1708 36.4557 44.3888V44.4187V54.6827C53.3131 54.1093 67.3919 37.4549 71.4553 32.1364L71.4582 32.1393C72.1811 31.1897 72.1811 29.8697 71.4553 28.9202L71.4553 28.9191Z" fill="white"/>
<path d="M36.4557 6.37975V0.840926C36.4557 0.378428 36.2522 0 36 0C35.7479 0 35.5443 0.378406 35.5443 0.840926V6.37975C35.6962 6.37134 35.8481 6.36573 36 6.36293C36.1519 6.36573 36.3038 6.37134 36.4557 6.37975Z" fill="white"/>
<path d="M35.5443 54.6836V60.2224C35.5443 60.6877 35.7479 61.0633 36 61.0633C36.2522 61.0633 36.4557 60.6877 36.4557 60.2224V54.6836C36.3038 54.6948 36.1519 54.7004 36 54.7004C35.8481 54.6976 35.6962 54.692 35.5443 54.6836Z" fill="white"/>
</svg>
