<svg width="69" height="72" viewBox="0 0 69 72" fill="none" xmlns="http://www.w3.org/2000/svg">
<path fill-rule="evenodd" clipRule="evenodd" d="M27.4666 9.20569C21.0092 10.7432 15.3339 14.3497 11.204 19.3016C6.98636 24.361 4.37833 30.823 4.19417 37.9176C4.17536 38.6456 4.18398 39.3689 4.21689 40.0961C4.24354 40.7184 3.7608 41.245 3.13857 41.2716C2.51634 41.2983 1.98972 40.8155 1.96308 40.1933C1.9286 39.4191 1.92076 38.6393 1.94035 37.8643C2.13862 30.24 4.94021 23.296 9.47214 17.8613C13.9696 12.4673 20.1699 8.55917 27.2198 6.94561C27.3992 3.0798 30.5903 0 34.5008 0C38.5265 0 41.7904 3.26317 41.7904 7.28964C41.7904 11.3161 38.5265 14.5793 34.5008 14.5793C31.1381 14.5793 28.3083 12.3019 27.4666 9.20569ZM34.5008 21.952C25.2457 21.952 17.7437 29.4548 17.7437 38.7091C17.7437 47.9641 25.2465 55.4661 34.5008 55.4661C43.7558 55.4661 51.2579 47.9633 51.2579 38.7091C51.2579 29.4548 43.7558 21.952 34.5008 21.952ZM34.5008 38.7584C29.9971 38.7584 26.2809 42.1274 25.7332 46.4822C25.6963 46.7745 25.7786 47.0394 25.973 47.2604C26.1673 47.4814 26.4212 47.595 26.7151 47.595H42.2857C42.5796 47.595 42.8335 47.4806 43.0278 47.2604C43.2222 47.0394 43.3045 46.7745 43.2676 46.4822C42.7206 42.1274 39.0045 38.7584 34.5008 38.7584ZM34.5008 28.4094C32.033 28.4094 30.0331 30.4101 30.0331 32.877C30.0331 35.3448 32.0338 37.3447 34.5008 37.3447C36.9685 37.3447 38.9684 35.344 38.9684 32.877C38.9684 30.4093 36.9685 28.4094 34.5008 28.4094ZM7.29042 47.1295C11.3161 47.1295 14.5801 50.3935 14.5801 54.4192C14.5801 56.4167 13.776 58.227 12.4744 59.5435C15.1043 62.3248 18.2594 64.6123 21.7882 66.2454C25.4291 67.9303 29.4626 68.9161 33.7203 69.0266C36.8181 69.1074 39.8203 68.7202 42.6595 67.9295C45.5912 67.1129 48.3497 65.8638 50.8613 64.2533C51.3856 63.9164 52.0846 64.0692 52.4208 64.5935C52.7578 65.1177 52.605 65.8168 52.0807 66.153C49.3857 67.8817 46.4187 69.2241 43.2598 70.1034C40.2145 70.9513 36.9928 71.3667 33.6662 71.2805C29.0825 71.1613 24.7481 70.1034 20.8415 68.2955C16.9702 66.504 13.5135 63.9744 10.6476 60.8906C9.64298 61.4134 8.5004 61.7088 7.28964 61.7088C3.26396 61.7088 0 58.4456 0 54.4192C0.00156733 50.3935 3.26474 47.1295 7.29042 47.1295ZM61.7111 47.1295C62.3577 47.1295 62.9846 47.2142 63.581 47.3725C64.3396 44.8216 64.7596 42.1603 64.8293 39.4998C64.9829 33.6004 63.4407 28.0505 60.6454 23.3171C57.7568 18.4247 53.5328 14.4061 48.4633 11.7753C47.9093 11.4901 47.6914 10.8091 47.9774 10.2558C48.2627 9.70175 48.9437 9.48468 49.497 9.76993C54.9489 12.5982 59.4879 16.9162 62.5896 22.1691C65.5911 27.2527 67.2477 33.2148 67.0824 39.5538C67.0048 42.5247 66.5346 45.4525 65.6616 48.2933C67.6701 49.591 69 51.8503 69 54.4199C69 58.4456 65.7368 61.7096 61.7104 61.7096C57.6847 61.7096 54.4207 58.4464 54.4207 54.4199C54.4215 50.3935 57.6855 47.1295 61.7111 47.1295Z" fill="white"/>
</svg>
