<svg width="36" height="71" viewBox="0 0 36 71" fill="none" xmlns="http://www.w3.org/2000/svg">
<path d="M34.803 36.1377C34.3759 35.7162 33.8184 35.4887 33.2415 35.5054C32.0434 35.5276 31.0671 36.5233 31.0671 37.7242C31.0671 38.3372 30.5706 38.8336 29.9577 38.8336C29.3447 38.8336 28.8482 38.3372 28.8482 37.7242V36.6148C28.8482 35.3916 27.8526 34.396 26.6294 34.396C25.4062 34.396 24.4106 35.3916 24.4106 36.6148C24.4106 37.2278 23.9141 37.7242 23.3012 37.7242C22.6882 37.7242 22.1917 37.2278 22.1917 36.6148C22.1917 35.3916 21.1961 34.396 19.9729 34.396C18.7497 34.396 17.7541 35.3916 17.7541 36.6148C17.7541 37.2278 17.2576 37.7242 16.6447 37.7242C16.0317 37.7242 15.5352 37.2278 15.5352 36.6148V17.8296C15.5352 17.2139 15.2801 16.6092 14.8363 16.1711C14.4092 15.7495 13.8545 15.5248 13.2748 15.5387C12.0766 15.5609 11.1004 16.5566 11.1004 17.7575V48.8212C11.1004 49.4342 10.6039 49.9306 9.99093 49.9306C9.37798 49.9306 8.88152 49.4342 8.88152 48.8212V43.2741C8.88152 41.4381 7.38932 39.9459 5.55326 39.9459H4.44385V52.1498C4.44385 54.6488 5.76407 56.091 7.15913 57.6192C8.55142 59.1447 9.99093 60.7201 9.99093 63.244V69.9005C9.99093 70.5134 10.4874 71.0099 11.1004 71.0099H31.0699C31.6828 71.0099 32.1793 70.5134 32.1793 69.9005V63.244C32.1793 61.0418 32.9226 59.7272 33.6437 58.4596C34.5174 56.9175 35.5075 55.1702 35.5075 51.0405V37.8021C35.5075 37.1864 35.2524 36.5817 34.8086 36.1435L34.803 36.1377Z" fill="white"/>
<path d="M8.87546 17.751C8.87546 15.3519 10.828 13.3577 13.2271 13.3134H13.3131C14.4586 13.3134 15.5486 13.7627 16.3834 14.5837C17.2516 15.4351 17.748 16.6167 17.748 17.8259V25.8634C22.9123 24.0329 26.6234 19.096 26.6234 13.3102C26.6261 5.97417 20.6519 0 13.3132 0C5.97151 0 0.000183105 5.97424 0.000183105 13.313C0.000183105 19.0986 3.71121 24.033 8.87552 25.8663L8.87546 17.751Z" fill="white"/>
</svg>
