<svg width="78" height="77" viewBox="0 0 78 77" fill="none" xmlns="http://www.w3.org/2000/svg">
<path d="M26.0054 49.0415C26.9538 49.0415 26.9538 50.4646 26.0054 50.4646H11.0493C10.3205 50.4646 9.71761 51.0537 9.71761 51.7777V54.9061C9.71761 55.8412 8.27976 55.8412 8.27976 54.9061V51.7777C8.27976 50.2729 9.52506 49.0415 11.0493 49.0415H26.0054ZM51.9946 50.4646C51.0516 50.4646 51.0516 49.0415 51.9946 49.0415H66.9507C68.4767 49.0415 69.7202 50.2729 69.7202 51.7777V54.9061C69.7202 55.8412 68.2824 55.8412 68.2824 54.9061V51.7777C68.2824 51.0537 67.6813 50.4646 66.9507 50.4646H51.9946ZM17.3135 58.5491H1.33167C0.602852 58.5491 0 59.1382 0 59.8622V75.6869C0 76.4109 0.601052 77 1.33167 77H17.3135C18.0424 77 18.6452 76.4109 18.6452 75.6869V59.8622C18.6434 59.1364 18.0424 58.5491 17.3135 58.5491ZM76.6683 58.5491H60.6865C59.9576 58.5491 59.3548 59.1382 59.3548 59.8622V75.6869C59.3548 76.4109 59.9558 77 60.6865 77H76.6683C77.3971 77 78 76.4109 78 75.6869V59.8622C78 59.1364 77.3989 58.5491 76.6683 58.5491ZM46.9091 40.9339H30.9272C30.1984 40.9339 29.5955 41.5266 29.5955 42.247V58.0771C29.5955 58.7957 30.1966 59.3902 30.9272 59.3902H46.9091C47.6379 59.3902 48.2407 58.7975 48.2407 58.0771V42.247C48.2407 41.5266 47.6379 40.9339 46.9091 40.9339ZM43.1804 1.73942C40.8284 -0.579808 37.0133 -0.579808 34.6559 1.73942C32.3038 4.05866 32.3038 7.82053 34.6559 10.1398C37.0133 12.459 40.8284 12.459 43.1804 10.1398C45.5324 7.82053 45.5324 4.05866 43.1804 1.73942ZM63.7223 11.5026C61.3703 9.18332 57.5552 9.18332 55.2032 11.5026C52.8512 13.8218 52.8512 17.5837 55.2032 19.9029C57.5552 22.2274 61.3703 22.2274 63.7223 19.9029C66.0797 17.5837 66.0797 13.8218 63.7223 11.5026ZM18.3735 9.7618C15.0479 9.7618 12.3486 12.4235 12.3486 15.7027C12.3486 18.9819 15.0479 21.6436 18.3735 21.6436C21.6991 21.6436 24.3984 18.9819 24.3984 15.7027C24.3984 12.4235 21.6991 9.7618 18.3735 9.7618ZM8.02782 31.3855L8.03322 34.8918C8.03322 36.5421 8.57849 37.1649 10.0271 37.8996L12.5879 39.1825V34.3542C12.5879 33.4244 14.0257 33.4244 14.0257 34.3542V39.9065L17.0652 41.4308C17.9164 41.8584 18.8252 41.8584 19.6764 41.4308L22.7158 39.9065V34.3542C22.7158 33.4244 24.1537 33.4244 24.1537 34.3542V39.1825L26.7198 37.8942C28.1793 37.1791 28.7101 36.496 28.7101 34.8918L28.7155 31.3855C28.6939 20.6872 8.04942 20.6925 8.02782 31.3855ZM49.1225 31.3855V34.8918C49.1225 36.496 49.6534 37.1809 51.1128 37.8942L53.679 39.1825V34.3542C53.679 33.4244 55.1168 33.4244 55.1168 34.3542V39.9065L58.1563 41.4308C59.0075 41.8584 59.9163 41.8584 60.7674 41.4308L63.8069 39.9065V34.3542C63.8069 33.4244 65.2447 33.4244 65.2447 34.3542V39.1825L67.8055 37.8996C69.2542 37.1649 69.7994 36.5421 69.7994 34.8918L69.8048 31.3855C69.7886 20.6872 49.1441 20.6925 49.1225 31.3855ZM33.1316 24.591C33.1316 23.6612 34.5749 23.6612 34.5749 24.591V30.1434L37.6143 31.6676C38.4655 32.0953 39.3743 32.0953 40.2255 31.6676L43.265 30.1434V24.591C43.265 23.6612 44.7028 23.6612 44.7028 24.591V29.4194L47.2636 28.1364C48.7122 27.4018 49.2575 26.779 49.2575 25.1287V21.6224C49.2377 10.9241 28.5932 10.9294 28.5734 21.6224L28.5788 25.1287C28.5788 26.7328 29.1042 27.4178 30.5637 28.1311L33.1298 29.4194V24.591H33.1316Z" fill="white"/>
</svg>
