<svg width="73" height="74" viewBox="0 0 73 74" fill="none" xmlns="http://www.w3.org/2000/svg">
<path fillRule="evenodd" clipRule="evenodd" d="M1.64193 42.6678H18.8389C19.2944 47.4209 20.0814 51.8707 21.1349 55.855C16.8156 57.1936 12.7315 59.0837 8.94548 61.4664C4.63855 56.7783 1.51216 50.984 0.0400216 44.5582C-0.192368 43.545 0.619444 42.6058 1.64193 42.6678ZM14.8387 12.3486C13.81 12.0697 12.8185 12.9683 13.0292 14.0342C14.1478 19.6982 16.0379 23.6734 19.1643 25.5763C21.705 27.1255 24.9182 27.2557 29.0145 25.7591C29.7302 26.2053 30.4242 26.7134 31.0905 27.2743C32.4259 28.4053 33.6281 29.75 34.6414 31.2497C34.3687 35.1383 34.5608 39.092 34.8087 42.6617H21.9467C22.3898 47.1267 23.1303 51.2943 24.1157 55.0217C32.2216 53.0324 40.7891 53.0324 48.8942 55.0217C49.8795 51.2942 50.6201 47.1267 51.0632 42.6617H37.7276C37.6625 41.7414 37.6037 40.7933 37.551 39.8266C39.2985 38.4695 41.2971 37.4159 43.3824 36.8087C46.1556 38.4942 48.6375 38.9219 50.9211 38.2495C54.066 37.3261 56.6192 34.3329 58.8937 29.7041C59.3337 28.8056 58.6892 27.7614 57.7193 27.7118C53.6882 27.4949 50.9894 26.8906 49.0495 26.46C46.7813 25.955 45.3963 25.6451 43.9462 26.3082C43.1034 26.6924 42.3877 27.3678 41.6503 28.471C41.0306 29.4005 40.3767 30.6492 39.5711 32.3441C41.5294 31.3929 43.6426 30.7731 45.7465 30.5996C46.5118 30.5377 47.1811 31.1047 47.2462 31.8701C47.3081 32.6354 46.738 33.3047 45.9758 33.3697C42.9702 33.6207 40.0142 34.7145 37.4272 36.3567C37.3436 30.8165 37.8362 24.3561 40.913 19.7086C48.3309 21.2144 53.2698 20.1982 56.3221 16.9943C59.3927 13.7749 60.3594 8.47037 59.8854 1.3901C59.8172 0.364468 58.7172 -0.317144 57.7164 0.218833C52.672 2.77823 48.9569 3.94014 46.283 4.77984C43.9126 5.52348 42.2859 6.03162 41.0713 7.06962C39.2835 8.59411 38.9953 10.8343 38.9922 13.3751C40.7738 11.6399 42.8777 10.1991 45.1242 9.27881C45.7996 9.00304 46.5681 9.32839 46.8469 10.0039C47.1227 10.6793 46.8005 11.4478 46.125 11.7267C44.5974 12.3557 43.1319 13.2728 41.787 14.413C40.5693 15.4449 40.1231 15.9251 39.1564 17.1305C39.1719 17.273 36.3399 20.1236 35.1222 27.1544C34.4467 26.3983 33.7248 25.695 32.9656 25.0536C32.3397 24.5237 31.689 24.0342 31.0166 23.5911C29.7431 22.4787 26.4402 21.3973 25.0923 20.8427C24.3517 20.5391 23.9954 19.6901 24.3021 18.9464C24.6058 18.2028 25.4548 17.8496 26.1984 18.1563C27.2085 18.5746 28.5409 19.2254 29.7895 19.9473C31.1405 20.7281 31.9925 21.3292 32.9996 22.2463C32.5596 19.8914 32.163 18.243 31.6703 17.0594C30.2822 13.7192 27.9862 13.6417 24.5624 13.4992C22.3377 13.4062 19.2485 13.2761 14.8359 12.3497L14.8387 12.3486ZM21.9993 58.8264C18.185 60.0132 14.5567 61.6585 11.1917 63.7066C16.4127 68.5062 22.9631 71.8061 30.1703 73.0364C26.3064 69.7767 23.6696 64.0847 21.9993 58.8264ZM48.0208 58.0022C47.2586 60.3819 46.3879 62.5385 45.4305 64.4254C39.9864 75.1585 33.0151 75.1585 27.5672 64.4254C26.6098 62.5385 25.7391 60.3819 24.9769 58.0022C32.5125 56.1772 40.4853 56.1772 48.0208 58.0022ZM54.1621 42.6645H71.4519C72.4465 42.6645 73.1809 43.591 72.9608 44.5546C71.489 50.9809 68.3626 56.7718 64.0554 61.4629C60.2721 59.0801 56.182 57.19 51.866 55.8515C52.9194 51.8668 53.7066 47.4207 54.1621 42.6645ZM61.8092 63.7062C58.4442 61.6612 54.8159 60.0129 51.0016 58.8261C49.3315 64.0843 46.6947 69.7765 42.8307 73.0358C50.0409 71.8057 56.5882 68.5061 61.8092 63.7062Z" fill="white"/>
</svg>
