<svg width="74" height="69" viewBox="0 0 74 69" fill="none" xmlns="http://www.w3.org/2000/svg">
<path d="M72.4426 46.9005C67.4533 40.4977 68.7397 38.7603 68.4275 35.3178C67.2741 22.5725 52.899 16.0922 41.2896 18.6268C42.3795 20.8641 42.9923 23.3819 42.9923 26.0417C42.9923 29.6146 42.1597 32.5313 40.0235 35.4073C39.0002 36.7862 37.8064 38.006 36.6906 39.3126C35.5604 40.6395 35.0284 42.079 35.0284 43.8221V46.4295C35.0284 48.3085 34.3723 50.0399 33.2767 51.4073C35.3753 54.8703 36.4246 58.8622 33.3605 66.2712C33.1003 66.9014 33.1668 67.5576 33.5426 68.1241C33.9213 68.6878 34.5052 69 35.1846 69H55.7229C56.6422 69 57.4227 68.3872 57.6424 67.491L58.7409 62.9527C65.9878 64.4298 71.1272 64.1813 68.2197 57.3563C69.9888 56.7522 70.567 54.9397 68.5839 54.1274C69.5899 53.8355 71.2492 52.4884 69.4627 50.9476C71.2 50.8985 74.8969 50.8694 72.4426 46.9005ZM44.4582 44.455C44.0044 44.9088 43.2701 44.9088 42.8163 44.455L39.8707 41.5093C39.4168 41.0555 39.4168 40.3213 39.8707 39.8674C40.3245 39.4136 41.0616 39.4136 41.5184 39.8674L44.4582 42.8073C44.9121 43.2611 44.9121 44.0011 44.4582 44.455ZM50.9218 27.2008H46.7621C46.1204 27.2008 45.603 26.6805 45.603 26.0416C45.603 25.397 46.1233 24.8767 46.7621 24.8767H50.9218C51.5664 24.8767 52.0867 25.397 52.0867 26.0416C52.0867 26.6834 51.5664 27.2008 50.9218 27.2008ZM33.4908 24.1049C34.0227 24.6368 34.2857 25.3334 34.2857 26.0387C34.2857 26.7412 34.0226 27.4378 33.4908 27.9697C32.9589 28.5017 32.2593 28.7676 31.5569 28.7676C30.8545 28.7676 30.1549 28.4987 29.623 27.9697L27.6891 26.0387L29.623 24.1049C30.1549 23.573 30.8545 23.3071 31.5569 23.3071C32.2564 23.3071 32.9588 23.5759 33.4908 24.1049ZM22.466 24.1049L24.3999 26.0387L22.466 27.9697C21.9341 28.5016 21.2346 28.7676 20.5321 28.7676C19.8355 28.7676 19.1331 28.5045 18.6069 27.9755L18.5954 27.964C18.0664 27.435 17.8033 26.7354 17.8033 26.0387C17.8033 25.3363 18.0664 24.6368 18.5982 24.1048H18.6011C19.1301 23.573 19.8297 23.307 20.5321 23.307C21.2346 23.307 21.9341 23.5759 22.466 24.1049ZM19.3759 43.3482H32.7109C32.708 43.5014 32.7023 43.6633 32.7023 43.8223V45.9671H19.385V43.8223C19.385 43.6633 19.3817 43.5014 19.3759 43.3482ZM19.7054 48.2971H32.3841C31.6094 50.4911 29.5079 52.081 27.0537 52.081H25.0331C22.5818 52.081 20.4801 50.4911 19.7054 48.2971ZM40.6685 26.0419C40.6685 17.9624 34.1182 11.4147 26.0414 11.4147C17.9679 11.4147 11.4143 17.9622 11.4143 26.0419C11.4143 32.199 14.2703 34.4159 17.1609 37.8014C18.0079 38.7959 18.6091 39.8654 18.9705 41.0217H33.1085C33.4698 39.8654 34.0711 38.7959 34.918 37.8014C37.8145 34.4165 40.6676 32.1993 40.6676 26.0419H40.6685ZM31.5575 31.0948C30.2596 31.0948 28.9645 30.6033 27.9788 29.6176L26.045 27.6837L24.1111 29.6176C23.1254 30.6033 21.8332 31.0948 20.5324 31.0948C19.2403 31.0948 17.9395 30.6033 16.9538 29.6176L16.9509 29.6147C15.971 28.629 15.4795 27.3369 15.4795 26.0419C15.4795 24.7526 15.9652 23.4633 16.9394 22.4776C16.948 22.469 16.9596 22.4603 16.9683 22.4487C17.954 21.4717 19.2432 20.9831 20.5325 20.9831C21.8304 20.9831 23.1254 21.4774 24.1111 22.4603L26.045 24.3942L27.9789 22.4603C28.9646 21.4804 30.2567 20.9831 31.5575 20.9831C32.8554 20.9831 34.1505 21.4774 35.1362 22.4603C36.1219 23.446 36.6133 24.7439 36.6133 26.0418C36.6133 27.3339 36.1219 28.6347 35.1362 29.6204C34.1476 30.6033 32.8554 31.0948 31.5575 31.0948ZM6.49245 26.0419C6.49245 26.6836 5.96923 27.201 5.32751 27.201H1.16493C0.520312 27.201 0 26.6807 0 26.0419C0 25.3972 0.520319 24.8769 1.16493 24.8769H5.32463C5.96925 24.8769 6.49245 25.3972 6.49245 26.0419ZM39.8708 12.2102C39.417 11.7564 39.417 11.0221 39.8708 10.5683L42.8164 7.62267C43.2703 7.16883 44.0045 7.16883 44.4584 7.62267C44.9122 8.0765 44.9122 8.81365 44.4584 9.27039L41.5185 12.2102C41.0618 12.6641 40.3247 12.6641 39.8708 12.2102ZM24.8796 5.31886V1.15916C24.8796 0.517426 25.4028 0 26.0445 0C26.6863 0 27.2095 0.517433 27.2095 1.15916V5.31886C27.2095 5.96348 26.6862 6.48379 26.0445 6.48379C25.4028 6.48379 24.8796 5.96635 24.8796 5.31886ZM7.63059 9.27039C7.17675 8.81655 7.17675 8.07941 7.63059 7.62267C8.08442 7.16883 8.81868 7.16883 9.27253 7.62267L12.2182 10.5683C12.672 11.0221 12.672 11.7564 12.2182 12.2102C11.7643 12.6641 11.0272 12.6641 10.5704 12.2102L7.63059 9.27039ZM12.2181 39.8685C12.6719 40.3223 12.6719 41.0566 12.2181 41.5105L9.27246 44.4561C8.81862 44.9099 8.08436 44.9099 7.63051 44.4561C7.17666 44.0023 7.17668 43.2651 7.63051 42.8084L10.5704 39.8685C11.0242 39.4147 11.7642 39.4147 12.2181 39.8685Z" fill="white"/>
</svg>
