<svg width="22" height="24" viewBox="0 0 22 24" fill="none" xmlns="http://www.w3.org/2000/svg">
<path fillRule="evenodd" clipRule="evenodd" d="M0.000919436 20.4553H0.0351567C0.149277 20.8471 0.495061 21.125 0.920726 21.125H9.15471C9.1764 21.125 9.1958 21.1113 9.20265 21.0897C9.20949 21.068 9.2015 21.0464 9.18324 21.0339C5.61228 18.5295 5.12848 13.3873 8.24745 10.275C10.9088 7.61908 15.1656 7.52456 17.9399 9.99137C17.9524 10.0028 17.9673 10.0062 17.9832 10.0028C17.9992 9.99934 18.0118 9.98909 18.0186 9.97429L19.4451 6.91064C19.7281 6.30136 19.2865 5.61005 18.6132 5.61005L15.5958 5.61119C15.5684 5.61119 15.5456 5.58841 15.5456 5.56108V2.87561C15.5456 2.86194 15.541 2.84942 15.5308 2.84031L12.6994 0.0147444C12.6892 0.00449456 12.6777 -6.10352e-05 12.664 -6.10352e-05H3.2673C2.60426 -6.10352e-05 2.06331 0.539779 2.06331 1.20146V4.92664C2.06331 4.95397 2.04049 4.97675 2.0131 4.97675H1.20398C0.540947 4.97675 0 5.51659 0 6.17827L0.000919436 20.4553ZM10.7226 15.4283C10.5868 15.2735 10.6016 15.0365 10.758 14.901C10.9132 14.7655 11.1505 14.7803 11.2863 14.9363L12.3077 16.098C12.3169 16.1083 12.3283 16.1139 12.3431 16.1151C12.3568 16.1162 12.3694 16.1117 12.3796 16.1026L14.71 13.9877C14.8629 13.8487 15.1003 13.8601 15.2395 14.0127C15.3787 14.1653 15.3673 14.4022 15.2144 14.5412L12.5634 16.9453C12.407 17.0854 12.1685 17.0729 12.0293 16.9146L10.7226 15.4283ZM18.6288 21.4859L18.7543 21.3607C18.7737 21.3413 18.7737 21.3094 18.7543 21.2901L17.4693 20.0077C17.451 19.9895 17.4202 19.9883 17.4008 20.0054C14.9198 22.1738 11.1447 22.0782 8.77887 19.7173C6.3127 17.2562 6.3127 13.2667 8.77887 10.8056C11.245 8.34453 15.2427 8.34453 17.7088 10.8056C20.0745 13.1666 20.1704 16.9341 17.9975 19.41C17.9804 19.4293 17.9815 19.4601 17.9998 19.4783L19.2848 20.7607C19.3042 20.78 19.3361 20.78 19.3555 20.7607L19.4811 20.6354C19.6671 20.4498 19.9706 20.4498 20.1555 20.6354L21.8605 22.3369C22.0465 22.5225 22.0465 22.8255 21.8605 23.01L21.008 23.8607C20.822 24.0464 20.5184 24.0464 20.3335 23.8607L18.6286 22.1592C18.4425 21.9747 18.4425 21.6718 18.6286 21.4862L18.6288 21.4859ZM9.97146 11.9956C11.7791 10.1916 14.7087 10.1916 16.5162 11.9956C18.3238 13.7996 18.3239 16.7231 16.5162 18.527C14.7085 20.3308 11.779 20.331 9.97146 18.527C8.16392 16.723 8.16377 13.7994 9.97146 11.9956ZM4.49362 5.45487C4.28592 5.45487 4.11815 5.28746 4.11815 5.08017C4.11815 4.87288 4.28591 4.70547 4.49362 4.70547L10.2545 4.70433C10.4623 4.70433 10.63 4.87174 10.63 5.07903C10.63 5.28631 10.4623 5.45374 10.2545 5.45374L4.49362 5.45487ZM4.49362 2.91518C4.28592 2.91518 4.11815 2.74777 4.11815 2.54048C4.11815 2.3332 4.28591 2.16577 4.49362 2.16577L10.2545 2.16463C10.4623 2.16463 10.63 2.33205 10.63 2.53934C10.63 2.74662 10.4623 2.91404 10.2545 2.91404L4.49362 2.91518ZM14.4609 2.85482C14.4746 2.85482 14.4872 2.85938 14.4963 2.86963L14.7782 3.15093C14.7885 3.16118 14.793 3.17257 14.793 3.18623V5.56193C14.793 5.58926 14.7702 5.61204 14.7428 5.61204H13.888C13.2946 5.61204 12.7868 5.93549 12.5368 6.47303L12.4033 6.76003C12.1534 7.29759 11.6455 7.62101 11.0521 7.62101L6.72244 7.61874C6.12902 7.61874 5.62118 7.94219 5.37124 8.47972L2.91077 13.7641C2.9005 13.7858 2.87768 13.7972 2.85485 13.7915C2.83203 13.7858 2.81491 13.7664 2.81491 13.7425V1.20102C2.81491 0.953887 3.01919 0.750021 3.26684 0.750021H12.3522C12.3659 0.750021 12.3784 0.754576 12.3875 0.764826L12.6694 1.04613C12.6797 1.05638 12.6842 1.06777 12.6842 1.08143V1.65314C12.6842 2.31482 13.2252 2.85466 13.8882 2.85466L14.4609 2.85482Z" fill="#2E3092"/>
</svg>
