<svg width="15" height="20" viewBox="0 0 15 20" fill="none" xmlns="http://www.w3.org/2000/svg">
<path d="M2.20607 8.73938e-06C1.96206 8.73938e-06 1.76519 0.203707 1.76519 0.454276V1.81795H0.441704C0.197696 1.81795 0 2.02165 0 2.27222V19.5457C0 19.7971 0.197695 20 0.440879 20H12.7931C13.0371 20 13.234 19.7963 13.234 19.5457V18.1821H14.5575C14.8015 18.1821 14.9983 17.9784 14.9983 17.7278L15 4.09103C15 3.98109 14.9611 3.87455 14.8908 3.79188L11.803 0.155119C11.7186 0.0562532 11.5978 0 11.4704 0L2.20607 8.73938e-06ZM2.64694 0.909417H11.0287V4.09103C11.0287 4.34245 11.2264 4.5453 11.4696 4.5453H14.1166L14.1174 17.2726H2.64692L2.64694 0.909417ZM7.5 4.54618C7.25599 4.54618 7.05912 4.74987 7.05912 5.00044V5.45471H6.39738C6.15337 5.45471 5.9565 5.65841 5.9565 5.90898C5.9565 6.1604 6.15419 6.36325 6.39738 6.36325H7.05912V6.81751H6.39738C6.15337 6.81751 5.9565 7.02121 5.9565 7.27178C5.9565 7.5232 6.15419 7.72605 6.39738 7.72605L7.05912 7.7269V8.18117H6.39738C6.15337 8.18117 5.9565 8.38487 5.9565 8.63544C5.9565 8.88685 6.15419 9.0897 6.39738 9.0897L7.05912 9.09056V9.54482C7.05912 9.79624 7.25681 9.99909 7.5 9.99909H9.26436C9.50837 9.99909 9.70524 9.79539 9.70524 9.54482V9.09056H10.367C10.611 9.09056 10.8079 8.88686 10.8079 8.63629C10.8079 8.38487 10.6102 8.18202 10.367 8.18202H9.70607V7.72775H10.3678C10.6118 7.72775 10.8087 7.52405 10.8087 7.27349C10.8087 7.02207 10.611 6.81922 10.3678 6.81922L9.70607 6.81837V6.3641H10.3678C10.6118 6.3641 10.8087 6.1604 10.8087 5.90983C10.8087 5.65841 10.611 5.45556 10.3678 5.45556L9.70607 5.45471V5.00044C9.70607 4.74903 9.50837 4.54618 9.26519 4.54618H7.5ZM3.97043 11.8188C3.72642 11.8188 3.52955 12.0225 3.52955 12.2731C3.52955 12.5245 3.72724 12.7274 3.97043 12.7274H12.7939C13.0379 12.7274 13.2348 12.5237 13.2348 12.2731C13.2348 12.0217 13.0371 11.8188 12.7939 11.8188H3.97043ZM3.97043 13.6368C3.72642 13.6368 3.52955 13.8405 3.52955 14.091C3.52955 14.3424 3.72724 14.5453 3.97043 14.5453H12.7939C13.0379 14.5453 13.2348 14.3416 13.2348 14.091C13.2348 13.8396 13.0371 13.6368 12.7939 13.6368H3.97043ZM3.97043 15.4547C3.72642 15.4547 3.52955 15.6584 3.52955 15.909C3.52955 16.1604 3.72724 16.3632 3.97043 16.3632H12.7939C13.0379 16.3632 13.2348 16.1595 13.2348 15.909C13.2348 15.6576 13.0371 15.4547 12.7939 15.4547H3.97043Z" fill="#2E3092"/>
</svg>
