<svg width="23" height="22" viewBox="0 0 23 22" fill="none" xmlns="http://www.w3.org/2000/svg">
<path fill-rule="evenodd" clipRule="evenodd" d="M19.9044 10.8705L15.4012 15.4576C15.3155 15.5449 15.1944 15.5858 15.0749 15.568C14.955 15.5502 14.8504 15.4757 14.7929 15.3672L13.7031 13.3142L11.4973 15.5611C12.0951 16.6545 13.2413 17.394 14.5572 17.394C16.4816 17.394 18.0429 15.8126 18.0578 13.8561L19.0254 12.8704C19.0891 13.1794 19.1226 13.5 19.1226 13.8284C19.1226 14.8189 18.8184 15.7371 18.3003 16.4915L19.7263 17.9128L19.7806 17.8556C19.9391 17.6889 20.204 17.6849 20.3677 17.8463L22.8748 20.3248C23.0384 20.4862 23.0423 20.7548 22.8826 20.9226L21.9776 21.8724C21.8191 22.0388 21.5557 22.0428 21.3907 21.8817L18.8847 19.4029C18.72 19.2418 18.7161 18.9719 18.8759 18.8051L18.9242 18.7544L17.526 17.3613C16.728 18.0577 15.6909 18.4786 14.5572 18.4786C12.0358 18.4786 9.99213 16.3968 9.99213 13.8284C9.99213 11.2598 12.0358 9.17825 14.5572 9.17825C15.888 9.17825 17.0857 9.75793 17.9199 10.683L17.1663 11.451C16.5252 10.7216 15.5941 10.2626 14.5572 10.2626C12.6239 10.2626 11.0569 11.8591 11.0569 13.8284C11.0569 14.1571 11.1005 14.4751 11.1822 14.7775L13.5245 12.3915C13.6102 12.3043 13.7313 12.2633 13.8511 12.2811C13.9707 12.2989 14.0753 12.3734 14.1328 12.4819L15.2226 14.5352L19.3625 10.3182L19.2854 10.3286C19.0758 10.3568 18.8829 10.2062 18.8552 9.99272C18.8276 9.77894 18.9753 9.5827 19.1852 9.55424L20.3823 9.39337C20.5006 9.37742 20.6191 9.41837 20.7034 9.50425C20.7877 9.59014 20.8282 9.71113 20.8125 9.83158L20.6543 11.051C20.6267 11.2648 20.434 11.4153 20.2241 11.3871C20.0145 11.359 19.8665 11.1624 19.8945 10.9489L19.9044 10.8705ZM15.6565 3.36446V8.51269C15.3017 8.4369 14.9342 8.39728 14.5572 8.39728C13.5827 8.39728 12.6694 8.66346 11.8834 9.12853V8.9642C11.8834 8.76716 11.7401 8.60416 11.5537 8.57757V4.08773C11.5537 3.94547 11.478 3.81464 11.3558 3.74577L8.67361 2.23728C8.55483 2.17054 8.41022 2.1724 8.29353 2.24286C8.17659 2.31306 8.10506 2.44097 8.10506 2.57897V3.40834L6.13864 2.24154C6.01987 2.17134 5.87342 2.1708 5.75465 2.24047C5.63561 2.31014 5.56226 2.43937 5.56226 2.57897V3.69738H5.39702L5.29313 2.81855C5.35604 2.74915 5.39441 2.65608 5.39441 2.55424V1.36032C5.39441 1.14467 5.22291 0.969968 5.0112 0.969968H2.82029C2.60858 0.969968 2.43708 1.14467 2.43708 1.36032V2.55424C2.43708 2.65608 2.47545 2.74915 2.5381 2.81855L2.43447 3.69738H2.02516C1.81345 3.69738 1.64195 3.87208 1.64195 4.08773V8.57757C1.45556 8.60416 1.31225 8.76716 1.31225 8.9642V10.1972C1.31225 10.4131 1.48376 10.5878 1.69546 10.5878H10.278C9.61675 11.4924 9.22545 12.6138 9.22545 13.8284C9.22545 14.686 9.42071 15.497 9.76789 16.2181L8.41126 17.6001C8.26142 17.7524 8.26142 18 8.41126 18.1523C8.56084 18.3047 8.80361 18.3047 8.95318 18.1523L10.1689 16.914C11.131 18.3313 12.7378 19.2596 14.5572 19.2596C14.9342 19.2596 15.3017 19.2197 15.6565 19.1439V20.2535C15.6565 20.4828 15.4727 20.67 15.2479 20.67H0.410356C0.184034 20.67 0 20.4828 0 20.2535V0.417679C0 0.187138 0.184034 -6.10352e-05 0.410356 -6.10352e-05H12.3535C12.353 0.0121707 12.3527 0.0246683 12.3527 0.0369V2.37555C12.3527 2.918 12.7918 3.36526 13.3243 3.36526H15.6199C15.6322 3.36526 15.6444 3.36499 15.6565 3.36446ZM1.30808 12.5925H2.0356C2.2473 12.5925 2.41907 12.4175 2.41907 12.2019C2.41907 11.9865 2.2473 11.8115 2.0356 11.8115H1.30808C1.09663 11.8115 0.924868 11.9865 0.924868 12.2019C0.924868 12.4175 1.09663 12.5925 1.30808 12.5925ZM5.30566 14.4246H8.35984C8.57128 14.4246 8.74304 14.2496 8.74304 14.0342C8.74304 13.8186 8.57128 13.6436 8.35984 13.6436H5.30566C5.09421 13.6436 4.92245 13.8186 4.92245 14.0342C4.92245 14.2496 5.09421 14.4246 5.30566 14.4246ZM3.23299 12.5925H4.56822C4.77966 12.5925 4.95143 12.4175 4.95143 12.2019C4.95143 11.9865 4.77966 11.8115 4.56822 11.8115H3.23299C3.02129 11.8115 2.84952 11.9865 2.84952 12.2019C2.84952 12.4175 3.02129 12.5925 3.23299 12.5925ZM1.30808 14.4246H3.91796C4.12967 14.4246 4.30143 14.2496 4.30143 14.0342C4.30143 13.8186 4.12967 13.6436 3.91796 13.6436H1.30808C1.09663 13.6436 0.924868 13.8186 0.924868 14.0342C0.924868 14.2496 1.09663 14.4246 1.30808 14.4246ZM7.52973 16.257H8.71407C8.92551 16.257 9.09728 16.082 9.09728 15.8666C9.09728 15.651 8.92551 15.476 8.71407 15.476H7.52973C7.31828 15.476 7.14652 15.651 7.14652 15.8666C7.14652 16.082 7.31828 16.257 7.52973 16.257ZM1.30808 16.257H6.0739C6.28534 16.257 6.45711 16.082 6.45711 15.8666C6.45711 15.651 6.28534 15.476 6.0739 15.476H1.30808C1.09663 15.476 0.924868 15.651 0.924868 15.8666C0.924868 16.082 1.09663 16.257 1.30808 16.257ZM10.9734 9.80686H2.07893V9.35455H11.1167V9.67895C11.0681 9.7207 11.0204 9.76351 10.9734 9.80686ZM3.20376 1.75094H4.62773V2.16362H3.20376V1.75094ZM2.40836 8.57358V4.47808H2.76991C2.77304 4.47834 2.77643 4.47834 2.77983 4.47808H5.05166C5.05506 4.47834 5.05845 4.47834 5.06158 4.47808H5.94573C6.15743 4.47808 6.32894 4.30338 6.32894 4.08773V3.25836L8.29536 4.42516C8.41387 4.49536 8.56032 4.49589 8.67935 4.42623C8.79839 4.35656 8.87174 4.22759 8.87174 4.08773V3.24081L10.787 4.31827V8.57358H5.77631V6.78854C5.77631 6.43196 5.48995 6.14026 5.13964 6.14026H3.65014C3.30008 6.14026 3.01346 6.43196 3.01346 6.78854V8.57358H2.40836ZM7.82992 5.01468L6.83536 4.45521C6.65002 4.35098 6.41665 4.41958 6.31458 4.60811C6.21225 4.7969 6.2796 5.03462 6.46468 5.13886L7.45925 5.69833C7.64458 5.8023 7.87796 5.73396 7.98028 5.54516C8.08235 5.35664 8.015 5.11892 7.82992 5.01468ZM10.5121 5.01468L9.51729 4.45521C9.33222 4.35098 9.09884 4.41958 8.99652 4.60811C8.89419 4.7969 8.96154 5.03462 9.14688 5.13886L10.1414 5.69833C10.3265 5.8023 10.5599 5.73396 10.6622 5.54516C10.7645 5.35664 10.6972 5.11892 10.5121 5.01468ZM3.78013 8.57358V6.92123H5.00964V8.57358H3.78013ZM3.29564 2.94459H4.53585L4.62486 3.69738H3.20663L3.29564 2.94459ZM13.1191 0.0369C13.1633 0.057109 13.2029 0.0850292 13.2392 0.122256L15.5364 2.46224C15.5729 2.4992 15.6003 2.53962 15.6199 2.58429H13.3243C13.2121 2.58429 13.1191 2.48989 13.1191 2.37555V0.0369Z" fill="#2E3092"/>
</svg>
