<svg width="21" height="22" viewBox="0 0 21 22" fill="none" xmlns="http://www.w3.org/2000/svg">
<path fill-rule="evenodd" clipRule="evenodd" d="M19.4332 7.34599C19.3942 7.26579 19.3885 7.17222 19.4189 7.08819C19.4485 7.00417 19.5113 6.93542 19.5923 6.89723C19.6733 6.85999 19.7656 6.85713 19.8495 6.88863C19.9333 6.9211 20 6.98507 20.0352 7.06718C20.3524 7.75465 20.5933 8.47458 20.7553 9.21458C21.3715 12.0256 20.8124 14.9663 19.2094 17.3535C17.6064 19.7405 15.0977 21.3646 12.2678 21.8498C9.43812 22.3339 6.53385 21.6359 4.23086 19.9182C1.92875 18.2005 0.42758 15.6121 0.0781702 12.7561C-0.271386 9.89916 0.561078 7.02438 2.38123 4.79955C4.20138 2.57387 6.85114 1.19318 9.71323 0.97735L9.29701 0.570589C9.23415 0.509481 9.19796 0.424501 9.197 0.336659C9.19605 0.248817 9.22939 0.163837 9.2913 0.0998643C9.41893 -0.0309466 9.62942 -0.0338114 9.76087 0.0941355L10.7133 1.02604C10.7867 1.08905 10.8305 1.18072 10.8314 1.27714C10.8324 1.37454 10.7914 1.46715 10.719 1.53113L9.78943 2.48594C9.6618 2.6177 9.45131 2.62057 9.31986 2.49167C9.18937 2.36372 9.18652 2.15271 9.31415 2.02189L9.67799 1.64857V1.64761C6.88344 1.88441 4.32321 3.30614 2.64127 5.55561C0.959221 7.80516 0.315336 10.6677 0.872539 13.4225C1.42974 16.1779 3.13368 18.5631 5.55678 19.9782C7.97988 21.3932 10.8906 21.7035 13.5566 20.8308C16.2227 19.9581 18.3894 17.9854 19.5115 15.4093C20.6345 12.8332 20.6057 9.8991 19.4332 7.34599ZM13.3499 8.61494C12.4641 7.72697 11.2154 7.30207 9.97234 7.4663C8.73031 7.63053 7.63405 8.36384 7.00735 9.45232C6.38063 10.5408 6.2949 11.8594 6.774 13.0206C7.25405 14.1807 8.24459 15.0524 9.45516 15.377C10.6667 15.7026 11.9593 15.4448 12.9537 14.68C13.948 13.9152 14.5309 12.7303 14.5309 11.4738C14.5319 10.4015 14.1071 9.37298 13.3499 8.61494ZM3.9185 9.36162L6.05868 9.93642C6.35966 9.06468 6.90923 8.29987 7.63978 7.73843C8.36937 7.17699 9.2485 6.84185 10.1666 6.77693V4.55603C8.76077 4.62478 7.40911 5.12129 6.29285 5.97966C5.17657 6.83804 4.34805 8.01816 3.9185 9.36162ZM5.88724 10.58L3.74706 10.0042C3.31655 11.994 3.78135 14.0735 5.01764 15.6892C6.25489 17.3048 8.13795 18.292 10.1666 18.3905V16.1705C8.9808 16.0855 7.87212 15.5547 7.06265 14.6829C6.25211 13.8112 5.80158 12.6644 5.80158 11.4738C5.80158 11.173 5.83015 10.8741 5.88635 10.5791L5.88724 10.58ZM13.5765 7.91687L15.1433 6.34619C13.9574 5.26438 12.4326 4.63134 10.8314 4.55591V6.77681C11.8457 6.84746 12.8097 7.24754 13.5765 7.91687ZM15.6128 6.81692L14.046 8.3876L14.047 8.38664C14.8137 9.27176 15.2233 10.4118 15.1956 11.5843C15.168 12.7559 14.7051 13.8749 13.8984 14.7228C13.0916 15.5717 11.9982 16.0873 10.8315 16.1704V18.3912V18.3903C12.585 18.3053 14.2402 17.5548 15.4613 16.2907C16.6824 15.0265 17.3777 13.344 17.4063 11.5843C17.4349 9.82467 16.7939 8.12023 15.6137 6.81789L15.6128 6.81692Z" fill="#2E3092"/>
</svg>
