<svg width="21" height="20" viewBox="0 0 21 20" fill="none" xmlns="http://www.w3.org/2000/svg">
<path d="M8.99983 10.8666L11.8874 12.9629L8.99983 15.0592V10.8666ZM20.9855 8.40737L19.8155 18.037C19.672 19.1629 18.6998 20.0055 17.5503 19.9999H3.4497C2.30026 20.0055 1.32805 19.1629 1.1846 18.037L0.014543 8.40737C-0.0576475 7.78146 0.14111 7.15459 0.562056 6.68147C0.998948 6.19905 1.6243 5.92407 2.27962 5.92591H18.7204C19.3757 5.92406 20.0011 6.19905 20.4379 6.68147C20.8589 7.15461 21.0577 7.78146 20.9855 8.40737ZM13.5 12.963C13.5 12.538 13.2938 12.138 12.945 11.8889L9.67487 9.51855C9.25578 9.22133 8.70356 9.17874 8.24229 9.40744C7.78759 9.63151 7.49974 10.0908 7.49974 10.5926V15.3333C7.49974 15.8352 7.78756 16.2945 8.24229 16.5185C8.43542 16.6148 8.64824 16.6648 8.86483 16.6667C9.15546 16.6657 9.4386 16.575 9.67487 16.4074L12.945 14.037C13.2938 13.788 13.5 13.388 13.5 12.963ZM2.24953 4.44437H18.7503C19.1647 4.44437 19.5003 4.1129 19.5003 3.70363C19.5003 3.29436 19.1647 2.96289 18.7503 2.96289H2.24953C1.83512 2.96289 1.49949 3.29436 1.49949 3.70363C1.49949 4.1129 1.83512 4.44437 2.24953 4.44437ZM3.74959 1.48141H17.2502C17.6646 1.48141 18.0002 1.14994 18.0002 0.740677C18.0002 0.33141 17.6646 -6.10352e-05 17.2502 -6.10352e-05H3.74959C3.33519 -6.10352e-05 2.99956 0.33141 2.99956 0.740677C2.99956 1.14994 3.33519 1.48141 3.74959 1.48141Z" fill="#2E3092"/>
</svg>
