<svg width="21" height="23" viewBox="0 0 21 23" fill="none" xmlns="http://www.w3.org/2000/svg">
<path fill-rule="evenodd" clipRule="evenodd" d="M0.598435 16.2211H2.25659C2.56078 16.2211 2.80891 16.4599 2.80891 16.75V22.0432C2.80891 22.3345 2.55959 22.5721 2.25659 22.5721H0.598435C0.294244 22.5721 0.0461148 22.3334 0.0461148 22.0432L0.0449219 16.75C0.0449219 16.4587 0.294244 16.2211 0.598435 16.2211ZM3.9876 17.1087V21.0676C3.9876 21.0951 4.01146 21.1179 4.04009 21.1179C5.24136 21.119 6.46647 21.1556 7.64273 21.3178C8.71515 21.4663 9.86154 21.8535 10.8911 21.7724C12.22 21.6685 13.6694 20.8221 14.7634 20.1424C16.4525 19.0939 18.49 17.4285 19.9598 16.0943C20.3368 15.7516 20.0326 15.2136 19.6425 15.144C19.4111 15.1028 19.2667 15.2079 19.0699 15.3141C17.1792 16.3342 14.9829 17.5198 13.566 17.9733C13.3369 18.0464 13.1007 18.1058 12.8574 18.1492C12.0402 18.2965 12.379 18.4484 11.7921 18.75C11.4784 18.9111 11.0966 18.9636 10.7232 18.8882C9.98244 18.7386 8.90287 18.4496 8.2575 18.4679C7.77914 18.4816 7.23516 18.6244 6.77351 18.79C6.57071 18.862 6.34526 18.7637 6.27011 18.5695C6.19496 18.3754 6.29755 18.1595 6.50034 18.0875C8.31238 17.4399 8.96132 17.7677 10.882 18.1538C11.5238 18.2829 11.9115 17.7391 11.6598 17.2903C11.5823 17.152 11.451 17.0424 11.284 16.9944L7.91654 16.0224C7.0803 15.7814 6.40751 16.1035 5.70249 16.4427C4.98673 16.7865 4.7744 16.8756 4.02645 17.0595C4.00378 17.0653 3.98827 17.0858 3.98827 17.1087L3.9876 17.1087ZM4.24408 4.32151H3.8683C3.85399 4.32151 3.84086 4.32608 3.83132 4.33636L3.53667 4.61849C3.52594 4.62877 3.52117 4.6402 3.52117 4.6539L3.52236 14.0304C3.52236 14.2097 3.67744 14.3582 3.86473 14.3582H13.823C14.0091 14.3582 14.1654 14.2097 14.1654 14.0304L14.1642 2.8775C14.1642 2.69817 14.0091 2.54968 13.8218 2.54968H5.71967C5.70535 2.54968 5.69223 2.55425 5.68269 2.56453L5.38804 2.84666C5.3773 2.85694 5.37253 2.86836 5.37253 2.88207V3.24188C5.37253 3.83469 4.86438 4.32151 4.24408 4.32151ZM11.089 8.46089C11.089 8.25301 11.2643 8.08509 11.4815 8.08509C11.6986 8.08509 11.874 8.253 11.874 8.46089V9.33699C11.874 9.54488 11.6986 9.7128 11.4815 9.7128H10.5665C10.3494 9.7128 10.174 9.54489 10.174 9.33699C10.174 9.1291 10.3494 8.96118 10.5665 8.96118H11.0365C11.0652 8.96118 11.089 8.93834 11.089 8.91092L11.089 8.46089ZM6.37231 8.46089C6.37231 8.25301 6.54767 8.08509 6.76479 8.08509C6.9819 8.08509 7.15727 8.253 7.15727 8.46089V8.91094C7.15727 8.93836 7.18113 8.9612 7.20976 8.9612H7.67978C7.89689 8.9612 8.07226 9.12911 8.07226 9.33701C8.07226 9.5449 7.8969 9.71282 7.67978 9.71282H6.76481C6.5477 9.71282 6.37233 9.54491 6.37233 9.33701L6.37231 8.46089ZM11.8754 6.15245C11.8754 6.36034 11.7 6.52826 11.4829 6.52826C11.2658 6.52826 11.0904 6.36035 11.0904 6.15245L11.0892 5.70354C11.0892 5.67613 11.0653 5.65328 11.0367 5.65328H10.5667C10.3496 5.65328 10.1742 5.48537 10.1742 5.27747C10.1742 5.06959 10.3496 4.90167 10.5667 4.90167H11.4817C11.6988 4.90167 11.8741 5.06957 11.8741 5.27747L11.8754 6.15245ZM7.15746 6.15245C7.15746 6.36034 6.9821 6.52826 6.76497 6.52826C6.54786 6.52826 6.37249 6.36035 6.37249 6.15245V5.27636C6.37249 5.06847 6.54785 4.90055 6.76497 4.90055H7.67994C7.89705 4.90055 8.07242 5.06846 8.07242 5.27636C8.07242 5.48425 7.89706 5.65216 7.67994 5.65216H7.20992C7.18129 5.65216 7.15743 5.67501 7.15743 5.70242L7.15746 6.15245ZM5.03408 11.7507C4.81697 11.7507 4.6416 11.5828 4.6416 11.3749C4.6416 11.167 4.81696 10.9991 5.03408 10.9991H12.6531C12.8703 10.9991 13.0456 11.167 13.0456 11.3749C13.0456 11.5828 12.8703 11.7507 12.6531 11.7507H5.03408ZM5.03408 13.4675C4.81697 13.4675 4.6416 13.2995 4.6416 13.0916C4.6416 12.8838 4.81696 12.7158 5.03408 12.7158H12.6531C12.8703 12.7158 13.0456 12.8837 13.0456 13.0916C13.0456 13.2995 12.8703 13.4675 12.6531 13.4675H5.03408ZM16.0029 0.371793C16.6054 0.371793 17.098 0.843541 17.098 1.42035V12.6063C17.098 13.1831 16.6053 13.6548 16.0029 13.6548H15.0033C14.9746 13.6548 14.9508 13.6777 14.9508 13.7051V14.0318C14.9508 14.6257 14.4438 15.1112 13.8235 15.1112H3.86516C3.24486 15.1112 2.73667 14.6257 2.73667 14.0318V4.34212C2.73667 4.32842 2.74144 4.31585 2.75218 4.30672L5.35748 1.81209C5.36822 1.80181 5.38015 1.79724 5.39446 1.79724H6.60648C6.63511 1.79724 6.65897 1.7744 6.65897 1.74699V1.39177C6.66612 0.836651 7.16716 0.370605 7.75286 0.370605L16.0029 0.371793Z" fill="#2E3092"/>
</svg>
