<svg width="71" height="64" viewBox="0 0 71 64" fill="none" xmlns="http://www.w3.org/2000/svg">
<path d="M40.5549 50.7429C40.5913 50.5972 40.7006 50.4879 40.8463 50.4758L44.4161 49.9779C44.6104 49.9536 44.744 49.7958 44.744 49.6137V44.9146C44.744 44.7325 44.6104 44.5746 44.4161 44.5503L40.8463 44.0525C40.7006 44.0404 40.5913 43.9311 40.5549 43.7975C40.2634 42.7654 39.8627 41.7819 39.3406 40.8713C39.2678 40.7377 39.2799 40.592 39.3649 40.4706L41.5384 37.5929C41.6477 37.4472 41.6355 37.2408 41.502 37.1072L38.1872 33.7924C38.0536 33.6588 37.8472 33.6467 37.7015 33.7559L34.8359 35.9294C34.7145 36.0266 34.5566 36.0266 34.4352 35.9537C33.5245 35.4437 32.541 35.0309 31.5089 34.7516C31.3632 34.7152 31.2661 34.5938 31.2418 34.4481L30.744 30.8782C30.7197 30.6961 30.5619 30.5625 30.3797 30.5625H25.6929C25.5107 30.5625 25.3529 30.6961 25.3286 30.8782L24.8308 34.4481C24.8065 34.5938 24.7093 34.7152 24.5636 34.7516C23.5316 35.0309 22.548 35.4437 21.6374 35.9537C21.516 36.0266 21.3581 36.0266 21.2367 35.9294L18.3711 33.7559C18.2254 33.6467 18.0068 33.6588 17.8854 33.7924L14.5706 37.1072C14.437 37.2408 14.4249 37.4472 14.5342 37.5929L16.7077 40.4706C16.7927 40.592 16.8048 40.7377 16.732 40.8713C16.2098 41.7819 15.8091 42.7654 15.5177 43.7975C15.4813 43.9311 15.3599 44.0404 15.2263 44.0525L11.6565 44.5503C11.4622 44.5746 11.3286 44.7325 11.3286 44.9146V49.6137C11.3286 49.7958 11.4622 49.9536 11.6565 49.9779L15.2263 50.4758C15.3599 50.4879 15.4813 50.5972 15.5177 50.7429C15.8091 51.7628 16.2098 52.7463 16.732 53.657C16.8048 53.7906 16.7927 53.9363 16.7077 54.0577L14.5342 56.9354C14.4249 57.0811 14.4371 57.2875 14.5706 57.4211L17.8854 60.7359C18.0068 60.8695 18.2254 60.8816 18.3711 60.7723L21.2367 58.5989C21.3581 58.5017 21.516 58.5017 21.6374 58.5746C22.5481 59.0845 23.5316 59.4974 24.5636 59.7767C24.7093 59.8131 24.8065 59.9345 24.8308 60.0802L25.3286 63.6501C25.3529 63.8322 25.5107 63.9658 25.6929 63.9658H30.3797C30.5619 63.9658 30.7197 63.8322 30.744 63.6501L31.2418 60.0802C31.2661 59.9345 31.3632 59.8131 31.5089 59.7767C32.541 59.4974 33.5246 59.0846 34.4352 58.5746C34.5566 58.5017 34.7145 58.5017 34.8238 58.5989L37.7015 60.7723C37.8472 60.8816 38.0536 60.8695 38.1871 60.7359L41.502 57.4211C41.6355 57.2875 41.6477 57.0811 41.5384 56.9354L39.3649 54.0577C39.2799 53.9363 39.2678 53.7906 39.3406 53.657C39.8627 52.7463 40.2634 51.7628 40.5549 50.7429ZM28.0365 53.7542C24.4545 53.7542 21.5525 50.84 21.5525 47.2702C21.5525 43.7003 24.4545 40.774 28.0365 40.774C31.6185 40.774 34.5205 43.6882 34.5205 47.2702C34.5205 50.8521 31.6185 53.7542 28.0365 53.7542Z" fill="white"/>
<path d="M66.3329 18.3823C66.4421 18.2366 66.43 18.0301 66.2964 17.8966L62.2652 13.8654C62.1316 13.7318 61.9252 13.7196 61.7795 13.8289L58.2704 16.4881C58.149 16.5731 57.9912 16.5852 57.8697 16.5124C56.7648 15.8688 55.5749 15.371 54.3121 15.0311C54.1785 14.9946 54.0692 14.8732 54.045 14.7275L53.45 10.3684C53.4257 10.1863 53.2679 10.0527 53.0736 10.0527H47.3667C47.1724 10.0527 47.0146 10.1863 46.9903 10.3684L46.3953 14.7275C46.371 14.8732 46.2617 14.9946 46.1282 15.0311C44.8654 15.3711 43.6755 15.8689 42.5583 16.5124C42.4369 16.5852 42.279 16.5731 42.1576 16.4881L38.6607 13.8289C38.515 13.7197 38.3085 13.7318 38.175 13.8654L35.8679 16.1602L34.1316 17.8966C33.998 18.0301 33.9858 18.2366 34.0951 18.3823L36.7543 21.8914C36.8393 22.0128 36.8514 22.1706 36.7786 22.292C36.1472 23.4091 35.6494 24.5869 35.3094 25.8619C35.273 25.9955 35.1515 26.1047 35.0058 26.129L30.6468 26.724C30.4646 26.7483 30.3311 26.9061 30.3311 27.1004V28.1325H30.3796C31.776 28.1325 32.9659 29.1646 33.1481 30.5488L33.4759 32.8315C33.7794 32.953 34.0952 33.0744 34.3987 33.2201L36.2443 31.8237C36.7179 31.4595 37.325 31.253 37.9321 31.253C38.6728 31.253 39.3771 31.5444 39.9113 32.0787L43.2261 35.3935C44.2096 36.377 44.3189 37.9434 43.4811 39.0605L42.0847 40.9061C42.2183 41.2097 42.3397 41.5132 42.4612 41.8289L44.756 42.1446C46.1281 42.3268 47.1723 43.5288 47.1723 44.9131V49.6121C47.1723 49.6729 47.1723 49.7214 47.1602 49.7821C47.2209 49.8186 47.2938 49.8428 47.3666 49.8428H53.0735C53.2678 49.8428 53.4256 49.7093 53.4499 49.5271L54.0449 45.1559C54.0692 45.0224 54.1663 44.901 54.312 44.8645C55.5748 44.5245 56.7647 44.0145 57.8697 43.3832C57.9911 43.3104 58.1489 43.3225 58.2704 43.4075L61.7795 46.0667C61.9252 46.1759 62.1316 46.1638 62.2651 46.0302L66.2964 41.999C66.4299 41.8654 66.4421 41.659 66.3328 41.5133L63.6858 38.0042C63.6008 37.8828 63.5887 37.725 63.6615 37.6035C64.2929 36.4865 64.7907 35.2965 65.1307 34.0337C65.1672 33.9001 65.2886 33.7908 65.4343 33.7666L69.7934 33.1716C69.9755 33.1352 70.1091 32.9895 70.1091 32.7952V27.1005C70.1091 26.9062 69.9755 26.7484 69.7934 26.7241L65.4343 26.1291C65.2886 26.1048 65.1671 25.9955 65.1307 25.862C64.7907 24.5871 64.2929 23.4093 63.6615 22.2921C63.5887 22.1707 63.6008 22.0128 63.6858 21.8914L66.3329 18.3823ZM50.2204 37.6638C45.9585 37.6638 42.4979 34.2154 42.4979 29.9413C42.4979 25.6672 45.9585 22.2188 50.2204 22.2188C54.4823 22.2188 57.9429 25.6793 57.9429 29.9413C57.9429 34.2032 54.4823 37.6638 50.2204 37.6638Z" fill="white"/>
<path d="M3.77611 31.4484C3.66684 31.6063 3.67897 31.8127 3.81254 31.9341L7.84376 35.9774C7.97733 36.111 8.18375 36.1232 8.32945 36.0139L11.8385 33.3547C11.96 33.2576 12.1178 33.2576 12.2392 33.3304C12.8221 33.6583 13.417 33.9497 14.0363 34.2047L16.1612 32.0798C16.6955 31.5455 17.3997 31.2541 18.1404 31.2541C18.7475 31.2541 19.3546 31.4605 19.8282 31.8248L19.8768 31.8612L21.6738 33.2211C21.9774 33.0754 22.2931 32.954 22.5966 32.8326L22.9123 30.5498C23.1066 29.1657 24.2965 28.1335 25.6929 28.1335H27.9028V27.1014C27.9028 25.6929 28.9471 24.503 30.3312 24.3209L33.379 23.8959C33.5732 23.3616 33.7797 22.8395 34.0346 22.3174L32.1648 19.8526C32.1526 19.8404 32.1526 19.8283 32.1405 19.8161C31.3148 18.699 31.4484 17.1448 32.4198 16.1735L34.1561 14.4492L34.3018 14.3035C34.0347 13.5871 33.7069 12.895 33.3305 12.2394C33.2576 12.1058 33.2697 11.948 33.3547 11.8387L36.0139 8.32959C36.1232 8.18388 36.1111 7.97747 35.9775 7.8439L31.9341 3.80056C31.8006 3.67913 31.5942 3.66699 31.4485 3.77627L27.9515 6.42324C27.8301 6.50824 27.6722 6.52038 27.5508 6.44752C26.4337 5.81613 25.2437 5.31832 23.9809 4.97833C23.8474 4.94191 23.7381 4.82049 23.7138 4.67478L23.1188 0.315698C23.0946 0.133561 22.9367 0 22.7424 0H17.0355C16.8413 0 16.6834 0.133569 16.6591 0.315698L16.0642 4.67478C16.0399 4.82049 15.9306 4.94191 15.797 4.97833C14.5342 5.31832 13.3443 5.81613 12.2394 6.44752C12.118 6.52038 11.9601 6.50824 11.8387 6.42324L8.3296 3.77627C8.18389 3.667 7.97747 3.67913 7.84391 3.80056L3.81268 7.8439C3.67911 7.97747 3.66698 8.18388 3.77626 8.32959L6.42323 11.8387C6.50823 11.948 6.52036 12.1058 6.44751 12.2394C5.81611 13.3443 5.3183 14.5342 4.97832 15.797C4.94189 15.9306 4.82047 16.0399 4.6869 16.052L0.315698 16.6713C0.133561 16.6956 0 16.8534 0 17.0355V22.7424C0 22.9246 0.133569 23.0824 0.315698 23.1067L4.67478 23.7138C4.82049 23.7381 4.94191 23.8352 4.97833 23.9809C5.31832 25.2316 5.81613 26.4336 6.44753 27.5508C6.52038 27.6722 6.50824 27.8301 6.42324 27.9393L3.77611 31.4484ZM19.8886 12.1669C24.1505 12.1669 27.611 15.6274 27.611 19.8894C27.611 24.1513 24.1505 27.6119 19.8886 27.6119C15.6266 27.6119 12.1661 24.1513 12.1661 19.8894C12.1661 15.6274 15.6266 12.1669 19.8886 12.1669Z" fill="white"/>
</svg>
