<svg width="72" height="69" viewBox="0 0 72 69" fill="none" xmlns="http://www.w3.org/2000/svg">
<path fillRule="evenodd" clipRule="evenodd" d="M57.0695 40.3728L52.6144 40.2876L54.7435 38.4609L57.1018 38.505C57.6627 38.5167 58.1679 38.7458 58.532 39.1129C58.7992 39.3831 58.9931 39.7238 59.0753 40.1085H70.2497C70.2761 40.1055 70.3055 40.1055 70.3319 40.1055C70.8488 40.1055 71.2688 40.5255 71.2688 41.0424V55.785C71.2688 56.3048 70.8488 56.7247 70.3319 56.7247C69.815 56.7247 69.3951 56.3048 69.3951 55.785L69.3922 41.9762H59.1162L59.0545 63.0243H69.3921V61.2358C69.3921 60.7189 69.8121 60.2989 70.329 60.2989C70.8459 60.2989 71.2658 60.7189 71.2658 61.2358V63.9612C71.2658 64.478 70.8459 64.898 70.329 64.898H59.0192C58.9488 65.3297 58.7403 65.7204 58.4466 66.014C58.0795 66.3782 57.5773 66.6043 57.0222 66.6043H56.9899L51.4187 66.4986C50.8578 66.4868 50.3526 66.2578 49.9885 65.8907C49.6214 65.5206 49.3953 65.0155 49.3982 64.4545V64.3723C43.6098 65.2093 41.3928 68.3752 35.8744 68.3752H23.7218C18.6147 68.3752 18.6147 60.6569 23.7218 60.6539L21.064 60.6569C15.9568 60.6569 15.9568 52.9356 21.064 52.9356C15.9568 52.9356 15.9568 45.2173 21.064 45.2173H19.2931C14.1888 45.2173 14.1859 37.4938 19.2931 37.4991L28.5353 37.5079C27.2636 33.7341 26.9788 29.916 27.4046 24.1457C27.7717 19.156 35.2574 18.6861 35.3755 24.1457C35.4489 27.5289 35.8219 30.3453 36.6089 32.6564C35.6133 32.765 34.7822 33.4376 34.4709 34.395C34.1537 35.3729 34.4532 36.4331 35.2315 37.1027L38.9378 40.2892L37.81 45.0439C37.5721 46.0453 37.9569 47.0762 38.788 47.6812C39.6192 48.2862 40.7234 48.3302 41.5986 47.7957L45.7718 45.2524L49.948 47.7957C50.3679 48.0512 50.8408 48.1746 51.3107 48.1657L51.2666 64.4533C51.2666 64.5003 51.2842 64.5414 51.3165 64.5708C51.3518 64.606 51.3988 64.6295 51.4516 64.6295L57.0228 64.7382H57.0316C57.0698 64.7353 57.105 64.7176 57.1344 64.6912C57.1667 64.6589 57.1873 64.6178 57.1873 64.5737V64.559L57.1902 64.0392C57.1873 64.0128 57.1873 63.9864 57.1873 63.9599C57.1873 63.9306 57.1902 63.9012 57.1902 63.8748L57.2578 41.041L57.2607 40.5476C57.2607 40.5036 57.2431 40.4595 57.2108 40.4302C57.1697 40.3949 57.1227 40.3714 57.0698 40.3714L57.0695 40.3728ZM46.3853 28.4669C46.2796 28.2143 46.0476 28.0616 45.7745 28.0616C45.5013 28.0616 45.2693 28.2173 45.1636 28.4669L42.9962 33.6592C42.8993 33.8941 42.6938 34.0439 42.4382 34.0644L36.8289 34.5226C36.5558 34.5431 36.3385 34.7193 36.2533 34.9778C36.1682 35.2392 36.2445 35.5064 36.4501 35.6856L40.7173 39.3536C40.9111 39.5181 40.9904 39.7619 40.9288 40.0086L39.6307 45.4828C39.5661 45.75 39.663 46.0114 39.8862 46.17C40.1064 46.3315 40.3854 46.3403 40.6204 46.1993L45.4279 43.2743C45.6452 43.1421 45.9008 43.1421 46.1151 43.2743L50.9227 46.1993C51.1547 46.3403 51.4337 46.3315 51.6569 46.17C51.8772 46.0084 51.9741 45.7471 51.9124 45.4828L50.6143 40.0086C50.5556 39.7619 50.6348 39.5181 50.8257 39.3536L55.093 35.6856C55.3015 35.5064 55.3749 35.2392 55.2897 34.9778C55.2046 34.7193 54.9872 34.5461 54.7141 34.5226L49.1048 34.0644C48.8522 34.0439 48.6467 33.8941 48.5468 33.6592L46.3853 28.4669ZM14.3913 0.575614C14.2445 0.220255 13.9126 0 13.5279 0C13.1403 0 12.8114 0.220263 12.6645 0.575614L9.59558 7.92938C9.45756 8.26125 9.16387 8.4727 8.80556 8.50206L0.864769 9.14816C0.480044 9.18047 0.168743 9.42422 0.04836 9.79133C-0.0720525 10.1584 0.0366127 10.5402 0.327355 10.7928L6.37137 15.985C6.64449 16.22 6.75609 16.5636 6.67092 16.9131L4.83248 24.6659C4.74438 25.0418 4.88241 25.4119 5.19371 25.641C5.50501 25.8671 5.90149 25.8847 6.23041 25.6821L13.035 21.5382C13.3434 21.3503 13.7017 21.3503 14.0101 21.5382L20.8147 25.6821C21.1436 25.8818 21.5401 25.8671 21.8514 25.641C22.1627 25.4148 22.3008 25.0419 22.2126 24.6659L20.3742 16.9131C20.292 16.5636 20.4036 16.22 20.6767 15.988L26.7207 10.7957C27.0114 10.5431 27.1201 10.1613 26.9997 9.79426C26.8793 9.42716 26.568 9.18046 26.1833 9.15109L18.2425 8.50206C17.8842 8.47269 17.5935 8.26124 17.4554 7.92937L14.3913 0.575614Z" fill="white"/>
</svg>
