<svg width="69" height="64" viewBox="0 0 69 64" fill="none" xmlns="http://www.w3.org/2000/svg">
<path fill-rule="evenodd" clip-rule="evenodd" d="M45.704 0H2.05547C1.51155 0.00395595 0.991026 0.221784 0.606405 0.606405C0.221784 0.991026 0.00395595 1.51155 0 2.05547V8.85665C0.00395595 9.40057 0.221784 9.9211 0.606405 10.3057C0.991026 10.6903 1.51155 10.9082 2.05547 10.9121H45.704C46.2472 10.9081 46.7669 10.6901 47.1503 10.3052C47.5337 9.92041 47.7499 9.39988 47.7519 8.85665V2.05547C47.7499 1.51224 47.5337 0.991711 47.1503 0.60688C46.7669 0.222049 46.2472 0.00397614 45.704 0ZM6.40823 6.42334C6.27555 6.43515 6.14186 6.41921 6.01568 6.37653C5.88949 6.33386 5.77358 6.26538 5.6753 6.17546C5.57702 6.08555 5.49854 5.97615 5.44485 5.85425C5.39116 5.73235 5.36343 5.6006 5.36343 5.4674C5.36343 5.33419 5.39116 5.20245 5.44485 5.08054C5.49854 4.95864 5.57702 4.84925 5.6753 4.75933C5.77358 4.66941 5.88949 4.60093 6.01568 4.55826C6.14186 4.51558 6.27555 4.49964 6.40823 4.51145H17.0861C17.3249 4.53271 17.5472 4.64262 17.7091 4.81955C17.871 4.99647 17.9607 5.22759 17.9607 5.4674C17.9607 5.7072 17.871 5.93832 17.7091 6.11524C17.5472 6.29217 17.3249 6.40208 17.0861 6.42334H6.40823ZM26.9705 2.74314C27.5078 2.74617 28.0322 2.90779 28.478 3.20772C28.9237 3.50764 29.271 3.93253 29.4763 4.42908C29.6815 4.92562 29.7355 5.47172 29.6316 5.99886C29.5277 6.52599 29.2704 7.0107 28.892 7.39219C28.5137 7.77367 28.0311 8.03493 27.5048 8.1432C26.9786 8.25147 26.432 8.20193 25.9338 8.00079C25.4356 7.79965 25.0079 7.45587 24.7043 7.01257C24.4007 6.56927 24.2348 6.0462 24.2273 5.50896C24.2273 4.78544 24.5147 4.09156 25.0264 3.57995C25.538 3.06835 26.2318 2.78093 26.9554 2.78093L26.9705 2.74314ZM34.618 2.74314C35.1553 2.74617 35.6797 2.90779 36.1255 3.20772C36.5713 3.50764 36.9186 3.93253 37.1238 4.42908C37.329 4.92562 37.3831 5.47172 37.2792 5.99886C37.1752 6.52599 36.9179 7.0107 36.5396 7.39219C36.1612 7.77367 35.6786 8.03493 35.1524 8.1432C34.6261 8.25147 34.0796 8.20193 33.5814 8.00079C33.0832 7.79965 32.6554 7.45587 32.3518 7.01257C32.0483 6.56927 31.8823 6.0462 31.8749 5.50896C31.8749 4.78544 32.1623 4.09156 32.6739 3.57995C33.1855 3.06835 33.8794 2.78093 34.6029 2.78093L34.618 2.74314ZM42.2656 2.74314C42.8029 2.74617 43.3273 2.90779 43.7731 3.20772C44.2188 3.50764 44.5661 3.93253 44.7714 4.42908C44.9766 4.92562 45.0306 5.47172 44.9267 5.99886C44.8228 6.52599 44.5655 7.0107 44.1871 7.39219C43.8088 7.77367 43.3262 8.03493 42.7999 8.1432C42.2737 8.25147 41.7272 8.20193 41.2289 8.00079C40.7307 7.79965 40.303 7.45587 39.9994 7.01257C39.6958 6.56927 39.5299 6.0462 39.5224 5.50896C39.5224 4.78544 39.8099 4.09156 40.3215 3.57995C40.8331 3.06835 41.5269 2.78093 42.2505 2.78093L42.2656 2.74314ZM42.0162 18.5521V12.8542H5.74322V18.5521H42.0162ZM6.40823 26.8647C6.27555 26.8765 6.14186 26.8605 6.01568 26.8179C5.88949 26.7752 5.77358 26.7067 5.6753 26.6168C5.57702 26.5269 5.49854 26.4175 5.44485 26.2956C5.39116 26.1737 5.36343 26.0419 5.36343 25.9087C5.36343 25.7755 5.39116 25.6438 5.44485 25.5219C5.49854 25.4 5.57702 25.2906 5.6753 25.2007C5.77358 25.1107 5.88949 25.0423 6.01568 24.9996C6.14186 24.9569 6.27555 24.941 6.40823 24.9528H17.0861C17.3249 24.974 17.5472 25.084 17.7091 25.2609C17.871 25.4378 17.9607 25.6689 17.9607 25.9087C17.9607 26.1485 17.871 26.3797 17.7091 26.5566C17.5472 26.7335 17.3249 26.8434 17.0861 26.8647H6.40823ZM26.9705 23.1845C27.5094 23.1875 28.0353 23.35 28.4819 23.6516C28.9286 23.9531 29.2759 24.3802 29.48 24.879C29.6842 25.3777 29.7361 25.9257 29.6291 26.4539C29.5222 26.9821 29.2612 27.4668 28.879 27.8468C28.4969 28.2268 28.0108 28.4851 27.482 28.5892C26.9533 28.6932 26.4055 28.6383 25.9079 28.4314C25.4103 28.2245 24.9852 27.8748 24.6861 27.4265C24.387 26.9783 24.2273 26.4514 24.2273 25.9125C24.2263 25.554 24.2962 25.1988 24.433 24.8674C24.5697 24.5359 24.7706 24.2348 25.0241 23.9813C25.2776 23.7278 25.5788 23.5269 25.9102 23.3901C26.2416 23.2534 26.5968 23.1835 26.9554 23.1845H26.9705ZM34.618 23.1845C35.1569 23.1875 35.6829 23.35 36.1295 23.6516C36.5761 23.9531 36.9234 24.3802 37.1276 24.879C37.3318 25.3777 37.3836 25.9257 37.2767 26.4539C37.1697 26.9821 36.9087 27.4668 36.5266 27.8468C36.1445 28.2268 35.6584 28.4851 35.1296 28.5892C34.6008 28.6932 34.0531 28.6383 33.5555 28.4314C33.0579 28.2245 32.6327 27.8748 32.3336 27.4265C32.0345 26.9783 31.8749 26.4514 31.8749 25.9125C31.8749 25.189 32.1623 24.4951 32.6739 23.9835C33.1855 23.4719 33.8794 23.1845 34.6029 23.1845H34.618ZM42.2656 23.1845C42.8045 23.1875 43.3304 23.35 43.7771 23.6516C44.2237 23.9531 44.571 24.3802 44.7751 24.879C44.9793 25.3777 45.0312 25.9257 44.9242 26.4539C44.8173 26.9821 44.5563 27.4668 44.1741 27.8468C43.792 28.2268 43.3059 28.4851 42.7771 28.5892C42.2484 28.6932 41.7006 28.6383 41.203 28.4314C40.7054 28.2245 40.2803 27.8748 39.9812 27.4265C39.6821 26.9783 39.5224 26.4514 39.5224 25.9125C39.5224 25.189 39.8099 24.4951 40.3215 23.9835C40.8331 23.4719 41.5269 23.1845 42.2505 23.1845H42.2656ZM6.40823 47.3665C6.27555 47.3783 6.14186 47.3623 6.01568 47.3197C5.88949 47.277 5.77358 47.2085 5.6753 47.1186C5.57702 47.0287 5.49854 46.9193 5.44485 46.7974C5.39116 46.6755 5.36343 46.5437 5.36343 46.4105C5.36343 46.2773 5.39116 46.1456 5.44485 46.0237C5.49854 45.9018 5.57702 45.7924 5.6753 45.7025C5.77358 45.6125 5.88949 45.5441 6.01568 45.5014C6.14186 45.4587 6.27555 45.4428 6.40823 45.4546H17.0861C17.3249 45.4758 17.5472 45.5858 17.7091 45.7627C17.871 45.9396 17.9607 46.1707 17.9607 46.4105C17.9607 46.6503 17.871 46.8815 17.7091 47.0584C17.5472 47.2353 17.3249 47.3452 17.0861 47.3665H6.40823ZM26.9705 43.6787C27.51 43.6787 28.0375 43.8387 28.4861 44.1385C28.9347 44.4382 29.2844 44.8643 29.4908 45.3628C29.6973 45.8613 29.7513 46.4098 29.6461 46.939C29.5408 47.4681 29.281 47.9542 28.8995 48.3358C28.518 48.7173 28.0319 48.9771 27.5027 49.0824C26.9735 49.1876 26.425 49.1336 25.9265 48.9271C25.428 48.7206 25.002 48.371 24.7022 47.9224C24.4024 47.4737 24.2424 46.9463 24.2424 46.4067C24.2424 45.6832 24.5299 44.9893 25.0415 44.4777C25.5531 43.9661 26.247 43.6787 26.9705 43.6787ZM42.2354 32.7137C43.5298 31.9408 44.9299 31.3603 46.3916 30.9907V28.7237C46.3918 28.5969 46.4173 28.4714 46.4666 28.3546C46.5159 28.2379 46.5881 28.1321 46.6788 28.0435L47.7519 26.9629V22.5119C47.7499 21.9694 47.5335 21.4497 47.1498 21.066C46.7662 20.6824 46.2465 20.466 45.704 20.464H2.05547C1.51224 20.466 0.991711 20.6821 0.60688 21.0656C0.222049 21.449 0.00397614 21.9687 0 22.5119V29.3131C0.00397614 29.8563 0.222049 30.3761 0.60688 30.7595C0.991711 31.1429 1.51224 31.359 2.05547 31.361H37.0287C37.3309 31.0663 37.535 30.7943 37.9959 30.7943H39.923C40.1787 30.7963 40.4232 30.8995 40.6031 31.0814L42.2354 32.7137ZM36.3561 38.9859C36.5072 38.6836 36.6659 38.3965 36.8397 38.1093L35.2075 36.4921C35.1187 36.4041 35.0482 36.2993 35.0002 36.1839C34.9522 36.0684 34.9276 35.9446 34.9279 35.8196V33.9077C34.9263 33.6901 35.0012 33.4788 35.1395 33.3107H5.75834V39.0161L36.3561 38.9859ZM35.1168 42.2656C35.2284 41.8135 35.362 41.3671 35.5173 40.928H2.05547C1.51224 40.93 0.991711 41.1461 0.60688 41.5296C0.222049 41.913 0.00397614 42.4327 0 42.9759V49.7771C0.00395595 50.321 0.221784 50.8416 0.606405 51.2262C0.991026 51.6108 1.51155 51.8286 2.05547 51.8326H35.744C35.4931 51.202 35.2836 50.5558 35.1168 49.898H32.8497C32.594 49.896 32.3494 49.7927 32.1696 49.6109L30.8094 48.2582C30.6316 48.0762 30.5314 47.8324 30.5298 47.5781V44.5553C30.5299 44.4285 30.5554 44.3031 30.6047 44.1863C30.6541 44.0695 30.7262 43.9637 30.8169 43.8752L32.1696 42.515C32.3516 42.3372 32.5954 42.237 32.8497 42.2354L35.1168 42.2656ZM56.9184 39.3713C55.5911 38.0436 53.8999 37.1394 52.0586 36.7729C50.2174 36.4065 48.3088 36.5943 46.5744 37.3126C44.8399 38.0309 43.3573 39.2474 42.3143 40.8084C41.2712 42.3693 40.7145 44.2045 40.7145 46.0818C40.7145 47.9591 41.2712 49.7943 42.3143 51.3552C43.3573 52.9162 44.8399 54.1327 46.5744 54.851C48.3088 55.5693 50.2174 55.7571 52.0586 55.3907C53.8999 55.0242 55.5911 54.12 56.9184 52.7923C57.8003 51.9115 58.5 50.8654 58.9774 49.714C59.4548 48.5625 59.7005 47.3283 59.7005 46.0818C59.7005 44.8353 59.4548 43.6011 58.9774 42.4496C58.5 41.2982 57.8003 40.2521 56.9184 39.3713ZM50.2079 34.6785C52.4619 34.6785 54.6654 35.3465 56.54 36.5982C58.4146 37.8499 59.8762 39.6291 60.7402 41.711C61.6042 43.7929 61.8318 46.0842 61.3942 48.2954C60.9567 50.5066 59.8736 52.5385 58.2818 54.1345C56.6901 55.7305 54.661 56.8189 52.451 57.2623C50.241 57.7057 47.9491 57.4842 45.8649 56.6257C43.7807 55.7673 41.9977 54.3104 40.741 52.4391C39.4844 50.5678 38.8105 48.3661 38.8045 46.112C38.8065 43.0883 40.0086 40.189 42.1467 38.0509C44.2848 35.9128 47.1841 34.7107 50.2079 34.7087V34.6785ZM56.7974 51.7872C56.812 51.9147 56.8007 52.0439 56.7642 52.1669C56.7276 52.2899 56.6665 52.4043 56.5847 52.5031C56.5028 52.6019 56.4018 52.6831 56.2877 52.7419C56.1736 52.8007 56.0488 52.8358 55.9208 52.8452C55.6674 52.8639 55.4168 52.7814 55.2242 52.6156C55.0315 52.4499 54.9124 52.2145 54.8931 51.961V51.6437C53.6998 52.649 52.2119 53.2391 50.6539 53.325C49.0959 53.4108 47.5522 52.9878 46.2556 52.1197C46.0452 51.9784 45.8995 51.7593 45.8506 51.5106C45.8017 51.2619 45.8536 51.004 45.9949 50.7935C46.1362 50.5831 46.3553 50.4374 46.604 50.3885C46.8527 50.3396 47.1107 50.3915 47.3211 50.5328C48.222 51.1306 49.2843 51.4381 50.3652 51.4138C51.4461 51.3895 52.4936 51.0345 53.3666 50.3968H53.0719C52.8194 50.4158 52.5696 50.3338 52.3776 50.1687C52.1856 50.0036 52.067 49.7689 52.048 49.5164C52.0289 49.2639 52.111 49.0141 52.2761 48.8221C52.4412 48.6301 52.6758 48.5115 52.9283 48.4924L55.5581 48.2884C55.6832 48.2792 55.8089 48.2947 55.928 48.3342C56.0471 48.3737 56.1572 48.4363 56.252 48.5184C56.3468 48.6006 56.4244 48.7007 56.4804 48.8129C56.5364 48.9252 56.5697 49.0474 56.5783 49.1726L56.7823 51.7948L56.7974 51.7872ZM51.8779 37.6257C51.9809 37.55 52.0981 37.4958 52.2225 37.4664C52.3469 37.437 52.4759 37.4329 52.6019 37.4544C52.7279 37.4759 52.8483 37.5226 52.9558 37.5916C53.0634 37.6606 53.156 37.7506 53.228 37.8561C53.3001 37.9617 53.3502 38.0807 53.3753 38.206C53.4004 38.3313 53.4 38.4604 53.3741 38.5856C53.3483 38.7108 53.2975 38.8295 53.2248 38.9346C53.1521 39.0397 53.059 39.1291 52.951 39.1975L52.6941 39.3789C54.1629 39.9072 55.4198 40.8995 56.2747 42.2057C57.1295 43.5118 57.5359 45.0608 57.4322 46.6183C57.4172 46.8709 57.3025 47.1071 57.1133 47.275C57.0196 47.3582 56.9104 47.4221 56.7921 47.463C56.6737 47.504 56.5484 47.5213 56.4234 47.5138C56.2983 47.5064 56.176 47.4744 56.0633 47.4197C55.9506 47.3649 55.8498 47.2885 55.7667 47.1949C55.5988 47.0057 55.5129 46.7575 55.5279 46.505C55.602 45.4174 55.3383 44.3335 54.7729 43.4015C54.2075 42.4695 53.368 41.7349 52.3691 41.2983L52.5354 41.5401C52.6058 41.6438 52.6552 41.7604 52.6806 41.8832C52.706 42.0059 52.707 42.1325 52.6835 42.2557C52.66 42.3788 52.6124 42.4961 52.5436 42.6009C52.4747 42.7057 52.3859 42.7959 52.2822 42.8664C52.1785 42.9368 52.0619 42.9862 51.9392 43.0116C51.8164 43.037 51.6898 43.038 51.5667 43.0144C51.4435 42.9909 51.3262 42.9434 51.2214 42.8746C51.1166 42.8057 51.0264 42.7169 50.956 42.6132L49.5051 40.4973C49.4204 40.3905 49.3596 40.2668 49.3268 40.1345C49.2941 40.0022 49.2901 39.8644 49.3152 39.7304C49.3402 39.5964 49.3938 39.4694 49.4722 39.3579C49.5506 39.2464 49.652 39.1531 49.7696 39.0841L51.893 37.6257H51.8779ZM42.054 48.961C41.9364 48.91 41.8304 48.8358 41.7422 48.7429C41.654 48.65 41.5854 48.5402 41.5407 48.4201C41.4959 48.3001 41.4758 48.1722 41.4816 48.0442C41.4874 47.9163 41.519 47.7908 41.5745 47.6753C41.6299 47.5598 41.7081 47.4566 41.8044 47.3721C41.9006 47.2875 42.013 47.2232 42.1347 47.1831C42.2563 47.143 42.3849 47.1279 42.5125 47.1386C42.6402 47.1493 42.7644 47.1857 42.8777 47.2456L43.1648 47.3816C42.8909 45.8449 43.1247 44.2608 43.831 42.8688C44.5372 41.4767 45.6774 40.3525 47.0793 39.666C47.1921 39.6048 47.3161 39.5669 47.4438 39.5548C47.5716 39.5427 47.7005 39.5565 47.8227 39.5954C47.945 39.6344 48.0582 39.6977 48.1554 39.7814C48.2526 39.8652 48.3319 39.9678 48.3884 40.083C48.445 40.1981 48.4777 40.3236 48.4846 40.4517C48.4915 40.5799 48.4724 40.7081 48.4284 40.8287C48.3845 40.9492 48.3167 41.0597 48.229 41.1534C48.1413 41.2471 48.0355 41.3221 47.9181 41.3739C46.9422 41.8552 46.1385 42.6257 45.6165 43.5805C45.0945 44.5352 44.8796 45.6277 45.0012 46.709L45.1221 46.4521C45.2343 46.2226 45.4331 46.0471 45.6747 45.9642C45.7944 45.9232 45.9209 45.9061 46.0472 45.9139C46.1734 45.9218 46.2969 45.9544 46.4105 46.01C46.5242 46.0656 46.6257 46.143 46.7094 46.2378C46.7931 46.3326 46.8574 46.443 46.8984 46.5627C46.9395 46.6823 46.9565 46.8089 46.9487 46.9351C46.9408 47.0614 46.9082 47.1848 46.8526 47.2985L45.7191 49.626C45.6688 49.7512 45.5923 49.8643 45.4947 49.9575C45.397 50.0507 45.2806 50.1219 45.1531 50.1663C45.0256 50.2107 44.8902 50.2272 44.7557 50.2149C44.6213 50.2025 44.4912 50.1614 44.3739 50.0945L42.0464 48.9836L42.054 48.961ZM58.9436 34.5954C58.7797 34.7475 58.5682 34.8382 58.345 34.852C58.1218 34.8658 57.9007 34.8018 57.7194 34.6709C56.2567 33.7076 54.6183 33.0425 52.8981 32.7137C52.6854 32.6674 52.4947 32.5502 52.3574 32.3813C52.2201 32.2124 52.1443 32.0019 52.1424 31.7842V29.1091L51.3112 28.308H49.1197L48.3186 29.1091V31.7842C48.3138 32.0116 48.2283 32.2299 48.0774 32.4001C47.9265 32.5704 47.7201 32.6815 47.4949 32.7137C46.6354 32.8808 45.7949 33.134 44.9861 33.4694C44.1936 33.8024 43.4345 34.2098 42.719 34.686C42.5346 34.8306 42.3038 34.9027 42.0699 34.8887C41.8361 34.8748 41.6154 34.7758 41.4494 34.6105L39.53 32.7137H38.3965L36.8397 34.3006V35.4342L38.729 37.3234C38.8943 37.4893 38.9933 37.71 39.0072 37.9439C39.0211 38.1777 38.9491 38.4086 38.8045 38.5929C38.3288 39.3088 37.9214 40.0678 37.5879 40.86C37.2525 41.6688 36.9993 42.5094 36.8322 43.3689C36.7963 43.5938 36.6816 43.7987 36.5085 43.9468C36.3355 44.095 36.1154 44.1767 35.8876 44.1775H33.2049L32.4039 44.9785V47.1851L33.2049 47.9861H35.88C36.1078 47.9869 36.3279 48.0686 36.501 48.2168C36.674 48.3649 36.7888 48.5698 36.8246 48.7947C37.0681 50.0329 37.4774 51.2327 38.0413 52.3616C38.2831 52.7847 38.5249 53.2759 38.797 53.6689C38.9415 53.8533 39.0136 54.0841 38.9997 54.318C38.9858 54.5518 38.8868 54.7725 38.7214 54.9385L36.8322 56.8277V57.9612L38.3889 59.5179H39.5224L41.4117 57.6287C41.5776 57.4633 41.7983 57.3644 42.0321 57.3504C42.266 57.3365 42.4968 57.4086 42.6812 57.5531C43.3968 58.0294 44.1558 58.4368 44.9483 58.7698C45.7571 59.1052 46.5976 59.3583 47.4572 59.5255C47.6821 59.5614 47.887 59.6761 48.0351 59.8491C48.1832 60.0222 48.265 60.2423 48.2657 60.4701V63.1452L49.1197 63.916H51.3112L52.1424 63.115V60.4399C52.1408 60.2196 52.2151 60.0055 52.3527 59.8335C52.4903 59.6615 52.6829 59.5421 52.8981 59.4953C53.7576 59.3281 54.5981 59.0749 55.407 58.7396C56.1994 58.4066 56.9585 57.9992 57.674 57.5229C57.8584 57.3784 58.0893 57.3063 58.3231 57.3202C58.557 57.3341 58.7777 57.4331 58.9436 57.5985L60.8328 59.4877H61.9663L63.5231 57.931V56.7974L61.6338 54.9082C61.4685 54.7423 61.3695 54.5216 61.3556 54.2878C61.3417 54.0539 61.4137 53.823 61.5583 53.6387C62.0345 52.9231 62.4419 52.164 62.7749 51.3716C63.1103 50.5628 63.3635 49.7222 63.5306 48.8627C63.5665 48.6378 63.6812 48.4329 63.8543 48.2848C64.0273 48.1366 64.2474 48.0549 64.4752 48.0541H67.1504L68.0118 47.2153V45.0087L67.2562 44.253L64.5886 44.2077C64.3607 44.22 64.1358 44.1507 63.9544 44.0122C63.7729 43.8737 63.6468 43.6751 63.5986 43.452C63.4339 42.5797 63.1807 41.7264 62.8429 40.9053C62.5099 40.1129 62.1026 39.3538 61.6263 38.6383C61.4818 38.4539 61.4097 38.223 61.4236 37.9892C61.4375 37.7553 61.5365 37.5347 61.7019 37.3687L63.5911 35.4795V34.3082L62.0192 32.7137H60.863L58.9436 34.5954Z" fill="white"/>
</svg>
