<svg width="61" height="61" viewBox="0 0 61 61" fill="none" xmlns="http://www.w3.org/2000/svg">
<path d="M56.4112 34.7148H49.9022C48.7035 34.7148 47.7326 35.6857 47.7326 36.8845C47.7326 38.0833 48.7035 39.0541 49.9022 39.0541H51.1742L43.4801 46.7483C42.558 46.016 41.4053 45.5631 40.1388 45.5631C38.5794 45.5631 37.1827 46.233 36.1927 47.288L28.1654 44.0769C27.9565 41.2753 25.635 39.0541 22.7819 39.0541C19.7905 39.0541 17.3578 41.4869 17.3578 44.4783L9.60121 50.2957C8.97743 50.0489 8.30483 49.9024 7.5943 49.9024C4.60288 49.9024 2.17017 52.3351 2.17017 55.3265C2.17017 58.3179 4.60288 60.7507 7.5943 60.7507C10.5857 60.7507 13.0184 58.3179 13.0184 55.3265C13.0184 54.6567 12.8801 54.022 12.6577 53.4281L19.2019 48.5219C20.1593 49.3709 21.4042 49.9024 22.7818 49.9024C24.3413 49.9024 25.738 49.2325 26.7279 48.1775L34.7553 51.3886C34.9641 54.1902 37.2829 56.4114 40.1387 56.4114C43.1301 56.4114 45.5628 53.9786 45.5628 50.9872C45.5628 50.9303 45.5466 50.876 45.5466 50.8191L54.2411 42.1217V43.3937C54.2411 44.5924 55.212 45.5633 56.4108 45.5633C57.6096 45.5633 58.5804 44.5924 58.5804 43.3937V36.8847C58.5804 35.6859 57.6099 34.7148 56.4112 34.7148Z" fill="white"/>
<path d="M30.3752 6.50977C17.2164 6.50977 6.50903 17.2171 6.50903 30.3759H21.6966C21.6966 25.5837 25.583 21.6973 30.3752 21.6973C31.8424 21.6973 33.2012 22.096 34.4135 22.7361L42.7449 16.4875C43.1761 16.1674 43.7809 16.2081 44.1634 16.5905C44.5458 16.9729 44.5864 17.575 44.2664 18.0089L38.0178 26.3404C38.6552 27.55 39.0538 28.9087 39.0538 30.376H54.2414C54.2414 17.2171 43.5341 6.50977 30.3752 6.50977Z" fill="white"/>
<path d="M29.291 0C21.7247 0.268495 14.8762 3.34668 9.70166 8.16622L12.7012 11.1658C12.7256 11.1902 12.7337 11.2227 12.7554 11.2471C17.3931 6.97294 23.5683 4.33951 30.3758 4.33951H29.291L29.291 0Z" fill="white"/>
<path d="M11.1658 12.7007L8.16622 9.70117C3.11368 15.1253 0 22.3775 0 30.375H4.3393C4.3393 23.5677 6.97274 17.3925 11.2469 12.7547C11.2225 12.733 11.1902 12.7251 11.1658 12.7007Z" fill="white"/>
<path d="M52.5843 9.70117L49.5848 12.7007C49.5604 12.7251 49.5278 12.7333 49.5034 12.7549C53.7776 17.3926 56.411 23.5678 56.411 30.3753H60.7503C60.7503 22.3771 57.6371 15.125 52.5843 9.70117Z" fill="white"/>
<path d="M48.0499 11.1658L51.0494 8.16622C45.8748 3.34689 39.0271 0.26869 31.4601 0V4.3393H30.3752C37.1825 4.3393 43.3577 6.97274 47.9956 11.2469C48.0173 11.2225 48.0255 11.1902 48.0499 11.1658Z" fill="white"/>
<path d="M36.8844 30.3742C36.8844 33.9677 33.9689 36.8831 30.3754 36.8831C26.7819 36.8831 23.8665 33.9677 23.8665 30.3742C23.8665 26.7807 26.7819 23.8652 30.3754 23.8652C33.9689 23.8652 36.8844 26.7807 36.8844 30.3742Z" fill="white"/>
</svg>
