<svg width="62" height="115" viewBox="0 0 62 115" fill="none" xmlns="http://www.w3.org/2000/svg">
<rect x="27" y="37" width="8" height="78" fill="#2E3092"/>
<circle cx="31" cy="31" r="31" fill="#2E3092"/>
<path d="M22.695 45.3768C22.5148 45.3768 22.3371 45.2864 22.221 45.1155C22.0267 44.8278 22.081 44.4215 22.3422 44.2073L37.8429 31.5227L22.3351 18.4159C22.0767 18.1974 22.0283 17.7903 22.2269 17.5055C22.4256 17.2217 22.7957 17.1676 23.0545 17.3866L39.1814 31.0161C39.3281 31.1403 39.4131 31.3324 39.4119 31.5357C39.4103 31.7391 39.3222 31.9299 39.1743 32.0515L23.0474 45.2483C22.9408 45.3349 22.8177 45.3768 22.695 45.3768Z" fill="white"/>
</svg>
