<svg width="332" height="430" viewBox="0 0 332 430" fill="none" xmlns="http://www.w3.org/2000/svg">
<g opacity="0.1">
<mask id="path-1-inside-1_8950_1865" fill="white">
<path d="M329.237 236.697C328.149 234.134 326.827 231.909 325.445 229.952C322.653 226.038 319.615 223.184 316.607 220.761C310.552 215.984 304.477 212.851 298.422 210.113C292.357 207.422 286.302 205.267 280.237 203.368C268.107 199.593 255.958 196.809 243.769 194.386C219.392 189.598 194.867 186.301 170.294 183.237C145.73 180.173 121.108 177.506 96.6815 174.209C84.483 172.543 72.3042 170.725 60.3898 168.326C54.4424 167.114 48.544 165.751 42.92 164.027C40.1178 163.165 37.3743 162.198 34.8562 161.091C33.6021 160.532 32.4067 159.938 31.3485 159.32C30.3002 158.703 29.3694 158.039 28.8109 157.515C28.5267 157.258 28.37 157.049 28.3308 157.002C28.321 156.991 28.3112 156.967 28.3014 156.956C28.7913 156.396 29.5849 155.697 30.5157 155.033C32.5047 153.624 35.0032 152.319 37.6095 151.189C40.2255 150.047 42.9886 149.034 45.8006 148.102C57.0977 144.432 69.012 141.939 80.8774 139.714C104.687 135.369 128.652 132.328 152.344 129.358C176.045 126.41 199.521 123.707 222.635 120.469C234.196 118.838 245.66 117.09 257.035 114.912C262.718 113.817 268.382 112.617 274.035 111.161C279.688 109.67 285.303 108.05 291.015 105.452C292.445 104.788 293.886 104.054 295.355 103.134C296.09 102.68 296.874 102.132 297.442 101.713C298.148 101.2 298.785 100.711 299.451 100.164C300.774 99.0685 302.096 97.8569 303.419 96.2609C304.076 95.457 304.742 94.56 305.359 93.4184C305.976 92.3 306.574 90.9137 306.897 89.1895C307.24 87.4887 307.201 85.4267 306.75 83.6793C306.3 81.9202 305.555 80.5106 304.801 79.4388C303.262 77.2836 301.714 76.0953 300.245 75.0469C297.295 73.0431 294.493 71.8432 291.701 70.7598C286.145 68.6745 280.698 67.3115 275.289 66.1116C269.881 64.9233 264.531 63.9681 259.211 63.1176C237.939 59.7858 217.295 57.852 197.336 55.9764C177.378 54.1358 158.115 52.5398 139.685 50.6409C130.475 49.6856 121.461 48.6721 112.711 47.4256C103.981 46.1558 95.4176 44.7694 87.5008 42.4512C85.5412 41.857 83.6208 41.193 81.8768 40.3775C81.0146 39.9698 80.1915 39.5271 79.5253 39.0495C79.1921 38.8165 78.8982 38.5718 78.6924 38.3621C78.6435 38.3155 78.6532 38.3388 78.5161 38.1758L78.2319 37.8612L77.8498 37.3952C77.3109 36.7195 76.919 36.0439 76.7426 35.5196C76.5663 34.9837 76.5565 34.7391 76.6446 34.3314C76.7916 33.4926 77.9674 32.0247 79.3979 30.953C80.8382 29.823 82.5137 28.8677 84.2283 28.0056C85.9528 27.1435 87.736 26.398 89.529 25.699C93.1249 24.3243 96.7795 23.1827 100.395 22.1691C107.646 20.1421 114.788 18.581 121.706 17.2064C128.623 15.8317 135.325 14.6668 141.772 13.6066C154.666 11.4981 166.561 9.84381 177.309 8.38761C198.806 5.52179 215.727 3.51805 227.259 2.10845C238.792 0.72214 244.945 -0.0234375 244.945 -0.0234375C244.945 -0.0234375 238.772 0.465848 227.21 1.39782C215.649 2.34144 198.679 3.65785 177.094 5.64994C166.306 6.66346 154.353 7.85172 141.36 9.43608C134.864 10.2399 128.104 11.1369 121.098 12.2436C114.093 13.3504 106.832 14.6318 99.3564 16.4026C95.6234 17.2996 91.8217 18.3131 87.9809 19.6179C86.0605 20.2702 84.1303 21.0042 82.1805 21.8779C80.2405 22.7633 78.2809 23.7651 76.3311 25.1747C75.3611 25.897 74.3813 26.6892 73.4309 27.7726C72.5001 28.8327 71.5497 30.219 70.9912 32.1179C70.4131 34.0052 70.5013 36.3235 71.0696 38.0476C71.6183 39.8184 72.4315 41.1464 73.2643 42.2997C73.4701 42.591 73.7346 42.9055 73.9404 43.1735L74.2148 43.4996C74.2148 43.4996 74.4499 43.7792 74.6067 43.9307C75.1749 44.5248 75.7334 44.9908 76.2821 45.3985C77.3795 46.2024 78.4573 46.7965 79.5253 47.3324C81.6612 48.3692 83.7678 49.1381 85.8842 49.8254C94.3594 52.4815 102.991 54.0309 111.849 55.5104C120.706 56.955 129.76 58.1665 138.999 59.3082C157.488 61.5915 176.741 63.5836 196.631 65.832C216.501 68.1153 237.057 70.4686 257.888 74.1732C263.091 75.1168 268.293 76.1536 273.467 77.4001C278.62 78.6466 283.784 80.0679 288.595 82.0017C290.976 82.9686 293.317 84.087 295.111 85.3685C295.796 85.8577 296.384 86.4053 296.717 86.8014C296.58 87.0344 296.365 87.3372 296.09 87.6518C295.463 88.3857 294.581 89.2012 293.611 89.9701C293.131 90.3429 292.592 90.7506 292.112 91.0884C291.495 91.5195 291.083 91.7991 290.574 92.102C289.575 92.6961 288.438 93.2553 287.272 93.7795C282.53 95.8415 277.19 97.3093 271.821 98.5908C266.432 99.8606 260.915 100.921 255.35 101.876C244.21 103.775 232.844 105.278 221.361 106.652C198.385 109.39 174.909 111.615 151.109 114.085C127.31 116.578 103.197 119.129 78.8198 123.067C66.6213 125.105 54.3836 127.365 41.9696 131.128C38.8636 132.084 35.738 133.155 32.5733 134.46C29.4085 135.788 26.2144 137.291 22.8733 139.539C21.2076 140.693 19.4832 142.032 17.7391 143.966C16.8671 144.933 15.9853 146.098 15.1623 147.519C14.3392 148.952 13.5848 150.7 13.1243 152.727C12.654 154.742 12.5462 156.99 12.7814 159.029C13.0165 161.068 13.5456 162.874 14.1629 164.388C14.7801 165.914 15.4954 167.207 16.2596 168.384C17.1806 169.77 18.1311 170.842 19.0423 171.739C20.8745 173.533 22.6185 174.721 24.3136 175.781C26.0086 176.818 27.6449 177.669 29.2714 178.426C32.5145 179.929 35.6793 181.094 38.8342 182.142C45.1245 184.204 51.3463 185.753 57.5484 187.163C69.9526 189.924 82.3079 192.009 94.6338 193.955C119.295 197.799 143.878 200.968 168.266 204.521C192.633 208.074 216.844 211.837 240.438 216.975C252.215 219.561 263.855 222.496 275.015 226.224C280.59 228.088 286.038 230.162 291.181 232.573C296.306 234.973 301.195 237.757 305.046 240.938C306.946 242.511 308.553 244.2 309.582 245.726C310.631 247.275 311.013 248.452 311.12 249.349C311.228 250.246 311.14 251.353 310.552 253.077C309.974 254.778 308.906 256.84 307.505 258.902C304.713 263.061 300.735 267.289 296.629 271.041L295.757 271.833L295.395 272.159L295.022 272.473C294.532 272.904 294.043 273.324 293.513 273.743C292.485 274.594 291.397 275.421 290.28 276.248C288.046 277.891 285.704 279.487 283.304 281.024C273.663 287.175 263.345 292.592 253.048 297.695C242.721 302.786 232.325 307.539 221.959 312.082C201.226 321.157 180.66 329.417 160.555 337.199C120.324 352.728 81.916 366.358 46.3885 378.613C10.8512 390.845 -21.8447 401.668 -50.8664 411.081C-58.499 413.551 -65.8671 415.939 -72.9805 418.21V430.023H-6.35413C12.5952 423.325 32.7203 416.114 53.8741 408.355C89.4016 395.296 127.81 380.815 168.197 364.296C188.391 356.013 209.065 347.241 230.081 337.548C240.585 332.69 251.167 327.611 261.807 322.113C272.438 316.579 283.118 310.742 293.807 303.648C296.482 301.865 299.157 299.978 301.842 297.916C303.184 296.891 304.526 295.819 305.878 294.666C306.555 294.107 307.231 293.501 307.907 292.884L308.926 291.952L309.788 291.148C311.081 289.913 312.316 288.701 313.54 287.443C314.765 286.173 315.98 284.869 317.185 283.494C319.586 280.745 321.947 277.762 324.181 274.326C326.395 270.889 328.522 266.963 330.109 262.117C330.883 259.682 331.51 257.014 331.824 254.125C332.137 251.248 332.108 248.161 331.657 245.155C331.206 242.149 330.364 239.26 329.266 236.721L329.237 236.697ZM297.001 87.1858C297.021 87.2557 297.041 87.2557 297.001 87.1858V87.1858ZM27.7919 157.643C27.7919 157.643 27.8115 157.62 27.8115 157.608C27.7821 157.666 27.7723 157.689 27.7919 157.643Z"/>
</mask>
<path d="M329.237 236.697C328.149 234.134 326.827 231.909 325.445 229.952C322.653 226.038 319.615 223.184 316.607 220.761C310.552 215.984 304.477 212.851 298.422 210.113C292.357 207.422 286.302 205.267 280.237 203.368C268.107 199.593 255.958 196.809 243.769 194.386C219.392 189.598 194.867 186.301 170.294 183.237C145.73 180.173 121.108 177.506 96.6815 174.209C84.483 172.543 72.3042 170.725 60.3898 168.326C54.4424 167.114 48.544 165.751 42.92 164.027C40.1178 163.165 37.3743 162.198 34.8562 161.091C33.6021 160.532 32.4067 159.938 31.3485 159.32C30.3002 158.703 29.3694 158.039 28.8109 157.515C28.5267 157.258 28.37 157.049 28.3308 157.002C28.321 156.991 28.3112 156.967 28.3014 156.956C28.7913 156.396 29.5849 155.697 30.5157 155.033C32.5047 153.624 35.0032 152.319 37.6095 151.189C40.2255 150.047 42.9886 149.034 45.8006 148.102C57.0977 144.432 69.012 141.939 80.8774 139.714C104.687 135.369 128.652 132.328 152.344 129.358C176.045 126.41 199.521 123.707 222.635 120.469C234.196 118.838 245.66 117.09 257.035 114.912C262.718 113.817 268.382 112.617 274.035 111.161C279.688 109.67 285.303 108.05 291.015 105.452C292.445 104.788 293.886 104.054 295.355 103.134C296.09 102.68 296.874 102.132 297.442 101.713C298.148 101.2 298.785 100.711 299.451 100.164C300.774 99.0685 302.096 97.8569 303.419 96.2609C304.076 95.457 304.742 94.56 305.359 93.4184C305.976 92.3 306.574 90.9137 306.897 89.1895C307.24 87.4887 307.201 85.4267 306.75 83.6793C306.3 81.9202 305.555 80.5106 304.801 79.4388C303.262 77.2836 301.714 76.0953 300.245 75.0469C297.295 73.0431 294.493 71.8432 291.701 70.7598C286.145 68.6745 280.698 67.3115 275.289 66.1116C269.881 64.9233 264.531 63.9681 259.211 63.1176C237.939 59.7858 217.295 57.852 197.336 55.9764C177.378 54.1358 158.115 52.5398 139.685 50.6409C130.475 49.6856 121.461 48.6721 112.711 47.4256C103.981 46.1558 95.4176 44.7694 87.5008 42.4512C85.5412 41.857 83.6208 41.193 81.8768 40.3775C81.0146 39.9698 80.1915 39.5271 79.5253 39.0495C79.1921 38.8165 78.8982 38.5718 78.6924 38.3621C78.6435 38.3155 78.6532 38.3388 78.5161 38.1758L78.2319 37.8612L77.8498 37.3952C77.3109 36.7195 76.919 36.0439 76.7426 35.5196C76.5663 34.9837 76.5565 34.7391 76.6446 34.3314C76.7916 33.4926 77.9674 32.0247 79.3979 30.953C80.8382 29.823 82.5137 28.8677 84.2283 28.0056C85.9528 27.1435 87.736 26.398 89.529 25.699C93.1249 24.3243 96.7795 23.1827 100.395 22.1691C107.646 20.1421 114.788 18.581 121.706 17.2064C128.623 15.8317 135.325 14.6668 141.772 13.6066C154.666 11.4981 166.561 9.84381 177.309 8.38761C198.806 5.52179 215.727 3.51805 227.259 2.10845C238.792 0.72214 244.945 -0.0234375 244.945 -0.0234375C244.945 -0.0234375 238.772 0.465848 227.21 1.39782C215.649 2.34144 198.679 3.65785 177.094 5.64994C166.306 6.66346 154.353 7.85172 141.36 9.43608C134.864 10.2399 128.104 11.1369 121.098 12.2436C114.093 13.3504 106.832 14.6318 99.3564 16.4026C95.6234 17.2996 91.8217 18.3131 87.9809 19.6179C86.0605 20.2702 84.1303 21.0042 82.1805 21.8779C80.2405 22.7633 78.2809 23.7651 76.3311 25.1747C75.3611 25.897 74.3813 26.6892 73.4309 27.7726C72.5001 28.8327 71.5497 30.219 70.9912 32.1179C70.4131 34.0052 70.5013 36.3235 71.0696 38.0476C71.6183 39.8184 72.4315 41.1464 73.2643 42.2997C73.4701 42.591 73.7346 42.9055 73.9404 43.1735L74.2148 43.4996C74.2148 43.4996 74.4499 43.7792 74.6067 43.9307C75.1749 44.5248 75.7334 44.9908 76.2821 45.3985C77.3795 46.2024 78.4573 46.7965 79.5253 47.3324C81.6612 48.3692 83.7678 49.1381 85.8842 49.8254C94.3594 52.4815 102.991 54.0309 111.849 55.5104C120.706 56.955 129.76 58.1665 138.999 59.3082C157.488 61.5915 176.741 63.5836 196.631 65.832C216.501 68.1153 237.057 70.4686 257.888 74.1732C263.091 75.1168 268.293 76.1536 273.467 77.4001C278.62 78.6466 283.784 80.0679 288.595 82.0017C290.976 82.9686 293.317 84.087 295.111 85.3685C295.796 85.8577 296.384 86.4053 296.717 86.8014C296.58 87.0344 296.365 87.3372 296.09 87.6518C295.463 88.3857 294.581 89.2012 293.611 89.9701C293.131 90.3429 292.592 90.7506 292.112 91.0884C291.495 91.5195 291.083 91.7991 290.574 92.102C289.575 92.6961 288.438 93.2553 287.272 93.7795C282.53 95.8415 277.19 97.3093 271.821 98.5908C266.432 99.8606 260.915 100.921 255.35 101.876C244.21 103.775 232.844 105.278 221.361 106.652C198.385 109.39 174.909 111.615 151.109 114.085C127.31 116.578 103.197 119.129 78.8198 123.067C66.6213 125.105 54.3836 127.365 41.9696 131.128C38.8636 132.084 35.738 133.155 32.5733 134.46C29.4085 135.788 26.2144 137.291 22.8733 139.539C21.2076 140.693 19.4832 142.032 17.7391 143.966C16.8671 144.933 15.9853 146.098 15.1623 147.519C14.3392 148.952 13.5848 150.7 13.1243 152.727C12.654 154.742 12.5462 156.99 12.7814 159.029C13.0165 161.068 13.5456 162.874 14.1629 164.388C14.7801 165.914 15.4954 167.207 16.2596 168.384C17.1806 169.77 18.1311 170.842 19.0423 171.739C20.8745 173.533 22.6185 174.721 24.3136 175.781C26.0086 176.818 27.6449 177.669 29.2714 178.426C32.5145 179.929 35.6793 181.094 38.8342 182.142C45.1245 184.204 51.3463 185.753 57.5484 187.163C69.9526 189.924 82.3079 192.009 94.6338 193.955C119.295 197.799 143.878 200.968 168.266 204.521C192.633 208.074 216.844 211.837 240.438 216.975C252.215 219.561 263.855 222.496 275.015 226.224C280.59 228.088 286.038 230.162 291.181 232.573C296.306 234.973 301.195 237.757 305.046 240.938C306.946 242.511 308.553 244.2 309.582 245.726C310.631 247.275 311.013 248.452 311.12 249.349C311.228 250.246 311.14 251.353 310.552 253.077C309.974 254.778 308.906 256.84 307.505 258.902C304.713 263.061 300.735 267.289 296.629 271.041L295.757 271.833L295.395 272.159L295.022 272.473C294.532 272.904 294.043 273.324 293.513 273.743C292.485 274.594 291.397 275.421 290.28 276.248C288.046 277.891 285.704 279.487 283.304 281.024C273.663 287.175 263.345 292.592 253.048 297.695C242.721 302.786 232.325 307.539 221.959 312.082C201.226 321.157 180.66 329.417 160.555 337.199C120.324 352.728 81.916 366.358 46.3885 378.613C10.8512 390.845 -21.8447 401.668 -50.8664 411.081C-58.499 413.551 -65.8671 415.939 -72.9805 418.21V430.023H-6.35413C12.5952 423.325 32.7203 416.114 53.8741 408.355C89.4016 395.296 127.81 380.815 168.197 364.296C188.391 356.013 209.065 347.241 230.081 337.548C240.585 332.69 251.167 327.611 261.807 322.113C272.438 316.579 283.118 310.742 293.807 303.648C296.482 301.865 299.157 299.978 301.842 297.916C303.184 296.891 304.526 295.819 305.878 294.666C306.555 294.107 307.231 293.501 307.907 292.884L308.926 291.952L309.788 291.148C311.081 289.913 312.316 288.701 313.54 287.443C314.765 286.173 315.98 284.869 317.185 283.494C319.586 280.745 321.947 277.762 324.181 274.326C326.395 270.889 328.522 266.963 330.109 262.117C330.883 259.682 331.51 257.014 331.824 254.125C332.137 251.248 332.108 248.161 331.657 245.155C331.206 242.149 330.364 239.26 329.266 236.721L329.237 236.697ZM297.001 87.1858C297.021 87.2557 297.041 87.2557 297.001 87.1858V87.1858ZM27.7919 157.643C27.7919 157.643 27.8115 157.62 27.8115 157.608C27.7821 157.666 27.7723 157.689 27.7919 157.643Z" fill="#2273FF" stroke="#000018" stroke-width="2" mask="url(#path-1-inside-1_8950_1865)"/>
</g>
</svg>
