<svg width="38" height="37" viewBox="0 0 38 37" fill="none" xmlns="http://www.w3.org/2000/svg">
<path d="M12.4375 5.79961L15.0625 0.599609H13.75L11.125 5.79961H12.4375Z" fill="#2E3092"/>
<path d="M9.8125 5.79961L12.4375 0.599609H1.9375C1.21268 0.599609 0.625 1.18169 0.625 1.89961V5.79961H9.8125ZM7.1875 1.89961C7.9124 1.89961 8.5 2.48161 8.5 3.19961C8.5 3.91761 7.9124 4.49961 7.1875 4.49961C6.46268 4.49961 5.875 3.91761 5.875 3.19961C5.875 2.48161 6.46268 1.89961 7.1875 1.89961ZM3.25 1.89961C3.9749 1.89961 4.5625 2.48161 4.5625 3.19961C4.5625 3.91761 3.9749 4.49961 3.25 4.49961C2.52518 4.49961 1.9375 3.91761 1.9375 3.19961C1.9375 2.48161 2.52518 1.89961 3.25 1.89961Z" fill="#2E3092"/>
<path d="M37.375 5.79961V1.89961C37.375 1.18169 36.7873 0.599609 36.0625 0.599609H16.375L13.75 5.79961H37.375Z" fill="#2E3092"/>
<path d="M0.625 7.09961V35.6996C0.625 36.4175 1.21268 36.9996 1.9375 36.9996H36.0625C36.7873 36.9996 37.375 36.4175 37.375 35.6996V7.09961H0.625ZM19 9.69961C21.1746 9.69961 22.9375 11.4457 22.9375 13.5996C22.9375 15.5309 21.5169 17.1232 19.6562 17.4341V20.0996H18.3438V17.4341C16.4831 17.1232 15.0625 15.5309 15.0625 13.5996C15.0625 11.4457 16.8254 9.69961 19 9.69961ZM7.1875 23.9996V17.4996H5.21891C4.9914 17.4996 4.78056 17.3823 4.66071 17.1898C4.54087 16.9972 4.52998 16.7568 4.63187 16.5547L7.25687 11.3315C7.4799 10.889 8.20792 10.889 8.43095 11.3315L11.0559 16.5547C11.1578 16.7568 11.1469 16.9972 11.0271 17.1898C10.9073 17.3823 10.6964 17.4996 10.4689 17.4996H8.5V23.9996H13.75V25.2996H8.5C7.7751 25.2996 7.1875 24.7176 7.1875 23.9996ZM25.5625 34.3996H12.4375V33.0996C12.4375 30.949 14.2037 29.1996 16.375 29.1996H19C16.8287 29.1996 15.0625 27.4502 15.0625 25.2996C15.0625 23.149 16.8287 21.3996 19 21.3996C21.1713 21.3996 22.9375 23.149 22.9375 25.2996C22.9375 27.4502 21.1713 29.1996 19 29.1996H21.625C23.7963 29.1996 25.5625 30.949 25.5625 33.0996V34.3996ZM33.4375 16.1996C33.4375 16.9176 32.8499 17.4996 32.125 17.4996H30.8125V23.9996C30.8125 24.7176 30.2249 25.2996 29.5 25.2996H24.25V23.9996H29.5V17.4996H28.1875C27.4626 17.4996 26.875 16.9176 26.875 16.1996V12.2996C26.875 11.5816 27.4626 10.9996 28.1875 10.9996H32.125C32.8499 10.9996 33.4375 11.5816 33.4375 12.2996V16.1996Z" fill="#2E3092"/>
<path d="M19 16.2C20.4497 16.2 21.625 15.0359 21.625 13.6C21.625 12.1641 20.4497 11 19 11C17.5503 11 16.375 12.1641 16.375 13.6C16.375 15.0359 17.5503 16.2 19 16.2Z" fill="#2E3092"/>
<path d="M32.125 12.2988H28.1875V16.1988H32.125V12.2988Z" fill="#2E3092"/>
<path d="M6.53125 16.1992H9.15625L7.84375 12.9492L6.53125 16.1992Z" fill="#2E3092"/>
</svg>
