<svg width="50" height="38" viewBox="0 0 50 38" fill="none" xmlns="http://www.w3.org/2000/svg">
<path d="M28.4929 34.0508H21.5059V35.2092H28.4929V34.0508Z" fill="#2E3092"/>
<path d="M29.2808 34.0215V35.985H20.7184V34.0215C10.7598 34.0215 5.97574 34.0215 0.147461 34.0215C0.344388 35.7942 1.87363 37.178 3.72596 37.178H46.2748C48.1272 37.178 49.6564 35.7942 49.8533 34.0215C44.0255 34.0215 39.2177 34.0215 29.2808 34.0215Z" fill="#2E3092"/>
<path d="M48.0235 1.23335C48.0235 0.566361 47.4801 0.0234375 46.8105 0.0234375H3.17976C2.51812 0.0234375 1.97461 0.566353 1.97461 1.23335V33.2416H48.0235V1.23335ZM44.8649 30.1393H5.1333V3.13353H44.8649L44.8649 30.1393Z" fill="#2E3092"/>
<path d="M12.9548 22.3379H7.74023V27.6351H12.9548V22.3379Z" fill="#2E3092"/>
<path d="M28.2361 22.3984H23.0137V27.6957H28.2361V22.3984Z" fill="#2E3092"/>
<path d="M20.5875 22.3379H15.3809V27.6351H20.5875V22.3379Z" fill="#2E3092"/>
<path d="M37.319 23.041L41.5659 19.62V26.4621L37.319 23.041ZM40.8563 26.8926H32.5377L36.697 23.5421L40.8563 26.8926ZM36.697 22.54L32.5377 19.1895H40.8563L36.697 22.54ZM36.075 23.041L31.8281 26.4621V19.62L36.075 23.041Z" fill="#2E3092"/>
<path d="M19.8154 16.4204L21.5228 19.4952H26.585L22.2817 12.2969L19.8154 16.4204Z" fill="#2E3092"/>
<path d="M8.42773 6.37891V19.3025L14.9255 7.61461L19.3753 15.6284L22.2817 10.7692L27.3502 19.246V6.37891H8.42773ZM19.9617 10.7719C19.1125 10.7719 18.4209 10.0909 18.4209 9.25439C18.4209 8.42238 19.1125 7.74564 19.9617 7.74564C20.8063 7.74564 21.494 8.42238 21.494 9.25439C21.494 10.0909 20.8063 10.7719 19.9617 10.7719Z" fill="#2E3092"/>
<path d="M9.21777 19.4968H20.6223C20.667 19.577 15.1403 9.6229 14.9235 9.23242L9.21777 19.4968Z" fill="#2E3092"/>
<path d="M19.9621 8.52148C19.5467 8.52148 19.209 8.8502 19.209 9.25465C19.209 9.66365 19.5467 9.99653 19.9621 9.99653C20.3728 9.99653 20.7067 9.66365 20.7067 9.25465C20.7067 8.85739 20.3659 8.52148 19.9621 8.52148Z" fill="#2E3092"/>
<path d="M31.041 5.59961V16.101H42.3524V5.59961H31.041ZM39.7582 13.7935H33.7835V13.0179H39.7582V13.7935ZM39.7582 11.2338H33.7835V10.4583H39.7582V11.2338ZM39.7582 8.67382H33.7835V7.89823H39.7582V8.67382Z" fill="#2E3092"/>
</svg>
