<svg width="49" height="48" viewBox="0 0 49 48" fill="none" xmlns="http://www.w3.org/2000/svg">
<path d="M11.6543 4.44899C11.6543 6.90477 9.66356 8.89552 7.20778 8.89552C4.752 8.89552 2.75879 6.90477 2.75879 4.44899C2.75879 1.99321 4.752 0 7.20778 0C9.66356 0 11.6543 1.99321 11.6543 4.44899Z" fill="#2E3092"/>
<path d="M3.44049 36.375C3.09353 36.375 2.81055 36.658 2.81055 37.0049C2.81055 37.3519 3.09353 37.6349 3.44049 37.6349H10.9872C11.3391 37.6349 11.6172 37.3519 11.6172 37.0049C11.6172 36.658 11.3391 36.375 10.9872 36.375H3.44049Z" fill="#2E3092"/>
<path d="M24.0341 14.9475C26.6917 14.9475 28.8596 12.7796 28.8596 10.1146C28.8596 7.44959 26.6917 5.28906 24.0341 5.28906C21.3691 5.28906 19.2012 7.44959 19.2012 10.1146C19.2012 12.782 21.3691 14.9475 24.0341 14.9475Z" fill="#2E3092"/>
<path d="M19.876 43.4062C19.5291 43.4062 19.2461 43.6843 19.2461 44.0362C19.2461 44.3832 19.5291 44.6661 19.876 44.6661H28.1857C28.5326 44.6661 28.8156 44.3832 28.8156 44.0362C28.8156 43.6843 28.5326 43.4062 28.1857 43.4062H19.876Z" fill="#2E3092"/>
<path d="M16.7904 32.5992H19.2461V40.1957C19.2461 41.2612 20.1419 42.1298 21.2443 42.1298H26.8203C27.9227 42.1298 28.8184 41.2612 28.8184 40.1957L28.8159 32.5992H31.2717C31.6187 32.5992 31.9017 32.3162 31.9017 31.9692V19.7811C31.9017 17.463 29.9356 15.5781 27.5167 15.5781H20.5432C18.1243 15.5781 16.1582 17.4606 16.1582 19.7811V31.9718C16.1607 32.3163 16.4434 32.5992 16.7904 32.5992Z" fill="#2E3092"/>
<path d="M45.2949 4.44899C45.2949 6.90477 43.3017 8.89552 40.8459 8.89552C38.3902 8.89552 36.3994 6.90477 36.3994 4.44899C36.3994 1.99321 38.3902 0 40.8459 0C43.3017 0 45.2949 1.99321 45.2949 4.44899Z" fill="#2E3092"/>
<path d="M44.6141 37.6349C44.966 37.6349 45.244 37.3519 45.244 37.0049C45.244 36.658 44.966 36.375 44.6141 36.375H37.0743C36.7224 36.375 36.4443 36.658 36.4443 37.0049C36.4443 37.3519 36.7224 37.6349 37.0743 37.6349H44.6141Z" fill="#2E3092"/>
<path d="M47.4283 25.9274C47.7752 25.9274 48.0582 25.6444 48.0582 25.2974V13.4614C48.0582 11.2 46.2447 9.35938 44.0128 9.35938H37.6717C35.4423 9.35938 33.6263 11.2 33.6263 13.4614V25.2974C33.6263 25.6444 33.9093 25.9274 34.2562 25.9274H36.4291V33.2921C36.4291 34.3379 37.2731 35.1893 38.3066 35.1893H43.3708C44.4043 35.1893 45.2483 34.3378 45.2483 33.2921V31.7935C46.2573 33.0534 46.7863 34.3945 46.7863 35.7307C46.7863 41.8037 36.5743 46.7421 24.027 46.7421C11.4722 46.7421 1.26014 41.8035 1.26014 35.7307C1.26014 34.3945 1.78919 33.0534 2.803 31.7935V33.2921C2.803 34.3379 3.63963 35.1893 4.67318 35.1893H9.73738C10.7709 35.1893 11.6149 34.3378 11.6149 33.2921L11.6174 25.9274H13.7902C14.1372 25.9274 14.4201 25.6444 14.4201 25.2974V13.4614C14.4201 11.2 12.6066 9.35938 10.3821 9.35938H4.04545C1.81601 9.35938 0 11.2 0 13.4614V25.2974C0 25.6444 0.282984 25.9274 0.629945 25.9274H2.81012V29.9408C0.976857 31.7052 0.00737016 33.7008 0.00737016 35.7309C0.00737016 42.6162 10.559 48.0022 24.0341 48.0022C37.5017 48.0022 48.0533 42.6157 48.0533 35.7309C48.0533 33.7032 47.0838 31.7052 45.2555 29.9408V25.9274H47.4283Z" fill="#2E3092"/>
</svg>
