<svg width="44" height="44" viewBox="0 0 44 44" fill="none" xmlns="http://www.w3.org/2000/svg">
<path d="M10.3105 15.25L15.25 20.1895V10.3105L10.3105 15.25Z" fill="#2E3092"/>
<path d="M16.75 24.25H31.75V6.25H0.25V24.25V25H7.75V24.25C7.75 23.947 7.93225 23.6733 8.21275 23.557C8.494 23.4422 8.8165 23.5045 9.03025 23.7197L10.3105 25H16.75V24.25ZM18.25 12.25H30.25V13.75H18.25V12.25ZM18.25 15.25H30.25V16.75H18.25V15.25ZM18.25 18.25H30.25V19.75H18.25V18.25ZM18.25 21.25H30.25V22.75H18.25V21.25ZM16 22.75H2.5C2.08525 22.75 1.75 22.414 1.75 22V8.5C1.75 8.086 2.08525 7.75 2.5 7.75H16C16.4147 7.75 16.75 8.086 16.75 8.5V22C16.75 22.414 16.4147 22.75 16 22.75Z" fill="#2E3092"/>
<path d="M9.25005 16.3105L4.31055 21.25H14.1895L9.25005 16.3105Z" fill="#2E3092"/>
<path d="M8.1895 15.25L3.25 10.3105V20.1895L8.1895 15.25Z" fill="#2E3092"/>
<path d="M4.31055 9.25L9.25005 14.1895L14.1895 9.25H4.31055Z" fill="#2E3092"/>
<path d="M9.25 30.6895L10.2197 29.7198C10.36 29.5788 10.5505 29.5 10.75 29.5H12.6895L9.25 26.0605V30.6895Z" fill="#2E3092"/>
<path d="M34.75 18.25H33.25V25C33.25 25.414 32.9148 25.75 32.5 25.75H18.25V34.75H34.75V18.25Z" fill="#2E3092"/>
<path d="M40.75 30.25H36.25V35.5C36.25 35.914 35.9148 36.25 35.5 36.25H30.25V40.75H40.75V30.25Z" fill="#2E3092"/>
<path d="M43.75 27.25H36.25V28.75H41.5C41.9148 28.75 42.25 29.086 42.25 29.5V41.5C42.25 41.914 41.9148 42.25 41.5 42.25H29.5C29.0853 42.25 28.75 41.914 28.75 41.5V36.25H27.25V43.75H43.75V27.25Z" fill="#2E3092"/>
<path d="M0.25 4.75H31.75V0.25H0.25V4.75ZM10.75 1.75H12.25V3.25H10.75V1.75ZM7.75 1.75H9.25V3.25H7.75V1.75ZM4.75 1.75H6.25V3.25H4.75V1.75ZM1.75 1.75H3.25V3.25H1.75V1.75Z" fill="#2E3092"/>
</svg>
