<svg width="48" height="41" viewBox="0 0 48 41" fill="none" xmlns="http://www.w3.org/2000/svg">
<path d="M42.75 6.07422H25.5625V7.62422H42.75C44.2051 7.62422 45.4163 8.61411 45.7646 9.94922H25.5625C25.1307 9.94922 24.7812 10.2962 24.7812 10.7242C24.7812 11.1522 25.1307 11.4992 25.5625 11.4992H45.875V36.2992C45.875 38.0119 44.4765 39.3992 42.75 39.3992H14.625C12.8985 39.3992 11.5 38.0119 11.5 36.2992H9.9375C9.9375 38.8645 12.039 40.9492 14.625 40.9492H42.75C45.336 40.9492 47.4375 38.8645 47.4375 36.2992V10.7242C47.4375 8.15897 45.336 6.07422 42.75 6.07422Z" fill="#2E3092"/>
<path d="M31.0312 13.0508H25.5625V30.1008H31.0312C32.7578 30.1008 34.1562 28.7135 34.1562 27.0008V16.1508C34.1562 14.438 32.7578 13.0508 31.0312 13.0508Z" fill="#2E3092"/>
<path d="M43.5308 14.5996H36.4995C35.4747 14.6161 35.4709 16.1324 36.4995 16.1496H43.5308C44.5556 16.1331 44.5594 14.6168 43.5308 14.5996Z" fill="#2E3092"/>
<path d="M43.5308 17.6992H38.8433C37.8177 17.7159 37.8154 19.2321 38.8433 19.2492H43.5308C44.5564 19.2325 44.5588 17.7163 43.5308 17.6992Z" fill="#2E3092"/>
<path d="M37.2809 20.8008C36.2557 20.8171 36.2524 22.3338 37.2809 22.3508H43.5309C44.5561 22.3345 44.5593 20.8177 43.5309 20.8008H37.2809Z" fill="#2E3092"/>
<path d="M36.4995 25.4504H43.5308C44.5556 25.4342 44.5594 23.9173 43.5308 23.9004H36.4995C35.4747 23.9166 35.4709 25.4335 36.4995 25.4504Z" fill="#2E3092"/>
<path d="M43.5309 27H38.8434C37.8178 27.0164 37.8153 28.5331 38.8434 28.55H43.5309C44.5564 28.5336 44.5589 27.0168 43.5309 27Z" fill="#2E3092"/>
<path d="M19.3125 36.3008H13.8438C13.8438 37.1533 14.5469 37.8508 15.4062 37.8508H27.125C27.9844 37.8508 28.6875 37.1533 28.6875 36.3008V33.9758C28.6875 33.1233 27.9844 32.4258 27.125 32.4258H25.1015C24.1719 34.6965 21.9297 36.3008 19.3125 36.3008Z" fill="#2E3092"/>
<path d="M42.75 32.4258H31.8125C30.9496 32.4258 30.25 33.1197 30.25 33.9758V36.3008C30.25 37.1568 30.9496 37.8508 31.8125 37.8508H42.75C43.6129 37.8508 44.3125 37.1568 44.3125 36.3008V33.9758C44.3125 33.1197 43.6129 32.4258 42.75 32.4258Z" fill="#2E3092"/>
<path d="M24 30.1004V5.30039C24 2.73623 21.8973 0.650391 19.3125 0.650391H5.25C2.66516 0.650391 0.5625 2.73623 0.5625 5.30039V30.1004C0.5625 32.6645 2.66516 34.7504 5.25 34.7504H19.3125C21.8973 34.7504 24 32.6645 24 30.1004ZM2.125 30.1004V5.30039C2.125 3.59107 3.52652 2.20039 5.25 2.20039H19.3125C21.036 2.20039 22.4375 3.59107 22.4375 5.30039V30.1004C22.4375 31.8101 21.036 33.2004 19.3125 33.2004H5.25C3.52652 33.2004 2.125 31.8101 2.125 30.1004Z" fill="#2E3092"/>
<path d="M20.875 30.1V5.3C20.875 4.44515 20.1739 3.75 19.3125 3.75H5.25C4.38864 3.75 3.6875 4.44515 3.6875 5.3V30.1C3.6875 30.9545 4.38864 31.65 5.25 31.65H19.3125C20.1739 31.65 20.875 30.9545 20.875 30.1ZM5.8892 6.28635H7.1676C8.0033 6.28985 8.00373 7.55107 7.16755 7.55452C7.1676 7.55452 5.8892 7.55452 5.8892 7.55452C5.05364 7.55102 5.05302 6.2898 5.8892 6.28635ZM5.25 11.3591C5.25 9.96055 6.3967 8.82269 7.8068 8.82269H16.7557C18.1658 8.82269 19.3125 9.96055 19.3125 11.3591V12.6273C19.3125 14.0258 18.1658 15.1636 16.7557 15.1636H7.8068C6.3967 15.1636 5.25 14.0258 5.25 12.6273V11.3591ZM5.25 18.9682C5.25 17.5696 6.3967 16.4318 7.8068 16.4318H16.7557C18.1658 16.4318 19.3125 17.5696 19.3125 18.9682V21.5045C19.3125 22.9034 18.1658 24.0409 16.7557 24.0409H7.8068C6.3967 24.0409 5.25 22.9034 5.25 21.5045V18.9682ZM18.0341 29.1136H6.52841C5.69523 29.1109 5.69022 27.8487 6.52845 27.8454C6.52841 27.8454 18.0341 27.8454 18.0341 27.8454C18.8666 27.848 18.873 29.1103 18.0341 29.1136ZM18.0341 26.5773H6.52841C5.69523 26.5745 5.69022 25.3124 6.52845 25.3091C6.52841 25.3091 18.0341 25.3091 18.0341 25.3091C18.8666 25.3117 18.873 26.5739 18.0341 26.5773Z" fill="#2E3092"/>
</svg>
