<svg width="36" height="43" viewBox="0 0 36 43" fill="none" xmlns="http://www.w3.org/2000/svg">
<path d="M17.4997 38.2806V40.4727C17.4832 41.8286 16.3772 42.9195 15.0178 42.9215H10.5916C9.23225 42.9153 8.12824 41.8224 8.11385 40.4665V32.3104C8.11385 31.0634 9.12721 30.0526 10.3774 30.0526C11.6256 30.0526 12.639 31.0634 12.639 32.3104V35.5215L14.7048 35.5194C15.4463 35.5071 16.161 35.7927 16.6862 36.3124C17.2135 36.8322 17.5058 37.5431 17.4997 38.2806ZM15.4029 2.4188V9.22902C15.3988 10.4719 14.3896 11.4786 13.1456 11.4806H2.51785C1.26969 11.4806 0.260491 10.4719 0.260491 9.22902V2.4188C0.274909 1.18614 1.28003 0.19182 2.51785 0.189769H13.1456C14.3814 0.191823 15.3865 1.18614 15.4029 2.4188ZM7.37836 7.8979C7.37836 7.78901 7.33716 7.68218 7.2589 7.60617C7.18063 7.5281 7.07559 7.48496 6.96642 7.48702H3.2858C3.05923 7.48702 2.87387 7.67191 2.87387 7.8979C2.87387 8.12388 3.05923 8.30878 3.2858 8.30878H6.96642C7.18475 8.30878 7.366 8.13826 7.37836 7.9205V7.8979ZM12.7829 6.50093C12.7829 6.27495 12.5975 6.09005 12.371 6.09005H3.28606C3.0595 6.09005 2.87413 6.27495 2.87413 6.50093C2.87413 6.72692 3.0595 6.91181 3.28606 6.91181H12.371C12.5893 6.91181 12.7705 6.7413 12.7829 6.52353V6.50093ZM3.28566 5.51482H6.96629C7.19286 5.51482 7.37822 5.32993 7.37822 5.10394C7.37822 4.87796 7.19286 4.69306 6.96629 4.69306H3.28566C3.0591 4.69306 2.87373 4.87796 2.87373 5.10394C2.87373 5.32993 3.0591 5.51482 3.28566 5.51482ZM12.7829 3.73367C12.7829 3.62479 12.7417 3.52001 12.6634 3.44194C12.5852 3.36387 12.4801 3.32279 12.371 3.32279H3.28606C3.0595 3.32279 2.87413 3.50768 2.87413 3.73367C2.87413 3.9617 3.0595 4.14455 3.28606 4.14455H12.371C12.5975 4.14455 12.7829 3.9617 12.7829 3.73367ZM26.4693 12.138C28.0903 12.138 29.5527 11.1642 30.1726 9.66858C30.7946 8.17506 30.4506 6.45549 29.3055 5.31118C28.1582 4.16687 26.4323 3.82586 24.9349 4.44425C23.4375 5.06263 22.4591 6.52123 22.4591 8.13803C22.4633 10.3465 24.2551 12.1359 26.4693 12.138ZM15.4029 15.2874V19.7208C15.3988 20.9616 14.3896 21.9683 13.1456 21.9724H2.51785C1.27175 21.9683 0.262548 20.9616 0.260491 19.7208V15.2874C0.262551 14.0465 1.2718 13.0399 2.51785 13.0358H13.1456C14.3896 13.0399 15.3988 14.0466 15.4029 15.2874ZM12.7233 17.4794H12.7213C12.7213 17.2534 12.5379 17.0685 12.3093 17.0685H3.35202C3.12545 17.0685 2.94009 17.2534 2.94009 17.4794C2.94009 17.7054 3.12545 17.8903 3.35202 17.8903H12.3093C12.5256 17.8883 12.7048 17.7218 12.7213 17.5061L12.7233 17.4794ZM35.7398 2.41849V19.7204C35.7378 20.9613 34.7285 21.9679 33.4825 21.972H19.8456C18.5995 21.9679 17.5903 20.9612 17.5883 19.7204V2.41849C17.6027 1.18582 18.6078 0.191504 19.8456 0.189453H33.4825C34.7203 0.191507 35.7254 1.18582 35.7398 2.41849ZM21.6353 8.13793C21.6332 10.0896 22.8093 11.8482 24.6156 12.596C26.4219 13.3438 28.5022 12.9329 29.8842 11.5544C31.2683 10.1759 31.6823 8.10301 30.9346 6.30129C30.187 4.49752 28.4239 3.32239 26.4693 3.32239C23.8041 3.3265 21.6415 5.47958 21.6353 8.13793ZM32.7534 16.8052C32.7534 16.2978 32.5515 15.8109 32.1911 15.4534C31.8327 15.0939 31.3445 14.8926 30.8358 14.8926H22.0968C21.0361 14.8926 20.1752 15.7513 20.1752 16.8113C20.1752 17.8693 21.0361 18.7281 22.0968 18.7281H30.8358C31.3466 18.7281 31.8347 18.5247 32.1952 18.1652C32.5556 17.8036 32.7554 17.3147 32.7534 16.8052ZM30.8358 15.7102H22.0968C21.4913 15.7102 20.999 16.1992 20.999 16.8052C20.999 17.4112 21.4913 17.9002 22.0968 17.9002H30.8358C31.4434 17.9002 31.9336 17.4112 31.9336 16.8052C31.9336 16.1992 31.4434 15.7102 30.8358 15.7102ZM35.7399 26.2824V36.2318C35.7378 37.3844 34.8028 38.317 33.6472 38.3191H18.3236V38.2801C18.3195 37.3269 17.9364 36.4147 17.2568 35.745C16.5791 35.0732 15.6605 34.6993 14.7049 34.7034H13.4588V33.2468H15.0406C15.5473 33.2427 16.0374 33.0722 16.4349 32.7579C17.1764 32.1683 17.4627 31.174 17.1497 30.2782C16.8345 29.3846 15.9901 28.7868 15.0406 28.7868H6.05427C5.44047 28.756 4.84318 28.9778 4.39832 29.4011C3.95343 29.8222 3.70216 30.4077 3.70216 31.0199C3.70216 31.6321 3.95343 32.2156 4.39832 32.6388C4.8432 33.0599 5.44052 33.2818 6.05427 33.251H7.28387V38.3192H2.34069C1.18728 38.3171 0.252212 37.3845 0.248047 36.2319V26.2824C0.252166 25.132 1.18723 24.2013 2.34069 24.2013H33.6475C34.8009 24.2013 35.7378 25.1319 35.7399 26.2824ZM25.7338 34.0193C25.7338 33.7912 25.5485 33.6084 25.3219 33.6084H21.2067C20.9801 33.6084 20.7948 33.7912 20.7948 34.0193C20.7948 34.2453 20.9801 34.4302 21.2067 34.4302H25.3219C25.5485 34.426 25.7297 34.2453 25.7338 34.0193ZM31.7748 32.1785C31.7748 31.9505 31.5894 31.7677 31.3629 31.7677H21.2065C20.98 31.7677 20.7946 31.9505 20.7946 32.1785C20.7946 32.4045 20.98 32.5894 21.2065 32.5894H31.3523C31.5789 32.5894 31.7642 32.4045 31.7642 32.1785H31.7748ZM21.2188 30.7549H25.3319V30.7528C25.5585 30.7528 25.7439 30.57 25.7439 30.3419C25.7439 30.1159 25.5585 29.931 25.3319 29.931H21.2065C20.9799 29.931 20.7945 30.1159 20.7945 30.3419C20.7945 30.57 20.9799 30.7528 21.2065 30.7528L21.2188 30.7549ZM31.7748 28.5033V28.5012C31.7748 28.2752 31.5894 28.0903 31.3629 28.0903H21.2065C20.98 28.0903 20.7946 28.2752 20.7946 28.5012C20.7946 28.7292 20.98 28.9121 21.2065 28.9121H31.3523C31.4615 28.9121 31.5665 28.8689 31.6427 28.7929C31.721 28.7149 31.7642 28.6101 31.7642 28.5012L31.7748 28.5033ZM15.0402 32.4251C15.7858 32.3778 16.3687 31.7595 16.3687 31.0137C16.3687 30.2679 15.7858 29.6496 15.0402 29.6023H11.8374C12.8364 30.1385 13.4584 31.1781 13.4584 32.31V32.4251L15.0402 32.4251ZM8.91066 29.6023H6.0539C5.66256 29.5797 5.27944 29.7174 4.99524 29.9844C4.71101 30.2515 4.54829 30.6233 4.54829 31.0137C4.54829 31.404 4.711 31.7759 4.99524 32.0429C5.27947 32.31 5.66256 32.4476 6.0539 32.425H7.2835V32.31C7.28556 31.178 7.90969 30.1385 8.91066 29.6023Z" fill="#2E3092"/>
</svg>
