<svg width="35" height="35" viewBox="0 0 35 35" fill="none" xmlns="http://www.w3.org/2000/svg">
<circle cx="17.2122" cy="17.4705" r="17.2029" fill="#D9D9D9"/>
<path fill-rule="evenodd" clipRule="evenodd" d="M27.0422 12.0956L20.1792 17.8185L27.0422 23.5414V12.0956ZM26.6992 24.4324C26.508 24.6099 26.2524 24.7193 25.9739 24.7193H7.63078C7.35313 24.7193 7.09847 24.6108 6.90817 24.4352L14.1371 18.4071L15.2412 19.3283C15.6761 19.6905 16.2452 19.8707 16.8115 19.8679C17.3769 19.8652 17.9469 19.6813 18.3845 19.3154L19.474 18.4071L26.6992 24.4324ZM6.5625 23.5462L13.432 17.8186L6.5625 12.091V23.5462ZM6.90819 11.202C7.0985 11.0255 7.35315 10.918 7.6308 10.918H25.9739C26.2534 10.918 26.509 11.0274 26.6993 11.2048L19.191 17.4664L19.1809 17.4747L17.8073 18.6202C17.5352 18.8473 17.173 18.9613 16.8089 18.9631C16.4458 18.965 16.0863 18.8547 15.8197 18.6331L14.4315 17.4756L14.4195 17.4655L6.90819 11.202Z" fill="black"/>
</svg>
