<svg width="36" height="35" viewBox="0 0 36 35" fill="none" xmlns="http://www.w3.org/2000/svg">
<path d="M18.0875 34.6734C27.5721 34.6734 35.2609 26.9714 35.2609 17.4705C35.2609 7.96958 27.5721 0.267578 18.0875 0.267578C8.60287 0.267578 0.914062 7.96958 0.914062 17.4705C0.914062 26.9714 8.60287 34.6734 18.0875 34.6734Z" fill="#3E6DC1"/>
<path d="M26.627 18.0403V24.7569H22.7847V18.4917C22.7847 16.9192 22.2316 15.8427 20.8366 15.8427C19.7744 15.8427 19.143 16.567 18.864 17.2664C18.7612 17.5145 18.7367 17.8667 18.7367 18.2139V24.7569H14.8944C14.8944 24.7569 14.9482 14.1413 14.8944 13.045H18.7367V14.7068C18.7367 14.7068 18.7172 14.7316 18.7123 14.7465H18.7367V14.7068C19.2458 13.9081 20.1562 12.7721 22.2022 12.7721C24.7328 12.7721 26.627 14.4439 26.627 18.0452V18.0403ZM8.93262 24.7569H12.775V13.045H8.93262V24.7569ZM12.8876 9.06658C12.8876 10.1728 12.0016 11.0707 10.9101 11.0707C9.81856 11.0707 8.93262 10.1728 8.93262 9.06658C8.93262 7.96037 9.81856 7.0625 10.9101 7.0625C12.0016 7.0625 12.8876 7.96037 12.8876 9.06658Z" fill="white"/>
</svg>
