<svg width="35" height="35" viewBox="0 0 35 35" fill="none" xmlns="http://www.w3.org/2000/svg">
<path d="M17.5743 34.6734C27.0589 34.6734 34.7478 26.9714 34.7478 17.4705C34.7478 7.96958 27.0589 0.267578 17.5743 0.267578C8.08969 0.267578 0.400879 7.96958 0.400879 17.4705C0.400879 26.9714 8.08969 34.6734 17.5743 34.6734Z" fill="#00C169"/>
<path fill-rule="evenodd" clipRule="evenodd" d="M22.4045 18.4672C22.147 18.3301 20.8886 17.6537 20.655 17.5591C20.4214 17.4645 20.2451 17.4124 20.0639 17.6679C19.8828 17.9185 19.3584 18.4861 19.2011 18.6517C19.0438 18.8173 18.8913 18.8362 18.6339 18.6943C18.3764 18.5571 17.547 18.2496 16.5841 17.332C15.8357 16.6178 15.3447 15.7522 15.2017 15.4873C15.0587 15.2224 15.2017 15.0852 15.3352 14.9623C15.4591 14.8487 15.6069 14.669 15.7451 14.5224C15.8786 14.3757 15.9263 14.2717 16.0216 14.1014C16.1169 13.9311 16.0788 13.7797 16.0168 13.6473C15.9549 13.5149 15.483 12.2236 15.2875 11.6938C15.0873 11.1688 14.868 11.2444 14.7155 11.2397C14.5629 11.235 14.3913 11.2066 14.215 11.2019C14.0386 11.1971 13.7573 11.2492 13.5095 11.4999C13.2616 11.7506 12.5609 12.3513 12.5132 13.6237C12.4655 14.896 13.3522 16.1637 13.4761 16.3387C13.6 16.5184 15.1731 19.2761 17.7854 20.4113C20.3976 21.5465 20.4119 21.2012 20.8934 21.1775C21.3748 21.1539 22.4617 20.6099 22.7 20.014C22.9384 19.418 22.9574 18.8977 22.9002 18.7889C22.8382 18.6801 22.6666 18.6091 22.414 18.4672H22.4045ZM17.609 24.6068C15.8834 24.6068 14.2722 24.0913 12.9279 23.2115L9.65783 24.2521L10.7208 21.1161C9.70073 19.7254 9.1001 18.0131 9.1001 16.1684C9.1001 11.5141 12.9184 7.72528 17.609 7.72528C22.2996 7.72528 26.1179 11.5141 26.1179 16.1684C26.1179 20.8228 22.2996 24.6116 17.609 24.6116V24.6068ZM17.609 6.02246C11.965 6.02246 7.38879 10.5633 7.38879 16.1637C7.38879 18.0794 7.92268 19.8721 8.85699 21.3999L7.01221 26.8394L12.6705 25.042C14.1339 25.8461 15.8166 26.3049 17.609 26.3049C23.253 26.3049 27.8292 21.7641 27.8292 16.1637C27.8292 10.5633 23.253 6.02246 17.609 6.02246Z" fill="white"/>
</svg>
