<svg width="53" height="59" viewBox="0 0 53 59" fill="none" xmlns="http://www.w3.org/2000/svg">
<path d="M20.1094 19.3681C20.1094 22.8584 22.9713 25.7073 26.5 25.7073C30.0288 25.7073 32.8907 22.8587 32.8907 19.3681C32.8907 15.8775 30.0288 13.0195 26.5 13.0195C22.9713 13.0195 20.1094 15.8681 20.1094 19.3681Z" fill="#2E3092"/>
<path d="M33.3408 45.4732C33.4976 45.5802 33.6838 45.6482 33.8897 45.6482C33.9387 45.6482 33.9779 45.6385 34.0269 45.6385C34.1739 45.6191 34.3111 45.5705 34.4287 45.483C36.2811 45.4927 37.5847 45.5219 37.9865 45.5802C38.0944 45.6191 38.212 45.6482 38.3296 45.6482C38.4766 45.6482 38.6236 45.6094 38.7608 45.5413C39.1431 45.3566 39.3587 44.958 39.2999 44.5496L37.9277 34.0596C37.7219 32.5429 37.1142 31.1624 36.2322 30.0248C37.1339 29.3734 38.2022 29.004 39.3293 29.004H44.6122C45.651 29.004 46.6606 29.3054 47.5133 29.879C47.9641 30.1804 48.5718 30.0637 48.8757 29.6165C49.1795 29.1692 49.0619 28.5665 48.611 28.2651C47.4251 27.4776 46.0431 27.0595 44.6122 27.0595H39.3293C37.673 27.0595 36.1048 27.6137 34.8208 28.6345C33.38 27.497 31.5668 26.8262 29.6164 26.8262H23.3829C21.4324 26.8262 19.6192 27.497 18.1785 28.6345C16.8945 27.6137 15.3263 27.0595 13.6699 27.0595H8.3871C6.96595 27.0595 5.5938 27.4678 4.40781 28.2554C3.95696 28.5567 3.82954 29.1595 4.13338 29.6068C4.43722 30.054 5.04487 30.1804 5.49575 29.879C6.35825 29.3151 7.358 29.0137 8.39689 29.0137H13.6797C14.8069 29.0137 15.8752 29.3832 16.7769 30.0345C15.885 31.172 15.2871 32.5526 15.0813 34.0693L13.7091 44.5593C13.6699 44.8315 13.7581 45.1232 13.9444 45.3274C14.1404 45.5413 14.4344 45.6482 14.699 45.6579C15.9536 45.6385 17.3257 45.6191 18.7665 45.5899C18.8351 45.6191 18.9037 45.6385 18.9821 45.6482C19.0312 45.6482 19.0704 45.6579 19.1194 45.6579C19.237 45.6579 19.3546 45.6385 19.4624 45.5899H19.4722C24.2649 45.5218 29.6165 45.4732 33.3506 45.4829L33.3408 45.4732ZM32.7429 43.5191L31.5766 34.7887C31.508 34.254 31.8804 33.7679 32.4195 33.6998C32.9586 33.6317 33.4486 34.0012 33.5172 34.5359L34.7326 43.5289C34.1543 43.5192 33.4976 43.5191 32.7429 43.5191ZM18.2473 43.6358L19.4823 34.5358C19.5509 34.001 20.0507 33.6316 20.58 33.6996C21.1191 33.7677 21.4915 34.2538 21.4229 34.7885L20.237 43.6166C19.5999 43.6166 18.9334 43.6358 18.2473 43.6358Z" fill="#2E3092"/>
<path d="M5.4668 20.8953C5.4668 23.9384 7.9661 26.4176 11.0241 26.4176C14.082 26.4176 16.5911 23.9384 16.5911 20.8953C16.5911 17.8523 14.0918 15.3828 11.0241 15.3828C7.95632 15.3828 5.4668 17.862 5.4668 20.8953ZM14.6306 20.8953C14.6306 22.869 13.0135 24.4731 11.0238 24.4731C9.03416 24.4731 7.42677 22.869 7.42677 20.8953C7.42677 18.9217 9.04394 17.3273 11.0238 17.3273C13.0037 17.3273 14.6306 18.9314 14.6306 20.8953Z" fill="#2E3092"/>
<path d="M41.9762 26.4156C45.0342 26.4156 47.5335 23.9364 47.5335 20.8934C47.5335 17.8503 45.0342 15.3809 41.9762 15.3809C38.9183 15.3809 36.4092 17.86 36.4092 20.8934C36.4092 23.9267 38.9085 26.4156 41.9762 26.4156ZM41.9762 17.3256C43.956 17.3256 45.5733 18.9297 45.5733 20.8936C45.5733 22.8575 43.9561 24.4714 41.9762 24.4714C39.9964 24.4714 38.3694 22.8673 38.3694 20.8936C38.3694 18.92 39.9866 17.3256 41.9762 17.3256Z" fill="#2E3092"/>
<path d="M13.3663 49.8469C6.25052 45.3552 1.99698 37.6943 1.99698 29.3329C1.99698 16.7621 11.6607 6.39841 24.0105 5.15396L22.8736 6.28174C22.4913 6.66091 22.4913 7.27344 22.8736 7.65256C23.0696 7.847 23.3146 7.9345 23.5695 7.9345C23.8243 7.9345 24.0693 7.83728 24.2654 7.65256L27.2057 4.73589C27.2939 4.64839 27.3723 4.54145 27.4213 4.41506C27.5193 4.18173 27.5193 3.9095 27.4213 3.67617C27.3723 3.5595 27.3037 3.45256 27.2057 3.35534L24.2654 0.438674C23.8831 0.0595044 23.2656 0.0595044 22.8834 0.438674C22.5012 0.817844 22.5012 1.43037 22.8834 1.80949L24.2556 3.1706C10.7203 4.31786 0.0566406 15.5958 0.0566406 29.3139C0.0566406 38.3361 4.64357 46.6191 12.3273 51.4613C12.494 51.5682 12.6704 51.6168 12.8566 51.6168C13.18 51.6168 13.4937 51.4613 13.6799 51.1696C13.9739 50.7127 13.8367 50.1196 13.3761 49.828L13.3663 49.8469Z" fill="#2E3092"/>
<path d="M52.9635 29.3343C52.9635 20.312 48.3765 12.029 40.6928 7.18688C40.2321 6.89522 39.6342 7.03133 39.3402 7.48828C39.0462 7.94522 39.1834 8.53828 39.6441 8.82991C46.7598 13.3216 51.0134 20.9825 51.0134 29.344C51.0134 41.9147 41.3496 52.2784 28.9999 53.5229L30.1368 52.3951C30.5191 52.0159 30.5191 51.4034 30.1368 51.0243C29.7546 50.6452 29.1371 50.6451 28.7549 51.0243L25.8145 53.941C25.7263 54.0285 25.6479 54.1354 25.5989 54.2618C25.5009 54.4951 25.5009 54.7673 25.5989 55.0007C25.6479 55.1174 25.7165 55.2243 25.8145 55.3215L28.7549 58.2382C28.9509 58.4326 29.1959 58.5201 29.4508 58.5201C29.7056 58.5201 29.9506 58.4229 30.1467 58.2382C30.5289 57.859 30.5289 57.2465 30.1467 56.8674L28.7745 55.5062C42.3098 54.359 52.9734 43.0811 52.9734 29.363L52.9635 29.3343Z" fill="#2E3092"/>
</svg>
