<svg width="42" height="47" viewBox="0 0 42 47" fill="none" xmlns="http://www.w3.org/2000/svg">
<path d="M41.1029 26.3917C40.8643 25.2172 39.8117 24.3322 38.5567 24.3322L3.4431 24.3301C2.24992 24.3301 1.23995 25.137 0.931009 26.2248C0.760554 26.4635 0.87348 31.6468 0.841521 32.0545C0.841521 33.474 2.00912 34.623 3.44094 34.623H38.5524C39.9842 34.623 41.1518 33.474 41.1518 32.0545C41.1667 31.7694 41.1795 26.5227 41.0985 26.3892L41.1029 26.3917ZM6.88437 32.6421C2.66561 32.509 2.66561 26.4446 6.88437 26.3116C11.1031 26.4447 11.1031 32.5091 6.88437 32.6421ZM34.6469 32.1858H19.8236C19.3379 32.1858 18.9394 31.7908 18.9394 31.3092C18.9394 30.8276 19.3378 30.4326 19.8236 30.4326H34.6469C35.806 30.4495 35.8145 32.1689 34.6469 32.1858ZM34.6469 28.5211H19.8236C19.3379 28.5211 18.9394 28.1345 18.9394 27.6445C18.9394 27.1629 19.3378 26.7679 19.8236 26.7679H34.6469C35.8081 26.7827 35.8145 28.5105 34.6469 28.5211Z" fill="#2E3092"/>
<path d="M6.88433 28.0664C5.01145 28.0981 5.01358 30.8588 6.88433 30.8905C8.7572 30.8588 8.75507 28.0981 6.88433 28.0664Z" fill="#2E3092"/>
<path d="M38.5568 36.377H3.44317C2.01135 36.377 0.84375 37.5345 0.84375 38.9539V44.1015C0.84375 45.5209 2.01135 46.6784 3.44317 46.6784H38.5546C39.9864 46.6784 41.154 45.5209 41.154 44.1015V38.9539C41.154 37.5345 39.9864 36.377 38.5546 36.377H38.5568ZM6.88444 44.6973C2.66142 44.5643 2.66993 38.4956 6.88444 38.3582C11.099 38.4955 11.1075 44.5643 6.88444 44.6973ZM34.647 44.2326H19.8237C19.3379 44.2326 18.9395 43.8461 18.9395 43.356C18.9395 42.8744 19.3379 42.4794 19.8237 42.4794H34.647C35.8082 42.4942 35.8146 44.2221 34.647 44.2326ZM34.647 40.5763H19.8237C19.3379 40.5763 18.9395 40.1813 18.9395 39.6997C18.9395 39.2181 19.3379 38.8231 19.8237 38.8231H34.647C35.8061 38.84 35.8146 40.5594 34.647 40.5763Z" fill="#2E3092"/>
<path d="M6.88433 40.1113C5.01571 40.1451 5.00933 42.9122 6.88433 42.9439C8.75933 42.9143 8.75082 40.1451 6.88433 40.1113Z" fill="#2E3092"/>
<path d="M38.5572 22.5759C39.3093 22.5759 40.0167 22.7597 40.6346 23.0934L38.097 5.31222C37.69 2.40153 35.1439 0.208984 32.1717 0.208984H9.82283C6.85904 0.208984 4.31264 2.40153 3.89755 5.31222L1.37695 23.0934C1.99697 22.7597 2.69373 22.5759 3.44586 22.5759H38.5572ZM9.89084 8.45121C10.3852 7.03176 11.704 6.03902 13.2786 5.9883C14.7722 1.59056 21.2068 1.58212 22.6986 5.97985C24.3073 5.99675 25.6709 7.00639 26.1738 8.4533C26.8386 8.37304 27.4372 8.77225 28.085 8.75958C29.7298 8.75958 31.1532 9.75871 31.737 11.2225C32.896 11.2922 33.8783 12.021 34.3023 13.0559C38.1801 13.301 38.08 18.8857 34.1872 18.9998H21.9739C20.2737 19.0061 18.8781 17.5549 18.9846 15.8694H9.75004C4.71735 15.7067 4.83049 8.43012 9.89084 8.45121Z" fill="#2E3092"/>
<path d="M24.6885 12.9768C24.0429 12.9768 23.5209 13.4584 23.4676 14.0984C23.4506 14.3625 23.3078 14.6075 23.0883 14.7553C22.7645 15.013 22.3213 14.8377 21.974 14.7997C20.3589 14.8271 20.3589 17.2182 21.974 17.2457H34.1872C35.7959 17.2182 35.8108 14.8314 34.1872 14.7997C33.8591 14.8398 33.433 14.9813 33.1347 14.73C32.9131 14.58 32.781 14.3434 32.7554 14.0815C32.7107 13.6084 32.4103 13.2218 31.9862 13.0634C31.9457 13.7879 31.5665 14.8398 30.6418 14.5188C30.1816 14.3519 29.943 13.8534 30.1027 13.3972C30.2391 13.0317 30.2774 12.6663 30.2093 12.2924C30.0345 11.2701 29.1375 10.5096 28.0871 10.5118C27.0623 10.5054 26.1312 11.2553 25.965 12.2818C25.8648 12.8923 25.232 13.095 24.6908 12.9746L24.6885 12.9768Z" fill="#2E3092"/>
<path d="M9.75021 14.1144H19.6726C20.2116 13.4744 21.017 13.0625 21.9268 13.0456C22.3508 12.0465 23.3075 11.3262 24.4304 11.2311C24.4708 10.908 25.0951 10.2299 24.9779 10.1518C24.7649 10.0018 24.6242 9.76522 24.6072 9.51174C24.5284 8.59924 23.8466 7.88952 22.9708 7.75855C22.9623 8.27606 22.8558 8.79359 22.6789 9.30264C22.272 10.3947 20.6356 9.79269 21.0063 8.71545C22.3849 4.32193 15.8671 2.52667 14.8143 7.06787C14.7483 7.53045 14.254 7.86632 13.7874 7.77759C12.6283 7.57692 11.5501 8.3817 11.4607 9.53078C11.4351 9.80326 11.2923 10.0483 11.0708 10.1962C10.6745 10.5024 10.1631 10.2088 9.74334 10.2046C7.12685 10.268 7.13541 14.0532 9.74334 14.1144L9.75021 14.1144Z" fill="#2E3092"/>
</svg>
