<svg width="46" height="47" viewBox="0 0 46 47" fill="none" xmlns="http://www.w3.org/2000/svg">
<path d="M45.4343 44.7078H38.323C38.2448 43.3301 37.8862 42.0276 37.3002 40.8597L43.458 37.2664C44.6423 39.4981 45.3491 42.0258 45.4343 44.7078ZM37.5152 30.8566L33.9588 37.0782C35.0667 37.8155 36.0184 38.7753 36.7464 39.8947L42.9042 36.3014C41.5423 34.1001 39.6954 32.2323 37.5152 30.8566ZM33.0035 36.522L36.56 30.3004C34.3512 29.1038 31.8513 28.3916 29.195 28.3055V35.4906C30.5586 35.5659 31.8476 35.93 33.0035 36.522ZM28.0922 28.3036C25.4377 28.3915 22.9358 29.1019 20.7272 30.2985L24.2818 36.5201C25.4395 35.9298 26.7286 35.5657 28.0922 35.4885L28.0922 28.3036ZM14.3849 36.3029L20.539 39.8963C21.2687 38.7768 22.2187 37.8171 23.3284 37.0797L19.7737 30.8581C17.5933 32.2323 15.7447 34.1001 14.3849 36.3029ZM11.8547 44.7078H18.9642C19.0424 43.3301 19.401 42.0276 19.987 40.8597L13.8311 37.2664C12.6467 39.4981 11.9399 42.0258 11.8547 44.7078ZM14.0777 34.764H1.70179C1.07502 34.764 0.56543 34.2491 0.56543 33.6158V5.36585H39.36V30.7849C36.3699 28.5209 32.6609 27.179 28.6445 27.179C22.6468 27.179 17.3286 30.1748 14.0777 34.764ZM29.7454 9.27874C29.7454 9.58551 29.9922 9.83665 30.2976 9.83665H36.6472C36.9508 9.83665 37.1993 9.58728 37.1993 9.27874C37.1993 8.97197 36.9525 8.72262 36.6472 8.72262H30.2976C29.9922 8.72262 29.7454 8.97199 29.7454 9.27874ZM29.7454 11.8997C29.7454 12.2065 29.9922 12.4558 30.2976 12.4558H36.6472C36.9508 12.4558 37.1993 12.2065 37.1993 11.8997C37.1993 11.593 36.9525 11.3418 36.6472 11.3418H30.2976C29.9922 11.3418 29.7454 11.593 29.7454 11.8997ZM29.7454 14.5207C29.7454 14.8275 29.9922 15.0786 30.2976 15.0786H36.6472C36.9508 15.0786 37.1993 14.8293 37.1993 14.5207C37.1993 14.214 36.9525 13.9646 36.6472 13.9646H30.2976C29.9922 13.9628 29.7454 14.2122 29.7454 14.5207ZM29.7454 17.1435C29.7454 17.4503 29.9922 17.6996 30.2976 17.6996H33.4723C33.776 17.6996 34.0227 17.4503 34.0227 17.1435C34.0227 16.8349 33.7759 16.5856 33.4723 16.5856H30.2976C29.9922 16.5856 29.7454 16.835 29.7454 17.1435ZM20.8677 20.9449C20.2232 19.4559 19.4046 18.4315 18.4316 17.9023C17.5829 17.4395 16.6489 17.3713 15.7327 17.7068C13.5985 18.4872 13.8116 20.1304 13.9394 21.1118C13.9838 21.4616 14.0406 21.8958 13.9394 22.0034C13.7281 22.2312 13.2789 22.3873 12.8048 22.5524C12.0041 22.8304 11.0967 23.1462 10.6369 24.0055C10.1149 24.9796 10.3652 26.065 11.3081 26.9064C12.242 27.7406 13.7068 28.2465 15.2534 28.2465C16.5513 28.2465 17.9078 27.8877 19.0496 27.0643C21.3401 25.4102 21.9348 23.4098 20.8677 20.9449ZM2.20134 11.7722C2.3061 12.4646 2.57066 13.306 2.80147 14.0487C2.96838 14.5797 3.12463 15.082 3.17079 15.3727C3.52591 17.5613 3.13173 18.6233 2.74821 19.6495C2.47299 20.3851 2.19243 21.1403 2.19243 22.2328C2.19243 22.5647 2.21729 22.9289 2.27944 23.3325C2.6381 25.7329 4.0408 27.0999 6.13244 27.0999H6.24252C9.91793 27.0138 10.0458 24.9901 10.1665 23.0365C10.266 21.4524 10.3689 19.8145 12.0895 18.53C12.7979 18.0026 13.4993 17.5792 14.1776 17.2706C16.1999 16.3593 18.2223 16.7575 20.1771 17.1433C21.729 17.4482 23.1938 17.7371 24.4687 17.2796C25.9087 16.7629 26.8533 15.3959 27.4392 12.983C27.9843 10.7387 27.2954 8.79943 25.5962 7.79843C23.121 6.3417 20.7416 6.87095 18.2257 7.43066C16.3276 7.85404 14.3621 8.29177 12.2243 7.88275C7.46207 6.97139 4.46343 7.19923 3.05162 8.5788C2.27748 9.33405 1.99184 10.4087 2.20134 11.7722ZM6.32243 32.5141C6.32243 32.2056 6.07562 31.9562 5.77202 31.9562H2.59552C2.2919 31.9562 2.04511 32.2056 2.04511 32.5141C2.04511 32.8209 2.29192 33.0703 2.59552 33.0703H5.77025C6.07565 33.0703 6.32243 32.8209 6.32243 32.5141ZM12.4392 30.3111C12.4392 30.0043 12.1924 29.7532 11.8888 29.7532L2.59566 29.755C2.29203 29.755 2.04525 30.0044 2.04525 30.3129C2.04525 30.6197 2.29205 30.869 2.59566 30.869H11.8888C12.1942 30.869 12.4392 30.6197 12.4392 30.3111ZM20.0247 21.3179C20.9142 23.3738 20.4491 24.913 18.5172 26.3068C16.2072 27.9752 13.1495 27.3079 11.9191 26.21C11.4823 25.8189 11.0455 25.1982 11.4467 24.4501C11.7379 23.9083 12.434 23.6661 13.1051 23.4329C13.6911 23.2302 14.245 23.0364 14.6126 22.64C15.0085 22.2112 14.9286 21.5923 14.8523 20.9931C14.7209 19.9813 14.609 19.1076 16.0472 18.582C16.3278 18.4797 16.6048 18.4295 16.8764 18.4295C18.0927 18.4277 19.2115 19.4378 20.0247 21.3179ZM19.0978 21.7251C18.6859 20.7761 17.4217 19.1418 16.47 19.4073C16.1682 19.4916 15.8397 19.7589 15.8397 20.5321C15.8397 20.6613 15.8486 20.8066 15.8699 20.9645C15.9906 21.9224 15.9498 22.6921 15.3514 23.3361C15.0425 23.668 14.6377 23.7846 14.1671 23.9192C13.9913 23.9694 13.8102 24.0214 13.6273 24.0878C12.8141 24.3838 12.4235 24.7838 12.4661 25.2808C12.5354 26.0648 13.654 26.3733 14.3162 26.4864C14.508 26.5205 14.714 26.5366 14.9288 26.5366C16.2108 26.5366 17.823 25.9428 18.7357 24.7677C19.4317 23.8761 19.5595 22.7961 19.0978 21.7251ZM16.7718 20.3276C16.7576 20.4101 16.747 20.568 16.7825 20.8479C16.818 21.1277 16.8446 21.4184 16.8446 21.7161C16.8446 22.4822 16.6689 23.2787 16.0243 23.9748C15.5414 24.495 14.9448 24.6655 14.421 24.8161C14.2523 24.8646 14.0943 24.9094 13.9416 24.965C13.654 25.0691 13.5084 25.1588 13.4355 25.2162C13.5705 25.3167 13.9007 25.4745 14.4725 25.5732C15.5236 25.758 17.198 25.2485 18.013 24.1972C18.503 23.5657 18.5847 22.8607 18.2562 22.0983C17.8727 21.2156 17.1074 20.4568 16.7718 20.3276ZM3.11047 11.6302C2.94712 10.5681 3.13533 9.78775 3.68929 9.24775C4.85407 8.10856 7.66834 7.95787 12.052 8.79566C14.3762 9.24057 16.4341 8.78131 18.4229 8.3382C20.8626 7.79641 22.9684 7.32641 25.1329 8.60012C27.047 9.72852 26.7593 11.8849 26.5481 12.7604C25.4597 17.2346 23.4284 16.8363 20.3549 16.2299C18.3574 15.837 16.0917 15.3904 13.8031 16.4219C13.0662 16.7556 12.3045 17.2131 11.5445 17.7817C9.47952 19.3245 9.3517 21.3499 9.2487 22.9787C9.12619 24.9287 9.05162 26.1056 6.22134 26.172C4.09066 26.2222 3.39643 24.5807 3.18866 23.1957C2.96671 21.7049 3.26501 20.9048 3.60947 19.9791C4.01429 18.892 4.47415 17.6577 4.08001 15.2235C4.02142 14.8683 3.86339 14.3588 3.67873 13.7704C3.45679 13.0581 3.20634 12.2527 3.11047 11.6302ZM4.04975 11.4831C4.1474 12.1289 4.35515 12.764 4.55579 13.3775C4.74756 13.9623 4.92866 14.5167 5.01743 15.0692C5.3832 17.3099 5.17368 18.4598 4.40484 20.5767C4.05683 21.5239 3.98936 22.1249 4.12785 23.0541C4.20775 23.5923 4.451 25.2141 6.13603 25.2141H6.19995C7.16408 25.1925 7.71095 24.997 8.02699 24.5628C8.32529 24.1502 8.33062 23.6372 8.33772 22.9877C8.34127 22.6415 8.34482 22.2486 8.39453 21.8055C8.63423 19.6509 9.43326 18.1727 10.9833 17.0136C11.7983 16.4054 12.6186 15.9121 13.4176 15.5497C15.6122 14.5594 17.7909 14.7747 19.8167 15.1532C20.1825 15.2214 20.5163 15.2914 20.8412 15.3613C22.1125 15.6286 23.0305 15.8206 23.8295 15.4833C24.6729 15.1281 25.2109 14.2473 25.6264 12.5376C25.9726 11.1114 25.6281 10.0099 24.6569 9.43579C23.9467 9.01779 23.1885 8.79715 22.338 8.75944C21.1288 8.70742 19.7847 9.01419 18.5986 9.28506C18.3323 9.34606 18.0713 9.40526 17.8174 9.45908C15.9956 9.84838 14.0141 10.1533 11.8746 9.74432C10.4364 9.46984 8.56499 9.16308 6.84281 9.23661C5.88399 9.27967 4.89322 9.32272 4.35522 9.98649C4.05692 10.3489 3.95387 10.8552 4.04975 11.4831ZM4.95884 11.3395C4.9038 10.9843 4.94108 10.726 5.06715 10.5699C5.34591 10.2273 6.16269 10.1914 6.88356 10.1591C8.50997 10.0891 10.314 10.3851 11.704 10.6506C14.0016 11.0902 16.0914 10.7708 18.0072 10.3618C18.2647 10.3062 18.5292 10.247 18.8009 10.1842C19.9852 9.91509 21.2103 9.63524 22.297 9.68185C23.0036 9.71415 23.6056 9.88816 24.1915 10.2326C24.797 10.5896 24.9781 11.2893 24.7313 12.31C24.0583 15.0799 23.3552 14.9328 21.0257 14.4448C20.6972 14.3767 20.3581 14.3049 19.9834 14.2331C17.8101 13.8277 15.4664 13.6017 13.0411 14.696C12.18 15.0853 11.3029 15.6127 10.4346 16.2603C8.68387 17.5699 7.7446 19.2957 7.47651 21.6979C7.42147 22.1877 7.41792 22.6057 7.41437 22.9752C7.40904 23.4578 7.40549 23.8399 7.2812 24.0104C7.16046 24.1772 6.78761 24.2687 6.17679 24.283C5.58729 24.2974 5.21088 24.0785 5.03688 22.9142C4.92147 22.1464 4.97296 21.6943 5.2677 20.8978C6.04716 18.754 6.3277 17.3834 5.92643 14.9182C5.82522 14.2939 5.62458 13.6804 5.42925 13.0866C5.23216 12.4802 5.04586 11.9118 4.95884 11.3395ZM6.2177 11.8956C6.26032 12.0266 6.30293 12.154 6.34377 12.276C6.60655 13.0815 6.87822 13.9139 7.02027 14.7929C7.10372 15.2953 7.16586 15.7832 7.2067 16.2425C7.22268 16.4236 7.34342 16.5797 7.51565 16.6407C7.56359 16.6587 7.61508 16.6658 7.66657 16.6658C7.79087 16.6658 7.9116 16.6156 8.00038 16.5205C8.4425 16.0487 8.93966 15.6038 9.47943 15.2002C10.3956 14.5166 11.3384 14.0735 12.0274 13.7488C12.8566 13.3595 13.3129 13.1442 13.2507 12.6509C13.1886 12.1558 12.6133 12.0105 11.7397 11.8436C10.1702 11.5422 8.33775 11.2408 6.64566 11.2857C6.50006 11.2893 6.36512 11.361 6.28167 11.4812C6.19466 11.6032 6.17153 11.7557 6.2177 11.8956ZM8.01279 15.2109C8.30398 14.9472 8.60938 14.6943 8.92897 14.4539C9.91975 13.7148 10.9123 13.2466 11.6367 12.9075C11.7024 12.877 11.7699 12.8447 11.8356 12.8124C11.7557 12.7963 11.6669 12.7783 11.5657 12.7586C10.2393 12.5056 8.723 12.2491 7.29191 12.2168C7.53338 12.9613 7.78909 13.7848 7.92754 14.6441C7.9595 14.8342 7.98793 15.0226 8.01279 15.2109ZM39.3605 4.25165H0.565975V1.828C0.565975 1.19473 1.07557 0.681641 1.70234 0.681641H38.2223C38.8509 0.681641 39.3605 1.19473 39.3605 1.828L39.3605 4.25165ZM4.73325 2.46843C4.73325 2.0917 4.43317 1.78671 4.06029 1.78671C3.68742 1.78671 3.38734 2.09169 3.38734 2.46843C3.38734 2.84158 3.68741 3.14837 4.06029 3.14837C4.43494 3.14657 4.73325 2.8416 4.73325 2.46843ZM7.79079 2.46843C7.79079 2.0917 7.48895 1.78671 7.11429 1.78671C6.74498 1.78671 6.44134 2.09169 6.44134 2.46843C6.44134 2.84158 6.74318 3.14837 7.11429 3.14837C7.48894 3.14657 7.79079 2.8416 7.79079 2.46843ZM10.8466 2.46843C10.8466 2.0917 10.5447 1.78671 10.1736 1.78671C9.80074 1.78671 9.49711 2.09169 9.49711 2.46843C9.49711 2.84158 9.79896 3.14837 10.1736 3.14837C10.5429 3.14657 10.8466 2.8416 10.8466 2.46843ZM29.4157 44.408C29.2115 44.2196 28.9416 44.1066 28.6451 44.1066C28.0112 44.1066 27.4945 44.6269 27.4945 45.2673C27.4945 45.9077 28.0112 46.4298 28.6451 46.4298C29.2772 46.4298 29.7921 45.9077 29.7921 45.2673C29.7921 44.9282 29.6482 44.6233 29.4174 44.4098C29.4174 44.408 29.4174 44.408 29.4157 44.408ZM33.1088 39.4765L29.7051 43.26C30.0335 43.4376 30.3141 43.6977 30.5201 44.0099L33.9238 40.2246C34.128 39.9967 34.112 39.6451 33.8866 39.437C33.6628 39.2325 33.313 39.2486 33.1088 39.4765Z" fill="#2E3092"/>
</svg>
