<svg width="54" height="52" viewBox="0 0 54 52" fill="none" xmlns="http://www.w3.org/2000/svg">
<path d="M39.0242 29.3747C41.8881 20.4567 32.8527 11.9775 23.4894 14.6699C15.216 10.9093 11.1275 15.1446 14.9655 22.7385C15.2258 21.8988 15.573 21.0955 16.0069 20.347C14.358 15.8836 16.2576 14.0853 20.973 15.6463C18.8805 16.7416 17.164 18.3663 16.0069 20.347C18.3404 26.6818 26.5853 34.3309 33.0166 36.4573C35.1091 35.3711 36.8352 33.7373 37.9923 31.7565C39.6412 36.2291 37.7416 38.0089 33.0166 36.4573C32.2355 36.868 31.3966 37.1966 30.5094 37.434C38.5903 41.1307 42.9585 37.1242 39.0242 29.3747ZM28.9283 27.8778C26.7973 27.8778 25.0712 26.2439 25.0712 24.2267C25.0712 22.2095 26.7973 20.5756 28.9283 20.5756C31.0594 20.5756 32.7855 22.2095 32.7855 24.2267C32.7855 26.2439 31.0594 27.8778 28.9283 27.8778ZM30.5094 37.434C21.1752 40.1267 12.1599 31.72 14.9655 22.7385C17.8005 28.6351 25.4563 35.4443 30.5094 37.434ZM30.8569 24.2267C30.8569 25.2308 29.9891 26.0522 28.9283 26.0522C27.8676 26.0522 26.9998 25.2308 26.9998 24.2267C26.9998 23.2226 27.8676 22.4011 28.9283 22.4011C29.9891 22.4011 30.8569 23.2226 30.8569 24.2267ZM33.393 46.1512C40.5383 44.1157 46.0827 38.8672 48.2334 32.1036C48.5998 30.9444 50.4513 31.4739 50.0849 32.6331C47.7513 39.9901 41.7244 45.6945 33.9521 47.9039C32.7082 48.2507 32.1972 46.4981 33.393 46.1512ZM3.91454 19.4709C6.24808 12.1139 12.275 6.40946 20.0473 4.20012C21.2816 3.85327 21.8216 5.60576 20.6066 5.95264C13.4613 7.98812 7.91686 13.2367 5.76612 20.0002C5.39969 21.1594 3.55777 20.6301 3.91454 19.4709ZM20.0473 47.9037C12.275 45.6949 6.24857 39.99 3.91454 32.6329C3.54811 31.4737 5.38988 30.9534 5.76597 32.1035C7.91634 38.867 13.4611 44.1152 20.6064 46.1511C21.8214 46.4979 21.2816 48.2414 20.0473 47.9037ZM48.2334 20.0002C46.083 13.2367 40.5383 7.98847 33.393 5.95264C32.178 5.60578 32.718 3.86241 33.9523 4.20012C41.7246 6.40899 47.751 12.1139 50.085 19.4709C50.4514 20.6302 48.6095 21.1503 48.2334 20.0002ZM30.8571 4.14521C30.8571 6.16241 29.1311 7.79628 27 7.79628C24.8689 7.79628 23.1429 6.16241 23.1429 4.14521C23.1429 2.12801 24.8689 0.494141 27 0.494141C29.1311 0.494141 30.8571 2.12801 30.8571 4.14521ZM54 26.0516C54 28.0688 52.2739 29.7027 50.1429 29.7027C48.0118 29.7027 46.2857 28.0688 46.2857 26.0516C46.2857 24.0344 48.0118 22.4006 50.1429 22.4006C52.2739 22.4006 54 24.0344 54 26.0516ZM30.8571 47.9581C30.8571 49.9753 29.1311 51.6091 27 51.6091C24.8689 51.6091 23.1429 49.9753 23.1429 47.9581C23.1429 45.9409 24.8689 44.307 27 44.307C29.1311 44.307 30.8571 45.9409 30.8571 47.9581ZM7.71429 26.0516C7.71429 28.0688 5.9882 29.7027 3.85714 29.7027C1.72609 29.7027 0 28.0688 0 26.0516C0 24.0344 1.72609 22.4006 3.85714 22.4006C5.9882 22.4006 7.71429 24.0344 7.71429 26.0516Z" fill="#2E3092"/>
</svg>
