<svg width="48" height="55" viewBox="0 0 48 55" fill="none" xmlns="http://www.w3.org/2000/svg">
<path fill-rule="evenodd" clip-rule="evenodd" d="M24.3855 13.6805C21.2679 13.6805 18.2756 14.9023 16.0696 17.0746C13.8634 19.2491 12.6239 22.1962 12.6239 25.2713C12.6239 28.3464 13.8634 31.2935 16.0674 33.468C18.2735 35.6425 21.2656 36.8642 24.3833 36.8642C27.5031 36.8642 30.4953 35.6425 32.6992 33.4701C34.9053 31.2956 36.1448 28.3464 36.1448 25.2735C36.1404 22.2006 34.9009 19.2535 32.697 17.0812C30.493 14.9067 27.503 13.6849 24.3855 13.6805ZM27.0275 34.9372V28.305L27.9764 27.565C29.3525 28.2442 31.0258 27.8167 31.8933 26.5624C32.7608 25.3102 32.5538 23.6175 31.4111 22.6019C30.2662 21.5884 28.5356 21.5645 27.3644 22.5454C26.1909 23.5285 25.9354 25.2147 26.7655 26.4908L25.7263 27.298C25.5347 27.45 25.4224 27.6778 25.4224 27.9209V35.2298C25.0768 35.2645 24.7311 35.2818 24.3854 35.2818C24.0442 35.2818 23.7051 35.2645 23.3682 35.2319V27.923C23.3682 27.68 23.256 27.4521 23.0622 27.3002L21.5452 26.1197C22.3489 24.8306 22.0626 23.1531 20.8715 22.1939C19.6826 21.2368 17.9565 21.2933 16.8336 22.3284C15.7129 23.3614 15.539 25.0563 16.4307 26.2889C17.3201 27.5238 19.0001 27.9187 20.3607 27.2134L21.7654 28.305V34.9433C18.5641 34.1013 15.9814 31.7728 14.8457 28.7044C13.7096 25.638 14.1632 22.2155 16.0588 19.54C17.9567 16.862 21.0611 15.267 24.3724 15.2627C27.686 15.2583 30.7928 16.849 32.6973 19.5227C34.5996 22.1941 35.062 25.6143 33.9325 28.6849C32.803 31.7554 30.2248 34.0885 27.0257 34.9371L27.0275 34.9372ZM27.884 24.8633C27.884 24.2795 28.2406 23.7544 28.7889 23.5309C29.3349 23.3073 29.9646 23.431 30.3851 23.8434C30.8034 24.2578 30.9289 24.8785 30.6999 25.4167C30.4732 25.9571 29.9403 26.3086 29.3481 26.3086C28.5379 26.3086 27.884 25.6619 27.884 24.8633ZM18.9317 25.9809C18.3394 25.9809 17.8044 25.6293 17.5777 25.089C17.3509 24.5508 17.4764 23.9301 17.8947 23.5156C18.3153 23.1033 18.945 22.9796 19.491 23.2031C20.0392 23.4267 20.3959 23.954 20.3959 24.5377C20.3959 25.3342 19.7397 25.9809 18.9317 25.9809ZM24.3853 54.4381C21.0079 54.4338 18.271 51.7363 18.2671 48.4092C18.2671 48.3181 18.2715 48.2248 18.2737 48.1358L30.4956 48.1336C30.5 48.2248 30.5022 48.3181 30.5022 48.4071V48.4092C30.5 51.7361 27.763 54.4337 24.3853 54.4381ZM32.5028 43.277V45.8812C32.5028 46.2523 32.1968 46.5539 31.8203 46.5539H16.9499C16.5734 46.5539 16.2696 46.2523 16.2696 45.8812V43.2792C16.2696 42.9081 16.5734 42.6065 16.9499 42.6065H31.8181C31.9986 42.6065 32.1726 42.6781 32.3003 42.8039C32.4279 42.9298 32.5006 43.1013 32.5006 43.2792L32.5028 43.277ZM37.6526 27.932C37.3092 29.6139 36.6354 31.2132 35.6689 32.6412C35.5082 32.8821 35.4906 33.1881 35.6249 33.4442L36.6266 35.3344C36.6618 35.3929 36.6508 35.4667 36.6002 35.5101L34.7706 37.3114C34.7265 37.3613 34.6517 37.3721 34.5944 37.3396L32.6657 36.3565C32.4059 36.2241 32.0955 36.2393 31.8511 36.3999C30.4024 37.3504 28.7775 38.0123 27.069 38.3509C26.785 38.4073 26.5538 38.6113 26.4657 38.8847L25.7656 41.0245H22.8725L22.3067 38.9216C22.2275 38.6308 21.9875 38.4073 21.688 38.3487C19.9817 38.0102 18.3568 37.3461 16.9081 36.3934C16.6659 36.235 16.3533 36.2177 16.0935 36.3522L14.1758 37.3396C14.1186 37.3743 14.0437 37.3635 13.9975 37.3136L12.1744 35.5145C12.1238 35.4711 12.1106 35.3973 12.1458 35.3409L13.1432 33.442V33.4398C13.2775 33.1838 13.2599 32.8778 13.0991 32.639C12.1348 31.2089 11.4611 29.6074 11.1176 27.9255C11.0604 27.6434 10.8512 27.4133 10.5738 27.3265L8.51304 26.6864H8.51083C8.44698 26.6712 8.40075 26.6104 8.40515 26.5432V23.9998C8.40075 23.9325 8.44698 23.8739 8.51083 23.8565L10.5783 23.2077C10.8557 23.1208 11.0648 22.893 11.1221 22.6109C11.4655 20.929 12.1393 19.3297 13.1036 17.8995C13.2643 17.6608 13.2819 17.3526 13.1454 17.0987L12.1437 15.2085V15.2064C12.1106 15.1499 12.1217 15.0762 12.1723 15.0306L13.9975 13.2337H13.9953C14.0416 13.1838 14.1164 13.1729 14.1737 13.2077L16.1024 14.1885H16.1002C16.36 14.3209 16.6726 14.3036 16.9148 14.1451C18.3635 13.1946 19.9883 12.5306 21.6969 12.1942C21.9831 12.1378 22.2143 11.9316 22.3024 11.656L22.9518 9.62478C22.9695 9.55968 23.0289 9.51627 23.0971 9.52061H25.6753C25.7436 9.51627 25.803 9.55968 25.8206 9.62261L26.479 11.6604C26.567 11.9338 26.8004 12.1378 27.0844 12.1964C28.7929 12.535 30.4156 13.199 31.8643 14.1495C32.1087 14.3101 32.4214 14.3253 32.679 14.1929L34.5966 13.2055C34.6561 13.1708 34.7287 13.1817 34.775 13.2316L36.6002 15.0306H36.598C36.6486 15.074 36.6596 15.1478 36.6266 15.2064L35.6315 17.1053C35.4972 17.3592 35.5126 17.6674 35.6733 17.9082C36.6376 19.3362 37.3091 20.9377 37.6526 22.6218C37.7099 22.9039 37.919 23.134 38.1964 23.2207L40.2572 23.8587H40.2594C40.3255 23.8761 40.3695 23.9347 40.3651 24.002V26.5454C40.3695 26.6126 40.3255 26.6712 40.2594 26.6886L38.192 27.3375V27.3353C37.9146 27.4243 37.7076 27.6521 37.6482 27.9321L37.6526 27.932ZM46.5609 29.2211C45.8828 31.6842 44.7973 34.0192 43.3442 36.1311L44.9272 35.5994C45.3478 35.4583 45.8035 35.6797 45.9444 36.0942C46.0876 36.5087 45.863 36.9579 45.4447 37.0968L41.42 38.4445H41.4111C41.3759 38.4575 41.3363 38.4662 41.2989 38.4727L41.279 38.477C41.2042 38.4857 41.1271 38.4857 41.0523 38.477H41.0303C40.995 38.4705 40.9598 38.4618 40.9246 38.451H40.9158C40.8827 38.4401 40.8541 38.4271 40.8189 38.4119L40.8035 38.4032L40.8013 38.4054C40.7682 38.3902 40.7374 38.3707 40.7066 38.349H40.7H40.7022C40.6956 38.3446 40.689 38.3403 40.6824 38.336C40.6714 38.3273 40.6626 38.3208 40.6516 38.3121C40.6472 38.3077 40.6427 38.3056 40.6383 38.2991L40.6141 38.2774C40.6009 38.2643 40.5855 38.2513 40.5745 38.2383L40.5547 38.2144C40.5415 38.1992 40.5283 38.1819 40.5151 38.1645L40.5128 38.1667C40.5084 38.1602 40.504 38.1537 40.4974 38.1472C40.482 38.1233 40.4688 38.1016 40.4534 38.0755H40.4556C40.4402 38.0495 40.4292 38.0235 40.4182 37.9952C40.416 37.9909 40.4138 37.9887 40.4116 37.9844C40.4028 37.9605 40.3962 37.9388 40.3896 37.9149L40.3829 37.8911C40.3785 37.8715 40.3741 37.852 40.3719 37.8303C40.3719 37.8216 40.3675 37.8108 40.3675 37.8021C40.3675 37.7804 40.3653 37.7587 40.3631 37.7413V37.7261L40.2795 33.5486L40.2773 33.5443C40.2729 33.3338 40.3543 33.132 40.5018 32.9801C40.6494 32.8282 40.8519 32.7414 41.0633 32.737H41.0787C41.5124 32.7392 41.8669 33.0799 41.8779 33.5052L41.9175 35.3889C43.3178 33.3859 44.3636 31.1615 45.011 28.8156C47.0079 21.4695 44.9075 13.6334 39.4935 8.21669C34.0773 2.80002 26.1578 0.614463 18.6784 2.47446C11.1972 4.33213 5.27453 9.95502 3.11017 17.2534C0.948118 24.5539 2.86578 32.4356 8.15646 37.9717C8.44929 38.2907 8.42948 38.7833 8.11243 39.0785C7.79318 39.3736 7.29121 39.3628 6.98736 39.0546C1.43244 33.2452 -0.670208 25.014 1.43024 17.3035C3.03311 11.4051 6.94773 6.37459 12.3135 3.31904C17.679 0.265647 24.0574 -0.561186 30.0415 1.0187C36.0279 2.59859 41.1294 6.45926 44.2271 11.7476C47.3425 17.0319 48.1813 23.325 46.5609 29.2211Z" fill="#2E3092"/>
</svg>
