<svg width="63" height="52" viewBox="0 0 63 52" fill="none" xmlns="http://www.w3.org/2000/svg">
<path d="M25.4548 11.9837L37.6108 14.4886L54.7198 4.27425L56.0677 6.40416L59.6359 0L52.1423 0.200059L53.4902 2.33148L37.18 12.0689L25.024 9.56401L2.38798 23.0805L3.6176 25.0279L25.4548 11.9837ZM21.5544 33.4417V36.6092C21.5544 38.2523 25.7289 40.0931 31.317 40.0931C36.9051 40.0931 41.0812 38.2523 41.0812 36.6092V33.4417C39.091 34.887 35.5439 35.8158 31.317 35.8158C27.0901 35.8158 23.5445 34.8878 21.5544 33.4417ZM21.5544 45.3471V48.5131C21.5544 50.1607 25.7289 52 31.317 52C36.9051 52 41.0812 50.1607 41.0812 48.5131V45.3471C39.091 46.7939 35.5439 47.7212 31.317 47.7212C27.0901 47.7212 23.5445 46.7939 21.5544 45.3471ZM43.1096 18.75C43.1096 20.3968 47.2841 22.2369 52.8722 22.2369C58.4604 22.2369 62.6364 20.3968 62.6364 18.75C62.6364 17.1054 58.4604 15.2638 52.8722 15.2638C47.2841 15.2638 43.1096 17.1054 43.1096 18.75ZM0 45.3486V48.5161C0 50.1592 4.17445 52 9.76258 52C15.3507 52 19.5267 50.1592 19.5267 48.5161V45.3486C17.5366 46.7939 13.9895 47.7227 9.76258 47.7227C5.53565 47.7227 1.99011 46.7939 0 45.3486ZM9.76258 39.0753C4.17445 39.0753 0 40.9162 0 42.5607C0 44.2084 4.17445 46.0477 9.76258 46.0477C15.3507 46.0477 19.5267 44.2084 19.5267 42.5607C19.5259 40.9162 15.3499 39.0753 9.76258 39.0753ZM21.5544 39.3933V42.5607C21.5544 44.2068 25.7289 46.0477 31.317 46.0477C36.9051 46.0477 41.0812 44.2068 41.0812 42.5607V39.3933C39.091 40.8401 35.5439 41.7689 31.317 41.7689C27.0901 41.7689 23.5445 40.8408 21.5544 39.3933ZM43.1096 27.4886V30.6561C43.1096 32.3022 47.2841 34.1431 52.8722 34.1431C58.4604 34.1431 62.6364 32.3022 62.6364 30.6561V27.4886C60.6463 28.9355 57.0991 29.8643 52.8722 29.8643C48.6453 29.8643 45.0997 28.9355 43.1096 27.4886ZM43.1096 33.4417V36.6077C43.1096 38.2553 47.2841 40.0946 52.8722 40.0946C58.4604 40.0946 62.6364 38.2553 62.6364 36.6077V33.4417C60.6463 34.8885 57.0991 35.8158 52.8722 35.8158C48.6453 35.8158 45.0997 34.8893 43.1096 33.4417ZM31.317 27.1692C25.7289 27.1692 21.5544 29.01 21.5544 30.6546C21.5544 32.3022 25.7289 34.1415 31.317 34.1415C36.9051 34.1415 41.0812 32.3022 41.0812 30.6546C41.0812 29.01 36.9051 27.1692 31.317 27.1692ZM43.1096 21.5363V24.7038C43.1096 26.3476 47.2841 28.1885 52.8722 28.1885C58.4604 28.1885 62.6364 26.3484 62.6364 24.7038V21.5363C60.6463 22.9824 57.0991 23.9112 52.8722 23.9112C48.6453 23.9112 45.0997 22.9831 43.1096 21.5363ZM43.1096 39.3933V42.5607C43.1096 44.2053 47.2841 46.0477 52.8722 46.0477C58.4604 46.0477 62.6364 44.2053 62.6364 42.5607V39.3933C60.6463 40.8386 57.0991 41.7673 52.8722 41.7673C48.6453 41.7673 45.0997 40.8393 43.1096 39.3933ZM43.1096 45.3456V48.5146C43.1096 50.1592 47.2841 52 52.8722 52C58.4604 52 62.6364 50.1592 62.6364 48.5146V45.3456C60.6463 46.7939 57.0991 47.7212 52.8722 47.7212C48.6453 47.7212 45.0997 46.7939 43.1096 45.3456Z" fill="#2E3092"/>
</svg>
