<svg width="310" height="277" viewBox="0 0 310 277" fill="none" xmlns="http://www.w3.org/2000/svg">
<path d="M310 15H35C23.9543 15 15 23.9543 15 35V277" stroke="black" stroke-dasharray="9 9"/>
<path d="M16.7321 216C15.9623 217.333 14.0378 217.333 13.268 216L0.277571 193.5C-0.492227 192.167 0.470019 190.5 2.00962 190.5L27.9904 190.5C29.53 190.5 30.4922 192.167 29.7224 193.5L16.7321 216Z" fill="#848484"/>
<path d="M181 16.7321C179.667 15.9623 179.667 14.0378 181 13.2679L203.5 0.277568C204.833 -0.492231 206.5 0.470015 206.5 2.00962L206.5 27.9904C206.5 29.53 204.833 30.4922 203.5 29.7224L181 16.7321Z" fill="#848484"/>
</svg>
