<svg width="86" height="143" viewBox="0 0 86 143" fill="none" xmlns="http://www.w3.org/2000/svg">
<path d="M86 7H9C7.89543 7 7 7.89543 7 9V143" stroke="black" stroke-dasharray="3 3"/>
<path d="M8.23205 106C7.46225 107.333 5.53775 107.333 4.76795 106L0.870833 99.25C0.101033 97.9167 1.06328 96.25 2.60289 96.25L10.3971 96.25C11.9367 96.25 12.899 97.9167 12.1292 99.25L8.23205 106Z" fill="#848484"/>
<path d="M33 8.23205C31.6667 7.46225 31.6667 5.53775 33 4.76795L39.75 0.870832C41.0833 0.101032 42.75 1.06328 42.75 2.60288L42.75 10.3971C42.75 11.9367 41.0833 12.899 39.75 12.1292L33 8.23205Z" fill="#848484"/>
</svg>
