<svg width="81" height="110" viewBox="0 0 81 110" fill="none" xmlns="http://www.w3.org/2000/svg">
<path d="M0 6H70C72.2091 6 74 7.79086 74 10V110" stroke="black" stroke-dasharray="3 3"/>
<path d="M76.232 41C75.4622 42.3333 73.5377 42.3333 72.7679 41L68.8708 34.25C68.101 32.9167 69.0633 31.25 70.6029 31.25L78.3971 31.25C79.9367 31.25 80.899 32.9167 80.1292 34.25L76.232 41Z" fill="#848484"/>
<path d="M41 4.76795C42.3333 5.53775 42.3333 7.46225 41 8.23205L34.25 12.1292C32.9167 12.899 31.25 11.9367 31.25 10.3971L31.25 2.60288C31.25 1.06328 32.9167 0.101035 34.25 0.870836L41 4.76795Z" fill="#848484"/>
</svg>
