<svg width="266" height="292" viewBox="0 0 266 292" fill="none" xmlns="http://www.w3.org/2000/svg">
<path d="M95.3625 26.797H91.9373C67.2099 26.8439 44.1904 40.1624 31.8595 61.5397C19.5286 82.9263 19.5192 109.535 31.8407 130.988L33.5486 133.956C33.6237 134.087 33.68 134.228 33.7176 134.369L108.322 263.712L244.816 184.609L245.022 26.75H95.7754C95.6441 26.7876 95.5033 26.8064 95.3625 26.8064V26.797Z" fill="#2E3092"/>
<path d="M263.725 8.15266C262.59 8.15266 261.661 9.07312 261.661 10.219L261.426 195.063L103.396 286.658L16.9954 136.895C16.9485 136.735 16.8828 136.576 16.7983 136.416L14.8183 132.978C0.544873 108.135 0.554257 77.3281 14.837 52.5696C29.1292 27.8205 55.7804 12.4074 84.4117 12.3511H88.3718C88.5314 12.3511 88.7003 12.3229 88.8504 12.2759H229.848V20.6258L249.79 10.3129L229.858 0V8.15266H88.4094C88.2404 8.15266 88.0809 8.17144 87.9214 8.2184H84.4023C54.3071 8.27476 26.2858 24.4861 11.271 50.5127C-3.74372 76.5392 -3.7531 108.934 11.2429 135.045L12.979 138.069C13.0259 138.238 13.0916 138.398 13.176 138.548L100.834 290.509C101.106 290.978 101.557 291.326 102.092 291.476C102.617 291.617 103.19 291.542 103.659 291.27L264.504 198.04C264.823 197.852 265.077 197.599 265.255 197.289C265.433 196.979 265.527 196.631 265.527 196.255L265.771 10.219C265.771 9.08251 264.852 8.15266 263.707 8.15266H263.725Z" fill="#2E3092"/>
</svg>
