<svg width="327" height="294" viewBox="0 0 327 294" fill="none" xmlns="http://www.w3.org/2000/svg">
<path d="M224.921 234.123L223.204 237.091C210.808 258.496 187.779 271.796 163.108 271.796C138.436 271.796 115.408 258.496 103.011 237.091L101.294 234.123C101.219 233.991 101.125 233.869 101.022 233.766L26.417 104.432L163.108 25.6758L299.798 104.432L225.175 233.794C225.072 233.897 224.987 234.01 224.912 234.132L224.921 234.123Z" fill="url(#paint0_linear_8632_291)"/>
<path d="M164.356 0.720042C163.718 0.353736 162.929 0.353736 162.291 0.720042L1.20155 93.527C0.216209 94.0905 -0.131005 95.3585 0.441433 96.3447C1.01387 97.3309 2.27136 97.669 3.2567 97.1055L163.314 4.8903L321.579 96.0723L235.197 245.826C235.075 245.948 234.972 246.079 234.887 246.23L232.898 249.658C218.54 274.444 191.88 289.839 163.314 289.848C134.748 289.848 108.088 274.454 93.73 249.658L91.7405 246.22C91.6561 246.079 91.5622 245.948 91.4402 245.835L20.9366 123.611L28.1624 119.431L9.2626 107.306L10.3043 129.744L17.3518 125.668L88.0807 248.277C88.1652 248.418 88.2684 248.549 88.381 248.672L90.1452 251.715C105.244 277.769 133.275 293.962 163.305 293.962C193.334 293.962 221.365 277.779 236.464 251.715L238.219 248.69C238.341 248.568 238.444 248.427 238.538 248.277L326.196 96.3165C326.468 95.8375 326.543 95.2739 326.402 94.748C326.262 94.222 325.914 93.7712 325.436 93.4988L164.346 0.691866L164.356 0.720042Z" fill="url(#paint1_linear_8632_291)"/>
<defs>
<linearGradient id="paint0_linear_8632_291" x1="163.108" y1="25.6758" x2="163.108" y2="271.796" gradientUnits="userSpaceOnUse">
<stop stopColor="#2E3092"/>
<stop offset="1" stopColor="#BA0007"/>
</linearGradient>
<linearGradient id="paint1_linear_8632_291" x1="163.319" y1="0.445312" x2="163.319" y2="293.962" gradientUnits="userSpaceOnUse">
<stop stopColor="#2E3092"/>
<stop offset="1" stopColor="#BA0007"/>
</linearGradient>
</defs>
</svg>
