<svg width="266" height="285" viewBox="0 0 266 285" fill="none" xmlns="http://www.w3.org/2000/svg">
<path d="M169.333 19.797H172.759C197.486 19.8439 220.506 33.1624 232.836 54.5397C245.167 75.9263 245.177 102.535 232.855 123.988L231.147 126.956C231.072 127.087 231.016 127.228 230.978 127.369L156.374 256.712L19.8803 177.609L19.6738 19.75H168.911C169.052 19.7876 169.183 19.8064 169.324 19.8064L169.333 19.797Z" fill="url(#paint0_linear_8632_291)"/>
<path d="M181.608 0.852483H178.117C177.948 0.805521 177.779 0.777344 177.601 0.777344H2.294C1.74972 0.777344 1.21482 0.993371 0.830068 1.37846C0.445314 1.76355 0.229492 2.28953 0.229492 2.84368L0.473491 188.88C0.473491 189.613 0.867606 190.298 1.50573 190.665L162.351 283.894C163.337 284.467 164.604 284.129 165.176 283.143C165.748 282.157 165.411 280.898 164.425 280.325L4.60254 187.697L4.36794 4.91942H177.132C177.3 4.96638 177.469 4.98517 177.648 4.98517H181.617C210.239 5.04152 236.9 20.4545 251.182 45.2131C265.465 69.9716 265.475 100.779 251.201 125.622L249.23 129.06C249.155 129.2 249.09 129.351 249.043 129.51L179.947 249.292L172.805 245.169L171.764 267.617L190.664 255.491L183.522 251.368L252.843 131.201C252.928 131.06 252.984 130.9 253.031 130.75L254.786 127.698C269.782 101.587 269.773 69.192 254.758 43.1655C239.743 17.139 211.722 0.937016 181.627 0.880661L181.608 0.852483Z" fill="url(#paint1_linear_8632_291)"/>
<defs>
<linearGradient id="paint0_linear_8632_291" x1="130.882" y1="63.4433" x2="130.882" y2="256.712" gradientUnits="userSpaceOnUse">
<stop offset="0.346154" stopColor="#2E3092"/>
<stop offset="1" stopColor="#BA0007"/>
</linearGradient>
<linearGradient id="paint1_linear_8632_291" x1="133.128" y1="284.173" x2="133.128" y2="0.777344" gradientUnits="userSpaceOnUse">
<stop stopColor="#BA0007"/>
<stop offset="0.548077" stopColor="#2E3092"/>
</linearGradient>
</defs>
</svg>
