<svg width="81" height="76" viewBox="0 0 81 76" fill="none" xmlns="http://www.w3.org/2000/svg">
<path fill-rule="evenodd" clipRule="evenodd" d="M45.9932 15.644C36.3213 11.6479 25.4702 18.2846 24.7272 28.792C24.4694 32.4131 25.485 36.1045 27.7741 39.144C28.2038 39.7143 28.0905 40.5229 27.5202 40.9526C26.9499 41.3823 26.1413 41.269 25.7116 40.6987C23.0358 37.1479 21.8483 32.8354 22.1491 28.6087C22.7819 19.6751 29.8874 12.5697 38.8211 11.9367C41.8055 11.7257 44.8289 12.257 47.6023 13.5265C47.3875 12.878 47.7195 12.1671 48.364 11.921C49.0281 11.6671 49.7742 11.9991 50.0281 12.6632L51.2976 15.9718C51.6922 16.8858 51.0867 17.7491 50.239 17.8195L46.6023 18.1203C45.1453 18.2414 44.6534 16.2104 45.9932 15.644ZM39.3955 34.582L46.3408 27.0078C46.8213 26.4844 46.7861 25.668 46.2588 25.1875C45.7353 24.707 44.919 24.7422 44.4385 25.2695L38.3252 31.9375L35.4424 29.0547C34.9385 28.5508 34.1182 28.5508 33.6143 29.0547C33.1104 29.5586 33.1104 30.3789 33.6143 30.8828L37.4463 34.7148C37.9853 35.2578 38.8486 35.2343 39.3955 34.582ZM49.1846 62.394C43.8643 65.9096 42.2393 70.0463 41.5323 75.917H62.2273C63.8406 73.3272 65.9851 70.2217 67.7585 68.1045C71.1413 64.0654 75.0437 61.9209 77.2702 57.2725C80.2429 51.0655 80.2741 39.3705 80.1647 32.4835C80.0905 27.8077 75.6295 28.214 75.3795 29.8233L72.9928 44.9683C72.6061 47.4331 71.61 49.4175 69.8951 51.2495L66.1998 55.1948C67.0709 56.7886 66.9654 58.8003 65.4537 59.9643L55.0197 67.9604C54.4533 68.394 53.6447 68.2846 53.2111 67.7182C52.7775 67.1518 52.8869 66.3432 53.4533 65.9096L63.8873 57.9135C64.524 57.4252 63.9615 56.2494 63.5162 55.8901C62.7858 55.3042 59.9264 55.1206 59.1373 55.8159L49.1846 62.394ZM38.6646 75.914C37.9615 70.0429 36.3365 65.906 31.0123 62.391L21.0592 55.8051C20.2663 55.1098 17.4108 55.2934 16.6803 55.8793C16.2311 56.2348 15.6725 57.4145 16.3092 57.9027L26.7432 65.8988C27.3096 66.3324 27.419 67.141 26.9854 67.7074C26.5518 68.2738 25.7432 68.3832 25.1768 67.9496L14.7428 59.9574C13.2311 58.7972 13.1256 56.7816 13.9967 55.1879L10.3014 51.2465C8.59053 49.4262 7.59053 47.4223 7.20373 44.9613L4.81703 29.8163C4.56312 28.2069 0.106131 27.8007 0.0318305 32.4765C-0.0814495 39.3632 -0.0502017 51.0625 2.92633 57.2655C5.15293 61.9139 9.05523 64.0585 12.438 68.0975C14.2114 70.2147 16.356 73.3202 17.9692 75.91L38.6646 75.914ZM40.0982 19.23C34.1451 19.23 29.3212 24.0542 29.3212 30.007C29.3212 35.9598 34.1454 40.784 40.0982 40.784C46.051 40.784 50.8752 35.9598 50.8752 30.007C50.8752 24.0542 46.051 19.23 40.0982 19.23ZM40.0982 0C32.9732 6.2617 24.8212 8.9414 14.3872 12.422C14.7232 22.1759 15.5317 31.598 19.0083 39.844C22.5083 48.1409 28.77 55.328 40.0983 60.602C51.4263 55.3286 57.6843 48.141 61.1883 39.844C64.6688 31.5979 65.4735 22.176 65.8094 12.422L65.536 12.3322C55.161 8.87126 47.1492 6.1953 40.0982 0ZM55.4732 30.988C54.731 41.496 43.8792 48.133 34.2072 44.136C35.547 43.5696 35.0549 41.5383 33.5978 41.6594L29.9611 41.9602C29.1135 42.0305 28.5119 42.8938 28.9025 43.8079L30.172 47.1165C30.4259 47.7805 31.1681 48.1126 31.8361 47.8587C32.4807 47.6126 32.8127 46.9016 32.5979 46.2532C35.3674 47.5227 38.3948 48.054 41.3791 47.843C50.3127 47.2102 57.4181 40.1047 58.0511 31.171C58.3518 26.9444 57.1643 22.6319 54.4886 19.081C54.0589 18.5107 53.2503 18.3974 52.68 18.8271C52.1097 19.2568 51.9964 20.0654 52.4261 20.6357C54.7113 23.6709 55.7271 27.3665 55.4732 30.988Z" fill="#2E3092"/>
</svg>
