<svg width="68" height="90" viewBox="0 0 68 90" fill="none" xmlns="http://www.w3.org/2000/svg">
<path fill-rule="evenodd" clip-rule="evenodd" d="M45.271 53.557H66.866L66.72 62.4L57.621 62.721C57.02 65.148 56.06 67.431 54.802 69.512L60.863 76.567L53.054 84.123L46.39 77.913C44.305 79.17 42.021 80.128 39.598 80.727L38.897 90L28.032 89.821L27.711 80.722C25.284 80.121 23.001 79.161 20.92 77.903L13.865 83.964L6.309 76.155L12.519 69.491C11.262 67.406 10.304 65.122 9.705 62.699L0.432 61.996L0.571 53.556H22.06C19.986 61.075 25.566 68.672 33.467 68.802C41.558 68.937 47.393 61.24 45.271 53.557ZM54.784 36.344C57.468 36.344 59.908 35.245 61.678 33.475C63.448 31.705 64.547 29.264 64.547 26.581C64.547 23.897 63.448 21.457 61.678 19.687C59.908 17.917 57.467 16.818 54.784 16.818H53.318C52.715 16.818 52.202 16.431 52.015 15.892C51.148 13.846 49.697 12.108 47.872 10.89C46.085 9.697 43.932 9.002 41.61 9.002C40.954 9.002 40.322 9.055 39.717 9.157C39.085 9.264 38.474 9.421 37.89 9.625C37.284 9.836 36.63 9.598 36.291 9.086L36.29 9.087C35 7.145 33.242 5.539 31.176 4.43C29.192 3.365 26.918 2.76 24.498 2.76C20.592 2.76 17.055 4.343 14.495 6.903C11.935 9.463 10.352 12.999 10.352 16.906C10.352 17.453 10.381 17.977 10.436 18.479C10.495 19.014 10.582 19.53 10.693 20.026C10.86 20.767 10.394 21.502 9.654 21.668C9.591 21.682 9.528 21.692 9.465 21.697V21.7C7.586 21.86 5.902 22.738 4.69 24.058C3.491 25.364 2.756 27.104 2.756 29.01C2.756 31.026 3.582 32.86 4.912 34.19C6.242 35.52 8.076 36.346 10.092 36.346H20.936V39.103H10.093C7.316 39.103 4.792 37.968 2.964 36.139C1.135 34.31 0 31.787 0 29.01C0 26.391 1.013 23.995 2.666 22.195C4.005 20.737 5.767 19.671 7.753 19.194C7.734 19.056 7.717 18.918 7.702 18.779C7.632 18.149 7.596 17.523 7.596 16.905C7.596 12.237 9.488 8.012 12.547 4.953C15.605 1.892 19.831 0 24.498 0C27.38 0 30.098 0.725 32.48 2.004C34.638 3.162 36.516 4.777 37.985 6.72C38.406 6.607 38.833 6.514 39.265 6.441C40.038 6.311 40.822 6.243 41.61 6.243C44.486 6.243 47.166 7.113 49.401 8.605C51.441 9.967 53.104 11.849 54.201 14.06H54.784C58.229 14.06 61.359 15.468 63.628 17.737C65.897 20.006 67.305 23.136 67.305 26.581C67.305 30.026 65.897 33.156 63.628 35.425C61.359 37.694 58.229 39.102 54.784 39.102H46.367V36.345L54.784 36.344ZM40.853 30.975V44.785C40.853 45.546 41.47 46.164 42.232 46.164H52.651C53.164 47.227 54.253 47.961 55.512 47.961C57.266 47.961 58.687 46.539 58.687 44.786C58.687 43.032 57.265 41.611 55.512 41.611C54.252 41.611 53.164 42.345 52.651 43.408H43.611V30.975C43.611 30.214 42.994 29.596 42.232 29.596C41.47 29.596 40.853 30.214 40.853 30.975ZM35.031 43.772V33.615C35.031 32.854 34.414 32.236 33.652 32.236C32.891 32.236 32.273 32.853 32.273 33.615V43.772C31.21 44.285 30.476 45.374 30.476 46.633C30.476 48.387 31.898 49.808 33.651 49.808C35.405 49.808 36.826 48.386 36.826 46.633C36.827 45.373 36.094 44.285 35.031 43.772ZM11.792 41.61C10.038 41.61 8.617 43.032 8.617 44.785C8.617 46.539 10.039 47.96 11.792 47.96C13.052 47.96 14.14 47.226 14.653 46.163H25.072C25.833 46.163 26.451 45.546 26.451 44.784V30.974C26.451 30.213 25.834 29.596 25.072 29.596C24.311 29.596 23.693 30.213 23.693 30.974V43.405H14.653C14.141 42.343 13.052 41.61 11.792 41.61ZM38.138 53.443H29.162C26.616 56.996 29.078 62.095 33.559 62.169C38.13 62.244 40.738 57.073 38.138 53.443Z" fill="#2E3092"/>
</svg>
