<svg width="80" height="79" viewBox="0 0 80 79" fill="none" xmlns="http://www.w3.org/2000/svg">
<path fill-rule="evenodd" clipRule="evenodd" d="M12.4022 16.6608C14.5311 16.3327 16.5936 16.8991 18.2069 18.0788C19.8202 19.2585 20.9803 21.0554 21.3085 23.1843C21.6366 25.3132 21.0702 27.3757 19.8905 28.989C18.7108 30.6023 16.9139 31.7624 14.785 32.0906C12.6561 32.4188 10.5936 31.8523 8.9803 30.6726C7.367 29.4929 6.2069 27.696 5.8787 25.5671C5.55058 23.4382 6.11698 21.3757 7.2967 19.7624C8.4764 18.1491 10.2733 16.989 12.4022 16.6608ZM1.9062 24.5788L0 25.2429C0.007812 25.3522 0.0156255 25.4577 0.0234375 25.5671L0.0273428 25.5866C0.0507808 25.8444 0.0859375 26.1335 0.136724 26.4499V26.4538C0.179692 26.7429 0.23438 27.0319 0.296884 27.3093C0.320321 27.4186 0.347665 27.5319 0.375009 27.6413L2.35941 27.6999C2.66019 27.696 2.94535 27.8796 3.05472 28.1804C3.29691 28.8366 3.59378 29.4616 3.94534 30.0437L3.96878 30.0788C4.33206 30.6765 4.74612 31.2272 5.20318 31.7311C5.42584 31.9421 5.49615 32.2819 5.35552 32.5749L4.44536 34.4616C4.74224 34.7311 5.05083 34.985 5.37505 35.2311C5.69536 35.4733 6.02349 35.6998 6.35161 35.9069L7.89071 34.4577C8.10165 34.2506 8.42587 34.1842 8.70712 34.3131C9.34774 34.61 10.0157 34.8483 10.6993 35.0124C11.3751 35.1764 12.0704 35.278 12.7774 35.3092C13.0704 35.3171 13.336 35.5046 13.4415 35.7975L14.2032 37.9772C14.3594 37.9694 14.5196 37.9577 14.6837 37.946C15.004 37.9225 15.3321 37.8796 15.668 37.8288V37.8327C15.9884 37.7819 16.3126 37.7194 16.6446 37.6452C16.8009 37.61 16.9571 37.571 17.1094 37.528L17.1798 35.2507C17.1759 34.9499 17.3594 34.6648 17.6563 34.5554C18.3282 34.3093 18.9649 34.0007 19.5547 33.6413C20.1445 33.282 20.6992 32.8679 21.207 32.4108C21.418 32.1882 21.7578 32.114 22.0508 32.2546L23.9727 33.1804C24.2305 32.8757 24.4727 32.5632 24.7031 32.239C24.9375 31.9108 25.1524 31.5749 25.3555 31.2273L23.9336 29.7156C23.7265 29.5046 23.6601 29.1804 23.789 28.8991C24.0859 28.2585 24.3242 27.5905 24.4883 26.9069C24.6523 26.2312 24.7539 25.5358 24.789 24.8249C24.7969 24.532 24.9844 24.2664 25.2773 24.1648L27.1835 23.4968C27.1757 23.3913 27.1679 23.282 27.1601 23.1726L27.1562 23.1531C27.1327 22.8992 27.0976 22.6179 27.0507 22.3132L27.0468 22.2898C26.9999 21.9929 26.9452 21.7038 26.8867 21.4265C26.8632 21.3171 26.8359 21.2038 26.8085 21.0945L24.8241 21.0359C24.5233 21.0398 24.2382 20.8562 24.1288 20.5554C23.8827 19.8835 23.5741 19.2468 23.2148 18.657C22.8554 18.0672 22.4413 17.5125 21.9843 17.0047C21.7616 16.7938 21.6874 16.4539 21.828 16.161L22.7382 14.2743C22.4413 14.0047 22.1327 13.7508 21.8124 13.5086C21.4921 13.2664 21.1639 13.0399 20.8319 12.829L19.2928 14.2782C19.0819 14.4852 18.7577 14.5516 18.4764 14.4227C17.8358 14.1258 17.1678 13.8914 16.4842 13.7235H16.4803L16.4608 13.7196C15.7928 13.5594 15.1053 13.4578 14.4022 13.4266C14.1092 13.4188 13.8436 13.2313 13.742 12.9383L12.9803 10.7586C12.824 10.7664 12.6639 10.7781 12.4998 10.7899C12.1756 10.8172 11.8475 10.8563 11.5115 10.907V10.9031C11.1912 10.9539 10.867 11.0164 10.5389 11.0906C10.3826 11.1258 10.2264 11.1649 10.074 11.2039L10.0037 13.4812C10.0076 13.782 9.82403 14.0672 9.52325 14.1765C8.85137 14.4226 8.21465 14.7312 7.62485 15.0906C7.03501 15.45 6.48035 15.864 5.97255 16.3211C5.76161 16.5437 5.42177 16.6141 5.1288 16.4734L3.2069 15.5476C2.94909 15.8523 2.70299 16.1648 2.47643 16.4891C2.24205 16.8172 2.02721 17.157 1.82409 17.5008L3.24989 19.0125C3.45692 19.2234 3.52333 19.5476 3.39442 19.8289C3.09754 20.4695 2.85926 21.1375 2.6952 21.8211C2.53114 22.4968 2.42958 23.1922 2.39442 23.9031C2.38661 24.2078 2.19917 24.4772 1.9062 24.5788ZM73.5432 66.6608C73.469 66.985 73.1799 67.2272 72.8323 67.2272L73.5432 66.6608ZM17.7852 12.6018C18.0743 12.6995 18.3555 12.801 18.6329 12.9182L20.2345 11.4065C20.4845 11.1682 20.8595 11.1487 21.1368 11.3323C21.6837 11.6487 22.2032 11.9924 22.6876 12.3596C23.1915 12.7424 23.672 13.1565 24.129 13.6018C24.3595 13.8244 24.4103 14.1643 24.2774 14.4377L23.3439 16.3713C23.7501 16.8557 24.1212 17.3713 24.4533 17.9143C24.7814 18.4534 25.0665 19.0159 25.3087 19.6057L27.3868 19.6682C27.711 19.676 27.9806 19.8987 28.0665 20.1956H28.0704C28.1564 20.5003 28.2384 20.8128 28.3048 21.1292C28.3751 21.4456 28.4337 21.762 28.4806 22.0745L28.4845 22.094C28.5275 22.3831 28.5665 22.6956 28.5978 23.0276L28.6017 23.051C28.629 23.3674 28.6485 23.6799 28.6564 23.9924C28.6642 24.3167 28.461 24.594 28.1681 24.6956L26.2033 25.3831C26.1486 26.0198 26.0431 26.6448 25.8947 27.2542C25.7423 27.8752 25.5431 28.4808 25.3009 29.0628L26.7736 30.6253C27.0041 30.8713 27.0314 31.2307 26.8635 31.5042C26.5666 32.055 26.2385 32.5862 25.883 33.0862C25.5158 33.6057 25.1135 34.1018 24.6838 34.5706C24.4533 34.8206 24.094 34.8713 23.8088 34.719L21.8479 33.7737C21.3635 34.1799 20.8479 34.551 20.3049 34.8831C19.7658 35.2112 19.2033 35.4964 18.6135 35.7386L18.5432 38.0941C18.5354 38.4144 18.3205 38.68 18.0315 38.7698C17.6799 38.8792 17.3244 38.973 16.969 39.055C16.7502 39.1058 16.5237 39.1527 16.2932 39.1917C16.7698 40.4222 17.3127 41.6761 17.926 42.9534C18.6565 44.4768 19.5002 46.0432 20.4572 47.6604L20.4767 47.6956C24.8634 56.1565 23.3087 60.5586 20.8048 67.6646C20.5197 68.4693 20.2228 69.3091 19.9494 70.1138L49.3634 78.4068L52.797 72.4732C54.9532 68.7388 59.4962 69.0787 63.789 69.399C67.7968 69.6998 71.5585 69.981 72.0976 66.4381V61.2779C72.0976 61.0162 72.2382 60.7662 72.4843 60.6334C74.1523 59.7466 73.9296 59.3561 73.6913 58.9264C73.1405 57.9459 72.5429 56.8834 74.7616 55.1803C74.7772 55.1646 74.7968 55.1529 74.8124 55.1373C75.3241 54.7506 75.0741 53.5084 74.8671 52.4732C74.7889 52.0904 74.7186 51.731 74.6796 51.3794C74.6366 51.0864 74.7772 50.7817 75.0546 50.6294C77.1093 49.52 78.5351 48.5708 79.3358 47.7856L79.3709 47.7504C79.8904 47.2309 80.0779 46.8754 79.9295 46.684C79.9061 46.6606 79.8865 46.6333 79.867 46.602L75.4061 39.9067C72.7225 36.1333 72.8163 32.8169 72.9139 29.2347C72.9569 27.6253 73.0038 25.9613 72.7811 24.1956C71.6014 14.8558 66.91 8.3756 60.6521 4.4966C57.5779 2.5904 54.1209 1.3052 50.5111 0.613799C46.8939 -0.0815113 43.1244 -0.179171 39.4451 0.285669C30.742 1.39507 22.5072 5.6335 17.7852 12.6018ZM32.6402 19.1604C33.0738 19.1604 33.48 19.2854 33.8238 19.5002L39.9058 13.5119C39.9761 13.0276 40.2027 12.594 40.5347 12.2658C40.937 11.8635 41.4917 11.6135 42.105 11.6135C42.7183 11.6135 43.273 11.8635 43.6753 12.2658C43.9917 12.5822 44.2144 12.9963 44.2925 13.4572L49.6987 17.6134C49.7846 17.4806 49.8823 17.3556 49.9956 17.2462C50.3979 16.8439 50.9526 16.5939 51.5659 16.5939C52.1401 16.5939 52.6675 16.8127 53.062 17.1759L58.9175 10.8361C58.8433 10.6135 58.8042 10.3791 58.8042 10.1369C58.8042 9.52364 59.0542 8.96892 59.4565 8.56662C59.8589 8.16428 60.4136 7.91428 61.0268 7.91428C61.6401 7.91428 62.1948 8.16428 62.5971 8.56662C62.9995 8.96896 63.2495 9.52365 63.2495 10.1369C63.2495 10.7502 62.9995 11.3049 62.5971 11.7072C62.1948 12.1096 61.6401 12.3596 61.0268 12.3596C60.5815 12.3596 60.1675 12.2267 59.8198 12.0041L53.769 18.551C53.7808 18.6369 53.7847 18.7268 53.7847 18.8205C53.7847 19.4338 53.5347 19.9885 53.1323 20.3908C52.73 20.7932 52.1753 21.0432 51.562 21.0432C50.9487 21.0432 50.394 20.7932 49.9917 20.3908C49.6753 20.0744 49.4527 19.6603 49.3745 19.1994L43.9683 15.0392C43.8824 15.172 43.7847 15.297 43.6714 15.4064C43.2691 15.8087 42.7144 16.0587 42.1011 16.0587C41.4879 16.0587 40.9331 15.8087 40.5308 15.4064C40.4488 15.3244 40.3785 15.2384 40.3082 15.1486L34.734 20.6369C34.816 20.8674 34.859 21.1174 34.859 21.3791C34.859 21.9924 34.609 22.5471 34.2066 22.9494C33.8043 23.3517 33.2496 23.6017 32.6363 23.6017C32.0231 23.6017 31.4683 23.3517 31.066 22.9494C30.6637 22.547 30.4137 21.9924 30.4137 21.3791C30.4137 20.7658 30.6637 20.2111 31.066 19.8088C31.4684 19.4103 32.0269 19.1604 32.6402 19.1604ZM30.0777 26.2776H35.1988C35.6011 26.2776 35.9293 26.6018 35.9293 27.0081V40.1021C35.9293 40.5044 35.6051 40.8325 35.1988 40.8325H30.0777C29.6754 40.8325 29.3472 40.5083 29.3472 40.1021V27.0081C29.3472 26.6018 29.6754 26.2776 30.0777 26.2776ZM58.4687 15.0356H63.5898C63.9921 15.0356 64.3203 15.3598 64.3203 15.7661V40.1021C64.3203 40.5044 63.9961 40.8325 63.5898 40.8325H58.4687C58.0664 40.8325 57.7382 40.5083 57.7382 40.1021L57.7421 15.7621C57.7421 15.3597 58.0664 15.0356 58.4687 15.0356ZM49.0039 23.7192H54.125C54.5273 23.7192 54.8555 24.0473 54.8555 24.4497V40.1017C54.8555 40.504 54.5313 40.8321 54.125 40.8321H49.0039C48.6016 40.8321 48.2734 40.5079 48.2734 40.1017L48.2773 24.4457C48.2773 24.0433 48.6016 23.7192 49.0039 23.7192ZM39.543 18.7348H44.6641C45.0664 18.7348 45.3946 19.059 45.3946 19.4653V40.1023C45.3946 40.5046 45.0704 40.8327 44.6641 40.8327H39.543C39.1407 40.8327 38.8125 40.5085 38.8125 40.1023V19.4653C38.8125 19.0629 39.1406 18.7348 39.543 18.7348Z" fill="#2E3092"/>
</svg>
