<svg width="87" height="108" viewBox="0 0 87 108" fill="none" xmlns="http://www.w3.org/2000/svg">
<g clip-path="url(#clip0_13_1438)">
<path d="M56.1875 9H30.8125C28.8187 9 27.1875 10.62 27.1875 12.6V30.6C27.1875 32.58 28.8187 34.2 30.8125 34.2H36.2899C35.1444 32.6916 34.4375 30.834 34.4375 28.8C34.4375 23.8284 38.4939 19.8 43.5 19.8C48.5061 19.8 52.5625 23.8284 52.5625 28.8C52.5625 30.834 51.8629 32.6916 50.7065 34.2H56.1875C58.1812 34.2 59.8125 32.58 59.8125 30.6V12.6C59.8125 10.62 58.1812 9 56.1875 9Z" fill="#2E3092"/>
<path d="M81.9431 18.1907L66.6782 10.6127C64.8947 9.72355 63.4375 10.6199 63.4375 12.5999V30.5999C63.4375 31.3379 63.684 32.1119 64.0356 32.8571C65.3261 29.4443 68.614 26.9999 72.5 26.9999C77.5061 26.9999 81.5625 31.0283 81.5625 35.9999C81.5625 38.3255 80.649 40.4243 79.1918 42.0227L81.9468 43.3907C83.7303 44.2763 85.1875 43.3799 85.1875 41.3999V23.3999C85.1875 21.4199 83.7302 19.0763 81.9431 18.1907Z" fill="#2E3092"/>
<path d="M20.3181 10.6092L5.05687 18.1909C3.26975 19.0765 1.8125 21.4201 1.8125 23.4001V41.4001C1.8125 43.3801 3.26975 44.2765 5.05687 43.3909L7.80825 42.0229C6.351 40.4245 5.4375 38.3257 5.4375 36.0001C5.4375 31.0285 9.49388 27.0001 14.5 27.0001C18.3896 27.0001 21.6775 29.4445 22.9644 32.8573C23.3124 32.1121 23.5625 31.3381 23.5625 30.6001V12.6C23.5625 10.62 22.1052 9.72365 20.3181 10.6092Z" fill="#2E3092"/>
<path d="M43.5 34.2C46.503 34.2 48.9375 31.7824 48.9375 28.8C48.9375 25.8177 46.503 23.4 43.5 23.4C40.497 23.4 38.0625 25.8177 38.0625 28.8C38.0625 31.7824 40.497 34.2 43.5 34.2Z" fill="#2E3092"/>
<path d="M72.5 41.4C75.503 41.4 77.9375 38.9823 77.9375 36C77.9375 33.0176 75.503 30.6 72.5 30.6C69.497 30.6 67.0625 33.0176 67.0625 36C67.0625 38.9823 69.497 41.4 72.5 41.4Z" fill="#2E3092"/>
<path d="M77.9375 45H72.5H67.0625C65.0687 45 63.4375 46.62 63.4375 48.6V59.4C63.4375 61.38 65.0687 63 67.0625 63H67.396C67.9434 64.5264 69.1505 65.7252 70.6875 66.2688V70.2H65.25C64.2531 70.2 63.4375 71.01 63.4375 72C63.4375 72.99 64.2531 73.8 65.25 73.8H70.6875V75.6C70.6875 76.59 71.5031 77.4 72.5 77.4C73.4969 77.4 74.3125 76.59 74.3125 75.6V73.8H79.75C80.7469 73.8 81.5625 72.99 81.5625 72C81.5625 71.01 80.7469 70.2 79.75 70.2H74.3125V66.2688C75.8495 65.7288 77.0566 64.5264 77.604 63H77.9375C79.9312 63 81.5625 61.38 81.5625 59.4V48.6C81.5625 46.62 79.9312 45 77.9375 45Z" fill="#2E3092"/>
<path d="M14.5 41.4C17.503 41.4 19.9375 38.9823 19.9375 36C19.9375 33.0176 17.503 30.6 14.5 30.6C11.497 30.6 9.0625 33.0176 9.0625 36C9.0625 38.9823 11.497 41.4 14.5 41.4Z" fill="#2E3092"/>
<path d="M19.9375 45H14.5H9.0625C7.06875 45 5.4375 46.62 5.4375 48.6V59.4C5.4375 61.38 7.06875 63 9.0625 63H9.396C9.94338 64.5264 11.1505 65.7288 12.6875 66.2688V70.2H7.25C6.2495 70.2 5.4375 71.01 5.4375 72C5.4375 72.99 6.2495 73.8 7.25 73.8H12.6875V75.6C12.6875 76.59 13.4995 77.4 14.5 77.4C15.5005 77.4 16.3125 76.59 16.3125 75.6V73.8H21.75C22.7505 73.8 23.5625 72.99 23.5625 72C23.5625 71.01 22.7505 70.2 21.75 70.2H16.3125V66.2688C17.8495 65.7252 19.0566 64.5264 19.604 63H19.9375C21.9312 63 23.5625 61.38 23.5625 59.4V48.6C23.5625 46.62 21.9312 45 19.9375 45Z" fill="#2E3092"/>
<path d="M48.9375 37.8H43.5H38.0625C36.0687 37.8 34.4375 39.42 34.4375 41.4V52.2C34.4375 54.18 36.0687 55.8 38.0625 55.8H38.396C38.9434 57.3265 40.1505 58.5253 41.6875 59.0689V63H36.25C35.2495 63 34.4375 63.81 34.4375 64.8001C34.4375 65.7901 35.2495 66.6 36.25 66.6H41.6875V68.4C41.6875 69.3901 42.4995 70.2001 43.5 70.2001C44.5005 70.2001 45.3125 69.3901 45.3125 68.4V66.6H50.75C51.7469 66.6 52.5625 65.7901 52.5625 64.8001C52.5625 63.81 51.7469 63 50.75 63H45.3125V59.0689C46.8495 58.5289 48.0566 57.3265 48.604 55.8H48.9375C50.9312 55.8 52.5625 54.18 52.5625 52.2V41.4C52.5625 39.42 50.9312 37.8 48.9375 37.8Z" fill="#2E3092"/>
</g>
<defs>
<clipPath id="clip0_13_1438">
<rect width="87" height="108" fill="white"/>
</clipPath>
</defs>
</svg>
