<svg width="83" height="74" viewBox="0 0 83 74" fill="none" xmlns="http://www.w3.org/2000/svg">
<path d="M51.5322 35.6993C51.5322 41.3868 46.9072 46.0113 41.2202 46.0113C35.5332 46.0113 30.9082 41.3863 30.9082 35.6993C30.9082 30.0123 35.5332 25.3873 41.2202 25.3873C46.9072 25.3873 51.5322 30.0123 51.5322 35.6993ZM82.4302 48.0273C82.4302 51.2539 79.8052 53.8789 76.5786 53.8789C73.352 53.8789 70.727 51.2539 70.727 48.0273C70.727 45.2461 72.6801 42.914 75.2856 42.3203V30.8243H65.9301C64.5903 33.1485 62.5004 35.0157 59.9145 36.0743V38.6055C59.9145 39.3203 59.3364 39.8985 58.6215 39.8985H56.7309C56.3716 41.2305 55.8442 42.504 55.1528 43.7032L56.4887 45.0391C56.7309 45.2813 56.8676 45.6094 56.8676 45.9532C56.8676 46.2969 56.7309 46.625 56.4887 46.8672L55.2621 48.0938L64.0277 56.9805C64.266 57.2227 64.3988 57.5469 64.3988 57.8868V60.1212C67.0043 60.711 68.9574 63.0431 68.9574 65.8282C68.9574 69.0548 66.3324 71.6798 63.1058 71.6798C59.8792 71.6798 57.2542 69.0548 57.2542 65.8282C57.2542 63.047 59.2073 60.7149 61.8128 60.1212V58.4181L53.43 49.922L52.3792 50.9728C52.137 51.215 51.8089 51.3517 51.4652 51.3517C51.1214 51.3517 50.7933 51.215 50.5511 50.9728L49.2152 49.6369C48.016 50.3283 46.7425 50.8557 45.4105 51.215V53.1056C45.4105 53.8204 44.8324 54.3986 44.1175 54.3986H42.5081V62.0744C45.1136 62.6642 47.0667 65.0002 47.0667 67.7814C47.0667 71.008 44.4417 73.633 41.2151 73.633C37.9885 73.633 35.3635 71.008 35.3635 67.7814C35.3635 65.0002 37.3166 62.6681 39.9221 62.0744V54.3986H38.3127C37.5979 54.3986 37.0197 53.8204 37.0197 53.1056V51.215C35.6877 50.8556 34.4142 50.3283 33.215 49.6369L31.8791 50.9728C31.3752 51.4767 30.5549 51.4767 30.051 50.9728L29.0002 49.922L20.6174 58.4181V60.1212C23.2229 60.711 25.176 63.047 25.176 65.8282C25.176 69.0548 22.551 71.6798 19.3244 71.6798C16.0978 71.6798 13.4728 69.0548 13.4728 65.8282C13.4728 63.047 15.4259 60.7149 18.0314 60.1212V57.8868C18.0314 57.5469 18.1642 57.2227 18.4025 56.9805L27.1681 48.0938L25.9415 46.8672C25.6993 46.625 25.5626 46.2969 25.5626 45.9532C25.5626 45.6094 25.6993 45.2813 25.9415 45.0391L27.2774 43.7032C26.586 42.504 26.0586 41.2305 25.6993 39.8985H23.8087C23.0939 39.8985 22.5157 39.3204 22.5157 38.6055V36.0743C19.9298 35.0157 17.8399 33.1485 16.5001 30.8243H7.1446V42.3203C9.7501 42.9101 11.7032 45.2461 11.7032 48.0273C11.7032 51.2539 9.0782 53.8789 5.8516 53.8789C2.625 53.8789 0 51.2539 0 48.0273C0 45.2461 1.9531 42.914 4.5586 42.3203V29.5313C4.5586 28.8165 5.13672 28.2383 5.8516 28.2383H15.3868C15.047 27.1055 14.8634 25.9141 14.8634 24.6836C14.8634 21.7734 15.9103 18.9453 17.8087 16.7109C19.4728 14.7578 21.6954 13.375 24.1485 12.75C24.6211 5.6406 30.5547 0 37.7815 0C41.7346 0 45.512 1.7383 48.0905 4.6992C49.1569 4.18748 50.3249 3.92186 51.5241 3.92186C55.9069 3.92186 59.4733 7.48826 59.4733 11.8711C59.4733 12.2812 59.442 12.6875 59.3795 13.0938C61.5201 13.8633 63.4342 15.2305 64.8678 17.0274C66.6022 19.1993 67.5553 21.918 67.5553 24.6836C67.5553 25.9141 67.3717 27.1094 67.0319 28.2383H76.5671C77.2819 28.2383 77.8601 28.8164 77.8601 29.5313V42.3203C80.4656 42.9101 82.4187 45.2461 82.4187 48.0273L82.4302 48.0273ZM57.3282 34.0893H55.7071C55.0899 34.0893 54.5587 33.6557 54.4376 33.0502C54.0939 31.3197 53.422 29.6986 52.4415 28.2299C52.0978 27.7182 52.1681 27.0346 52.6017 26.5971L53.7501 25.4487L51.4728 23.1714L50.3244 24.3198C49.8869 24.7573 49.2072 24.8237 48.6916 24.48C47.2189 23.4995 45.5978 22.8277 43.8713 22.4839C43.2658 22.3628 42.8322 21.8315 42.8322 21.2144V19.5933H39.6095V21.2144C39.6095 21.8315 39.1759 22.3628 38.5704 22.4839C36.8399 22.8276 35.2188 23.4995 33.7501 24.48C33.2384 24.8237 32.5548 24.7534 32.1173 24.3198L30.9689 23.1714L28.6916 25.4487L29.84 26.5971C30.2775 27.0346 30.3439 27.7143 30.0002 28.2299C29.0197 29.7026 28.3479 31.3237 28.0041 33.0502C27.883 33.6557 27.3517 34.0893 26.7346 34.0893H25.1135V37.312H26.7346C27.3517 37.312 27.883 37.7456 28.0041 38.3511C28.3478 40.0816 29.0197 41.7027 30.0041 43.1714C30.3478 43.6831 30.2775 44.3667 29.8439 44.8042L28.6955 45.9526L30.9728 48.2299L32.1212 47.0815C32.5587 46.644 33.2384 46.5776 33.754 46.9213C35.2267 47.9018 36.8478 48.5736 38.5743 48.9174C39.1798 49.0385 39.6134 49.5698 39.6134 50.1869V51.808H42.8361V50.1869C42.8361 49.5697 43.2697 49.0385 43.8752 48.9174C45.6057 48.5737 47.2268 47.9018 48.6955 46.9213C49.2072 46.5776 49.8908 46.6479 50.3283 47.0815L51.4767 48.2299L53.754 45.9526L52.6056 44.8042C52.1681 44.3667 52.1017 43.687 52.4454 43.1714C53.4259 41.6987 54.0977 40.0776 54.4415 38.3511C54.5626 37.7456 55.0939 37.312 55.711 37.312H57.3321V34.0893H57.3282Z" fill="#2E3092"/>
</svg>
