<svg width="36" height="37" viewBox="0 0 36 37" fill="none" xmlns="http://www.w3.org/2000/svg">
<path d="M6.66992 11.4114C7.40278 11.4114 7.96166 11.9765 7.96191 12.6311C7.96191 13.2859 7.40295 13.8518 6.66992 13.8518C5.93689 13.8518 5.37793 13.2859 5.37793 12.6311C5.37819 11.9765 5.93705 11.4114 6.66992 11.4114Z" fill="#2E3092" stroke="#2E3092"/>
<path d="M1.79199 16.699C2.52493 16.699 3.08379 17.2642 3.08398 17.9188C3.08398 18.5736 2.52502 19.1395 1.79199 19.1395C1.05899 19.1395 0.5 18.5736 0.5 17.9188C0.500195 17.2642 1.05908 16.699 1.79199 16.699Z" fill="#2E3092" stroke="#2E3092"/>
<path d="M27.6504 3.28607C28.5391 1.63879 30.6294 0.947304 32.3926 1.71771L32.5625 1.79681C34.295 2.65839 34.984 4.65144 34.1924 6.31049L34.1113 6.46967L29.3291 15.2831L29.1855 15.5488L29.3525 15.7997C30.2949 17.211 30.6127 18.9657 30.1064 20.6601L29.9941 20.998C29.2523 23.0234 28.4848 25.0434 27.6201 27.0136L27.2432 27.8544C26.0399 30.487 24.662 32.712 23.7246 34.1064L23.3516 34.6523C22.786 35.4656 21.7571 35.8644 20.7539 35.6269L20.5537 35.5703C19.0219 35.0735 16.2478 34.0349 13.1064 32.1972L12.4736 31.8193C7.84529 28.9936 5.20739 26.7249 3.78027 25.2724L3.51074 24.9931V24.9921C3.09353 24.5506 3.02462 24.0036 3.18066 23.5361L3.26074 23.3417C3.47178 22.914 3.88491 22.5599 4.41113 22.415L4.64355 22.3661C5.97538 22.1685 8.04063 21.6384 10.5283 20.2421L11.0312 19.9511C12.7216 18.9446 14.6334 17.1187 16.2715 15.3447L16.9551 14.5898C18.3581 13.0137 20.4417 12.1222 22.541 12.1913L22.8975 12.2031L23.0244 11.8691C23.0342 11.8433 23.047 11.8171 23.0615 11.79L27.6504 3.28607ZM15.4238 18.247C14.3886 19.2359 13.3083 20.1513 12.2676 20.8329L11.8242 21.1103C9.16962 22.6911 6.88949 23.3707 5.29004 23.6562L4.34473 23.8251L5.02539 24.5029C5.89992 25.3737 7.23991 26.5568 9.22852 27.9911L9.44629 28.1484L9.69727 28.0536C9.9323 27.9654 10.4078 27.7495 11.0635 27.2519L11.3555 27.0214V27.0204C11.6564 26.773 12.1088 26.7877 12.3887 27.0292L12.4424 27.08C12.6646 27.3163 12.6755 27.6573 12.4727 27.9052L12.373 28.0048C12.0417 28.2776 11.7344 28.4995 11.457 28.6786L10.8105 29.0956L11.4551 29.5165C12.0242 29.888 12.6318 30.273 13.2803 30.6689V30.6679C14.0834 31.1584 14.866 31.5948 15.6123 31.9814L15.9082 32.1347L16.1631 31.9208C17.0572 31.1708 17.7972 30.2439 18.4111 29.2997L18.667 28.8945C18.8586 28.5811 19.2821 28.4474 19.6357 28.5947L19.7051 28.6279C20.0103 28.7928 20.1273 29.1219 20.0225 29.413L19.9639 29.5351C19.1856 30.8076 18.3745 31.733 17.8184 32.2958L17.3057 32.8154L17.9746 33.1054C18.9196 33.5159 19.7515 33.8317 20.4219 34.0654L21.0371 34.2724C21.3793 34.3832 21.7539 34.2968 22.0117 34.0302L22.1143 33.9042H22.1152C22.945 32.7112 24.3639 30.5242 25.6348 27.8564L25.8867 27.3163C26.3104 26.389 26.7461 25.3556 27.168 24.3027L27.3379 23.8769L26.9287 23.6708L16.0127 18.1718H16.0137L15.998 18.164L15.6816 18.0009L15.4238 18.247ZM24.582 14.081C22.481 13.0584 19.8896 13.5971 18.2451 15.2997L18.0889 15.4677C17.7977 15.7946 17.4901 16.1329 17.1699 16.4755L16.7148 16.9628L17.3105 17.2636L27.3496 22.3203L27.8467 22.5703L28.043 22.0507L28.5996 20.5546C29.3857 18.4085 28.4147 16.0667 26.375 14.9599L26.1748 14.8564L24.582 14.082V14.081ZM31.8701 3.0097C30.8884 2.52166 29.6834 2.82949 29.0791 3.71771L28.9668 3.90326L24.6074 11.9814L24.3428 12.4716L24.8594 12.6826L25.2627 12.8622L26.8555 13.6376C27.1472 13.7796 27.4233 13.9408 27.6826 14.1181L28.1406 14.4306L28.4043 13.9433L32.7959 5.84955C33.3259 4.87274 32.9791 3.69456 32.0605 3.11713L31.8701 3.0097Z" fill="#2E3092" stroke="#2E3092"/>
</svg>
