<svg width="44" height="55" viewBox="0 0 44 55" fill="none" xmlns="http://www.w3.org/2000/svg">
<g clipPath="url(#clip0_7938_287)">
<path d="M17.9906 5.96146C11.3478 5.96146 5.96191 11.3487 5.96191 17.991C5.96191 24.6332 11.3478 30.0196 17.9906 30.0196C24.6334 30.0196 30.0201 24.6332 30.0201 17.991C30.0201 11.3487 24.6334 5.96146 17.9906 5.96146ZM17.9906 8.96842C22.9655 8.96842 27.0123 13.0161 27.0123 17.991C27.0123 22.9653 22.9655 27.0119 17.9906 27.0119C13.0157 27.0119 8.96887 22.9653 8.96887 17.991C8.96887 13.0161 13.0157 8.96842 17.9906 8.96842ZM17.9906 10.9733C14.1221 10.9733 10.9738 14.1213 10.9738 17.991H12.9787C12.9787 15.2272 15.2274 12.9791 17.9906 12.9791V10.9733ZM29.7984 25.5449C28.7019 27.2509 27.2517 28.7023 25.5462 29.7988L32.9059 37.1576C34.0804 38.3321 35.9859 38.3321 37.1581 37.1576C38.3326 35.9855 38.3326 34.0811 37.1581 32.9054L29.7984 25.5449Z" fill="#2E3092"/>
</g>
<defs>
<clipPath id="clip0_7938_287">
<rect width="44" height="55" fill="white"/>
</clipPath>
</defs>
</svg>
