<svg width="39" height="39" viewBox="0 0 39 39" fill="none" xmlns="http://www.w3.org/2000/svg">
<path d="M19.5 0C8.7551 0 0 8.7551 0 19.5C0 30.2449 8.7551 39 19.5 39C30.2449 39 39 30.2449 39 19.5C39 8.7551 30.2449 0 19.5 0ZM19.5 37.4874C9.59161 37.4874 1.51264 29.4084 1.51264 19.5C1.51264 9.59161 9.59161 1.51264 19.5 1.51264C29.4084 1.51264 37.4874 9.59161 37.4874 19.5C37.4874 29.4084 29.4084 37.4874 19.5 37.4874ZM20.2555 4.17857V11.1023C20.2555 11.5407 19.8979 11.8578 19.5 11.8578C19.1021 11.8578 18.7445 11.5002 18.7445 11.1023V4.17857C18.7445 3.74018 19.1021 3.42309 19.5 3.42309C19.8979 3.42309 20.2555 3.74021 20.2555 4.17857ZM23.0412 11.8596L26.5031 5.8496C26.7021 5.49206 27.1793 5.37237 27.5385 5.57134C27.896 5.77032 28.0157 6.24755 27.8167 6.60667L24.3548 12.6167C24.1962 12.856 23.9568 13.0146 23.6786 13.0146C23.5589 13.0146 23.4003 12.9742 23.2806 12.8949C22.9619 12.6555 22.8422 12.2171 23.0412 11.8596ZM26.385 14.6453L32.395 11.1834C32.7525 10.9844 33.2313 11.1041 33.4303 11.4616C33.6293 11.8192 33.5096 12.298 33.152 12.497L27.142 15.9589C27.0223 16.0382 26.9026 16.0786 26.7441 16.0786C26.4658 16.0786 26.2264 15.9589 26.0679 15.6806C25.9078 15.3215 26.0259 14.8443 26.385 14.6453ZM35.577 19.5C35.577 19.9384 35.2195 20.2555 34.8215 20.2555H27.8979C27.4595 20.2555 27.1424 19.8979 27.1424 19.5C27.1424 19.1021 27.4999 18.7445 27.8979 18.7445H34.8215C35.2599 18.7445 35.577 19.0616 35.577 19.5ZM33.4287 27.5384C33.2701 27.7778 33.0307 27.9363 32.7525 27.9363C32.6328 27.9363 32.4742 27.8959 32.3545 27.8166L26.3445 24.3547C25.987 24.1557 25.8673 23.6785 26.0663 23.3194C26.2653 22.9618 26.7425 22.8421 27.1016 23.0411L33.1116 26.503C33.508 26.7036 33.6681 27.1808 33.4287 27.5384ZM27.8167 32.3931C28.0156 32.7506 27.896 33.2294 27.5384 33.4284C27.4187 33.5077 27.299 33.5481 27.1404 33.5481C26.8622 33.5481 26.6228 33.4284 26.4642 33.1502L23.0023 27.1402C22.8033 26.7826 22.923 26.3038 23.2806 26.1048C23.6381 25.9059 24.1169 26.0256 24.3159 26.3831L27.8167 32.3931ZM20.2554 27.8973V34.821C20.2554 35.2594 19.8979 35.5765 19.5 35.5765C19.102 35.5765 18.7445 35.219 18.7445 34.821V27.8973C18.7445 27.4589 19.102 27.1418 19.5 27.1418C19.8979 27.1403 20.2554 27.4994 20.2554 27.8973ZM15.9587 27.1403L12.4968 33.1503C12.3382 33.3897 12.0988 33.5482 11.8205 33.5482C11.7008 33.5482 11.5423 33.5078 11.4226 33.4285C11.065 33.2296 10.9453 32.7523 11.1443 32.3932L14.6062 26.3832C14.8052 26.0257 15.2825 25.906 15.6416 26.105C16.038 26.3444 16.1577 26.7827 15.9587 27.1403ZM12.6149 24.3546L6.60493 27.8165C6.48523 27.8958 6.36553 27.9362 6.20697 27.9362C5.92871 27.9362 5.6893 27.8165 5.53076 27.5382C5.33178 27.1807 5.45148 26.7019 5.80902 26.5029L11.819 23.041C12.1765 22.842 12.6553 22.9617 12.8543 23.3193C13.0922 23.6783 12.974 24.1556 12.6149 24.3546ZM11.1023 20.2552H4.17865C3.74026 20.2552 3.42317 19.8977 3.42317 19.4997C3.42317 19.1018 3.78071 18.7442 4.17865 18.7442H11.1023C11.5407 18.7442 11.8578 19.1018 11.8578 19.4997C11.8594 19.8977 11.5003 20.2552 11.1023 20.2552ZM5.57151 11.4611C5.77049 11.1036 6.24772 10.9839 6.60684 11.1828L12.6168 14.6448C12.9744 14.8437 13.0941 15.321 12.8951 15.6801C12.7365 15.9195 12.4971 16.0781 12.2189 16.0781C12.0992 16.0781 11.9406 16.0376 11.8209 15.9584L5.81093 12.4964C5.49225 12.2959 5.33212 11.8187 5.57151 11.4611ZM15.959 11.8591C16.158 12.2166 16.0383 12.6954 15.6808 12.8944C15.5611 12.9737 15.4414 13.0141 15.2828 13.0141C15.0046 13.0141 14.7652 12.8944 14.6066 12.6161L11.1447 6.60615C10.9457 6.24861 11.0654 5.7698 11.4229 5.57082C11.7805 5.37184 12.2593 5.49154 12.4583 5.84908L15.959 11.8591Z" fill="#A5A5A5"/>
</svg>
