<svg width="36" height="27" viewBox="0 0 36 27" fill="none" xmlns="http://www.w3.org/2000/svg">
<path d="M24.2326 0.48467C24.1186 0.340846 23.9775 0.223591 23.8181 0.14038C23.6587 0.0571684 23.4847 0.00982722 23.3069 0.00137405C23.1292 -0.00707912 22.9518 0.0235412 22.786 0.0912831C22.6201 0.159025 22.4695 0.262402 22.3437 0.394823C22.2179 0.527245 22.1197 0.685805 22.0554 0.860396C21.991 1.03499 21.9619 1.22178 21.97 1.40886C21.978 1.59594 22.023 1.77921 22.102 1.94698C22.181 2.11475 22.2924 2.26334 22.429 2.38328L31.6306 12.0814H1.21607C0.887745 12.0997 0.578608 12.2499 0.352362 12.5011C0.126117 12.7522 0 13.0851 0 13.4313C0 13.7774 0.126117 14.1103 0.352362 14.3615C0.578608 14.6126 0.887745 14.7628 1.21607 14.7812H31.6306L22.4146 24.4679C22.1827 24.7236 22.0532 25.0636 22.0532 25.4172C22.0532 25.7708 22.1827 26.1108 22.4146 26.3665C22.5329 26.4914 22.6734 26.5905 22.8282 26.6581C22.9829 26.7258 23.1488 26.7606 23.3164 26.7606C23.4839 26.7606 23.6498 26.7258 23.8046 26.6581C23.9593 26.5905 24.0998 26.4914 24.2181 26.3665L35.6164 14.3673C35.7377 14.2444 35.8342 14.0969 35.9001 13.9338C35.966 13.7707 36 13.5952 36 13.418C36 13.2407 35.966 13.0653 35.9001 12.9022C35.8342 12.739 35.7377 12.5916 35.6164 12.4687L24.2326 0.48467Z" fill="white"/>
</svg>
