<svg width="1173" height="258" viewBox="0 0 1173 258" fill="none" xmlns="http://www.w3.org/2000/svg">
<path d="M1144.01 129.045C1144.01 184.142 1099.2 228.96 1044.11 228.96C989.028 228.96 944.22 184.131 944.22 129.045V128.944H915.219C915.219 128.944 915.219 129.011 915.219 129.045C915.219 200.132 973.042 257.966 1044.11 257.966C1115.19 257.966 1173.01 200.132 1173.01 129.045C1173.01 129.011 1173.01 128.978 1173.01 128.944H1144.01C1144.01 128.944 1144.01 129.011 1144.01 129.045Z" fill="#E0E0E0"/>
<path d="M815.314 0C744.241 0 686.418 57.8349 686.418 128.922V128.944H715.419V128.922C715.419 73.8244 760.228 29.0068 815.314 29.0068C870.4 29.0068 915.209 73.8356 915.209 128.922V128.944H944.21C944.21 128.944 944.21 128.933 944.21 128.922C944.21 57.8349 886.387 0 815.314 0Z" fill="#E0E0E0"/>
<path d="M686.428 129.078C686.428 184.176 641.62 228.993 586.533 228.993C531.447 228.993 486.638 184.176 486.638 129.078C486.638 129.034 486.638 128.989 486.638 128.933H457.648C457.648 128.933 457.648 129.022 457.648 129.078C457.648 200.165 515.472 258 586.544 258C657.617 258 715.44 200.165 715.44 129.078C715.44 129.034 715.44 128.989 715.44 128.933H686.439C686.439 128.933 686.439 129.022 686.439 129.078H686.428Z" fill="#E0E0E0"/>
<path d="M357.708 0C286.636 0 228.812 57.8349 228.812 128.922V128.944H257.814V128.922C257.814 73.8244 302.633 29.0068 357.708 29.0068C412.784 29.0068 457.603 73.8356 457.603 128.922V128.944H486.604V128.922C486.604 57.8349 428.781 0 357.708 0Z" fill="#E0E0E0"/>
<path d="M228.791 129.078C228.791 184.176 183.982 228.993 128.896 228.993C73.8096 228.993 28.9899 184.176 28.9899 129.078C28.9899 129.034 28.9899 128.989 28.9899 128.933H0C0 128.933 0 129.022 0 129.078C0 200.165 57.8233 258 128.896 258C199.969 258 257.792 200.165 257.792 129.078C257.792 129.034 257.792 128.989 257.792 128.933H228.791C228.791 128.933 228.791 129.022 228.791 129.078Z" fill="#E0E0E0"/>
</svg>
