<svg width="81" height="90" viewBox="0 0 81 90" fill="none" xmlns="http://www.w3.org/2000/svg">
<path d="M48.1781 89.125V83.7793H32.2088V89.125H48.1781ZM48.1781 39.7676V29.5291C48.1781 29.0308 48.5858 28.6231 49.0842 28.6231H62.675L40.1821 0.875061L17.7119 28.6457H31.3028C31.8011 28.6457 32.2088 29.0534 32.2088 29.5518V39.7902H48.1781V39.7676ZM69.2666 56.0539C65.8236 52.6109 60.2287 52.6109 56.7856 56.0539C53.3426 59.4969 53.3426 65.0918 56.7856 68.5348C60.2287 71.9779 65.8236 71.9779 69.2666 68.5348C72.7096 65.0918 72.7096 59.4969 69.2666 56.0539ZM63.0374 51.6595C68.9041 51.6595 73.6836 56.4163 73.6836 62.2831C73.6836 68.1498 68.9268 72.9292 63.0374 72.9292C57.1707 72.9292 52.4139 68.1724 52.4139 62.2831C52.3913 56.439 57.1481 51.6595 63.0374 51.6595ZM44.9616 51.8861L46.7511 48.7828C47.1135 48.1259 47.6798 48.3071 48.1554 48.4204V46.3818H32.1862V51.8861H44.9616ZM67.5677 48.1259L65.9821 43.2559H60.0701L58.4845 48.1259C58.3939 48.4204 58.1674 48.6242 57.8956 48.7149C56.5365 49.1679 54.8829 50.1872 53.773 51.0933C53.5465 51.2971 53.252 51.3424 52.9802 51.2745L47.9969 50.2325L45.0522 55.3291L48.4726 59.1345C48.6764 59.361 48.7444 59.6555 48.6764 59.9273C48.4046 61.3996 48.4273 63.2344 48.6764 64.7068C48.7444 65.1371 48.5179 65.409 48.2687 65.6808L45.0296 69.2597L46.5019 71.8193L47.9742 74.3789L52.9802 73.3143C53.252 73.2463 53.5465 73.3369 53.7503 73.5182C54.9962 74.5375 56.4006 75.3529 57.9182 75.9192C58.19 76.0325 58.3712 76.2363 58.4618 76.4855L60.0474 81.3556H62.9921H65.9368L67.5224 76.4855C67.613 76.191 67.8395 75.9872 68.1114 75.8966C69.4704 75.4435 71.124 74.4242 72.2339 73.5182C72.4604 73.3143 72.7549 73.269 73.0267 73.337L78.01 74.4016L80.9547 69.305L77.5343 65.4996C77.3305 65.273 77.2625 64.9786 77.3305 64.7068C77.6023 63.2344 77.5796 61.3996 77.3305 59.9273C77.2852 59.6555 77.3758 59.3837 77.557 59.1798L81 55.3291L79.5277 52.7695L78.0553 50.2099L73.0494 51.2745C72.7775 51.3424 72.4831 51.2518 72.2792 51.0933C71.0334 50.0739 69.629 49.2358 68.1114 48.6922C67.8395 48.6016 67.6357 48.3751 67.5677 48.1259ZM24.6433 63.0532C21.2003 59.6102 15.6054 59.6102 12.1623 63.0532C8.71932 66.4962 8.71932 72.0911 12.1623 75.5341C15.6054 78.9772 21.2003 78.9772 24.6433 75.5341C28.0863 72.0685 28.0863 66.4962 24.6433 63.0532ZM18.3915 58.6362C24.2582 58.6362 29.0376 63.393 29.0376 69.2823C29.0376 75.1491 24.2808 79.9059 18.3915 79.9059C12.5248 79.9059 7.76796 75.1491 7.76796 69.2823C7.76796 63.4156 12.5248 58.6362 18.3915 58.6362ZM34.6778 70.732C34.6552 71.0039 34.6099 71.2757 34.5872 71.5475L38.1662 75.5115C38.6871 76.0778 38.2341 76.6441 37.9397 77.165H48.1781V76.191C47.7251 76.2816 47.1361 76.4628 46.7737 75.8513L44.9616 72.7254L43.8064 70.732H34.6778ZM36.2408 58.4776L36.4447 58.8627L38.2115 61.9206C38.438 62.2604 38.4153 62.7134 38.1435 63.0306L37.1695 64.1178H46.7964C46.6378 62.7587 46.6604 61.377 46.8643 60.0179L45.4599 58.455H36.2408V58.4776ZM22.9444 55.1026L21.3588 50.2325H15.4468L13.8612 55.1026C13.7706 55.397 13.5441 55.6009 13.2723 55.6915C11.9132 56.1445 10.2596 57.1638 9.1497 58.0699C8.92319 58.2738 8.62872 58.3191 8.3569 58.2511L3.37359 57.1865L0.428903 62.2831L3.84927 66.0885C4.05313 66.315 4.12108 66.6095 4.05313 66.8813C3.78131 68.3536 3.80396 70.1884 4.05313 71.6607C4.09843 71.9326 4.00783 72.2044 3.82662 72.4082L0.40625 76.2137L1.87859 78.7733L3.35093 81.3329L8.3569 80.2683C8.62872 80.2003 8.92318 80.2909 9.12705 80.4721C10.3729 81.4915 11.7773 82.3296 13.2949 82.8732C13.5667 82.9865 13.7479 83.1903 13.8385 83.4395L15.4241 88.3095H18.3688H21.3135L22.8991 83.4395C22.9897 83.145 23.2162 82.9412 23.4881 82.8505C24.8471 82.3975 26.478 81.3782 27.6106 80.4721C27.8371 80.2683 28.1316 80.223 28.4034 80.2909L33.3867 81.3329L36.3314 76.2363L32.911 72.4309C32.7072 72.2044 32.6392 71.9099 32.7072 71.6381C32.979 70.1431 32.9337 68.331 32.7072 66.8586C32.6619 66.5868 32.7525 66.315 32.9337 66.1111L36.3541 62.3057L34.8817 59.7461L33.4094 57.1865L28.4034 58.2511C28.1316 58.3191 27.8371 58.2285 27.6333 58.0472C26.3874 57.0279 24.983 56.1898 23.4654 55.6462C23.2162 55.5782 23.0124 55.3517 22.9444 55.1026Z" fill="#2E3092"/>
</svg>
