<svg width="78" height="82" viewBox="0 0 78 82" fill="none" xmlns="http://www.w3.org/2000/svg">
<path d="M77.1234 41.198C77.4631 41.5445 77.7158 41.9673 77.8605 42.4314C78.0053 42.8956 78.0379 43.3877 77.9558 43.8671L75.8832 56.5847C75.7791 57.2124 75.4824 57.7918 75.0347 58.2418C74.587 58.6919 74.0106 58.9901 73.386 59.0947C73.2254 59.1083 73.0639 59.1083 72.9032 59.0947C72.0566 59.0954 71.2436 58.7619 70.6392 58.166L68.2585 55.7731L52.3267 71.8207C51.9557 72.1938 51.5151 72.4899 51.0302 72.6918C50.5454 72.8938 50.0256 72.9977 49.5008 72.9977C48.9759 72.9977 48.4562 72.8938 47.9713 72.6918C47.4864 72.4899 47.0459 72.1938 46.6748 71.8207L38.5924 63.6965L21.5285 80.8234C20.779 81.5768 19.7625 82 18.7026 82C17.6426 82 16.6261 81.5768 15.8766 80.8234C15.1271 80.0701 14.7061 79.0483 14.7061 77.9829C14.7061 76.9175 15.1271 75.8957 15.8766 75.1423L35.7456 55.179C36.1167 54.8059 36.5572 54.5099 37.0421 54.3079C37.527 54.106 38.0467 54.002 38.5716 54.002C39.0964 54.002 39.6162 54.106 40.101 54.3079C40.5859 54.5099 41.0265 54.8059 41.3975 55.179L49.48 63.3032L62.615 50.1004L60.2094 47.6991C59.888 47.3866 59.6376 47.008 59.4753 46.5892C59.313 46.1704 59.2425 45.7214 59.2688 45.2727C59.3157 44.5832 59.5927 43.9297 60.0549 43.418C60.5171 42.9063 61.1376 42.5663 61.8159 42.4531L74.4681 40.353C74.6331 40.3248 74.8002 40.3108 74.9676 40.3112C75.7745 40.309 76.5496 40.6278 77.1234 41.198ZM16.0348 64.9013L19.0314 61.9227L21.9197 59.0194C22.5616 58.3968 22.9516 57.5574 23.0146 56.663C23.0776 55.7686 22.8092 54.8824 22.261 54.175C21.9501 53.7947 21.5636 53.4839 21.1262 53.2625C20.6888 53.0412 20.2102 52.9143 19.7211 52.8898C19.232 52.8654 18.7432 52.9441 18.2861 53.1207C17.829 53.2974 17.4138 53.5681 17.0669 53.9157L14.037 56.9026C10.5515 52.476 8.36615 47.1582 7.72758 41.5495H12.1892C13.1208 41.5495 14.0142 41.1775 14.673 40.5153C15.3317 39.8532 15.7018 38.9551 15.7018 38.0187C15.7018 37.0822 15.3317 36.1841 14.673 35.522C14.0142 34.8598 13.1208 34.4878 12.1892 34.4878H7.7692C8.39524 28.8833 10.5661 23.5658 14.037 19.1347L17.0336 22.1468C17.3805 22.4943 17.7957 22.765 18.2528 22.9417C18.7099 23.1184 19.1987 23.197 19.6878 23.1726C20.1769 23.1481 20.6555 23.0212 21.0929 22.7999C21.5303 22.5785 21.9169 22.2677 22.2277 21.8874C22.7735 21.1806 23.0406 20.2962 22.9776 19.4037C22.9146 18.5113 22.5261 17.6736 21.8864 17.0513L19.0314 14.1481C23.435 10.6441 28.7256 8.44743 34.3056 7.80599V12.0647C34.3056 13.0011 34.6757 13.8992 35.3344 14.5614C35.9932 15.2235 36.8866 15.5955 37.8183 15.5955C38.7499 15.5955 39.6433 15.2235 40.3021 14.5614C40.9608 13.8992 41.3309 13.0011 41.3309 12.0647V7.80599L42.4963 7.96496C48.7897 9.00793 54.5904 12.0346 59.0607 16.6079L59.1939 16.7418C63.1772 20.664 65.9885 25.6288 67.3096 31.0742L67.3512 31.2582C67.5562 32.2095 68.1152 33.046 68.9136 33.5966C69.7121 34.1472 70.6897 34.3702 71.6463 34.2201C72.1633 34.1216 72.6549 33.9184 73.0912 33.6229C73.5275 33.3274 73.8995 32.9458 74.1845 32.5013C74.4695 32.0567 74.6615 31.5585 74.7489 31.037C74.8363 30.5155 74.8172 29.9816 74.6929 29.4677C73.3743 23.7305 70.7482 18.3795 67.0216 13.8363C63.295 9.29303 58.5697 5.68176 53.218 3.28699C47.8663 0.892217 42.0345 -0.220613 36.182 0.0361834C30.3295 0.29298 24.6163 1.91239 19.4925 4.7668C14.3688 7.62121 9.97453 11.6326 6.65597 16.485C3.3374 21.3373 1.18522 26.8981 0.369019 32.7289C-0.447187 38.5598 0.0948805 44.5016 1.95251 50.086C3.81013 55.6704 6.93256 60.7449 11.0738 64.9097C11.7333 65.5687 12.626 65.9379 13.556 65.9363C14.486 65.9347 15.3774 65.5625 16.0348 64.9013ZM55.2983 20.5571C54.7165 19.9655 53.9364 19.6129 53.11 19.568C52.2836 19.5231 51.4702 19.7892 50.8284 20.3144L39.0086 29.8275C37.3429 29.5993 35.6475 29.8875 34.1491 30.6537C32.6507 31.4199 31.4207 32.6276 30.6235 34.1153C29.8263 35.603 29.4998 37.2998 29.6877 38.9791C29.8756 40.6583 30.5689 42.2399 31.675 43.5124C32.7812 44.7849 34.2473 45.6877 35.8776 46.1002C37.5079 46.5127 39.2246 46.4151 40.7982 45.8206C42.3719 45.2261 43.7275 44.163 44.6839 42.7733C45.6403 41.3836 46.152 39.7336 46.1504 38.0438C46.1481 37.6686 46.1203 37.294 46.0672 36.9226L55.5397 25.1086C56.0683 24.4608 56.3359 23.6372 56.2896 22.8007C56.2434 21.9642 55.8867 21.1755 55.29 20.5905L55.2983 20.5571Z" fill="#2E3092"/>
</svg>
