<svg width="83" height="83" viewBox="0 0 83 83" fill="none" xmlns="http://www.w3.org/2000/svg">
<path d="M63.295 47.9161C66.1697 47.9161 68.5086 45.5771 68.5086 42.7022V21.5109C68.5086 18.636 66.1697 16.2971 63.295 16.2971H41.5018H19.7087C16.834 16.2971 14.4951 18.636 14.4951 21.5109V42.7022C14.4951 45.5771 16.834 47.9161 19.7087 47.9161H41.5018H63.295ZM15.8125 42.7022V21.5109C15.8125 19.3625 17.5604 17.6145 19.7087 17.6145H40.8431V26.8367H38.867C35.9613 26.8367 33.5974 29.2007 33.5974 32.1066C33.5974 33.5126 34.1453 34.8358 35.1411 35.8335C36.1379 36.8285 37.461 37.3764 38.867 37.3764H40.8431V46.5986H19.7087C17.5605 46.5986 15.8125 44.8507 15.8125 42.7022Z" fill="#2E3092"/>
<path d="M54.3443 64.5557H49.0747C48.711 64.5557 48.416 64.8507 48.416 65.2145V66.4102C47.8892 65.9993 47.3377 65.6273 46.7643 65.2999C46.6225 65.2197 46.4821 65.1426 46.3416 65.068C45.9778 64.8767 45.7374 64.5038 45.7142 64.0948C45.3702 58.113 45.6694 55.9728 45.7697 55.457C45.7949 55.3241 45.8217 55.1929 45.851 55.058C46.0561 54.0869 45.7079 53.0935 44.9425 52.4661C44.1829 51.8431 43.1491 51.6968 42.2443 52.0851C42.2326 52.0901 42.2209 52.0955 42.2094 52.1013L42.2086 52.1018C39.1687 53.4342 37.8251 58.3808 38.9409 64.1427C38.9684 64.2843 38.9072 64.3848 38.8683 64.4319C38.8303 64.4782 38.7451 64.5559 38.6045 64.5559H30.878C29.289 64.5559 27.9961 65.8488 27.9961 67.4378C27.9961 68.2062 28.2954 68.93 28.8404 69.4773C28.906 69.5426 28.9745 69.6039 29.045 69.6622C28.4049 70.1912 27.9961 70.991 27.9961 71.8844C27.9961 72.6528 28.2954 73.3766 28.8404 73.9238C28.906 73.9892 28.9745 74.0505 29.045 74.1088C28.4049 74.6377 27.9961 75.4376 27.9961 76.331C27.9961 77.0994 28.2954 77.8232 28.8404 78.3704C28.8781 78.408 28.9187 78.4416 28.9582 78.4768C28.3846 78.9366 28.011 79.6276 27.9963 80.3998C27.9835 81.0907 28.2428 81.7426 28.7268 82.2357C29.2109 82.7291 29.858 83.0008 30.5486 83.0008H43.3241C44.8477 83.0008 46.3255 82.4883 47.4859 81.5574L47.4957 81.55C47.5011 81.546 47.5065 81.5416 47.512 81.5374C47.8257 81.2845 48.1254 81.0142 48.4159 80.7344V81.0246C48.4159 81.3884 48.7108 81.6833 49.0746 81.6833H54.3442C54.7079 81.6833 55.0029 81.3884 55.0029 81.0246V65.2151C55.003 64.8507 54.7081 64.5557 54.3443 64.5557ZM46.6871 80.5097C46.6795 80.5153 46.672 80.5209 46.6647 80.5268C45.7366 81.272 44.5503 81.6827 43.3243 81.6827H30.5488C30.2146 81.6827 29.9014 81.5511 29.6671 81.3123C29.4328 81.0737 29.3073 80.7582 29.3135 80.4239C29.3262 79.7557 29.9083 79.2125 30.6113 79.2125H31.2898C31.6536 79.2125 31.9485 78.9175 31.9485 78.5537C31.9485 78.1899 31.6536 77.895 31.2898 77.895H30.8781C30.4607 77.895 30.0671 77.7321 29.7722 77.4383C29.4766 77.1416 29.3137 76.7481 29.3137 76.3305C29.3137 75.4679 30.0156 74.766 30.8781 74.766H31.2898C31.6536 74.766 31.9485 74.4711 31.9485 74.1073C31.9485 73.7435 31.6536 73.4486 31.2898 73.4486H30.8781C30.4607 73.4486 30.0671 73.2857 29.7722 72.9919C29.4766 72.6951 29.3137 72.3017 29.3137 71.8841C29.3137 71.0215 30.0156 70.3196 30.8781 70.3196H31.2898C31.6536 70.3196 31.9485 70.0247 31.9485 69.6609C31.9485 69.2971 31.6536 69.0021 31.2898 69.0021H30.8781C30.4607 69.0021 30.0671 68.8393 29.7722 68.5455C29.4766 68.2487 29.3137 67.8553 29.3137 67.4377C29.3137 66.5751 30.0156 65.8732 30.8781 65.8732H38.6047C39.1022 65.8732 39.5687 65.6533 39.8847 65.2701C40.202 64.8852 40.3295 64.383 40.2343 63.8921C39.1198 58.1376 40.656 54.2092 42.7492 53.3031C42.7596 53.2987 42.7696 53.2939 42.7797 53.289C43.233 53.1009 43.7281 53.1735 44.1073 53.4846C44.4966 53.8038 44.6665 54.2904 44.5628 54.7825C44.532 54.9244 44.503 55.0666 44.476 55.2079C44.3387 55.9147 44.0559 58.2029 44.3991 64.1697C44.4482 65.0376 44.9575 65.8284 45.7262 66.2328C45.8543 66.3009 45.9841 66.3722 46.1135 66.4453C46.9326 66.9128 47.7055 67.4815 48.4162 68.1359V78.8059C47.8965 79.4269 47.3178 80.0009 46.6871 80.5097Z" fill="#2E3092"/>
<path d="M16.3578 50.2482C9.27351 45.2977 5.45864 36.9239 6.40223 28.3945C7.26628 20.5683 12.1644 13.5823 19.2492 10L20.4905 13.1603C20.5793 13.3865 20.7853 13.5454 21.0267 13.5738C21.267 13.6023 21.5054 13.4952 21.6441 13.2959L28.4303 3.55169C28.5563 3.37087 28.5835 3.13916 28.5028 2.9343C28.4223 2.72927 28.2446 2.57809 28.0294 2.53149L16.4247 0.0151392C16.1867 -0.0367358 15.9409 0.0469229 15.7833 0.232026C15.626 0.416964 15.583 0.673704 15.672 0.899813L16.9492 4.15097C12.8099 6.13671 9.1416 9.08288 6.31051 12.7013C2.90404 17.0565 0.784995 22.2451 0.182119 27.7062C-0.274196 31.829 0.127941 35.9256 1.37783 39.8821C3.34619 46.1142 7.39275 51.6174 12.772 55.3777C12.887 55.4581 13.0185 55.4966 13.1488 55.4966C13.3568 55.4966 13.5612 55.3985 13.6893 55.2154L16.52 51.1658C16.6202 51.0225 16.6594 50.8455 16.6287 50.6734C16.5988 50.5012 16.5011 50.3485 16.3578 50.2482Z" fill="#2E3092"/>
<path d="M81.6218 24.0149C79.6535 17.7828 75.6069 12.2797 70.2276 8.51929C69.9292 8.31064 69.5188 8.38393 69.3104 8.68167L66.4796 12.7312C66.3795 12.8745 66.3403 13.0515 66.3709 13.2236C66.4014 13.3957 66.4989 13.5485 66.6421 13.6487C73.7265 18.5992 77.5413 26.9729 76.5977 35.5023C75.7337 43.3285 70.8356 50.3145 63.7508 53.8969L62.5094 50.7366C62.4207 50.5103 62.2147 50.3514 61.9733 50.3231C61.7325 50.2953 61.4947 50.4016 61.3559 50.6009L54.5696 60.3452C54.4437 60.526 54.4165 60.7577 54.4972 60.9626C54.5777 61.1676 54.7554 61.3188 54.9706 61.3654L66.5753 63.8817C66.6217 63.8919 66.6685 63.8967 66.7149 63.8967C66.9058 63.8967 67.0899 63.8137 67.2167 63.6648C67.3739 63.4799 67.4169 63.2232 67.328 62.997L66.0508 59.7459C70.1901 57.7602 73.8584 54.814 76.6895 51.1956C80.0959 46.8404 82.215 41.6517 82.8179 36.1907C83.2738 32.0681 82.8717 27.9714 81.6218 24.0149Z" fill="#2E3092"/>
</svg>
