<svg width="84" height="83" viewBox="0 0 84 83" fill="none" xmlns="http://www.w3.org/2000/svg">
<path fill-rule="evenodd" clipRule="evenodd" d="M16.4214 0H22.9995V3.28523C25.1775 3.71762 27.2029 4.57015 28.9869 5.75549L31.3221 3.43111L35.9739 8.06153L33.6388 10.3859C34.8296 12.1617 35.6861 14.1778 36.1205 16.3458H39.4218V22.8936H36.1213C35.687 25.0616 34.8296 27.0776 33.6397 28.8535L35.9748 31.1778L31.323 35.8074L28.9878 33.483C27.2038 34.6684 25.1784 35.5209 23.0004 35.9533V39.2385H16.4223V35.9533C14.2442 35.5209 12.2189 34.6684 10.4348 33.483L8.09971 35.8074L3.44874 31.177L5.78387 28.8526C4.5913 27.0785 3.73482 25.0616 3.30043 22.8936H0V16.3458H3.30043C3.73482 14.1778 4.5913 12.1617 5.78212 10.3859L3.44698 8.06153L8.09883 3.43111L10.434 5.75549C12.218 4.57015 14.2434 3.71762 16.4214 3.28523V0ZM59.148 35.7952L36.4171 44.5931L42.523 46.9559L65.2531 38.158L59.148 35.7952ZM69.496 39.8002L73.6512 41.4083L51.1607 50.1127L47.2021 48.7658L46.765 48.5972L69.496 39.8002ZM77.8941 43.0505L81.879 44.5931L59.148 53.3901L55.1631 51.8484L77.8941 43.0505ZM84 47.0555L60.6908 56.077V83L84 73.9785V47.0555ZM57.6053 83V56.077L52.5112 54.1055V59.1176C52.5112 60.2209 51.3783 60.952 50.3753 60.5353L41.9798 57.6798C41.3383 57.4632 40.9338 56.8675 40.9338 56.2281L40.932 49.6236L34.2961 47.0555V73.9785L57.6053 83ZM49.4266 52.9123V56.9741L44.0166 55.1336V50.9224L46.2394 51.678L49.4266 52.9123ZM27.8391 70.6181C28.6842 70.7011 29.302 71.4497 29.2186 72.2918C29.1352 73.1329 28.3832 73.7479 27.5372 73.6649C22.8108 73.1853 18.3696 71.2663 14.805 68.2457C9.28877 63.5707 6.28934 56.6037 6.67282 49.4209C6.75005 47.9822 6.96241 46.5654 7.30027 45.187L6.15069 45.8387C5.4118 46.2562 4.47283 45.9977 4.05336 45.263C3.6339 44.5275 3.89277 43.5929 4.63166 43.1762L9.29755 40.5322C10.1066 40.0753 11.1342 40.4352 11.4826 41.2886L13.5001 46.2405C13.8195 47.0258 13.4395 47.9202 12.6506 48.2373C11.8617 48.5553 10.964 48.177 10.6446 47.3918L10.1988 46.2955C9.95834 47.3673 9.80564 48.4644 9.74597 49.5764C9.41338 55.7931 12.0197 61.8727 16.7935 65.9187C19.8851 68.5375 23.7375 70.2023 27.8391 70.6181ZM49.0142 9.3779C48.1761 9.51067 47.3881 8.94115 47.2547 8.10608C47.1213 7.27102 47.6935 6.48749 48.5324 6.35471C53.222 5.60001 58.0064 6.30842 62.2291 8.30437C68.7685 11.3966 73.4906 17.3896 74.9815 24.4012C75.2807 25.8093 75.444 27.2314 75.4764 28.6482L76.4172 27.7232C77.0227 27.13 77.9967 27.1379 78.5926 27.7415C79.1884 28.3442 79.1805 29.3138 78.5742 29.9069L74.7551 33.663C74.0908 34.3128 73.0079 34.229 72.4489 33.4935L69.2126 29.2291C68.7001 28.553 68.8352 27.5921 69.5135 27.082C70.1928 26.5719 71.1581 26.7064 71.6705 27.3816L72.3849 28.3232C72.3384 27.2261 72.2006 26.1264 71.9689 25.0363C70.6754 18.9523 66.594 13.7603 60.9154 11.0751C57.2429 9.33947 53.0851 8.72277 49.0142 9.3779ZM19.7105 9.41721C14.0494 9.41721 9.46077 13.9847 9.46077 19.6197C9.46077 25.2546 14.0494 29.8222 19.7105 29.8222C25.3715 29.8222 29.9601 25.2546 29.9601 19.6197C29.9601 13.9847 25.3706 9.41721 19.7105 9.41721Z" fill="#2E3092"/>
</svg>
