<svg width="75" height="74" viewBox="0 0 75 74" fill="none" xmlns="http://www.w3.org/2000/svg">
<path fillRule="evenodd" clipRule="evenodd" d="M36.7983 16.4267H52.4255C55.2087 16.4237 57.4965 14.2426 57.6256 11.4685V8.47854C59.7183 7.9153 61.0663 5.89004 60.7811 3.74791C60.4959 1.6028 58.6644 0 56.4967 0C54.3291 0 52.4976 1.6028 52.2124 3.74791C51.9272 5.89004 53.2752 7.91528 55.3679 8.47854C55.3679 9.7099 55.3589 11.4985 55.3529 11.5613C55.1878 13.0503 53.9237 14.1798 52.4226 14.1828H36.7953L36.7923 7.51086C36.7923 5.89602 35.4803 4.58682 33.862 4.58682H27.7822C26.5482 4.59281 25.4463 5.36574 25.0261 6.52516C24.918 6.82775 24.6808 7.07043 24.3806 7.18726C24.0803 7.3071 23.7441 7.29212 23.4559 7.14532C17.8685 4.30219 12.2688 4.44002 7.68411 7.5288C2.43001 11.2618 -0.46463 17.4786 0.0610951 23.8896C0.559489 29.4891 3.78706 33.9353 9.16444 36.4517C13.8271 34.6632 15.9107 31.0171 15.5294 25.3277C15.4934 24.7105 15.9617 24.1802 16.5772 24.1383C17.1957 24.0963 17.7331 24.5607 17.7782 25.1749C18.1114 28.1859 17.4809 31.2207 15.9737 33.8485C14.4636 36.1524 12.2058 37.8661 9.57872 38.7019C4.19849 41.3024 2.74537 46.3236 2.49011 50.0836C1.95269 57.7709 5.92785 66.4744 11.7341 70.333H11.7311C13.4094 71.5194 15.385 72.2144 17.4356 72.3432C19.4862 72.4721 21.5338 72.0257 23.3473 71.058C23.5034 70.9771 23.6775 70.9381 23.8517 70.9381C24.3681 70.9381 24.8184 71.2887 24.9445 71.789C25.2718 73.0892 26.4427 74 27.7847 74H33.8706C35.4888 74 36.7979 72.6908 36.8009 71.076V57.5099H52.4281C53.9593 57.5129 55.2353 58.6813 55.3674 60.2003C55.3674 60.2482 55.3734 61.9439 55.3764 63.2112V63.2142C53.2837 63.7775 51.9327 65.7997 52.2179 67.9448C52.5031 70.09 54.3346 71.6928 56.5023 71.6928C58.67 71.6928 60.5044 70.09 60.7896 67.9448C61.0748 65.7997 59.7238 63.7775 57.6281 63.2142C57.6281 61.902 57.6191 60.1074 57.6131 60.0205C57.3849 57.3331 55.1331 55.266 52.428 55.263H36.8008V48.1835H66.5965C68.2268 48.1835 69.5478 49.5018 69.5478 51.1255V58.7712C67.4581 59.3344 66.107 61.3567 66.3923 63.5018C66.6775 65.644 68.5089 67.2467 70.6766 67.2467C72.8413 67.2467 74.6727 65.644 74.958 63.5018C75.2432 61.3567 73.8951 59.3345 71.8025 58.7712V51.1255C71.7995 48.2584 69.4696 45.9366 66.5964 45.9336H36.7976V38.0599H66.5003C67.0678 40.1511 69.0944 41.4993 71.2441 41.2147C73.3938 40.93 75 39.0995 75 36.9365C75 34.7734 73.3938 32.9429 71.2441 32.6583C69.0944 32.3737 67.0678 33.7218 66.5003 35.813H36.7976V25.7589L66.5964 25.7559C69.4697 25.7529 71.7995 23.4311 71.8025 20.564V12.9183C73.8951 12.355 75.2432 10.3328 74.958 8.18766C74.6727 6.04554 72.8413 4.44274 70.6766 4.44274C68.5089 4.44274 66.6775 6.04554 66.3923 8.18766C66.107 10.3328 67.4581 12.355 69.5478 12.9183V20.5609C69.5478 22.1877 68.2267 23.5059 66.5965 23.5059H36.7977L36.7983 16.4267ZM21.3424 39.4057H21.3394C21.6336 39.3428 21.9369 39.3997 22.1891 39.5615C22.4383 39.7232 22.6154 39.9779 22.6785 40.2715C23.5312 44.2711 20.9701 47.5636 15.0435 50.0656V50.0626C14.9054 50.1195 14.7553 50.1495 14.6051 50.1495C14.0707 50.1465 13.6083 49.772 13.5033 49.2477C13.3952 48.7234 13.6744 48.1961 14.1668 47.9864C21.3755 44.9456 20.6969 41.7788 20.4747 40.7363V40.7393C20.3456 40.1311 20.7329 39.5349 21.3394 39.4031L21.3424 39.4057ZM26.9899 30.5496C26.7257 30.4147 26.5245 30.1781 26.4314 29.8964C26.3384 29.6118 26.3654 29.3033 26.5005 29.0366C29.3978 23.3892 28.0377 17.6787 22.3543 11.579C21.9279 11.1236 21.955 10.4106 22.4113 9.98818C22.8677 9.56575 23.5792 9.58972 24.0056 10.0451C30.3255 16.8249 31.8384 23.5597 28.5091 30.0582H28.5061C28.314 30.4357 27.9266 30.6724 27.5033 30.6694C27.3262 30.6694 27.149 30.6274 26.9899 30.5466L26.9899 30.5496ZM26.2543 50.973C28.6622 55.9642 27.9176 61.7013 24.0416 68.0256C23.7023 68.517 23.0358 68.6578 22.5253 68.3462C22.0149 68.0346 21.8378 67.3785 22.123 66.8542C25.6238 61.144 26.3113 56.2663 24.2277 51.9491C24.0806 51.6795 24.0536 51.3619 24.1466 51.0683C24.2427 50.7777 24.4529 50.535 24.7291 50.4032C25.0053 50.2684 25.3266 50.2534 25.6148 50.3613C25.9029 50.4691 26.1342 50.6914 26.2543 50.973Z" fill="#2E3092"/>
</svg>
