<svg width="1173" height="258" viewBox="0 0 1173 258" fill="none" xmlns="http://www.w3.org/2000/svg">
<path d="M128.896 0.156372C57.868 0.156372 0.0782 57.9131 0 128.933H29.001C29.0792 73.9026 73.8543 29.1632 128.896 29.1632C183.938 29.1632 228.713 73.9138 228.791 128.933H257.792C257.702 57.9131 199.913 0.156372 128.896 0.156372Z" fill="#2E3092"/>
<path d="M1044.1 0.122925C973.066 0.122925 915.265 57.902 915.209 128.944H944.21C944.266 73.8915 989.052 29.1298 1044.1 29.1298C1099.16 29.1298 1143.94 73.9027 1144 128.944H1173C1172.95 57.902 1115.14 0.122925 1044.1 0.122925Z" fill="#2E3092"/>
<path d="M815.314 228.837C760.239 228.837 715.43 184.03 715.419 128.944H686.418C686.418 200.02 744.252 257.844 815.314 257.844C886.375 257.844 944.199 200.02 944.21 128.944H915.209C915.209 184.03 870.389 228.837 815.314 228.837Z" fill="#2E3092"/>
<path d="M586.533 0.156372C515.505 0.156372 457.715 57.9131 457.648 128.933H486.638C486.716 73.9026 531.492 29.1632 586.533 29.1632C641.575 29.1632 686.35 73.9138 686.428 128.933H715.429C715.351 57.9131 657.561 0.156372 586.533 0.156372Z" fill="#2E3092"/>
<path d="M357.708 228.837C302.633 228.837 257.825 184.03 257.814 128.944H228.812C228.824 200.02 286.647 257.844 357.708 257.844C428.77 257.844 486.593 200.02 486.604 128.944H457.603C457.603 184.03 412.784 228.837 357.708 228.837Z" fill="#2E3092"/>
</svg>
