<svg width="42" height="41" viewBox="0 0 42 41" fill="none" xmlns="http://www.w3.org/2000/svg">
<path fill-rule="evenodd" clip-rule="evenodd" d="M2.10233 0H39.8977C41.0541 0 42 0.167765 42 1.30799V30.6966C42 31.8369 41.0541 32.7694 39.8977 32.7694H2.10233C0.945933 32.7694 0 31.8369 0 30.6966V1.30799C0 0.167765 0.945933 0 2.10233 0ZM19.0461 22.2627C18.9257 22.2291 18.7987 22.2108 18.6676 22.2108C18.5211 22.2108 18.3801 22.2334 18.2467 22.2752L15.1055 18.4109L15.1046 18.4118C15.0635 18.3614 15.0136 18.3171 14.9548 18.2825C14.6879 18.1244 14.3467 18.2195 14.1937 18.4945L12.1557 22.1397L10.6568 20.6634C10.717 20.5 10.7501 20.3226 10.7501 20.1375C10.7501 19.3208 10.1071 18.6584 9.3142 18.6584C8.52133 18.6584 7.87827 19.3208 7.87827 20.1375C7.87827 20.3428 7.91887 20.5385 7.99213 20.7163L5.53653 23.4611C5.32747 23.6952 5.3424 24.0591 5.5692 24.2745C5.79647 24.4898 6.14973 24.4744 6.3588 24.2408L8.79527 21.5172C8.95627 21.5811 9.1308 21.6167 9.31373 21.6167C9.51627 21.6167 9.70947 21.5734 9.884 21.4951L11.8977 23.4779C12.1212 23.6971 12.4749 23.688 12.6873 23.4578C12.7269 23.4145 12.7591 23.3669 12.7834 23.3164L14.6935 19.9001C14.7093 19.8722 14.735 19.8549 14.7663 19.8525C14.7975 19.8496 14.8255 19.8616 14.8461 19.8866L17.3889 23.015C17.2881 23.2174 17.2307 23.4467 17.2307 23.6899C17.2307 24.5066 17.8738 25.1691 18.6667 25.1691C19.4595 25.1691 20.1026 24.5066 20.1026 23.6899C20.1026 23.4308 20.0377 23.1871 19.9243 22.9756L25.9658 15.0671C26.7391 15.4704 27.5893 15.6545 28.4317 15.6223C29.5157 15.581 30.5867 15.183 31.4636 14.435C31.5009 14.4033 31.5551 14.4057 31.5891 14.4412L32.3988 15.2753C32.4343 15.3118 32.4352 15.3709 32.4011 15.4089L32.3731 15.4397C32.3069 15.5132 32.3106 15.629 32.382 15.6973L35.2371 18.4373C35.4774 18.668 35.8573 18.6541 36.0813 18.4065L36.4513 17.9975C36.6753 17.7499 36.6618 17.3586 36.4215 17.1279L33.5664 14.3879C33.495 14.3196 33.3825 14.3235 33.3163 14.397L33.2929 14.423C33.2752 14.4427 33.2528 14.4533 33.2262 14.4537C33.2001 14.4542 33.1772 14.4446 33.1585 14.4254L32.3512 13.5938C32.3185 13.5601 32.3143 13.5082 32.3414 13.4693C33.019 12.5055 33.334 11.3619 33.2934 10.2317C33.2458 8.90019 32.7054 7.58787 31.6843 6.61109C30.6628 5.63334 29.3529 5.17523 28.0611 5.22426C26.7745 5.2733 25.5071 5.82466 24.5597 6.86682L24.5593 6.86634C24.5448 6.88124 24.5313 6.89711 24.5187 6.91297C23.5886 7.9609 23.1527 9.29677 23.1999 10.6139C23.2475 11.9392 23.7827 13.2448 24.7945 14.2206L24.794 14.2216C24.8085 14.2365 24.8239 14.2504 24.8393 14.2634C24.9009 14.3215 24.9639 14.3778 25.0278 14.4326L19.0461 22.2627ZM27.8586 10.3024C28.6515 10.3024 29.2945 10.9648 29.2945 11.7815C29.2945 12.5982 28.6515 13.2606 27.8586 13.2606C27.6999 13.2606 27.5469 13.2342 27.4041 13.1852L26.6751 14.1394C27.2216 14.3845 27.8096 14.4956 28.3929 14.4734C29.3874 14.4355 30.3688 14.01 31.1061 13.2063C31.1173 13.1924 31.1295 13.1784 31.1425 13.1655L31.1509 13.1568C31.8752 12.3406 32.2149 11.2999 32.1781 10.274C32.1412 9.2386 31.7198 8.21759 30.9232 7.4552C30.1271 6.69377 29.1069 6.33661 28.1008 6.37458C27.0956 6.41256 26.1044 6.84663 25.3643 7.66719L25.3507 7.68257L25.3512 7.68305L25.3428 7.69171C24.6185 8.50794 24.2788 9.54866 24.3157 10.575C24.3525 11.6104 24.7739 12.6314 25.5705 13.3938L25.5855 13.4077L25.5859 13.4072L25.5943 13.4159C25.6354 13.4544 25.6769 13.4923 25.7194 13.5289L26.5641 12.4233C26.4735 12.2295 26.4227 12.0122 26.4227 11.783C26.4227 10.9643 27.0653 10.3024 27.8586 10.3024ZM12.0834 7.27253L11.9751 6.34382C11.9616 6.22653 11.8664 6.13952 11.7516 6.13952H10.7119C10.5975 6.13952 10.5023 6.22653 10.4883 6.34382L10.3801 7.27253C10.3693 7.36435 10.3115 7.43693 10.2256 7.4653C10.0562 7.52154 9.8924 7.59172 9.73607 7.6744C9.65627 7.7167 9.56527 7.70757 9.49433 7.65036L8.77987 7.07208C8.6898 6.99901 8.56287 7.00719 8.48167 7.09035L7.74667 7.84745C7.66593 7.93061 7.658 8.06185 7.72893 8.15462L8.29033 8.89009C8.34587 8.96316 8.35473 9.0569 8.31367 9.1391C8.2334 9.30013 8.16527 9.46886 8.11067 9.64335C8.08313 9.73132 8.01267 9.79141 7.92353 9.80247L7.02193 9.91399C6.90807 9.92793 6.8236 10.026 6.8236 10.1442V11.2152C6.8236 11.333 6.90807 11.4311 7.02193 11.4455L7.92353 11.557C8.01267 11.5681 8.08313 11.6277 8.11067 11.7161C8.16527 11.8906 8.2334 12.0594 8.31367 12.2204C8.35473 12.3026 8.34587 12.3963 8.29033 12.4694L7.72893 13.2054C7.658 13.2981 7.66593 13.4289 7.74667 13.5125L8.48167 14.2696C8.5624 14.3528 8.6898 14.361 8.77987 14.2879L9.49387 13.7096C9.5648 13.6524 9.6558 13.6433 9.7356 13.6856C9.89193 13.7683 10.0557 13.8384 10.2251 13.8947C10.3105 13.923 10.3689 13.9956 10.3796 14.0874L10.4879 15.0162C10.5014 15.1334 10.5966 15.2205 10.7114 15.2205H11.7511C11.8655 15.2205 11.9607 15.1334 11.9747 15.0162L12.0829 14.0874C12.0937 13.9956 12.1515 13.923 12.2374 13.8947C12.4068 13.8384 12.5706 13.7683 12.7269 13.6856C12.8067 13.6433 12.8977 13.6524 12.9687 13.7096L13.6831 14.2879C13.7732 14.361 13.9001 14.3528 13.9813 14.2696L14.7163 13.5125C14.7971 13.4294 14.805 13.2981 14.7341 13.2054L14.1727 12.4699C14.1171 12.3968 14.1083 12.3031 14.1493 12.2209C14.2296 12.0598 14.2977 11.8911 14.3523 11.7166C14.3799 11.6287 14.4503 11.5686 14.5395 11.5575L15.4411 11.446C15.5549 11.432 15.6394 11.334 15.6394 11.2157V10.1447C15.6394 10.027 15.5549 9.92889 15.4411 9.91447L14.5395 9.80295C14.4503 9.79189 14.3799 9.73228 14.3523 9.64383C14.2977 9.46934 14.2296 9.30061 14.1493 9.13958C14.1083 9.05738 14.1171 8.96364 14.1727 8.89058L14.7341 8.15462C14.805 8.06185 14.7971 7.9311 14.7163 7.84745L13.9813 7.09035C13.9006 7.00719 13.7732 6.99901 13.6831 7.07208L12.9691 7.65036C12.8982 7.70757 12.8072 7.7167 12.7274 7.6744C12.5711 7.59172 12.4073 7.52154 12.2379 7.4653C12.1525 7.43741 12.0941 7.36483 12.0834 7.27253ZM11.2611 8.41035V8.41228C10.6559 8.40411 10.1033 8.6483 9.69967 9.05065C9.30533 9.44386 9.05287 9.98898 9.0314 10.5971C9.02953 10.6149 9.0286 10.6326 9.0286 10.6504H9.03047C9.02253 11.2739 9.2596 11.843 9.6502 12.2589C10.0319 12.665 10.5611 12.9251 11.1515 12.9472C11.1683 12.9491 11.186 12.9501 11.2033 12.9501V12.9482C11.809 12.9563 12.3611 12.7122 12.7647 12.3098C13.1591 11.9166 13.4115 11.3715 13.433 10.7634C13.4349 10.7461 13.4358 10.7283 13.4358 10.71H13.4339C13.4419 10.0866 13.2048 9.51741 12.8142 9.1016C12.4325 8.69541 11.9033 8.43535 11.3129 8.41324C11.2961 8.41132 11.2789 8.41035 11.2611 8.41035ZM11.2611 9.33715V9.3357H11.2541C10.8939 9.32946 10.5653 9.47463 10.3255 9.71354C10.0921 9.9462 9.94233 10.2668 9.92787 10.624C9.92833 10.6331 9.9288 10.6423 9.9288 10.6514H9.9274V10.6586C9.92133 11.0297 10.0623 11.3681 10.2942 11.6152C10.5201 11.8555 10.8313 12.0098 11.1781 12.0247C11.1869 12.0243 11.1958 12.0238 11.2047 12.0238V12.0252H11.2117C11.5719 12.0315 11.9005 11.8863 12.1403 11.6474C12.3737 11.4147 12.5235 11.0941 12.5379 10.7369C12.5375 10.7278 12.537 10.7187 12.537 10.7095H12.5384V10.7023C12.5445 10.3312 12.4035 9.99282 12.1716 9.74574C11.9457 9.50539 11.6345 9.35109 11.2882 9.33618C11.2789 9.33667 11.27 9.33715 11.2611 9.33715ZM30.3679 19.4641C30.2139 19.4641 30.0879 19.5939 30.0879 19.7525V24.9614C30.0879 25.12 30.2139 25.2498 30.3679 25.2498H31.395C31.549 25.2498 31.675 25.12 31.675 24.9614V19.7525C31.675 19.5939 31.549 19.4641 31.395 19.4641H30.3679ZM27.1343 21.4249C26.9803 21.4249 26.8543 21.5547 26.8543 21.7133V24.9619C26.8543 25.1205 26.9803 25.2503 27.1343 25.2503H28.1615C28.3155 25.2503 28.4415 25.1205 28.4415 24.9619V21.7133C28.4415 21.5547 28.3155 21.4249 28.1615 21.4249H27.1343ZM23.8546 22.7487C23.7006 22.7487 23.5746 22.8785 23.5746 23.0371V24.9619C23.5746 25.1205 23.7006 25.2503 23.8546 25.2503H24.8817C25.0357 25.2503 25.1617 25.1205 25.1617 24.9619V23.0371C25.1617 22.8785 25.0357 22.7487 24.8817 22.7487H23.8546ZM11.8785 38.1345H17.2466C17.8267 36.8515 18.1426 35.4397 18.2411 33.9231H23.7594C23.8579 35.4397 24.1738 36.8511 24.7539 38.1345H30.1219C30.8868 38.1345 31.5126 38.7792 31.5126 39.567V41H10.4874V39.567C10.4874 38.7792 11.1132 38.1345 11.8785 38.1345ZM20.0947 31.2538H21.4811C21.7905 31.2538 22.0411 30.9956 22.0411 30.6769C22.0411 30.3582 21.7905 30.1001 21.4811 30.1001H20.0947C19.7853 30.1001 19.5347 30.3582 19.5347 30.6769C19.5347 30.9956 19.7853 31.2538 20.0947 31.2538ZM2.69453 2.6977L2.5662 28.584H39.4333L39.5617 2.6977H2.69453Z" fill="#2E3092"/>
</svg>
