<svg width="46" height="49" viewBox="0 0 46 49" fill="none" xmlns="http://www.w3.org/2000/svg">
<path d="M39.6885 23.1418V25.9575C39.6885 26.1186 39.6247 26.275 39.5109 26.39C39.397 26.505 39.2421 26.5695 39.0804 26.5695H32.9718C32.6348 26.5695 32.3637 26.2957 32.3637 25.9575C32.3637 22.5781 30.5782 19.4541 27.6812 17.7657C24.7841 16.0749 21.2129 16.0749 18.3163 17.7657C15.4193 19.4542 13.6338 22.5783 13.6338 25.9575C13.6338 26.1186 13.57 26.275 13.4561 26.39C13.3422 26.505 13.1874 26.5694 13.0257 26.5694H6.91711C6.58004 26.5694 6.30899 26.2957 6.30899 25.9575V23.1418C6.30899 22.8013 6.58002 22.5275 6.91711 22.5275H7.52523H7.52295C8.70723 22.4999 9.7549 21.75 10.1717 20.6319C10.6842 19.5231 10.4724 18.2119 9.6365 17.3262L9.21061 16.896H9.21288C8.97602 16.6568 8.97602 16.2703 9.21288 16.031L13.1598 12.0443C13.3967 11.8051 13.7793 11.8051 14.0162 12.0443L14.4421 12.4791C15.2415 13.2774 16.4349 13.5189 17.478 13.0934L17.831 12.9461C18.8787 12.5068 19.5619 11.4716 19.5619 10.3259V9.7117C19.5619 9.37353 19.833 9.09976 20.1678 9.09976H25.7432C25.9049 9.09976 26.0597 9.16417 26.1736 9.27919C26.2875 9.39421 26.3513 9.55065 26.3513 9.71168V10.3259C26.3513 11.4715 27.0345 12.5067 28.0822 12.9461L28.2826 13.0266V13.0243C29.4259 13.5097 30.7446 13.2452 31.6169 12.3572L31.9267 12.0444C32.1635 11.8051 32.5462 11.8051 32.7831 12.0444L36.73 16.031C36.8438 16.146 36.9053 16.3002 36.9076 16.4612C36.9076 16.6245 36.8438 16.781 36.73 16.896L36.3041 17.3262H36.3064C35.5229 18.221 35.3134 19.4909 35.7643 20.5951C36.2153 21.6993 37.2493 22.4493 38.4313 22.5275H39.0394C39.2079 22.516 39.3719 22.5758 39.4949 22.6908C39.6201 22.8081 39.6885 22.9716 39.6885 23.1418ZM22.9988 19.1045C19.2546 19.1068 16.2186 22.1733 16.214 25.9577C16.214 26.1187 16.2777 26.2752 16.3916 26.3902C16.5055 26.5052 16.6604 26.5696 16.8221 26.5696H29.1756C29.3373 26.5696 29.4922 26.5052 29.6061 26.3902C29.7199 26.2752 29.7837 26.1187 29.7837 25.9577C29.7791 22.1735 26.7433 19.1069 22.9988 19.1045ZM37.0765 42.5504C32.4053 46.5463 26.2831 48.3705 20.2136 47.5792C14.1418 46.7855 8.68044 43.4499 5.16817 38.3845L7.14732 38.8814C7.47073 38.9642 7.7987 38.7663 7.88295 38.4397C7.92166 38.2809 7.89889 38.113 7.81462 37.9727C7.73263 37.8324 7.59598 37.7311 7.43883 37.692L4.02027 36.834C3.86312 36.7926 3.69458 36.8179 3.55565 36.9007C3.41672 36.9858 3.31651 37.1215 3.27779 37.2803L2.4283 40.7333V40.7356C2.38275 40.8943 2.40324 41.0668 2.48523 41.2117C2.56722 41.3567 2.70616 41.4602 2.86558 41.5016C3.02728 41.5407 3.19582 41.5131 3.33475 41.4234C3.47596 41.336 3.57389 41.1933 3.60577 41.03L4.1091 38.9941L4.11138 38.9918C7.80094 44.3772 13.5678 47.938 19.9947 48.7984C26.4216 49.6588 32.908 47.7402 37.8598 43.5143C38.1171 43.2957 38.149 42.907 37.9326 42.6493C37.7163 42.3893 37.3337 42.3571 37.0763 42.5757L37.0765 42.5504ZM1.24428 25.7545C1.25112 19.9252 3.54457 14.3372 7.62163 10.2125C11.6987 6.08772 17.2285 3.76445 22.9994 3.74796H23.0837L21.6329 5.21336V5.21566C21.4575 5.3905 21.4052 5.65275 21.4985 5.88278C21.5919 6.11283 21.8128 6.26236 22.0588 6.26466C22.2205 6.26236 22.3754 6.19795 22.4893 6.08062L24.9786 3.56625V3.56395C25.0947 3.44893 25.1585 3.2925 25.1585 3.12917C25.1585 2.96584 25.0947 2.8094 24.9786 2.69438L22.4893 0.180009V0.177708C22.2524 -0.059236 21.8698 -0.059236 21.6329 0.177708C21.3983 0.416955 21.3983 0.80343 21.6329 1.04271L23.0905 2.52188H22.9994C15.7411 2.52879 8.9107 5.99095 4.56993 11.8662C0.228988 17.7439 -1.11248 25.3423 0.946424 32.3722C1.02614 32.6437 1.27667 32.8254 1.55454 32.8139C1.61148 32.8116 1.67069 32.8024 1.72535 32.784C2.04421 32.6851 2.22641 32.3469 2.13075 32.0225C1.53179 29.9867 1.22202 27.8771 1.2152 25.7535L1.24428 25.7545ZM44.5056 38.2325H42.3921C46.109 32.3479 47.0063 25.0855 44.8404 18.4579C42.6722 11.8302 37.666 6.53942 31.2094 4.05008C30.8974 3.92815 30.5489 4.08458 30.4259 4.39974C30.3667 4.55157 30.3712 4.72411 30.4373 4.87364C30.5033 5.02317 30.6263 5.14049 30.7789 5.198C36.8233 7.53063 41.5291 12.4581 43.6176 18.6441C45.706 24.8301 44.9636 31.635 41.5905 37.2132V35.2808C41.5905 34.9427 41.3172 34.6666 40.9824 34.6666C40.6476 34.6666 40.3743 34.9427 40.3743 35.2808V38.8442C40.3743 39.0076 40.4381 39.164 40.552 39.279C40.6658 39.3941 40.8207 39.4585 40.9824 39.4585H44.5058C44.8405 39.4585 45.1116 39.1847 45.1116 38.8442C45.1116 38.5061 44.8404 38.2325 44.5056 38.2325ZM22.3907 27.7975V36.5505C20.9217 36.8657 19.9242 38.2483 20.0813 39.7573C20.2385 41.2664 21.498 42.4121 22.9988 42.4121C24.4997 42.4121 25.7592 41.2664 25.9163 39.7573C26.0735 38.2483 25.0759 36.8657 23.607 36.5505V27.7975H22.3907ZM13.3308 33.4336V36.5507C11.8641 36.8659 10.8688 38.2461 11.026 39.7506C11.1831 41.2574 12.438 42.4007 13.9366 42.4007C15.4352 42.4007 16.6925 41.2574 16.8496 39.7506C17.0045 38.2461 16.0115 36.8659 14.5448 36.5507V33.8638L18.5532 32.3731C18.7923 32.2834 18.9495 32.0534 18.9472 31.7957V27.7975H17.7333V31.3678L13.7249 32.8654V32.8631C13.488 32.9528 13.3308 33.1805 13.3308 33.4336ZM32.2728 32.8631L28.2643 31.3655V27.7975H27.0504V31.7957C27.0481 32.0533 27.2053 32.2833 27.4444 32.3731L31.4529 33.8637V36.5507C29.9839 36.8658 28.9863 38.2484 29.1435 39.7575C29.2984 41.2666 30.5578 42.4122 32.061 42.4122C33.5619 42.4122 34.8213 41.2666 34.9785 39.7575C35.1333 38.2484 34.1358 36.8658 32.6668 36.5507V33.4335C32.6668 33.1805 32.5096 32.9528 32.2728 32.8631Z" fill="#2E3092"/>
</svg>
