<svg width="50" height="50" viewBox="0 0 50 50" fill="none" xmlns="http://www.w3.org/2000/svg">
<path fill-rule="evenodd" clip-rule="evenodd" d="M16.9643 25.4547C13.1945 25.676 10.2216 28.8046 10.2216 32.6081C10.2216 36.4137 13.4399 39.7787 17.3918 39.7787C21.2007 39.7787 24.3296 36.8063 24.5514 33.0419H19.8869C18.2757 33.0419 16.9576 31.7249 16.9576 30.115V25.4546L16.9643 25.4547ZM26.1713 33.0419H26.5948C28.5622 33.0419 29.7196 30.7811 28.497 29.1864C28.3906 29.0541 28.319 28.9022 28.2755 28.7481C28.0866 28.043 28.547 27.1144 29.0921 26.6371C30.6143 25.2918 33.0659 26.1923 33.3179 28.2361C33.3613 28.5919 33.2853 28.9087 33.0682 29.1864C31.8782 30.7311 32.9292 32.9138 34.7967 33.0419V34.1029C34.7967 34.5693 34.4905 34.9533 34.0345 35.0531L31.7392 35.5522C31.4048 35.6238 31.1659 35.8906 31.116 36.2031C30.9553 36.8193 30.749 37.4311 30.4992 38.0256C30.243 38.6418 29.9433 39.2427 29.6045 39.8134C29.4438 40.0911 29.459 40.4253 29.6328 40.6748L30.8901 42.6361C31.1398 43.0245 31.0899 43.5126 30.7576 43.8468L28.6447 45.9579C28.3103 46.292 27.8282 46.3419 27.433 46.0902L25.4547 44.8232C25.1876 44.6518 24.8662 44.6561 24.61 44.8058C23.4699 45.4784 22.2191 46.0057 20.9358 46.3333C20.6296 46.4114 20.4124 46.6544 20.3473 46.9451L19.8478 49.2384C19.7479 49.6941 19.3701 50 18.8967 50H15.9109C15.4505 50 15.0596 49.6941 14.9597 49.2384L14.4603 46.9451C14.3886 46.611 14.1215 46.3724 13.8088 46.3224C13.1921 46.1619 12.5797 45.9557 11.9848 45.7062C11.368 45.4502 10.7665 45.1508 10.1954 44.8123C9.91743 44.6518 9.58299 44.6669 9.33328 44.8405L7.37024 46.0967C6.98154 46.3462 6.49296 46.2963 6.15852 45.9644L4.04561 43.8533C3.7112 43.5192 3.66125 43.0375 3.91315 42.6426L5.18129 40.6661C5.35284 40.3992 5.3485 40.0781 5.19867 39.8221C4.52551 38.683 3.99779 37.4333 3.66991 36.151C3.59174 35.8451 3.34852 35.6281 3.05752 35.563L0.762211 35.0575C0.306191 34.9577 0 34.5802 0 34.1072V31.1239C0 30.6639 0.306185 30.2734 0.762211 30.1736L3.05752 29.6746C3.39193 29.603 3.63077 29.3361 3.68075 29.0237C3.84144 28.4075 4.04774 27.7957 4.29748 27.2012C4.55372 26.585 4.85339 25.984 5.19216 25.4177C5.35285 25.14 5.33766 24.8059 5.16393 24.5564L3.90663 22.595C3.6569 22.2067 3.70684 21.7185 4.03909 21.3844L6.152 19.2733C6.48641 18.9391 6.96852 18.8892 7.36372 19.1409L9.34199 20.408C9.60909 20.5794 9.93048 20.575 10.1867 20.4253C11.3268 19.7528 12.5776 19.2255 13.8609 18.8979C14.1671 18.8198 14.3843 18.5768 14.4494 18.286L14.9489 15.9927C15.0488 15.5371 15.4331 15.2311 15.9 15.2311H16.9619C17.09 17.0971 19.2746 18.1472 20.8207 16.9582C20.9532 16.8519 21.1052 16.7803 21.2594 16.7369C21.9651 16.5481 22.8945 17.0081 23.3723 17.5527C24.7186 19.0737 23.8174 21.5232 21.7718 21.7749C21.4157 21.8183 21.0987 21.7424 20.8207 21.5254C19.2247 20.2974 16.9576 21.4538 16.9576 23.4195V23.8426C12.2932 24.0704 8.60168 27.9194 8.60168 32.6123C8.60168 37.3053 12.5321 41.3887 17.3901 41.3887C22.0871 41.3887 25.9395 37.7003 26.1674 33.0461L26.1713 33.0419ZM25.3309 31.432H19.8891C19.1659 31.432 18.5709 30.8375 18.5709 30.115V23.4171C18.5709 22.7401 19.3331 22.406 19.8391 22.7944C20.4623 23.2717 21.1963 23.4669 21.9672 23.3715C25.2527 22.9658 26.8097 19.0105 24.5752 16.4853C23.4134 15.1748 21.3288 14.5347 19.8326 15.6847C19.3331 16.0687 18.5644 15.7346 18.5644 15.062V8.364C18.5644 7.63716 19.1638 7.04701 19.8826 7.04701H26.5863C28.5537 7.04701 29.7111 4.7819 28.4886 3.18719C28.3822 3.05484 28.3105 2.90296 28.2671 2.74892C28.0782 2.0438 28.5385 1.11517 29.0836 0.63783C30.6059 -0.707374 33.0575 0.19305 33.3094 2.23687C33.3528 2.59269 33.2768 2.90944 33.0597 3.18716C31.8306 4.78186 32.988 7.04697 34.9555 7.04697H41.6592C42.3867 7.04697 42.9773 7.64579 42.9773 8.36396V15.0403C42.9773 16.4006 44.0891 17.4399 45.3834 17.4399C45.8785 17.4399 46.3779 17.2837 46.8166 16.9517C46.9555 16.8454 47.101 16.7738 47.2552 16.7348C47.9566 16.5525 48.8839 17.006 49.3616 17.5506C50.708 19.0715 49.8068 21.521 47.7612 21.7728C47.4051 21.8162 47.0989 21.7446 46.8166 21.5276C46.3714 21.1891 45.872 21.0394 45.3834 21.0394C44.0827 21.0394 42.9774 22.0787 42.9774 23.4391V30.1154C42.9774 30.8379 42.3824 31.4324 41.6592 31.4324H34.9555C34.2779 31.4324 33.9436 30.6708 34.3323 30.1653C34.81 29.5426 35.0054 28.8093 34.9099 28.039C34.5038 24.7563 30.5451 23.2007 28.0177 25.4333C26.7061 26.594 26.0655 28.6769 27.2164 30.1718C27.6008 30.6708 27.2664 31.4389 26.5932 31.4389H25.3315L25.3309 31.432Z" fill="#2E3092"/>
</svg>
