<svg width="47" height="44" viewBox="0 0 47 44" fill="none" xmlns="http://www.w3.org/2000/svg">
<path fill-rule="evenodd" clip-rule="evenodd" d="M36.5008 21.7248L28.2515 25.8656L36.25 29.8806L44.4992 25.7398L36.5008 21.7248ZM34.125 33.5862L25.625 29.3195V39.7323L34.125 43.999V33.5862ZM23.5 8.54722L31.7493 4.40642L23.5 0.265625L15.2507 4.40856L23.5 8.54722ZM8.625 33.5862L0.125 29.3195V39.7323L8.625 43.999V33.5862ZM38.375 33.5862V43.999L46.875 39.7323V29.3195L38.375 33.5862ZM21.375 29.3195L12.875 33.5862V43.999L21.375 39.7323V29.3195ZM21.375 22.4139V12.2528L12.875 7.98616V18.1472L21.375 22.4139ZM25.625 22.4139L34.125 18.1472V7.98616L25.625 12.2528V22.4139ZM2.50075 25.7419L10.4993 21.727L18.7485 25.8656L10.75 29.8806L2.50075 25.7419Z" fill="#2E3092"/>
</svg>
