<svg width="52" height="41" viewBox="0 0 52 41" fill="none" xmlns="http://www.w3.org/2000/svg">
<path fill-rule="evenodd" clipRule="evenodd" d="M45.5575 4.09343H43.9649V1.98228C43.9649 0.890387 43.0637 0 41.9585 0H11.9509C10.8457 0 9.94449 0.890387 9.94449 1.98228V8.97709C9.94449 10.069 10.8457 10.9594 11.9509 10.9594H41.9585C43.0637 10.9594 43.9649 10.069 43.9649 8.97709V6.86593H45.5575C46.1059 8.04921 47.3018 8.81307 48.6264 8.81307C50.4893 8.81307 52 7.3205 52 5.47998C52 3.63945 50.4893 2.14689 48.6264 2.14689C47.3018 2.1463 46.1059 2.90957 45.5575 4.09343ZM12.242 39.307L8.63357 40.8711C7.85093 41.2102 6.93193 40.857 6.58804 40.0838C4.43638 35.2517 2.28531 30.4196 0.133651 25.5875C-0.214385 24.806 0.140173 23.9075 0.931705 23.5642L4.54014 22.0002C5.32337 21.661 6.24178 22.0142 6.58567 22.7874C8.73733 27.6195 10.8884 32.4517 13.0401 37.2838C13.3875 38.0652 13.0329 38.9644 12.242 39.307ZM30.0998 29.6909L20.9743 27.2821C20.5759 27.1773 20.3393 26.7725 20.4461 26.3794C20.5528 25.9858 20.9619 25.7521 21.3597 25.8575L30.4828 28.2657C31.7973 28.6124 33.161 27.8334 33.5126 26.5347C33.8636 25.236 33.075 23.8881 31.7605 23.5413L24.8958 21.7295C24.8128 21.7079 24.7334 21.6686 24.6593 21.6171C22.4673 20.0835 20.8433 19.5287 19.3557 19.5674C17.861 19.6067 16.4084 20.2539 14.6285 21.1156C12.609 22.0927 10.6572 23.0118 8.72191 23.9162L13.1652 33.8956L15.6607 32.6948C16.8625 32.1166 18.0999 32.0135 19.3836 32.3808L26.955 34.547C28.9478 35.117 31.5512 34.1135 33.6163 33.318L48.2837 27.7215C49.422 27.2868 50.2426 26.168 50.4555 25.0374C50.6073 24.2337 50.4496 23.4095 49.7618 22.8917C48.9003 22.2433 47.2609 22.0517 44.5703 22.8337L35.0761 25.5927C35.111 26.0116 35.0772 26.4427 34.9545 26.9154C34.3646 29.0014 32.2212 30.2257 30.0998 29.6909ZM40.5172 6.3686C40.6523 5.98492 41.0775 5.78165 41.4658 5.9158C41.8542 6.04936 42.0599 6.46936 41.9241 6.85304C41.3336 8.52545 39.731 9.65132 37.938 9.65132C35.6055 9.65132 33.7147 7.78327 33.7147 5.47881C33.7147 3.17434 35.6055 1.30629 37.938 1.30629C38.8375 1.30629 39.7144 1.59098 40.4383 2.11818C40.7703 2.35894 40.8421 2.81995 40.599 3.14798C40.3553 3.47602 39.8887 3.5469 39.5567 3.30673C39.0835 2.96229 38.525 2.78363 37.938 2.78363C36.4309 2.78363 35.2101 3.99034 35.2101 5.47881C35.2101 6.96786 36.4314 8.17398 37.938 8.17398C39.1001 8.17515 40.1341 7.45347 40.5172 6.3686ZM41.0935 3.35594C41.4125 3.09936 41.882 3.1474 42.1417 3.46255C42.4014 3.7777 42.3528 4.24164 42.0338 4.49821L38.4989 7.33397C38.1544 7.61046 37.6439 7.52904 37.4032 7.16292L36.1605 5.3347C35.9316 4.99671 36.0229 4.5398 36.365 4.31369C36.7071 4.08758 37.1696 4.17779 37.3985 4.51578L38.1924 5.68383L41.0935 3.35594ZM27.5028 4.03778C27.2965 3.68573 27.4181 3.23468 27.7744 3.03083C28.1307 2.82698 28.5873 2.94706 28.7936 3.29912L29.2063 4.00557L29.6189 3.29912C29.8253 2.94706 30.2818 2.82698 30.6381 3.03083C30.9945 3.23468 31.116 3.68573 30.9097 4.03778L30.4988 4.74072H31.3224C31.735 4.74072 32.07 5.0711 32.07 5.47939C32.07 5.88709 31.7356 6.21806 31.3224 6.21806H30.4988L30.9097 6.921C31.116 7.27305 30.9945 7.7241 30.6381 7.92795C30.2818 8.1318 29.8253 8.01172 29.6189 7.65967L29.2063 6.95321L28.7936 7.65967C28.5873 8.01172 28.1307 8.1318 27.7744 7.92795C27.4181 7.7241 27.2965 7.27305 27.5028 6.921L27.9137 6.21806H27.0902C26.6775 6.21806 26.3425 5.88768 26.3425 5.47939C26.3425 5.07169 26.6769 4.74072 27.0902 4.74072H27.9137L27.5028 4.03778ZM12.7584 4.03778C12.5521 3.68573 12.6736 3.23468 13.03 3.03083C13.3863 2.82698 13.8429 2.94706 14.0492 3.29912L14.4619 4.00557L14.8745 3.29912C15.0808 2.94706 15.5374 2.82698 15.8937 3.03083C16.2501 3.23468 16.3716 3.68573 16.1653 4.03778L15.7544 4.74072H16.5779C16.9906 4.74072 17.3256 5.0711 17.3256 5.47939C17.3256 5.88709 16.9912 6.21806 16.5779 6.21806H15.7544L16.1653 6.921C16.3716 7.27305 16.2501 7.7241 15.8937 7.92795C15.5374 8.1318 15.0808 8.01172 14.8745 7.65967L14.4619 6.95321L14.0492 7.65967C13.8429 8.01172 13.3863 8.1318 13.03 7.92795C12.6736 7.7241 12.5521 7.27305 12.7584 6.921L13.1693 6.21806H12.3452C11.9325 6.21806 11.5975 5.88768 11.5975 5.47939C11.5975 5.07169 11.9319 4.74072 12.3452 4.74072H13.1687L12.7584 4.03778ZM20.1306 4.03778C19.9243 3.68573 20.0459 3.23468 20.4022 3.03083C20.7585 2.82698 21.2151 2.94706 21.4214 3.29912L21.8341 4.00557L22.2467 3.29912C22.4531 2.94706 22.9096 2.82698 23.2659 3.03083C23.6223 3.23468 23.7438 3.68573 23.5375 4.03778L23.1266 4.74072H23.9501C24.3628 4.74072 24.6978 5.0711 24.6978 5.47939C24.6978 5.88709 24.3634 6.21806 23.9501 6.21806H23.1266L23.5375 6.921C23.7438 7.27305 23.6223 7.7241 23.2659 7.92795C22.9096 8.1318 22.4531 8.01172 22.2467 7.65967L21.8341 6.95321L21.4214 7.65967C21.2151 8.01172 20.7585 8.1318 20.4022 7.92795C20.0459 7.7241 19.9243 7.27305 20.1306 6.921L20.5415 6.21806H19.718C19.3053 6.21806 18.9703 5.88768 18.9703 5.47939C18.9703 5.07169 19.3047 4.74072 19.718 4.74072H20.5415L20.1306 4.03778ZM47.1447 6.62108C47.3801 6.42718 47.5301 6.13605 47.5301 5.81036V5.14784C47.5301 4.82273 47.3801 4.53101 47.1447 4.33712C47.5016 3.88548 48.0447 3.62247 48.6264 3.62247C49.6639 3.62247 50.5053 4.4531 50.5053 5.47881C50.5053 6.50392 49.6645 7.33514 48.6264 7.33514C48.0447 7.33573 47.5016 7.07271 47.1447 6.62108Z" fill="#2E3092"/>
</svg>
