<svg width="41" height="41" viewBox="0 0 41 41" fill="none" xmlns="http://www.w3.org/2000/svg">
<path d="M37.964 20H27.036C25.3626 20 24 21.3862 24 23.0886V37.9114C24 39.6138 25.3626 41 27.036 41H37.964C39.6374 41 41 39.6138 41 37.9114V23.0886C41 21.3862 39.6374 20 37.964 20ZM39.7843 37.9131C39.7843 38.9345 38.9681 39.7666 37.9623 39.7666H27.0342C26.0302 39.7666 25.2123 38.9362 25.2123 37.9131V23.0902C25.2123 22.0688 26.0285 21.2367 27.0342 21.2367H37.9623C38.9664 21.2367 39.7843 22.0671 39.7843 23.0902V37.9131Z" fill="#2E3092"/>
<path d="M36.1664 23H28.8336C27.8232 23 27 23.672 27 24.5C27 25.3266 27.8214 26 28.8336 26H36.1664C37.1768 26 38 25.328 38 24.5C38 23.6734 37.1786 23 36.1664 23ZM36.1664 24.9991H28.8336C28.4968 24.9991 28.2219 24.7741 28.2219 24.4986C28.2219 24.2231 28.4968 23.9981 28.8336 23.9981H36.1664C36.5032 23.9981 36.7781 24.2231 36.7781 24.4986C36.7781 24.7741 36.5032 24.9991 36.1664 24.9991Z" fill="#2E3092"/>
<path d="M29.2495 29H27.7505C27.3373 29 27 29.2233 27 29.5C27 29.7753 27.3352 30 27.7505 30H29.2495C29.6627 30 30 29.7767 30 29.5C30 29.2247 29.6648 29 29.2495 29Z" fill="#2E3092"/>
<path d="M32.4996 29H31.5004C31.2249 29 31 29.2233 31 29.5C31 29.7753 31.2235 30 31.5004 30H32.4996C32.7751 30 33 29.7767 33 29.5C33 29.2247 32.7765 29 32.4996 29Z" fill="#2E3092"/>
<path d="M37.2495 29H35.7505C35.3373 29 35 29.2233 35 29.5C35 29.7753 35.3352 30 35.7505 30H37.2495C37.6627 30 38 29.7767 38 29.5C38 29.2247 37.6648 29 37.2495 29Z" fill="#2E3092"/>
<path d="M29.2495 31H27.7505C27.3373 31 27 31.2233 27 31.5C27 31.7753 27.3352 32 27.7505 32H29.2495C29.6627 32 30 31.7767 30 31.5C30 31.2247 29.6648 31 29.2495 31Z" fill="#2E3092"/>
<path d="M32.4996 31H31.5004C31.2249 31 31 31.2233 31 31.5C31 31.7753 31.2235 32 31.5004 32H32.4996C32.7751 32 33 31.7767 33 31.5C33 31.2247 32.7765 31 32.4996 31Z" fill="#2E3092"/>
<path d="M37.2495 31H35.7505C35.3373 31 35 31.2233 35 31.5C35 31.7753 35.3352 32 35.7505 32H37.2495C37.6627 32 38 31.7767 38 31.5C38 31.2247 37.6648 31 37.2495 31Z" fill="#2E3092"/>
<path d="M29.2495 34H27.7505C27.3373 34 27 34.2233 27 34.5C27 34.7753 27.3352 35 27.7505 35H29.2495C29.6627 35 30 34.7767 30 34.5C30 34.2247 29.6648 34 29.2495 34Z" fill="#2E3092"/>
<path d="M32.4996 34H31.5004C31.2249 34 31 34.2233 31 34.5C31 34.7753 31.2235 35 31.5004 35H32.4996C32.7751 35 33 34.7767 33 34.5C33 34.2247 32.7765 34 32.4996 34Z" fill="#2E3092"/>
<path d="M37.2495 34H35.7505C35.3373 34 35 34.2233 35 34.5C35 34.7753 35.3352 35 35.7505 35H37.2495C37.6627 35 38 34.7767 38 34.5C38 34.2247 37.6648 34 37.2495 34Z" fill="#2E3092"/>
<path d="M29.2495 36H27.7505C27.3373 36 27 36.4466 27 37C27 37.5506 27.3352 38 27.7505 38H29.2495C29.6627 38 30 37.5534 30 37C30 36.4494 29.6648 36 29.2495 36Z" fill="#2E3092"/>
<path d="M32.4996 36H31.5004C31.2249 36 31 36.4466 31 37C31 37.5506 31.2235 38 31.5004 38H32.4996C32.7751 38 33 37.5534 33 37C33 36.4494 32.7765 36 32.4996 36Z" fill="#2E3092"/>
<path d="M37.2495 36H35.7505C35.3373 36 35 36.4466 35 37C35 37.5506 35.3352 38 35.7505 38H37.2495C37.6627 38 38 37.5534 38 37C38 36.4494 37.6648 36 37.2495 36Z" fill="#2E3092"/>
<path d="M34.8297 6.3336H31.6631V3.1668C31.6631 1.41955 30.2454 0 28.4964 0L3.16665 0.00178132C1.41948 0.00178132 0 1.41955 0 3.16858V28.4996C0 30.2469 1.4177 31.6664 3.16665 31.6664H6.33329V34.8332C6.33329 36.5804 7.75099 38 9.49994 38H22.7988V25.0693C22.7098 25.0373 22.6278 24.9928 22.5459 24.9482C22.2414 24.7772 22.1274 24.3979 22.2984 24.0862C22.3999 23.8956 22.5904 23.7763 22.7988 23.7638V23.4343C22.7988 20.9906 24.7865 19.0011 27.2318 19.0011H33.5653V17.8238C33.5653 17.4747 33.8503 17.1898 34.1993 17.1898C34.5484 17.1898 34.8334 17.4747 34.8334 17.8238V19.0011H38V9.50249C38 7.75524 36.5823 6.33569 34.8334 6.33569L34.8297 6.3336ZM9.49994 9.5004C9.49994 9.1513 9.7849 8.86634 10.134 8.86634H10.768C11.1171 8.86634 11.402 9.15131 11.402 9.5004C11.402 9.84948 11.1171 10.1345 10.768 10.1345H10.134C9.78489 10.1345 9.49994 9.84948 9.49994 9.5004ZM18.9981 34.8314H12.6646C12.3155 34.8314 12.0306 34.5464 12.0306 34.1974C12.0306 33.8483 12.3156 33.5633 12.6646 33.5633H18.9981C19.3472 33.5633 19.6321 33.8483 19.6321 34.1974C19.6321 34.5465 19.3472 34.8314 18.9981 34.8314ZM21.4612 28.7844L19.5609 32.5835C19.4593 32.799 19.2385 32.9326 18.9981 32.9326H12.6646C12.4241 32.9326 12.2015 32.799 12.1018 32.5835L10.2014 28.7844C10.107 28.6063 10.107 28.3926 10.2014 28.2145L15.2664 18.0816C15.4748 17.6577 16.1854 17.6577 16.3939 18.0816L21.4589 28.2145C21.5533 28.3926 21.5533 28.6063 21.4589 28.7844H21.4612ZM12.6666 9.5004C12.6666 9.1513 12.9515 8.86634 13.3006 8.86634H13.9346C14.2837 8.86634 14.5687 9.15131 14.5687 9.5004C14.5687 9.84948 14.2837 10.1345 13.9346 10.1345H13.3006C12.9515 10.1345 12.6666 9.84948 12.6666 9.5004ZM15.8332 9.5004C15.8332 9.1513 16.1182 8.86634 16.4673 8.86634H17.1013C17.4504 8.86634 17.7353 9.15131 17.7353 9.5004C17.7353 9.84948 17.4504 10.1345 17.1013 10.1345H16.4673C16.1182 10.1345 15.8332 9.84948 15.8332 9.5004ZM21.5822 22.9764C21.5697 22.9764 21.5501 22.9835 21.5377 22.9835C21.2082 22.9835 20.9304 22.7235 20.9036 22.3939C20.8965 22.3174 20.8965 22.2426 20.8965 22.166V21.0831C20.8965 20.7286 21.1815 20.449 21.5305 20.449C21.8796 20.449 22.1646 20.7268 22.1646 21.0831V22.166C22.1646 22.2105 22.1646 22.255 22.1717 22.2995C22.1966 22.6486 21.9313 22.9514 21.5822 22.9764ZM20.8983 18.5504V17.284C20.8983 16.9296 21.1832 16.6499 21.5323 16.6499C21.8814 16.6499 22.1663 16.9278 22.1663 17.284V18.5504C22.1663 18.8994 21.8814 19.1844 21.5323 19.1844C21.1832 19.1844 20.8983 18.8994 20.8983 18.5504ZM22.3355 13.7751C22.2216 14.028 22.1646 14.288 22.1646 14.5659V14.7493C22.1646 15.0984 21.8796 15.3834 21.5305 15.3834C21.1815 15.3834 20.8965 15.0984 20.8965 14.7493V14.5659C20.8965 14.1028 20.9909 13.6664 21.1815 13.2479C21.3275 12.9308 21.7015 12.7919 22.0239 12.938C22.3409 13.084 22.4798 13.458 22.3338 13.7733L22.3355 13.7751ZM24.9696 12.6672H24.0649C23.9705 12.6672 23.8814 12.6743 23.7924 12.6868C23.7603 12.6939 23.7354 12.6939 23.7033 12.6939C23.3934 12.6939 23.121 12.4659 23.0764 12.1489C23.0265 11.7998 23.267 11.4846 23.6143 11.4329C23.7603 11.4133 23.9117 11.4008 24.0631 11.4008H24.9679C25.3169 11.4008 25.6019 11.6858 25.6019 12.0349C25.6019 12.384 25.3169 12.669 24.9679 12.669L24.9696 12.6672ZM28.7703 12.6672H27.504C27.155 12.6672 26.87 12.3822 26.87 12.0331C26.87 11.684 27.155 11.3991 27.504 11.3991H28.7703C29.1194 11.3991 29.4044 11.684 29.4044 12.0331C29.4044 12.3822 29.1194 12.6672 28.7703 12.6672ZM30.3964 6.33342H9.49971C7.75254 6.33342 6.33306 7.75119 6.33306 9.50022V30.3979H3.16642C2.12095 30.3979 1.26606 29.543 1.26606 28.4975L1.26784 3.16643C1.26784 2.12091 2.12273 1.26598 3.1682 1.26598H28.498C29.5435 1.26598 30.3984 2.12091 30.3984 3.16643V6.33323L30.3964 6.33342ZM33.1445 12.4141C33.0501 12.6671 32.8025 12.8256 32.5496 12.8256C32.473 12.8256 32.4036 12.8131 32.3288 12.7882C32.1133 12.7062 31.8924 12.6671 31.6645 12.6671H31.3029C30.9538 12.6671 30.6689 12.3821 30.6689 12.033C30.6689 11.6839 30.9538 11.3989 31.3029 11.3989H31.6645C32.0438 11.3989 32.4178 11.4684 32.7723 11.5948C33.1018 11.7213 33.2656 12.0829 33.1463 12.4124L33.1445 12.4141ZM34.8293 15.2888C34.8293 15.6433 34.5444 15.9229 34.1953 15.9229C33.8462 15.9229 33.5613 15.6451 33.5613 15.2888V14.5675C33.5613 14.4286 33.5488 14.295 33.5167 14.1614C33.4473 13.8195 33.6628 13.4846 34.0047 13.408C34.3467 13.3386 34.6815 13.5541 34.7581 13.8961C34.8026 14.1169 34.8275 14.3396 34.8275 14.5676V15.2889L34.8293 15.2888Z" fill="#2E3092"/>
<path d="M4.33333 2H3.66667C3.29962 2 3 2.22332 3 2.5C3 2.77528 3.29776 3 3.66667 3H4.33333C4.70038 3 5 2.77668 5 2.5C5 2.22472 4.70224 2 4.33333 2Z" fill="#2E3092"/>
<path d="M7 3H8C8.55057 3 9 2.77668 9 2.5C9 2.22472 8.55337 2 8 2H7C6.44943 2 6 2.22332 6 2.5C6 2.77528 6.44663 3 7 3Z" fill="#2E3092"/>
<path d="M10.3333 3H10.6667C10.8502 3 11 2.77668 11 2.5C11 2.22472 10.8511 2 10.6667 2H10.3333C10.1498 2 10 2.22332 10 2.5C10 2.77528 10.1489 3 10.3333 3Z" fill="#2E3092"/>
<path d="M12 28.0677L13.4532 31H15.418V28.5493C14.7446 28.3085 14.2558 27.6587 14.2558 26.8951C14.2558 25.927 15.0405 25.1354 16 25.1354C16.9595 25.1354 17.7442 25.927 17.7442 26.8951C17.7442 27.6571 17.2554 28.3085 16.582 28.5493V31H18.5468L20 28.0677L16.0017 20L12.0033 28.0677H12Z" fill="#2E3092"/>
</svg>
