<svg width="47" height="76" viewBox="0 0 47 76" fill="none" xmlns="http://www.w3.org/2000/svg">
<path d="M2.33301 1.8457V74.5013L45.1818 38.1735L2.33301 1.8457Z" fill="#2E3092"/>
<path d="M2.33317 75.8504C2.13061 75.8504 1.92508 75.8167 1.73146 75.7443C1.15657 75.5348 0.78125 75.0458 0.78125 74.5026V1.84703C0.78125 1.30378 1.15657 0.814857 1.73146 0.605318C2.30635 0.39578 2.9706 0.504423 3.4174 0.88211L46.2662 37.2099C46.5641 37.4634 46.7339 37.8101 46.7339 38.1748C46.7339 38.5396 46.5641 38.8862 46.2662 39.1397L3.4174 75.4675C3.12251 75.7185 2.72934 75.8504 2.33317 75.8504ZM3.88507 5.04443V71.3026L42.9598 38.1722L3.88507 5.04184V5.04443Z" fill="white"/>
</svg>
