<svg width="46" height="76" viewBox="0 0 46 76" fill="none" xmlns="http://www.w3.org/2000/svg">
<path d="M1.58887 1.8457V74.5013L44.4377 38.1735L1.58887 1.8457Z" fill="#021553"/>
<path d="M1.58904 75.8504C1.38649 75.8504 1.18095 75.8167 0.987338 75.7443C0.412446 75.5348 0.0371094 75.0458 0.0371094 74.5026V1.84703C0.0371094 1.30378 0.412446 0.814857 0.987338 0.605318C1.56223 0.39578 2.22646 0.504423 2.67326 0.88211L45.5221 37.2099C45.82 37.4634 45.9897 37.8101 45.9897 38.1748C45.9897 38.5396 45.82 38.8862 45.5221 39.1397L2.67326 75.4675C2.37837 75.7185 1.98521 75.8504 1.58904 75.8504ZM3.14094 5.04443V71.3026L42.2157 38.1722L3.14094 5.04184V5.04443Z" fill="white"/>
</svg>
