<svg width="101" height="101" viewBox="0 0 101 101" fill="none" xmlns="http://www.w3.org/2000/svg">
<path fill-rule="evenodd" clipRule="evenodd" d="M34.8337 66.1675C27.8819 59.2154 15.942 64.1616 15.942 73.9933C15.942 83.825 27.8819 88.77 34.8337 81.8191C39.1547 77.4979 39.1547 70.4887 34.8337 66.1675ZM76.9742 54.7213C76.6051 55.0905 76.1612 55.3837 75.6682 55.5776V73.9933C75.6682 74.7468 75.0573 75.3589 74.3026 75.3589H54.0582V77.533C54.0582 77.5482 54.015 77.6404 54.0162 77.6404C53.5267 78.1101 48.5363 76.394 47.5831 79.7853C46.6906 82.9605 45.1241 84.7175 45.2993 86.1964C45.5283 88.131 48.6812 90.013 48.6812 90.5118L43.6335 95.6227C43.0774 96.1788 40.6617 90.8354 37.4609 92.6344C34.5591 94.2641 32.1924 94.3938 31.2801 95.5994L31.2836 95.6017C30.1435 97.1075 30.9752 100.61 30.6738 100.979L23.3634 101C22.902 100.519 24.6017 95.5176 21.2186 94.5667C18.0085 93.6648 16.2679 92.0819 14.761 92.2887C12.8616 92.5492 10.9808 95.6648 10.4913 95.6648L5.38059 90.6169C4.96472 90.2011 8.43536 88.2677 8.71338 86.2467H8.71221L8.36877 84.4441C6.73801 81.5411 6.61068 79.1778 5.40396 78.2631C3.9087 77.13 0.390169 77.9559 0.0245315 77.6568L0 70.3461C0.481286 69.8847 5.48222 71.5844 6.43195 68.2013C7.33377 64.9911 8.91664 63.2504 8.71105 61.7434C8.45054 59.8439 5.33503 57.9631 5.33503 57.4736L10.3827 52.3615C10.7986 51.9457 12.7319 55.4164 14.7528 55.6944L16.5553 55.3498C19.4582 53.719 21.8214 53.5917 22.7361 52.3849C23.8692 50.8896 23.0433 47.3709 23.3424 47.0053L30.6528 46.9843C31.1224 47.4738 29.4063 52.4643 32.7975 53.4176C35.9726 54.3101 37.7296 55.8767 39.2085 55.7015C41.143 55.4725 43.0249 52.3195 43.5237 52.3195L48.6356 57.3673C49.1916 57.9234 43.8484 60.3393 45.6474 63.5401C47.277 66.4408 47.4067 68.8088 48.6122 69.7212L48.6146 69.7176C49.7816 70.6008 52.0069 70.3029 53.9052 70.3029C54.1984 70.3029 54.0547 71.9256 54.0547 72.6265H72.9335V55.5765C71.9464 55.1909 71.1567 54.4012 70.7701 53.4141H77.8258C77.6366 53.9083 77.3434 54.3522 76.9742 54.7213ZM92.2142 46.5427L89.6536 43.982L91.5834 42.0509L94.144 44.6116L92.2142 46.5427ZM72.9359 4.45672V0H75.6671V4.45672H72.9359ZM101 28.0639H96.561V25.3326H100.999V28.0639H101ZM52.042 28.0639H47.6041V25.3326H52.042V28.0639ZM54.4578 44.6116L57.0044 42.0649L58.9342 43.9948L56.3876 46.5415L54.4578 44.6116ZM89.066 10.0022L92.2142 6.85389L94.144 8.78378L90.9958 11.9321L89.066 10.0022ZM57.606 11.9333L54.4578 8.78495L56.3876 6.85506L59.5358 10.0034L57.606 11.9333ZM72.9359 42.7729V27.3595C72.9359 25.5616 75.6671 25.5616 75.6671 27.3595V42.7729C77.7698 42.7729 79.9145 42.5147 81.5698 43.4084C84.2087 37.857 88.8253 33.2636 88.8253 26.717C88.8253 13.8153 73.1567 7.32351 64.0321 16.4472C61.4049 19.0745 59.7788 22.7065 59.7788 26.717C59.7788 33.266 64.3965 37.8594 67.0354 43.4095C68.6896 42.5147 70.8308 42.7729 72.9359 42.7729ZM79.0548 45.5041H69.5482C66.143 45.5041 66.143 50.6828 69.5482 50.6828H79.0548C79.7662 50.6828 80.4133 50.3908 80.8829 49.9212L80.8853 49.9235C82.6153 48.0018 81.1376 45.5041 79.0548 45.5041ZM27.0081 60.1956C39.2575 60.1956 45.436 75.0774 36.7635 83.749C28.0922 92.4207 13.2108 86.2432 13.2108 73.9933C13.2108 66.3742 19.3881 60.1956 27.0081 60.1956Z" fill="#2E3092"/>
</svg>
