<svg width="67" height="85" viewBox="0 0 67 85" fill="none" xmlns="http://www.w3.org/2000/svg">
<path d="M30.8906 42.3011L25 36.4105L19.1055 42.3011L30.8905 54.0861L48.5705 36.4101L42.676 30.5156L30.8906 42.3011Z" fill="#2E3092"/>
<path fill-rule="evenodd" clip-rule="evenodd" d="M41.3359 4.5742L33.332 0L25.3281 4.5742C20.2929 7.4531 14.5901 8.9687 8.7891 8.9687H0V38.9527C0 55.4017 8.8125 70.5857 23.094 78.7457L33.332 84.5973L43.57 78.7457C57.851 70.5855 66.664 55.4017 66.664 38.9527V8.9687H57.8749C52.0741 8.9687 46.3709 7.4531 41.3359 4.5742ZM29.4609 11.8086L33.332 9.5977L37.2031 11.8086C43.4961 15.4063 50.6211 17.3008 57.8751 17.3008H58.3321V38.9528C58.3321 52.4098 51.1212 64.8358 39.4371 71.5118L33.3316 75.0001L27.2261 71.5118C15.5421 64.836 8.33113 52.4098 8.33113 38.9528V17.3008H8.78816C16.0421 17.3008 23.1679 15.4063 29.4609 11.8086Z" fill="#2E3092"/>
</svg>
