<svg width="88" height="71" viewBox="0 0 88 71" fill="none" xmlns="http://www.w3.org/2000/svg">
<path d="M52.8072 0C52.3718 0 51.9478 0.156601 51.6155 0.48889L47.4294 4.67496C47.0895 5.01489 46.9406 5.41212 46.9406 5.86668C46.9406 6.32501 47.101 6.70314 47.4294 7.02779L51.6155 11.2445C52.2839 11.909 53.2999 11.909 53.9682 11.2445L58.1849 7.02779C58.8533 6.35939 58.8533 5.33956 58.1849 4.67506L53.9682 0.488988C53.636 0.156699 53.2426 0 52.8072 0ZM70.4112 3.91112C70.056 3.91112 69.674 4.19375 69.4029 4.73612L64.1473 15.2776L53.6362 20.5636C52.5514 21.106 52.5514 21.9463 53.6362 22.4887L64.1473 27.7442L69.4029 38.2857C69.9452 39.3704 70.8467 39.3704 71.3889 38.2857L76.7056 27.7442L87.1864 22.4887C88.2712 21.9463 88.2712 21.106 87.1864 20.5636L76.6753 15.3081L71.3892 4.73631C71.1181 4.19395 70.7664 3.91112 70.4112 3.91112ZM38.9317 27.3778C38.416 27.4007 37.9272 27.6299 37.5758 28.0157C37.2282 28.3976 37.0449 28.9056 37.0678 29.425C37.0945 29.9445 37.3237 30.4295 37.7056 30.7809C38.0914 31.1285 38.5994 31.3118 39.115 31.2889H46.1122L31.4416 45.9556H3.90731V39.1111H32.4194L36.3305 35.2H1.95175H1.95557C1.89446 35.1962 1.83335 35.1962 1.77224 35.2C0.763953 35.2955 -0.0037992 36.1434 1.41431e-05 37.1556V68.4445C1.41431e-05 69.5217 0.874667 70.4001 1.95557 70.4001H43.0262C44.1072 70.4001 44.9856 69.5216 44.9856 68.4445V37.9495L48.8967 34.0384V41.0662C48.8891 41.5895 49.0915 42.0937 49.4582 42.4641C49.8248 42.8385 50.329 43.0485 50.8523 43.0485C51.3756 43.0485 51.8759 42.8385 52.2426 42.4641C52.6131 42.0937 52.8155 41.5895 52.8079 41.0662V29.3329C52.8079 28.2519 51.9332 27.3773 50.8523 27.3773H39.115C39.0539 27.3735 38.9928 27.374 38.9317 27.3778ZM41.0744 41.8607V66.489H34.2299V48.7051L41.0744 41.8607Z" fill="#2E3092"/>
</svg>
