<svg width="78" height="79" viewBox="0 0 78 79" fill="none" xmlns="http://www.w3.org/2000/svg">
<path fillRule="evenodd" clipRule="evenodd" d="M22.826 72.0658L19.326 78.0517C19.2695 78.1474 19.2394 78.2564 19.2389 78.3675C19.2383 78.4786 19.2672 78.5878 19.3227 78.6841C19.3782 78.7805 19.4583 78.8604 19.5549 78.9159C19.6515 78.9714 19.761 79.0004 19.8725 79H58.1213C58.2328 79.0004 58.3423 78.9714 58.4389 78.9159C58.5355 78.8604 58.6156 78.7805 58.6711 78.6841C58.7266 78.5878 58.7555 78.4786 58.755 78.3675C58.7544 78.2564 58.7243 78.1474 58.6678 78.0517L55.1678 72.0658H22.826ZM42.1034 49.6802H35.8904V46.5745C33.8685 46.1734 31.9455 45.3799 30.231 44.239L28.0318 46.437L23.636 42.0559L25.8414 39.8579C24.6963 38.1492 23.8997 36.2327 23.4972 34.2175H20.3792V28.0306H23.4972C23.9003 26.0169 24.6968 24.1019 25.8414 22.3945L23.636 20.1992L28.0318 15.8172L30.2372 18.0153C31.9517 16.8741 33.8746 16.0802 35.8966 15.6789V12.5722H42.1096V15.6789C44.1315 16.0802 46.0545 16.8741 47.769 18.0153L49.962 15.8172L54.3578 20.1992L52.1524 22.3972C53.297 24.1045 54.0935 26.0195 54.4966 28.0332H57.6137V34.2263H54.4966C54.0941 36.2415 53.2975 38.1581 52.1524 39.8667L54.3578 42.0559L49.962 46.437L47.7566 44.239C46.0421 45.3799 44.1191 46.1734 42.0972 46.5745V49.682L42.1034 49.6802ZM38.9969 40.7754C40.9117 40.7754 42.7835 40.2095 44.3755 39.1492C45.9676 38.089 47.2085 36.582 47.9412 34.8189C48.6739 33.0557 48.8656 31.1157 48.492 29.244C48.1183 27.3723 47.1962 25.6531 45.8422 24.3037C44.4882 22.9543 42.7631 22.0355 40.8851 21.6633C39.007 21.2911 37.0605 21.4823 35.2915 22.2127C33.5225 22.9431 32.0106 24.1799 30.9469 25.7668C29.8832 27.3536 29.3156 29.2192 29.3158 31.1276C29.316 33.6864 30.3361 36.1403 32.1516 37.9496C33.9672 39.7589 36.4295 40.7754 38.9969 40.7754ZM65.0037 44.2178L62.9698 44.7466C64.9426 41.2964 66.1423 37.4613 66.4867 33.5051C66.8311 29.5488 66.312 25.5652 64.965 21.8279C63.6179 18.0906 61.475 14.6883 58.6834 11.8548C55.8917 9.02125 52.5177 6.82374 48.793 5.41326C48.4825 5.30591 48.1422 5.32364 47.8446 5.46267C47.547 5.60171 47.3156 5.85106 47.1997 6.15761C47.0839 6.46415 47.0927 6.80367 47.2243 7.10384C47.3559 7.40401 47.5999 7.64111 47.9043 7.76462C51.2585 9.03809 54.2995 11.0139 56.8222 13.5587C59.3448 16.1035 61.2903 19.1581 62.5274 22.5162C63.7644 25.8744 64.2642 29.4579 63.993 33.025C63.7219 36.5921 62.686 40.0597 60.9554 43.1937L60.7246 41.3306C60.7045 41.1665 60.6522 41.008 60.5707 40.8641C60.4891 40.7202 60.3799 40.5937 60.2493 40.4919C60.1187 40.39 59.9693 40.3148 59.8095 40.2705C59.6497 40.2263 59.4828 40.2138 59.3182 40.2338C59.1536 40.2538 58.9945 40.306 58.8501 40.3872C58.7058 40.4685 58.5788 40.5773 58.4767 40.7075C58.3745 40.8377 58.299 40.9866 58.2546 41.1459C58.2101 41.3051 58.1976 41.4715 58.2177 41.6355L58.8791 46.9384C58.9017 47.1156 58.9617 47.2859 59.0553 47.4381C59.1488 47.5904 59.2738 47.7211 59.4219 47.8216C59.5699 47.9221 59.7377 47.9901 59.9142 48.021C60.0906 48.052 60.2716 48.0453 60.4452 48.0013L65.6324 46.6494C65.7924 46.608 65.9427 46.5357 66.0747 46.4365C66.2067 46.3373 66.3177 46.2132 66.4016 46.0712C66.4854 45.9292 66.5404 45.7721 66.5633 45.609C66.5863 45.4458 66.5767 45.2798 66.5353 45.1203C66.4938 44.9608 66.4212 44.811 66.3217 44.6795C66.2222 44.5479 66.0976 44.4372 65.9551 44.3537C65.8127 44.2701 65.6551 44.2153 65.4914 44.1925C65.3277 44.1696 65.161 44.1791 65.001 44.2204L65.0037 44.2178ZM54.8459 50.4893C52.0632 52.7506 48.8259 54.3901 45.3527 55.2971C41.8795 56.2041 38.2514 56.3573 34.7137 55.7464C31.1759 55.1356 27.811 53.7749 24.8463 51.7563C21.8817 49.7378 19.3864 47.1084 17.5292 44.0459L19.2712 44.781C19.4246 44.8514 19.5907 44.8903 19.7595 44.8953C19.9283 44.9004 20.0964 44.8716 20.2538 44.8106C20.4112 44.7495 20.5546 44.6575 20.6756 44.54C20.7966 44.4226 20.8926 44.282 20.9579 44.1268C21.0232 43.9716 21.0565 43.8048 21.0558 43.6365C21.0551 43.4682 21.0204 43.3017 20.9538 43.1471C20.8871 42.9924 20.7899 42.8527 20.668 42.7362C20.546 42.6198 20.4018 42.529 20.2439 42.4693L15.3061 40.3858C15.1408 40.3167 14.9627 40.2834 14.7836 40.2884C14.6044 40.2933 14.4284 40.3363 14.2673 40.4145C14.1061 40.4926 13.9636 40.6042 13.8492 40.7416C13.7348 40.8791 13.6511 41.0393 13.6038 41.2116L12.1845 46.3647C12.0968 46.6856 12.1406 47.0281 12.3063 47.3169C12.472 47.6056 12.7459 47.8169 13.0679 47.9044C13.3899 47.9918 13.7336 47.9481 14.0233 47.783C14.313 47.6179 14.5251 47.3449 14.6128 47.0239L15.1672 45.011C17.1781 48.4389 19.9101 51.3921 23.1752 53.6675C26.4404 55.9429 30.1613 57.4865 34.082 58.1922C38.0028 58.8978 42.0304 58.7488 45.8878 57.7553C49.7453 56.7618 53.341 54.9475 56.4279 52.437C56.687 52.2266 56.8517 51.9223 56.8857 51.5909C56.9197 51.2595 56.8203 50.9282 56.6092 50.6699C56.3981 50.4117 56.0927 50.2475 55.7602 50.2136C55.4277 50.1798 55.0953 50.2789 54.8362 50.4893H54.8459ZM14.244 35.127C14.0326 33.8043 13.9267 32.4669 13.9275 31.1276C13.9273 24.5881 16.4997 18.3093 21.0923 13.6389C25.685 8.96851 31.9319 6.27889 38.492 6.1474L36.9949 7.27373C36.8627 7.3732 36.7515 7.49765 36.6676 7.63995C36.5837 7.78226 36.5288 7.93964 36.5059 8.10311C36.4831 8.26658 36.4927 8.43295 36.5344 8.5927C36.576 8.75245 36.6488 8.90246 36.7486 9.03417C36.8484 9.16587 36.9733 9.2767 37.1161 9.36031C37.2589 9.44393 37.4168 9.4987 37.5808 9.52149C37.7448 9.54428 37.9117 9.53465 38.072 9.49315C38.2323 9.45165 38.3828 9.37909 38.515 9.27961L42.7931 6.05927C42.9361 5.95156 43.0545 5.81468 43.1402 5.65777C43.2259 5.50085 43.277 5.32752 43.2902 5.14934C43.3033 4.97117 43.2781 4.79224 43.2164 4.62453C43.1546 4.45681 43.0576 4.30416 42.932 4.17677L39.164 0.374751C39.0479 0.257221 38.9097 0.163637 38.7573 0.0993439C38.6049 0.0350503 38.4412 0.00130564 38.2757 3.7145e-05C38.1102 -0.00123135 37.9461 0.0300008 37.7927 0.0919505C37.6393 0.1539 37.4997 0.245354 37.3818 0.361091C37.2638 0.476828 37.1699 0.61458 37.1054 0.766484C37.0409 0.918388 37.0071 1.08147 37.0058 1.24641C37.0045 1.41136 37.0358 1.57494 37.098 1.72781C37.1602 1.88069 37.2519 2.01986 37.3681 2.13739L38.8439 3.62594C34.8601 3.64672 30.928 4.52733 27.3183 6.20718C23.7085 7.88704 20.5067 10.3263 17.933 13.3571C15.3594 16.3879 13.475 19.9384 12.4096 23.7643C11.3441 27.5902 11.1228 31.6008 11.761 35.5201C11.7832 35.686 11.8385 35.8458 11.9237 35.9901C12.0088 36.1343 12.1221 36.2602 12.2568 36.3602C12.3915 36.4602 12.5448 36.5323 12.7079 36.5724C12.871 36.6124 13.0405 36.6195 13.2063 36.5933C13.3722 36.5671 13.5312 36.5081 13.6738 36.4197C13.8165 36.3313 13.9399 36.2154 14.037 36.0788C14.134 35.9422 14.2026 35.7876 14.2388 35.6241C14.2749 35.4606 14.2779 35.2916 14.2476 35.127H14.244ZM73.9261 12.5722H62.6506C65.8924 16.6844 68.0014 21.5685 68.7693 26.7418C69.5371 31.9151 68.9371 37.1986 67.0287 42.07C67.7145 42.4156 68.2784 42.9612 68.6453 43.6341C69.0123 44.307 69.165 45.0754 69.083 45.8369C69.001 46.5984 68.6882 47.317 68.1863 47.897C67.6845 48.477 67.0173 48.8909 66.2735 49.0836L62.2942 50.1191C59.4522 53.5845 55.8684 56.3724 51.8053 58.2786C47.7422 60.1848 43.3026 61.1609 38.812 61.1356C34.3213 61.1102 29.8931 60.084 25.8519 58.1321C21.8107 56.1802 18.2588 53.352 15.4564 49.8547C14.8136 50.2711 14.059 50.4827 13.2927 50.4617C12.5264 50.4406 11.7847 50.1878 11.1659 49.7368C10.5471 49.2858 10.0806 48.6579 9.82818 47.9365C9.5758 47.2151 9.54949 46.4342 9.75276 45.6975L10.8325 41.7915C8.99042 36.9493 8.43555 31.7147 9.22171 26.5957C10.0079 21.4767 12.1083 16.6472 15.3193 12.5758H4.0677C2.99017 12.5799 1.95797 13.0084 1.19603 13.7678C0.434098 14.5272 0.00419187 15.5559 0 16.6298V62.752H78V16.6307C77.9958 15.556 77.5653 14.5266 76.8024 13.7671C76.0395 13.0076 75.0062 12.5797 73.9279 12.5766L73.9261 12.5722ZM78 65.2699V65.4893C77.9958 66.564 77.5653 67.5934 76.8024 68.353C76.0395 69.1125 75.0062 69.5404 73.9279 69.5434H4.0677C2.99017 69.5392 1.95797 69.1108 1.19603 68.3514C0.434098 67.592 0.00419187 66.5633 0 65.4893V65.2699H78Z" fill="#2E3092"/>
</svg>
