<svg width="86" height="82" viewBox="0 0 86 82" fill="none" xmlns="http://www.w3.org/2000/svg">
<path fillRule="evenodd" clipRule="evenodd" d="M54.0857 7.64405L37.3037 1.38834C37.0513 1.2927 36.799 1.24488 36.5552 1.24488C36.3072 1.24488 36.0591 1.2927 35.8068 1.38834L2.5505 13.7871C2.16131 13.9349 1.84055 14.161 1.60533 14.4479C1.37011 14.7392 1.21186 15.1 1.14771 15.5173C-1.96585 35.3625 1.53262 48.6216 8.29844 58.5119C15.0942 68.4498 25.2775 75.1142 35.3874 81.6435C35.7552 81.8826 36.1572 82 36.555 82C36.9527 82 37.3547 81.8826 37.7225 81.6435C46.4087 76.0355 55.1505 70.3231 61.7328 62.5462C67.7673 55.4211 72.0527 46.4871 72.9375 34.1584C72.1292 34.2714 71.3081 34.3279 70.4698 34.3279C70.1918 34.3279 69.9181 34.3192 69.6444 34.3062C69.251 39.2882 68.216 44.0527 66.3598 48.5958C64.1573 53.9995 60.8 59.0814 55.9972 63.8292C53.5381 66.2593 50.8779 68.4677 48.1151 70.5369C45.3694 72.5932 42.5296 74.5103 39.6984 76.371C39.2964 76.6361 38.8944 76.897 38.4923 77.1578H38.488L37.2777 77.9447L36.5549 78.4142L35.8278 77.9447C32.5818 75.845 29.3058 73.6974 26.1495 71.3977C22.9633 69.072 19.8969 66.5853 17.1084 63.8291C10.4879 57.2865 6.62174 50.1182 4.72665 42.3402C2.84481 34.6194 2.92189 26.3423 4.18777 17.517L4.30325 16.704L5.06024 16.4215L36.0885 4.85288H37.0166L52.9052 10.7782C53.2088 9.69136 53.6024 8.64388 54.0857 7.64405ZM67.1944 21.6766L63.1315 16.5903C62.3574 15.6209 62.5028 14.1689 63.4565 13.382C64.4102 12.5952 65.8387 12.743 66.6128 13.7168L68.9479 16.6381L74.3281 9.90422C75.1022 8.93478 76.5307 8.78264 77.4844 9.57382C78.4381 10.3607 78.5878 11.8083 77.8094 12.7821L70.7314 21.6374C70.6159 21.7809 70.4833 21.9113 70.3379 22.0243C69.3842 22.7981 67.9642 22.6417 67.1944 21.6766ZM70.4662 31.5796C61.887 31.5796 54.9323 24.5109 54.9323 15.7898C54.9323 7.06924 61.8864 0 70.4662 0C79.0454 0 86 7.06868 86 15.7898C86 24.5104 79.0459 31.5796 70.4662 31.5796ZM36.5387 39.4221C37.9928 39.4221 39.1731 40.6219 39.1731 42.0999C39.1731 42.9259 38.8053 43.6606 38.228 44.1562C38.104 44.2606 38.0526 44.4127 38.0868 44.5736L39.4554 50.9424C39.4811 51.0728 39.4554 51.1945 39.3742 51.2988C39.2929 51.4032 39.1774 51.4597 39.0491 51.4597H34.0282C33.8956 51.4597 33.7844 51.4032 33.7032 51.2988C33.6219 51.1945 33.592 51.0728 33.6219 50.9424L34.9905 44.5736C35.0247 44.4127 34.9734 44.2606 34.8493 44.1562C34.272 43.665 33.9042 42.9259 33.9042 42.0999C33.9042 40.6219 35.0846 39.4221 36.5387 39.4221ZM31.0388 26.9843C31.0388 23.9108 33.515 21.3938 36.5387 21.3938C39.5624 21.3938 42.0386 23.9108 42.0386 26.9843V34.153H31.0386L31.0388 26.9843ZM22.4296 36.2049C22.4296 35.079 23.4432 34.153 24.6877 34.153H26.4711V26.9843C26.4711 21.3546 31.0003 16.7509 36.5387 16.7509C42.0771 16.7509 46.6062 21.3546 46.6062 26.9843V34.153H48.3897C49.6299 34.153 50.6478 35.0746 50.6478 36.2049V54.6679C50.6478 55.7938 49.6299 56.7198 48.3897 56.7198H24.6882C23.4479 56.7198 22.43 55.7982 22.43 54.6679L22.4296 36.2049ZM54.117 61.8661C51.7605 64.1963 49.1944 66.3264 46.5214 68.3262C43.8356 70.3389 41.0386 72.23 38.2415 74.0601L37.0354 74.8513L36.5522 75.1687C33.5841 73.2472 30.6031 71.2779 27.7249 69.1739C24.6413 66.9264 21.6818 64.5223 18.9916 61.8661C12.7603 55.7104 9.12508 48.9765 7.34999 41.6859C5.61793 34.5825 5.64355 26.9144 6.75124 18.7191L36.5566 7.60744L52.3718 13.5067C52.282 14.2544 52.2349 15.0196 52.2349 15.7934C52.2349 24.8096 58.5732 32.3255 66.9684 33.987C66.6006 38.7255 65.6255 43.2467 63.8721 47.551C61.7978 52.6156 58.6419 57.3932 54.117 61.8661Z" fill="#2E3092"/>
</svg>
