<svg width="81" height="81" viewBox="0 0 81 81" fill="none" xmlns="http://www.w3.org/2000/svg">
<path fill-rule="evenodd" clipRule="evenodd" d="M7.96658 33.3176L7.68096 33.575L4.72179 36.1978L6.29916 39.8256L6.93473 41.2825L6.85239 40.4202L15.3298 36.728L17.6778 39.3791C18.3031 39.2976 18.9309 39.2452 19.5614 39.2221C17.1422 36.2963 15.7638 32.6492 15.6428 28.8543C15.5218 25.0594 16.6651 21.3319 18.893 18.2579C21.1208 15.1838 24.3069 12.9376 27.9502 11.8723C31.5936 10.807 35.4875 10.9831 39.0199 12.3729C42.5522 13.7627 45.5227 16.2874 47.4641 19.55C49.4056 22.8126 50.208 26.628 49.7451 30.3965C49.2823 34.165 47.5804 37.6728 44.9072 40.3683C42.234 43.0638 38.7409 44.7942 34.9773 45.2874C35.4225 45.7336 35.8453 46.1994 36.2459 46.685L39.7737 46.344L43.4598 54.8211L42.8165 55.395L44.2729 54.7606L47.8986 53.1828L47.5126 49.2435L47.4791 48.8625C49.9796 47.0745 52.1316 44.8434 53.8285 42.2798L54.2067 42.3017L58.1553 42.5437L59.604 38.8604L61.0514 35.1798L57.9983 32.6677L57.705 32.427C58.2085 29.3942 58.1527 26.2948 57.5403 23.282L57.8246 23.0246L60.7838 20.4019L59.2077 16.7791L57.6278 13.1525L53.6921 13.5386L53.3061 13.5759C51.5202 11.0739 49.2905 8.92078 46.7278 7.22359L46.7496 6.84652L46.9889 2.8969L43.3093 1.4491L39.6283 0L37.1195 3.04747L36.8802 3.33832C33.8482 2.83375 30.7493 2.89002 27.7376 3.50434L27.4803 3.21992L24.8583 0.259961L21.2313 1.84032L17.6044 3.42069L17.9904 7.35744L18.0252 7.73708C15.5264 9.52398 13.3762 11.7537 11.681 14.3159L11.304 14.294L7.35545 14.0534L5.90675 17.7353L4.45933 21.4173L7.51241 23.9319L7.80576 24.1726C7.3009 27.2053 7.35672 30.305 7.97044 33.3176H7.96658ZM74.073 14.2773C74.9463 14.2773 75.8 14.5364 76.5262 15.0217C77.2523 15.507 77.8183 16.1968 78.1525 17.0039C78.4867 17.8109 78.5741 18.699 78.4037 19.5558C78.2333 20.4125 77.8128 21.1995 77.1953 21.8172C76.5778 22.4349 75.791 22.8556 74.9344 23.026C74.0779 23.1964 73.1901 23.109 72.3832 22.7747C71.5764 22.4404 70.8868 21.8743 70.4016 21.1479C69.9164 20.4216 69.6574 19.5676 69.6574 18.6941C69.6574 17.5227 70.1226 16.3993 70.9507 15.571C71.7788 14.7427 72.9019 14.2773 74.073 14.2773ZM70.8102 31.7938C71.3675 31.7936 71.9123 31.9586 72.3758 32.2681C72.8393 32.5776 73.2007 33.0176 73.4141 33.5325C73.6276 34.0474 73.6837 34.6141 73.5752 35.1608C73.4668 35.7076 73.1986 36.2099 72.8048 36.6042C72.4109 36.9986 71.909 37.2672 71.3624 37.3762C70.8159 37.4852 70.2494 37.4297 69.7344 37.2166C69.2195 37.0035 68.7792 36.6425 68.4694 36.1791C68.1596 35.7158 67.9941 35.171 67.9938 34.6135C67.9937 34.2434 68.0664 33.8769 68.2078 33.5349C68.3493 33.1929 68.5567 32.8821 68.8182 32.6203C69.0797 32.3584 69.3902 32.1507 69.732 32.0089C70.0738 31.8671 70.4402 31.794 70.8102 31.7938ZM50.1424 67.4627C49.7851 65.7119 49.7524 63.9103 50.0459 62.1476L49.8773 62.0086L48.1018 60.5454L48.9433 58.4065L49.786 56.265L52.08 56.4053L52.3 56.4169C53.2868 54.9285 54.5373 53.6331 55.9899 52.5947L55.9693 52.3746L55.7468 50.0838L57.8555 49.1663L59.9629 48.2487L61.4875 49.9706L61.6342 50.1366C63.385 49.7792 65.1865 49.7465 66.9491 50.0401L67.0894 49.8702L68.5484 48.0904L70.6892 48.9307L72.8288 49.7724L72.6899 52.0799L72.677 52.2974C74.1659 53.2853 75.4617 54.537 76.5008 55.9909L76.7221 55.9703L79.0096 55.7477L79.9283 57.857L80.8456 59.965L79.1241 61.4836L78.9595 61.6303C79.3142 63.3818 79.3469 65.1833 79.056 66.9466L79.2245 67.0856L81 68.5476L80.1586 70.689L79.3158 72.8279L77.0219 72.6889L76.8018 72.6761C75.8151 74.1656 74.5641 75.4619 73.1106 76.5009L73.1312 76.7209L73.3525 79.0104L71.2451 79.928L69.1363 80.8468L67.6117 79.1249L67.465 78.9589C65.7146 79.315 63.9137 79.3477 62.1514 79.0554L62.0125 79.224L60.5496 81L58.4113 80.1571L56.2717 79.3167L56.4106 77.0208L56.4248 76.802C54.9334 75.8155 53.6353 74.5641 52.5946 73.1098L52.3746 73.1304L50.0858 73.3517L49.1684 71.2424L48.2498 69.1344L49.9713 67.6094L50.1372 67.4627H50.1424ZM55.2887 60.8993C56.01 59.0676 57.2579 57.491 58.8749 56.3688C60.4918 55.2465 62.4051 54.629 64.3729 54.5944C66.3406 54.5597 68.2745 55.1094 69.9299 56.1739C71.5854 57.2385 72.8881 58.7702 73.6734 60.5753C74.4587 62.3803 74.6913 64.3778 74.3418 66.3151C73.9923 68.2524 73.0764 70.0425 71.7099 71.4592C70.3433 72.8759 68.5876 73.8554 66.6645 74.2741C64.7415 74.6927 62.7375 74.5316 60.906 73.8112C59.6903 73.332 58.5808 72.6179 57.6409 71.7098C56.7011 70.8017 55.9492 69.7173 55.4283 68.5186C54.9074 67.3199 54.6277 66.0302 54.6051 64.7234C54.5824 63.4165 54.8174 62.1179 55.2965 60.9019L55.2887 60.8993ZM2.52429 63.4474C2.08246 61.2815 2.04234 59.0528 2.40593 56.8724L2.19493 56.6987L0 54.8906L1.04085 52.2433L2.08171 49.5961L4.92122 49.7673L5.1914 49.784C6.41244 47.9415 7.95992 46.3378 9.75752 45.0519L9.73178 44.7791L9.45774 41.9478L12.0657 40.8102L14.6736 39.6751L16.5584 41.8037L16.7411 42.0096C18.9065 41.568 21.1346 41.5284 23.3143 41.8925L23.488 41.6801L25.2957 39.4846L27.9435 40.527L30.5887 41.5682L30.4163 44.4071L30.4009 44.6787C32.2434 45.8995 33.8465 47.448 35.1304 49.2473L35.4032 49.2203L38.2337 48.9449L39.3684 51.5548L40.5032 54.1621L38.3778 56.0527L38.1732 56.2354C38.6131 58.4011 38.6532 60.629 38.2916 62.8091L38.5013 62.9841L40.6962 64.7923L39.6566 67.4382L38.6145 70.088L35.775 69.9143L35.5035 69.8989C34.2829 71.7417 32.7353 73.3455 30.9374 74.6309L30.9631 74.9025L31.2385 77.7337L28.6305 78.8675L26.0226 80.0052L24.1365 77.874L23.9564 77.6694C21.7905 78.1105 19.5623 78.151 17.3819 77.7891L17.2082 77.9976L15.4005 80.1931L12.754 79.1532L10.1075 78.1121L10.2786 75.2731L10.2966 75.0003C8.45306 73.7804 6.84911 72.2323 5.56451 70.4329L5.29176 70.4587L2.46125 70.7328L1.32648 68.1255L0.190417 65.5168L2.31973 63.6315L2.52558 63.4487L2.52429 63.4474ZM8.89035 55.332C9.78177 53.0653 11.3251 51.114 13.3253 49.7248C15.3255 48.3355 17.6926 47.5708 20.1273 47.5273C22.562 47.4838 24.9549 48.1634 27.0034 49.4803C29.0519 50.7972 30.6639 52.6922 31.6357 54.9255C32.6075 57.1589 32.8953 59.6304 32.4628 62.0274C32.0303 64.4244 30.8969 66.6392 29.2059 68.3919C27.5149 70.1445 25.3422 71.3562 22.9628 71.8737C20.5833 72.3911 18.1038 72.1912 15.838 71.299C12.8005 70.1024 10.3624 67.7483 9.05962 64.7542C7.75682 61.76 7.69593 58.371 8.89035 55.332ZM18.7276 50.1109C20.4886 49.8162 22.2965 50.006 23.958 50.66C25.6194 51.314 27.0718 52.4076 28.1597 53.8237L25.8695 56.6022L22.1899 55.1544L18.5089 53.7066L18.7276 50.1109Z" fill="#2E3092"/>
</svg>
