<svg width="259" height="286" viewBox="0 0 259 286" fill="none" xmlns="http://www.w3.org/2000/svg">
<path d="M259 143.173C259 221.929 195.036 286.006 116.411 286.006C68.8064 286.006 26.5733 262.515 0.665064 226.49C3.69122 221.803 6.46683 216.952 8.96057 211.936C9.61434 210.658 10.2368 209.368 10.8397 208.069C20.0395 188.343 25.1797 166.354 25.1797 143.177C25.1797 119.999 20.0982 98.2809 11.008 78.6527C10.5226 77.5938 10.0254 76.5506 9.50865 75.5035C9.39121 75.2604 9.26593 75.0172 9.14066 74.7741C8.39293 73.2525 7.61387 71.7583 6.81134 70.2641C5.85612 68.4993 4.8735 66.7502 3.85173 65.0286C2.81822 63.2795 1.75338 61.5579 0.657227 59.8598C25.3793 25.4898 64.966 2.52031 109.896 0.492777C112.053 0.398656 114.222 0.34375 116.403 0.34375H116.571C118.669 0.34375 120.764 0.394734 122.843 0.492777C198.493 3.87722 258.992 66.5855 258.992 143.177L259 143.173Z" fill="url(#paint0_linear_11156_420)"/>
<defs>
<linearGradient id="paint0_linear_11156_420" x1="129.829" y1="0.34375" x2="129.829" y2="286.006" gradientUnits="userSpaceOnUse">
<stop offset="0.264423" stopColor="#2E3092"/>
<stop offset="1" stopColor="#BA0007"/>
</linearGradient>
</defs>
</svg>
