<svg width="286" height="286" viewBox="0 0 286 286" fill="none" xmlns="http://www.w3.org/2000/svg">
<path d="M285.167 143.17C285.167 169.889 277.803 194.917 264.998 216.33C263.941 218.11 262.833 219.867 261.694 221.605C260.606 223.26 259.486 224.883 258.331 226.487C232.423 262.512 190.19 286.003 142.586 286.003C63.9642 285.999 0 221.926 0 143.17C0 68.9949 56.7296 7.84742 129.013 0.976562C132.755 7.31799 136.94 13.3614 141.532 19.0714C142.515 20.2989 143.513 21.5146 144.543 22.7029C169.328 51.7393 204.686 71.4421 244.582 75.7912C246.093 75.952 247.608 76.1011 249.135 76.2187C249.178 76.2187 249.221 76.2265 249.268 76.2265C251.183 76.3795 253.117 76.4932 255.062 76.5717C257.11 76.654 259.165 76.6972 261.236 76.6972H261.287C263.761 76.6972 266.227 76.6383 268.674 76.5207C279.201 96.4313 285.171 119.114 285.171 143.17H285.167Z" fill="url(#paint0_linear_11156_419)"/>
<defs>
<linearGradient id="paint0_linear_11156_419" x1="142.586" y1="0.976562" x2="142.586" y2="286.003" gradientUnits="userSpaceOnUse">
<stop offset="0.264423" stopColor="#2E3092"/>
<stop offset="1" stopColor="#BA0007"/>
</linearGradient>
</defs>
</svg>
