<svg width="286" height="286" viewBox="0 0 286 286" fill="none" xmlns="http://www.w3.org/2000/svg">
<path d="M285.872 142.833C285.872 166.818 279.941 189.443 269.469 209.306H269.41C261.871 209.306 254.456 209.851 247.202 210.918C245.534 211.153 243.874 211.424 242.23 211.718C206.687 218.103 175.345 236.778 152.776 263.171C151.668 264.449 150.596 265.744 149.547 267.061C148.681 268.136 147.836 269.222 146.998 270.328C145.851 271.842 144.731 273.379 143.643 274.94C142.504 276.56 141.404 278.191 140.331 279.854C139.133 281.713 137.966 283.599 136.851 285.517C89.3992 283.399 47.91 257.935 23.5716 220.346C22.4128 218.55 21.2892 216.734 20.2166 214.887C19.1674 213.114 18.1613 211.306 17.1982 209.483C6.67128 189.572 0.701172 166.889 0.701172 142.833C0.705087 64.077 64.6654 0 143.283 0C221.9 0 285.872 64.077 285.872 142.833Z" fill="#2E3092"/>
</svg>
