<svg width="46" height="46" viewBox="0 0 46 46" fill="none" xmlns="http://www.w3.org/2000/svg">
<path d="M43.4548 2.96152H42.7721C42.7721 1.84049 41.8516 0.923828 40.726 0.923828H25.7263C24.6006 0.923828 23.6801 1.84049 23.6801 2.96152V3.64137C23.6801 4.01567 23.3733 4.32121 22.9975 4.32121C22.6216 4.32121 22.3148 4.01566 22.3148 3.64137V2.96152C22.3148 1.84049 21.3944 0.923828 20.2687 0.923828L5.27292 0.925738C4.14727 0.925738 3.22681 1.8424 3.22681 2.96343H2.54416C1.4185 2.96343 0.498047 3.88009 0.498047 5.00112V32.8409C0.498047 33.9619 1.4185 34.8786 2.54416 34.8786H19.59C19.9658 34.8786 20.2726 34.573 20.2726 34.1987C20.2726 33.8244 19.9658 33.5189 19.59 33.5189L2.54416 33.517C2.16831 33.517 1.8615 33.2114 1.8615 32.8371L1.86342 4.9993C1.86342 4.625 2.17023 4.31945 2.54607 4.31945H3.22873V30.1215C3.22873 31.2426 4.14919 32.1592 5.27484 32.1592H20.2746C20.6504 32.1592 20.9572 32.4648 20.9572 32.8391C20.9572 33.7214 21.5306 34.4757 22.3206 34.7545C22.3283 34.2313 22.3609 33.7233 22.4357 33.2191C22.3609 33.1103 22.3206 32.9823 22.3206 32.8391L22.3168 5.56253C22.7387 5.71149 23.2584 5.71149 23.6802 5.56253V29.2947C24.5048 27.6848 25.6841 26.2792 27.1166 25.1926C27.1913 24.9004 27.4579 24.6904 27.7704 24.6904H27.8184C28.6641 24.127 29.5845 23.6725 30.5586 23.3326H27.7704C27.3946 23.3326 27.0878 23.027 27.0878 22.6527C27.0878 22.2784 27.3946 21.9729 27.7704 21.9729H38.6799C39.0558 21.9729 39.3626 22.2784 39.3626 22.6527C39.3626 23.027 39.0557 23.3326 38.6799 23.3326H38.6185C40.166 23.8692 41.5774 24.7114 42.7702 25.777L42.7721 4.31919H43.4547C43.8306 4.31919 44.1374 4.62475 44.1374 4.99904V27.2093C44.6628 27.8547 45.1192 28.5461 45.5008 29.2947L45.4989 4.99933C45.4989 3.87831 44.5784 2.96164 43.4528 2.96164L43.4548 2.96152ZM6.63657 19.9372C6.63657 19.5629 6.94339 19.2574 7.31923 19.2574H14.1384C14.5143 19.2574 14.8211 19.5629 14.8211 19.9372C14.8211 20.3115 14.5143 20.6171 14.1384 20.6171H7.31923C6.94338 20.6171 6.63657 20.3115 6.63657 19.9372ZM8.68076 24.0125C8.68076 23.6382 8.98758 23.3327 9.36342 23.3327H11.4095C11.7854 23.3327 12.0922 23.6382 12.0922 24.0125C12.0922 24.3868 11.7854 24.6924 11.4095 24.6924H9.36342C8.98757 24.6924 8.68076 24.3868 8.68076 24.0125ZM15.5 28.7639H10.727C10.3512 28.7639 10.0444 28.4584 10.0444 28.0841C10.0444 27.7098 10.3512 27.4042 10.727 27.4042H15.5C15.8758 27.4042 16.1826 27.7098 16.1826 28.0841C16.1826 28.4584 15.8758 28.7639 15.5 28.7639ZM15.5 26.7282H10.727C10.3512 26.7282 10.0444 26.4226 10.0444 26.0483C10.0444 25.674 10.3512 25.3685 10.727 25.3685H15.5C15.8758 25.3685 16.1826 25.674 16.1826 26.0483C16.1826 26.4226 15.8758 26.7282 15.5 26.7282ZM18.2268 17.9013H7.31736C6.94151 17.9013 6.6347 17.5957 6.6347 17.2214C6.6347 16.8471 6.94152 16.5416 7.31736 16.5416H18.2268C18.6027 16.5416 18.9095 16.8471 18.9095 17.2214C18.9095 17.5957 18.6027 17.9013 18.2268 17.9013ZM18.2268 15.1837H7.31736C6.94151 15.1837 6.6347 14.8782 6.6347 14.5039C6.6347 14.1296 6.94152 13.824 7.31736 13.824H18.2268C18.6027 13.824 18.9095 14.1296 18.9095 14.5039C18.9095 14.8782 18.6027 15.1837 18.2268 15.1837ZM6.63696 10.4304C6.63696 10.0561 6.94378 9.75057 7.31962 9.75057H14.1388C14.5147 9.75057 14.8215 10.0561 14.8215 10.4304C14.8215 10.8047 14.5147 11.1103 14.1388 11.1103H7.31962C6.94377 11.1103 6.63696 10.8047 6.63696 10.4304ZM18.2268 8.39464H7.31736C6.94151 8.39464 6.6347 8.08908 6.6347 7.71479C6.6347 7.34048 6.94152 7.03494 7.31736 7.03494H18.2268C18.6027 7.03494 18.9095 7.3405 18.9095 7.71479C18.9095 8.08909 18.6027 8.39464 18.2268 8.39464ZM18.2268 5.67901H7.31736C6.94151 5.67901 6.6347 5.37345 6.6347 4.99916C6.6347 4.62486 6.94152 4.31931 7.31736 4.31931H18.2268C18.6027 4.31931 18.9095 4.62486 18.9095 4.99916C18.9095 5.37345 18.6027 5.67901 18.2268 5.67901ZM38.682 19.2589H31.8628C31.487 19.2589 31.1802 18.9533 31.1802 18.579C31.1802 18.2047 31.487 17.8992 31.8628 17.8992H38.682C39.0579 17.8992 39.3647 18.2047 39.3647 18.579C39.3647 18.9533 39.0579 19.2589 38.682 19.2589ZM38.682 16.5413H27.7726C27.3967 16.5413 27.0899 16.2358 27.0899 15.8615C27.0899 15.4872 27.3967 15.1816 27.7726 15.1816H38.682C39.0579 15.1816 39.3647 15.4872 39.3647 15.8615C39.3647 16.2358 39.0579 16.5413 38.682 16.5413ZM38.682 13.8257H27.7726C27.3967 13.8257 27.0899 13.5201 27.0899 13.1459C27.0899 12.7716 27.3967 12.466 27.7726 12.466H38.682C39.0579 12.466 39.3647 12.7716 39.3647 13.1459C39.3647 13.5202 39.0579 13.8257 38.682 13.8257ZM38.682 5.67886H36.6839C36.4595 5.67886 36.2409 5.79345 36.1182 5.98442L35.5659 6.8056C35.1843 7.37662 34.5439 7.71464 33.8612 7.71464H32.5936C32.3693 7.71464 32.1507 7.82922 32.028 8.0202L31.4757 8.84138C31.0941 9.41241 30.4536 9.75042 29.7709 9.75042H27.7728C27.3969 9.75042 27.0901 9.44487 27.0901 9.07058C27.0901 8.69628 27.3969 8.39073 27.7728 8.39073H29.7709C29.9953 8.39073 30.2139 8.27614 30.3366 8.08517L30.8889 7.26398C31.2705 6.69296 31.9109 6.35494 32.5936 6.35494H33.8612C34.0855 6.35494 34.3041 6.24036 34.4268 6.04939L34.9791 5.2282C35.3607 4.65718 36.0012 4.31916 36.6839 4.31916H38.682C39.0579 4.31916 39.3647 4.62472 39.3647 4.99901C39.3647 5.3733 39.0579 5.67886 38.682 5.67886Z" fill="#2E3092"/>
<path d="M34.5901 45.7409C28.5745 45.7409 23.6807 40.8672 23.6807 34.8763C23.6807 28.8854 28.5744 24.0117 34.5901 24.0117C40.6058 24.0117 45.4996 28.8854 45.4996 34.8763C45.4996 40.8672 40.6058 45.7409 34.5901 45.7409ZM34.5901 25.3718C29.3261 25.3718 25.0444 29.6362 25.0444 34.8783C25.0444 40.1206 29.3265 44.3847 34.5901 44.3847C39.8538 44.3847 44.1359 40.1203 44.1359 34.8783C44.1359 29.6359 39.8538 25.3718 34.5901 25.3718Z" fill="#2E3092"/>
<path d="M32.2182 40.9859C31.2709 40.9859 30.5 40.2182 30.5 39.2748V30.4748C30.5 29.5314 31.2709 28.7637 32.2182 28.7637C32.571 28.7637 32.9124 28.8706 33.2038 29.073L39.1964 33.2496C39.7275 33.6201 40.0459 34.2274 40.0459 34.8748C40.0459 35.5222 39.7275 36.1295 39.1964 36.5L33.2038 40.6765C32.9124 40.879 32.571 40.9859 32.2182 40.9859ZM32.2182 30.1233C32.0226 30.1233 31.8634 30.2818 31.8634 30.4766V39.2766C31.8634 39.5439 32.199 39.7196 32.4234 39.5649L38.4139 35.3884C38.5807 35.2719 38.6824 35.0809 38.6824 34.8765C38.6824 34.6722 38.5827 34.4812 38.4139 34.3647L32.4214 30.1881C32.3619 30.1461 32.2911 30.1233 32.2182 30.1233Z" fill="#2E3092"/>
</svg>
