<svg width="42" height="52" viewBox="0 0 42 52" fill="none" xmlns="http://www.w3.org/2000/svg">
<path d="M12 43.0366V51.1519C11.8261 51.2685 5.74857 47.9702 5.41949 47.8302C4.68864 47.4484 4.18334 46.7929 4.03763 46.0421V39.9734H4.01413C3.99298 39.4431 3.96712 38.9129 4.16923 38.6074L12 43.0366Z" fill="#2E3092"/>
<path d="M13 43.0394V51.1519C13.123 51.2685 18.4767 47.9713 18.7412 47.8313C19.51 47.3712 19.9837 46.523 19.9837 45.6049C19.9324 45.0197 20.1272 38.9977 19.832 38.6074L13 43.0394Z" fill="#2E3092"/>
<path d="M19 37.3096C10.4134 32.9341 13.7529 32.299 5 37.2768L12.0265 41.5028L19 37.3096Z" fill="#2E3092"/>
<path d="M30 43.0394V51.1519C30.123 51.2685 35.4743 47.9713 35.7424 47.8313C36.511 47.3712 36.9844 46.523 36.9844 45.6049C36.9311 45.0197 37.1279 38.9977 36.8328 38.6074L30 43.0394Z" fill="#2E3092"/>
<path d="M21 39.4934V45.6058C21 46.5238 21.5423 47.3718 22.4202 47.8319C22.7489 47.9739 28.8288 51.2664 28.9977 51.152L29 43.0342L21.1738 38.6074C21.0588 38.8915 21 39.1923 21 39.4934Z" fill="#2E3092"/>
<path d="M22 37.2878L29.5012 41.5028L37 37.2857C28.0437 32.5781 30.9312 32.6476 22 37.2878Z" fill="#2E3092"/>
<path d="M26.204 25.6037L21 28.5549V36.6764C21.4403 36.6552 27.1922 33.4939 27.7354 33.2521C28.513 32.7747 28.979 31.9812 28.9814 31.1305C28.9228 30.5491 29.1453 24.5172 28.8081 24.1289L26.204 25.6037Z" fill="#2E3092"/>
<path d="M19.4671 36.3116C19.6598 36.4091 19.8156 36.5746 20 36.6764V28.5574L13.167 24.1289C12.876 24.4958 13.0645 30.5619 13.0154 31.1283C13.0154 32.0657 13.4806 32.9565 14.3517 33.2492L19.4671 36.3116Z" fill="#2E3092"/>
<path d="M21.4253 26.7646L28 22.8078C19.6926 18.1293 22.2927 18.1395 14 22.8078L21.0019 27.0242L21.4253 26.7646Z" fill="#2E3092"/>
<path d="M2.06099 23.1641H4.93901C5.52591 23.1641 6 23.6172 6 23.9833V26.2056C6 26.6588 5.5259 27.0248 4.93901 27.0248H2.06099C1.47409 27.0248 1 26.5716 1 26.2056V23.9833C1 23.5301 1.4741 23.1641 2.06099 23.1641Z" fill="#2E3092"/>
<path d="M37.061 23.1641H39.939C40.5259 23.1641 41 23.6172 41 23.9833V26.2056C41 26.6588 40.5259 27.0248 39.939 27.0248H37.061C36.4741 27.0248 36 26.5716 36 26.2056V23.9833C36 23.5301 36.4741 23.1641 37.061 23.1641Z" fill="#2E3092"/>
<path d="M18.4854 0.964844H22.5146C23.3363 0.964844 24 1.64461 24 2.19372V5.52711C24 6.20688 23.3363 6.75598 22.5146 6.75598H18.4854C17.6637 6.75598 17 6.07621 17 5.52711V2.19372C17 1.51395 17.6637 0.964844 18.4854 0.964844Z" fill="#2E3092"/>
<path d="M2.50076 6.75633C5.83308 6.67567 5.83308 0.0779809 2.50076 0C-0.833585 0.0806583 -0.833585 6.67834 2.50076 6.75633Z" fill="#2E3092"/>
<path d="M39.5011 6.75633C42.833 6.67567 42.833 0.0779809 39.5011 0C36.1653 0.0806583 36.1673 6.67834 39.5011 6.75633Z" fill="#2E3092"/>
<path d="M33.8381 8.55133C32.5315 7.20616 31.0236 6.08201 29.3726 5.22139C28.796 4.94513 29.02 3.99524 29.6546 4.01434H35.13C34.9454 3.3322 34.9454 2.61182 35.13 1.92969H25.1037C25.0705 2.55443 25.2074 5.21714 25 5.77813C31.832 7.3464 37.0381 14.0384 36.9633 21.2335H39C38.9917 16.4713 37.1333 11.9064 33.8376 8.5515L33.8381 8.55133Z" fill="#2E3092"/>
<path d="M17.8719 2.03594V1.92969H6.42322C6.63409 2.61182 6.63409 3.33008 6.42322 4.01222C24.4348 3.76572 1.75561 4.96 2.002 21.2335H4.32867C4.34999 17.657 5.70761 14.1891 8.18598 11.3879C10.6643 8.58502 14.1212 6.61086 18 5.77972C17.7631 5.32071 17.9123 2.56667 17.8721 2.03539L17.8719 2.03594Z" fill="#2E3092"/>
</svg>
