<svg width="44" height="45" viewBox="0 0 44 45" fill="none" xmlns="http://www.w3.org/2000/svg">
<path d="M43.3929 0.861328V8.61731H40.1786V3.96372H3.21429V11.7197H16.0714V14.8221H3.21429V36.5389H16.0714V39.6413H0V0.861328H43.3929ZM9.64286 9.39291V6.29052H6.42857V9.39291H9.64286ZM12.8571 9.39291H16.0714V6.29052H12.8571V9.39291ZM19.2857 11.7197H43.3929V30.3341V33.4365V44.2948H19.2857V33.4365V30.3341V11.7197ZM34.5536 35.7633H28.125V38.8657H34.5536V35.7633ZM22.5 30.3341H40.1786V14.8221H22.5V30.3341ZM6.42857 21.0269H16.0714V17.9245H6.42857V21.0269ZM6.42857 27.2317H16.0714V24.1293H6.42857V27.2317ZM6.42857 33.4365H16.0714V30.3341H6.42857V33.4365Z" fill="#2E3092"/>
</svg>
