<svg width="46" height="46" viewBox="0 0 46 46" fill="none" xmlns="http://www.w3.org/2000/svg">
<path d="M42.0924 22.0879H29.8197C27.9404 22.0879 26.4102 23.6349 26.4102 25.5348V42.0774C26.4102 43.9772 27.9404 45.5243 29.8197 45.5243H42.0924C43.9716 45.5243 45.5019 43.9772 45.5019 42.0774V25.5348C45.5019 23.6349 43.9716 22.0879 42.0924 22.0879ZM44.1366 42.0792C44.1366 43.2191 43.22 44.1478 42.0905 44.1478H29.8178C28.6902 44.1478 27.7716 43.2211 27.7716 42.0792V25.5367C27.7716 24.3967 28.6883 23.4681 29.8178 23.4681H42.0905C43.218 23.4681 44.1366 24.3948 44.1366 25.5367V42.0792Z" fill="#2E3092"/>
<path d="M40.046 24.8457H31.8635C30.7359 24.8457 29.8174 25.7724 29.8174 26.9143C29.8174 28.0542 30.734 28.9828 31.8635 28.9828H40.046C41.1735 28.9828 42.0921 28.0561 42.0921 26.9143C42.0921 25.7743 41.1754 24.8457 40.046 24.8457ZM40.046 27.6025H31.8635C31.4876 27.6025 31.1808 27.2923 31.1808 26.9123C31.1808 26.5324 31.4877 26.2222 31.8635 26.2222H40.046C40.4218 26.2222 40.7286 26.5324 40.7286 26.9123C40.7286 27.2923 40.4218 27.6025 40.046 27.6025Z" fill="#2E3092"/>
<path d="M32.5461 31.7383H31.1827C30.8068 31.7383 30.5 32.0465 30.5 32.4284C30.5 32.8084 30.8049 33.1186 31.1827 33.1186H32.5461C32.9219 33.1186 33.2287 32.8103 33.2287 32.4284C33.2287 32.0485 32.9238 31.7383 32.5461 31.7383Z" fill="#2E3092"/>
<path d="M36.6359 31.7383H35.2725C34.8967 31.7383 34.5898 32.0465 34.5898 32.4284C34.5898 32.8084 34.8947 33.1186 35.2725 33.1186H36.6359C37.0118 33.1186 37.3186 32.8103 37.3186 32.4284C37.3186 32.0485 37.0137 31.7383 36.6359 31.7383Z" fill="#2E3092"/>
<path d="M40.7257 31.7383H39.3623C38.9865 31.7383 38.6797 32.0465 38.6797 32.4284C38.6797 32.8084 38.9846 33.1186 39.3623 33.1186H40.7257C41.1016 33.1186 41.4084 32.8103 41.4084 32.4284C41.4084 32.0485 41.1035 31.7383 40.7257 31.7383Z" fill="#2E3092"/>
<path d="M32.5461 34.4941H31.1827C30.8068 34.4941 30.5 34.8024 30.5 35.1843C30.5 35.5643 30.8049 35.8744 31.1827 35.8744H32.5461C32.9219 35.8744 33.2287 35.5662 33.2287 35.1843C33.2287 34.8043 32.9238 34.4941 32.5461 34.4941Z" fill="#2E3092"/>
<path d="M36.6359 34.4941H35.2725C34.8967 34.4941 34.5898 34.8024 34.5898 35.1843C34.5898 35.5643 34.8947 35.8744 35.2725 35.8744H36.6359C37.0118 35.8744 37.3186 35.5662 37.3186 35.1843C37.3186 34.8043 37.0137 34.4941 36.6359 34.4941Z" fill="#2E3092"/>
<path d="M40.7257 34.4941H39.3623C38.9865 34.4941 38.6797 34.8024 38.6797 35.1843C38.6797 35.5643 38.9846 35.8744 39.3623 35.8744H40.7257C41.1016 35.8744 41.4084 35.5662 41.4084 35.1843C41.4084 34.8043 41.1035 34.4941 40.7257 34.4941Z" fill="#2E3092"/>
<path d="M32.5461 37.2539H31.1827C30.8068 37.2539 30.5 37.5622 30.5 37.9441C30.5 38.324 30.8049 38.6342 31.1827 38.6342H32.5461C32.9219 38.6342 33.2287 38.326 33.2287 37.9441C33.2287 37.5641 32.9238 37.2539 32.5461 37.2539Z" fill="#2E3092"/>
<path d="M36.6359 37.2539H35.2725C34.8967 37.2539 34.5898 37.5622 34.5898 37.9441C34.5898 38.324 34.8947 38.6342 35.2725 38.6342H36.6359C37.0118 38.6342 37.3186 38.326 37.3186 37.9441C37.3186 37.5641 37.0137 37.2539 36.6359 37.2539Z" fill="#2E3092"/>
<path d="M40.7257 37.2539H39.3623C38.9865 37.2539 38.6797 37.5622 38.6797 37.9441C38.6797 38.324 38.9846 38.6342 39.3623 38.6342H40.7257C41.1016 38.6342 41.4084 38.326 41.4084 37.9441C41.4084 37.5641 41.1035 37.2539 40.7257 37.2539Z" fill="#2E3092"/>
<path d="M32.5461 40.0117H31.1827C30.8068 40.0117 30.5 40.32 30.5 40.7019C30.5 41.0818 30.8049 41.392 31.1827 41.392H32.5461C32.9219 41.392 33.2287 41.0838 33.2287 40.7019C33.2287 40.3219 32.9238 40.0117 32.5461 40.0117Z" fill="#2E3092"/>
<path d="M36.6359 40.0117H35.2725C34.8967 40.0117 34.5898 40.32 34.5898 40.7019C34.5898 41.0818 34.8947 41.392 35.2725 41.392H36.6359C37.0118 41.392 37.3186 41.0838 37.3186 40.7019C37.3186 40.3219 37.0137 40.0117 36.6359 40.0117Z" fill="#2E3092"/>
<path d="M40.7257 40.0117H39.3623C38.9865 40.0117 38.6797 40.32 38.6797 40.7019C38.6797 41.0818 38.9846 41.392 39.3623 41.392H40.7257C41.1016 41.392 41.4084 41.0838 41.4084 40.7019C41.4084 40.3219 41.1035 40.0117 40.7257 40.0117Z" fill="#2E3092"/>
<path d="M38 6.92315H34.5905V3.47622C34.5905 1.57442 33.0641 0.0292969 31.181 0.0292969L3.90853 0.0312358C2.02737 0.0312358 0.499023 1.57442 0.499023 3.47816V31.0499C0.499023 32.9517 2.02546 34.4968 3.90853 34.4968H7.31805V37.9438C7.31805 39.8456 8.84448 41.3907 10.7276 41.3907H25.0464V27.3162C24.9505 27.2813 24.8623 27.2329 24.7741 27.1844C24.4462 26.9983 24.3234 26.5854 24.5075 26.2461C24.6168 26.0387 24.822 25.9088 25.0464 25.8952V25.5365C25.0464 22.8767 27.1865 20.7112 29.8194 20.7112H36.6386V19.4298C36.6386 19.0498 36.9454 18.7396 37.3212 18.7396C37.6971 18.7396 38.0039 19.0498 38.0039 19.4298V20.7112H41.4134V10.3724C41.4134 8.47055 39.887 6.92543 38.0039 6.92543L38 6.92315ZM10.7276 10.3701C10.7276 9.9901 11.0344 9.67993 11.4102 9.67993H12.0929C12.4687 9.67993 12.7755 9.99011 12.7755 10.3701C12.7755 10.75 12.4687 11.0602 12.0929 11.0602H11.4102C11.0344 11.0602 10.7276 10.75 10.7276 10.3701ZM20.9542 37.9418H14.135C13.7591 37.9418 13.4523 37.6316 13.4523 37.2517C13.4523 36.8717 13.7591 36.5615 14.135 36.5615H20.9542C21.33 36.5615 21.6368 36.8717 21.6368 37.2517C21.6368 37.6317 21.33 37.9418 20.9542 37.9418ZM23.6062 31.3599L21.5601 35.4951C21.4508 35.7297 21.213 35.8751 20.9541 35.8751H14.1349C13.876 35.8751 13.6363 35.7297 13.5289 35.4951L11.4828 31.3599C11.3812 31.1661 11.3812 30.9334 11.4828 30.7396L16.9363 19.7104C17.1607 19.249 17.9258 19.249 18.1502 19.7104L23.6037 30.7396C23.7053 30.9334 23.7053 31.1661 23.6037 31.3599H23.6062ZM14.1371 10.3701C14.1371 9.9901 14.4439 9.67993 14.8197 9.67993H15.5024C15.8782 9.67993 16.185 9.99011 16.185 10.3701C16.185 10.75 15.8782 11.0602 15.5024 11.0602H14.8197C14.4439 11.0602 14.1371 10.75 14.1371 10.3701ZM17.5466 10.3701C17.5466 9.9901 17.8534 9.67993 18.2292 9.67993H18.9119C19.2877 9.67993 19.5946 9.99011 19.5946 10.3701C19.5946 10.75 19.2877 11.0602 18.9119 11.0602H18.2292C17.8534 11.0602 17.5466 10.75 17.5466 10.3701ZM23.7364 25.0381C23.723 25.0381 23.7019 25.0459 23.6885 25.0459C23.3337 25.0459 23.0346 24.7628 23.0059 24.4042C22.9982 24.3208 22.9982 24.2394 22.9982 24.156V22.9773C22.9982 22.5915 23.305 22.2872 23.6808 22.2872C24.0567 22.2872 24.3635 22.5896 24.3635 22.9773V24.156C24.3635 24.2045 24.3635 24.2529 24.3712 24.3014C24.398 24.6814 24.1123 25.011 23.7364 25.0381ZM23.0001 20.2206V18.8422C23.0001 18.4564 23.3069 18.1521 23.6827 18.1521C24.0586 18.1521 24.3654 18.4545 24.3654 18.8422V20.2206C24.3654 20.6005 24.0586 20.9107 23.6827 20.9107C23.3069 20.9107 23.0001 20.6005 23.0001 20.2206ZM24.5476 15.0229C24.4249 15.2981 24.3635 15.5812 24.3635 15.8836V16.0833C24.3635 16.4633 24.0567 16.7735 23.6808 16.7735C23.305 16.7735 22.9982 16.4633 22.9982 16.0833V15.8836C22.9982 15.3796 23.0998 14.9046 23.305 14.449C23.4622 14.104 23.8649 13.9527 24.212 14.1117C24.5534 14.2707 24.703 14.6778 24.5457 15.0209L24.5476 15.0229ZM27.3837 13.817H26.4095C26.3079 13.817 26.212 13.8248 26.1162 13.8383C26.0816 13.8461 26.0548 13.8461 26.0203 13.8461C25.6866 13.8461 25.3932 13.5979 25.3453 13.2529C25.2916 12.8729 25.5505 12.5298 25.9244 12.4735C26.0816 12.4522 26.2446 12.4386 26.4076 12.4386H27.3818C27.7576 12.4386 28.0645 12.7488 28.0645 13.1288C28.0645 13.5087 27.7576 13.8189 27.3818 13.8189L27.3837 13.817ZM31.4759 13.817H30.1125C29.7366 13.817 29.4298 13.5068 29.4298 13.1269C29.4298 12.7469 29.7366 12.4367 30.1125 12.4367H31.4759C31.8517 12.4367 32.1585 12.7469 32.1585 13.1269C32.1585 13.5068 31.8517 13.817 31.4759 13.817ZM33.2267 6.92295H10.7273C8.84615 6.92295 7.3178 8.46614 7.3178 10.3699V33.1161H3.90829C2.78263 33.1161 1.86218 32.1856 1.86218 31.0476L1.8641 3.47583C1.8641 2.33782 2.78455 1.40726 3.91021 1.40726H31.1827C32.3083 1.40726 33.2288 2.33782 33.2288 3.47583V6.92275L33.2267 6.92295ZM36.1855 13.5416C36.0839 13.8169 35.8173 13.9894 35.545 13.9894C35.4626 13.9894 35.3878 13.9758 35.3072 13.9487C35.0752 13.8595 34.8374 13.8168 34.592 13.8168H34.2027C33.8269 13.8168 33.52 13.5067 33.52 13.1267C33.52 12.7467 33.8269 12.4365 34.2027 12.4365H34.592C35.0004 12.4365 35.4031 12.5122 35.7847 12.6498C36.1395 12.7874 36.3159 13.181 36.1874 13.5397L36.1855 13.5416ZM37.9996 16.6706C37.9996 17.0563 37.6927 17.3607 37.3169 17.3607C36.9411 17.3607 36.6343 17.0583 36.6343 16.6706V15.8854C36.6343 15.7342 36.6208 15.5888 36.5863 15.4434C36.5115 15.0712 36.7436 14.7067 37.1117 14.6234C37.4799 14.5478 37.8404 14.7823 37.9229 15.1546C37.9708 15.395 37.9976 15.6373 37.9976 15.8855V16.6706L37.9996 16.6706Z" fill="#2E3092"/>
<path d="M5.27352 2.78906H4.59086C4.21501 2.78906 3.9082 3.09731 3.9082 3.47921C3.9082 3.85919 4.2131 4.16936 4.59086 4.16936H5.27352C5.64937 4.16936 5.95618 3.86112 5.95618 3.47921C5.95618 3.09924 5.65128 2.78906 5.27352 2.78906Z" fill="#2E3092"/>
<path d="M8.00004 4.16741H8.6827C9.05855 4.16741 9.36536 3.85916 9.36536 3.47726C9.36536 3.09728 9.06046 2.78711 8.6827 2.78711H8.00004C7.62419 2.78711 7.31738 3.09535 7.31738 3.47726C7.31738 3.85723 7.62228 4.16741 8.00004 4.16741Z" fill="#2E3092"/>
<path d="M11.4102 4.16741H12.0929C12.4687 4.16741 12.7755 3.85916 12.7755 3.47726C12.7755 3.09728 12.4706 2.78711 12.0929 2.78711H11.4102C11.0343 2.78711 10.7275 3.09535 10.7275 3.47726C10.7275 3.85723 11.0324 4.16741 11.4102 4.16741Z" fill="#2E3092"/>
<path d="M12.8535 31.0501L14.5583 34.4971H16.8633V31.6162C16.0732 31.3332 15.4999 30.5693 15.4999 29.6717C15.4999 28.5337 16.4203 27.6032 17.546 27.6032C18.6716 27.6032 19.5921 28.5337 19.5921 29.6717C19.5921 30.5674 19.0187 31.3332 18.2287 31.6162V34.4971H20.5336L22.2384 31.0501L17.5479 21.5664L12.8574 31.0501H12.8535Z" fill="#2E3092"/>
<path d="M18.2267 29.6711C18.2267 30.5901 16.8633 30.5901 16.8633 29.6711C16.8633 28.7502 18.2267 28.7502 18.2267 29.6711Z" fill="#2E3092"/>
</svg>
