<svg width="56" height="56" viewBox="0 0 56 56" fill="none" xmlns="http://www.w3.org/2000/svg">
<path d="M56 27.6317C56 12.3906 43.4442 0 28 0C12.5558 0 0 12.3906 0 27.6317C0 42.8728 12.5558 55.2634 28 55.2634C43.4442 55.2634 56 42.8728 56 27.6317ZM4.00842 27.6317C4.00842 14.6012 14.7958 3.9557 28 3.9557C41.2042 3.9557 51.9916 14.6012 51.9916 27.6317C51.9916 40.6622 41.2042 51.3077 28 51.3077C14.7958 51.3077 4.00842 40.6622 4.00842 27.6317Z" fill="#2E3092"/>
<path d="M35.9573 29.0284C36.311 28.6793 36.5468 28.1558 36.5468 27.6322C36.5468 27.1087 36.311 26.5851 35.9573 26.2361L25.1699 15.5906C24.4036 14.8344 23.1068 14.8344 22.3405 15.5906C21.5741 16.3469 21.5741 17.6266 22.3405 18.3829L31.6541 27.6322L22.3405 36.8234C21.9278 37.2306 21.751 37.696 21.751 38.2195C21.751 38.7431 21.9278 39.2666 22.3405 39.6157C23.1068 40.3719 24.4036 40.3719 25.1699 39.6157L35.9573 29.0284Z" fill="#2E3092"/>
</svg>
