<svg width="46" height="53" viewBox="0 0 46 53" fill="none" xmlns="http://www.w3.org/2000/svg">
<path fill-rule="evenodd" clip-rule="evenodd" d="M43.1864 34.0732V17.9961C44.2696 17.817 45.1958 17.1185 45.6644 16.1282C46.133 15.1356 46.0866 13.9751 45.5384 13.0246C44.9902 12.074 44.0087 11.4529 42.9145 11.3644C41.8203 11.2738 40.7526 11.727 40.0563 12.5758L26.1301 4.53385C26.2738 4.15363 26.3468 3.75133 26.3446 3.34456C26.3446 1.49878 24.8481 0 23 0C21.152 0 19.6554 1.49872 19.6554 3.34456C19.6532 3.7513 19.7262 4.15362 19.8699 4.53385L5.94372 12.5758C5.24739 11.727 4.17971 11.2738 3.08549 11.3644C1.99127 11.4529 1.00978 12.074 0.4616 13.0246C-0.0866119 13.9751 -0.133044 15.1356 0.335598 16.1282C0.804228 17.1185 1.73042 17.817 2.8136 17.9961V34.0732C1.72821 34.25 0.797596 34.9486 0.324563 35.9433C-0.148493 36.938 -0.102072 38.1008 0.448353 39.0535C0.998778 40.0085 1.98244 40.6297 3.07887 40.7203C4.17529 40.8087 5.24738 40.3533 5.94372 39.5001L19.8699 47.542C19.7262 47.9223 19.6532 48.3246 19.6554 48.7313C19.6554 50.5771 21.152 52.0759 23 52.0759C24.848 52.0759 26.3446 50.5772 26.3446 48.7313C26.3468 48.3246 26.2738 47.9223 26.1301 47.542L40.0563 39.5069C40.7526 40.3579 41.8247 40.8155 42.9211 40.7249C44.0176 40.6364 45.0013 40.0131 45.5516 39.0603C46.1021 38.1054 46.1485 36.9426 45.6754 35.9479C45.2024 34.9532 44.2717 34.2546 43.1864 34.08L43.1864 34.0732ZM42.1054 34.0732C41.3008 34.208 40.5713 34.6302 40.0563 35.2625L34.8836 32.2628C34.7201 32.5789 34.5388 32.8972 34.3465 33.1956L39.5125 36.2241C39.2251 36.9867 39.2251 37.8267 39.5125 38.5893L25.5903 46.6024C25.0819 45.9768 24.3612 45.5568 23.5655 45.4198V39.4202H22.4337V45.4198C21.629 45.5502 20.8996 45.9702 20.3845 46.6024L6.46232 38.5673H6.46453C6.74969 37.8024 6.74969 36.9602 6.46453 36.1954L11.6814 33.2023C11.4891 32.8972 11.3078 32.5789 11.1443 32.2628L5.9495 35.2625C5.43223 34.6303 4.70498 34.208 3.90033 34.0732V17.9961C4.70498 17.8679 5.43442 17.4456 5.9495 16.8135L11.1155 19.8132C11.2791 19.4904 11.4604 19.1787 11.6527 18.8803L6.46233 15.8806H6.46454C6.7497 15.118 6.7497 14.278 6.46454 13.5154L20.3867 5.47341H20.3845C20.9018 6.10342 21.629 6.52563 22.4337 6.65602V12.6557H23.5655V6.65602C24.3701 6.5256 25.0973 6.10339 25.6146 5.47341L39.5368 13.5154H39.5346C39.2495 14.278 39.2495 15.118 39.5346 15.8806L34.3177 18.8803C34.51 19.181 34.6913 19.4971 34.8549 19.8132L40.0496 16.8135C40.5647 17.4457 41.2942 17.8679 42.0988 17.9961L42.1054 34.0732ZM22.9996 13.7298C19.7723 13.7342 16.6752 15.0075 14.3765 17.271C12.0776 19.5368 10.7601 22.6139 10.707 25.8415C10.6539 29.0692 11.8698 32.1881 14.0936 34.5269C14.7081 32.9597 15.7404 31.5913 17.0756 30.5657C18.7843 29.2924 20.8688 28.6248 22.9999 28.6646C25.1309 28.6248 27.2154 29.2924 28.9243 30.5657C30.2595 31.5913 31.2918 32.9597 31.9063 34.5269C34.1301 32.1882 35.3459 29.0691 35.2928 25.8415C35.2398 22.614 33.9223 19.5369 31.6233 17.271C29.3244 15.0075 26.2268 13.7342 22.9996 13.7298ZM26.2469 26.4845C24.6995 28.0319 22.2724 28.2729 20.451 27.0592C18.6295 25.8435 17.9177 23.5136 18.7489 21.4887C19.5823 19.4616 21.7287 18.3055 23.8773 18.7233C26.026 19.1433 27.5822 21.0178 27.5955 23.2085C27.6021 24.4376 27.1157 25.6158 26.2469 26.4845ZM25.4843 20.7526C26.6669 21.9374 26.8482 23.792 25.9175 25.1824C24.9869 26.5729 23.203 27.1123 21.6579 26.4712C20.1105 25.8323 19.2329 24.1877 19.5601 22.5475C19.885 20.9051 21.3263 19.7224 22.9996 19.7224C23.9325 19.7202 24.8256 20.0916 25.4843 20.7526ZM31.0526 35.3465C28.8155 37.2829 25.9573 38.3462 22.9999 38.3462C20.0424 38.3462 17.1841 37.2829 14.9472 35.3465C15.4578 33.777 16.4282 32.3976 17.7324 31.3852C19.2577 30.271 21.1102 29.6941 23.0001 29.745C24.8924 29.7008 26.7448 30.2866 28.2678 31.4073C29.5699 32.4131 30.5375 33.7858 31.0526 35.3465Z" fill="#2E3092"/>
</svg>
