<svg width="45" height="45" viewBox="0 0 45 45" fill="none" xmlns="http://www.w3.org/2000/svg">
<path d="M40.1786 13.2709H30.5357C29.257 13.2709 28.0306 13.7612 27.1264 14.6339C26.2223 15.5066 25.7143 16.6903 25.7143 17.9245V39.6413C25.7143 40.8755 26.2223 42.0591 27.1264 42.9318C28.0306 43.8046 29.257 44.2948 30.5357 44.2948H40.1786C41.4573 44.2948 42.6836 43.8046 43.5878 42.9318C44.492 42.0591 45 40.8755 45 39.6413V17.9245C45 16.6903 44.492 15.5066 43.5878 14.6339C42.6836 13.7612 41.4573 13.2709 40.1786 13.2709ZM41.7857 39.6413C41.7857 40.0527 41.6164 40.4472 41.315 40.7381C41.0136 41.029 40.6048 41.1925 40.1786 41.1925H30.5357C30.1095 41.1925 29.7007 41.029 29.3993 40.7381C29.0979 40.4472 28.9286 40.0527 28.9286 39.6413V17.9245C28.9286 17.5131 29.0979 17.1185 29.3993 16.8276C29.7007 16.5367 30.1095 16.3733 30.5357 16.3733H40.1786C40.6048 16.3733 41.0136 16.5367 41.315 16.8276C41.6164 17.1185 41.7857 17.5131 41.7857 17.9245V39.6413ZM40.1786 28.7829C40.1786 29.1943 40.0092 29.5888 39.7079 29.8797C39.4065 30.1706 38.9977 30.3341 38.5714 30.3341H32.1429C31.7166 30.3341 31.3078 30.1706 31.0064 29.8797C30.705 29.5888 30.5357 29.1943 30.5357 28.7829C30.5357 28.3715 30.705 27.9769 31.0064 27.686C31.3078 27.3951 31.7166 27.2317 32.1429 27.2317H38.5714C38.9977 27.2317 39.4065 27.3951 39.7079 27.686C40.0092 27.9769 40.1786 28.3715 40.1786 28.7829ZM40.1786 33.4365C40.1786 33.8479 40.0092 34.2424 39.7079 34.5333C39.4065 34.8242 38.9977 34.9877 38.5714 34.9877H32.1429C31.7166 34.9877 31.3078 34.8242 31.0064 34.5333C30.705 34.2424 30.5357 33.8479 30.5357 33.4365C30.5357 33.0251 30.705 32.6305 31.0064 32.3396C31.3078 32.0487 31.7166 31.8853 32.1429 31.8853H38.5714C38.9977 31.8853 39.4065 32.0487 39.7079 32.3396C40.0092 32.6305 40.1786 33.0251 40.1786 33.4365ZM40.1786 38.0901C40.1786 38.5015 40.0092 38.896 39.7079 39.1869C39.4065 39.4778 38.9977 39.6413 38.5714 39.6413H32.1429C31.7166 39.6413 31.3078 39.4778 31.0064 39.1869C30.705 38.896 30.5357 38.5015 30.5357 38.0901C30.5357 37.6787 30.705 37.2841 31.0064 36.9932C31.3078 36.7023 31.7166 36.5389 32.1429 36.5389H38.5714C38.9977 36.5389 39.4065 36.7023 39.7079 36.9932C40.0092 37.2841 40.1786 37.6787 40.1786 38.0901ZM14.4643 31.8853C15.743 31.8853 16.9694 31.395 17.8736 30.5223C18.7777 29.6495 19.2857 28.4659 19.2857 27.2317V5.51492C19.2857 4.28071 18.7777 3.09705 17.8736 2.22433C16.9694 1.35162 15.743 0.861328 14.4643 0.861328H4.82143C3.54271 0.861328 2.31636 1.35162 1.41216 2.22433C0.507971 3.09705 0 4.28071 0 5.51492V27.2317C0 28.4659 0.507971 29.6495 1.41216 30.5223C2.31636 31.395 3.54271 31.8853 4.82143 31.8853H14.4643ZM3.21429 27.2317V5.51492C3.21429 5.10352 3.38361 4.70896 3.68501 4.41806C3.9864 4.12715 4.39519 3.96372 4.82143 3.96372H14.4643C14.8905 3.96372 15.2993 4.12715 15.6007 4.41806C15.9021 4.70896 16.0714 5.10352 16.0714 5.51492V27.2317C16.0714 27.6431 15.9021 28.0376 15.6007 28.3285C15.2993 28.6194 14.8905 28.7829 14.4643 28.7829H4.82143C4.39519 28.7829 3.9864 28.6194 3.68501 28.3285C3.38361 28.0376 3.21429 27.6431 3.21429 27.2317ZM4.82143 16.3733C4.82143 15.9619 4.99075 15.5673 5.29215 15.2764C5.59355 14.9855 6.00233 14.8221 6.42857 14.8221H12.8571C13.2834 14.8221 13.6922 14.9855 13.9936 15.2764C14.295 15.5673 14.4643 15.9619 14.4643 16.3733C14.4643 16.7847 14.295 17.1793 13.9936 17.4702C13.6922 17.7611 13.2834 17.9245 12.8571 17.9245H6.42857C6.00233 17.9245 5.59355 17.7611 5.29215 17.4702C4.99075 17.1793 4.82143 16.7847 4.82143 16.3733ZM4.82143 21.0269C4.82143 20.6155 4.99075 20.2209 5.29215 19.93C5.59355 19.6391 6.00233 19.4757 6.42857 19.4757H12.8571C13.2834 19.4757 13.6922 19.6391 13.9936 19.93C14.295 20.2209 14.4643 20.6155 14.4643 21.0269C14.4643 21.4383 14.295 21.8328 13.9936 22.1238C13.6922 22.4147 13.2834 22.5781 12.8571 22.5781H6.42857C6.00233 22.5781 5.59355 22.4147 5.29215 22.1238C4.99075 21.8328 4.82143 21.4383 4.82143 21.0269ZM4.82143 25.6805C4.82143 25.2691 4.99075 24.8745 5.29215 24.5836C5.59355 24.2927 6.00233 24.1293 6.42857 24.1293H12.8571C13.2834 24.1293 13.6922 24.2927 13.9936 24.5836C14.295 24.8745 14.4643 25.2691 14.4643 25.6805C14.4643 26.0919 14.295 26.4864 13.9936 26.7773C13.6922 27.0683 13.2834 27.2317 12.8571 27.2317H6.42857C6.00233 27.2317 5.59355 27.0683 5.29215 26.7773C4.99075 26.4864 4.82143 26.0919 4.82143 25.6805ZM20.8929 2.41253C20.8929 2.00112 21.0622 1.60657 21.3636 1.31566C21.665 1.02476 22.0738 0.861328 22.5 0.861328H32.1429C33.4216 0.861328 34.6479 1.35162 35.5521 2.22433C36.4563 3.09705 36.9643 4.28071 36.9643 5.51492V6.43013L37.4304 5.96477C37.733 5.67267 38.1434 5.50857 38.5714 5.50857C38.9994 5.50857 39.4099 5.67267 39.7125 5.96477C40.0151 6.25686 40.1851 6.65303 40.1851 7.06612C40.1851 7.4792 40.0151 7.87537 39.7125 8.16747L36.4982 11.2699C36.3488 11.4153 36.1711 11.5307 35.9752 11.6094C35.7794 11.6882 35.5693 11.7287 35.3571 11.7287C35.145 11.7287 34.9349 11.6882 34.7391 11.6094C34.5432 11.5307 34.3655 11.4153 34.2161 11.2699L31.0018 8.16747C30.6992 7.87537 30.5291 7.4792 30.5291 7.06612C30.5291 6.65303 30.6992 6.25686 31.0018 5.96477C31.3044 5.67267 31.7149 5.50857 32.1429 5.50857C32.5708 5.50857 32.9813 5.67267 33.2839 5.96477L33.75 6.43013V5.51492C33.75 5.10352 33.5807 4.70896 33.2793 4.41806C32.9779 4.12715 32.5691 3.96372 32.1429 3.96372H22.5C22.0738 3.96372 21.665 3.80029 21.3636 3.50939C21.0622 3.21848 20.8929 2.82393 20.8929 2.41253ZM24.1071 42.7437C24.1071 43.1551 23.9378 43.5496 23.6364 43.8405C23.335 44.1314 22.9262 44.2948 22.5 44.2948H12.8571C11.5784 44.2948 10.3521 43.8046 9.44788 42.9318C8.54368 42.0591 8.03571 40.8755 8.03571 39.6413V38.7261L7.56964 39.1914C7.26701 39.4835 6.85656 39.6476 6.42857 39.6476C6.00059 39.6476 5.59013 39.4835 5.2875 39.1914C4.98487 38.8993 4.81485 38.5031 4.81485 38.0901C4.81485 37.677 4.98487 37.2808 5.2875 36.9887L8.50179 33.8863C8.65119 33.7409 8.82894 33.6255 9.02479 33.5468C9.22063 33.468 9.43069 33.4275 9.64286 33.4275C9.85502 33.4275 10.0651 33.468 10.2609 33.5468C10.4568 33.6255 10.6345 33.7409 10.7839 33.8863L13.9982 36.9887C14.1488 37.1329 14.2684 37.3045 14.35 37.4935C14.4316 37.6825 14.4736 37.8853 14.4736 38.0901C14.4736 38.2948 14.4316 38.4976 14.35 38.6866C14.2684 38.8756 14.1488 39.0472 13.9982 39.1914C13.8488 39.3368 13.6711 39.4522 13.4752 39.531C13.2794 39.6097 13.0693 39.6503 12.8571 39.6503C12.645 39.6503 12.4349 39.6097 12.2391 39.531C12.0432 39.4522 11.8655 39.3368 11.7161 39.1914L11.25 38.7261V39.6413C11.25 40.0527 11.4193 40.4472 11.7207 40.7381C12.0221 41.029 12.4309 41.1925 12.8571 41.1925H22.5C22.9262 41.1925 23.335 41.3559 23.6364 41.6468C23.9378 41.9377 24.1071 42.3322 24.1071 42.7437ZM6.42857 13.2709H12.8571C13.2834 13.2709 13.6922 13.1075 13.9936 12.8166C14.295 12.5257 14.4643 12.1311 14.4643 11.7197V7.06612C14.4643 6.65471 14.295 6.26016 13.9936 5.96925C13.6922 5.67835 13.2834 5.51492 12.8571 5.51492H6.42857C6.00233 5.51492 5.59355 5.67835 5.29215 5.96925C4.99075 6.26016 4.82143 6.65471 4.82143 7.06612V11.7197C4.82143 12.1311 4.99075 12.5257 5.29215 12.8166C5.59355 13.1075 6.00233 13.2709 6.42857 13.2709ZM8.03571 8.61731H11.25V10.1685H8.03571V8.61731ZM38.5714 17.9245H32.1429C31.7166 17.9245 31.3078 18.0879 31.0064 18.3788C30.705 18.6697 30.5357 19.0643 30.5357 19.4757V24.1293C30.5357 24.5407 30.705 24.9352 31.0064 25.2261C31.3078 25.5171 31.7166 25.6805 32.1429 25.6805H38.5714C38.9977 25.6805 39.4065 25.5171 39.7079 25.2261C40.0092 24.9352 40.1786 24.5407 40.1786 24.1293V19.4757C40.1786 19.0643 40.0092 18.6697 39.7079 18.3788C39.4065 18.0879 38.9977 17.9245 38.5714 17.9245ZM36.9643 22.5781H33.75V21.0269H36.9643V22.5781Z" fill="#2E3092"/>
</svg>
