<svg width="45" height="45" viewBox="0 0 45 45" fill="none" xmlns="http://www.w3.org/2000/svg">
<path d="M32.6617 24.9457V15.2656L23.1396 19.4624V29.1425L32.6617 24.9457Z" fill="#2E3092"/>
<path d="M1.53418 40.8008L11.0665 44.9996V35.3139L1.53418 31.1211V40.8008Z" fill="#2E3092"/>
<path d="M12.3389 45L21.861 40.8012V31.1211L12.3389 35.3139V45Z" fill="#2E3092"/>
<path d="M11.6994 34.1859L20.8902 30.1309L11.6994 26.0859L2.51074 30.1309L11.6994 34.1859Z" fill="#2E3092"/>
<path d="M24.1104 30.1309L33.3011 34.1859L42.4898 30.1309L33.3011 26.0859L24.1104 30.1309Z" fill="#2E3092"/>
<path d="M23.1396 40.8008L32.6617 44.9996V35.3139L23.1396 31.1211V40.8008Z" fill="#2E3092"/>
<path d="M43.4669 31.1211L33.9346 35.3139V44.9996L43.4669 40.8008V31.1211Z" fill="#2E3092"/>
<path d="M12.3389 24.9457L21.861 29.1425V19.4624L12.3389 15.2656V24.9457Z" fill="#2E3092"/>
<path d="M13.3057 14.2715L22.5 18.3265L31.6943 14.2715L22.5 10.2266L13.3057 14.2715Z" fill="#2E3092"/>
<path d="M43.4662 20.9645C42.9149 13.4878 38.4445 6.86619 31.669 3.57812H28.8965C36.3634 6.09899 41.7823 12.8906 42.4118 20.9645H43.4662Z" fill="#2E3092"/>
<path d="M39.8465 2.05055C39.8465 1.87677 39.8625 1.70298 39.8865 1.5332H25.6562V2.55593H39.8865C39.8605 2.38814 39.8465 2.21834 39.8465 2.05055Z" fill="#2E3092"/>
<path d="M42.9546 4.09091C44.0852 4.09091 45.0001 3.17004 45.0001 2.04545C45.0001 0.920863 44.0852 0 42.9546 0C42.1417 0 41.4046 0.481403 41.077 1.22645C40.9691 1.48214 40.9092 1.75781 40.9092 2.04545C40.9092 2.3311 40.9651 2.60274 41.077 2.86844C41.4046 3.60552 42.1456 4.09091 42.9546 4.09091Z" fill="#2E3092"/>
<path d="M2.04545 4.09091C2.85842 4.09091 3.5955 3.60551 3.92313 2.86445C4.03099 2.60877 4.09092 2.33309 4.09092 2.04545C4.09092 1.75981 4.03498 1.48817 3.92313 1.21648C3.59554 0.479403 2.85448 0 2.04545 0C0.91488 0 0 0.91488 0 2.04545C0 3.17603 0.91488 4.09091 2.04545 4.09091Z" fill="#2E3092"/>
<path d="M1.534 20.9645H2.5827C3.21193 12.8906 8.62701 6.09915 16.098 3.57812H13.3255C6.55604 6.86604 2.08571 13.4837 1.52832 20.9645H1.534Z" fill="#2E3092"/>
<path d="M19.3435 2.55593V1.5332H5.11328C5.13925 1.70099 5.15323 1.87678 5.15323 2.05055C5.15323 2.22433 5.13725 2.39412 5.11328 2.55592L19.3435 2.55593Z" fill="#2E3092"/>
<path d="M0.50537 26.0811H3.57953C3.86118 26.0811 4.0909 25.8554 4.0909 25.5758V22.5016C4.0909 22.2199 3.86118 21.9902 3.57953 21.9902H0.50537C0.223721 21.9902 0 22.2199 0 22.5016V25.5758C0 25.8574 0.225721 26.0811 0.50537 26.0811Z" fill="#2E3092"/>
<path d="M44.4947 21.9902H41.4205C41.1389 21.9902 40.9092 22.2199 40.9092 22.5016V25.5758C40.9092 25.8574 41.1389 26.0811 41.4205 26.0811H44.4947C44.7764 26.0811 45.0001 25.8554 45.0001 25.5758V22.5016C45.0001 22.2199 44.7744 21.9902 44.4947 21.9902Z" fill="#2E3092"/>
<path d="M20.9655 4.0909H24.0277C24.3093 4.0909 24.539 3.86118 24.539 3.57953V0.50537C24.539 0.223721 24.3093 0 24.0277 0H20.9655C20.6838 0 20.4541 0.225721 20.4541 0.50537V3.57953C20.4541 3.86118 20.6838 4.0909 20.9655 4.0909Z" fill="#2E3092"/>
</svg>
