<svg width="87" height="87" viewBox="0 0 87 87" fill="none" xmlns="http://www.w3.org/2000/svg">
<circle cx="43.5" cy="43.5" r="43.5" fill="#D9D9D9"/>
<path d="M65.6517 26.9315L49.0754 15.0153C48.8091 14.8281 48.4568 14.7956 48.1585 14.9331C47.8642 15.0764 47.678 15.3648 47.68 15.6819V21.3728C32.203 23.2277 24.5816 33.7287 25.0177 52.6078C25.0257 53.0108 25.334 53.349 25.7504 53.4158C25.7965 53.4215 25.8425 53.4254 25.8886 53.4234C26.2569 53.4234 26.5853 53.2038 26.7094 52.8752C30.8775 41.9179 37.1818 36.252 47.6799 34.0973V39.5207C47.6759 39.8359 47.8641 40.1244 48.1604 40.2619C48.4547 40.4051 48.811 40.3765 49.0753 40.1855L65.6517 28.2633C65.8699 28.1067 66 27.8603 66 27.5986C66 27.3349 65.87 27.0882 65.6517 26.9315Z" fill="#2E3092"/>
</svg>
