<svg width="84" height="94" viewBox="0 0 84 94" fill="none" xmlns="http://www.w3.org/2000/svg">
<path fill-rule="evenodd" clip-rule="evenodd" d="M41.8127 39.702C45.6916 39.702 48.8244 42.8465 48.8244 46.7137C48.8244 50.5926 45.6799 53.7254 41.8127 53.7254C37.9455 53.7254 34.801 50.5926 34.801 46.7137C34.801 42.8348 37.9338 39.702 41.8127 39.702ZM11.4337 54.929C14.1798 55.2767 16.6056 56.7259 18.2306 58.8587L24.9767 54.9603C22.4259 49.7767 22.4337 43.6513 24.9767 38.4683L18.2306 34.5699C16.6095 36.7027 14.1798 38.1519 11.4337 38.4996V54.929ZM19.5079 61.0696L26.254 57.1712C29.3985 61.8353 34.5821 65.0071 40.531 65.4056V73.2025C37.7849 73.5502 35.3591 74.9994 33.7341 77.1322L19.5111 68.9174C20.558 66.4174 20.5587 63.5696 19.5079 61.0696ZM18.2306 71.1316L32.4536 79.3464C29.6684 85.9909 34.5474 93.4164 41.8091 93.4164C49.0747 93.4164 53.9611 85.9867 51.1646 79.3464L65.3876 71.1316C67.2665 73.5925 70.204 75.1433 73.4696 75.1433C79.0712 75.1433 83.6216 70.6042 83.6216 64.9913C83.6216 59.8468 79.7857 55.5616 74.7544 54.9213V38.4913C77.0396 38.2061 79.0903 37.1554 80.6411 35.6046C84.602 31.6437 84.602 25.2176 80.6411 21.2496C76.2856 16.8941 69.1101 17.3941 65.3871 22.2808L51.1641 14.066C53.9649 7.4371 49.0899 0 41.8125 0C34.5351 0 29.6605 7.4297 32.457 14.07L18.234 22.2848C16.3551 19.8239 13.4176 18.2731 10.152 18.2731C4.5504 18.2731 0 22.8122 0 28.4251C0 33.5696 3.8359 37.8548 8.8672 38.4951V54.9251C6.582 55.2103 4.5313 56.261 2.9805 57.8118C-0.9804 61.7727 -0.9804 68.1988 2.9805 72.1668C7.3243 76.5184 14.5076 76.0301 18.2306 71.1316ZM4.5976 33.5926C1.8203 30.6043 1.914 25.9598 4.79291 23.0726C7.75381 20.1117 12.5468 20.1117 15.5079 23.0726C18.3946 25.9593 18.4767 30.6038 15.7032 33.5926C15.5001 32.7137 15.3243 32.0809 14.5509 31.4793C12.2228 34.1512 8.08212 34.1512 5.75402 31.4793C4.97668 32.0809 4.79286 32.7137 4.5976 33.5926ZM4.5976 70.1516C1.8203 67.1633 1.914 62.5188 4.79291 59.6316C7.75381 56.6707 12.5468 56.6707 15.5079 59.6316C18.3946 62.5183 18.4767 67.1628 15.7032 70.1516C15.5001 69.2727 15.3243 68.6399 14.5509 68.0383C12.2228 70.7102 8.08212 70.7102 5.75402 68.0383C4.97668 68.6438 4.79286 69.2766 4.5976 70.1516ZM36.2616 88.4286C36.4647 87.5497 36.6405 86.9169 37.4139 86.3153C39.742 88.9872 43.8827 88.9872 46.2108 86.3153C46.9881 86.9169 47.1717 87.5497 47.3631 88.4286C50.1404 85.4403 50.0467 80.7958 47.1678 77.9086C44.2069 74.9477 39.4139 74.9477 36.4528 77.9086C33.5661 80.7953 33.4842 85.4477 36.2616 88.4286ZM67.9256 70.1516C65.1483 67.1633 65.242 62.5188 68.1209 59.6316C71.0818 56.6707 75.8748 56.6707 78.8359 59.6316C81.7226 62.5183 81.8047 67.1628 79.0312 70.1516C78.8281 69.2727 78.6523 68.6399 77.8789 68.0383C75.5508 70.7102 71.4101 70.7102 69.082 68.0383C68.3008 68.6438 68.117 69.2766 67.9256 70.1516ZM67.9256 33.5926C65.1483 30.6043 65.242 25.9598 68.1209 23.0726C71.0818 20.1117 75.8748 20.1117 78.8359 23.0726C81.7226 25.9593 81.8047 30.6038 79.0312 33.5926C78.8281 32.7137 78.6523 32.0809 77.8789 31.4793C75.5508 34.1512 71.4101 34.1512 69.082 31.4793C68.3008 32.0809 68.117 32.7137 67.9256 33.5926ZM36.2616 15.3076C33.4843 12.3193 33.578 7.6748 36.4569 4.7876C39.4178 1.8267 44.2108 1.8267 47.1719 4.7876C50.0586 7.6743 50.1407 12.3188 47.3672 15.3076C47.1641 14.4287 46.9883 13.7959 46.2149 13.1943C43.8868 15.8662 39.7461 15.8662 37.418 13.1943C36.6407 13.7959 36.4569 14.4287 36.2616 15.3076ZM10.1486 24.3974C11.9455 24.3974 13.4025 25.8583 13.4025 27.6513C13.4025 29.4482 11.9416 30.9052 10.1486 30.9052C8.3517 30.9052 6.8947 29.4443 6.8947 27.6513C6.8947 25.8583 8.3517 24.3974 10.1486 24.3974ZM10.1486 60.9594C11.9455 60.9594 13.4025 62.4203 13.4025 64.2133C13.4025 66.0102 11.9416 67.4672 10.1486 67.4672C8.3517 67.4672 6.8947 66.0063 6.8947 64.2133C6.8947 62.4164 8.3517 60.9594 10.1486 60.9594ZM41.8126 79.2324C43.6095 79.2324 45.0665 80.6933 45.0665 82.4863C45.0665 84.2832 43.6056 85.7402 41.8126 85.7402C40.0157 85.7402 38.5587 84.2793 38.5587 82.4863C38.5587 80.6933 40.0157 79.2324 41.8126 79.2324ZM73.4766 60.9594C75.2735 60.9594 76.7305 62.4203 76.7305 64.2133C76.7305 66.0102 75.2696 67.4672 73.4766 67.4672C71.6797 67.4672 70.2227 66.0063 70.2227 64.2133C70.2188 62.4164 71.6797 60.9594 73.4766 60.9594ZM73.4766 24.3974C75.2735 24.3974 76.7305 25.8583 76.7305 27.6513C76.7305 29.4482 75.2696 30.9052 73.4766 30.9052C71.6797 30.9052 70.2227 29.4443 70.2227 27.6513C70.2188 25.8583 71.6797 24.3974 73.4766 24.3974ZM41.8126 6.1124C43.6095 6.1124 45.0665 7.5733 45.0665 9.3663C45.0665 11.1632 43.6056 12.6202 41.8126 12.6202C40.0157 12.6202 38.5587 11.1593 38.5587 9.3663C38.5587 7.5694 40.0157 6.1124 41.8126 6.1124ZM19.5076 24.5104L33.7306 16.2956C35.3517 18.4284 37.7814 19.8776 40.5275 20.2253V28.0222C34.5783 28.4206 29.3945 31.5925 26.2505 36.2566L19.5044 32.3582C20.5591 29.8582 20.5584 27.0104 19.5076 24.5104ZM49.8946 16.2956L64.1176 24.5104C63.0668 27.0104 63.0668 29.8581 64.1176 32.3659L57.3715 36.2643C54.227 31.6002 49.0434 28.4284 43.0945 28.0299V20.233C45.8445 19.8775 48.2735 18.4284 49.8946 16.2956ZM72.1916 38.4986V54.9286C69.4455 55.2763 67.0197 56.7255 65.3947 58.8583L58.6486 54.9599C61.1916 49.7763 61.1994 43.6509 58.6486 38.4679L65.3947 34.5695C67.0158 36.7023 69.4455 38.1509 72.1916 38.4986ZM64.1174 68.9166L49.8944 77.1314C48.2733 74.9986 45.8436 73.5494 43.0975 73.2017V65.4048C49.0467 65.0064 54.2305 61.8345 57.3745 57.1704L64.1206 61.0688C63.0659 63.5688 63.0666 66.4166 64.1174 68.9166ZM40.3014 60.6744H43.3209C43.8717 60.6744 44.3326 60.2682 44.4029 59.7135L44.6177 57.9674C45.7505 57.6822 46.8208 57.2447 47.7896 56.651L49.1763 57.733C49.6138 58.0689 50.2271 58.0377 50.6138 57.6392L52.7583 55.4947C53.1451 55.108 53.188 54.4947 52.8521 54.0572L51.7701 52.6705C52.3521 51.7018 52.8013 50.6314 53.0865 49.4986L54.8326 49.2838C55.3834 49.2135 55.7935 48.7525 55.7935 48.2018V45.1823C55.7935 44.6315 55.3873 44.1706 54.8326 44.1003L53.0865 43.8854C52.8013 42.7526 52.3638 41.6823 51.7701 40.7135L52.8521 39.3268C53.188 38.8893 53.1568 38.276 52.7583 37.8893L50.6138 35.7448C50.2271 35.3581 49.6138 35.3151 49.1763 35.6511L47.7896 36.7331C46.8209 36.1393 45.7505 35.7019 44.6177 35.4167L44.4029 33.6706C44.3326 33.1198 43.8717 32.7096 43.3209 32.7096H40.3014C39.7506 32.7096 39.2897 33.1159 39.2194 33.6706L39.0046 35.4167C37.8718 35.7018 36.8015 36.1393 35.8327 36.7331L34.446 35.6511C34.0085 35.3151 33.3952 35.3464 33.0085 35.7448L30.864 37.8893C30.4772 38.2761 30.4343 38.8893 30.7702 39.3268L31.8522 40.7135C31.2702 41.6823 30.821 42.7526 30.5358 43.8854L28.7897 44.1003C28.2389 44.1706 27.8288 44.6315 27.8288 45.1823V48.2018C27.8288 48.7526 28.235 49.2135 28.7897 49.2838L30.5358 49.4986C30.821 50.6314 31.2585 51.7017 31.8522 52.6705L30.7702 54.0572C30.4343 54.4947 30.4655 55.108 30.864 55.4947L33.0085 57.6392C33.3952 58.0259 34.0085 58.0689 34.446 57.733L35.8327 56.651C36.8014 57.233 37.8718 57.6822 39.0046 57.9674L39.2194 59.7135C39.2819 60.276 39.7506 60.6744 40.3014 60.6744ZM37.8014 48.1514L39.6295 49.9053C40.3522 50.6084 41.5162 50.5772 42.2233 49.8545L45.8678 46.1006C46.5709 45.378 46.5514 44.2139 45.8287 43.5068C45.1061 42.8037 43.942 42.8232 43.2349 43.5459L40.8482 45.9951L40.3287 45.4951C39.606 44.792 38.442 44.8232 37.7349 45.5459C37.0474 46.2959 37.0787 47.4482 37.8014 48.1514Z" fill="#2E3092"/>
</svg>
