<svg width="100" height="82" viewBox="0 0 100 82" fill="none" xmlns="http://www.w3.org/2000/svg">
<path fill-rule="evenodd" clip-rule="evenodd" d="M97.142 18.6783C95.9506 18.6783 94.9266 19.4089 94.5009 20.4415C94.4329 20.4279 94.3605 20.4189 94.288 20.4189H86.3148V20.4234C86.052 20.4234 85.7893 20.5136 85.5809 20.703L81.0914 24.7344H78.4729C78.935 19.9229 78.8082 14.9671 78.2102 10.0019L49.9961 0L33.1752 5.96147L35.1459 12.6263C35.1957 12.7977 35.1413 12.969 35.0054 13.0863L31.8342 15.7649C31.6983 15.8776 31.6485 16.0489 31.6938 16.2203L32.6678 19.7287C32.7267 19.9316 32.6315 20.139 32.4413 20.2382C32.2555 20.3374 32.029 20.2878 31.8977 20.1255L27.5712 14.8992C27.4353 14.7323 27.4353 14.4933 27.5803 14.331L30.1353 11.3953C30.2622 11.251 30.2803 11.0526 30.1852 10.8857L28.3277 7.67961L21.7816 10.0019C21.1791 14.9938 21.0567 19.9452 21.5188 24.7345H18.9004L14.4154 20.703C14.207 20.5137 13.9397 20.4235 13.6815 20.4235V20.419H5.70833C5.63584 20.419 5.56336 20.428 5.49541 20.4415C5.06957 19.4088 4.05026 18.6784 2.85434 18.6784C1.27779 18.6784 0.000336228 19.9501 0.000336228 21.5193C0.000336228 23.0841 1.2779 24.3556 2.85434 24.3556C4.04574 24.3556 5.06967 23.6251 5.49541 22.5925C5.56336 22.606 5.63584 22.6151 5.70833 22.6151H13.2602L17.7043 26.6058C17.9037 26.8043 18.18 26.926 18.479 26.926H30.3663C30.9734 26.926 31.4672 27.4175 31.4672 28.0218C31.4672 28.6261 30.9734 29.1176 30.3663 29.1176H22.1077C22.3478 30.4749 22.6423 31.8187 22.9866 33.14L9.8212 33.1355C9.74872 33.1355 9.68077 33.1445 9.61281 33.158C9.18696 32.1254 8.16314 31.3949 6.97174 31.3949C5.39519 31.3949 4.11773 32.6666 4.11773 34.2358C4.11773 35.805 5.3953 37.0722 6.97174 37.0722C8.16314 37.0722 9.18707 36.3416 9.61281 35.309C9.68076 35.3226 9.75324 35.3316 9.8212 35.3316H30.366C30.973 35.3316 31.4668 35.8231 31.4668 36.4274C31.4668 37.0316 30.973 37.5232 30.366 37.5232H24.3589C24.8663 38.8895 25.4371 40.2334 26.0804 41.5411L18.4787 41.5366C18.1751 41.5366 17.8988 41.6583 17.704 41.8567L13.2599 45.8475H5.70799C5.63551 45.8475 5.56302 45.8565 5.49508 45.8701C5.06923 44.8374 4.04992 44.1069 2.854 44.1069C1.27745 44.1069 0 45.3786 0 46.9433C0 48.5126 1.27757 49.7842 2.854 49.7842C4.0454 49.7842 5.06933 49.0537 5.49508 48.0211C5.56303 48.0346 5.63551 48.0436 5.70799 48.0436H13.6812C13.9439 48.0436 14.2067 47.9489 14.4151 47.764L18.9 43.7371H30.366C30.9731 43.7371 31.4669 44.2286 31.4669 44.8329C31.4669 45.4372 30.9731 45.9287 30.366 45.9287H28.5585C31.6481 50.6861 35.8113 54.916 41.2158 58.4021L45.7778 50.5377C46.6612 49.0135 48.2287 48.1115 49.9954 48.1115C51.7622 48.1115 53.3342 49.0134 54.2176 50.5377L58.775 58.4021C64.1977 54.9073 68.3564 50.673 71.437 45.9287H69.6249C69.0179 45.9287 68.5241 45.4372 68.5241 44.8329C68.5241 44.2286 69.0179 43.7371 69.6249 43.7371H81.0954L85.5849 47.764C85.7933 47.9534 86.056 48.0436 86.3188 48.0436H94.292C94.3645 48.0436 94.437 48.0346 94.5049 48.0211C94.9308 49.0537 95.9546 49.7842 97.146 49.7842C98.7225 49.7842 100 48.5125 100 46.9433C100 45.374 98.7224 44.1069 97.146 44.1069C95.9546 44.1069 94.9307 44.8375 94.5049 45.8701C94.437 45.8565 94.3645 45.8475 94.292 45.8475H86.7401L82.296 41.8567C82.0967 41.6583 81.8203 41.5366 81.5168 41.5366H73.9151C74.5584 40.2243 75.1292 38.885 75.6321 37.5186H69.625C69.0179 37.5186 68.5241 37.0271 68.5241 36.4229C68.5241 35.8186 69.0179 35.3271 69.625 35.3271H90.1698C90.2422 35.3271 90.3147 35.3181 90.3827 35.3045C90.8085 36.3372 91.8278 37.0677 93.0237 37.0677C94.5958 37.0677 95.8732 35.796 95.8732 34.2313C95.8732 32.662 94.5957 31.3904 93.0237 31.3904C91.8323 31.3904 90.8084 32.1209 90.3827 33.1535C90.3147 33.14 90.2422 33.131 90.1743 33.131L77.0054 33.1355C77.3543 31.8143 77.6442 30.4704 77.8843 29.1131H69.6257C69.0186 29.1131 68.5248 28.6215 68.5248 28.0173C68.5248 27.413 69.0186 26.9215 69.6257 26.9215H81.513C81.8165 26.9215 82.0929 26.7997 82.2922 26.6013L86.7363 22.6105H94.2882C94.3607 22.6105 94.4332 22.6015 94.5011 22.588C94.927 23.6206 95.9508 24.3511 97.1422 24.3511C98.7187 24.3511 99.9962 23.0794 99.9962 21.5147C99.9962 19.9499 98.7184 18.6783 97.142 18.6783ZM35.4357 26.2948C35.4357 24.8698 36.6045 23.7064 38.0361 23.7064H44.1247V17.984C44.1247 14.7687 46.7658 12.1443 49.9914 12.1443C53.217 12.1443 55.858 14.7732 55.858 17.984V23.7064H61.9467C63.3783 23.7064 64.547 24.8743 64.547 26.2948V42.1633C64.547 43.5883 63.3783 44.7517 61.9467 44.7517L38.041 44.7562C36.6094 44.7562 35.4406 43.5883 35.4406 42.1678C35.4361 36.8738 35.4357 31.5843 35.4357 26.2948ZM39.7349 23.7064V17.984C39.7349 12.3652 44.3512 7.77012 49.9959 7.77012C55.6406 7.77012 60.2569 12.3652 60.2569 17.984V23.7064H39.7349ZM52.1429 33.1851H52.1384L52.1339 33.1896C51.8394 33.4827 51.4861 33.7172 51.0919 33.866V39.3269C51.0919 39.9312 50.6027 40.4227 49.9911 40.4227C49.384 40.4227 48.8902 39.9312 48.8902 39.3269L48.8948 33.8705C48.5052 33.7172 48.1518 33.4872 47.8573 33.1941L47.8483 33.1851H47.8437C47.2956 32.6349 46.9558 31.8819 46.9558 31.0521C46.9558 30.2269 47.2911 29.4738 47.8392 28.9236L47.8528 28.9101C48.401 28.3644 49.162 28.0262 49.9911 28.0262C50.7885 28.0262 51.5178 28.3374 52.0569 28.8424C52.084 28.865 52.1112 28.8875 52.1384 28.9146C52.6866 29.4602 53.0263 30.2178 53.0263 31.0521C53.0263 31.8773 52.6911 32.6304 52.1429 33.1806L52.1429 33.1851ZM52.2924 51.6325L59.9531 64.8366L67.6092 78.0407C68.0985 78.8795 68.0985 79.84 67.6092 80.6788C67.1245 81.5175 66.2864 82 65.3124 82L49.9957 81.9955H34.679C33.705 81.9955 32.8715 81.5175 32.3822 80.6743C31.8929 79.8355 31.8929 78.875 32.3822 78.0362L40.0383 64.8321L47.6989 51.628C48.1837 50.7893 49.0217 50.3068 49.9958 50.3068C50.9698 50.3113 51.8031 50.7938 52.2924 51.6325ZM49.9956 74.2924C49.017 74.2924 48.2198 75.0815 48.2198 76.06C48.2198 77.0385 49.0126 77.8276 49.9956 77.8276C50.9741 77.8276 51.7714 77.0385 51.7714 76.06C51.7714 75.0815 50.974 74.2924 49.9956 74.2924ZM49.9956 71.6724C49.1711 71.6724 48.5369 71.0005 48.496 70.1798L48.0339 60.8318C47.9615 59.3391 48.641 58.1126 49.9955 58.1126C51.3501 58.1126 52.0296 59.3391 51.9526 60.8318L51.4905 70.1798C51.4543 71.0005 50.8201 71.6724 49.9956 71.6724Z" fill="#2E3092"/>
</svg>
