<svg width="76" height="76" viewBox="0 0 76 76" fill="none" xmlns="http://www.w3.org/2000/svg">
<path fillRule="evenodd" clipRule="evenodd" d="M59.2652 18.3392H75.3706V0.609323H57.6654V16.4063L53.3027 20.7703C53.9094 21.341 54.4997 21.9314 55.0702 22.5384L59.2652 18.3392ZM0.626929 75.3947H18.3321V59.2642L22.6025 55.0122C21.976 54.4614 21.389 53.8709 20.835 53.2442L16.4194 57.661L0.627182 57.6643L0.626929 75.3947ZM7.06716 60.0031H11.8915V63.4633L9.48096 62.7079L7.07037 63.4633L7.06716 60.0031ZM12.3499 70.0012H15.9575V72.5048H12.3499V70.0012ZM0.626676 18.3384H16.6401L20.838 22.5375C21.392 21.9306 21.979 21.3401 22.6056 20.7694L18.3352 16.5175L18.3319 0.608225H0.62667L0.626676 18.3384ZM7.06691 2.94674H11.8913V6.407L9.4807 5.65162L7.07012 6.407L7.06691 2.94674ZM12.3497 12.9415H15.9572V15.4485H12.3497V12.9415ZM57.6658 75.3938H75.3709V57.664H59.4867L55.0711 53.2471C54.5007 53.8705 53.9104 54.461 53.3036 55.0152L57.6664 59.3793L57.6658 75.3938ZM64.106 60.0022H68.9271V63.4625L66.5165 62.7071L64.1059 63.4625L64.1092 60.0022H64.106ZM69.3888 70.0004H72.9963V72.504H69.3888V70.0004ZM38.0086 17.0312C43.7893 17.0312 49.0354 19.3897 52.8249 23.1797C56.6172 26.9731 58.9552 32.2178 58.9552 38.0005C58.9552 43.8027 56.6172 49.0306 52.8249 52.8213C49.036 56.6147 43.7896 58.9698 38.0086 58.9698C32.2113 58.9698 26.9649 56.6146 23.1762 52.8213C19.3839 49.0312 17.0459 43.7993 17.0459 38.0005C17.0459 32.2213 19.3839 26.9729 23.1762 23.1797C26.9651 19.3863 32.2115 17.0312 38.0086 17.0312ZM51.0572 24.928C48.9038 22.774 46.1998 21.1379 43.1825 20.2704C44.2509 21.7614 45.0984 23.6779 45.758 25.8681C46.0712 26.9897 46.3449 28.1673 46.5692 29.4009C47.8025 29.622 48.9995 29.899 50.1042 30.2289C52.3136 30.8721 54.2262 31.7397 55.7366 32.8051C54.8495 29.7869 53.2303 27.1018 51.0572 24.928ZM38.4138 19.5348H38.0082H37.5828C37.5663 19.5348 37.53 19.5546 37.5102 19.5546C35.3569 20.2012 33.718 22.906 32.6331 26.5708C32.4121 27.3426 32.2077 28.1705 32.0263 29.0018C33.9785 28.7808 35.9835 28.672 38.0082 28.672C40.0131 28.672 42.0214 28.7808 43.9703 29.0018C43.7856 28.1739 43.5844 27.3459 43.3635 26.5708C42.2785 22.906 40.6396 20.2011 38.4864 19.5546C38.4666 19.5513 38.4303 19.5348 38.4138 19.5348ZM32.8177 20.2704C29.8004 21.1379 27.1129 22.774 24.9398 24.928C22.7864 27.1018 21.1475 29.7869 20.2637 32.8083C21.7707 31.7396 23.7064 30.8753 25.896 30.2321C27.0172 29.9023 28.1978 29.6252 29.4311 29.4042C29.652 28.1705 29.929 26.9929 30.2588 25.8714C30.9018 23.6745 31.7493 21.7614 32.8177 20.2704ZM19.5285 37.6338V38V38.3133C19.545 38.3694 19.5648 38.4255 19.5846 38.4618C20.2276 40.6158 22.935 42.2551 26.5986 43.3436C27.3702 43.5646 28.1814 43.7659 29.0289 43.9506C28.808 41.9978 28.6794 39.9923 28.6794 37.9834C28.6794 35.9581 28.808 33.9526 29.0289 32.0196C28.1814 32.1845 27.3736 32.389 26.5986 32.6067C22.935 33.692 20.2309 35.3314 19.5846 37.4853C19.5648 37.5381 19.5483 37.5744 19.5285 37.6338ZM20.2474 43.1359C21.1312 46.1772 22.7701 48.882 24.9399 51.0722C27.1097 53.2427 29.8369 54.8854 32.8739 55.7464C31.7692 54.2356 30.902 52.3027 30.2589 50.0728C29.9258 48.9677 29.6521 47.7934 29.4312 46.5564C28.1979 46.3189 27.0206 46.0419 25.8961 45.7285C23.69 45.0688 21.7544 44.2046 20.2474 43.1359ZM37.712 56.4654C37.8043 56.4654 37.8966 56.4818 38.0055 56.4818C38.0978 56.4818 38.1901 56.4654 38.2825 56.4654C38.355 56.4456 38.4111 56.4093 38.4836 56.3895C40.637 55.766 42.2759 53.0381 43.3607 49.3767C43.5817 48.6015 43.7828 47.7933 43.9675 46.9456C42.0153 47.1831 40.0104 47.2952 38.0054 47.2952C35.9807 47.2952 33.9758 47.1831 32.0236 46.9456C32.2082 47.7933 32.4094 48.6015 32.6303 49.3767C33.7153 53.0381 35.3542 55.7627 37.5075 56.3895C37.5833 56.4126 37.6394 56.4489 37.712 56.4654ZM43.1431 55.7495C46.1803 54.8853 48.8843 53.2459 51.0574 51.0754C53.2305 48.8818 54.8694 46.177 55.7532 43.139C54.2429 44.2077 52.3138 45.072 50.1044 45.735C48.9997 46.0451 47.8026 46.3221 46.5891 46.5629C46.3484 47.7999 46.0747 48.9742 45.7614 50.0793C45.0953 52.3025 44.2281 54.2388 43.1431 55.7495ZM56.4687 38.3135V38.0002V37.634C56.4489 37.578 56.4324 37.5417 56.4126 37.4856C55.7663 35.3316 53.0622 33.6922 49.3986 32.607C48.6269 32.386 47.8157 32.1848 46.9682 32.0199C47.1892 33.9529 47.3178 35.9584 47.3178 37.9837C47.3178 39.9926 47.1892 41.9981 46.9682 43.9509C47.8157 43.7662 48.6269 43.5616 49.3986 43.3439C53.0622 42.2587 55.7663 40.616 56.4126 38.4621C56.4324 38.4225 56.4489 38.3696 56.4687 38.3135ZM44.3925 31.5745C42.348 31.2974 40.1782 31.149 38.0051 31.149C35.8154 31.149 33.6423 31.2974 31.6011 31.5745C31.3043 33.6196 31.1757 35.7901 31.1757 37.9803C31.1757 40.1541 31.3043 42.3245 31.6011 44.3862C33.6424 44.6632 35.8155 44.7919 38.0051 44.7919C40.1749 44.7919 42.348 44.6633 44.3925 44.3862C44.686 42.3245 44.8146 40.1508 44.8146 37.9803C44.8179 35.79 44.6893 33.6361 44.3925 31.5745ZM38.0084 0C39.5549 0 40.9531 0.626735 41.9655 1.6361C42.9977 2.64876 43.6209 4.06716 43.6209 5.61418C43.6209 7.16119 42.9976 8.5796 41.9655 9.59225C41.2301 10.3278 40.2705 10.8787 39.2054 11.103V14.9328C38.7833 14.913 38.3777 14.8965 37.9556 14.8965C37.5335 14.8965 37.1279 14.913 36.7025 14.9328V11.0833C35.6736 10.8458 34.7503 10.3114 34.0347 9.59234C33.0025 8.57969 32.376 7.16128 32.376 5.61426C32.376 4.06725 33.0026 2.64884 34.0347 1.63619C35.0437 0.626828 36.442 0 38.0084 0ZM60.9036 36.6377H64.9168C65.174 35.6449 65.6885 34.7411 66.4073 34.0219C67.4197 33.0126 68.8179 32.3858 70.3842 32.3858C71.9308 32.3858 73.329 33.0126 74.3611 34.0219C75.3734 35.0346 76 36.453 76 38C76 39.547 75.3735 40.9654 74.3611 41.9781C73.3289 42.9907 71.9308 43.6175 70.3842 43.6175C68.8178 43.6175 67.4197 42.9907 66.4073 41.9781C65.6357 41.2227 65.1014 40.2298 64.8805 39.1446H60.9036C60.9234 38.719 60.9399 38.3166 60.9399 37.8944C60.9399 37.4655 60.9234 37.06 60.9036 36.6377ZM39.2054 60.8495V64.9002C40.2738 65.1213 41.2301 65.6721 41.9655 66.411C42.9977 67.4402 43.6209 68.8421 43.6209 70.3891C43.6209 71.9328 42.9976 73.3512 41.9655 74.3672C40.9531 75.3765 39.5549 76 38.0084 76C36.442 76 35.0438 75.3766 34.0315 74.3639C32.9993 73.3512 32.3728 71.9328 32.3728 70.3858C32.3728 68.8388 32.9994 67.4402 34.0315 66.4077C34.7503 65.6853 35.6704 65.1543 36.6993 64.9135V60.8463C37.1247 60.8661 37.527 60.8826 37.9524 60.8826C38.3745 60.8859 38.78 60.866 39.2054 60.8495ZM15.0008 39.1415H11.1162C10.8953 40.2268 10.361 41.2229 9.5894 41.975C8.57705 42.9877 7.17882 43.6144 5.61251 43.6144C4.06595 43.6144 2.66772 42.9877 1.65537 41.975C0.626473 40.9657 0 39.5473 0 38.0003C0 36.4532 0.626549 35.0348 1.65537 34.0222C2.66772 33.0128 4.06595 32.3861 5.61251 32.3861C7.17561 32.3861 8.57705 33.0128 9.5894 34.0222C10.3083 34.7413 10.8227 35.6418 11.0799 36.638H15.0007C14.981 37.0635 14.9612 37.466 14.9612 37.8915C14.9645 38.3137 14.981 38.716 15.0008 39.1415ZM7.82192 35.7901C7.27122 35.2194 6.47645 34.8698 5.61251 34.8698C4.74857 34.8698 3.9736 35.2195 3.4031 35.7901C2.8524 36.3608 2.50285 37.136 2.50285 38.0002C2.50285 38.8677 2.8524 39.6396 3.4031 40.2102C3.97358 40.7809 4.74857 41.1305 5.61251 41.1305C6.47645 41.1305 7.26788 40.7809 7.82192 40.2102C8.39241 39.6363 8.74192 38.8644 8.74192 38.0002C8.74192 37.136 8.39237 36.3608 7.82192 35.7901ZM40.2177 68.1761C39.6472 67.6054 38.8558 67.2524 38.0083 67.2524C37.1443 67.2524 36.3529 67.6021 35.7791 68.1761C35.2284 68.7467 34.8789 69.522 34.8789 70.3862C34.8789 71.2504 35.2284 72.042 35.7791 72.5929C36.3496 73.1636 37.141 73.5166 38.0083 73.5166C38.8558 73.5166 39.6472 73.1636 40.2177 72.5929C40.7717 72.0421 41.1179 71.2471 41.1179 70.3862C41.1179 69.5187 40.7684 68.7468 40.2177 68.1761ZM72.5907 35.7901C72.0202 35.2194 71.2452 34.8698 70.3812 34.8698C69.5173 34.8698 68.7259 35.2195 68.1718 35.7901C67.6013 36.3608 67.2518 37.136 67.2518 38.0002C67.2518 38.8677 67.6014 39.6396 68.1718 40.2102C68.7225 40.7809 69.5173 41.1305 70.3812 41.1305C71.2452 41.1305 72.0202 40.7809 72.5907 40.2102C73.1447 39.6363 73.4909 38.8644 73.4909 38.0002C73.4942 37.136 73.1447 36.3608 72.5907 35.7901ZM40.2177 3.40411C39.6472 2.83345 38.8558 2.48384 38.0083 2.48384C37.1443 2.48384 36.3529 2.83349 35.7791 3.40411C35.2284 3.97477 34.8789 4.74998 34.8789 5.61418C34.8789 6.47838 35.2284 7.25358 35.7791 7.82425C36.3496 8.39491 37.141 8.74452 38.0083 8.74452C38.8558 8.74452 39.6472 8.39487 40.2177 7.82425C40.7717 7.25359 41.1179 6.48176 41.1179 5.61418C41.1179 4.74998 40.7684 3.97478 40.2177 3.40411ZM64.1057 2.9456H68.9268V6.40587L66.5162 5.65049L64.1056 6.40587L64.1089 2.9456H64.1057ZM69.3885 12.9404H72.996V15.4474H69.3885V12.9404Z" fill="#2E3092"/>
</svg>
