<svg width="91" height="91" viewBox="0 0 91 91" fill="none" xmlns="http://www.w3.org/2000/svg">
<path d="M89.0625 43.75H87.125C86.7148 33.207 82.3438 23.203 74.883 15.742C67.4221 8.2811 57.418 3.91 46.875 3.5V1.5625C46.875 0.69922 46.1758 0 45.3125 0C44.4492 0 43.75 0.69922 43.75 1.5625V3.5C33.207 3.91016 23.203 8.2812 15.742 15.742C8.2811 23.2029 3.91 33.207 3.5 43.75H1.5625C0.69922 43.75 0 44.4492 0 45.3125C0 46.1758 0.69922 46.875 1.5625 46.875H3.5C3.91016 57.418 8.2812 67.422 15.742 74.883C23.2029 82.3439 33.207 86.715 43.75 87.125V89.0625C43.75 89.9258 44.4492 90.625 45.3125 90.625C46.1758 90.625 46.875 89.9258 46.875 89.0625V87.125C57.418 86.7148 67.422 82.3438 74.883 74.883C82.3439 67.4221 86.715 57.418 87.125 46.875H89.0625C89.9258 46.875 90.625 46.1758 90.625 45.3125C90.625 44.4492 89.9258 43.75 89.0625 43.75ZM45.3125 75.406C37.332 75.406 29.6755 72.2341 24.0315 66.5935C18.3909 60.949 15.219 53.2925 15.219 45.3125C15.219 37.3325 18.3909 29.6755 24.0315 24.0315C29.676 18.3909 37.3325 15.219 45.3125 15.219C53.2925 15.219 60.9495 18.3909 66.5935 24.0315C72.2341 29.676 75.406 37.3325 75.406 45.3125C75.3982 53.293 72.2263 60.9415 66.5818 66.5825C60.9412 72.227 53.2935 75.3982 45.3125 75.406Z" fill="#2E3092"/>
<path d="M54.6873 40.624H54.1404C56.5506 37.2959 56.8904 32.8974 55.0232 29.237C53.1521 25.5768 49.3904 23.2722 45.281 23.2722C41.1716 23.2722 37.4099 25.5769 35.5388 29.237C33.6716 32.8972 34.0115 37.2956 36.4216 40.624C36.2654 40.624 36.0935 40.624 35.9372 40.7178C30.9724 41.874 27.2067 45.9287 26.4177 50.9638C25.6326 55.999 27.9841 61.0108 32.3591 63.6238C36.3474 66.0027 40.9138 67.2332 45.5541 67.1863C50.1986 67.1355 54.7338 65.8035 58.6711 63.3425C62.9133 60.7136 65.1047 55.7487 64.1867 50.8425C63.4367 45.7995 59.6639 41.7375 54.6873 40.624ZM45.3123 26.562C48.4256 26.5933 51.2185 28.4878 52.3943 31.3706C53.5701 34.2573 52.906 37.562 50.7029 39.7651C48.4997 41.9682 45.1951 42.6323 42.3084 41.4565C39.4256 40.2807 37.5311 37.4877 37.4998 34.3745C37.4724 32.2964 38.2888 30.2925 39.7615 28.8237C41.2303 27.351 43.2342 26.5346 45.3123 26.562Z" fill="#2E3092"/>
</svg>
