<svg width="81" height="88" viewBox="0 0 81 88" fill="none" xmlns="http://www.w3.org/2000/svg">
<path d="M33.0361 14.7692H34.3603V25.7922H34.3642C34.3642 26.6164 35.0321 27.2805 35.8525 27.2844H42.8994C43.7197 27.2805 44.3877 26.6164 44.3877 25.7922V14.7692H45.7315C46.5361 14.7926 47.2862 14.3746 47.6885 13.6754C48.0908 12.9761 48.0752 12.1168 47.6494 11.4332L40.6338 0.66016C40.3525 0.2461 39.8838 0 39.3838 0C38.8838 0 38.415 0.24609 38.1299 0.66016L31.0987 11.4452V11.4491C30.6846 12.1327 30.6768 12.9921 31.0831 13.6835C31.4854 14.3788 32.2353 14.7927 33.0361 14.7692Z" fill="#2E3092"/>
<path d="M80.0828 27.7451L73.0516 16.9751V16.9712C72.7586 16.5728 72.2938 16.3345 71.8016 16.3345C71.3055 16.3345 70.8407 16.5728 70.5477 16.9712L63.5321 27.7442C63.1024 28.3926 63.0673 29.2247 63.4422 29.9044C64.0555 31.1739 65.5672 31.1271 66.7781 31.0802V42.1662C66.7781 42.6506 67.0203 43.1076 67.4188 43.385L74.4813 48.2717C74.9383 48.5803 75.5282 48.6115 76.0125 48.3576C76.5007 48.0998 76.8093 47.5998 76.8211 47.0529V31.0799H78.1453C78.9538 31.1073 79.7078 30.6854 80.1101 29.9901C80.5163 29.2948 80.5046 28.4315 80.0827 27.744L80.0828 27.7451Z" fill="#2E3092"/>
<path d="M13.625 42.1671V31.0811H14.9492C15.7539 31.1006 16.5 30.6788 16.9023 29.9834C17.3007 29.2881 17.289 28.4287 16.871 27.7451L9.85545 16.9751V16.9712C9.56248 16.5728 9.09764 16.3345 8.60545 16.3345C8.10936 16.3345 7.64451 16.5728 7.35155 16.9712L0.335947 27.7442C-0.0937427 28.4278 -0.113273 29.2911 0.289073 29.9903C0.695323 30.6895 1.44927 31.1114 2.25787 31.0801H3.58207V47.0531C3.59379 47.6 3.90238 48.1 4.39066 48.3578C4.87894 48.6117 5.46486 48.5805 5.92186 48.2719L12.9844 43.3852C13.3828 43.1078 13.625 42.6515 13.625 42.1671Z" fill="#2E3092"/>
<path d="M65.2579 51.6241H61.8907C61.4493 50.171 60.8634 48.7647 60.1485 47.4249L62.5157 45.0694H62.5196C63.8008 43.7882 63.8008 41.7061 62.5196 40.421L57.4688 35.4015C56.1836 34.1203 54.1055 34.1203 52.8204 35.4015L50.4532 37.757H50.4493C49.1095 37.0382 47.6954 36.4601 46.2345 36.0265V32.6906C46.2345 30.8742 44.7618 29.3976 42.9415 29.3976H35.8087C33.9884 29.3976 32.5157 30.8742 32.5157 32.6906V36.0265C31.0548 36.464 29.6446 37.0421 28.2969 37.757L25.9297 35.4015C24.6445 34.1203 22.5664 34.1203 21.2813 35.4015L16.2305 40.421C14.9688 41.714 14.9688 43.7765 16.2305 45.0694L18.5977 47.4249H18.6016C17.8867 48.7647 17.3008 50.171 16.8555 51.6241H13.5039C12.6328 51.6241 11.7969 51.9678 11.1797 52.5811C10.5625 53.1944 10.2148 54.0303 10.2109 54.9014V62.0108C10.2188 63.8233 11.6914 65.2881 13.5039 65.2881H16.8555C17.3008 66.7412 17.8867 68.1475 18.6016 69.4873C17.5938 70.6201 15.0782 72.3701 15.2813 74.167H15.2774C15.2774 75.0342 15.6212 75.8701 16.2306 76.4912L21.2814 81.5107C22.5666 82.7919 24.6447 82.7919 25.9298 81.5107L28.297 79.1435V79.1396C29.6447 79.8545 31.0587 80.4365 32.5158 80.8857V84.2216C32.5158 85.0927 32.8634 85.9286 33.4806 86.5419C34.0978 87.1591 34.9337 87.5028 35.8087 87.4989H42.9454H42.9415C43.8126 87.5028 44.6524 87.1591 45.2696 86.5419C45.8868 85.9286 46.2344 85.0927 46.2344 84.2216V80.8857C47.6914 80.4404 49.1055 79.8584 50.4492 79.1396L52.832 81.5068L52.8359 81.5107C53.4492 82.124 54.2812 82.4717 55.1523 82.4717C56.0195 82.4717 56.8554 82.124 57.4687 81.5107L62.5195 76.4912C65.0898 73.6592 62.125 71.4131 60.1523 69.4912L60.1484 69.4873C60.8633 68.1475 61.4492 66.7412 61.8945 65.2881H65.2578C67.0664 65.2803 68.5312 63.8154 68.5351 62.0108V54.9014C68.5351 53.0928 67.0704 51.6241 65.2579 51.6241ZM39.3829 71.0651C32.4024 71.0729 26.7379 65.4284 26.7189 58.4481C27.4259 41.7331 51.3239 41.7211 52.0309 58.4481C52.0113 65.4208 46.3551 71.0651 39.3829 71.0651Z" fill="#2E3092"/>
<path d="M39.3828 48.8231C34.0547 48.8192 29.7226 53.12 29.6992 58.4481C30.1562 71.1981 48.6052 71.2101 49.0512 58.4481C49.0317 53.1239 44.707 48.8192 39.3828 48.8231Z" fill="#2E3092"/>
</svg>
