<svg width="50" height="39" viewBox="0 0 50 39" fill="none" xmlns="http://www.w3.org/2000/svg">
<path fill-rule="evenodd" clip-rule="evenodd" d="M36.4912 10.7368H3.61422V36.0859C3.61422 36.5875 4.01624 36.9934 4.51308 36.9955H35.5924C36.0893 36.9934 36.4913 36.5875 36.4913 36.0859L36.4912 10.7368ZM3.61422 9.52539H36.4912V9.0279H3.61422V9.52539ZM16.9797 7.81645L14.683 3.79903H4.51271C4.01585 3.80111 3.61385 4.20701 3.61385 4.70657V7.8164L16.9797 7.81645ZM16.0643 3.79903H35.5921C36.089 3.80111 36.491 4.20701 36.491 4.70657V7.8164H18.3628L16.0662 3.79897L16.0643 3.79903ZM20.6947 21.0259L20.6968 24.217H19.031L19.029 21.0259H20.6947ZM18.4269 19.8145H21.2967C21.6266 19.8145 21.8966 20.0851 21.8966 20.4202V24.8227C21.8966 24.985 21.8327 25.1391 21.7214 25.2515C21.608 25.366 21.4555 25.4284 21.2967 25.4284H18.429C18.097 25.4284 17.829 25.1578 17.829 24.8227V20.4202C17.829 20.0851 18.0971 19.8145 18.429 19.8145L18.4269 19.8145ZM25.1667 15.4661V24.217H23.5009V15.4661H25.1667ZM22.8988 14.2546H25.7666C26.0964 14.2546 26.3665 14.5252 26.3665 14.8604V24.8225C26.3665 24.9849 26.3026 25.1389 26.1913 25.2513C26.0779 25.3658 25.9253 25.4283 25.7666 25.4283H22.8968C22.738 25.4283 22.5855 25.3658 22.4721 25.2513C22.3607 25.1389 22.2968 24.9849 22.2968 24.8225V14.8604C22.2968 14.5252 22.5648 14.2546 22.8968 14.2546H22.8988ZM29.6344 17.5268V24.2171H27.9686L27.9665 17.5268H29.6344ZM27.3665 16.3154H30.2343C30.5641 16.3154 30.8322 16.586 30.8322 16.919V24.8227C30.8342 24.985 30.7703 25.1391 30.6569 25.2515C30.5456 25.366 30.393 25.4284 30.2322 25.4284H27.3645C27.0326 25.4284 26.7646 25.1578 26.7646 24.8227V16.919C26.7646 16.586 27.0326 16.3133 27.3645 16.3133L27.3665 16.3154ZM34.1 13.5428V24.2169H32.4342V13.5428H34.1ZM31.8342 12.3313H34.7019C35.0318 12.3313 35.2998 12.604 35.2998 12.937V24.8229C35.2998 24.9832 35.238 25.1372 35.1246 25.2517C35.0112 25.3662 34.8586 25.4286 34.6999 25.4286H31.8342C31.6734 25.4286 31.5208 25.3662 31.4095 25.2517C31.2961 25.1393 31.2322 24.9853 31.2322 24.8229V12.937C31.2322 12.6019 31.5023 12.3313 31.8342 12.3313ZM17.372 28.0097C17.8152 29.677 17.5843 31.4525 16.7267 32.945C15.8732 34.4417 14.463 35.5324 12.8116 35.9799C11.1602 36.4275 9.39963 36.1922 7.91937 35.3284C6.43705 34.4666 5.35468 33.0428 4.91351 31.3734C4.47026 29.7082 4.70116 27.9326 5.55465 26.438L5.57527 26.4047L5.57733 26.4027C6.43291 24.9248 7.83274 23.8465 9.47176 23.4052C12.9126 22.4748 16.4484 24.5356 17.372 28.0097ZM16.3371 28.9151C16.5123 30.0996 16.2855 31.3089 15.6918 32.3455C15.1001 33.3842 14.1765 34.1877 13.0714 34.6269L11.8757 30.1224L16.3371 28.9151ZM6.25755 27.7453C6.35239 27.5038 6.46371 27.2686 6.5936 27.0438C6.59978 27.0334 6.6039 27.023 6.61009 27.0126C7.30074 25.8178 8.4305 24.9435 9.75407 24.5793C9.77262 24.5751 9.79118 24.5709 9.80973 24.5647C12.3806 23.882 15.0525 25.2495 16.0254 27.7453L11.1414 29.0671L6.25755 27.7453ZM10.6529 30.187L11.9147 34.9371V34.9392C10.7416 35.1161 9.54376 34.8871 8.51502 34.2876C7.31722 33.5903 6.441 32.4434 6.0761 31.0966C6.07198 31.0758 6.06785 31.057 6.06167 31.0404C5.88024 30.3472 5.84107 29.6249 5.94622 28.9172L10.6529 30.1911L10.6529 30.187ZM19.7962 28.5654V28.5675C19.4643 28.5675 19.1963 28.2948 19.1963 27.9618C19.1963 27.6266 19.4643 27.356 19.7962 27.356H33.7966C34.1285 27.356 34.3965 27.6266 34.3965 27.9618C34.3965 28.2948 34.1285 28.5675 33.7966 28.5675L19.7962 28.5654ZM19.7962 31.7148V31.7169C19.4643 31.7169 19.1963 31.4442 19.1963 31.1112C19.1963 30.776 19.4643 30.5055 19.7962 30.5055H33.7966C34.1285 30.5055 34.3965 30.7761 34.3965 31.1112C34.3965 31.4442 34.1285 31.7169 33.7966 31.7169L19.7962 31.7148ZM19.7962 34.8642V34.8663C19.4643 34.8663 19.1963 34.5936 19.1963 34.2606C19.1963 33.9255 19.4643 33.6549 19.7962 33.6549H33.7966C34.1285 33.6549 34.3965 33.9255 34.3965 34.2606C34.3965 34.5936 34.1285 34.8663 33.7966 34.8663L19.7962 34.8642ZM6.06971 14.723C5.73779 14.723 5.46979 14.4524 5.46979 14.1173C5.46979 13.7822 5.7378 13.5116 6.06971 13.5116H13.2359C13.5678 13.5116 13.8358 13.7822 13.8358 14.1173C13.8358 14.4524 13.5678 14.723 13.2359 14.723H6.06971ZM6.06971 17.0169C5.74604 17.0065 5.48831 16.738 5.48831 16.4112C5.48831 16.0823 5.74601 15.8138 6.06971 15.8034H13.2359C13.5616 15.8138 13.8194 16.0823 13.8194 16.4112C13.8194 16.738 13.5617 17.0065 13.2359 17.0169H6.06971ZM6.06971 19.3087C5.73779 19.3087 5.46979 19.0381 5.46979 18.703C5.46979 18.3679 5.7378 18.0973 6.06971 18.0973H13.2359C13.5678 18.0973 13.8358 18.3679 13.8358 18.703C13.8358 19.0381 13.5678 19.3087 13.2359 19.3087H6.06971ZM6.06971 21.6005C5.73779 21.6005 5.46979 21.3299 5.46979 20.9948C5.46979 20.6618 5.7378 20.3891 6.06971 20.3891H13.2359C13.5678 20.3891 13.8358 20.6618 13.8358 20.9948C13.8358 21.3299 13.5678 21.6005 13.2359 21.6005H6.06971ZM8.04477 5.52678C8.17671 5.66 8.19733 5.86815 8.09425 6.02219C7.99117 6.17831 7.79325 6.23867 7.62213 6.1679C7.45102 6.09713 7.35206 5.91395 7.38916 5.72869C7.42421 5.54551 7.58296 5.41229 7.76851 5.41229C7.87159 5.41229 7.97261 5.45393 8.04477 5.52678ZM7.76851 4.20082C8.52719 4.20082 9.18074 4.74201 9.32915 5.49348C9.47759 6.24702 9.07763 6.99843 8.37667 7.29194C7.67573 7.58544 6.86548 7.33774 6.44489 6.70077C6.02226 6.06174 6.10472 5.21244 6.64281 4.67125C6.93969 4.36942 7.34586 4.20082 7.76851 4.20082ZM11.6671 5.52678C11.799 5.66 11.8196 5.87023 11.7165 6.02844C11.6114 6.18455 11.4135 6.247 11.2403 6.17415C11.0671 6.10129 10.9682 5.91603 11.0053 5.73077C11.0403 5.54551 11.2011 5.41229 11.3887 5.41229C11.4918 5.41229 11.5928 5.45393 11.6671 5.52678ZM11.3887 4.20082C12.1474 4.20082 12.801 4.74201 12.9494 5.49348C13.0978 6.24494 12.6999 6.99843 11.999 7.29194C11.2959 7.58544 10.4878 7.33774 10.0651 6.70077C9.64454 6.06382 9.72701 5.21244 10.263 4.67125C10.562 4.36942 10.9661 4.20082 11.3887 4.20082ZM23.3503 5.88061H25.047L25.7418 7.09413L25.7397 7.0983C25.8469 7.28563 26.0448 7.40012 26.2593 7.40012H32.3989H32.3969C32.7288 7.40012 32.9968 7.12952 32.9968 6.7944C32.9968 6.45928 32.7288 6.18868 32.3969 6.18868H26.6055L25.9396 5.02301H25.9376C25.8407 4.80653 25.6263 4.66914 25.3933 4.66914H23.3523C23.0204 4.66914 22.7524 4.93974 22.7524 5.27487C22.7524 5.61 23.0204 5.88059 23.3523 5.88059L23.3503 5.88061ZM28.0942 5.7911H31.467V5.79527C31.7989 5.79527 32.0669 5.52258 32.0669 5.18954C32.0669 4.85441 31.7989 4.58382 31.467 4.58382H28.0962C27.7664 4.58382 27.4963 4.85442 27.4963 5.18954C27.4963 5.52259 27.7664 5.79527 28.0962 5.79527L28.0942 5.7911ZM4.51087 2.58552V2.58968C3.35224 2.59176 2.41211 3.54098 2.41005 4.71081V33.1948H0.898861C0.404068 33.1948 0.00205834 32.7888 0 32.2893V0.907545C0 0.407971 0.40202 0 0.898861 0H31.9782C32.475 0 32.877 0.407982 32.877 0.907545V2.58734L4.51087 2.58552ZM38.4988 36.694C38.4988 37.5724 38.9915 38.3717 39.7708 38.761C40.5502 39.1502 41.4799 39.0586 42.1685 38.5258C42.8592 37.9929 43.1911 37.1124 43.0241 36.2506C42.8571 35.3909 42.2201 34.6999 41.383 34.4688V27.1295C41.383 26.6278 40.979 26.2219 40.4821 26.2198H37.7917V27.4313H40.1831V34.469C39.1894 34.7438 38.5008 35.6555 38.5008 36.6942L38.4988 36.694ZM43.154 24.7645C43.8838 25.4992 45.0135 25.6491 45.9062 25.1287C46.7989 24.6083 47.236 23.5488 46.97 22.5413C46.7061 21.5359 45.8031 20.8345 44.7723 20.8303C43.7415 20.8282 42.8364 21.5235 42.5643 22.5289H37.7916V23.7403H42.5663H42.5643C42.6694 24.1275 42.8735 24.4813 43.1539 24.7665L43.154 24.7645ZM46.5804 15.2893H46.5825C47.5741 15.8618 48.8358 15.6057 49.5306 14.6878C50.2254 13.7677 50.1408 12.473 49.3306 11.655C48.5225 10.839 47.2381 10.7516 46.3289 11.453C45.4197 12.1545 45.1641 13.4284 45.7331 14.4317L41.5335 18.6739H37.7917V19.8854H41.6572C41.8943 19.8833 42.1232 19.7875 42.2922 19.6189L46.5804 15.2893ZM42.1459 14.5941H42.1479C42.1479 14.8335 42.0531 15.0666 41.884 15.2352C41.715 15.4059 41.4861 15.5016 41.2491 15.5037H37.7917V14.2923H40.9481V5.45609C39.8451 5.15218 39.1338 4.07183 39.2864 2.92699C39.4369 1.78216 40.4038 0.928699 41.548 0.928699C42.6902 0.928699 43.6571 1.78216 43.8097 2.92699C43.9622 4.07183 43.251 5.15219 42.148 5.45609L42.1459 14.5941Z" fill="#2E3092"/>
</svg>
