<svg width="55" height="55" viewBox="0 0 55 55" fill="none" xmlns="http://www.w3.org/2000/svg">
<path fill-rule="evenodd" clipRule="evenodd" d="M36.3353 18.66C34.5872 16.9122 32.3602 15.722 29.9358 15.2399C27.5114 14.7579 24.9985 15.0056 22.7148 15.9518C20.4312 16.898 18.4794 18.5002 17.1062 20.5557C15.7329 22.6113 15 25.0279 15 27.5C15 29.9721 15.7329 32.3887 17.1062 34.4443C18.4794 36.4998 20.4312 38.102 22.7148 39.0482C24.9985 39.9944 27.5114 40.2421 29.9358 39.76C32.3602 39.278 34.5872 38.0878 36.3353 36.34C37.4971 35.1797 38.4187 33.8017 39.0475 32.2848C39.6763 30.768 40 29.142 40 27.5C40 25.858 39.6763 24.232 39.0475 22.7152C38.4187 21.1983 37.4971 19.8203 36.3353 18.66ZM18.8306 27.7933H20.1638C20.5769 27.7951 20.9726 27.96 21.2648 28.2522C21.5569 28.5444 21.7218 28.9401 21.7236 29.3533V32.6867C21.7218 33.0999 21.5569 33.4956 21.2648 33.7878C20.9726 34.08 20.5769 34.2449 20.1638 34.2467H18.8306C18.4174 34.2449 18.0217 34.08 17.7296 33.7878C17.4374 33.4956 17.2725 33.0999 17.2708 32.6867V29.3533C17.2725 28.9401 17.4374 28.5444 17.7296 28.2522C18.0217 27.96 18.4174 27.7951 18.8306 27.7933ZM24.1633 26.5067H25.4965C25.9085 26.5084 26.3032 26.6724 26.5952 26.9632C26.8872 27.2539 27.0528 27.648 27.0563 28.06V32.6867C27.0546 33.0999 26.8897 33.4956 26.5975 33.7878C26.3054 34.08 25.9097 34.2449 25.4965 34.2467H24.1633C23.7496 34.2467 23.3529 34.0823 23.0604 33.7898C22.7678 33.4972 22.6035 33.1004 22.6035 32.6867V28.06C22.6053 27.6474 22.7704 27.2523 23.0627 26.9612C23.355 26.6701 23.7508 26.5067 24.1633 26.5067ZM29.4961 27.7933H30.8293C31.2424 27.7951 31.6381 27.96 31.9303 28.2522C32.2224 28.5444 32.3873 28.9401 32.3891 29.3533V32.6867C32.3873 33.0999 32.2224 33.4956 31.9303 33.7878C31.6381 34.08 31.2424 34.2449 30.8293 34.2467H29.4961C29.0829 34.2449 28.6872 34.08 28.395 33.7878C28.1029 33.4956 27.938 33.0999 27.9362 32.6867V29.3533C27.938 28.9401 28.1029 28.5444 28.395 28.2522C28.6872 27.96 29.0829 27.7951 29.4961 27.7933ZM19.6705 25.9733C19.5829 25.9948 19.492 25.9988 19.403 25.9851C19.3139 25.9714 19.2284 25.9403 19.1513 25.8936C19.0742 25.8468 19.0071 25.7854 18.9538 25.7127C18.9005 25.64 18.862 25.5576 18.8406 25.47C18.8191 25.3825 18.8151 25.2915 18.8288 25.2024C18.8425 25.1134 18.8736 25.0278 18.9203 24.9508C18.9671 24.8737 19.0285 24.8066 19.1012 24.7533C19.1739 24.6999 19.2563 24.6615 19.3439 24.64L24.5566 23.38C24.668 23.3506 24.7852 23.3506 24.8966 23.38L29.8094 24.5667L33.3756 22.1667C33.2846 22.1518 33.1974 22.1191 33.119 22.0705C33.0405 22.0219 32.9725 21.9584 32.9186 21.8835C32.8648 21.8086 32.8262 21.7238 32.8051 21.634C32.784 21.5441 32.7808 21.4511 32.7957 21.36C32.8106 21.269 32.8433 21.1817 32.8918 21.1033C32.9404 21.0249 33.004 20.9568 33.0789 20.9029C33.1538 20.8491 33.2385 20.8105 33.3284 20.7894C33.4182 20.7683 33.5112 20.7651 33.6023 20.78L35.2688 21.12C35.4292 21.1459 35.5759 21.2264 35.6839 21.3478C35.792 21.4693 35.8549 21.6243 35.862 21.7867V23.5333C35.8595 23.6868 35.8066 23.8352 35.7114 23.9557C35.6163 24.0762 35.4841 24.162 35.3354 24.2C36.102 24.2 36.7153 24.1 37.2685 24.6533C37.4148 24.7967 37.5308 24.9679 37.6098 25.1568C37.6888 25.3457 37.7292 25.5486 37.7285 25.7533V32.6867C37.7285 32.8921 37.6879 33.0955 37.6091 33.2852C37.5303 33.4749 37.4148 33.6472 37.2693 33.7921C37.1237 33.9371 36.951 34.0518 36.761 34.1298C36.5709 34.2078 36.3674 34.2475 36.162 34.2467H34.8288C34.4157 34.2449 34.0199 34.08 33.7278 33.7878C33.4356 33.4956 33.2707 33.0999 33.269 32.6867V25.7867C33.2707 25.3735 33.4356 24.9777 33.7278 24.6855C34.0199 24.3933 34.4157 24.2284 34.8288 24.2267H35.0088C34.8601 24.1887 34.7279 24.1028 34.6328 23.9824C34.5376 23.8619 34.4847 23.7135 34.4822 23.56V23.1267L30.356 25.8867C30.2766 25.9426 30.186 25.9806 30.0904 25.9979C29.9948 26.0151 29.8966 26.0113 29.8027 25.9867L24.7499 24.7667L19.6705 25.9733Z" fill="#2E3092"/>
<path fill-rule="evenodd" clipRule="evenodd" d="M24.5606 13.4594C22.8086 13.8257 21.1409 14.5183 19.6445 15.5011C19.5216 15.5941 19.3691 15.6392 19.2154 15.628C19.0617 15.6169 18.9173 15.5503 18.809 15.4405L16.7929 13.4291L13.451 16.7734L15.461 18.7909C15.5706 18.8992 15.6372 19.0437 15.6483 19.1975C15.6595 19.3513 15.6144 19.5039 15.5215 19.627C15.0314 20.3846 14.6119 21.1857 14.2683 22.0201C13.9262 22.8436 13.6626 23.6976 13.4812 24.5707C13.4619 24.7254 13.3865 24.8677 13.2694 24.9704C13.1522 25.0732 13.0013 25.1293 12.8455 25.1281H10V29.8658H12.8455C13.0013 29.8646 13.1522 29.9208 13.2694 30.0235C13.3865 30.1263 13.4619 30.2685 13.4812 30.4232C13.8465 32.1786 14.5387 33.8496 15.5215 35.3488C15.6144 35.4718 15.6595 35.6244 15.6483 35.7782C15.6372 35.932 15.5706 36.0765 15.461 36.1849L13.451 38.2024L16.7929 41.5467L18.809 39.5352C18.9173 39.4255 19.0617 39.3589 19.2154 39.3477C19.3691 39.3366 19.5216 39.3817 19.6445 39.4746C21.1409 40.4575 22.8086 41.1501 24.5606 41.5164C24.7152 41.5357 24.8574 41.6111 24.9601 41.7284C25.0628 41.8457 25.1188 41.9966 25.1176 42.1525V45H29.8521V42.1525C29.8509 41.9966 29.907 41.8457 30.0097 41.7284C30.1123 41.6111 30.2545 41.5357 30.4091 41.5164C32.1738 41.1444 33.8522 40.4413 35.3555 39.4443C35.4784 39.3514 35.6309 39.3063 35.7846 39.3175C35.9383 39.3286 36.0827 39.3952 36.191 39.5049L38.2071 41.5164L41.549 38.1721L39.539 36.1546C39.4294 36.0462 39.3628 35.9017 39.3517 35.7479C39.3405 35.5941 39.3856 35.4415 39.4785 35.3185C40.4606 33.8211 41.1527 32.1523 41.5188 30.399C41.5381 30.2443 41.6135 30.102 41.7306 29.9993C41.8478 29.8965 41.9987 29.8404 42.1545 29.8416H45V25.1039H42.1424C41.9911 25.1149 41.8413 25.0687 41.7225 24.9744C41.6036 24.8802 41.5245 24.7448 41.5006 24.5949C41.3137 23.7139 41.0462 22.852 40.7014 22.0201C40.3589 21.1928 39.9393 20.3997 39.4482 19.6512C39.3553 19.5282 39.3102 19.3756 39.3214 19.2218C39.3325 19.068 39.3991 18.9235 39.5087 18.8151L41.5188 16.7976L38.1768 13.4533L36.1607 15.4648C36.0524 15.5745 35.908 15.6411 35.7543 15.6523C35.6007 15.6634 35.4482 15.6183 35.3252 15.5254C33.8288 14.5425 32.1612 13.8499 30.4091 13.4836C30.2545 13.4643 30.1123 13.3889 30.0097 13.2716C29.907 13.1543 29.8509 13.0034 29.8521 12.8475V10H25.1176V12.8475C25.1188 13.0034 25.0628 13.1543 24.9601 13.2716C24.8574 13.3889 24.7152 13.4643 24.5606 13.4836V13.4594ZM27.4849 14.8286C29.9839 14.8286 32.4268 15.5702 34.5047 16.9595C36.5826 18.3489 38.2021 20.3236 39.1584 22.634C40.1148 24.9445 40.365 27.4868 39.8774 29.9395C39.3899 32.3922 38.1865 34.6452 36.4194 36.4135C34.6523 38.1818 32.4009 39.386 29.9499 39.8739C27.4989 40.3618 24.9583 40.1114 22.6495 39.1544C20.3407 38.1974 18.3673 36.5767 16.9789 34.4974C15.5906 32.4181 14.8495 29.9735 14.8495 27.4727C14.8511 24.1198 16.1828 20.9047 18.5521 18.5338C20.9213 16.1629 24.1343 14.8302 27.4849 14.8286Z" fill="#2E3092"/>
<path d="M20.8167 29H19.1833C19.0821 29 19 29.0754 19 29.1685V32.8315C19 32.9246 19.0821 33 19.1833 33H20.8167C20.9179 33 21 32.9246 21 32.8315V29.1685C21 29.0754 20.9179 29 20.8167 29Z" fill="#2E3092"/>
<path d="M25.8167 28H24.1833C24.0821 28 24 28.0697 24 28.1556V32.8444C24 32.9303 24.0821 33 24.1833 33H25.8167C25.9179 33 26 32.9303 26 32.8444V28.1556C26 28.0697 25.9179 28 25.8167 28Z" fill="#2E3092"/>
<path d="M30.8167 29H29.1833C29.0821 29 29 29.0754 29 29.1685V32.8315C29 32.9246 29.0821 33 29.1833 33H30.8167C30.9179 33 31 32.9246 31 32.8315V29.1685C31 29.0754 30.9179 29 30.8167 29Z" fill="#2E3092"/>
<path d="M35.8167 26H34.1833C34.0821 26 34 26.0667 34 26.1489V32.8511C34 32.9333 34.0821 33 34.1833 33H35.8167C35.9179 33 36 32.9333 36 32.8511V26.1489C36 26.0667 35.9179 26 35.8167 26Z" fill="#2E3092"/>
<path fill-rule="evenodd" clipRule="evenodd" d="M25.712 4.26758C26.0633 4.61726 26.5108 4.85542 26.9981 4.95192C27.4853 5.04843 27.9904 4.99895 28.4494 4.80975C28.9083 4.62054 29.3006 4.30011 29.5767 3.88898C29.8527 3.47785 30 2.99448 30 2.5C30 2.00552 29.8527 1.52215 29.5767 1.11102C29.3006 0.699885 28.9083 0.379454 28.4494 0.190251C27.9904 0.00104778 27.4853 -0.0484293 26.9981 0.048077C26.5108 0.144583 26.0633 0.382738 25.712 0.732422C25.255 1.20848 25 1.84157 25 2.5C25 3.15843 25.255 3.79152 25.712 4.26758Z" fill="#2E3092"/>
<path fill-rule="evenodd" clipRule="evenodd" d="M19.2516 2.00082C19.294 2.16908 19.2695 2.34729 19.1834 2.49783C19.0973 2.64838 18.9563 2.75949 18.79 2.80772C14.3296 4.43 10.4019 7.25517 7.43955 10.9722C4.47717 14.6892 2.59491 19.154 2 23.8749C2.55339 23.7939 3.11781 23.8366 3.65281 24C4.21977 19.6441 5.95761 15.525 8.68016 12.0838C11.4027 8.64269 15.0074 6.00915 19.1081 4.46533C19.1939 4.41829 19.2895 4.39215 19.3872 4.38899C19.4849 4.38583 19.582 4.40575 19.6706 4.44715C19.7592 4.48854 19.8369 4.55025 19.8974 4.62729C19.9578 4.70434 19.9994 4.79456 20.0187 4.89067L20.2058 5.5975L23 2.38238L18.9834 1L19.2516 2.00082Z" fill="#2E3092"/>
<path fill-rule="evenodd" clipRule="evenodd" d="M50.7324 25.712C50.3827 26.0633 50.1446 26.5108 50.0481 26.9981C49.9516 27.4853 50.001 27.9904 50.1902 28.4494C50.3795 28.9083 50.6999 29.3006 51.111 29.5767C51.5222 29.8527 52.0055 30 52.5 30C52.9945 30 53.4778 29.8527 53.889 29.5767C54.3001 29.3006 54.6205 28.9083 54.8098 28.4494C54.999 27.9904 55.0484 27.4853 54.9519 26.9981C54.8554 26.5108 54.6173 26.0633 54.2676 25.712C53.7915 25.255 53.1584 25 52.5 25C51.8416 25 51.2085 25.255 50.7324 25.712Z" fill="#2E3092"/>
<path fill-rule="evenodd" clipRule="evenodd" d="M52.9992 19.2516C52.8309 19.294 52.6527 19.2695 52.5022 19.1834C52.3516 19.0973 52.2405 18.9563 52.1923 18.79C50.57 14.3296 47.7448 10.4019 44.0278 7.43955C40.3108 4.47717 35.846 2.59491 31.1251 2C31.2061 2.55339 31.1634 3.11781 31 3.65281C35.3559 4.21977 39.475 5.95761 42.9162 8.68016C46.3573 11.4027 48.9909 15.0074 50.5347 19.1081C50.5817 19.1939 50.6079 19.2895 50.611 19.3872C50.6142 19.4849 50.5942 19.582 50.5529 19.6706C50.5115 19.7592 50.4498 19.8369 50.3727 19.8974C50.2957 19.9578 50.2054 19.9994 50.1093 20.0187L49.4025 20.2058L52.6176 23L54 18.9834L52.9992 19.2516Z" fill="#2E3092"/>
<path fill-rule="evenodd" clipRule="evenodd" d="M29.288 50.7324C28.9367 50.3827 28.4892 50.1446 28.0019 50.0481C27.5147 49.9516 27.0096 50.001 26.5506 50.1902C26.0917 50.3795 25.6994 50.6999 25.4233 51.111C25.1473 51.5222 25 52.0055 25 52.5C25 52.9945 25.1473 53.4778 25.4233 53.889C25.6994 54.3001 26.0917 54.6205 26.5506 54.8098C27.0096 54.999 27.5147 55.0484 28.0019 54.9519C28.4892 54.8554 28.9367 54.6173 29.288 54.2676C29.745 53.7915 30 53.1584 30 52.5C30 51.8416 29.745 51.2085 29.288 50.7324Z" fill="#2E3092"/>
<path fill-rule="evenodd" clipRule="evenodd" d="M35.7484 52.9992C35.706 52.8309 35.7305 52.6527 35.8166 52.5022C35.9027 52.3516 36.0437 52.2405 36.21 52.1923C40.6704 50.57 44.5981 47.7448 47.5604 44.0278C50.5228 40.3108 52.4051 35.846 53 31.1251C52.4466 31.2061 51.8822 31.1634 51.3472 31C50.7802 35.3559 49.0424 39.475 46.3198 42.9162C43.5973 46.3573 39.9926 48.9909 35.8919 50.5347C35.8061 50.5817 35.7105 50.6079 35.6128 50.611C35.5151 50.6142 35.418 50.5942 35.3294 50.5529C35.2408 50.5115 35.1631 50.4498 35.1026 50.3727C35.0422 50.2957 35.0006 50.2054 34.9813 50.1093L34.7942 49.4025L32 52.6176L36.0166 54L35.7484 52.9992Z" fill="#2E3092"/>
<path fill-rule="evenodd" clipRule="evenodd" d="M4.26758 29.288C4.61726 28.9367 4.85542 28.4892 4.95192 28.0019C5.04843 27.5147 4.99895 27.0096 4.80975 26.5506C4.62054 26.0917 4.30011 25.6994 3.88898 25.4233C3.47785 25.1473 2.99448 25 2.5 25C2.00552 25 1.52215 25.1473 1.11102 25.4233C0.699885 25.6994 0.379454 26.0917 0.190251 26.5506C0.00104778 27.0096 -0.0484293 27.5147 0.048077 28.0019C0.144583 28.4892 0.382738 28.9367 0.732422 29.288C1.20848 29.745 1.84157 30 2.5 30C3.15843 30 3.79152 29.745 4.26758 29.288Z" fill="#2E3092"/>
<path fill-rule="evenodd" clipRule="evenodd" d="M2.00082 35.7484C2.16908 35.706 2.34729 35.7305 2.49783 35.8166C2.64838 35.9027 2.75949 36.0437 2.80772 36.21C4.43 40.6704 7.25517 44.5981 10.9722 47.5604C14.6892 50.5228 19.154 52.4051 23.8749 53C23.7939 52.4466 23.8366 51.8822 24 51.3472C19.6441 50.7802 15.525 49.0424 12.0838 46.3198C8.64269 43.5973 6.00915 39.9926 4.46533 35.8919C4.41829 35.8061 4.39215 35.7105 4.38899 35.6128C4.38583 35.5151 4.40575 35.418 4.44715 35.3294C4.48854 35.2408 4.55025 35.1631 4.62729 35.1026C4.70434 35.0422 4.79456 35.0006 4.89067 34.9813L5.5975 34.7942L2.38238 32L1 36.0166L2.00082 35.7484Z" fill="#2E3092"/>
</svg>
