<svg width="47" height="48" viewBox="0 0 47 48" fill="none" xmlns="http://www.w3.org/2000/svg">
<path d="M29.6878 34.3492L30.0862 34.7477L32.3494 32.4844L31.951 32.086C30.843 30.9788 30.5278 29.3916 31.127 27.9443C31.727 26.4971 33.0718 25.5987 34.6382 25.5987H35.2014V22.3986H34.6382C33.0718 22.3986 31.727 21.5002 31.127 20.053C30.5278 18.6058 30.8438 17.0186 31.951 15.9113L32.3494 15.5129L30.0862 13.2497L29.6878 13.6481C28.5813 14.7561 26.9949 15.0721 25.5461 14.4721C24.0997 13.8729 23.2012 12.5281 23.2012 10.9616V10.3984H19.2012V15.5433C19.9804 15.3209 20.782 15.1985 21.6012 15.1985C26.4533 15.1985 30.4014 19.1466 30.4014 23.9987C30.4014 28.8508 26.4533 32.7988 21.6012 32.7988C20.782 32.7988 19.9804 32.6764 19.2012 32.454V37.5989H23.2012V37.0357C23.2012 35.4693 24.0997 34.1244 25.5469 33.5244C26.9941 32.926 28.5805 33.2404 29.6878 34.3492Z" fill="#2E3092"/>
<path d="M14.3994 15.1973H3.19922V16.7973H14.3994V15.1973Z" fill="#2E3092"/>
<path d="M16.8003 8.79688H14.4002H13.6002C13.1586 8.79688 12.8002 9.15528 12.8002 9.59689C12.8002 10.9201 11.7234 11.9969 10.4002 11.9969H7.20012C5.8769 11.9969 4.80008 10.9201 4.80008 9.59689C4.80008 9.15528 4.44168 8.79688 4.00007 8.79688H3.20005H0.800014C0.358406 8.79688 0 9.15528 0 9.59689V38.3974C0 38.839 0.358406 39.1974 0.800014 39.1974H16.8003C17.2419 39.1974 17.6003 38.839 17.6003 38.3974V9.59689C17.6003 9.15528 17.2419 8.79688 16.8003 8.79688ZM16.0003 35.9973C16.0003 36.4397 15.6427 36.7974 15.2003 36.7974H2.40004C1.95763 36.7974 1.60003 36.4397 1.60003 35.9973V14.397C1.60003 13.9546 1.95763 13.597 2.40004 13.597H15.2003C15.6427 13.597 16.0003 13.9546 16.0003 14.397V35.9973Z" fill="#2E3092"/>
<path d="M3.19922 35.1987H14.3994V18.3984H3.19922V35.1987ZM12.7994 32.7987H9.59933V31.1987H12.7994V32.7987ZM7.9993 19.9985H9.59933V21.5985H7.9993V19.9985ZM4.79925 19.9985H6.39927V21.5985H4.79925V19.9985Z" fill="#2E3092"/>
<path d="M7.19997 10.3969H10.4C10.8416 10.3969 11.2 10.0385 11.2 9.59689C11.2 9.31528 11.2576 9.04808 11.3472 8.79688H6.25195C6.34235 9.04808 6.39996 9.31528 6.39996 9.59689C6.39996 10.0385 6.75836 10.3969 7.19997 10.3969Z" fill="#2E3092"/>
<path d="M28.8013 23.999C28.8013 20.0285 25.5717 16.7988 21.6012 16.7988C20.7772 16.7988 19.974 16.946 19.2012 17.2204V30.7767C19.974 31.0519 20.7772 31.1991 21.6012 31.1991C25.5717 31.1991 28.8013 27.9694 28.8013 23.999Z" fill="#2E3092"/>
<path d="M44.0001 21.5996C42.9585 21.5996 42.0785 22.2708 41.7473 23.1996H36V24.7997H41.7473C42.0785 25.7285 42.9585 26.3997 44.0001 26.3997C45.3234 26.3997 46.4002 25.3229 46.4002 23.9997C46.4002 22.6764 45.3234 21.5996 44.0001 21.5996Z" fill="#2E3092"/>
<path d="M43.9999 0C42.9583 0 42.0783 0.671211 41.7471 1.60003H26.3996C25.9572 1.60003 25.5996 1.95763 25.5996 2.40004V6.40011H27.1996V3.20005H41.7471C42.0783 4.12887 42.9583 4.80008 43.9999 4.80008C45.3231 4.80008 46.4 3.72326 46.4 2.40004C46.4 1.07682 45.3231 0 43.9999 0Z" fill="#2E3092"/>
<path d="M44.0007 8.79688C42.9591 8.79688 42.0791 9.46809 41.7479 10.3969H37.6006C37.3494 10.3969 37.1118 10.5153 36.9606 10.7169L34.5605 13.917L35.8406 14.8762L38.0006 11.9961H41.7479C42.0791 12.9249 42.9591 13.5962 44.0007 13.5962C45.3239 13.5962 46.4007 12.5193 46.4007 11.1961C46.4007 9.87289 45.3239 8.79688 44.0007 8.79688Z" fill="#2E3092"/>
<path d="M44.0007 34.3992C42.9591 34.3992 42.0791 35.0704 41.7479 35.9992H38.0006L35.8406 33.1191L34.5605 34.0792L36.9606 37.2792C37.111 37.4808 37.3486 37.5992 37.6006 37.5992H41.7479C42.0791 38.528 42.9591 39.1992 44.0007 39.1992C45.3239 39.1992 46.4007 38.1224 46.4007 36.7992C46.4007 35.476 45.3239 34.3992 44.0007 34.3992Z" fill="#2E3092"/>
<path d="M43.9999 43.1996C42.9583 43.1996 42.0783 43.8708 41.7471 44.7997H27.1996V41.5996H25.5996V45.5997C25.5996 46.0421 25.9572 46.3997 26.3996 46.3997H41.7471C42.0783 47.3285 42.9583 47.9997 43.9999 47.9997C45.3231 47.9997 46.4 46.9229 46.4 45.5997C46.4 44.2765 45.3231 43.1996 43.9999 43.1996Z" fill="#2E3092"/>
</svg>
