<svg width="42" height="46" viewBox="0 0 42 46" fill="none" xmlns="http://www.w3.org/2000/svg">
<path d="M21 0C14.9343 0 10 4.71 10 10.5C10 16.29 14.9343 21 21 21C27.0657 21 32 16.29 32 10.5C32 4.71 27.0657 0 21 0ZM27.0814 7.2525L20.01 14.7525C19.8686 14.9025 19.6643 14.9925 19.4443 15H19.4207C19.2164 15 19.0121 14.9175 18.8629 14.7825L14.9343 11.0325C14.6279 10.74 14.6279 10.2675 14.9343 9.975C15.2407 9.6825 15.7357 9.6825 16.0421 9.975L19.3814 13.1625L25.895 6.2475C26.1857 5.94 26.6807 5.9175 27.0029 6.195C27.325 6.4725 27.3486 6.945 27.0579 7.2525H27.0814Z" fill="#2E3092"/>
<path d="M39 17H32.25C31.8375 17 31.5 17.3434 31.5 17.7632C31.5 18.1829 31.8375 18.5263 32.25 18.5263H39C39.825 18.5263 40.5 19.2132 40.5 20.0526V42.9474C40.5 43.7868 39.825 44.4737 39 44.4737H3C2.175 44.4737 1.5 43.7868 1.5 42.9474V20.0526C1.5 19.2132 2.175 18.5263 3 18.5263H9.75C10.1625 18.5263 10.5 18.1829 10.5 17.7632C10.5 17.3434 10.1625 17 9.75 17H3C1.3425 17 0 18.3661 0 20.0526V42.9474C0 44.6339 1.3425 46 3 46H39C40.6575 46 42 44.6339 42 42.9474V20.0526C42 18.3661 40.6575 17 39 17Z" fill="#2E3092"/>
<path d="M11.5 31C13.433 31 15 29.2091 15 27C15 24.7909 13.433 23 11.5 23C9.567 23 8 24.7909 8 27C8 29.2091 9.567 31 11.5 31Z" fill="#2E3092"/>
<path d="M12 40C15.866 40 19 38.433 19 36.5C19 34.567 15.866 33 12 33C8.13401 33 5 34.567 5 36.5C5 38.433 8.13401 40 12 40Z" fill="#2E3092"/>
<path d="M23.8 25H26.2C26.64 25 27 24.775 27 24.5C27 24.225 26.64 24 26.2 24H23.8C23.36 24 23 24.225 23 24.5C23 24.775 23.36 25 23.8 25Z" fill="#2E3092"/>
<path d="M31.2 24H28.8C28.36 24 28 24.225 28 24.5C28 24.775 28.36 25 28.8 25H31.2C31.64 25 32 24.775 32 24.5C32 24.225 31.64 24 31.2 24Z" fill="#2E3092"/>
<path d="M23 29.5C23 29.775 23.3316 30 23.7368 30H36.2632C36.6684 30 37 29.775 37 29.5C37 29.225 36.6684 29 36.2632 29H23.7368C23.3316 29 23 29.225 23 29.5Z" fill="#2E3092"/>
<path d="M36.2632 33H23.7368C23.3316 33 23 33.225 23 33.5C23 33.775 23.3316 34 23.7368 34H36.2632C36.6684 34 37 33.775 37 33.5C37 33.225 36.6684 33 36.2632 33Z" fill="#2E3092"/>
<path d="M36.2632 37H23.7368C23.3316 37 23 37.45 23 38C23 38.55 23.3316 39 23.7368 39H36.2632C36.6684 39 37 38.55 37 38C37 37.45 36.6684 37 36.2632 37Z" fill="#2E3092"/>
<path d="M36.2 25C36.64 25 37 24.775 37 24.5C37 24.225 36.64 24 36.2 24H33.8C33.36 24 33 24.225 33 24.5C33 24.775 33.36 25 33.8 25H36.2Z" fill="#2E3092"/>
</svg>
