<svg width="52" height="40" viewBox="0 0 52 40" fill="none" xmlns="http://www.w3.org/2000/svg">
<path fill-rule="evenodd" clipRule="evenodd" d="M0 20.2857C0 18.4711 1.39155 17 3.10811 17H19.8919C21.6084 17 23 18.4711 23 20.2857C23 22.1004 21.6084 23.5715 19.8919 23.5715H3.1081C1.39155 23.5715 0 22.1004 0 20.2857ZM5.67572 20.2857C5.67572 21.1931 4.97992 21.9286 4.12165 21.9286C3.26338 21.9286 2.5676 21.1931 2.5676 20.2857C2.5676 19.3784 3.26338 18.6429 4.12165 18.6429C4.97992 18.6429 5.67572 19.3784 5.67572 20.2857ZM3.10811 25.2143C1.39155 25.2143 0 26.6854 0 28.5C0 30.3147 1.39155 31.7857 3.1081 31.7857H19.8919C21.6084 31.7857 23 30.3147 23 28.5C23 26.6854 21.6084 25.2143 19.8919 25.2143H3.10811ZM4.12165 30.1429C4.97992 30.1429 5.67572 29.4073 5.67572 28.5C5.67572 27.5927 4.97992 26.8572 4.12165 26.8572C3.26338 26.8572 2.5676 27.5927 2.5676 28.5C2.5676 29.4073 3.26338 30.1429 4.12165 30.1429ZM3.08558 33.4286C1.36902 33.4286 0 34.8997 0 36.7143C0 38.5289 1.39155 40 3.1081 40H19.8919C21.6084 40 23 38.5289 23 36.7143C23 34.8997 21.6084 33.4286 19.8919 33.4286L3.08558 33.4286ZM4.12165 38.3571C4.97992 38.3571 5.67572 37.6216 5.67572 36.7143C5.67572 35.8069 4.97992 35.0714 4.12165 35.0714C3.26338 35.0714 2.5676 35.8069 2.5676 36.7143C2.5676 37.6216 3.26338 38.3571 4.12165 38.3571Z" fill="#2E3092"/>
<path d="M24.5448 7.62609C23.755 6.93273 22.4338 6.3492 20.6402 6.3492C17.8125 6.3492 15.2002 8.94078 15.2002 11.746C15.2002 11.7932 15.2009 11.84 15.2021 11.8866C15.2239 12.7015 15.1231 13.5099 14.9088 14.2857H7C7.28553 14.0899 7.58014 13.9028 7.88355 13.725C8.47271 13.3794 8.82257 12.7338 8.80443 12.0551C8.80168 11.9524 8.80028 11.8494 8.80028 11.746C8.80028 5.43422 14.2779 0 20.6402 0C27.0024 0 32.16 4.16436 32.16 10.4762C32.16 10.9653 32.6589 11.3304 33.1276 11.1786C34.5354 10.7227 36.0387 10.4762 37.6 10.4762C45.5528 10.4762 52 17.8245 52 25.7143C52 33.604 45.5528 40 37.6 40H27.8789H25.986C26.6523 38.9981 27.0401 37.798 27.0401 36.5079C27.0401 35.4802 26.794 34.5096 26.3571 33.6508H27.8792H37.6C42.0183 33.6508 45.5999 30.0975 45.5999 25.7143C45.5999 20.7929 41.4992 16.8254 37.6 16.8254C36.7215 16.8254 35.8881 16.9635 35.1136 17.2144C30.4332 18.7302 25.7601 15.2038 25.7601 10.4762C25.7601 9.15497 25.269 8.26175 24.5448 7.62609Z" fill="#2E3092"/>
</svg>
