<svg width="46" height="46" viewBox="0 0 46 46" fill="none" xmlns="http://www.w3.org/2000/svg">
<path d="M5.57588 5.57558C5.9608 5.57558 6.27285 5.26354 6.27285 4.87861C6.27285 4.49368 5.9608 4.18164 5.57588 4.18164C5.19095 4.18164 4.87891 4.49368 4.87891 4.87861C4.87891 5.26354 5.19095 5.57558 5.57588 5.57558Z" fill="#2E3092"/>
<path d="M32.0606 16.7273V14.6364C32.0603 13.7122 31.693 12.826 31.0396 12.1726C30.3861 11.5191 29.4999 11.1518 28.5758 11.1515H26.4848V9.75758H28.5758C29.4999 9.75724 30.3861 9.38998 31.0396 8.73652C31.693 8.08305 32.0603 7.19686 32.0606 6.27273V3.48485C32.0603 2.56071 31.693 1.67452 31.0396 1.02106C30.3861 0.367594 29.4999 0.000334356 28.5758 0H3.48485C2.56071 0.000334356 1.67452 0.367594 1.02106 1.02106C0.367594 1.67452 0.000334356 2.56071 0 3.48485V6.27273C0.000334356 7.19686 0.367594 8.08305 1.02106 8.73652C1.67452 9.38998 2.56071 9.75724 3.48485 9.75758H5.57576V11.1515H3.48485C2.56071 11.1518 1.67452 11.5191 1.02106 12.1726C0.367594 12.826 0.000334356 13.7122 0 14.6364V17.4242C0.000334356 18.3484 0.367594 19.2346 1.02106 19.888C1.67452 20.5415 2.56071 20.9088 3.48485 20.9091H11.2073C11.3741 19.7486 11.9534 18.6871 12.8392 17.9191C13.725 17.1511 14.8579 16.7279 16.0303 16.7273H32.0606ZM27.1818 2.78788H27.8788C28.0636 2.78788 28.2409 2.86131 28.3716 2.99202C28.5023 3.12272 28.5758 3.3 28.5758 3.48485C28.5758 3.6697 28.5023 3.84697 28.3716 3.97768C28.2409 4.10839 28.0636 4.18182 27.8788 4.18182H27.1818C26.997 4.18182 26.8197 4.10839 26.689 3.97768C26.5583 3.84697 26.4848 3.6697 26.4848 3.48485C26.4848 3.3 26.5583 3.12272 26.689 2.99202C26.8197 2.86131 26.997 2.78788 27.1818 2.78788ZM27.1818 5.57576H27.8788C28.0636 5.57576 28.2409 5.64919 28.3716 5.7799C28.5023 5.9106 28.5758 6.08788 28.5758 6.27273C28.5758 6.45757 28.5023 6.63485 28.3716 6.76556C28.2409 6.89627 28.0636 6.9697 27.8788 6.9697H27.1818C26.997 6.9697 26.8197 6.89627 26.689 6.76556C26.5583 6.63485 26.4848 6.45757 26.4848 6.27273C26.4848 6.08788 26.5583 5.9106 26.689 5.7799C26.8197 5.64919 26.997 5.57576 27.1818 5.57576ZM20.9091 15.3333H20.2121C20.0273 15.3333 19.85 15.2599 19.7193 15.1292C19.5886 14.9985 19.5152 14.8212 19.5152 14.6364C19.5152 14.4515 19.5886 14.2742 19.7193 14.1435C19.85 14.0128 20.0273 13.9394 20.2121 13.9394H20.9091C21.0939 13.9394 21.2712 14.0128 21.4019 14.1435C21.5326 14.2742 21.6061 14.4515 21.6061 14.6364C21.6061 14.8212 21.5326 14.9985 21.4019 15.1292C21.2712 15.2599 21.0939 15.3333 20.9091 15.3333ZM24.3939 15.3333H23.697C23.5121 15.3333 23.3348 15.2599 23.2041 15.1292C23.0734 14.9985 23 14.8212 23 14.6364C23 14.4515 23.0734 14.2742 23.2041 14.1435C23.3348 14.0128 23.5121 13.9394 23.697 13.9394H24.3939C24.5788 13.9394 24.7561 14.0128 24.8868 14.1435C25.0175 14.2742 25.0909 14.4515 25.0909 14.6364C25.0909 14.8212 25.0175 14.9985 24.8868 15.1292C24.7561 15.2599 24.5788 15.3333 24.3939 15.3333ZM27.1818 13.9394H27.8788C28.0636 13.9394 28.2409 14.0128 28.3716 14.1435C28.5023 14.2742 28.5758 14.4515 28.5758 14.6364C28.5758 14.8212 28.5023 14.9985 28.3716 15.1292C28.2409 15.2599 28.0636 15.3333 27.8788 15.3333H27.1818C26.997 15.3333 26.8197 15.2599 26.689 15.1292C26.5583 14.9985 26.4848 14.8212 26.4848 14.6364C26.4848 14.4515 26.5583 14.2742 26.689 14.1435C26.8197 14.0128 26.997 13.9394 27.1818 13.9394ZM23.697 2.78788H24.3939C24.5788 2.78788 24.7561 2.86131 24.8868 2.99202C25.0175 3.12272 25.0909 3.3 25.0909 3.48485C25.0909 3.6697 25.0175 3.84697 24.8868 3.97768C24.7561 4.10839 24.5788 4.18182 24.3939 4.18182H23.697C23.5121 4.18182 23.3348 4.10839 23.2041 3.97768C23.0734 3.84697 23 3.6697 23 3.48485C23 3.3 23.0734 3.12272 23.2041 2.99202C23.3348 2.86131 23.5121 2.78788 23.697 2.78788ZM23.697 5.57576H24.3939C24.5788 5.57576 24.7561 5.64919 24.8868 5.7799C25.0175 5.9106 25.0909 6.08788 25.0909 6.27273C25.0909 6.45757 25.0175 6.63485 24.8868 6.76556C24.7561 6.89627 24.5788 6.9697 24.3939 6.9697H23.697C23.5121 6.9697 23.3348 6.89627 23.2041 6.76556C23.0734 6.63485 23 6.45757 23 6.27273C23 6.08788 23.0734 5.9106 23.2041 5.7799C23.3348 5.64919 23.5121 5.57576 23.697 5.57576ZM20.2121 2.78788H20.9091C21.0939 2.78788 21.2712 2.86131 21.4019 2.99202C21.5326 3.12272 21.6061 3.3 21.6061 3.48485C21.6061 3.6697 21.5326 3.84697 21.4019 3.97768C21.2712 4.10839 21.0939 4.18182 20.9091 4.18182H20.2121C20.0273 4.18182 19.85 4.10839 19.7193 3.97768C19.5886 3.84697 19.5152 3.6697 19.5152 3.48485C19.5152 3.3 19.5886 3.12272 19.7193 2.99202C19.85 2.86131 20.0273 2.78788 20.2121 2.78788ZM20.2121 5.57576H20.9091C21.0939 5.57576 21.2712 5.64919 21.4019 5.7799C21.5326 5.9106 21.6061 6.08788 21.6061 6.27273C21.6061 6.45757 21.5326 6.63485 21.4019 6.76556C21.2712 6.89627 21.0939 6.9697 20.9091 6.9697H20.2121C20.0273 6.9697 19.85 6.89627 19.7193 6.76556C19.5886 6.63485 19.5152 6.45757 19.5152 6.27273C19.5152 6.08788 19.5886 5.9106 19.7193 5.7799C19.85 5.64919 20.0273 5.57576 20.2121 5.57576ZM3.48485 4.87879C3.48485 4.46525 3.60748 4.06099 3.83723 3.71714C4.06698 3.37329 4.39354 3.1053 4.7756 2.94704C5.15767 2.78878 5.57808 2.74738 5.98367 2.82806C6.38927 2.90873 6.76184 3.10787 7.05425 3.40029C7.34667 3.69271 7.54581 4.06528 7.62649 4.47087C7.70717 4.87647 7.66576 5.29688 7.50751 5.67894C7.34925 6.06101 7.08125 6.38756 6.7374 6.61731C6.39356 6.84707 5.9893 6.9697 5.57576 6.9697C5.02171 6.96808 4.49082 6.74727 4.09905 6.3555C3.70728 5.96373 3.48646 5.43283 3.48485 4.87879ZM5.57576 18.1212C5.16222 18.1212 4.75796 17.9986 4.41411 17.7688C4.07026 17.5391 3.80227 17.2125 3.64401 16.8305C3.48575 16.4484 3.44435 16.028 3.52502 15.6224C3.6057 15.2168 3.80484 14.8442 4.09726 14.5518C4.38968 14.2594 4.76225 14.0602 5.16784 13.9796C5.57344 13.8989 5.99385 13.9403 6.37591 14.0986C6.75798 14.2568 7.08453 14.5248 7.31429 14.8687C7.54404 15.2125 7.66667 15.6168 7.66667 16.0303C7.66504 16.5843 7.44423 17.1152 7.05246 17.507C6.66069 17.8988 6.1298 18.1196 5.57576 18.1212ZM6.9697 11.1515V9.75758H25.0909V11.1515H6.9697Z" fill="#2E3092"/>
<path d="M5.57588 16.7279C5.9608 16.7279 6.27285 16.4159 6.27285 16.031C6.27285 15.646 5.9608 15.334 5.57588 15.334C5.19095 15.334 4.87891 15.646 4.87891 16.031C4.87891 16.4159 5.19095 16.7279 5.57588 16.7279Z" fill="#2E3092"/>
<path d="M42.5156 18.1211H16.0307C14.1061 18.1211 12.5459 19.6813 12.5459 21.6059V36.9393C12.5459 38.8639 14.1061 40.4241 16.0307 40.4241H42.5156C44.4402 40.4241 46.0004 38.8639 46.0004 36.9393V21.6059C46.0004 19.6813 44.4402 18.1211 42.5156 18.1211Z" fill="#2E3092"/>
<path d="M33.4545 41.8184H25.0909C24.5364 41.8184 24.0045 42.0387 23.6124 42.4308C23.2203 42.8229 23 43.3547 23 43.9093C23 44.4638 23.2203 44.9956 23.6124 45.3878C24.0045 45.7799 24.5364 46.0002 25.0909 46.0002H33.4545C34.0091 46.0002 34.5409 45.7799 34.933 45.3878C35.3252 44.9956 35.5455 44.4638 35.5455 43.9093C35.5455 43.3547 35.3252 42.8229 34.933 42.4308C34.5409 42.0387 34.0091 41.8184 33.4545 41.8184Z" fill="#2E3092"/>
<path d="M8.85592 27.3857C8.72483 27.257 8.5482 27.1852 8.36447 27.1861C8.18074 27.1869 8.00477 27.2603 7.87485 27.3902C7.74493 27.5201 7.67157 27.6961 7.67074 27.8798C7.66991 28.0635 7.74167 28.2402 7.87041 28.3713L8.77155 29.2724H6.96922C6.41487 29.2718 5.88339 29.0513 5.4914 28.6593C5.09941 28.2674 4.87892 27.7359 4.87831 27.1815V22.9997C4.87831 22.8149 4.80488 22.6376 4.67418 22.5069C4.54347 22.3762 4.36619 22.3027 4.18134 22.3027C3.9965 22.3027 3.81922 22.3762 3.68851 22.5069C3.55781 22.6376 3.48437 22.8149 3.48438 22.9997V27.1815C3.48546 28.1054 3.85296 28.9912 4.50626 29.6445C5.15956 30.2978 6.04532 30.6653 6.96922 30.6664H8.77155L7.87036 31.5676C7.80498 31.6321 7.75302 31.709 7.71746 31.7937C7.68189 31.8784 7.66344 31.9693 7.66315 32.0612C7.66286 32.1531 7.68075 32.2442 7.71578 32.3291C7.75081 32.414 7.8023 32.4912 7.86727 32.5562C7.93225 32.6212 8.00943 32.6727 8.09438 32.7077C8.17933 32.7427 8.27036 32.7606 8.36225 32.7603C8.45413 32.76 8.54506 32.7416 8.62978 32.706C8.7145 32.6704 8.79136 32.6185 8.85592 32.5531L10.9468 30.4622C11.0116 30.3975 11.0629 30.3206 11.098 30.2361C11.133 30.1515 11.151 30.0609 11.151 29.9694C11.151 29.8779 11.133 29.7872 11.098 29.7027C11.0629 29.6181 11.0116 29.5413 10.9468 29.4766L8.85592 27.3857Z" fill="#2E3092"/>
<path d="M35.7492 12.3414C35.8137 12.407 35.8906 12.4593 35.9754 12.4951C36.0602 12.5309 36.1512 12.5495 36.2433 12.55C36.3353 12.5504 36.4265 12.5326 36.5117 12.4975C36.5968 12.4625 36.6741 12.4109 36.7392 12.3459C36.8043 12.2808 36.8558 12.2034 36.8909 12.1183C36.9259 12.0332 36.9437 11.942 36.9433 11.8499C36.9429 11.7579 36.9242 11.6668 36.8884 11.582C36.8526 11.4972 36.8004 11.4203 36.7347 11.3559L35.8336 10.4547H37.6359C38.1903 10.4553 38.7217 10.6758 39.1137 11.0678C39.5057 11.4597 39.7262 11.9912 39.7268 12.5456V16.7274C39.7268 16.9122 39.8002 17.0895 39.9309 17.2202C40.0617 17.3509 40.2389 17.4244 40.4238 17.4244C40.6086 17.4244 40.7859 17.3509 40.9166 17.2202C41.0473 17.0895 41.1207 16.9122 41.1207 16.7274V12.5456C41.1197 11.6217 40.7522 10.7359 40.0989 10.0826C39.4456 9.42932 38.5598 9.06182 37.6359 9.06073H35.8336L36.7348 8.15955C36.8001 8.09498 36.8521 8.01813 36.8877 7.9334C36.9232 7.84868 36.9417 7.75775 36.942 7.66587C36.9423 7.57398 36.9244 7.48295 36.8893 7.398C36.8543 7.31305 36.8028 7.23587 36.7379 7.1709C36.6729 7.10593 36.5957 7.05445 36.5107 7.01942C36.4258 6.98439 36.3348 6.96651 36.2429 6.9668C36.151 6.96709 36.0601 6.98555 35.9753 7.02112C35.8906 7.05668 35.8138 7.10865 35.7492 7.17403L33.6583 9.26494C33.5936 9.32964 33.5422 9.40646 33.5072 9.49102C33.4721 9.57557 33.4541 9.6662 33.4541 9.75772C33.4541 9.84925 33.4721 9.93987 33.5072 10.0244C33.5422 10.109 33.5936 10.1858 33.6583 10.2505L35.7492 12.3414Z" fill="#2E3092"/>
</svg>
