<svg width="56" height="62" viewBox="0 0 56 62" fill="none" xmlns="http://www.w3.org/2000/svg">
<path d="M55.5237 26.1739C54.9913 27.2068 53.9264 27.8586 52.7626 27.8586H46.5564V58.8952C46.5564 60.609 45.1685 61.9998 43.4519 61.9998H31.0366C29.3229 61.9998 27.9321 60.609 27.9321 58.8952V27.8586H21.7259C20.565 27.8586 19.4972 27.2098 18.9677 26.1739C18.4352 25.1411 18.5283 23.8957 19.2004 22.9501L34.7202 1.22421C35.8841 -0.408069 38.6045 -0.408069 39.7683 1.22421L55.2852 22.9501C55.9631 23.8957 56.0562 25.1411 55.5237 26.1739ZM15.5198 34.0649H3.10456C1.39079 34.0649 0 35.4557 0 37.1695V58.8954C0 60.6092 1.39079 62 3.10456 62H15.5198C17.2336 62 18.6244 60.6092 18.6244 58.8954V37.1695C18.6244 35.4528 17.2336 34.0649 15.5198 34.0649Z" fill="white"/>
</svg>
