<svg width="65" height="65" viewBox="0 0 65 65" fill="none" xmlns="http://www.w3.org/2000/svg">
<path d="M56.8699 46.4302C61.3568 46.4302 64.9942 42.7929 64.9942 38.3059C64.9942 33.819 61.3568 30.1816 56.8699 30.1816C52.383 30.1816 48.7456 33.819 48.7456 38.3059C48.7456 42.7929 52.383 46.4302 56.8699 46.4302Z" fill="white"/>
<path d="M34.8182 19.7359V10.451C34.8182 10.1432 34.9405 9.84796 35.1581 9.6303C35.3758 9.41264 35.671 9.29036 35.9788 9.29036H38.7991C38.9222 9.29072 39.0427 9.2551 39.1458 9.18788C39.2489 9.12066 39.3301 9.02477 39.3794 8.912C39.441 8.78996 39.4666 8.65293 39.4532 8.51689C39.4399 8.38085 39.3881 8.25141 39.3039 8.14368L32.9914 0.251509C32.934 0.173534 32.8591 0.110143 32.7727 0.0664534C32.6863 0.0227638 32.5909 0 32.494 0C32.3972 0 32.3018 0.0227638 32.2154 0.0664534C32.129 0.110143 32.0541 0.173534 31.9967 0.251509L25.6818 8.14368C25.5982 8.25099 25.5468 8.37988 25.5336 8.51531C25.5205 8.65074 25.5461 8.78712 25.6075 8.90852C25.6569 9.02129 25.7381 9.11718 25.8412 9.1844C25.9443 9.25162 26.0648 9.28724 26.1879 9.28688H29.0151C29.3229 9.28688 29.6181 9.40916 29.8358 9.62682C30.0534 9.84447 30.1757 10.1397 30.1757 10.4475V19.7324C30.1757 31.1169 22.1524 33.9197 17.8813 34.6045C18.3346 35.7859 18.5678 37.0403 18.5696 38.3057C18.5696 38.5529 18.5499 38.7966 18.5325 39.0392C22.096 38.3833 25.4418 36.8554 28.2712 34.5917C28.4407 34.4501 28.6472 34.3598 28.8663 34.3315C29.0855 34.3032 29.3081 34.338 29.5081 34.4318C29.7081 34.5257 29.8772 34.6747 29.9955 34.8613C30.1137 35.048 30.1763 35.2645 30.1757 35.4854V46.6992C31.7024 46.3402 33.2915 46.3402 34.8182 46.6992V35.4854C34.8183 35.2648 34.8813 35.0487 34.9998 34.8626C35.1183 34.6765 35.2875 34.528 35.4873 34.4346C35.6872 34.3412 35.9096 34.3067 36.1284 34.3351C36.3472 34.3635 36.5534 34.4538 36.7227 34.5952C39.5524 36.8576 42.8982 38.3843 46.4614 39.0392C46.444 38.7955 46.4243 38.5529 46.4243 38.3057C46.4266 37.0419 46.6599 35.7891 47.1125 34.6091C42.8415 33.9255 34.8182 31.1215 34.8182 19.7359Z" fill="white"/>
<path d="M32.4973 64.9996C36.9843 64.9996 40.6216 61.3622 40.6216 56.8753C40.6216 52.3883 36.9843 48.751 32.4973 48.751C28.0104 48.751 24.373 52.3883 24.373 56.8753C24.373 61.3622 28.0104 64.9996 32.4973 64.9996Z" fill="white"/>
<path d="M8.12429 46.4302C12.6112 46.4302 16.2486 42.7929 16.2486 38.3059C16.2486 33.819 12.6112 30.1816 8.12429 30.1816C3.63737 30.1816 0 33.819 0 38.3059C0 42.7929 3.63737 46.4302 8.12429 46.4302Z" fill="white"/>
</svg>
