<svg width="65" height="67" viewBox="0 0 65 67" fill="none" xmlns="http://www.w3.org/2000/svg">
<path d="M0.000244141 57.2441V61.203C0.000244141 63.7039 6.29406 66.5012 14.7211 66.5012C23.1482 66.5012 29.442 63.7039 29.442 61.203V57.2441C23.735 62.0801 5.70397 62.0801 0.000244141 57.2441Z" fill="white"/>
<path d="M0.000244141 49.29V53.2489C0.000244141 55.7498 6.29406 58.5471 14.7211 58.5471C23.1482 58.5471 29.442 55.7498 29.442 53.2489V49.29C23.735 54.126 5.70397 54.126 0.000244141 49.29Z" fill="white"/>
<path d="M0.000244141 41.3369V45.2958C0.000244141 47.7967 6.29406 50.594 14.7211 50.594C23.1482 50.594 29.442 47.7967 29.442 45.2958V41.3369C23.735 46.1728 5.70397 46.1728 0.000244141 41.3369Z" fill="white"/>
<path d="M0.000244141 33.3848V37.3436C0.000244141 39.8446 6.29406 42.6418 14.7211 42.6418C23.1482 42.6418 29.442 39.8446 29.442 37.3436V33.3848C23.8061 38.2207 5.6357 38.2177 0.000244141 33.3848Z" fill="white"/>
<path d="M14.7209 24.0801C6.29389 24.0801 0 26.8892 0 29.3901C0 31.891 6.29382 34.6883 14.7209 34.6883C23.148 34.6883 29.4418 31.891 29.4418 29.3901C29.4418 26.8892 23.148 24.0801 14.7209 24.0801Z" fill="white"/>
<path d="M35.5581 57.2441V61.203C35.5581 63.7039 41.8519 66.5012 50.279 66.5012C58.7061 66.5012 64.9999 63.7039 64.9999 61.203V57.2441C59.2929 62.0801 41.2618 62.0801 35.5581 57.2441Z" fill="white"/>
<path d="M35.5581 49.29V53.2489C35.5581 55.7498 41.8519 58.5471 50.279 58.5471C58.7061 58.5471 64.9999 55.7498 64.9999 53.2489V49.29C59.2929 54.126 41.2618 54.126 35.5581 49.29Z" fill="white"/>
<path d="M35.5581 41.3369V45.2958C35.5581 47.7967 41.8519 50.594 50.279 50.594C58.7061 50.594 64.9999 47.7967 64.9999 45.2958V41.3369C59.2929 46.1728 41.2618 46.1728 35.5581 41.3369Z" fill="white"/>
<path d="M35.5581 33.3848V37.3436C35.5581 39.8446 41.8519 42.6418 50.279 42.6418C58.7061 42.6418 64.9999 39.8446 64.9999 37.3436V33.3848C59.3639 38.2207 41.1936 38.2177 35.5581 33.3848Z" fill="white"/>
<path d="M35.5581 29.3901C35.5581 31.891 41.8519 34.6883 50.279 34.6883C58.7061 34.6883 64.9999 31.891 64.9999 29.3901C64.9999 26.8892 58.7061 24.0801 50.279 24.0801C41.8519 24.0801 35.5581 26.8892 35.5581 29.3901Z" fill="white"/>
<path d="M14.721 15.5336C15.0351 15.5336 15.3374 15.4091 15.5596 15.1869C15.7819 14.9646 15.9063 14.6624 15.9063 14.3483V4.86609C15.9063 3.55634 16.9671 2.49555 18.2769 2.49555H46.7234C48.0332 2.49555 49.094 3.55634 49.094 4.86609V11.4859L47.562 9.95393C47.0968 9.50649 46.359 9.51242 45.9027 9.97171C45.4434 10.428 45.4374 11.1659 45.8849 11.6311L49.4407 15.1869C49.6629 15.4092 49.9652 15.5336 50.2793 15.5336C50.5934 15.5336 50.8956 15.4092 51.1179 15.1869L54.6737 11.6311C55.1212 11.1659 55.1123 10.4281 54.656 9.97171C54.1996 9.51538 53.4618 9.50649 52.9966 9.95393L51.4646 11.4859V4.86609C51.4617 2.24962 49.34 0.127958 46.7235 0.125H18.277C15.6605 0.127963 13.5388 2.24962 13.5359 4.86609V14.3483C13.5359 14.6624 13.6603 14.9646 13.8826 15.1869C14.1048 15.4091 14.4069 15.5336 14.721 15.5336Z" fill="white"/>
</svg>
