<svg width="46" height="65" viewBox="0 0 46 65" fill="none" xmlns="http://www.w3.org/2000/svg">
<path d="M23.2383 1.72168C24.0143 0.645662 25.3534 0.231111 26.582 0.677734V0.676758C27.8117 1.12669 28.5908 2.31984 28.5137 3.65723L27.1582 26.9277L27.1279 27.457H42.5801C43.6433 27.457 44.6083 28.0365 45.1279 28.9824L45.1807 29.0869C45.6826 30.0945 45.5867 31.2876 44.9316 32.1963V32.1973L22.6006 63.2793L22.5996 63.2803C22.0341 64.0692 21.1633 64.5 20.2578 64.5C19.9317 64.5 19.5929 64.4404 19.2588 64.3193C18.0325 63.8689 17.2538 62.6766 17.3311 61.3428L18.6895 37.8564L18.7197 37.3271H3.42676C2.32453 37.3271 1.32642 36.7085 0.822266 35.6992C0.317609 34.6915 0.411224 33.5014 1.06641 32.5898L23.2373 1.7207L23.2383 1.72168Z" fill="white" stroke="black"/>
</svg>
