<svg width="48" height="25" viewBox="0 0 48 25" fill="none" xmlns="http://www.w3.org/2000/svg">
<path d="M46.6804 2.048H1.04C0.468002 2.048 0 1.5872 0 1.024C0 0.4608 0.468002 0 1.04 0H46.6804C47.2524 0 47.7204 0.4608 47.7204 1.024C47.7204 1.5872 47.2576 2.048 46.6804 2.048Z" fill="white"/>
<path d="M46.6804 13.312H18.2052C17.6332 13.312 17.1652 12.8512 17.1652 12.288C17.1652 11.7248 17.6332 11.264 18.2052 11.264H46.6804C47.2524 11.264 47.7204 11.7248 47.7204 12.288C47.7204 12.8512 47.2576 13.312 46.6804 13.312Z" fill="white"/>
<path d="M1.04 22.528H46.6804C47.2524 22.528 47.7204 22.9888 47.7204 23.552C47.7204 24.1152 47.2524 24.576 46.6804 24.576H1.04C0.468002 24.576 0 24.1152 0 23.552C0 22.9888 0.468002 22.528 1.04 22.528Z" fill="white"/>
</svg>
