<svg width="266" height="285" viewBox="0 0 266 285" fill="none" xmlns="http://www.w3.org/2000/svg">
<path d="M169.333 19.7967H172.758C197.486 19.8437 220.505 33.1622 232.836 54.5394C245.167 75.926 245.176 102.535 232.855 123.987L231.147 126.955C231.072 127.087 231.016 127.228 230.978 127.369L156.373 256.712L19.8799 177.609L19.6735 19.7497H168.911C169.052 19.7873 169.183 19.8061 169.324 19.8061L169.333 19.7967Z" fill="url(#paint0_linear_0_1)"/>
<path d="M181.608 0.852097H178.117C177.948 0.805134 177.779 0.776957 177.601 0.776957H2.29388C1.7496 0.776957 1.2147 0.992984 0.829946 1.37807C0.445192 1.76317 0.22937 2.28914 0.22937 2.8433L0.473369 188.88C0.473369 189.612 0.867484 190.298 1.50561 190.664L162.351 283.894C163.337 284.467 164.603 284.129 165.176 283.143C165.748 282.156 165.41 280.898 164.425 280.325L4.60242 187.696L4.36782 4.91903H177.131C177.3 4.96599 177.469 4.98478 177.647 4.98478H181.617C210.239 5.04113 236.899 20.4542 251.182 45.2127C265.465 69.9712 265.474 100.778 251.201 125.622L249.23 129.059C249.155 129.2 249.09 129.35 249.043 129.51L179.947 249.292L172.805 245.169L171.764 267.617L190.663 255.491L183.522 251.368L252.843 131.201C252.928 131.06 252.984 130.9 253.031 130.75L254.786 127.697C269.782 101.586 269.772 69.1916 254.758 43.1651C239.743 17.1386 211.722 0.936629 181.626 0.880275L181.608 0.852097Z" fill="url(#paint1_linear_0_1)"/>
<defs>
<linearGradient id="paint0_linear_0_1" x1="130.882" y1="63.443" x2="130.882" y2="256.712" gradientUnits="userSpaceOnUse">
<stop offset="0.346154" stopColor="#2E3092"/>
<stop offset="1" stopColor="#BA0007"/>
</linearGradient>
<linearGradient id="paint1_linear_0_1" x1="133.128" y1="284.173" x2="133.128" y2="0.776957" gradientUnits="userSpaceOnUse">
<stop stopColor="#BA0007"/>
<stop offset="0.548077" stopColor="#2E3092"/>
</linearGradient>
</defs>
</svg>