<svg width="327" height="294" viewBox="0 0 327 294" fill="none" xmlns="http://www.w3.org/2000/svg">
<path d="M224.922 234.123L223.204 237.091C210.808 258.497 187.779 271.796 163.108 271.796C138.437 271.796 115.408 258.497 103.011 237.091L101.294 234.123C101.219 233.992 101.125 233.869 101.022 233.766L26.4173 104.432L163.108 25.6762L299.799 104.432L225.175 233.794C225.072 233.898 224.987 234.01 224.912 234.132L224.922 234.123Z" fill="url(#paint0_linear_0_1)"/>
<path d="M164.356 0.720439C163.718 0.354133 162.93 0.354133 162.291 0.720439L1.20189 93.5274C0.216545 94.0909 -0.130669 95.3589 0.441768 96.3451C1.01421 97.3313 2.27169 97.6694 3.25704 97.1059L163.314 4.89069L321.579 96.0727L235.198 245.826C235.076 245.948 234.972 246.08 234.888 246.23L232.898 249.658C218.541 274.445 191.88 289.839 163.314 289.849C134.749 289.849 108.088 274.454 93.7303 249.658L91.7409 246.221C91.6564 246.08 91.5626 245.948 91.4406 245.835L20.9369 123.611L28.1628 119.432L9.26294 107.306L10.3046 129.745L17.3521 125.668L88.081 248.277C88.1655 248.418 88.2687 248.55 88.3813 248.672L90.1456 251.715C105.245 277.77 133.275 293.962 163.305 293.962C193.334 293.962 221.365 277.779 236.464 251.715L238.219 248.691C238.341 248.569 238.444 248.428 238.538 248.277L326.196 96.3169C326.468 95.8379 326.544 95.2743 326.403 94.7484C326.262 94.2224 325.915 93.7716 325.436 93.4992L164.347 0.692262L164.356 0.720439Z" fill="url(#paint1_linear_0_1)"/>
<defs>
<linearGradient id="paint0_linear_0_1" x1="163.108" y1="25.6762" x2="163.108" y2="271.796" gradientUnits="userSpaceOnUse">
<stop stopColor="#2E3092"/>
<stop offset="1" stopColor="#BA0007"/>
</linearGradient>
<linearGradient id="paint1_linear_0_1" x1="163.319" y1="0.445709" x2="163.319" y2="293.962" gradientUnits="userSpaceOnUse">
<stop stopColor="#2E3092"/>
<stop offset="1" stopColor="#BA0007"/>
</linearGradient>
</defs>
</svg>